<?xml version="1.0" encoding="UTF-8"?>
<svg width="512px" height="512px" contentScriptType="text/ecmascript" contentStyleType="text/css" version="1.1" viewBox="0 0 512 512" xmlns="http://www.w3.org/2000/svg">
 <g class="voronoi" stroke-width=".5">
  <path d="m458-37.1 39.9 3.59 31.6 25.6 4.85 5.94-17.3 17.4-55.1-29.8z" fill="#e3e3c9"/>
  <path d="m224 21s-3.68 29.4 6.04 37.5c10.1 8.5 39.7-0.678 39.7-0.678s19-7.82 35.3-0.501c3.06 1.38 16.1 13.9 19.5 13.7 14.6-0.702-1.6-44.3-1.6-44.3l-18.3-1.38c-30.8-2.33-85.5-34.8-80.6-4.36z" fill="#800030"/>
  <path d="m-13.2 126 13.2 3.6s6.93 0.0905 8.34 5.1c1.98 7.04-8.34 15-8.34 15l-10.9 11.6-25.6 20.8-12.6-8.24-3.62-33.7z" fill="#e3388e"/>
  <path d="m4.93 27.5c0.0781-7.17 6.66-15.1 13.7-16.6 13-2.79 35.8 17.7 35.8 17.7s9.63 24.6 1.38 30.7c-10.2 7.53-25.5-5.38-35.8-12.8-6.57-4.72-15.1-11-15-19.1z" fill="#00009c"/>
  <path d="m445-14.3 30.2 14 0.43 0.334s26.9 13.1 28.9 27.6c0.941 6.64-6.14 15.6-6.14 15.6s-11.8 11.2-19.9 9.95c-11.6-1.79-18.4-23.9-18.4-23.9l-10.2-29.3z" fill="#e3006f"/>
  <path d="m318-32.9 34.7 13.3-30.4 34.4s-8.08 6.04-11.6 2.79c-4.12-3.77-2.01-17.6-2.01-17.6l1.18-28z" fill="#8ee3e0"/>
  <path d="m195-13-30.8 26.4c-15.6 13.3-33.7 8.65-41.8 22.2-4.58 10.3 4.77 19.2 12.8 22.9 15.8 7.06 34.9 10.9 51.6 6.19 9.25-2.61 17.1-10 22.6-17.9 8.04-11.5 13.3-39.9 13.3-39.9l0.197-6.79 0.229-7.92z" fill="#550029"/>
  <path d="m-41.1 70.8 11-5.22 42.6 33.1s7.21 12.5 2.19 18.7c-4.09 5.03-14.7 2.55-14.7 2.55l-31.6-2.72-23.3-10.1 3-20.3z" fill="#e31caf"/>
  <path d="m533 148 16.4 59.2-1.36 0.59-14-1.31-22.2-14.1s-8.95-4.08-9.26-12.2c-0.326-8.58 9.26-16.3 9.26-16.3z" fill="#005528"/>
  <path d="m-18 59.4 28.4-15.1s29.6 19.5 33.8 35.2c0.6 8.91-1.23 36.4-9.24 31.1l-11.2-7.47-23.7-24.9z" fill="#001c34"/>
  <path d="m405 50.5c-8.76 0.0462-14.4 10.2-16.9 30.5-1.78 14.5-1.61 23.2 0.516 26 32.2-2.45 55.5 7.04 92.2 10.2l51 4.39-6.92-22.9-42.6-33.1c-31-24.1-57.1-14.1-77.3-15z" fill="#e31caf"/>
  <path d="m86.9-50 14.6-13.7 19.3 17.6 5.01 36.9-4.68 9.17s-3.8 7.93-9.45 9.21c-8.29 1.88-18.7-9.21-18.7-9.21l-12.5-9.53z" fill="#1ce39d"/>
  <g>
   <path d="m361-16.4-17 16.4-14.3 22.8c-6.28 10.1 9.91 38.8 7.42 44-3.33 6.99-12 16-8.07 23.2 6.67 12 28.2 15.7 40.2 9.03 14.8-8.23 12.6-15.1 16.7-48 1.07-8.69 1.54-15 3.17-22.4 1.99-9 8.02-26.4 8.02-26.4l-13.1-13.8z" fill="#aa0016"/>
   <path d="m36.8 118c-10.2 8.21-8.19 14.8-14.3 22.6s-22.5 23.5-22.5 23.5l-20.6 15.4 42.8 27.2 14 1.31c9.68-10.9 24.3-28.2 36.6-44.3z" fill="#005528"/>
   <path d="m437 118c-5.17 0.0753-25.5-0.688-33.4 0.0945-17.9 1.78-13 5.95-14.9 25.2-1.62 16.4 14.4 60.9 37.8 60.1 24.6-2.77 30.7-5.54 49.5-20.8l25.6-20.8 26-27.6-15-4.11s-8.74-2.61-13.2-3.6c-8.11-1.8-16.3-3.03-24.6-4.2-12.5-1.79-27.5-4.43-37.6-4.32z" fill="#e3388e"/>
  </g>
  <path d="m144-36 38.5 18.1-24.9 29.8s-47.1 18.8-39.3 9.56c5.71-6.7 12.1-21.5 12.1-21.5l5.04-30.8z" fill="#38e3df"/>
  <path d="m393 31.5c-2.05-7.1 7.56-20.8 7.56-20.8l27.8-17.7 4.63 7.05s26 28 20.3 43.5c-2.43 6.7-13.5 4.23-13.5 4.23s-20 1.03-29-2.51c-6.99-2.73-15.7-6.59-17.8-13.8z" fill="#c700b4"/>
  <path d="m238-35.6 35.3-15.2 27 15.5 0.782 35.2 0.202 9.07s0.824 5.03-2.32 6.64c-17.8 9.1-58.5-14.4-58.5-14.4l-11.1-12z" fill="#71e3d0"/>
  <path d="m29.9 0.189 0.149-0.189 2.32-2.94 20.7-20 11.7 3.96 16.6 19s16.8 16.6 17.7 27.7c0.284 3.72 1.6 5.09-1.6 7.02-7.88 4.76-15.1 4.48-23.8 1.49-17.1-5.89-43.7-36.1-43.7-36.1z" fill="#1c0024"/>
  <path d="m-54.2-37.1 39.9 3.59 31.6 25.6 4.85 5.94-17.3 17.4-55.1-29.8z" fill="#e3e3c9"/>
  <path d="m503 60.4c1.09-6.72 9.2-10.6 9.2-10.6l10.4-5.52 33.8 35.2-7.42 29.5-1.82 1.62-11.2-7.47-23.7-24.9s-10.6-9.27-9.2-17.9z" fill="#001c34"/>
  <path d="m88.9 44.2c-8.42 2.37-16.8 7.7-25.1 16-8.12 8.12-13.6 18.1-16.5 30-2.83 11.6 7.1 17.7 29.8 18.4 19.8 0.598 21.4 4.94 43.3 7.89 2.73 3.11 9.93 4.74 21.6 4.9 13.3 0.175 21.7-0.851 25.2-3.08 3.97-2.53 7.3-9.76 9.98-21.7 3.05-13.6-5.26-22.8-24.9-27.7-20.8-1.73-17.1-3.86-37.2-21.5-6.59-5.09-18.8-5.18-26.1-3.16z" fill="#2a1cd3"/>
  <path d="m324 105q0.228-0.706 4.17-3.74 0.253-0.195 48 5.83 3.06 0.386 7.67 6.46 0.296 0.39-4.67 50.6-0.319 3.22-3.21 6.73-0.186 0.226-15 2.62-0.952 0.153-38.1-54-2.38-3.47 1.17-14.5z" fill="#aa38e4"/>
  <path d="m209 192q12.6 0.907 18 12.4 2.74 5.77 0.525 17.4-1.12 5.86-32.3 24.7-15.7 9.49-21.7-11.9-3.02-10.8 5.95-33.1 4.52-11.2 29.5-9.43z" fill="#5555a5"/>
  <g>
   <path d="m220 71.8c-13.4-0.0925-26.5 2.57-32.7 9.84-9.96 11.6-4.38 32.9 0.996 35.8 19.4 10.4 28.1 13.2 32.3 17.1 4.98 4.63 6.64 12.9 6.81 13.7 2.17 10 8.84 12.4 14.8 11.8 31.5-3.29 34.3 1.38 47.6-7.62 12.6-8.54 12.8-22.3 23.5-39.2 4.24-6.71 2.98-11.6 1.63-12-25.4-1.59-50.3-20.5-72-26.5-6.82-1.63-15-2.68-23-2.74z" fill="#682529"/>
   <path d="m376 180c-4.85-2.61-15.4 2.61-16.2 3.01-7.25 3.44-12.3 7.62-16.6 8.24-9.49 1.35-21.3-4.59-31.5-2.02-10.2 2.57-22.7 7-26.7 16.7-3.04 7.33-0.264 17.6 5.35 23.2 3.2 3.2 5.65 2 13.2 3.06 25.6 3.56 51 0.908 73.1 7.92 10.4 3.69 19.2-12.4 17.2-18.2-16.5-39.7-4.43-34.7-17.8-41.9z" fill="#9c5558"/>
   <path d="m50.8 114c-5.4 0.0103-8.26 0.175-8.58 0.492-0.557 0.557 6.19 9.85 20.2 27.9 12.3 15.8 22.7 23.6 31.1 23.3 16.5-1.38 16.8 2.33 23.7 12.9 4.93 7.32 13.9 8.88 26.9 4.68 13.3-4.28 19.4-14.6 18.4-31-1.04-16.7-11.1-19.4-20.1-25.3-25.4-5.15-42.3-11.7-67.8-12.5-10.5-0.297-18.4-0.44-23.8-0.43z" fill="#2a382c"/>
  </g>
  <path d="m290 164c7.57 3.82 16.1 12.4 14.7 20.8-1.86 10.9-8.97 6.55-27.1 19.3-0.124 0.0873-29.6 10.1-41.7 3.15-5.51-3.15-6.97-4.54-8.41-17.1-3.3-28.7 40-36.5 62.6-26.1z" fill="#7155f0"/>
  <path d="m293 59.6c11.8 1.7 29 18.3 29 21 0.0913 9.85-0.168 15-0.779 15.5-2.19 1.69-7.67 1.05-16.4-1.9-31.4-10.6-47.3-11.1-47.1-21.6 0.115-7.94 24.3-15 35.4-13z" fill="#8e1c3e"/>
  <path d="m168 127c0.633-4.68 8.39-5.66 13.1-5.38 16.4 0.989 33.4 10.7 42.9 24 3.61 5.05 3.78 12.1 3.32 18.3-0.622 8.22-1.12 18.9-8.01 23.4-10.2 6.64-35.8-2.7-36.3-2.99-8.41-4.87-11.7-4.76-12.8-10.1-3.1-15.6-4.26-32.7-2.29-47.3z" fill="#553819"/>
  <path d="m310 138c7.78-8.85 11.7-12.6 21.7 1.98 16.4 23.9 21.5 37.3 15.3 40.2-10.2 4.82-17.9 6.55-23.2 5.2-8.72-2.22-15-6.58-18.7-13.1-6.18-10.7-5.09-7.21-4.55-11.4 0.885-6.94 4.73-17.5 9.47-22.9z" fill="#8e3863"/>
  <path d="m126 195q0.128-0.981 35.2-12.3 4.31-1.39 16.2 5.51 1.46 0.846-10.6 30.7-1.48 3.66-37.5-13.8-4.42-2.14-3.38-10.1z" fill="#3855d9"/>
  <path d="m94.2 172q11.9-0.348 19.2 10.5 7.37 10.9 6.78 15.4-0.589 4.52-6.3 16.8-5.78 12.5-35.8 2.47-30.4-10.1-13.1-27.4 17.5-17.5 29.3-17.8z" fill="#1c557e"/>
 </g>
</svg>
