<?xml version="1.0" encoding="UTF-8"?>
<svg width="512px" height="512px" contentScriptType="text/ecmascript" contentStyleType="text/css" version="1.1" viewBox="0 0 512 512" xmlns="http://www.w3.org/2000/svg">
 <g class="voronoi" stroke-width=".5">
  <path d="m458-37.1 39.9 3.59 31.6 25.6 4.85 5.94-17.3 17.4-55.1-29.8z" fill="#e3e3c9"/>
  <path d="m319 21.2-16 4.53-8.57 12.6c-3.32 4.9-0.772 4.94-17 21.2-6 6-18.5 9.85-14.1 15.2 11.3 13.6 10.9 10.4 45 20.3 25.7 7.42 19.4 14 30.7 14.3 12 0.329 12.2-3.95 33.3-13.3 5.59-2.48 10.1-17.7 13.5-45.6 0.909-7.39 0.969-12.3 0.18-14.9-0.209-0.665-5.03-0.33-14.5 1-35.9 0.975-26.8-14.5-52.6-15.3z" fill="#97131d"/>
  <path d="m-13.2 126 13.2 3.6s8.2 1.26 9.61 6.26c1.98 7.04-9.61 13.8-9.61 13.8l-10.9 11.6-25.6 20.8-12.6-8.24-3.62-33.7z" fill="#e3388e"/>
  <path d="m18.6 10.9c-5.3-1.9-9.23 6.71-9.67 13.9-1.6 26 38 68.8 38 68.8 5.03 7.91 9.92 14.4 30.2 14.9 22.2 0.629 33.6-7.8 34.3-25.3 0.617-17.1-0.839-28.5-4.37-34.3-2.21-3.59-5.48-5.52-9.79-5.82 0 0-58-24.8-78.6-32.2z" fill="#0e0e25"/>
  <path d="m445-14.3 30.2 14 0.43 0.334s32.5 12.4 34.6 26.9c0.941 6.64-2.64 18-7.24 22.9-5.62 5.96-15.5 10.2-23.6 8.9-11.6-1.79-19.3-29.5-19.3-29.5l-10.2-29.3z" fill="#e3006f"/>
  <path d="m318-32.9 34.7 13.3-30.4 34.4s-7.14 2.95-10.7-0.308c-4.12-3.77-2.94-14.5-2.94-14.5l1.18-28z" fill="#8ee3e0"/>
  <path d="m111 30c2.05-5.48 6.21-10.9 11.6-13.2 7.56-3.25 17.3 2.51 25.3 4.77 15.5 4.42 42 23.9 42 23.9s3.22 14.2-2.73 19c-13.5 10.9-51.6-6.19-51.6-6.19s-19.9-7.95-24.5-16.7c-1.83-3.43-1.42-8.03-0.053-11.7z" fill="#3800b4"/>
  <path d="m-41.1 70.8 11-5.22 42.6 33.1s7.29 9.35 2.26 15.5c-4.09 5.03-14.7 5.68-14.7 5.68l-31.6-2.72-23.3-10.1 3-20.3z" fill="#e31caf"/>
  <path d="m533 148 16.4 59.2-1.36 0.59-14-1.31-22.2-14.1s-10.9-4.55-11.2-12.7c-0.326-8.58 11.2-15.8 11.2-15.8z" fill="#005528"/>
  <path d="m195-13 28 5.11-0.229 7.92s-0.5 4.55-0.196 6.79c1.84 13.6 20.6 28.6 12.1 39.3-6.89 8.66-22.8 1.69-33.1-2.39-14.9-5.91-37.2-14.3-37.4-30.4-0.0844-6.84 15.6-13.3 15.6-13.3z" fill="#550029"/>
  <path d="m-18 59.4 18-9.57s8.82-5.98 10.8-2.58c5.19 8.97 15.8 23.5 21 38 2.72 7.62 14.5 15 12 22.6-0.254 0.772-5.79 3.17-8.84 2.73-4.44-0.645-11.2-7.47-11.2-7.47l-23.7-24.9z" fill="#001c34"/>
  <path d="m471 70.8c3.07-2.65 6.95-5.66 11-5.22 12.7 1.38 30.2 23.4 30.2 23.4l12.5 9.69 6.92 22.9-19.4-1.67s-1.13-0.42-11.4-3.02c-8.2-2.08-36.6 15.5-40.7 8.05-3.32-5.98-2.31-31.8 0.163-38.2 2.32-5.99 5.89-11.8 10.8-16z" fill="#e31caf"/>
  <path d="m86.9-50 14.6-13.7 19.3 17.6 5.01 36.9-4.68 9.17s-1.94 9.89-7.59 11.2c-8.29 1.88-20.6-11.2-20.6-11.2l-12.5-9.53z" fill="#1ce39d"/>
  <path d="m361-16.4 23.1 4.88 13.1 13.8s-3.66 20.2-11.2 25.7c-5.17 3.77-12.7 2.51-19.1 1.93-14.3-1.31-32.4-0.783-35.8-14.7-2.06-8.31 12.9-15.1 12.9-15.1z" fill="#aa0016"/>
  <path d="m50.7 114c-12 0.0755-4.66 2.03-16.9 5.48-5.71 1.6-9.83 6.84-11.8 12.1-1.07 2.89-3.06 5.86-4.15 8.75-3.76 10-17.8 23.3-17.8 23.3l-20.6 15.4 20.6 13.1s13.9 11.3 22.2 14.1c4.43 1.52 14 1.31 14 1.31 12.2 1.14 28.5-22.6 42.9-33.2 24.2-17.9 21.6-7.99 30-32.3 4.56-13.6 5.88-21.6 3.94-23.8-1.7-1.93-14.5-3.24-38.4-3.92-10.5-0.297-18.4-0.464-23.8-0.43z" fill="#005528"/>
  <path d="m499 126c4.55-0.174 13.2 3.6 13.2 3.6l15 4.11-26 27.6s-14.6 20.2-25.6 20.8c-5 0.258-9.95-3.96-12.6-8.24-5.9-9.64-9.63-24.1-3.62-33.7 7.43-11.8 25.5-13.6 39.5-14.1z" fill="#e3388e"/>
  <path d="m144-36 38.5 18.1-15 17.9s-5.14 10-9.94 11.9c-8.93 3.52-19 5.41-24.7-2.27-1.69-2.26-2.51-9.62-2.51-9.62l5.04-30.8z" fill="#38e3df"/>
  <path d="m428-7.05-27.8 17.7s-6.39 13.5-7.56 20.8c-1.34 8.32 0.717 25.3 0.717 25.3 0.126 4.44 6.52 9.93 5.4 19.1-1.29 10.5 7.52 31.5 8.18 47.6 0.25 6.1-0.463 10.9-1.61 18.2-2.61 16.7 5.09 24.8 23.1 24.1 15.3-0.556 23.8-9.34 25.4-26.4 1.18-23.9 2.36-37.2-0.955-52.3-3.52-16 1.26-27.9-0.243-42-2.12-16.4-20-45.2-20-45.2z" fill="#c700b4"/>
  <path d="m534 132 11.8-12.1 3-1.97 36 45.8-27.7 36.2-5.32 3.8-17.2-61z" fill="#0038dc"/>
  <path d="m274-50.8-35.3 15.2-8.62 24.9 9.91 10.7 4.87 14c4.4 12.7-7.16 40.8 4.1 41.9 0 0 14.7 4.59 21.4 2.01 11.9-4.6 25.7-28.3 25.7-28.3 4.88-5.35 4.43-13.5 5.94-20.6l-0.201-9.07-0.783-35.2z" fill="#71e3d0"/>
  <path d="m29.9 0.189 0.149-0.189 2.32-2.94 20.7-20 11.7 3.96 16.6 19s21.2 14.1 22.1 25.3c0.284 3.72-2.54 8.04-6 9.46-7.69 3.16-24.3-5.59-24.3-5.59z" fill="#1c0024"/>
  <path d="m-54.2-37.1 39.9 3.59 31.6 25.6 4.85 5.94-1.93 1.95s-5.34 12.8-12.5 13.8c-1.83 0.271-7.73-0.975-7.73-0.975l-50.2-27.1z" fill="#e3e3c9"/>
  <path d="m501 59.4c1.09-6.72 11.1-9.57 11.1-9.57l10.4-5.52 33.8 35.2-7.42 29.5-1.82 1.62-11.2-7.47-23.7-24.9s-12.5-10.3-11.1-18.9z" fill="#001c34"/>
  <path d="m319 103c1.44 0.486 3.48 2.88 6.1 7.18 0.0907 0.149-34.1 33.8-55.7 33-7.33-0.254-3.83-0.398-18.1-12.5-0.496-0.421-5.94-28.3 3.41-35.8 16.8-13.5 22.7-5.92 64.3 8.08z" fill="#711cea"/>
  <g>
   <path d="m432 173c-22.7-1.72-44.6 8.32-60.9 11.4-4.79 0.845-12.1 0.139-14.4 2.13-2.42 2.02-6.84 9.56-13.3 22.6-6.5 13.2-0.482 25.5 18.1 36.8 18.8 11.4 20.8 17.9 32.7 15.9 5.18-0.849 6.91-8.06 11.2-11.1 14.8-10.3 32.6-8.29 48.8-22.9 1.32-1.32 3.49-8.27 6.51-20.9 2.99-12.5 2.11-21.4-2.63-26.8-4.1-4.7-12.8-7.11-26.2-7.23z" fill="#b9557f"/>
   <path d="m382 103c-5.65 0.156-13.6 3.76-20.4 5.53-9.7 2.52-19.9 3.34-29.2 7.24-12.3 5.21-13.5 6.1-34.1 21.2-14.4 10.5-21.2 17.7-20.5 21.5 0.515 2.67 14.4 7.87 41.7 15.6 18.8 6.42 38.6 4 52.9 2.05 5.85-1.05 12.6-0.831 17.3-4.09 4.26-2.9 7.89-14 10.9-33.3 2.67-17.1 0.153-28.2-7.55-33.1-3-1.92-6.69-2.82-11.1-2.7z" fill="#9c3872"/>
   <path d="m193 190c-0.681-0.017-1.29 2e-3 -1.83 0.0606-5.28 0.571-7.67 6.13-7.19 16.7 0.595 12.9 2.09 22 4.47 27.1 2.92 6.32 10.9 8.7 23.9 7.14 10.1-0.305 26.7-8.56 30.4-1.59 4.67 3.75 8.8 3.89 12.4 0.436 18.6-17.8 27-28.2 25.2-31.2-21.1-4.57-17.2-6.69-35.4-9.9-15.9-2.81-13.1-0.714-27.3-2.85-11.7-3.81-20-5.78-24.7-5.89z" fill="#635527"/>
   <path d="m133 127c-8.53 4e-3 -13.1 1.01-13.8 3.03-8.57 25.6-10.2 27-10.7 41.2-0.294 9.05 5.62 23.5 5.09 26.7-2.94 17.6-0.95 32.6-0.357 35.1 1.76 7.49 8.06 9.64 18.9 6.46 30.9-9.09 46.3-16.7 46-22.8-0.801-17.4-0.404-18-2.11-26.8-0.923-4.78-3.92-9.66-4.36-13.9-4.13-31.1-8.01-46.8-11.6-47.2-11.4-1.21-20.4-1.82-27-1.82z" fill="#3847c6"/>
   <path d="m221 52.6c-6.29-0.109-9.95 1.52-10.1 1.58-7.35 5.43-21.3 19.6-23.6 28.1-1.7 5.75-8.79 41.2-12.2 41.9-2.87 3.03-3.7 9.07-2.5 18.1 3.5 26.4 5.55 39.8 6.14 40.3 1.73 1.41 3.82 1.98 6.27 1.71 7.14-0.773 14.4-5.29 21.9-13.6 12.4-13.7 19.5-23.8 21.4-30.3 4.49-4.26 16.2-16.6 16.8-21.3 3.32-26.3 4.98-39.5 4.96-39.6-0.0827-0.193 1.23-15.1-3.37-18-10.6-6.91-19.5-8.75-25.8-8.86z" fill="#552a7d"/>
   <path d="m246 135c-12.9 1.12-9.12 9.61-26.3 28.6-12.1 13.4-11 22.4 3.26 27 41.3 0.329 60.9 18.3 89 33.1 6.62 3.47 11 4.57 13.2 3.3 0.885-0.513 5.92-10.1 15.1-28.8 3.73-7.6-10.9-16.1-43.8-25.4-9.3-1.22-18.8-8.71-26.8-15.1-5.33-4.23-5.11-7.7-13.8-15.1-6.1-5.18-5.76-7.96-9.91-7.6z" fill="#715533"/>
  </g>
  <path d="m91.9 172c6.83-0.199 9.37 2.71 15.3 10.2 6.01 7.55 5.52 17.8 1.26 28.7-4.3 11-11.2 12.9-31.1 6.22-20.2-6.72-21.7-13.9-10.2-25.4 11.6-11.6 18-19.5 24.7-19.7z" fill="#1c557e"/>
  <path d="m152 68.8q29.5 7.39 24.6 29.2-4.3 19.2-7.38 22.4-2.7 2.86-26.4 0.335-20.8-2.22-23.7-5.52-2.55-2.91-1.56-30.5 0.876-24.3 34.4-15.9z" fill="#381c86"/>
 </g>
</svg>
