<?xml version="1.0" encoding="UTF-8"?>
<svg width="512px" height="512px" contentScriptType="text/ecmascript" contentStyleType="text/css" version="1.1" viewBox="0 0 512 512" xmlns="http://www.w3.org/2000/svg">
 <g class="voronoi" stroke-width=".5">
  <path d="m458-37.1 39.9 3.59 31.6 25.6 4.85 5.94-17.3 17.4-55.1-29.8z" fill="#e3e3c9"/>
  <path d="m303 25.7 3.17-4.14 11.2 0.316s39.2 3.25 40.1 9.42c0.854 5.86-15.7 36.9-30.3 37.6-12.6 0.605-21.9-30.4-21.9-30.4z" fill="#8e00cf"/>
  <path d="m-13.2 126 13.2 3.6s5.89 2.83 7.3 7.84c1.98 7.04-7.3 12.2-7.3 12.2l-10.9 11.6-25.6 20.8-12.6-8.24-3.62-33.7z" fill="#e3388e"/>
  <path d="m445-14.3 30.2 14 0.43 0.334s32 12.5 34.6 26.9c0.804 4.47-3.27 9.25-7.16 11.6-7.85 4.72-26.7 8.62-35.4 5.72-5.52-1.84-1.42-10.2-5.23-15.3-6.2-8.26-12.5-28.9-12.5-28.9z" fill="#e3006f"/>
  <path d="m318-32.9 34.7 13.3-30.4 34.4-14.4 1.9 0.707-16.7 1.18-28z" fill="#8ee3e0"/>
  <path d="m144-36-8.68 5.25-5.04 30.8-5.88 16.9s-1.6-0.39-2.3-0.0859c-5.37 2.31-9.53 7.7-11.6 13.2-1.36 3.64-1.77 8.23 0.0527 11.7 4.65 8.73 20 11.3 34.5 15.7 25.7 7.89 46.3 29.5 33.7-12.1l-3.43-11.3-7.85-34 15-17.9z" fill="#38e3df"/>
  <path d="m-41.1 70.8 11-5.22 42.6 33.1s20.9 11.4 15.9 17.6c-4.09 5.03-28.3 3.65-28.3 3.65l-31.6-2.72-23.3-10.1 3-20.3z" fill="#e31caf"/>
  <path d="m533 148 16.4 59.2-1.36 0.59-14-1.31-22.2-14.1s-9.69-3.65-10-11.8c-0.326-8.58 10-16.7 10-16.7z" fill="#005528"/>
  <path d="m195-13 28 5.11-0.229 7.92-0.196 6.79s-3.8 29.6-13.3 39.9c-5.1 5.54-14.2 12.6-20.8 8.91-12.4-6.97-3.57-28.2-6.01-42.3-0.781-4.47-2.76-13.3-2.76-13.3z" fill="#550029"/>
  <path d="m-18 59.4 18-9.57s10.3-4.25 14.2-4.31c14.3-0.217 29.5 5.88 34.8 17.8 6.4 14.4-12.2 45.7-12.2 45.7s-4.49 1.12-6.54 0.363c-2.8-1.04-6.47-6.21-6.47-6.21l-23.7-24.9z" fill="#001c34"/>
  <path d="m403 43.7c-8.26 0.124-11.6 12-13.7 28.9-1.43 11.6 4.2 21 16.9 28 5.92 3.28 1.02 14.1 22.3 16 0 0 34.8 1.05 55.1 1.73 11.3 0.38 28.4 1.51 28.4 1.51l19.4 1.67-6.92-22.9-12.5-9.69-29.9-15.6s-7.66-4.01-11.2-2.6c-2.89 1.14-9.58 2.31-9.58 2.31-14.6 1.05-29.7-13.9-50.2-26.6-3.16-1.95-5.86-2.84-8.17-2.8z" fill="#e31caf"/>
  <path d="m86.9-50 14.6-13.7 19.3 17.6 5.01 36.9-12.6 24.7-32.7-25z" fill="#1ce39d"/>
  <path d="m361-16.4 23.1 4.88 13.1 13.8s-3.66 20.2-11.2 25.7c-5.17 3.77-12.7 2.73-19.1 1.93-12.3-1.54-20.3-8.28-35-12.8-8.19-2.51 12.1-17.1 12.1-17.1z" fill="#aa0016"/>
  <path d="m36.8 118c-2.64-2.27-8.29 6.34-8.29 6.34s-5.44 4.56-6.5 7.76c-1.13 3.42 0.656 10.8 0.656 10.8s10.9 44.9 25.7 60c5.46 5.54 13.8 7.65 13.8 7.65 3.14 2.5 7.76 4.77 13.9 6.8 19.6 6.54 28.5 0.593 26.5-17.8-1.92-18.2-16-31.7-22.3-31.6 0 0-29.1-37.5-43.5-49.9z" fill="#0e47ad"/>
  <path d="m427 122c-9.93 0.987-12.8-0.448-19.4 18.1-5.61 15.8-8.46 17.7-4.97 25.7 2.6 5.97 0.145 10.9 16.6 10.3 1.37-0.0497 15.8-1.98 17.1-1.72 0 0 26.4 11.3 39.4 8.11 10.7-2.61 25.6-20.8 25.6-20.8l26-27.6-15-4.11s-8.66-3.11-13.2-3.6c-24.9 0.533-49.2-6.72-72-4.48z" fill="#e3388e"/>
  <path d="m393 31.5 7.56-20.8 27.8-17.7 4.63 7.05s21 26.1 25.5 42.1c2.59 9.11 11.5 21.9 2.79 25.6-4.4 1.9-27.4-19.6-42.4-27-8.23-4.03-25.9-9.25-25.9-9.25z" fill="#c700b4"/>
  <path d="m238-35.6 35.3-15.2 27 15.5 0.782 35.2 0.202 9.07-3.41 10-57.4-17.8-11.1-12z" fill="#71e3d0"/>
  <path d="m9.34 25.5c-3.76-10.3 20.7-25.5 20.7-25.5l2.32-2.94 20.7-20 11.7 3.96 16.6 19s18.3 16.6 19.1 27.7c0.284 3.72-10.8 8.48-10.8 8.48s-17.3 18.4-32 17.8c-18.7-0.769-41.2-9.26-48.3-28.6z" fill="#1c0024"/>
  <path d="m20 166c7.94 12.6 22.5 39.7 17.6 41.1-5.65 1.59-9.93 0.733-15.4-0.722l-42.8-27.2 20.6-15.4s12.9-8.92 20 2.28z" fill="#005528"/>
  <path d="m-54.2-37.1 39.9 3.59 31.6 25.6 4.85 5.94-17.3 17.4-55.1-29.8z" fill="#e3e3c9"/>
  <path d="m271 16.4s23.4 3.93 25 13.2c2.19 12.6-14.1 23-25.7 28.3-12.1 5.45-29.6 9.17-39.7 0.677-9.72-8.14-13.8-27.5-6.04-37.5 9.49-12.3 46.4-4.62 46.4-4.62z" fill="#710098"/>
  <path d="m493 48.1c5.29-0.068 10.7 6.91 15.3 4.32 1.37-0.776 3.97-2.55 3.97-2.55l10.4-5.52 33.8 35.2-7.42 29.5-1.82 1.62-11.2-7.47-23.7-24.9s-30.8-13.9-46.8-26.7c-5.52-4.4 20.5-3.46 27.6-3.55z" fill="#001c34"/>
  <path d="m299 125q33.8-5.15 34.6-4.43 0.763 0.711 1.92 10.2 1.14 9.44-16.7 15.1-17.7 5.65-35.9-5.1-18-10.7 16-15.8z" fill="#8e387f"/>
  <path d="m120 160c6.57-4.85 14.3-4.92 23.2-0.194 5.54 2.94 10 8.89 13.4 17.9 2.13 5.58-1.18 16.1-9.95 31.6-5.46 9.64-14 15.1-25.7 16.3-7.29 0.779-9.77-3.68-12.6-6-8.83-7.17 0.427-4.22-1.95-26.8-1.48-14.1 3.06-25 13.6-32.8z" fill="#385521"/>
  <g>
   <path d="m96.3 43.1c-2.19-0.0272-4.62 0.337-7.31 1.09-8.42 2.37-16.8 7.7-25.1 16-8.12 8.12-13.6 18.1-16.5 30-1.22 5-0.295 7-0.833 11.6-1.02 8.67-4.51 8.63-3.71 13.1 2.01 11.3 6.19 9.85 20.2 27.9 12.3 15.8 25.4 16.9 32 16.7 5.84-0.17 9.77 3.07 18.9-3.66 6.85-5.06 33.4-40.3 39.5-55 17.7-12.8 27.6-13.7 27.3-22.2-0.0828-2.37-9.05-5.93-28.7-10.9-9.68-2.42-12.4-2.39-17.6-4.98-5.43-2.69-11.9-11.5-27.3-13.5-0.0347-0.0581-0.0665-0.125-0.102-0.182-2.37-3.86-5.97-5.81-10.8-5.87z" fill="#25254f"/>
   <path d="m276 170c14.7 5.52 34 27.1 33.9 32.6-0.144 5.86-21.5 25-36.1 24.7-14-0.318-28.4-12.3-33.6-25.3-3.65-9.13 0.51-10.6 4.81-29.1 0.223-0.96 3.65-1.65 24.2-2.59 0 0 4.7-1.12 6.83-0.312z" fill="#715561"/>
   <path d="m211 54.3c-2.3 0.123-3 1.93-5.39 4.32-11 11-16.6 16.9-16.8 17.7l-0.0625 0.109c-0.805 3.58-0.534 8.08 0.812 13.5 6.22 25 11.5 38.1 15.9 39.4 20.2 5.83 16.1 8.28 23.6 8.56 7.46 0.281 9.58-3.9 10.2-4.83 8.74-1.05 23.5-4.94 24.8-5.14 43.7-6.68 59.6-5.15 63.8-17.2 1.29-3.74-7.55-7.24-8.99-7.73l-0.0605-0.084c-7.11-6.73-69.8-13.2-68.5-23.3-0.08-0.193-2.42-1.79-7.02-4.78-21.2-13.8-19.5-21.3-32.2-20.6z" fill="#631c70"/>
  </g>
  <path d="m344 193q9-25.4 16.9-25 32.9 1.46 34.2 2.2 5.13 3.04 6.69 15.9 6.47 53.3 4.94 54.5-6.37 5.3-16.5-1.8-42.2-29.5-43.4-31.5-4.92-8.18-2.75-14.3z" fill="#aa5539"/>
  <path d="m371 36.6q14.1-2 14.5-1 1.18 3.77-0.101 14.2-4.86 39.5-13.7 45-33.3 20.7-33.6 20.4-1.21-1.13-3.02-4.09-6.83-11.2-6.88-16.1-0.173-18.6 8.04-26.8 31-31 34.8-31.6z" fill="#aa1c3c"/>
  <path d="m177 150q21.1-14.6 37.7-9.86 20.4 5.86 22.6 16.3 2.68 12.8-0.359 25.9-3.74 16.1-11 18.5-8.91 2.99-30.8-6.05-26.9-11.1-30.6-20.9-4.6-12 12.5-23.9z" fill="#55383e"/>
  <path d="m313 210q3.27-1.99 20.8-7.38 1.57-0.484 7.16 8.82 0.502 0.835-10.1 47.8-0.952 4.22-48.2-3.63-4.24-0.703-5.92-21.5-0.151-1.87 36.3-24.1z" fill="#8e71df"/>
  <path d="m357 110q24.8-15.4 36.8-8.72 17.2 9.55 9.68 30.8-10.8 30.3-27.6 29.5-24-1.07-28.1-9.62-5.85-12.2-6.79-20-1.35-11.2 16-21.9z" fill="#aa386b"/>
  <path d="m171 191q42.5 17.6 40.4 21.8-14.9 28.7-19.4 29.4-31.1 4.54-33.3 1.91-15.2-18-12.5-22.8 18.6-32.9 24.8-30.3z" fill="#55558d"/>
  <path d="m304 45.1c12.1 20.7 18.2 32.8 18.2 36.2 0.114 12.3-4.52 16.8-13.9 13.7-33.6-11.3-55.2-12.1-55.8-22.9-0.341-6.51 8.71-7.26 16.6-10.2 28-10.5 31.4-22.5 34.8-16.7z" fill="#8e1c3e"/>
  <path d="m190 120c1.81 7.31-6.97 17.7-26.3 31.1-6.12 4.24-14.7 3.45-25.6-2.38-9.46-16.9 22.1-47.9 30.2-53.9 8.76-6.32 16 2.09 21.7 25.2z" fill="#3838bb"/>
  <path d="m428 179c15.3-0.555 20.6 3.76 25.3 9.13 4.74 5.43 11.5 6.35 8.51 18.8-3.02 12.6-5.19 19.5-6.5 20.9-1.33 1.33-8.42 3.65-21.3 6.96-13 3.35-20.8-5.93-23.5-27.8-2.69-22.1 2.26-27.4 17.4-27.9z" fill="#c7557e"/>
  <path d="m289 164q12.7-8.34 24.2-12 24-7.68 27.2-0.976 6.73 14 3.12 24.2-7.55 21.3-13.7 23.2-12.9 3.98-23.9-7.15-23-23.3-16.9-27.3z" fill="#8e5556"/>
  <path d="m241 143c5.18-7.4 8.78-6.17 9.5-6.17 6.66 0.143 12.8-0.698 18.7 1.32 9.46 3.22 26.2 15.8 25 16.6-11.3 7.4-18 11.2-20.1 11.3-19.5 0.947-29.3 0.663-29.6-0.851-2.42-8.37-2.62-13.9-3.55-22.1z" fill="#713823"/>
 </g>
</svg>
