<?xml version="1.0" encoding="UTF-8"?>
<svg width="512px" height="512px" contentScriptType="text/ecmascript" contentStyleType="text/css" version="1.1" viewBox="0 0 512 512" xmlns="http://www.w3.org/2000/svg">
 <g class="voronoi" stroke-width=".5">
  <path d="m458-37.1 39.9 3.59 31.6 25.6 4.85 5.94-17.3 17.4-55.1-29.8z" fill="#e3e3c9"/>
  <path d="m306 21.6-3.17 4.14-9.95 20.9c-3.15 6.63-14.9 11.3-26 22.3-6 6-2.75 10.7-2.75 10.7s8.09 3.4 36.5 13c7.92 2.67 14.5 3.62 19.7 2.85 1.42-0.209 4.48-21.6 10.4-29 6.42-8.03 31-23.1 29-32.7-1.24-5.83-42.6-11.9-42.6-11.9z" fill="#8e0e86"/>
  <path d="m-13.2 126 28.2 7.71-26 27.6-25.6 20.8-12.6-8.24-3.62-33.7z" fill="#e3388e"/>
  <path d="m4.93 27.5c0.229-7.17 6.66-15.1 13.7-16.6 13-2.79 28.5 6.56 35.8 17.7 5.6 8.59 16.1 22 7.55 27.7-13.1 8.69-48.8-17.4-48.8-17.4s-8.36-6.7-8.21-11.4z" fill="#00009c"/>
  <path d="m445-14.3 30.2 14 0.43 0.334s31.4 9.4 33.5 23.9c0.941 6.64-10.7 19.3-10.7 19.3s-10.9 16.8-19 15.6c-11.6-1.79-19.3-29.5-19.3-29.5l-10.2-29.3z" fill="#e3006f"/>
  <path d="m318-32.9 34.7 13.3-30.4 34.4s-7.48 3.79-11 0.538c-4.12-3.77-2.6-15.4-2.6-15.4l1.18-28z" fill="#8ee3e0"/>
  <path d="m106 28.8c0.848-5.31 5.1-11.2 9.61-14.1 8.75-5.68 21.2-0.106 31.2 3.05 15.4 4.89 34.6 9.64 42 23.9 3.53 6.78 3.81 18-2.14 22.8-13.5 10.9-35.3-0.118-51.6-6.19-9.26-3.47-18.5-8.85-24.5-16.7-2.78-3.6-5.19-9.02-4.57-12.9z" fill="#3800b4"/>
  <path d="m-41.1 70.8 11-5.22 42.6 33.1s14 12.1 8.94 18.3c-4.09 5.03-21.4 2.91-21.4 2.91l-31.6-2.72-23.3-10.1 3-20.3z" fill="#e31caf"/>
  <path d="m533 148 16.4 59.2-1.36 0.59-14-1.31-22.2-14.1s-12.7-5.65-13-13.8c-0.326-8.58 13-14.7 13-14.7z" fill="#005528"/>
  <path d="m195-13 28 5.11-0.229 7.92-0.196 6.79s-0.613 33.9-13.3 39.9c-2.51 1.19-6.16-0.719-7.78-2.98-10.5-14.7-32.5-12.9-32.7-28.9-0.0844-6.84 11-14.8 11-14.8z" fill="#550029"/>
  <path d="m-18 59.4 18-9.57s7.91-3.88 11.8-3.87c12.9 0.0198 32.6 16.5 32.6 16.5 7.61 4.07-1.73 48.7-9.09 45.6l-11.6-4.92-23.7-24.9z" fill="#001c34"/>
  <path d="m471 70.8s2.69-7.79 6.73-7.35c12.7 1.38 34.4 25.6 34.4 25.6l12.5 9.69 6.92 22.9-51-4.39s-19.2-2.73-23.3-10.1c-3.32-5.98 3-20.3 3-20.3z" fill="#e31caf"/>
  <path d="m86.9-50 14.6-13.7 19.3 17.6 5.01 36.9-4.68 9.17s-3.95 9.57-9.6 10.9c-8.29 1.88-18.6-10.9-18.6-10.9l-12.5-9.53z" fill="#1ce39d"/>
  <path d="m361-16.4 23.1 4.88 13.1 13.8-11.2 25.7-19.1 1.93s-23.1-2.8-35.6-10.9c-7.19-4.65 12.7-19 12.7-19z" fill="#aa0016"/>
  <path d="m40.4 123s-4.14-4.18-6.68-3.82c-5.58 0.787-8.59 7.48-11.8 12.1-4.99 7.25-11.1 24-11.1 24l-31.5 23.5 42.8 27.2 14 1.31c3.77 0.353 10.1-10.2 13.2-12.9 3.05-2.6 22.1-8.73 22-23.9-0.13-19.4-31-47.5-31-47.5z" fill="#005528"/>
  <path d="m499 126 28.2 7.71-26 27.6s-14.6 20.2-25.6 20.8c-5 0.258-10.2-3.84-12.6-8.24-7.86-14.4-12.2-37.8-0.412-49.2 8.69-8.43 36.3 1.42 36.3 1.42z" fill="#e3388e"/>
  <path d="m144-36 38.5 18.1-15 17.9s-6.91 8.28-11.7 10.2c-8.93 3.52-17.9 6-23.5-1.02-1.75-2.21-1.94-9.16-1.94-9.16l5.04-30.8z" fill="#38e3df"/>
  <path d="m393 31.5c-2.05-7.1 7.56-20.8 7.56-20.8l27.8-17.7 31.9 48.6s7.38 23.6-0.753 28.4c-15.6 9.33-48.8-24.7-48.8-24.7s-15.7-6.59-17.8-13.8z" fill="#c700b4"/>
  <path d="m238-35.6 35.3-15.2 27 15.5 0.782 35.2 0.202 9.07s-3.25 5.63-6.78 5.43c-20.6-1.15-54-13.2-54-13.2l-11.1-12z" fill="#71e3d0"/>
  <path d="m29.9 0.189 0.149-0.189 2.32-2.94 20.7-20 11.7 3.96 16.6 19s18.9 15.7 19.8 26.9c0.284 3.72-3.7 7.86-3.7 7.86s-15.4 3.9-24.1 0.912c-17.1-5.89-43.4-35.5-43.4-35.5z" fill="#1c0024"/>
  <path d="m-54.2-37.1 39.9 3.59 31.6 25.6 4.85 5.94-17.3 17.4-55.1-29.8z" fill="#e3e3c9"/>
  <path d="m237 8.22c-5.07 7.05-19.9 37.5-26.4 44.9s-12.4 7.53-14.8 9.92c-11 11-12 11.6-12.9 19.4-1.04 9.12 2.03 25.6 9.74 25.8 35.6 0.814 50.6-0.404 51-4.07-0.821-34 68.4-65.8 43.5-78.9l-16.8-8.84z" fill="#630eb1"/>
  <path d="m500 60.8c1.09-6.72 12.2-10.9 12.2-10.9l10.4-5.52 33.8 35.2-7.42 29.5-1.82 1.62-11.2-7.47-23.7-24.9s-13.6-8.96-12.2-17.6z" fill="#001c34"/>
  <path d="m260 90.1c-9.49 0.576-8.69 23-8.63 23.5 1.58 12.1 2.56 18.3 2.95 18.6 10.1 7.83 19.8 17.5 24.3 20.9 7.85 6.04 6.01 12 11.6 15 6.2 3.27 14.3 3.52 21 1.25 16.2-5.56 25.9-12.2 28.9-19.8 7.43-18.6 8.51-29.9 3.26-33.8-6.99-3.45-17.4-16.4-25.3-13-8.72-3.65-44.2-13.5-58-12.7z" fill="#802acd"/>
  <path d="m41.8 114c4.9-9.63 11.4-0.655 32.4-0.062 23.9 0.677 30.5-7.09 36.2 1.4s-2.62 8.14-8.63 23.5c-6.86 17.6-12 26.4-15.4 26.5-3.9 0.114-12-7.73-24.3-23.5-14.1-18-25.5-17.6-20.2-27.9z" fill="#1c3877"/>
  <path d="m381 193q16.8-2.42 27.3 19.9 12 25.3-0.192 36.7-13.8 12.9-29-4.09-17.3-19.2-15.3-33.8 2.32-16.5 17.1-18.7z" fill="#aa5578"/>
  <path d="m414 54c26.9 16.6 39.6 27.8 38.1 33.6-2.84 10.7-11.6 16.8-26.2 18.2-27.2 2.7-31.5 13.6-41.3 3.88-5.78-5.74 0.177-8.33 2.14-24.3 3.67-29.8 12.7-40.3 27.2-31.3z" fill="#c71c5c"/>
  <path d="m226 148q25.5-11.5 33-5.64 9.91 7.64 14.3 15.6 5.71 10.5-19.3 29.9-32.8 25.5-39.1 0.982-8.3-32.2 11.1-40.9z" fill="#71386f"/>
  <path d="m86.9 172q5.52-0.161 14.2 6.55 8.8 6.79 9.45 28.2 0.658 21.6-31.4 10.9-32.4-10.8-15.2-28.1 17.5-17.5 22.9-17.6z" fill="#1c557e"/>
  <path d="m133 179q15.6-7.61 28 28 10.8 31.1 7.45 34.3-2.93 2.8-28.2-2.78-22.1-4.86-23-6.41-0.862-1.35-1.56-24.3-0.61-20 17.3-28.8z" fill="#385587"/>
  <path d="m152 68.7q29.5 7.39 25.4 25.4-3.57 15.9-8.48 26.7-4.32 9.48-29.5 0.3-22.2-8.07-22.5-8.52-0.342-0.389 0.654-28 0.876-24.3 34.4-15.9z" fill="#381c86"/>
  <path d="m416 112q33.9-3.37 36.6 1.04 3.1 5.19 1.04 26.9-2.43 25.5-18.8 26.1-19.3 0.701-32.3-23.1-15.3-28 13.5-30.9z" fill="#c73876"/>
  <path d="m287 176q9.67 4.09 10.8 20.1 1.82 26.5 0.607 27.7-2.01 1.97-25.3 3.86-38.6 3.12-43-0.632-7.32-6.2-7.07-7.11 0.423-1.5 22.2-18.4 36-28 41.9-25.5z" fill="#715563"/>
  <path d="m320 174q17.9-6.13 29.1 6.42 12.2 13.7 10.1 28.6-2.28 16.2-14.2 19.3-13 3.33-25.2-1.19-13.2-4.93-14.6-25.3-1.52-22.2 14.9-27.8z" fill="#8e557a"/>
  <path d="m63.9 60.2q12.4-12.4 25.1-16 12.9-3.63 18.1 4.78 5.29 8.59 4.37 34.3-0.945 26.2-34.3 25.3-34-0.963-29.8-18.4 4.34-17.8 16.5-30z" fill="#1c1c7e"/>
  <path d="m367 120c9.22-2.9 9.64-2.27 13.8-0.246 6.29 3.1 5.05 3.24 12.5 16.9 11.4 20.9 15.4 33.5 11.9 37.6-5.32 6.4-12.1 10.2-20.5 11.4-12.7 1.84-22.2-0.698-28.3-7.61-9.4-10.6-12-21.1-7.9-31.4 6.33-15.9 12.5-24.8 18.5-26.7z" fill="#aa3867"/>
  <path d="m158 161q11.3-21.2 20-15.6 22.9 14.5 26.9 30.1 10.6 41.1 10.4 41.8-0.492 1.74-10.9 6.33-27.5 12.1-33.9-6.26-16.8-48.3-12.5-56.4z" fill="#55554b"/>
  <path d="m372 36.2q14.1-2 14.5-1 1.18 3.77-0.583 18.1-6.68 54.4-11.5 55.9-18.1 5.7-23.8 1.47-21.5-16-21.5-19.9-0.138-14.8 8.07-23 31-31 34.8-31.6z" fill="#aa1c3c"/>
  <path d="m211 114c22.6 0.517 34.3 3.77 35.1 9.77 0.853 6.55-5.88 13-20.2 19.5-15.6 7.02-28.5 7.34-38.6 0.958-11-6.98-17.1-5.71-18.5-10.6-1.45-4.84 3.41-3.32 6.35-9.78 3.21-7.05 15.2-10.3 35.8-9.87z" fill="#55387a"/>
  <path d="m137 126c17.7 6.45 23.2 0.944 26.6 9.75 1.75 4.55-2.25 4.38-6.83 12.9-5.84 10.9-13.7 18.8-23.5 23.5-12.6 6.11-21.4 7.18-26.5 3.22-6.54-5.05-6.98-14.8-1.32-29.3 7.22-18.5 17.8-25.2 31.6-20.1z" fill="#383871"/>
  <path d="m410 181q6.63-7.98 24.4-8.62 17.9-0.651 25 7.4 7.11 8.14 2.63 26.8-4.53 18.9-6.51 20.9-2 2-15.7 5.53-13.8 3.57-25-20.1-11.3-24-4.76-31.9z" fill="#c7557e"/>
 </g>
</svg>
