<?xml version="1.0" encoding="UTF-8"?>
<svg width="512px" height="512px" contentScriptType="text/ecmascript" contentStyleType="text/css" version="1.1" viewBox="0 0 512 512" xmlns="http://www.w3.org/2000/svg">
 <g class="voronoi" stroke-width=".5">
  <path d="m458-37.1 39.9 3.59 31.6 25.6 4.85 5.94-17.3 17.4-55.1-29.8z" fill="#e3e3c9"/>
  <path d="m317 21.9s39.3 5.77 42.3 12.3c3.19 6.8-24.9 32.5-28.8 32.1-7.86-0.761-20.1-16.5-25.7-27.8-1.91-3.87-5.27-6.81-4.24-11 0.415-1.69 3.47-5.96 5.21-5.91" fill="#8e00cf"/>
  <path d="m-13.2 126 13.2 3.6s6.04 1.9 7.45 6.9c1.98 7.04-7.45 13.2-7.45 13.2l-10.9 11.6-25.6 20.8-12.6-8.24-3.62-33.7z" fill="#e3388e"/>
  <path d="m53.1-23-20.7 20-2.32 2.94-0.15 0.189c-2.85 3.15-27.5 24-24.9 27.3l15 19.1s14.4 20.6 27 18.9c9.17-1.21 19.9-17.3 31.6-21.9 3.69-1.45 18.8-8.77 18.8-8.77s4.76-4.13 4.47-7.86c-0.85-11.2-20.5-26.9-20.5-26.9l-16.6-19z" fill="#1c0024"/>
  <path d="m445-14.3 30.2 14 0.43 0.334s32.5 12.4 34.6 26.9c0.941 6.64-3.27 16.5-7.87 21.4-5.62 5.96-14.9 11.7-23 10.5-11.6-1.79-19.3-29.5-19.3-29.5l-10.2-29.3z" fill="#e3006f"/>
  <path d="m318-32.9 34.7 13.3-30.4 34.4s-8.69 4.29-12.3 1.03c-4.12-3.77-1.39-15.9-1.39-15.9l1.18-28z" fill="#8ee3e0"/>
  <path d="m107 22.2s7.13-7.22 12.5-9.53c7.56-3.25 19.2 2.81 27.1 5.06 15.5 4.42 34.6 9.64 42 23.9 3.53 6.78 3.81 18-2.14 22.8-13.5 10.9-34.9-5.86-63-2.61-9.83 1.14-8.47-11.5-13.1-20.3-1.83-3.43-3.43-19.4-3.43-19.4z" fill="#3800b4"/>
  <path d="m-41.1 70.8 11-5.22 42.6 33.1s9.63 10.9 4.6 17.1c-4.09 5.03-17.1 4.09-17.1 4.09l-31.6-2.72-23.3-10.1 3-20.3z" fill="#e31caf"/>
  <path d="m533 148 16.4 59.2-1.36 0.59-14-1.31-22.2-14.1s-12.8-4.09-13.1-12.2c-0.326-8.58 13.1-16.3 13.1-16.3z" fill="#005528"/>
  <path d="m195-13 28 5.11-0.229 7.92-0.196 6.79s-0.613 33.9-13.3 39.9c-2.51 1.19-7.78-2.98-7.78-2.98s-20.2-10.1-33.2-24.6c-4.55-5.11 11.4-19 11.4-19z" fill="#550029"/>
  <path d="m-18 59.4 18-9.57s8.43-5.83 11.6-3.55c10.6 7.56 24.6 19.4 32.5 33.3 5.06 8.77 1.44 19.3-3.3 27.1-1.25 2.04-5.13 3.95-5.94 4.01-4.47 0.315-11.2-7.47-11.2-7.47l-23.7-24.9z" fill="#001c34"/>
  <path d="m471 70.8c4.7-3.88 14-10.3 16-6.79 4.75 8.48 25.2 25 25.2 25l12.5 9.69 6.92 22.9-51-4.39s-19.2-2.73-23.3-10.1c-3.32-5.98 0.53-13.9 3-20.3 2.32-5.99 6.05-12.1 10.8-16z" fill="#e31caf"/>
  <path d="m86.9-50 14.6-13.7 19.3 17.6 5.01 36.9-4.68 9.17s-2.53 9.03-8.18 10.3c-8.29 1.88-20-10.3-20-10.3l-12.5-9.53z" fill="#1ce39d"/>
  <path d="m361-16.4 23.1 4.88 13.1 13.8s-3.66 20.2-11.2 25.7c-5.17 3.77-19.1 1.93-19.1 1.93s-30-4.3-37.2-10.1c-6.68-5.36 14.3-19.8 14.3-19.8z" fill="#aa0016"/>
  <path d="m49.8 114c-10.6-0.649-9.25-1.74-16 5.23l-11.8 12.1 0.656 10.8 16.5 55.1c3.82 12.8 24.5 14.9 33 17.9 16.3 5.44 28.2 5.88 35.6 1.32 7.34-4.5 11.5-9.75 12.4-15.8 0.578-3.8-0.662-7.77-3.7-11.9-2.28-8.52-17.4-35-13.4-49.9 4.16-15.6-5.67-23.8-29.5-24.4-10.4-0.295-18.3-0.437-23.7-0.426z" fill="#13426f"/>
  <path d="m499 126 28.2 7.71-15 16s-17.7 16.6-19.2 25.5c-1.08 6.37-8.18 2.48-19.1 3.05-5 0.258-8.06-0.0908-10.7-4.36-5.9-9.64-9.13-29.7-6.02-40.9 3.74-13.5 41.9-6.94 41.9-6.94z" fill="#e3388e"/>
  <path d="m144-36 38.5 18.1-15 17.9s-7.88 9.46-12.7 11.4c-8.93 3.52-19.1 4.68-24.3-2.25-1.7-2.25-0.191-9.11-0.191-9.11l5.04-30.8z" fill="#38e3df"/>
  <path d="m393 31.5c-2.05-7.1 7.56-20.8 7.56-20.8l27.8-17.7 4.63 7.05s22.7 25.6 27.3 41.5c2.59 9.11 7.38 23.6-0.753 28.4-15.6 9.33-33.4-14.9-48.8-24.7-6.34-4.01-15.7-6.59-17.8-13.8z" fill="#c700b4"/>
  <path d="m238-35.6 35.3-15.2 27 15.5 0.782 35.2 0.202 9.07s0.116 10.3-3.41 10c-32.8-2.57-57.4-17.8-57.4-17.8l-11.1-12z" fill="#71e3d0"/>
  <path d="m22.3 155c8.35 21.5 10.2 33.4 10.2 33.4s4.55 15-0.339 19.1c-2.57 2.15-9.93-1.61-9.93-1.61l-42.8-27.2 20.6-15.4s19.1-16.5 22.3-8.23z" fill="#005528"/>
  <path d="m-54.2-37.1 39.9 3.59 31.6 25.6 4.85 5.94-1.93 1.95s-4.2 13.8-11.4 14.8c-1.83 0.271-8.87-1.98-8.87-1.98l-50.2-27.1z" fill="#e3e3c9"/>
  <path d="m271 16.4c9.26 1.81 23.4 3.93 25 13.2 2.19 12.6-18.1 17.8-25.4 28.2-8.16 11.5-13 14.3-20.4 13.1-18.4-3.18-33.4-39.8-25.6-49.9 9.49-12.3 31.2-7.61 46.4-4.62z" fill="#710098"/>
  <path d="m501 60.2c1.09-6.72 11.2-10.4 11.2-10.4l10.4-5.52 33.8 35.2-7.42 29.5-1.82 1.62-11.2-7.47-23.7-24.9s-12.5-9.48-11.2-18.1z" fill="#001c34"/>
  <path d="m64.3 60.7c8.29-8.29 16.7-13.6 25.1-16 8.61-2.42 14.6-0.829 18.1 4.78 3.53 5.73 9.54 14.4 8.93 31.5-0.628 17.4 1.71 22.4-5.67 28.9-7.93 6.96-9.5 2.62-31.6 1.99-22.6-0.639-37.1 2.88-30-18.6 2.89-11.9 7.01-24.4 15.1-32.5z" fill="#1c1c7e"/>
  <path d="m384 35.3c-2.29 0.0531-6.38 0.497-12.3 1.33-2.49 0.353-14.1 10.9-34.8 31.6-5.47 5.47-8.15 14.4-8.04 26.8 0.0177 1.94-5.23 15.1-4.76 16.6-2.24 8.26-5.59 13.9-4.81 21.1 1.89 17.3 11.3 35.7 22.3 47 9.55 9.86 23.3-5.75 40.1-9.45 6.66-1.47-0.906-19.1-0.913-20.4-0.0669-12.2-5.63-39.4-2.32-40.9 0.239-0.239 2.61-18.6 7.1-55.2-0.452-3.77 4.25-18.7-1.58-18.6z" fill="#aa2a27"/>
  <path d="m206 147c6.14-0.0344 4.49 9.16 8.6 16.3 14.5 25.2 16.6 34.6 14.3 38.9-8.12 15-14.3 20.8-18.5 17.6-14.8-11.5-22.6-18-23.4-19.3-2.69-4.78-2.56-10.6 0.381-17.3 10.4-24 5.01-36 18.5-36.1z" fill="#55553f"/>
  <path d="m310 98.9c1.44 0.486 6.65 4.45 7.44 8.01 1.71 7.64 2.19 8.28-7.13 22.4-0.324 0.489-20 18.1-31.5 17.3s-9.49-6.19-26.3-19.7c-0.585-0.469-5.95-43.5 7.25-41.6 24.5 3.46 8.64-0.341 50.2 13.7z" fill="#711cea"/>
  <path d="m339 189q2.52-2.52 29-9.46 13.8-3.61 18.4 18.4 2.36 11.4-32 35.5-17.9 12.5-20.2 4.74-1.23-4.06-0.439-30.5 0.411-13.8 5.24-18.6z" fill="#aa55a3"/>
  <path d="m197 216q18.4 14.3 19 18.9 1.16 8.33-1.55 15.4-4.88 12.8-22.8 14.2-32.4 2.59-36.6-8.46-7.73-20 6.35-29.9 25.4-18 35.6-10.1z" fill="#55715e"/>
  <path d="m153 68.5q29.5 7.39 24.2 31-4.66 20.7-11 22.8-5.54 1.84-28.5-4.72-20.2-5.77-19.2-33.3 0.872-24.2 34.4-15.8z" fill="#381c86"/>
  <path d="m438 110c-6.02 1e-3 -14.1 0.504-24.2 1.51-19.6 1.95-24-4.14-30.4 3.85-5.9 7.43 0.452 9.96 2.93 28.3 1.33 16.7 2.85 30.6 6.58 49 2.28 11.1 7.62 21.3 16 30.8 8.3 9.36 17.5 12.7 27.7 10.1 10.1-2.6 15.8-4.57 17.1-5.9 1.32-1.32 3.48-8.27 6.51-20.9 2.99-12.5-2.97-30.6-4.37-41.8-1.4-11.2-4.97-14.4-3.81-25.6 1.38-14.5 1.03-23.4-1.04-26.9-0.99-1.66-5.35-2.48-13.1-2.48z" fill="#c7477a"/>
  <path d="m272 183c-3.46-6.85-25.7 7.61-35.1 16.5-7.74 7.36-13.1 17.8-15.1 28.3-0.618 3.23 1.49 7.04 1.1 9.8-2.05 14.3-6.06 29-5.78 29.5 10.5 20.8 6.16 24.8 17 31.2s27.1 3.3 39.8-0.594 24.5-12.4 33.3-21.9c5.36-5.56 15.9-9.7 19.6-12.4 2.89-2.32 4.62-5.93 5.19-10.8 0.184-1.57-0.627-5.35-2.43-11.3-0.581-1.92-11.5-8.3-32.8-19.1-1.91-0.975-4.38 0.209-5.65-1.15-8.11-8.69-5.58-11.2-9.83-19.6z" fill="#7b68b3"/>
  <path d="m41.4 212q0.301-0.301 0.855-0.442 1.69-0.43 13.9 3.63 37.1 12.4 35.3 22.4-5.31 30.5-13 31.3-23.6 2.24-26.9-12.3-10.2-44.4-10.1-44.5z" fill="#1c7145"/>
  <path d="m298 142q13.1-7.01 28.3 21.1 10.5 19.5 6.15 23.9-3.01 3.02-29.9-0.851-18.7-2.68-22-6.06-2.29-2.34-1.79-17.5 0.345-10.5 19.3-20.6z" fill="#8e3894"/>
  <path d="m137 187q3.32-1.93 31.5 5.92 8.94 2.49 12.9 9.46 1.24 2.21-28.8 23.4-9.51 6.71-24.2-9.63-4.64-5.18-2.58-18.8 0.653-4.3 11.1-10.4z" fill="#3855bb"/>
  <path d="m172 126q2.18-0.723 23.3 14.1 4.77 3.35-11.6 41-3.69 8.52-34 0.08-6.86-1.91 9.04-42.8 3.6-9.24 13.2-12.4z" fill="#5538c7"/>
  <path d="m404 48.6c24.1 17.9 44.9 27.2 48.8 38.4 3.59 10.5-11.7 16.8-26.6 18.3-27.8 2.76-40.7-3.93-38.7-20.1 3.7-30.1 2.11-45.5 16.6-36.6z" fill="#c71c5c"/>
  <path d="m237 134q10.6-3.92 29.5 11.3 7.2 5.79 6.59 24.4-0.232 7.08-26.1 18.8-9.85 4.45-30.1-30.7-7.71-13.4 20.1-23.7z" fill="#7138b2"/>
  <path d="m396 219q20.9 23.6 18.1 29.2-14.2 28.6-15.3 29.3-5.48 3.78-14.5 0.362-45.8-17.3-45.6-18.9 0.947-8.09 9.56-14.1 43.6-30.6 47.7-25.9z" fill="#aa7132"/>
  <path d="m304 45.1c16 17.8 23.9 25.4 24 28.8 0.114 12.3-2.47 27.4-19.7 21-33.6-11.3-42.2-7.35-52.1-17.1-3.04-3.01 20.1-16.2 25.3-22.7 11.1-13.8 19-15.8 22.4-10z" fill="#8e1c3e"/>
  <path d="m115 117c8.55-4.81 9.52 2.62 28.3 7.99 9.94 2.84 10.7 15.2 2.16 37-4.49 11.6-8.34 22.1-15.8 22.6s-1.16-3.89-11.4-12.7c-5.42-4.63-14-15.6-8.14-37.5 3.08-11.6-0.432-14.5 4.84-17.5z" fill="#3838a2"/>
  <path d="m205 59.2c2.39-2.39 3.09-4.2 5.39-4.32 12.7-0.691 11 6.74 32.2 20.6 4.6 2.99 4.33 2.08 5.23 4.11 4.97 11.3 0.304 12.8-2.73 36.8-0.659 5.21-11.5 11.7-32.6 19.5-4.56 1.69-7.2 2.48-7.92 2.37-0.157-0.022-7.32-5.02-21.5-15-3.07-2.16-1.88-15.4 3.57-39.6 1.18-5.26 7.28-13.4 18.3-24.4z" fill="#551cc9"/>
  <path d="m322 193q7.95 1.14 6.96 34.4-0.209 7.02-35-10.7-7.35-3.74-9.17-24.6-0.385-4.41 37.2 0.994z" fill="#8e55ca"/>
  <path d="m108 225q14-8.57 21.1-0.623 12.2 13.6 16.6 25 7.57 19.6 0.652 26.9-11.8 12.5-14.8 14.6-5.18 3.67-17.6-5.18-21.2-15.1-18.6-30.1 4.45-25.6 12.6-30.6z" fill="#387161"/>
 </g>
</svg>
