<?xml version="1.0" encoding="UTF-8"?>
<svg width="512px" height="512px" contentScriptType="text/ecmascript" contentStyleType="text/css" version="1.1" viewBox="0 0 512 512" xmlns="http://www.w3.org/2000/svg">
 <g class="voronoi" stroke-width=".5">
  <path d="m458-37.1 39.9 3.59 31.6 25.6 4.85 5.94-17.3 17.4-55.1-29.8z" fill="#e3e3c9"/>
  <path d="m303 25.7s1.6-3.39 3.17-4.14c3.36-1.6 7.49-0.306 11.2 0.316 14.2 2.41 40.4 7.75 41.2 13.1 2.26 14.5-28.6 28.4-31.1 31-8.75 9.08-22.2-27.5-22.2-27.5" fill="#8e00cf"/>
  <path d="m-13.2 126 13.2 3.6s5.75 1.6 7.15 6.61c1.98 7.04-7.15 13.5-7.15 13.5l-10.9 11.6-25.6 20.8-12.6-8.24-3.62-33.7z" fill="#e3388e"/>
  <path d="m25.7 5.6c-4.45-5.63-18.7 14.4-18.7 14.4s4.69 15.3 0.866 22.6c-1.75 3.34-7.91 7.26-7.91 7.26l-18 9.57 41.8 43.7 11.2 7.47 1.82-1.62s6.08-23.1 10.9-34c3.21-7.3 8.11-13.7 11.9-20.8 2.06-3.85 9.51-6.44 5.85-11.7-11.7-16.9-29.6-24.3-39.6-36.9z" fill="#001c34"/>
  <path d="m445-14.3 30.2 14 0.43 0.334s29.8 13.1 34.6 26.9c2.32 6.71-0.537 15.8-5.14 20.7-5.62 5.96-17.6 12.4-25.7 11.2-11.6-1.79-19.3-29.5-19.3-29.5l-10.2-29.3z" fill="#e3006f"/>
  <path d="m318-32.9 34.7 13.3-30.4 34.4s-8.6 2.26-12.2-0.995c-4.12-3.77-1.48-13.8-1.48-13.8l1.18-28z" fill="#8ee3e0"/>
  <path d="m105 17.3c-1.36 3.64 5.54 20.5 6.04 24.4 0.959 7.34 5.61 21.5 5.61 21.5 0.349 1.34 1.39 20.2 1.33 21.8-0.664 18.4 0.31 29.1 2.92 32.1 2.97 3.38 9.05 5.81 18.2 7.27 10.5 1.67 18.2 2.07 23.3 1.21 5.81-0.973 10.6-15.4 13.7-23.7 3.07-8.28 4.68-22.9 4.74-25.1 0.226-8.52 11.3-22.5 7.97-29.4-6.96-14.6-25.5-24.2-41.7-29.4-13.4-4.33-39.6-6.04-42.2-0.44z" fill="#380ecb"/>
  <path d="m-41.1 70.8 11-5.22 42.6 33.1s13.3 11.7 8.33 17.9c-4.09 5.03-20.8 3.34-20.8 3.34l-31.6-2.72-23.3-10.1 3-20.3z" fill="#e31caf"/>
  <path d="m533 148 16.4 59.2-1.36 0.59-14-1.31-22.2-14.1s-12.3-4.97-12.6-13.1c-0.326-8.58 12.6-15.4 12.6-15.4z" fill="#005528"/>
  <path d="m195-13 28 5.11-0.229 7.92-0.196 6.79s-4.29 29.6-17 35.6c-2.51 1.19-20.1-5.92-28.2-12.2-5.67-4.37-12.3-6.42-11.6-13.5 0.68-6.8 13.9-16.7 13.9-16.7z" fill="#550029"/>
  <path d="m466 71.1c3.43-2.97 14.7-10.2 17.6-7.47 7.86 7.32 28.2 25.4 28.2 25.4l12.5 9.69 6.92 22.9-19.4-1.67s-21.4-0.126-31.6-2.72c-8.2-2.08-19.5 2.93-23.6-4.47-3.32-5.98 3.36-26 3.36-26s1.82-12 6.05-15.7z" fill="#e31caf"/>
  <path d="m86.9-50 14.6-13.7 19.3 17.6 5.01 36.9-4.68 9.17s-3.51 8.25-9.16 9.53c-8.29 1.88-19-9.53-19-9.53l-12.5-9.53z" fill="#1ce39d"/>
  <path d="m361-16.4 23.1 4.88 13.1 13.8s-3.66 20.2-11.2 25.7c-5.17 3.77-19.1 1.93-19.1 1.93s-36-5.19-37.8-10.3c-2.78-8.1 14.9-19.6 14.9-19.6z" fill="#aa0016"/>
  <path d="m36.8 118c-1.88-2.19-5.74-2.35-8.5-1.54-4.55 1.33-7.08 5-10.4 9.69s-1.27 15.4-3.76 21.7c-2.53 10.1-14.1 16.3-14.1 16.3l-20.6 15.4 42.8 27.2s9.33 1.71 14 1.31c4.71-0.406 11.1 0.251 13.7-3.72 11.4-17.6 26.4-19.5 25.6-34.7-0.551-10.7-24.9-35.6-38.7-51.7z" fill="#005528"/>
  <path d="m499 126 28.2 7.71-26 27.6s-10.1 15.5-16.1 15.6c-26.4 0.397-25.3-18-25.3-18s-6.33-25.3 2.4-33c9.21-8.16 36.7 0.234 36.7 0.234z" fill="#e3388e"/>
  <path d="m144-36 38.5 18.1-15 17.9s-9.73 9.8-14.5 11.7c-8.93 3.52-16.4 4.03-21.2-2.48-1.67-2.27-1.41-9.22-1.41-9.22l5.04-30.8z" fill="#38e3df"/>
  <path d="m393 31.5c-2.05-7.1 7.56-20.8 7.56-20.8l27.8-17.7 31.9 48.6s10.3 20.6 2.2 25.4c-15.6 9.33-35.6-12.3-51.7-21.7-6.48-3.78-15.7-6.59-17.8-13.8z" fill="#c700b4"/>
  <path d="m238-35.6 35.3-15.2 27 15.5 0.782 35.2 0.202 9.07-3.41 10-57.4-17.8-11.1-12z" fill="#71e3d0"/>
  <path d="m29.9 0.189 0.149-0.189 2.32-2.94 20.7-20 11.7 3.96 16.6 19s18 16.4 18.8 27.6c0.284 3.72 0.43 5.22-2.77 7.15-7.88 4.76-27.5 2.24-27.5 2.24z" fill="#1c0024"/>
  <path d="m-54.2-37.1 39.9 3.59 31.6 25.6 4.85 5.94-17.3 17.4-55.1-29.8z" fill="#e3e3c9"/>
  <path d="m271 16.4c-15.4-2.48-34-16.1-43.5-3.77-7.73 10-10.3 35.9-10.3 35.9 6.82 12.4 25.9 21.9 40.9 29.6 13.8 7.14 14.8 5.04 44.3 15 8.23 2.77 14.4 1.76 18.5-3.04 1.14-1.34 1.68-5.05 1.62-11.1-0.016-1.7-6.08-12.9-18.2-33.6-0.798-1.36-11.3-19.1-13-19.9 0 0-13-7.87-20.3-9.05z" fill="#800e2b"/>
  <path d="m499 60.1c1.09-6.72 13.2-10.3 13.2-10.3l10.4-5.52 33.8 35.2-7.42 29.5-1.82 1.62-11.2-7.47-23.7-24.9s-14.6-9.58-13.2-18.2z" fill="#001c34"/>
  <path d="m63.9 60.2q12.4-12.4 25.1-16 12.9-3.63 18.1 4.78 5.29 8.59 4.37 34.3-0.945 26.2-34.3 25.3-34-0.963-29.8-18.4 4.34-17.8 16.5-30z" fill="#1c1c7e"/>
  <path d="m325 95.6q2.44-2.87 38.3-0.037 16.2 1.28 22.1 12 2.64 4.84-7.11 33.1-4.42 12.8-22.2 16.6-8.04 1.7-23.4-11-6.95-5.75-11.7-16.3-2.15-4.77-1.61-20.7 0.245-7.24 5.63-13.6z" fill="#aa38aa"/>
  <path d="m223 196q5.39 2.38 6.58 22.7 0.206 3.53-11.1 14.7-1.97 1.95-54.9-14.5-9.21-2.86 22.9-31.6 5.58-4.99 36.6 8.7z" fill="#5555d0"/>
  <path d="m327 286c18.7 6.03 18.6 1.89 24.1 8.35 3.81 4.47 4.31 6.91 3.08 17.4-1.2 10.1-4.68 17.5-10.5 22-5.59 4.43-13.8 5.08-24.6 1.95-10.5-3.03-17-6.34-19.7-9.93-2.6-3.47-3.48-12.6-2.64-27.5 0.817-14.4 10.9-18.5 30.2-12.3z" fill="#8e8e81"/>
  <path d="m204 50.5c-3.64 0.12-6.42 4.08-8.8 6.47-11 11-7.46 21.2-8.73 26.9-5.86 26.1-8.53 39.3-8 39.8 2.42 2.06 6.84 3.17 13.3 3.32 26.2-2.81 53.9 2.09 80-0.295 26.7-1.83 40.1-3.01 40.1-3.53 0.506-15 0.127-22.7-1.14-23.1-4.02-3.65-41.9-10.7-61.1-20.2-2.54-1.25-2.42-1.78-7.02-4.78-9.79-3.48-23.3-25.1-38.5-24.6z" fill="#631c72"/>
  <path d="m313 150q8.47-4.43 25.5 9.61 5.31 4.39-14.1 44.6-6.06 12.6-38.7-17-10.2-9.24-2.21-19.7 2.5-3.27 29.6-17.4z" fill="#8e55bb"/>
  <path d="m125 244q2.43-4.74 3.95-5.95 0.473-0.379 39.6 29.5 12.2 9.33-10.9 43-7.21 10.5-32.5-36.6-7.91-14.7-0.119-29.9z" fill="#3871bb"/>
  <path d="m404 49.9c-8.04 0.0176-13.1 8.26-15.1 24.7 0.269 22.7 6.43 38.7-0.889 61.5-4.34 12.6-3.8 21.1 1.63 25.6 4.62 3.8 16.6 5.35 36.1 4.64 16.5-0.6 25.6-9.41 27.2-26.4 2.91-16.1-2.27-32.4 0.0195-52.7 1.9-16.8-11.2-16.9-38.1-33.6-4.07-2.51-7.67-3.76-10.8-3.76z" fill="#c72aae"/>
  <path d="m272 182c-7.06-2.46-15.7-2.48-22.4 0.773-6.54 3.15-11.9 9.67-14.1 16.6-1.79 5.49 3.08 13.7 1.3 17.3-4.96 9.93-18.8 28.6-20.9 35.9-3.86 13.7-3.56 23.1 0.916 28.2 7.25 8.22 17.7 6.82 31.3-4.2 14-11.3 31.6-22.6 39.4-30.9 11.2-4.75 26.1-18.5 26.8-24.4 0.307-3.12-4.64-7.07-5.37-7.74-27.9-25.2-21.7-26.1-37-31.4z" fill="#716334"/>
  <path d="m20 223c2.33-8.41 15.6-10.8 23.5-11.6s7.89 1.64 20.3 5.76c37.8 12.6 55.8 20.5 54.1 23.8-5.13 9.98-9.07 15.9-11.8 17.8-8.36 5.74-15.6 8.9-21.8 9.49-18.8 1.79-24.5 6.05-34.7 0.596-16-8.57-34.4-28.3-29.6-45.9z" fill="#1c7145"/>
  <path d="m363 294c8.88-14.3 36.1-30 41.8-28.1 8.36 2.62 12.4 22.9 12.2 23.3-12.6 27.9-7.74 30.8-20.2 37.8-11.1 6.23-29.9 7.72-38-2.07-6.62-8.01-1.3-22.1 4.2-30.9z" fill="#aa8e10"/>
  <path d="m297 128q17.2-1.18 21.3 7.75 2.86 6.36-17.9 17.2-14.8 7.73-22.3-10.4-5.32-12.9 18.9-14.6z" fill="#8e3892"/>
  <path d="m170 131q1.95-0.327 5.85 2.99 0.527 0.448 9.82 39 1.26 5.21-32 34.9-4.49 4.01-15.8 7.72-1.53 0.501-2.91-3.4-0.187-0.528 18.1-69.5 2.47-9.31 16.9-11.7z" fill="#3855d6"/>
  <path d="m409 248c0.173-0.894 53.3-17.6 71.1-19.1 13.4-1.11-11.9 22-18.9 32.4-6.22 9.31-5.66 12.1-20.3 26.7-2.69 2.69-8.46 2.05-17.3-1.91-1.62-0.727-6.27-9.47-13.9-26.2-1.41-3.07-1.64-7.05-0.7-11.9z" fill="#c77185"/>
  <path d="m287 253c4.8 1.76 2 4.99 3.94 14.8 0.833 4.22 0.669 16.6-0.493 37-0.499 8.8-12.2 11.2-35 7.24-9.83-1.71-16.4-3.6-19.7-5.68-1.41-0.893-2.74-3.42-4-7.57-0.539-1.79 11.7-12.8 36.7-33 10.8-8.69 11.5-15.4 18.5-12.8z" fill="#718ead"/>
  <path d="m243 131c1.76-1.99 12.7-3.15 21.5-0.0554 3.94 1.38 7.34 6.56 13.2 20.9 2.63 6.38 1.53 12.7-3.32 19.1-2.16 2.83-8.46 4.32-18.9 4.49-4.65 0.0747-8.69-9.62-12.1-29.1-1.52-8.68-4.42-10.9-0.466-15.3z" fill="#7138ab"/>
  <path d="m91.4 173q8.26-0.24 23.3 20.8 15.2 21.3 16 23.5 0.79 2.23-2.05 8.13-2.88 5.97-3.86 6.76-1 0.8-38.4-11.7-37.8-12.6-20.6-29.9 17.5-17.5 25.6-17.7z" fill="#1c557e"/>
  <path d="m375 162c-1.93-1.04-10.4 1.57-24.6 4.59-0.918 0.195-26.7 46.5-25.5 50.2 5.97 18.6 23.4 50.8 31 65 2.9 5.43 2.49 6.27 4.59 5.28 14.1-6.7 12.6-6.49 36.5-27.2 3.63-3.14 5.93-7.22 6.89-12.2 0.105-0.544-5.77-26.2-7.27-32.2-1.07-4.24-1.62-3.9-6.35-38.3-4.7-7.46-9.52-12-15.3-15.2z" fill="#aa6322"/>
  <path d="m195 280c6.77-0.901 13.1 1.93 18.8 8.5 5.93 6.73 9.34 11.6 10.2 14.5 0.908 3.01 4.03 2.92-8.92 15.8-13.3 13.2-29.3 20.6-39.8 17-10.8-3.63-21.1-1.72-20.9-5.11 0.224-3.47 5.32-12.5 15.3-27 10.2-14.9 18.6-22.8 25.2-23.7z" fill="#558e7e"/>
  <path d="m372 35q14.1-2 14.5-1 1.18 3.77-0.174 14.8-5.14 41.8-16 40.9-41.2-3.26-41.2-5.7-0.086-9.23 8.12-17.4 31-31 34.8-31.6z" fill="#aa1c3c"/>
  <path d="m203 134q33.8 0.785 36.6 16.6 4.64 26.4-0.81 32.5-9.09 10.2-22.7 4.22-22.7-10.1-26.7-26.4-6.6-27.4 13.6-26.9z" fill="#553862"/>
  <path d="m296 274c-1.47-7.44 0.798-28.5 9.16-35.8 9.42-8.22 9.35-10.6 15.1-9.22 10.2 2.49 5.88 7.55 16.2 26.9 11.6 21.8 8.51 29.8-9.4 24.1-20.2-6.5-29.7 0.639-31-5.97z" fill="#8e7178"/>
  <path d="m98.6 275c0.809-6.52 16.6-10.8 17-10 21.7 40.4 19.5 29.4 27.8 44.9 2.17 4.1 8.21 5.46 5.67 12.7-2.54 7.26-20.3 15.7-28.6 14.8-8.25-0.883-14.5 4.65-22.5-5.94-2.92-14-1.76-36.5 0.72-56.5z" fill="#388e11"/>
  <path d="m45.2 111c6.87-10.6 22.7 3.66 37.9 2.8 10.6-0.603 28.6 3.41 31.2 6.38 2.98 3.39 1.11 11.4-5.59 24-7.65 14.4-14 21.7-19.1 21.9-5.83 0.169-14.9-7.65-27.2-23.4-14.1-18-23.6-21.6-17.1-31.6z" fill="#1c3877"/>
  <path d="m136 228q2.19-4.54 10.1-7.14 4.91-1.61 43.3 10.3 23.8 7.39 18 27.9-3.58 12.7-16 14.4-7.68 1.02-39.3-23.2-19.6-15-16.1-22.3z" fill="#55719a"/>
  <path d="m147 132q5.3 0.844-11.7 65-3.73 14.1-28.5-20.7-5.44-7.61 12.2-40.9 3.87-7.3 28-3.44z" fill="#3838c9"/>
  <path d="m424 175c18.1-0.656 69.1 6.9 73.8 12.3 4.74 5.43-7.04 19.4-14.2 26.4-7.74 7.53-27.6 13.3-28.9 14.6-1.33 1.33-9.1 3.83-23.3 7.5-14.4 3.71-22.1 4.9-23.3 3.57-1.19-1.34-3.22-12.4-6.09-33.3-2.89-21.1 4.17-30.4 22-31z" fill="#c7557e"/>
  <path d="m47.7 286q8.21-8.21 21.4-9.46 24.3-2.3 24.1 17.9-0.263 37.2-9.5 33.9-17-6.11-25.3-17.3-15.2-20.6-10.8-25z" fill="#1c8e5d"/>
 </g>
</svg>
