<?xml version="1.0" encoding="UTF-8"?>
<svg width="512px" height="512px" contentScriptType="text/ecmascript" contentStyleType="text/css" version="1.1" viewBox="0 0 512 512" xmlns="http://www.w3.org/2000/svg">
 <g class="voronoi" stroke-width=".5">
  <path d="m351 260q3.65-21.1 12.9-22.2 35.3-4.53 38.8-2.36 13.3 8.33 12 16.3-4.76 30.6-9.02 34.4-16.3 14.8-21.9 13.4-21.3-5.08-23.9-11.1-9.89-23-8.94-28.5z" fill="#aa719a"/>
  <path d="m458-37.1 39.9 3.59 31.6 25.6 4.85 5.94-17.3 17.4-55.1-29.8z" fill="#e3e3c9"/>
  <path d="m303 25.7c0.457-2.23 2.14-4.98 3.71-5.73 3.36-1.6 17.3 1.92 17.3 1.92s33.3 8.57 36.8 12.3c3.55 3.85-20.1 25.2-29.9 32.1-11.6 8.1-24.8-17.9-29.2-30.8-1.39-4.09 0.469-5.56 1.34-9.79z" fill="#8e0050"/>
  <path d="m-13.2 126 13.2 3.6s4.88 1.02 6.29 6.02c1.98 7.04-6.29 14-6.29 14l-10.9 11.6-25.6 20.8-12.6-8.24-3.62-33.7z" fill="#e3388e"/>
  <path d="m10.8 38.2c-7.01-4.2 2.55-28.3 9.56-29.8 13-2.79 34.1 20.2 34.1 20.2s23.2 16.9 15 23c-10.2 7.53-10.5 15.9-16.7 12.7-18.7-9.51-22.5-14.4-41.9-26z" fill="#00009c"/>
  <path d="m445-14.3 30.2 14 0.43 0.334s32.5 12.4 34.6 26.9c0.941 6.64-1.88 17.1-7.4 22.9-5.76 6.06-23.9 12.5-31.8 9.89-11.2-3.62-7.3-20.3-10.9-30.4-3.43-9.74-10.2-29.3-10.2-29.3z" fill="#e3006f"/>
  <path d="m318-32.9 34.7 13.3-30.4 34.4s-7.56 2.29-11.1-0.969c-4.12-3.77-2.53-13.9-2.53-13.9l1.18-28z" fill="#8ee3e0"/>
  <path d="m111 30s4.75-16.5 10.1-18.9c7.56-3.25 26.1 6.6 26.1 6.6s42.4 15.4 52.4 32c4 6.67-6.45 15-12.4 19.8-13.5 10.9-51.6-11.2-51.6-11.2s-19.9-7.95-24.5-16.7c-1.83-3.43-0.053-11.7-0.053-11.7z" fill="#3800b4"/>
  <path d="m-41.1 70.8 11-5.22 42.6 33.1s5.47 9.15 0.445 15.3c-4.09 5.03-12.9 5.89-12.9 5.89l-31.6-2.72-23.3-10.1 3-20.3z" fill="#e31caf"/>
  <path d="m533 148 16.4 59.2-1.36 0.59-14-1.31-22.2-14.1s-13.8-4.28-14.1-12.4c-0.326-8.58 14.1-16.1 14.1-16.1z" fill="#005528"/>
  <path d="m195-13 28 5.11-0.229 7.92-0.196 6.79s-0.88 21.1-7 29.1c-3.92 5.12-3.44 13.7-7.49 11.6-15.4-8.17-31.3-16-45.3-31.5-4.59-5.07 17-15.9 17-15.9z" fill="#550029"/>
  <path d="m-18 59.4 18-9.57s9.68-6.78 13.2-5.11c8.77 4.15 20.9 11.3 32.3 20.6 11.5 9.41-3.92 33.8-3.92 33.8s-2.34 10.5-6.65 11.5c-4.37 1.02-12.5 1.35-14.5-3.19-4.73-10.9-20.4-29.1-20.4-29.1z" fill="#001c34"/>
  <path d="m468 65.7c3.28-2.52 21-4.4 22.2-0.53 3.29 10.6 21.6 23.8 21.6 23.8l12.5 9.69 6.92 22.9-19.4-1.67s-21-3.26-31.2-5.86c-8.2-2.08-21.4 1.46-25.8-5.47-3.68-5.77 2.96-14.7 5.16-21.8 2.21-7.17 2.09-16.5 8.04-21z" fill="#e31caf"/>
  <path d="m86.9-50 14.6-13.7 19.3 17.6 5.01 36.9-4.68 9.17s-4.69 10-10.3 11.3c-8.29 1.88-17.8-11.3-17.8-11.3l-12.5-9.53z" fill="#1ce39d"/>
  <path d="m361-16.4 23.1 4.88 13.1 13.8s-3.66 20.2-11.2 25.7c-5.17 3.77-12.7 2.75-19.1 1.93-11.8-1.52-25.1-2.12-33.4-12.5-5.39-6.66 10.5-17.4 10.5-17.4z" fill="#aa0016"/>
  <path d="m50.7 114c-8.44-0.587-16.9-1.47-24.3 1.88-7.42 3.33-11.4 3.59-12.9 10.6-4.35 20.2 10.9 22.9 13.3 28.5 7.51 17.5 5.52 22.7 12.1 42.1 0.705 2.06 6.17 2.5 6.17 2.5 15.1-9.03 36.5-13.5 51.7-21.7 5.72-0.167 5.73-19.7 12.3-34.5 5.75-13 5.02-31 2.43-33.9-2.27-2.58-13 5.79-37 5.11-10.5-0.297-18.4-0.44-23.8-0.43z" fill="#0e3848"/>
  <path d="m499 126c4.5 0.707 13.2 3.6 13.2 3.6l15 4.11-26 27.6s-14.6 20.6-25.6 20.8c-9.89 0.192-25.6-8.12-23.7-17.8 2.53-12.9 4.05-26.5 7.12-40 2.94-13 26.8-0.267 39.9 1.8z" fill="#e3388e"/>
  <path d="m144-36 38.5 18.1-15 17.9s-7.31 9.22-12.1 11.1c-8.93 3.52-13.5 0.862-23.5-1.99-2.71-0.773-1.51-9.13-1.51-9.13l5.04-30.8z" fill="#38e3df"/>
  <path d="m393 31.2s2.94-14.9 7.51-20.6c4.14-5.15 16.7-10.6 16.7-10.6l11.1-7.05 4.63 7.05s13.7 19 21.9 28.3c9.22 10.5 7.05 35.5 4.24 39.7-10.2 15.1-48.4-22.7-48.4-22.7" fill="#c700b4"/>
  <path d="m238-35.6 35.3-15.2 27 15.5 0.782 35.2 0.202 9.07s-2.94 11.1-6.4 10.4c-25.4-5.3-54.4-18.1-54.4-18.1l-11.1-12z" fill="#71e3d0"/>
  <path d="m29.9 0.189 0.149-0.189 2.32-2.94 20.7-20 11.7 3.96 16.6 19s12.5 14.8 26.6 24c3.13 2.03-10.5 10.8-10.5 10.8s-9.59 9.03-18.3 6.04c-17.1-5.89-49.3-40.6-49.3-40.6z" fill="#1c0024"/>
  <path d="m18.8 157c9.56 3.33 7.74 10.2 10.2 20 2.54 10.1 9.84 20.7 3 28.5-3.07 3.54-9.77 0.601-9.77 0.601l-42.8-27.2 20.6-15.4s10.4-9.42 18.8-6.52z" fill="#005528"/>
  <path d="m-54.2-37.1 39.9 3.59 31.6 25.6 4.85 5.94-1.93 1.95s-4.4 10.9-11.6 12c-1.83 0.271-8.68 0.842-8.68 0.842l-50.2-27.1z" fill="#e3e3c9"/>
  <path d="m417-78.8 33.9 1.52 0.463 34.4-8.5 18.9-6.21 6.11-34 14.2-14.2-13.2-6.53-27z" fill="#c7e30d"/>
  <path d="m271 16.4s25.1 3.79 25 13.2c-0.0508 8.56-35.3 41.4-39.4 40.3-12.9-3.43-45.8-9.63-37.9-24 7.55-13.9 1.34-26.1 14.1-36.3 10.1-8.07 38.2 6.79 38.2 6.79z" fill="#710098"/>
  <path d="m502 60.7c1.09-6.72 9.55-10.8 9.55-10.8l10.4-5.52 33.8 35.2-7.42 29.5-1.82 1.62-11.2-7.47-23.7-24.9s-10.9-9.04-9.55-17.6z" fill="#001c34"/>
  <path d="m197 65c2.39-2.39 8.13-11.6 9.34-12.1 4.71-1.93 19.2 8.39 38.7 21.1 4.23 2.75-5.5 13.7-17.5 36.5-2.61 4.93-15.9 4.75-39.8-0.553-5.18-1.15-4.24-20.2-1.48-29.7 1.73-5.96-0.277-4.2 10.7-15.2z" fill="#551cc9"/>
  <path d="m117 234q7.9-5.72 12-4.95 19.8 3.73 22.8 5.85 14.4 10.3 15.9 14.5 7.1 20.4 3.87 25.4-15.6 23.9-21.7 24.6-29.3 3.47-32.7-2.12-16.5-27-13.9-33 12.1-29 13.8-30.2z" fill="#387134"/>
  <path d="m230 340c-5.34-0.0431-14.6 0.996-27.9 3.12-11.9 1.9-20.2 7.75-24.9 17.6-2.64 5.5-3.69 10.4-3.14 14.8 0.305 2.46 9.6 7.98 27.9 16.6 9.69 4.55 15.7 2.85 20.7 2.69 6.11-0.196 29.2 14.2 41.5 7.39 9.06-5.04 8.39-8.28 11.5-28.9-9.93-15.3-22.1-18.9-34.2-26.9-3.62-2.4-8.22-6.27-11.4-6.3z" fill="#63aa56"/>
  <path d="m152 68.8q29.5 7.39 25.4 25.5-3.58 15.9-9.48 24.1-5.19 7.17-25.9 4.51-18.2-2.34-22.1-6.76-3.41-3.88-2.41-31.5 0.875-24.3 34.4-15.9z" fill="#381c3f"/>
  <path d="m382 117q2.17-2.17 31.6-5.1 34.6-3.44 37.3 0.974 3.1 5.19 1.04 26.9-2.43 25.5-24.1 26.3-25.5 0.925-29-1.95-4.13-3.38-10.8-22.6-7.88-22.6-6.04-24.5z" fill="#c73876"/>
  <path d="m356 306q4.65-4.91 27.5 0.558 3.94 0.942 13.8 28.1 1.7 4.68-57.8 17-10.3 2.12-10.5-14.3-0.039-2.84 26.9-31.3z" fill="#aa8ed0"/>
  <path d="m63.9 60.2c8.29-8.29 16.7-13.6 25.1-16 8.61-2.42 14.6-0.829 18.1 4.78 3.53 5.73 4.98 17.1 4.37 34.3-0.63 17.5-12.1 25.9-34.3 25.3-22.7-0.642-34.7 6.51-31.9-5.1 2.89-11.9 10.5-35.1 18.6-43.2z" fill="#1c1c7e"/>
  <path d="m335 134q12.8-13.9 30.5-13.9 8.38 0.018 18.3 28.4 4.7 13.5-26 33.8-14.6 9.66-38.4-9.88-11.3-9.28 15.7-38.5z" fill="#aa38a8"/>
  <path d="m311 277q33-8.13 35.2-3.04 10.3 23.9 4.74 29.8-26.1 27.5-32.3 22.4-29.2-24.2-26.6-28.3 12-19.1 19-20.8z" fill="#8e8e35"/>
  <path d="m292 95.1c4.42 5.28-2.78 21.5-10.6 63.9-0.271 1.47-3.13 0.405-8.57-3.2-0.189-0.125-8.56-47.8-12.6-69.1-2.05-10.8 28.1 4.08 31.8 8.45z" fill="#711c60"/>
  <path d="m218 217q33.2 12.5 30.6 19.6-15.6 42.2-22.9 40.7-43.4-9.02-44.6-12.6-7.34-21.1-1.76-25.2 33.2-24.6 38.8-22.5z" fill="#55712d"/>
  <path d="m396 344c-1.73 0.0744-3.84 0.369-6.32 0.881-39.9 8.24-59.9 12.4-59.9 12.4-16 6.42-36.6 7.87-48.7 15.7-3.23 21.2-7.82 24.3-2.82 34.9 3.25 6.83 11.2 12.2 18.7 12.9 20.2 1.74 50.6-23.4 55.2-25.4 2.95-1.28 17.2-8.4 19.5-9.98 23.6-15.9 19.3-10.1 25-18.9 3.92-6.02 8.62-14.8 4.91-21-0.99-1.64-2.67-1.58-5.56-1.45z" fill="#9caaa0"/>
  <path d="m321 95.1c1.61-0.08 26.8 13.5 20.6 21.2-11.2 14.1-20.8 29.3-31.6 42.6-4.86 5.95-11.8 3.34-22.5 4.84-1.03 0.145-3.79-3.76-3.35-6.01 3.64-19 9.8-35.4 13.3-58.6 1.2-7.87 6.83-3.18 23.5-4.01z" fill="#8e3880"/>
  <path d="m249 315q2.11-6.24 29-7.9 8.08-0.499 35.3 22.1 8.17 6.79 8.37 21.6 0.061 4.45 0.062 4.51 0 0.018-0.015 0.021-4e-3 1e-3 -32.2 6.24-9.68 1.87-35.8-12.5-7.84-4.32-10.8-11.2-0.895-2.07 6.12-22.8z" fill="#718ebd"/>
  <path d="m403 46.8c24.8 20.8 51.3 34.5 49.8 40.2-2.84 10.7-11.7 16.8-26.6 18.3-27.8 2.76-40.7-3.93-38.7-20.1 3.7-30.1 1.14-47.3 15.6-38.4z" fill="#c71c5c"/>
  <path d="m253 80c0.605 0.121 1.59 0.893 2.95 2.32 0.372 0.389 4.54 28 11.2 65.4 1.83 10.2-5.29 5.17-20.1 2.4-4.04-0.755-9.55-8.48-16.5-23.2-1.91-4.02 2.89-16.9 14.4-38.7 3.14-5.94 5.82-8.69 8.04-8.25z" fill="#7138c1"/>
  <path d="m175 284q6.32-9.67 40-2.66 17 3.53 24.1 17.1 3.58 6.84-2.49 24.8-3.06 9.05-36.1 14.3-16.6 2.66-30.9-22-7.18-12.4 5.38-31.6z" fill="#558ea5"/>
  <path d="m304 45.2q18.2 31 18.2 33.9 0.094 10.1-5.9 10.4-21.5 1.06-28.8-1.39-26.1-8.77-26.6-9.37-2.04-2.13 6.71-10.9 31.3-31.3 36.4-22.6z" fill="#8e1c14"/>
  <path d="m123 124c19.1 2.46 39.4 9.28 40.9 13.3 4.05 11.2 1.63 19.8-7.25 25.9-24.8 17-38.5 23.7-41.2 20-7.42-10.1-9.5-18.8-6.25-26.2 9.06-20.5 6.97-33.9 13.8-33z" fill="#383849"/>
  <path d="m248 250c4.56-8.96 7.92-22.5 17.8-24.4 5.99-1.13 11.5 5.19 15.4 9.84 9.39 11.1 18.3 25.6 17.1 40-0.721 9.07-6.74 18.4-14.6 23.1-10 5.93-24.8 7.86-34.9 2.1-6.69-3.8-9.96-12.8-10.6-20.5-0.875-10.5 4.92-20.8 9.72-30.2z" fill="#71716e"/>
  <path d="m372 36.6q14.1-2 14.5-1 1.18 3.77-0.599 18.3-6.74 54.9-7.58 55.7-3.18 3.18-8.62 3.16-20.6-0.045-24.8-4.94-15.8-18.5-15.8-21.2-0.095-10.2 8.12-18.4 31-31 34.8-31.6z" fill="#aa1c90"/>
  <path d="m170 127q8.84-12.2 17.7-10.3 34.8 7.71 37.5 13.4 10.6 22.4 3.27 25.5-29 12.3-32.2 11-12.7-5.22-14.2-6.96-6-6.85-7.68-11.5-6.58-18.1-4.33-21.2z" fill="#55383b"/>
  <path d="m321 235c18.3 0.831 21.4-4.98 27.8 1.74 4.69 4.9 2.05 10.6 0.362 20.4-1.38 7.95-12 8.41-26.7 12-12 2.95-21.1-2.94-27.5-17.7-5.16-12 3.49-17.5 25.9-16.5z" fill="#8e718b"/>
  <path d="m117 317q4.05-7.55 29.6-10.6 9.81-1.16 25.3 25.6 5.94 10.3-2.01 26.9-3.06 6.37-46-5.67-16.5-4.62-17.1-13.2-0.232-3.31 10.3-23z" fill="#388eb2"/>
 </g>
</svg>
