<?xml version="1.0" encoding="UTF-8"?>
<svg width="512px" height="512px" contentScriptType="text/ecmascript" contentStyleType="text/css" version="1.1" viewBox="0 0 512 512" xmlns="http://www.w3.org/2000/svg">
 <g class="voronoi" stroke-width=".5">
  <path d="m458-37.1 39.9 3.59 31.6 25.6 4.85 5.94-17.3 17.4-55.1-29.8z" fill="#e3e3c9"/>
  <path d="m303 25.7s1.6-3.39 3.17-4.14c3.36-1.6 13.2 1.99 16.9 2.59 14.1 2.31 32.4 5.48 35.1 10.2 3.15 5.5-25.4 33.6-32 33.4-12.6-0.433-20.9-29.3-20.9-29.3z" fill="#8e00cf"/>
  <path d="m-13.2 126 13.2 3.6s7.5 0.828 8.91 5.83c1.98 7.04-8.91 14.2-8.91 14.2l-10.9 11.6-25.6 20.8-12.6-8.24-3.62-33.7z" fill="#e3388e"/>
  <path d="m4.93 27.5c-0.376-7.16 6.66-15.1 13.7-16.6 13-2.79 28.5 6.56 35.8 17.7 5.6 8.59 19.1 19.4 10.9 25.4-10.2 7.53-18.7 14.8-23.1 7.7-8.41-13.7-36.3-16.7-37.2-34.2z" fill="#000046"/>
  <path d="m445-14.3 30.2 14 0.43 0.334s32.5 12.4 34.6 26.9c0.941 6.64-2.3 18.7-6.9 23.6-5.62 5.96-15.8 9.48-23.9 8.23-11.6-1.79-19.3-29.5-19.3-29.5l-10.2-29.3z" fill="#e3006f"/>
  <path d="m318-32.9 34.7 13.3-30.4 34.4s-7.78 2.51-11.3-0.751c-4.12-3.77-2.3-14.1-2.3-14.1l1.18-28z" fill="#8ee3e0"/>
  <path d="m111 30s6.21-10.9 11.6-13.2c7.56-3.25 16.9-1.64 24.7 0.928 19.3 6.35 35.1 20.4 50.4 34.3 4.78 4.3-3.53 12-9.48 16.8-13.5 10.9-36.1-3.59-52.6-10.5-9.12-3.82-19.9-7.95-24.5-16.7-1.83-3.43-0.053-11.7-0.053-11.7z" fill="#3800b4"/>
  <path d="m-41.1 70.8 11-5.22 42.6 33.1s9.39 10.2 4.37 16.4c-4.09 5.03-16.8 4.8-16.8 4.8l-31.6-2.72-23.3-10.1 3-20.3z" fill="#e31caf"/>
  <path d="m533 148 16.4 59.2-1.36 0.59-14-1.31-22.2-14.1s-12.1-5.38-12.4-13.5c-0.326-8.58 12.4-15 12.4-15z" fill="#005528"/>
  <path d="m195-13 28 5.11-0.229 7.92-0.196 6.79s-0.613 33.9-13.3 39.9c-2.51 1.19-7.78-2.98-7.78-2.98s-35.7-9.96-35.9-26c-0.0844-6.84 14.1-17.7 14.1-17.7z" fill="#550029"/>
  <path d="m-18 59.4 18-9.57s8.77-2.98 12.6-2.36c16.1 2.58 27.4 16.3 31.5 32.1 2.59 9.79-0.187 17.1-3.64 24.6-1.19 2.59-7.18 7.36-10 7.75-4.44 0.602-1.84-3.01-6.78-8.74-4.94-5.74-23.7-24.9-23.7-24.9z" fill="#001c34"/>
  <path d="m464 74c2.57-4 6.73-9.81 10.8-9.37 12.7 1.38 37.4 24.4 37.4 24.4l12.5 9.69 6.92 22.9-19.4-1.67s-20.5 0.396-31.1 0.573c-7.67 0.129-19.3 6.85-23.4-0.552-3.32-5.98 1.12-26.5 2.59-33.2 0.952-4.33 1.36-9.02 3.75-12.7z" fill="#e31caf"/>
  <path d="m86.9-50 14.6-13.7 19.3 17.6 5.01 36.9-4.68 9.17s-3.95 8.22-9.6 9.5c-8.29 1.88-18.6-9.5-18.6-9.5l-12.5-9.53z" fill="#1ce39d"/>
  <path d="m361-16.4 23.1 4.88 13.1 13.8s-3.66 20.2-11.2 25.7c-5.17 3.77-19.1 1.93-19.1 1.93s-31.7-3.69-35.1-12.9c-2.93-8.05 12.2-17 12.2-17z" fill="#aa0016"/>
  <path d="m16.4 140c0.716-4.12-2.79-12.1 0.514-16.4 4.19-5.56 18.2-8.42 19.9-6.37 12.3 15.3 40.6 43 42.1 49.3 1.69 7.27-11.1 10.9-15.7 16.8-6.23 8.09-4.05 15.5-10.2 15.2-21.3-1-9.74-16.9-15.7-26.9-13.5-19.5-23.4-17.3-20.9-31.7z" fill="#003838"/>
  <path d="m489 127c4.55-0.174 22.5 2.99 22.5 2.99l15 4.11-26 27.6s-9.21 13.3-20.2 13.9c-5 0.258-20.2-3.09-24.7-7-6.12-5.28-2.83-18.4 3.18-28 7.43-11.8 16.2-13 30.1-13.5z" fill="#e3388e"/>
  <path d="m144-36 38.5 18.1-24.9 29.8s-19.7 5.7-25.4-1.99c-1.69-2.26-1.82-9.91-1.82-9.91l5.04-30.8z" fill="#38e3df"/>
  <path d="m395 34.6c-2.49-6.96 5.32-24 5.32-24l27.8-17.7 4.63 7.05s22.7 25.6 27.3 41.5c2.59 9.11 7.38 23.6-0.753 28.4-15.6 9.33-27.1-14.5-42.5-24.2-6.34-4.01-18.6-2.32-21.8-11.1z" fill="#c700b4"/>
  <path d="m469 273c17.1 1.33 30.6 22.6 33 39.7 0.574 4.07-2.59 7.92-4.94 11.3-1.79 2.56-4.05 4.96-6.77 6.49-3.93 2.21-13.1 3.47-13.1 3.47l-34.6-37.7s14.7-24.2 26.4-23.3z" fill="#e38e16"/>
  <path d="m238-35.6 35.3-15.2 27 15.5 0.782 35.2 0.202 9.07s-4.99 7.65-8.52 7.45c-24.4-1.4-52.3-15.2-52.3-15.2l-11.1-12z" fill="#71e3d0"/>
  <path d="m29.9 0.189 0.149-0.189 2.32-2.94 20.7-20 11.7 3.96 16.6 19s18.9 15.8 19.8 27c0.284 3.72-1.33 6.13-3.69 7.76-7.57 5.23-27.5 2.24-27.5 2.24z" fill="#1c0024"/>
  <path d="m18.5 159c19.4 6.63 19.1 48.1 19.1 48.1s0.267 8.67-2.95 9.62c-5.16 1.54-8.06-7.17-12.4-10.3-7.08-5.17-22.2-14.1-22.2-14.1l-20.6-13.1 20.6-15.4s10.1-7.53 18.5-4.68z" fill="#005528"/>
  <path d="m-54.2-37.1 39.9 3.59 31.6 25.6 4.85 5.94-1.93 1.95s-5.98 12.8-13.2 13.8c-1.83 0.271-7.09-1-7.09-1l-50.2-27.1z" fill="#e3e3c9"/>
  <path d="m417-78.8 33.9 1.52 0.463 34.4-8.5 18.9-6.21 6.11-34 14.2-14.2-13.2-6.53-27z" fill="#c7e30d"/>
  <path d="m271 16.4s23.4 3.93 25 13.2c2.19 12.6-24.6 22.3-33.6 30-10 8.61-23.8 5.93-31.8-1.08-9.5-8.38-9.36-33.7-1.63-43.8 9.49-12.3 42 1.6 42 1.6z" fill="#710098"/>
  <path d="m500 63c1.09-6.72 11.7-13.1 11.7-13.1l10.4-5.52 33.8 35.2-7.42 29.5-1.82 1.62-11.2-7.47-23.7-24.9s-13.1-6.73-11.7-15.3z" fill="#001c34"/>
  <path d="m63.9 60.2q12.4-12.4 25.1-16 12.9-3.63 18.1 4.78 5.29 8.59 4.37 34.3-0.945 26.2-34.3 25.3-34-0.963-29.8-18.4 4.34-17.8 16.5-30z" fill="#1c1c7e"/>
  <path d="m376 93.7q7.07-2.68 22.9 13.2 4.41 4.42-8.41 40-3.58 9.92-29.7 12.4-7.28 0.679-9.51-43.6-0.621-12.3 24.7-22z" fill="#aa38c0"/>
  <path d="m185 186q2.21-1.93 14.5-3.18 8.67-0.876 21.2 5.47 8.81 4.46 0.039 26.1-6.16 15.2-30.8 9.03-17.3-4.32-11.9-22.1 3.8-12.5 6.94-15.3z" fill="#555593"/>
  <path d="m280 326q8.36-32.6 10.9-33.8 9.19-4.31 13.2-4.02 14.7 1.07 19.3 5.13 16.8 14.8 17.9 23.2 4.08 30.8 2.51 33-5.72 8.1-13.4 7.87-27.9-0.825-33.3-5.48-19.5-17-17.2-25.9z" fill="#8e8e8c"/>
  <path d="m205 58.8c2.39-2.39 3.45-5.57 5.39-4.32 8.31 5.32 32.8 12.9 32.8 12.9 4.6 2.99 5.66 7.83 6.49 12.4 2.33 12.9-1.61 13.1-4.9 39.1-0.711 5.63-6.05 9.27-16 10.9-2.16 0.357-12.9-1.73-32.3-6.25-4.19-0.98-9.07-4-14.6-9.06-1.21-1.1 0.5-11.9 5.12-32.5 1-4.45 7.01-12.2 18-23.2z" fill="#551cc9"/>
  <path d="m122 228q2.04-1.06 25 6.14 4.3 1.35 7.4 20.6 0.58 3.6-7.2 22.8-1.46 3.6-28.6 17.9-5.07 2.68-23.9-20.4-3.52-4.32 13.2-35.5 3.12-5.84 14-11.5z" fill="#38714b"/>
  <path d="m406 289q3.57-3.74 18.6 3 13 5.85 32.9 26.3 17.3 17.7 14.7 20.3-2.26 2.26-28.7 2.52-23 0.228-32.9-25.5-8.62-22.3-4.51-26.6z" fill="#c78ec3"/>
  <path d="m264 348q9.34-9.14 23.8 3.45 10.4 9.04-5.5 27-11.4 12.9-24.1 5.11-9.12-5.57-8.02-15.6 0.791-7.2 13.8-19.9z" fill="#71aa92"/>
  <path d="m152 68.5q29.5 7.39 25 27.3-3.94 17.5-26.4 25.5-19.7 6.99-27.4-1.7-6.71-7.64-5.72-35.3 0.876-24.3 34.4-15.9z" fill="#381c86"/>
  <path d="m427 111q22.2-2.21 24.8 2.21 3.1 5.19 1.04 26.9-2.43 25.5-23.7 26.3-25 0.907-30.7-3.19-6.78-4.82 0.761-25.7 8.86-24.6 27.7-26.5z" fill="#c73876"/>
  <path d="m39.2 225c-0.316-4.54 2.8-13.2 3.17-13.3 1.13-0.287 6.65 1.22 16.6 4.53 30.2 10.1 37.6 8.81 40.5 24.3 2.22 11.9-10.5 25.9-22.2 28.6-9.24 2.15-23.4-2.75-25.6-12.5-6.8-29.6-11.6-20.4-12.4-31.7z" fill="#1c7145"/>
  <path d="m361 305q35.8-10.4 41 3.04 13.4 34.6 7.4 39.8-15.3 13.2-27 9.67-30.1-9.2-31.5-20.2-3.74-28.3 10.1-32.3z" fill="#aa8e4c"/>
  <path d="m372 35.4q14.1-2 14.5-1 1.18 3.77-0.02 13.6-4.55 37-11.3 39.6-25.6 9.73-29.9 7.53-16.1-8.34-16.1-10.8-0.085-9.14 8.13-17.4 31-31 34.8-31.6z" fill="#aa1c3c"/>
  <path d="m175 119c-14.5-2.35-28.2 8.28-41.5 14.5-15.3 16.3 38.6 46.2 43.8 50.3 8.05-1.39 31.1-5.99 33.5-11.5 8.87-23.4 11.5-35.6 8.02-36.4-12.5-2.92-17.8 0.258-25.9-3.01-6.99-2.84-10.5-12.6-17.9-13.8z" fill="#473836"/>
  <path d="m280 218c2.42-4.94 5.5-4.12 15.5-5.81 27.7-4.7 42.3-5.04 43.8-1 4.18 11.2 3.82 21.4-1.06 30.7-13.6 25.6-22 38.3-25.4 38.1-9.21-0.668-15.5-6.27-18.9-16.8-9.41-29.3-20.9-31-13.9-45.1z" fill="#8e71a7"/>
  <path d="m144 289q3.38-1.79 31 37.3 3.24 4.6-7.28 22.1-1.24 2.06-48.8-26.3-5.6-3.33-3.83-16.4 0.208-1.54 29-16.7z" fill="#388eda"/>
  <path d="m323 94.4q2.51-1.28 19.2 7.4 3.61 1.87 5.96 48.4 0.506 10-2.76 12.4-0.706 0.511-39.2-12.7-8.31-2.85 2.73-41.3 2.38-8.3 14-14.2z" fill="#8e38c9"/>
  <path d="m121 163q7.69-11.1 29.5 5.85 26.4 20.6 22.3 34.3-5.04 16.6-11.6 21.1-7.96 5.4-20.3 1.54-14.9-4.68-20-26.8-6.16-26.8 0.189-35.9z" fill="#385574"/>
  <path d="m447 237q5.64-1.46 14.8 24.3 1.67 4.72-20.3 26.7-4.04 4.04-27.7-6.59-4.34-1.95 1.45-31.1 1.06-5.35 31.8-13.3z" fill="#c771ce"/>
  <path d="m304 99.2c1.12 0.379-2.64 15.6-11.3 45.8-0.3 1.05-13.6 8.55-20.6 6.98-9.85-2.19-7.76-6.85-21.9-20.9-0.491-0.489-5.74-33 5.48-41.1 13.3-9.59 16-1.63 48.3 9.27z" fill="#711cea"/>
  <path d="m44.5 113c5.35-8.83 9.92 1.67 30.9 2.26 23.9 0.677 38.1 3.56 42.6 8.65 5.1 5.8 7.24 10.8 6.44 14.9-0.92 4.69-3.57 10.2-7.94 16.5-4.99 7.2-11.7 10.9-20.2 11.2-9.69 0.282-20.7-7.48-33-23.3-14.1-18-24.9-20.1-18.7-30.2z" fill="#1c3877"/>
  <path d="m163 231q9.31-6.32 24.4-2.55 26.9 6.72 29.5 9.84 4.72 5.58 7.22 18.7 4.46 23.4 0.565 26.2-6.95 4.96-27.2-6.11-36.1-19.8-37.4-28-2.36-14.6 2.86-18.2z" fill="#55715f"/>
  <path d="m318 363q19.4 0.574 16.7 17-3.27 19.7-21 27.5-21.3 9.37-29.4-1.35-9.7-12.9 2.7-26.9 14.9-16.8 31-16.3z" fill="#8eaa75"/>
  <path d="m415 53.5q40.4 25 38.1 33.6-4.26 16-18.6 17.5-26.7 2.66-33.8-4.42-13.2-13.2-11.1-29.5 3.74-30.5 25.4-17.1z" fill="#c71c5c"/>
  <path d="m234 136q12.3-2.03 19.4 5.09 14.8 14.7 12.5 23-4.74 17-13.7 19.7-18.5 5.44-25.4 1.92-14.4-7.28-9.29-20.8 10.5-27.9 16.5-28.9z" fill="#713857"/>
  <path d="m95.5 172q13.7-0.399 19.3 23.9 5.65 24.6-0.793 27.9-6.52 3.37-36.5-6.61-30.3-10.1-13.1-27.3 17.5-17.5 31-17.8z" fill="#1c557e"/>
  <path d="m379 235q23.1 3.33 27.4 7.06 3.66 3.21-0.028 21.8-3.17 16-7.29 20.3-3.55 3.72-30.2 11.5-23 6.67-34.5-3.46-9.89-8.73 5-36.8 12.8-24.2 39.7-20.3z" fill="#aa7156"/>
  <path d="m153 279q7.11-17.6 20.1-10.5 43.3 23.7 40.7 28.8-8.72 16.9-14.1 20-18 10.6-25.1 0.553-23.7-33.6-21.6-38.9z" fill="#558e83"/>
  <path d="m304 45.3c12.1 20.7 18.2 31.9 18.2 33.6 0.056 6.03-0.946 9.56-3 10.6-7.37 3.75-14.7 4.39-22 1.93-26.2-8.82-41.2-3.71-42.4-19.2-0.493-6.54 10.5-4.71 16.5-10.7 21.5-21.5 29.4-22 32.7-16.2z" fill="#8e1c3e"/>
  <path d="m48.7 286q8.21-8.21 18.6-9.2 19.1-1.82 27 7.83 14.5 17.7 13.8 22.9-1.28 9.46-6.43 14.4-9.47 9.08-18.1 5.98-15.8-5.7-24.1-16.9-15.2-20.6-10.8-25z" fill="#1c8e5d"/>
 </g>
</svg>
