<?xml version="1.0" encoding="UTF-8"?>
<svg width="512px" height="512px" contentScriptType="text/ecmascript" contentStyleType="text/css" version="1.1" viewBox="0 0 512 512" xmlns="http://www.w3.org/2000/svg">
 <g class="voronoi" stroke-width=".5">
  <path d="m458-37.1 39.9 3.59 31.6 25.6 4.85 5.94-17.3 17.4-55.1-29.8z" fill="#e3e3c9"/>
  <path d="m392 44.8c0.812-6.61-2.22-5.83-4.66-7.44-3.66-2.4-5.46-0.188-13-1.98l-57-13.6-11.2-0.316-3.17 4.14 2.2 12.8 24.2 47.7c1.13 2.23-0.396 5.14-0.369 7.99 0.0305 3.28 0.924 6.37 2.68 9.25 0.465 0.762 35.9 8.94 45.4-17.2" fill="#9c0e85"/>
  <path d="m-13.2 126 13.2 3.6s8.58 1.35 9.98 6.35c1.98 7.04-9.98 13.7-9.98 13.7l-10.9 11.6-25.6 20.8-12.6-8.24-3.62-33.7z" fill="#e3388e"/>
  <path d="m19.8 6.94c-7.01 1.5-13.5 10.4-13.3 18.8 0.0196 0.96 1.34 7.33 1.18 8.64-0.891 7.01-7.61 15.4-7.61 15.4l-18 9.57 41.8 43.7s7.51 8.51 11.9 7.79c2.63-0.422 4.17-6.62 4.17-6.62s4.84-27 14-42.2c3.08-5.13 10.9-10.7 11.5-16.7 0.672-6.68-11-16.9-11-16.9s-21.6-24.4-34.6-21.6z" fill="#001c34"/>
  <path d="m445-14.3 30.2 14 0.43 0.334s27 7.29 31.3 21.2c2.37 7.57 0.777 23.5-3.83 28.4-5.62 5.96-15.7 10.4-23.8 9.12-11.6-1.79-19.3-29.5-19.3-29.5l-10.2-29.3z" fill="#e3006f"/>
  <path d="m318-32.9 34.7 13.3-30.4 34.4s-7.66 2.51-11.2-0.747c-4.12-3.77-2.42-14.1-2.42-14.1l1.18-28z" fill="#8ee3e0"/>
  <path d="m111 30c0.673-5.88-0.826-14 4.09-17.3 9.01-6.05 32.2 5.03 32.2 5.03s34.6 9.64 42 23.9c3.53 6.78 5.34 24.4-2.14 22.8-26.6-5.5-50 6.38-68.8-7-4.74-3.38-2.68-7.14-7.33-15.9-1.83-3.43-0.495-7.8-0.053-11.7z" fill="#3800b4"/>
  <path d="m-41.1 70.8 11-5.22 42.6 33.1s10.7 11.7 5.64 17.9c-4.09 5.03-18.1 3.35-18.1 3.35l-31.6-2.72-23.3-10.1 3-20.3z" fill="#e31caf"/>
  <path d="m533 148 16.4 59.2-1.36 0.59-14-1.31-22.2-14.1s-12-5.35-12.3-13.5c-0.326-8.58 12.3-15 12.3-15z" fill="#005528"/>
  <path d="m195-13 28 5.11-0.229 7.92-0.196 6.79s-0.613 33.9-13.3 39.9c-2.51 1.19-7.78-2.98-7.78-2.98s-36.6-24.6-37.4-30.4c-0.88-6.78 15.6-13.3 15.6-13.3z" fill="#550029"/>
  <path d="m471 70.8s2.22-2.58 6.25-2.15c12.7 1.38 34.9 20.4 34.9 20.4l12.5 9.69 6.92 22.9-19.4-1.67s-21.2-1.19-31.6-2.72c-8.95-1.31-21.8 2.13-26.6-5.53-4.54-7.26 6.28-24.9 6.28-24.9z" fill="#e31caf"/>
  <path d="m86.9-50 14.6-13.7 19.3 17.6 5.01 36.9-4.68 9.17s-4.38 9.2-10 10.5c-8.29 1.88-18.1-10.5-18.1-10.5l-12.5-9.53z" fill="#1ce39d"/>
  <path d="m361-16.4 23.1 4.88 13.1 13.8s-3.66 20.2-11.2 25.7c-5.17 3.77-12.7 2.43-19.1 1.93-13-1 4.6-1.84-37.7-9.85-8.41-1.59 14.8-20 14.8-20z" fill="#aa0016"/>
  <path d="m36.8 118c-0.682-0.984-8.96-0.289-12.3 2.18-3.16 2.32-2.6 5.56-5.43 10.4-2.81 4.83 1.25 12.8-1.69 17.6-4.13 6.68-17.3 16-17.3 16l-20.6 15.4 42.8 27.2 14 1.31 6.61-6.42 2.3-1.64s32.8-19.5 26.3-33.2c-8.65-18.1-22-30.6-34.6-48.9z" fill="#005528"/>
  <path d="m499 126c4.55-0.174 13.2 3.6 13.2 3.6l15 4.11-15 16s-7.3 7.73-10.9 11.6c-4.18 4.45-6.89 11-12.5 13.4-7.88 3.27-19.3 4.92-25.6-0.804-9.59-8.66-11.2-28.9-5.15-38.4 7.43-11.8 27-8.86 41-9.4z" fill="#e3388e"/>
  <path d="m144-36 38.5 18.1-15 17.9s-7.66 9.11-12.5 11c-8.93 3.52-15.1 2.9-23.1-1.45-2.48-1.34-1.61-9.56-1.61-9.56l5.04-30.8z" fill="#38e3df"/>
  <path d="m393 31.5c-2.05-7.1 7.56-20.8 7.56-20.8l27.8-17.7 4.63 7.05s22.7 25.6 27.3 41.5c2.59 9.11 7.38 23.6-0.753 28.4-15.6 9.33-33.4-14.9-48.8-24.7-6.34-4.01-15.7-6.59-17.8-13.8z" fill="#c700b4"/>
  <path d="m238-35.6 35.3-15.2 27 15.5 0.782 35.2 0.202 9.07s0.113 10.3-3.41 10c-14.9-1.32-57.4-17.8-57.4-17.8l-11.1-12z" fill="#71e3d0"/>
  <path d="m29.9 0.189 0.149-0.189 2.32-2.94 20.7-20 11.7 3.96 16.6 19s14.7 16 22.1 25.3c2.32 2.92-2.8 7.53-6 9.46-7.88 4.76-20 7.57-27.5 2.24-14.2-10.1-40-36.8-40-36.8z" fill="#1c0024"/>
  <path d="m-54.2-37.1 39.9 3.59 31.6 25.6 4.85 5.94-17.3 17.4-55.1-29.8z" fill="#e3e3c9"/>
  <path d="m271 16.4s25.3 3.79 25 13.2c-0.216 6.85-25.7 28.3-25.7 28.3s-26.2 15.5-36.3 7.02c-9.72-8.14-14.6-35.8-5.86-54.3 5.91-12.6 42.9 5.78 42.9 5.78z" fill="#710098"/>
  <path d="m500 61.3c1.09-6.72 12.1-11.4 12.1-11.4l10.4-5.52 33.8 35.2-7.42 29.5-1.82 1.62-11.2-7.47-23.7-24.9s-13.5-8.44-12.1-17z" fill="#001c34"/>
  <path d="m211 54.2c-2.3 0.125-3 1.94-5.39 4.32-11 11-16.9 18.2-17.7 21.6-3.47 15.5-3.08 25 1.19 28.6 19.7 16.7 30.4 25 32.1 25.1 6.8 0.148 37.6-5.25 41.5-6.36 27.8-7.87 62.2-14.6 62.2-14.7 0.355-3.02 0.495-4.59 0.42-4.72-2.15-3.52-3.94-5.52-5.38-6.01-25.5-10.2-56.3-13.9-76.7-27.2-21.2-13.8-19.5-21.2-32.2-20.6z" fill="#631c4d"/>
  <path d="m44.5 108c6.61-9.36 13 4.44 34 5.03 23.9 0.677 33.7 3.92 36.8 7.51 3.6 4.1 3.62 12.1 0.068 24-4.05 13.6-10.5 20.5-19.3 20.8-10 0.293-21.2-7.46-33.6-23.3-14.1-18-25.5-23.6-18.1-34.1z" fill="#1c3877"/>
  <path d="m236 194q1.54-0.119 32.4 6.5 14.3 3.07 18.4 16.5 1.89 6.25-27.4 24.2-13.6 8.35-24.8-1.31-5.19-4.48-2.95-32.7 1.04-13.1 4.35-13.3z" fill="#5571a9"/>
  <path d="m190 201c-9.74 4.38-22.8 11-23.6 21.7-0.879 12.3 7.01 8.44 23.4 28.7 4.22 5.21 7.1 22.3 4.94 44.4-0.044 0.444 27.2 10.9 38.1 4.11 10.6-6.61 4.74-11.7 12.9-35.2 0.142-0.412-0.748-3.47-2.67-9.19-0.0317-0.0952-10.2-9.53-12.6-15.8-5.05-13.3-4.18-19.7-2.37-42.5 0.112-1.42-26.4-1.34-38.1 3.89z" fill="#478096"/>
  <path d="m279 320q21.7-4.16 31 2.43 9.63 6.88 13.2 24.5 3.7 18.4-30.1 23.2-35.3 5.07-40.6-2.39-5.46-7.78 0.031-25.4 5.74-18.4 26.6-22.4z" fill="#71aa7d"/>
  <path d="m152 68.6q29.5 7.39 26.1 22.4-2.97 13.2-15.6 22.2-11.1 7.88-24.3 9.26-11.6 1.21-17-4.93-4.74-5.4-3.74-33 0.875-24.3 34.4-15.9z" fill="#381c86"/>
  <path d="m201 303c-5.3-0.0727-15.8 2.4-23.4 4.59-8.11 2.31-12 3.45-23.7 8.97-2.66 2.47-13.7 11.4-14.4 13.2-7.14 18.5-2.14 15.8-0.276 23.4 2.44 9.91 12.1 27.1 14.5 27 25.6-1.25 26.6-1.06 39.7-3.28 17.1-2.89 45.2 1.08 50.2-13 5.57-17.8 6.26-43.6 3.15-46.4-8.98-8.07-16.8-12.4-23.4-13-9.61-0.869-17.1-1.34-22.4-1.41z" fill="#55aa5a"/>
  <path d="m275 273q19.9 5.02 21.9 23.2 1.59 14.7-22 19.2-19 3.63-29-5.4-8.09-7.27-1.2-27.2 5.55-16 30.3-9.8z" fill="#718eca"/>
  <path d="m147 233q4.21-5.52 10.2-4.44 1.98 0.357 27.2 21.7 8.33 7.05 5.48 36.2-0.944 9.63-9.59 16-2.86 2.1-20.6 5.1-5.86 0.993-20.5-43.2-4.86-14.6 7.86-31.3z" fill="#388eb9"/>
  <path d="m63.9 60.2q12.4-12.4 25.1-16 12.9-3.63 18.1 4.78 5.29 8.59 4.37 34.3-0.945 26.2-34.3 25.3-34-0.963-29.8-18.4 4.34-17.8 16.5-30z" fill="#1c1c7e"/>
  <path d="m341 245q7.06-0.798 15.3 11.3 1.97 2.9-9e-3 35-0.474 7.69-26.4 26.6-6.21 4.52-21.4-6.34-3.64-2.6-6.52-29.1-0.689-6.35 7.61-28.8 1.99-5.37 31.4-8.7z" fill="#8e8e5f"/>
  <path d="m411 53.4c21 19.9 42.6 31.1 41.1 36.8-2.84 10.7-7.86 13.3-17.4 14.3-17.8 1.77-29.1 0.366-33.8-4.22-8.79-8.54-12.5-18.3-11.1-29.4 2.53-20.6 6.87-26.4 21.3-17.5z" fill="#c71c5c"/>
  <path d="m304 45.1c12.1 20.7 18.2 32.8 18.2 36.2 0.114 12.3-4.52 16.8-13.9 13.7-33.6-11.3-50.6-14.9-54.6-20-4.03-5.07 10.8-5.84 16.8-11.8 21.5-21.5 30.2-23.8 33.6-18z" fill="#8e1c8c"/>
  <path d="m296 232q10.6 13.1 7.55 21.3-7.25 19.6-20.4 16.3-31.5-7.93-32.4-10.5-2.07-6.14 10.6-13.9 30.2-18.6 34.6-13.1z" fill="#717150"/>
 </g>
</svg>
