<?xml version="1.0" encoding="UTF-8"?>
<svg width="512px" height="512px" contentScriptType="text/ecmascript" contentStyleType="text/css" version="1.1" viewBox="0 0 512 512" xmlns="http://www.w3.org/2000/svg">
 <g class="voronoi" stroke-width=".5">
  <path d="m254 106c-11.4 15.6-21.2 24.5-24.1 39.7-1.21 6.49 4.79 11.5 3.47 19.5-2.75 16.8-6.2 24.8-6.16 24.9 5.42 11.4 8.22 17.1 8.41 17.1 27.7-2.01 41.6-3.06 41.7-3.15 18.1-12.7 27.2-19.2 27.1-19.3-7.17-12.4-12.4-25.9-14.8-32.4-4.76-10 0.846-12.4 4.77-18.4 4.66-7.29 13.1-13.7 18.8-20.9 2.44-7.55 2.98-11.6 1.63-12-36.4-12.3-51-16.7-53.3-17.3-10.4-5.22-6.99 12.7-7.63 22.3z" fill="#7138e2"/>
  <path d="m458-37.1 39.9 3.59 31.6 25.6 4.85 5.94-17.3 17.4-55.1-29.8z" fill="#e3e3c9"/>
  <path d="m303 25.7 3.17-4.14 11.2 0.316 40.1 9.42s-11.9 34.3-26.6 35c-12.6 0.605-25.7-27.8-25.7-27.8z" fill="#8e00cf"/>
  <path d="m-13.2 126 28.2 7.71-26 27.6-25.6 20.8-12.6-8.24-3.62-33.7z" fill="#e3388e"/>
  <path d="m187-67.2 31.7 7.13 11.5 24.5-15.6 19.6-34-8.15-24-22z" fill="#55e345"/>
  <path d="m4.93 27.5s6.66-15.1 13.7-16.6c13-2.79 35.8 17.7 35.8 17.7s9.63 24.6 1.38 30.7c-10.2 7.53-35.8-12.8-35.8-12.8z" fill="#00009c"/>
  <path d="m445-14.3 30.2 14 0.43 0.334 34.6 26.9-7.06 21.7s-15.7 11.4-23.8 10.1c-11.6-1.79-19.3-29.5-19.3-29.5l-10.2-29.3z" fill="#e3006f"/>
  <path d="m318-32.9 34.7 13.3-30.4 34.4s-7.72 4.38-11.3 1.12c-4.12-3.77-2.37-15.9-2.37-15.9l1.18-28z" fill="#8ee3e0"/>
  <path d="m111 30c2.05-5.48 11.6-13.2 11.6-13.2l24.7 0.928c16.1 0.606 37.9 28.4 37.9 28.4s7.94 13.6 1.98 18.4c-13.5 10.9-51.6-6.19-51.6-6.19l-24.5-16.7s-1.42-8.03-0.053-11.7z" fill="#3800b4"/>
  <path d="m-41.1 70.8 11-5.22 42.6 33.1 6.92 22.9-51-4.39-23.3-10.1 3-20.3z" fill="#e31caf"/>
  <path d="m533 148 16.4 59.2-1.36 0.59-14-1.31-42.8-27.2 20.6-15.4z" fill="#005528"/>
  <path d="m363-67.1 14.3 29 0.542 20.5-26.2-6.56-21.7-19.2z" fill="#aae33b"/>
  <path d="m195-13 28 5.11-0.229 7.92-0.196 6.79s-0.613 33.9-13.3 39.9c-2.51 1.19-7.78-2.98-7.78-2.98s-33.4-8.97-33.6-25c-0.0844-6.84 11.8-18.7 11.8-18.7z" fill="#550029"/>
  <path d="m-18 59.4 28.4-15.1 33.8 35.2-7.42 29.5-1.82 1.62-11.2-7.47-23.7-24.9z" fill="#001c34"/>
  <path d="m471 70.8c3.07-2.65 11-5.22 11-5.22l42.6 33.1 6.92 22.9-19.4-1.67s-18.9 3.75-29.2 1.15c-8.2-2.08-21 7.15-25.1-0.246-3.32-5.98-1.3-23.3 2.4-34.1 2.09-6.07 5.89-11.8 10.8-16z" fill="#e31caf"/>
  <path d="m86.9-50 14.6-13.7 19.3 17.6 5.01 36.9-12.6 24.7-32.7-25z" fill="#1ce39d"/>
  <path d="m361-16.4 23.1 4.88 13.1 13.8-11.2 25.7-19.1 1.93-41.4-12 18.5-17.8z" fill="#aa0016"/>
  <path d="m22 132 6.17-10s6.99-6.84 8.62-4.11c10.9 18.3 35 34.3 35.1 53.7 0.102 15.2-26.8 28.4-26.8 28.4l-5.32 3.8-17.2-61z" fill="#0038dc"/>
  <path d="m499 126 28.2 7.71-26 27.6s-14.6 20.2-25.6 20.8c-5 0.258-9.95-3.96-12.6-8.24-5.9-9.64-9.63-24.1-3.62-33.7 7.43-11.8 39.5-14.1 39.5-14.1z" fill="#e3388e"/>
  <path d="m398 374c-4 0.407-17.3 6.99-39.9 19.7-6.4 3.48 2.7 24.6 4.34 28.4-0.266 3.65-0.35 6.78-0.254 9.4l-32.5 37.2 21.7 19.2c27.6 3.81 32.3 12.2 51.2 10.1l34.1-3.75 6.21-6.11 8.5-18.9-0.463-34.4c-0.672-16.9-41.3-47.4-53-61z" fill="#b9d54b"/>
  <path d="m144-36 38.5 18.1-24.9 29.8-28.6-3.55 6.41-39.1z" fill="#38e3df"/>
  <path d="m-66.9-14.3 30.2 14 35 27.2-11.8 16.3-19 15.6-19.3-29.5z" fill="#e3006f"/>
  <path d="m393 31.5 7.56-20.8 27.8-17.7 31.9 48.6s7.38 23.6-0.753 28.4c-15.6 9.33-48.8-24.7-48.8-24.7z" fill="#c700b4"/>
  <path d="m534 132 11.8-12.1 3-1.97 36 45.8-27.7 36.2-5.32 3.8-17.2-61z" fill="#0038dc"/>
  <path d="m469 273c-16.1-3.9-38.8 21.6-45.8 19.5-7.66-2.3-12.8 2.76-15.4 15.2-3.27 15.7-4.02 25.2-2.23 28.6 2.05 3.88 12.5 5.73 31.2 5.55 21.6-0.214 33.2-1.07 34.7-2.58 5.12-9.14 5.17-5.19 18.7-8.78l6.77-6.49 4.94-11.3s-16.2-35.6-33-39.7z" fill="#d58e4f"/>
  <path d="m238-35.6 35.3-15.2 27 15.5 0.782 35.2 0.202 9.07s-5.95 1.29-9.1 2.89c-17.8 9.1-51.7-10.6-51.7-10.6l-11.1-12z" fill="#71e3d0"/>
  <path d="m29.9 0.189 0.149-0.189 2.32-2.94 20.7-20 11.7 3.96 38.6 44.3-6 9.46-27.5 2.24z" fill="#1c0024"/>
  <path d="m517 27.5 13.7-16.6 35.8 17.7 1.38 30.7-35.8-12.8z" fill="#00009c"/>
  <path d="m21.2 148 16.4 59.2-1.36 0.59-14-1.31-42.8-27.2 20.6-15.4z" fill="#005528"/>
  <path d="m-54.2-37.1 39.9 3.59 31.6 25.6 4.85 5.94-17.3 17.4-55.1-29.8z" fill="#e3e3c9"/>
  <path d="m417-78.8 33.9 1.52 0.463 34.4-8.5 18.9-6.21 6.11-34 14.2-14.2-13.2-6.53-27z" fill="#c7e30d"/>
  <path d="m271 16.4c9.26 1.81 23.4 3.93 25 13.2 2.19 12.6-27.6 30.9-39.2 36.1-12.1 5.45-26.3-7.18-26.3-7.18s-10.1-29.6-2.35-39.6c9.49-12.3 27.5-5.5 42.8-2.51z" fill="#710098"/>
  <path d="m500 59.7c1.09-6.72 11.9-9.87 11.9-9.87l10.4-5.52 33.8 35.2-7.42 29.5-1.82 1.62-11.2-7.47-23.7-24.9s-13.3-10-11.9-18.6z" fill="#001c34"/>
  <path d="m63.9 60.2q12.4-12.4 25.1-16 12.9-3.63 18.1 4.78 5.29 8.59 4.37 34.3-0.945 26.2-34.3 25.3-34-0.963-29.8-18.4 4.34-17.8 16.5-30z" fill="#1c1c7e"/>
  <path d="m324 105q0.228-0.706 4.17-3.74 0.253-0.195 48 5.83 3.06 0.386 7.67 6.46 0.296 0.39-4.67 50.6-0.319 3.22-3.21 6.73-0.186 0.226-15 2.62-0.952 0.153-38.1-54-2.38-3.47 1.17-14.5z" fill="#aa38e4"/>
  <path d="m209 192q12.6 0.907 18 12.4 2.74 5.77 0.525 17.4-1.12 5.86-32.3 24.7-15.7 9.49-21.7-11.9-3.02-10.8 5.95-33.1 4.52-11.2 29.5-9.43z" fill="#5555a5"/>
  <path d="m326 310q8.79 1.5-27.8 44.7-6.04 7.14-22.7-45.2-2.75-8.64 50.5 0.445z" fill="#8e8ed1"/>
  <path d="m107 349q3.45-6.71 9.89-11.1 1.67-1.14 16.8-1.39 3.91-0.066 17.8 11.9 3.61 3.08 10.6 26.4 1.82 6.03-5.74 19-1.96 3.34-35.8 16-8.77 3.26-23.2-26.9-3.73-7.81 9.58-33.7z" fill="#38aac3"/>
  <path d="m206 58.3q3.58-3.58 5.39-4.32 0.392-0.161 32.2 20.6 6.9 4.49 7.02 4.78 0.027 0.062-3.1 24.8-0.678 5.37-17.7 28.3-3.69 4.97-40.9-15.1-8.06-4.34-0.997-35.8 1.53-6.81 18.1-23.3z" fill="#551cc9"/>
  <path d="m285 206q24.6-17.3 26.7-16.7 18.9 4.81 18.7 8.15-1.06 29-2.8 31.4-15.1 20.7-16.4 20.9-11.4 1.4-13.2-3.06-15.9-38.7-13.1-40.7z" fill="#8e5524"/>
  <path d="m125 207q39.3 19 39.6 19.9 8.77 31.4 8.63 31.6-5.07 7.65-6.51 7.1-51.9-19.9-51.9-20.3-2.35-14-2.04-14.7 11.2-24.1 12.3-23.6z" fill="#387112"/>
  <path d="m42.2 115q0.953-0.952 32.4-0.062 35.9 1.02 39.5 5.11 4.1 4.67-2.21 23.9-7.2 21.9-18.3 22.3-12.7 0.368-31.1-23.3-21.1-27-20.3-27.9z" fill="#1c3877"/>
  <path d="m176 270q-0.063-0.508 4.11-6.81 1.03-1.56 38.7-24.3 9.3-5.61 34.2 32.1 6.14 9.32 5.46 16.8-0.169 1.84-26.7 18.4-6.55 4.09-45.8-26.6-9.69-7.58-9.95-9.63z" fill="#5571c4"/>
  <path d="m294 371c-1.29 12.1 2.39 32.7 1.4 47.4-1.65 24.5-7.7 37.1-3.99 40.1 12.5 10.3 19.5 15.4 20.9 15.2 4.33-0.613 9.51-3.95 15.6-10 18.9-18.9 28.4-29.7 28.7-32.6 0.751-8.85 0.287-14.8-1.39-17.8-1.24-2.23-4.4-21.4-4.84-23.5-2.12-10.3-2.13-13.9-2.91-20.9-1.79-16.1-2.63-46.6-4.04-48.4-3.08-3.73-2.61-5.49-5.1-5.47-7.23 0.0725-5.53 5.58-14.5 16.2" fill="#8eb9b1"/>
  <path d="m152 68.8c19.7 4.93 28 14.2 24.9 27.7-2.68 11.9-6.01 19.2-9.98 21.7-3.49 2.23-11.9 3.25-25.2 3.08-11.7-0.154-18.9-1.79-21.6-4.9-2.4-2.74-3.27-13.3-2.61-31.7 0.584-16.2-8.01-34 34.4-15.9z" fill="#381c86"/>
  <path d="m418 111q31.5-3.13 34.1 1.28 3.1 5.19 1.04 26.9-2.43 25.5-32.2 26.6-35 1.27-32.6-23.3 2.86-28.8 29.7-31.5z" fill="#c73876"/>
  <path d="m59.9 216c30.3 10.1 45.7 16.3 46.1 18.7 1.21 7.24 0.419 12.7-2.37 16.3-8.5 11.1-15.6 16.9-21.4 17.4-17.6 1.67-27.5-2.36-29.7-12.1-4.13-27.3-20.7-51.1 7.39-40.4z" fill="#1c7145"/>
  <path d="m370 276q15.1-10.9 22.1-12.7 5.25-1.33 10.9 11.3 4.22 9.55-1.01 34.6-3.94 18.9-30.7 12-20.1-5.15-24-9.81-2.89-3.51 0.297-13.5 2.4-7.49 22.5-22z" fill="#aa8e8f"/>
  <path d="m198 338q21.2-7.11 24.5 2.97 1.89 5.87-9.19 31.3-6.45 14.8-29.5 10-13.4-2.77-19-21.3-3.26-10.8 33.2-23z" fill="#55aa9d"/>
  <path d="m304 45.5q18.2 31 18.2 35.2 0.137 14.8-0.779 15.5-3.28 2.53-16.4-1.9-47.1-15.9-47.1-15.9-0.118-0.274 8.88-9.27 32.2-32.2 37.3-23.5z" fill="#8e1c3e"/>
  <path d="m142 127q18.5 0.245 20.1 25.3 1.53 24.6-18.4 31-19.5 6.3-26.9-4.67-7.25-10.8-0.431-31.5 6.69-20.4 25.6-20.1z" fill="#383880"/>
  <path d="m235 218q1.03-5.43 29.9-7.53 13-0.943 25.2 28.8 5.49 13.4-16.5 30.2-9.88 7.58-31.3-24.9-9.62-14.6-7.32-26.7z" fill="#7171ab"/>
  <path d="m48.6 286q8.21-8.21 20.5-9.38 22.7-2.16 30.2 17.5 13.9 36.1 11 38-5.25 3.59-18.5-1.17-24.3-8.74-32.6-19.9-15.2-20.6-10.8-25z" fill="#1c8e5d"/>
  <path d="m371 327q26.9 6.88 29.4 11.5 3.3 6.25-0.684 15.2-5.38 12.1-22.6 21.9-23.2 13.1-24.4-15.3-1.61-38.4 18.4-33.3z" fill="#aaaa6e"/>
  <path d="m372 35.3q14.1-2 14.5-1 1.18 3.77-0.419 16.8-6.06 49.3-16.7 48-40.2-5.07-40.2-9.02-0.139-14.9 8.07-23.2 31-31 34.8-31.6z" fill="#aa1c3c"/>
  <path d="m168 127q10.6-6.74 13.1-5.38 42.7 23 42.9 24 3.66 16.9 3.32 18.3-5.91 23.5-8.01 23.4-35.5-2.56-36.3-2.99-12.6-7.31-12.8-10.1-2.92-46.9-2.29-47.3z" fill="#553819"/>
  <path d="m109 258q5.48-7.13 41.6 6.69 17.2 6.6 17.4 8.34 0.103 0.828-20.3 37.7-9.73 17.6-22.6 17.8-6.15 0.104-20.7-37.6-6.93-18 4.54-32.9z" fill="#388ea8"/>
  <path d="m405 356q4.26-9.61 37.3-9.94 27.6-0.272 18.6 41-7.49 34.4-36.7 5.01-24.3-24.5-19.2-36.1z" fill="#c7aa89"/>
  <path d="m305 132q11.7-13.3 26.6 8.52 24.6 35.8 15.3 40.2-15.2 7.23-23.2 5.2-13.1-3.33-18.7-13.1-9.26-16-8.46-22.3 1.33-10.4 8.44-18.5z" fill="#8e3863"/>
  <path d="m126 195q0.128-0.981 35.2-12.3 4.31-1.39 16.2 5.51 1.46 0.846-10.6 30.7-1.48 3.66-37.5-13.8-4.42-2.14-3.38-10.1z" fill="#3855d9"/>
  <path d="m70.1 328q34.2 12.3 32.7 15.2-15.3 29.8-17.9 30-27.1 2.8-28.4 0.551-13.3-23.5-11.2-25.5 21.4-21.4 24.7-20.2z" fill="#1caa20"/>
  <path d="m414 53.8q40.4 25 38.1 33.6-4.26 16-24.6 18.1-37.9 3.77-39.7 1.51-3.19-4.2-0.517-26 4.99-40.6 26.7-27.2z" fill="#c71c5c"/>
  <path d="m94.2 172q11.9-0.348 19.2 10.5 7.37 10.9 6.78 15.4-0.589 4.52-6.3 16.8-5.78 12.5-35.8 2.47-30.4-10.1-13.1-27.4 17.5-17.5 29.3-17.8z" fill="#1c557e"/>
  <path d="m197 296q24.2 18.9 22.3 24.9-1.88 5.87-31.1 15.6-28.5 9.55-37.4 1.96-8.67-7.41 6.56-35 14.9-26.9 39.6-7.55z" fill="#558e80"/>
 </g>
</svg>
