<?xml version="1.0" encoding="UTF-8"?>
<svg width="512px" height="512px" contentScriptType="text/ecmascript" contentStyleType="text/css" version="1.1" viewBox="0 0 512 512" xmlns="http://www.w3.org/2000/svg">
 <g class="voronoi" stroke-width=".5">
  <path d="m458-37.1 39.9 3.59 31.6 25.6 4.85 5.94-17.3 17.4-55.1-29.8z" fill="#e3e3c9"/>
  <path d="m306 21.6 11.2 0.316s39.6 3.04 40.1 9.42c0.631 7.83-15.5 34.7-30.1 35.4-12.6 0.605-22.1-28.2-22.1-28.2-1.33-8.58-4.06-10.3 0.969-16.9z" fill="#8e00cf"/>
  <path d="m-13.2 126 13.2 3.6s9.82 1.06 11.2 6.07c1.98 7.04-11.2 14-11.2 14l-10.9 11.6-25.6 20.8-12.6-8.24-3.62-33.7z" fill="#e3388e"/>
  <path d="m4.93 27.5s10.4-17.2 19.1-17.7c18.3-1.07 37.2 21.4 44.4 32.5 5.6 8.59-20.9 30.3-20.9 30.3l-27.5-26.1z" fill="#00009c"/>
  <path d="m445-14.3 30.2 14 0.43 0.334 34.6 26.9-11.8 16.3-19 15.6-19.3-29.5-10.2-29.3z" fill="#e3006f"/>
  <path d="m318-32.9 34.7 13.3-30.4 34.4s-8.38 3.03-11.9-0.229c-4.12-3.77-1.7-14.6-1.7-14.6l1.18-28z" fill="#8ee3e0"/>
  <path d="m111 30 11.6-13.2 24.7 0.928s34.6 9.64 42 23.9c3.53 6.78 3.81 18-2.14 22.8-13.5 10.9-51.6-6.19-51.6-6.19l-24.5-16.7z" fill="#3800b4"/>
  <path d="m-41.1 70.8 11-5.22 42.6 33.1s9.07 12.2 4.05 18.4c-4.09 5.03-16.5 2.84-16.5 2.84l-31.6-2.72-23.3-10.1 3-20.3z" fill="#e31caf"/>
  <path d="m533 148 16.4 59.2-1.36 0.59-14-1.31-22.2-14.1s-12.2-4.97-12.5-13.1c-0.326-8.58 12.5-15.4 12.5-15.4z" fill="#005528"/>
  <path d="m195-13 28 5.11-0.229 7.92-0.196 6.79s-0.613 33.9-13.3 39.9c-2.51 1.19-7.78-2.98-7.78-2.98s-28.8-11-29-27.1c-0.0844-6.84 7.24-16.6 7.24-16.6z" fill="#550029"/>
  <path d="m-18 59.4 28.4-15.1 33.8 35.2-7.42 29.5-1.82 1.62-11.2-7.47-23.7-24.9z" fill="#001c34"/>
  <path d="m471 70.8c3.07-2.65 11-5.22 11-5.22l42.6 33.1 6.92 22.9-51-4.39s-19.2-2.73-23.3-10.1c-3.32-5.98 0.53-13.9 3-20.3 2.32-5.99 5.89-11.8 10.8-16z" fill="#e31caf"/>
  <path d="m86.9-50 14.6-13.7 19.3 17.6 5.01 36.9-4.68 9.17s-1.94 9.23-7.59 10.5c-8.29 1.88-20.6-10.5-20.6-10.5l-12.5-9.53z" fill="#1ce39d"/>
  <path d="m361-16.4 23.1 4.88 13.1 13.8-11.2 25.7-19.1 1.93-41.4-12 18.5-17.8z" fill="#aa0016"/>
  <path d="m22 132c4.91-4.77 9.05-10.3 14.8-14.1 0 0 35.1 31.7 35.2 51.1 0.102 15.2-20.4 28.5-20.4 28.5l-11.7 6.2-17.2-61z" fill="#0038dc"/>
  <path d="m499 126 28.2 7.71-26 27.6s-14.6 20.2-25.6 20.8c-5 0.258-9.95-3.96-12.6-8.24-5.9-9.64-9.63-24.1-3.62-33.7 7.43-11.8 39.5-14.1 39.5-14.1z" fill="#e3388e"/>
  <path d="m144-36 38.5 18.1-24.9 29.8-28.6-3.55 6.41-39.1z" fill="#38e3df"/>
  <path d="m393 31.5 7.56-20.8 27.8-17.7 31.9 48.6s7.38 23.6-0.753 28.4c-15.6 9.33-48.8-24.7-48.8-24.7z" fill="#c700b4"/>
  <path d="m534 132 11.8-12.1 3-1.97 36 45.8-27.7 36.2-5.32 3.8-17.2-61z" fill="#0038dc"/>
  <path d="m238-35.6 35.3-15.2 27 15.5 0.782 35.2 0.202 9.07s-5.22 10.4-8.69 9.68c-13.3-2.65-52.1-17.4-52.1-17.4l-11.1-12z" fill="#71e3d0"/>
  <path d="m29.9 0.189 0.149-0.189 2.32-2.94 20.7-20 11.7 3.96 38.6 44.3-6 9.46-27.5 2.24z" fill="#1c0024"/>
  <path d="m517 27.5 13.7-16.6 35.8 17.7 1.38 30.7-35.8-12.8z" fill="#00009c"/>
  <path d="m21.2 148 16.4 59.2-1.36 0.59-14-1.31-42.8-27.2 20.6-15.4z" fill="#005528"/>
  <path d="m-54.2-37.1 39.9 3.59 31.6 25.6 4.85 5.94-17.3 17.4-55.1-29.8z" fill="#e3e3c9"/>
  <path d="m417-78.8 33.9 1.52 0.463 34.4-8.5 18.9-6.21 6.11-34 14.2-14.2-13.2-6.53-27z" fill="#c7e30d"/>
  <path d="m271 16.4s23.4 3.93 25 13.2c2.19 12.6-25.7 28.3-25.7 28.3s-29.6 9.17-39.7 0.677c-9.72-8.14-13.8-27.5-6.04-37.5 9.49-12.3 46.4-4.62 46.4-4.62z" fill="#710098"/>
  <path d="m494 59.4 28.4-15.1 33.8 35.2-7.42 29.5-1.82 1.62-11.2-7.47-23.7-24.9z" fill="#001c34"/>
  <path d="m96.3 43.1c-2.19-0.0272-4.62 0.337-7.31 1.09-8.42 2.37-16.8 7.7-25.1 16-8.12 8.12-13.6 18.1-16.5 30-1.56 10.8-4.51 13.7-5.3 24.5-0.557 0.557 6.19 9.85 20.3 27.9 12.3 15.8 21 23.6 25.9 23.5 4.34-0.126 10.9-7.24 19.7-21.4 3.5-4.57 18.2-22.4 23.2-21.2 4.1 0.825 12.7-4.99 25.9-17.5 14.9-14.2 25.7-19.9 21-31.7-3.31-8.27-6.4-1.01-26.1-5.94-21-7.28-34.4-13-44.9-19.4-2.37-3.86-5.97-5.81-10.8-5.87z" fill="#25257e"/>
  <path d="m424 111c17-1.69 45.3 5.83 47.1 8.77 2.07 3.46-12 12.3-18 20s-7.42 25.7-17.4 26.1c-11.7 0.426-22.1-1.71-31.1-6.4-10.6-5.52-13.8-14.1-9.65-25.7 4.92-13.7 14.6-21.3 29-22.7z" fill="#c73876"/>
  <path d="m305 119c6.7e-4 -6e-3 8.62-14.8 18.7-18.4 10.1-3.54 2.75 10 37.7 3.86 0.0573-0.01 26.4-2.8 31.3 6.65 6.38 12.1-2.04 14.9-15.8 38-10.3 17.3-25.4 4.3-38.3-0.685s-35.4-4.34-33.6-29.4z" fill="#aa38f1"/>
  <path d="m384 33.7c-2.29 0.0529-6.38 0.495-12.3 1.33-2.49 0.353-14.1 10.9-34.8 31.6-5.47 5.47-8.16 13.5-8.06 24.1 0.0253 2.73 39.2 13.4 66.8 9.52 0.15 0.215 0.291 0.435 0.445 0.648 3.33 4.61 15.2 5.89 35.7 3.86 11-1.09 17.9-6.98 20.7-17.7 1.53-5.74-11.2-16.9-38.1-33.6-9.07-3.68-22.9-20-30.4-19.8z" fill="#aa0016"/>
  <path d="m88.7 172q7-0.204 17 13.6 10.1 14 8.8 19.2-1.36 5.23-9.8 11.8-8.54 6.66-33-1.48-24.7-8.23-7.45-25.5 17.5-17.5 24.4-17.7z" fill="#1c557e"/>
  <path d="m210 53.9c-5.2 3.92-20.6 17.7-22.3 22.4-7.65 29.9-32.6 36.5-52.5 54.5-6.72-1.35-11.1-0.33-13.3 3.07-14.4 23.1-20.8 35.8-19.1 38.2 11.7 16.2 19.8 23.3 24.2 21.4 30.2-13.1 45.2-19.8 45.2-20.1 3.29-7.66 8.37-10.7 13-15.2 9.35-9.21 24.2-18.3 31.3-26.4 3.95-1.73 6.9-4.98 8.85-9.76 12.5-30.7 16.8-47.4 12.8-50-18.7-12.1-28.1-18.2-28.4-18z" fill="#4b2fc3"/>
  <path d="m304 45.5q18.2 31 18.2 35.4 0.146 15.7-0.299 16.3-1.59 2.14-13.8-1.96-43.6-14.7-44.7-15.7-3.69-3.62 4.86-12.2 30.6-30.6 35.7-21.9z" fill="#8e1c3e"/>
 </g>
</svg>
