<?xml version="1.0" encoding="UTF-8"?>
<svg width="512px" height="512px" contentScriptType="text/ecmascript" contentStyleType="text/css" version="1.1" viewBox="0 0 512 512" xmlns="http://www.w3.org/2000/svg">
 <g class="voronoi" stroke-width=".5">
  <path d="m-13.2 126 13.2 3.6s4.9 1.36 6.31 6.37c1.98 7.04-6.31 13.7-6.31 13.7l-10.9 11.6-25.6 20.8-12.6-8.24-3.62-33.7z" fill="#e3388e"/>
  <path d="m27.9 427c22.4-2.28 49.7 2.24 56.2 23 4.6 14.6-16.5 10.7-30 18-15.9 8.69-37.1 33.3-46.9 18-7.76-12.1 10.6-23.9 14.4-36.3 2.69-8.78-2.85-21.8 6.28-22.7z" fill="#00c7e4"/>
  <path d="m4.93 27.5c0.0781-7.17 6.66-15.1 13.7-16.6 13-2.79 25.8 4.63 33.1 15.8 5.6 8.59 9.63 24.6 1.38 30.7-10.2 7.53-22.8-3.45-33.1-10.8-6.57-4.72-15.1-11-15-19.1z" fill="#00009c"/>
  <path d="m-32 187 32 13.5s12.5 7.48 14.4 12.5c3.7 9.57-12.6 21.7-12.6 21.7l-42.8-5.79-1.28-33.1z" fill="#e355c7"/>
  <path d="m122 16.8c-5.37 2.31-11.6 13.2-11.6 13.2-14.7 12.4-35 18.6-46.8 30.1-8.12 8.12-13.6 18.1-16.5 30-2.83 11.6 7.1 17.7 29.8 18.4 8.98 0.254 15.7-2.4 21.6-3.68 17.6-3.79 18.6 9.15 28.3 12.6 4.85 1.7 3.24 3.75 14.9 3.9 13.3 0.175 21.7-0.851 25.2-3.08 3.97-2.53 7.3-9.76 9.98-21.7 1.69-18.2 3.34-38.3-4.66-54.8-5.09-10.5-10-19.5-25.5-23.9-7.91-2.26-17.1-4.18-24.7-0.928z" fill="#2f1393"/>
  <path d="m-41.1 70.8 11-5.22 42.6 33.1s7.44 9.21 2.41 15.4c-4.09 5.03-14.9 5.82-14.9 5.82l-31.6-2.72-23.3-10.1 3-20.3z" fill="#e31caf"/>
  <path d="m-12.9 332 24.8 6.79s27.4 11.8 32.6 24.3c3.35 8.19-4.43 19.7-12.3 23.8-11 5.75-25.2-13.8-25.2-13.8l-7.06-14.6z" fill="#00aa73"/>
  <path d="m141 479c14.9-0.512 52.5 11.4 42.5 17.4-6.68 4.02-16.2 15.6-16.2 15.6l-9.94 11.9-28.6-3.55 1.37-8.35s-0.581-13.4 1.61-19.5c1.83-5.13 5.87-13.3 9.25-13.5z" fill="#38e3df"/>
  <path d="m-18 59.4 18-9.57s8-3.51 11.9-2.89c25.8 7.21 45.6 43.5 23 63.7l-11.2-7.47-23.7-24.9z" fill="#001c34"/>
  <path d="m-51.9 233 28.5 6.35 24.1 34-4.08 27.9-25.6-18.4-20.7-34.8z" fill="#e37192"/>
  <path d="m86.9-50 14.6-13.7 19.3 17.6 5.01 36.9-4.68 9.17s-6.22 11.1-11.7 11.6c-6.69 0.567-16.5-11.6-16.5-11.6l-12.5-9.53z" fill="#1ce39d"/>
  <path d="m16.2 134c1.16-5.52 3.48-16.2 10.1-19 3.34-1.42 10.5 2.98 10.5 2.98l36 45.8s-1.62 14.3-12.5 24.9c-1.56 1.52-8.71 12-10 10.3-8.66-11.1-11-36.3-21.2-51.9-3.34-5.09-13.6-9.07-12.8-13z" fill="#0038dc"/>
  <path d="m144-36 38.5 18.1-15 17.9s-5.14 10-9.94 11.9c-8.93 3.52-20.2 4.56-25.9-3.13-1.69-2.26-1.28-8.77-1.28-8.77l5.04-30.8z" fill="#38e3df"/>
  <path d="m74.6 277c-1.73-0.0473-3.54 0.0196-5.43 0.199-8.22 0.781-23.8-1.92-29.9 2.82-9.77 7.57-24.1 12.4-33 22.5l-11.3 12.7 5.03 10.6 1.68 3.53 90.7 2.35c8.53 3 14.5 3.35 18 1 1.9-1.3-1.77-14-11-38-4.41-11.4-12.7-17.3-24.8-17.7z" fill="#008ebf"/>
  <path d="m-54.2 475 39.9 3.59 14.3 11.6s21.2 8.4 29.9 4.92c5.24-2.08-7.72 15.1-7.72 15.1l-17.3 17.4-55.1-29.8z" fill="#e3e3c9"/>
  <path d="m29.9 0.189 0.149-0.189 2.32-2.94 20.7-20 11.7 3.96 16.6 19s11.4 7.54 12.3 18.7c0.284 3.72 0.176 7.35-3.44 11.5-4.26 4.9-3.48 5.74-12.2 2.75-17.1-5.89-48.1-32.8-48.1-32.8z" fill="#1c0024"/>
  <path d="m18.2 150c6.6-4.78 30.5 41.6 18 57.2-2.95 3.64-14-1.31-14-1.31l-42.8-27.2 20.6-15.4z" fill="#005528"/>
  <path d="m-32.7 343 10.8-5.21 21.9 33.9s9.61 11.6 16.6 17c5.21 3.99 22 4.14 19.6 11.5-3.89 11.8-36.3 15.1-36.3 15.1l-40.3 6.18-12.9 1.37 13.5-62.4z" fill="#e3aac9"/>
  <path d="m86.9 462 14.6-13.7 19.3 17.6 5.01 36.9-12.6 24.7-32.7-25z" fill="#1ce39d"/>
  <path d="m-54.2-37.1 39.9 3.59 31.6 25.6 4.85 5.94-17.3 17.4-55.1-29.8z" fill="#e3e3c9"/>
  <path d="m13.6 232c4.02-6.65 7.68-18.7 16.2-16.8 8.66 1.99 14.2 24.2 14.2 24.2s5.9 18 3.25 25c-3.42 8.98-13.1 15-22.1 16-6.92 0.718-17.7-13.8-20.9-19.9-6.28-12 4.31-19.9 9.48-28.4z" fill="#007170"/>
  <path d="m-52.4 429 52.4-6.99c6.87-0.0632 7.08 4.14 13.9 5.54s6.97 8.35 3.92 16.3c-3.73 9.68-17.8 23.9-17.8 23.9l-5.6 5.73-46.2-7.54-1.61-33.9z" fill="#e3c7ec"/>
  <path d="m29.9 512 0.149-0.189s-0.0122-2.87 0.544-4.15c4.55-10.5 10.8-23.4 21.8-26.4 6.77-1.84 19.9 4.37 19.3 8.44-1.63 11.1 9.71 22.1 9.71 22.1l22.1 25.3-6 9.46-27.5 2.24z" fill="#1c0024"/>
  <path d="m209 192c8.4 0.605 14.4 4.74 18 12.4 1.83 3.85 2 9.65 0.525 17.4-0.747 3.91 2.02 53.5-18.8 66-10.5 6.33-29.7-1.23-33.7-15.5-2.01-7.2-1.54-56 4.44-70.8 3.01-7.47 12.8-10.6 29.5-9.43z" fill="#5555a5"/>
  <path d="m57.6 348c2.3-4.47 21.8-5.86 26.1-8.8 1.11-0.759 16 0.859 23.9 1.87 9.81 1.25 21.3-0.696 29.2 5.17 12 8.87 15.8 24.3 20.5 39.9 1.22 4.02-22.8 13.8-33.5 21.7-11.7 8.58-10.9 19.3-33.5 27.7-5.85 2.18-38.5-16.5-48.1-36.6-2.49-5.21 6.56-33.7 15.4-50.9z" fill="#38aac3"/>
  <path d="m125 207c26.2 12.7 14.3 6.68 31.4 20 17.1 13.4 12.3 14.5 13.7 23.4 0.792 5.11-2.45 15.5-3.41 15.1-34.6-13.3-51.9-20-51.9-20.3-1.57-9.33-2.25-14.2-2.04-14.7 7.47-16.1 11.6-23.9 12.3-23.6z" fill="#387112"/>
  <path d="m42.2 115q0.953-0.952 32.4-0.062 35.9 1.02 39.5 5.11 4.1 4.67-2.21 23.9-7.2 21.9-18.3 22.3-12.7 0.368-31.1-23.3-21.1-27-20.3-27.9z" fill="#1c3877"/>
  <path d="m138 411c11.1-4.13 20.2 1.36 27.2 16.5 4.49 9.68 3.86 32.3-7.76 44-7.44 7.44-14.4 3.78-21.7 1.36-7.34-2.42-7-5.93-19-17.5-7.68-7.39-10.1-15.9-7.37-25.5 1.77-6.13 11.3-12.4 28.7-18.9z" fill="#38c798"/>
  <path d="m42.4 212c0.201-0.2 5.66-3.15 8.61-2.63 3.65 0.652 2.76 2.66 8.87 6.73 30.3 10.1 45.7 16.3 46.1 18.7 1.21 7.24 0.419 12.7-2.37 16.3-8.5 11.1-15.6 16.9-21.4 17.4-17.6 1.67-27.5-2.36-29.7-12.1-6.8-29.6-10.2-44.4-10.1-44.5z" fill="#1c7145"/>
  <path d="m179 288c-8.21-0.222-15.3 4.99-21.1 15.6-10.2 18.4-17.9 34.1-13.1 40.1 8.31 10.3 13.9 34.9 24.9 38.2 15.4 3.18 39.3 0.201 43.6-9.67 11.3-13.5 8.12-35.7 6.47-51.2-0.446-4.18-6.14-12.3-22.3-24.9-6.71-5.24-12.9-7.94-18.5-8.09z" fill="#559c8f"/>
  <path d="m142 127q18.5 0.245 20.1 25.3 1.53 24.6-18.4 31-19.5 6.3-26.9-4.67-7.25-10.8-0.431-31.5 6.69-20.4 25.6-20.1z" fill="#383880"/>
  <path d="m163 396c4.49-7.67 10.3-10.8 17.4-9.3 17.2 3.55 26.7 6.52 28.6 8.9 4.5 5.76 6.53 12.1 6.08 19-1.08 16.8 1.65 34-5.37 33.6-17-0.849-28.6 9.87-31.9 2.61-8.13-17.5-16.6-51.7-14.7-54.9z" fill="#55c74f"/>
  <path d="m168 127c2.29-8.04 18-52.5 32.6-47 15.9 6.02 20.5 35 24.2 50.1 3.78 15.1 1.07 25.9 2.47 33.8 1.46 8.11-1.11 18.9-8.01 23.4-10.2 6.65-35.8-2.7-36.3-2.99-8.41-4.87-10.3-5.27-12.8-10.1-7.2-14-6.69-31.4-2.19-47.2z" fill="#553819"/>
  <path d="m109 258q5.48-7.13 41.6 6.69 17.2 6.6 17.4 8.34 0.103 0.828-20.3 37.7-9.73 17.6-22.6 17.8-6.15 0.104-20.7-37.6-6.93-18 4.54-32.9z" fill="#388ea8"/>
  <path d="m126 195q0.128-0.981 35.2-12.3 4.31-1.39 16.2 5.51 1.46 0.846-10.6 30.7-1.48 3.66-37.5-13.8-4.42-2.14-3.38-10.1z" fill="#3855d9"/>
  <path d="m94.2 172q11.9-0.348 19.2 10.5 7.37 10.9 6.78 15.4-0.589 4.52-6.3 16.8-5.78 12.5-35.8 2.47-30.4-10.1-13.1-27.4 17.5-17.5 29.3-17.8z" fill="#1c55cf"/>
 </g>
</svg>
