<?xml version="1.0" encoding="UTF-8"?>
<svg width="512px" height="512px" contentScriptType="text/ecmascript" contentStyleType="text/css" version="1.1" viewBox="0 0 512 512" xmlns="http://www.w3.org/2000/svg">
 <g class="voronoi" stroke-width=".5">
  <path d="m110 12.5c-5.37 2.31 0.332 11.7 0.952 17.5 0.632 5.93 2.81 17.7 2.81 17.7 5.86 36.8 3.32 24.6 4.65 36.9 1.33 12.3-0.419 28.7 1.28 30.6 1.93 2.2 9.84 4.05 23.7 5.53 15.8 1.68 24.6 1.57 26.4-0.336 2.05-2.17 4.51-9.64 7.38-22.4 5.25-17.1 8.06-13.5 9.94-33.4 0 0 5.67-16.1 2.14-22.8-7.44-14.3-26.5-19.5-42-23.9-7.91-2.26-29.6-8.53-37.2-5.28z" fill="#380e9d"/>
  <path d="m-13.2 126 13.2 3.6s8.73 0.702 10.1 5.71c1.98 7.04-10.1 14.4-10.1 14.4l-10.9 11.6-25.6 20.8-12.6-8.24-3.62-33.7z" fill="#e3388e"/>
  <path d="m94.7 379c-6.35-0.013-15.6 0.61-27.8 1.87-6.2 0.641-16.4 8.1-30.7 22.4-3.64 3.64-5.99 7.41-7.07 11.3-2.01 5.7 1.64 14.8 0.643 35l21.7 32.9 9.71-3.23c9.71-8.86 28.1-23.3 37.1-38.8 6.19-10.6 3.8-11.9 10.6-35.4 1.73-5.99 0.468-14-3.79-24.1-0.542-1.28-3.99-1.93-10.3-1.95z" fill="#0ec78f"/>
  <path d="m18.6 10.9c-7.01 1.5-13.6 9.44-13.7 16.6-0.0879 8.08 15 19.1 15 19.1 23.4 29.7 12.9 34.6 23.7 49.7 6.95 9.65 10.8 11.6 33.5 12.3 22.2 0.629 33.6-7.8 34.3-25.3 0.617-17.1-0.839-28.5-4.37-34.3-3.45-5.61-9.48-2.38-18.1-4.78-22.6-6.32-22.4-1.26-34.6-15.6 0 0-22.8-20.5-35.8-17.7z" fill="#0e0e8d"/>
  <path d="m-32 187 32 13.5s12 5.35 13.9 10.3c3.7 9.57-12.1 23.8-12.1 23.8l-42.8-5.79-1.28-33.1z" fill="#e355c7"/>
  <path d="m33.1 462c9.15 5.35 13.4 21.8 7.76 30.8-4.37 7.02-17.1 9.27-24.3 5.18-8.83-5.03-14.5-19.9-9.74-28.9 4.26-8 18.4-11.7 26.2-7.15z" fill="#00e358"/>
  <path d="m-41.1 70.8 11-5.22 42.6 33.1s12.8 10.6 7.76 16.8c-4.09 5.03-20.2 4.43-20.2 4.43l-31.6-2.72-23.3-10.1 3-20.3z" fill="#e31caf"/>
  <path d="m-12.9 332 24.8 6.79s27.4 11.8 32.6 24.3c3.35 8.19 3.79 22.1-4.04 26.2-11 5.75-33.4-16.2-33.4-16.2l-7.06-14.6z" fill="#00aa73"/>
  <path d="m144 476c14.1-0.741 38.5 18.1 38.5 18.1l-24.9 29.8-28.6-3.55 6.41-39.1s5.3-5.07 8.68-5.25z" fill="#38e3df"/>
  <path d="m-18 59.4 18-9.57s7.27-1.67 11-0.541c14.6 4.39 16.2 20.8 21.2 35.2 2.76 7.83 4.46 24.5 4.46 24.5l-1.82 1.62-11.2-7.47-23.7-24.9z" fill="#001c34"/>
  <path d="m-51.9 233 28.5 6.35 24.1 34-4.08 27.9-25.6-18.4-20.7-34.8z" fill="#e37192"/>
  <path d="m187 445 20.1 0.708c20.3 24.6 4.13 17.7-14.8 41.5-9.15 11.5-18.9-1.78-26.3-7.07-4.57-3.28-14.1-5.97-13.1-11.5 2.3-12.1 34.1-23.7 34.1-23.7z" fill="#55e345"/>
  <path d="m86.9-50 14.6-13.7 19.3 17.6 5.01 36.9-4.68 9.17s-7.59 6.64-13.2 7.92c-8.29 1.88-14.9-7.92-14.9-7.92l-12.5-9.53z" fill="#1ce39d"/>
  <path d="m51.8 132c-6.93-7.11-11.4-13.6-18.8-12.9-5.61 0.506-10.8 6.5-11.1 12.1-0.677 12-16 24.2-22 32.1l-20.6 15.4 42.8 27.2 14 1.31 3.55-4.38 0.0352 0.123 5.31-3.8 27.7-36.2s-14-23.9-20.9-31z" fill="#005528"/>
  <path d="m144-36 38.5 18.1-15 17.9s-7.62 9.34-12.4 11.2c-8.93 3.52-18.4 4.96-23.7-2.01-1.71-2.25-1.07-9.22-1.07-9.22l5.04-30.8z" fill="#38e3df"/>
  <path d="m-5.02 315 11.3-12.7s16.9-10.8 25.7-8.73c12.8 3.03 25.6 17 27.6 28.1 1.64 9.35-8.51 17.7-16.7 20.3-13.9 4.4-41.1-12.8-41.1-12.8l-1.68-3.53z" fill="#008ebf"/>
  <path d="m-54.2 475 39.9 3.59 31.6 25.6 4.85 5.94-17.3 17.4-55.1-29.8z" fill="#e3e3c9"/>
  <path d="m29.9 0.189 0.149-0.189 2.32-2.94 20.7-20 11.7 3.96 16.6 19s18.6 16.7 19.5 27.8c0.284 3.72-3.43 6.93-3.43 6.93s-17.4 3.71-26.1 0.714c-17.1-5.89-41.5-35.3-41.5-35.3z" fill="#1c0024"/>
  <path d="m-32.7 343 10.8-5.21 36.2 56s7.55 8.83 4.16 14.2c-3.57 5.71-18.5 7.12-18.5 7.12l-40.3 6.18-12.9 1.37 13.5-62.4z" fill="#e3aac9"/>
  <path d="m86.9 462c3.12-5.89 7.9-13.7 14.6-13.7 8.71-0.061 19.3 17.6 19.3 17.6l5.01 36.9-12.6 24.7-32.7-25s0.0534-28.4 6.45-40.5z" fill="#1ce39d"/>
  <path d="m-54.2-37.1 39.9 3.59 31.6 25.6 4.85 5.94-17.3 17.4-55.1-29.8z" fill="#e3e3c9"/>
  <path d="m13.6 232-7.62 39.9 20.3 16.8 46.3-21.1c5.49-2.5 13.3 0.45 22-0.375 8.43-0.802 13.1-6.19 13.9-16.2 0.273-3.28 1.2-12.1-2.28-16.3-10.9-13.3-18.5-7.03-48.7-17.1-26.3-8.74-37.4-19.9-43.9 14.3z" fill="#0e715b"/>
  <path d="m-52.4 429 71-9.47 2.17 0.445 0.978 25.5-27.4 28-46.2-7.54-1.61-33.9z" fill="#e3c7ec"/>
  <path d="m29.9 512 0.149-0.189 2.32-2.94 20.7-20 11.7 3.96 38.6 44.3-6 9.46-27.5 2.24z" fill="#1c0024"/>
  <path d="m319 103q2.17 0.729 6.1 7.18 0.136 0.224-50.6 37.4-1.76 1.29-23.2-16.9-0.744-0.631 5.12-47.1 0.204-1.61 62.6 19.4z" fill="#711cea"/>
  <path d="m42.1 115q0.952-0.953 32.4-0.062 35.9 1.02 38.4 3.92 2.91 3.31-3.94 23.8-7.81 23.3-17.3 23.6-10.9 0.315-29.3-23.4-21.1-27-20.3-27.9z" fill="#1c3877"/>
  <path d="m193 256q2.06-8.31 18.5-10.3 27-3.24 30.2-0.709 5.2 4.18 11.8 18.1 10.9 22.9 5.77 25.3-8.54 3.93-26.9-0.152-30.3-6.73-34.2-14.4-6.37-12.7-5.12-17.7z" fill="#557163"/>
  <path d="m141 404q14.7 2.78 24.6 24 6.32 13.6-11.1 31-11.2 11.2-16.4 12.4-3.36 0.795-21.4-16.5-11.5-11.1-3.72-38.1 4.99-17.3 28-12.9z" fill="#38c798"/>
  <path d="m191 190q6.46-0.7 26.6 5.83 16.4 5.33 17.6 25.7 0.951 16.6-23 19.5-19.5 2.34-23.9-7.14-3.58-7.74-4.47-27.1-0.729-15.8 7.19-16.7z" fill="#55558b"/>
  <path d="m121 341q9.27-11.6 17.3-10.5 36 4.69 39.4 7.59 15.3 13.1 15.3 14.4-0.06 6.25-1.28 10.2-5.5 17.8-10.7 21-23.5 14.6-30.4 13.3-30.9-5.83-32.3-9.29-6.55-15.5-5.24-20.7 5.9-23.4 7.96-26z" fill="#38aa36"/>
  <path d="m298 137q30.9-22.7 34.1-21.2 4.54 2.08 12.1 26.1 10.8 34.4 7.81 36.9-4.25 3.54-32.8-4.57-40.9-11.6-41.7-15.6-1.11-5.73 20.5-21.5z" fill="#8e386b"/>
  <path d="m161 190q12.5-2.19 15.1-0.091 0.903 0.735 2.1 26.8 0.42 9.12-46 22.8-16.2 4.77-18.9-6.46-0.926-3.93 8.58-28.3 3.32-8.51 39.1-14.8z" fill="#3855b6"/>
  <path d="m259 297q8.72-4.02 10.6-3.58 3.3 0.757 8.05 26.5 8.29 44.9 6.2 48.7-3.65 6.55-23-6.22-33.8-22.3-24-37.1 17.1-25.9 22.1-28.2z" fill="#718e60"/>
  <path d="m71.2 329q40.2 14.5 39.6 17-6.58 26.1-10.6 26.5-41.8 4.32-43.1 2.07-13.3-23.5-11.2-25.5 21.4-21.4 25.3-20z" fill="#1caa20"/>
  <path d="m206 58.5q3.58-3.58 5.39-4.32 0.392-0.162 32.2 20.6 6.9 4.49 7.02 4.78 0.027 0.062-4.96 39.6-1.08 8.56-2.13 8.8-0.227 0.053-52.1-9.78-11.2-2.13-3.66-35.8 1.64-7.29 18.2-23.8z" fill="#551cc9"/>
  <path d="m273 179q3.69-11.7 23.7-6 49.4 14 43.8 25.4-13.8 28.1-15.1 28.8-3.27 1.9-13.2-3.3-24.5-12.8-29.1-20.7-11.5-19.5-10-24.2z" fill="#8e554f"/>
  <path d="m180 230c-11.3-4.13-40.7 12.1-62.1 17.9-6.3 1.72-3.3 13-2.37 19.5 0.847 5.91 5.04 10.8 7.08 16.5 2.63 7.26 4.79 7.64 6.62 22.2 1.63 11.3 10.4 18 26.4 20.1 13.3 1.74 23.6-5.41 31-21.4 6.1-13.3 3.47-20.7 3.56-31.1-0.193-18.2 3.78-38.4-10.2-43.6z" fill="#388044"/>
  <path d="m202 353q7e-3 -0.754 20.9-8.34 2.29-0.83 50.2 30.8 5.24 3.46 4.98 6.38-0.03 0.319-29.4 8.82-3.21 0.931-42.5-27.6-4.3-3.13-4.24-10z" fill="#71aadb"/>
  <path d="m246 135q0.749-0.175 9.91 7.6 13 11 13.8 15.1 1.1 5.71-1.04 12.5-3.04 9.65-14.4 16.1-16.1 9.22-31.2 4.32-21.4-6.96-3.26-27 25.8-28.5 26.3-28.6z" fill="#71386b"/>
  <path d="m91.9 172q10.2-0.298 19.1 10.9 9.01 11.3 2.63 27.6-6.45 16.5-36.4 6.55-30.3-10.1-13-27.3 17.5-17.5 27.6-17.7z" fill="#1c557e"/>
  <path d="m235 295q13.9 3.08-5.37 32.2-7.66 11.6-24.3 17.6-6.61 2.4-20-9.02-5.33-4.54 9.07-36 5.73-12.5 40.6-4.8z" fill="#558eb0"/>
  <path d="m176 124q1.48-1.56 48.4 7.35 16.1 3.06-16.6 39.2-11.2 12.4-21.9 13.6-3.67 0.398-6.27-1.71-0.891-0.724-6.14-40.3-1.8-13.6 2.5-18.1z" fill="#5538b7"/>
  <path d="m161 128q5.46 0.582 11.6 47.2 0.864 6.51-41.5 13.9-5.92 1.04-21.6-18.7-2.2-2.76 10.7-41.2 1.8-5.37 40.8-1.21z" fill="#3838d6"/>
  <path d="m293 220q27.4 14.3 26.5 16.2-3.48 7.37-9.87 15.5-25 31.6-26.8 32.2-7.3 2.34-8.36 2.1-4.14-0.948-7.72-8.44-14-29.3-7.21-35.8 26.5-25.4 33.5-21.7z" fill="#71713b"/>
  <path d="m49.7 286q8.21-8.21 26.2-9.92 33.1-3.15 36.6 1.63 6.26 8.8 8.16 22 3.48 24.2-0.51 29.2-7.34 9.17-22.9 3.58-28.5-10.3-36.8-21.5-15.2-20.6-10.8-25z" fill="#1c8e5d"/>
  <path d="m170 399q20.3-12.6 27.6-2.71 17.5 23.9 17.1 30-0.943 14.7-11.5 14.1-25.4-1.27-30.2-11.5-11.4-24.7-3.04-29.9z" fill="#55c74f"/>
  <path d="m262 188q4.47-2.55 18.1 20.4 2.64 4.45-25.2 31.2-5.4 5.18-12.4-0.436-1.36-1.09-3.13-32-0.344-5.99 22.7-19.2z" fill="#7155cc"/>
  <path d="m194 379q5.29-17.1 14.6-10.3 34.3 24.9 28.8 30-20.1 18.7-25.4 11.5-19.5-26.6-18-31.2z" fill="#55aa3d"/>
 </g>
</svg>
