<?xml version="1.0" encoding="UTF-8"?>
<svg width="512px" height="512px" contentScriptType="text/ecmascript" contentStyleType="text/css" version="1.1" viewBox="0 0 512 512" xmlns="http://www.w3.org/2000/svg">
 <g class="voronoi" stroke-width=".5">
  <path d="m458-37.1 39.9 3.59 31.6 25.6 4.85 5.94-17.3 17.4-55.1-29.8z" fill="#e3e3c9"/>
  <path d="m-13.2 126 28.2 7.71-26 27.6-25.6 20.8-12.6-8.24-3.62-33.7z" fill="#e3388e"/>
  <path d="m27.5 423c-8.88-0.721 2.3 26.6 2.3 26.6s-14.3 7.77-17 17.3c-2.76 9.77-3.58 34.2 11.2 27.8 14.8-6.37 18.1-11.3 33.3-16.4 12.8-4.25 29.9-16.6 23.9-30.7-4.53-10.6-40.7-23.6-53.7-24.6z" fill="#00d59e"/>
  <path d="m18.6 10.9c-7.15 0.59-13.7 16.6-13.7 16.6l-4.93 22.4-18 9.57 41.8 43.7 11.2 7.47 1.82-1.62s19.4-32 19-49.7c-0.194-9.33-11.1-25.7-11.1-25.7s-14.6-23.7-26.1-22.7z" fill="#001c34"/>
  <path d="m445-14.3 30.2 14 0.43 0.334 34.6 26.9s-7.21 11.4-11.8 16.3c-5.62 5.96-10.9 16.8-19 15.6-11.6-1.79-14.1-18.9-19.3-29.5-4.56-9.27-10.2-29.3-10.2-29.3z" fill="#e3006f"/>
  <path d="m-32 187 32 13.5s13.1 8.2 15 13.2c3.7 9.57-13.2 21-13.2 21l-42.8-5.79-1.28-33.1z" fill="#e355c7"/>
  <path d="m318-32.9 34.7 13.3-17.3 19.5s-12.9 18.1-22.7 22c-2.1 0.841-7.22 2.17-6.79-0.0588 1.65-8.66 2.72-21.9 2.72-21.9l1.18-28z" fill="#8ee3e0"/>
  <path d="m122 16.8c-5.37 2.31-9.9 7.58-11.6 13.2-5.08 16.9 7.78 37.2 7.3 52.6-0.633 17.5 7.48 28.6 24.3 33.1 19.2 5.13 30.4 0.192 33.8-14.8 1.83-19.8 21.1-40.7 12.9-59.1-6.57-14.7-42-23.9-42-23.9s-17.1-4.18-24.7-0.928z" fill="#380e9d"/>
  <path d="m-41.1 70.8 11-5.22 42.6 33.1 6.92 22.9-51-4.39-23.3-10.1 3-20.3z" fill="#e31caf"/>
  <path d="m533 148 16.4 59.2-1.36 0.59-14-1.31-22.2-14.1s-12.1-4.42-12.4-12.6c-0.326-8.58 12.4-16 12.4-16z" fill="#005528"/>
  <path d="m15.5 336-15.5-0.633-12.9-3.52 12.9 26.5s6.32 10.8 10.8 13.7c14 9.06 43.7 8.59 43.7 8.59 2.11 1.2 32.5-3.06 40.9-14.9 4.89-6.84 3.14-4.18 0.471-25.2-20.9-21.2-53.4-8.54-80.5-4.62z" fill="#00aa73"/>
  <path d="m153 479c7.81 0.317 5.96 3.97 10.2 10.6 4.09 6.37 4.43 22.3 4.43 22.3l-9.94 11.9-28.6-3.55 1.37-8.35s3.91-22.2 9.73-30.8c1.89-2.8 9.44-2.21 12.8-2.07z" fill="#38e3df"/>
  <path d="m195-13 28 5.11-0.229 7.92-0.196 6.79s-0.287 34.6-13.3 39.9c-9.27 3.75-39.5-26.4-41.9-31.7-2.86-6.21 12.3-15 12.3-15z" fill="#550029"/>
  <path d="m471 70.8c4.74-3.55 9.83-7.34 16.9-5.37 10.6 2.96 24.2 23.6 24.2 23.6l12.5 9.69 6.92 22.9-51-4.39s-19.2-2.73-23.3-10.1c-3.32-5.98 3-20.3 3-20.3s5.62-12.1 10.8-16z" fill="#e31caf"/>
  <path d="m-51.9 233 28.5 6.35 24.1 34-4.08 27.9-25.6-18.4-20.7-34.8z" fill="#e37192"/>
  <path d="m187 445s12.8-5.1 21.2 1.69c15.5 10.9-14.5 45-27.6 41.4-9.58-5.09-20.6-9.34-19.9-20.2 0.825-12.3 26.3-23 26.3-23z" fill="#55e345"/>
  <path d="m86.9-50 14.6-13.7 19.3 17.6 5.01 36.9-4.68 9.17s-1.28 16.6-7.65 18c-8.88 2.02-20.5-18-20.5-18l-12.5-9.53z" fill="#1ce39d"/>
  <path d="m361-16.4-35.5 34.2 0.582 0.17c-5.24 6.19 2.46 63.7 2.58 76.1 0.0307 3.28 0.767 6.11 2.21 8.48 0.382 0.627 13.9-4.96 40.5-16.7 7.03-3.12 11.9-15.9 14.7-38.5-0.558-6.2-1.38-13.1-0.0293-19.5 1.86-8.72 11.3-15.5 10.9-24.4-0.0529-1.31-1.89-3.46-1.89-3.46l-11-11.5z" fill="#aa0016"/>
  <path d="m49.8 115c-5.15 0.0175-7.88 0.185-8.2 0.502l-7.88 4.25-11.8 12.1-22 32.1-20.6 15.4 42.8 27.2 14 1.31 3.59-4.26 51.8-37.1c2.66-0.366 4.71-1.06 6.13-2.09 1.75-1.28 3.74-10.1 5.98-26.5 1.96-14.4-8.44-21.9-31.2-22.5-9.98-0.282-17.5-0.416-22.7-0.398z" fill="#005528"/>
  <path d="m498 128c4.55-0.174 13.9 1.83 13.9 1.83l15 4.11-26 27.6s-14.6 20.2-25.6 20.8c-5 0.258-9.92-3.98-12.6-8.24-7.35-11.8-13.7-30.6-5.04-41.5 8.37-10.6 26.3-4 40.2-4.54z" fill="#e3388e"/>
  <path d="m144-36 38.5 18.1-15 17.9s-5.14 10-9.94 11.9c-8.93 3.52-22.8 4.14-28.6-3.55-1.69-2.26 1.37-8.35 1.37-8.35l5.04-30.8z" fill="#38e3df"/>
  <path d="m393 31.5c-2.05-7.1 7.56-20.8 7.56-20.8l27.8-17.7 31.9 48.6s7.38 23.6-0.753 28.4c-15.6 9.33-33.4-14.9-48.8-24.7-6.34-4.01-15.7-6.59-17.8-13.8z" fill="#c700b4"/>
  <path d="m-5.02 315 5.02-5.68s4.79-4.57 7.4-6.31c7.52-5.01 19.1-7.18 27.5-4.71 8.29 2.44 13 4.95 12.3 16.2-0.383 5.85-5.15 10.6-8.7 13.1-11 7.96-36.8 1.44-36.8 1.44l-1.68-3.53z" fill="#008ebf"/>
  <path d="m-54.2 475 39.9 3.59 31.6 25.6 4.85 5.94-17.3 17.4-55.1-29.8z" fill="#e3e3c9"/>
  <path d="m238-35.6 35.3-15.2 27 15.5 0.782 35.2s0.0764 7.32-2.49 9.18c-6.58 4.78-24.4-1.19-24.4-1.19s-17.6 1.83-25.6-1.02c-3.66-1.3-9.35-6.97-9.35-6.97l-9.91-10.7z" fill="#71e3d0"/>
  <path d="m29.9 0.189 0.149-0.189 2.32-2.94 20.7-20 11.7 3.96 16.6 19c6.91 10 31.4 24.5 16.1 34.8-7.88 4.76-19.7 16.4-30.6 13.6-19.6-4.98-37-48.2-37-48.2z" fill="#1c0080"/>
  <path d="m-32.7 343 10.8-5.21 36.2 56 5.66 18.3-60.2 9.24-12.9 1.37 13.5-62.4z" fill="#e3aac9"/>
  <path d="m82.7 464c3.26-4.35 13.6-9.01 19-8.79 7.29 0.3 15 4.74 19.1 10.8 6.96 10.3 5.72 24.2 3.63 36.4-0.576 3.38-3.31 9.68-3.31 9.68l-7.9 15.5-20.3-15.5s-9.5-9.02-11.4-13.9c-5.07-12.7-6.08-24.5 1.23-34.2z" fill="#1ce39d"/>
  <path d="m-54.2-37.1 39.9 3.59 31.6 25.6 4.85 5.94-1.93 1.95s-6.91 11.9-12.9 14c-2.35 0.814-7.36-1.17-7.36-1.17l-50.2-27.1z" fill="#e3e3c9"/>
  <path d="m271 16.4c-12.7-2.8-27.9-4.94-38.8 1.97-12 7.6-9.64 28.2-20.3 37.6-9.31 3.39-22.6 17.8-25 27.6-5.92 26.4-8.76 39.8-8.5 40.3 1.2 2.5 5.62 3.43 13.3 2.8 35.3-2.91 29-3.88 39.9-12.6 10.6-8.48 12.5-24.2 20.5-35.2 12.9-17.8 44.8-37.2 44-49.3-0.577-9.42-15.8-11.2-25-13.2z" fill="#630eb1"/>
  <path d="m501 61.8c1.09-6.72 10.6-12 10.6-12l10.4-5.52 33.8 35.2-7.42 29.5-1.82 1.62-11.2-7.47-23.7-24.9s-12-7.92-10.6-16.5z" fill="#001c34"/>
  <path d="m13.6 232s-6.58 30.4-2 43.1c2.96 8.26 14.6 13.6 14.6 13.6s19.7 10.2 29 16.3c10.8 7.08 20.2 19.5 30.8 23.4 6.72 2.42 13.4-2.43 20.1-14.5 3.45-6.27 2.14-47.6-3.91-62.9 1.94-4.48 9.56-14.8 5.88-18.7-0.5-0.484-16.4-5.94-47.7-16.4-16.2-3.16-40.8-15.3-46.8 16z" fill="#137b5b"/>
  <path d="m-52.4 429 52.4-6.99s15.1-2.3 19.2 2.72c4.52 5.57 0.3 17.8-1.43 21.5l-17.8 21.5-5.6 5.73-46.2-7.54-1.61-33.9z" fill="#e3c7ec"/>
  <path d="m29.9 512 0.149-0.189 2.32-2.94s11.4-17.9 20.7-20c4.01-0.899 11.7 3.96 11.7 3.96l38.6 44.3-6 9.46-27.5 2.24z" fill="#1c0024"/>
  <path d="m68.4 65.1c8.29-8.29 12.6-18 21-20.4 8.61-2.42 14.6-0.829 18.1 4.78 3.53 5.73 5 16.7 4.41 33-0.601 16.7-1.46 25.4-2.56 26.2-1.13 0.795-12.3 0.894-33.4 0.296-21.6-0.611-26.3-3.73-23.5-15.3 2.89-11.9 7.88-20.5 16-28.6z" fill="#1c1c7e"/>
  <path d="m332 110q0.06-1.63 35.2-17.2 15.3-6.77 30 10.1 6.38 7.34-6.2 33.1-5.46 11.2-35.3 7.55-13-1.58-20.5-21.3-3.29-8.55-3.15-12.3z" fill="#aa38ac"/>
  <path d="m176 173q1.03-1.9 40.4 3.14 12.7 1.63 19.9 10.3 2.31 2.81 3.16 25.6 0.274 7.35-5.49 13.1-1.86 1.85-42.7 3-13.2 0.369-18.4-4.87-1.68-1.69-0.436-34 0.402-10.4 3.61-16.3z" fill="#5555ba"/>
  <path d="m123 380q51.8-31.9 53.2-27.7 12.1 35.2 9.18 37.4-24.8 18.1-29.1 16.7-36.6-12.3-36.9-13.4-2.43-9.17 3.64-12.9z" fill="#38aa24"/>
  <path d="m428 111q21.5-2.13 24.1 2.28 3.1 5.19 1.04 26.9-2.43 25.5-23.8 26.3-25.1 0.912-30.9-7.19-6.8-9.52 1.49-26.5 9.75-20 28-21.8z" fill="#c73876"/>
  <path d="m275 173q2.76-1.46 21 40.7 1.63 3.76-46.4 5.69-4.29 0.172-5.32-27.5-0.092-2.47 30.7-18.8z" fill="#7155df"/>
  <path d="m238 311c-8.1-24.2-55.8-13.6-59.6-4.48 2.95 19.8 1.82 38.4 7.37 54.8 5.49 16 11.3 25.6 17.5 28.9 9.65 5.06 15.9 6.55 18.8 4.47 4.55-3.25 8.56-9 12-17.3 5.41-12.9 5.23-14.1 6.07-21.5 1.69-14.9-2.4-38.7-2.16-44.8z" fill="#559c53"/>
  <path d="m282 134q44.6-17.2 46.7-11.6 8.74 22.7 8.26 23.6-1.96 3.79-12.2 6.75-41.9 12.1-44.2 6.89-9.41-21.5 1.48-25.6z" fill="#8e3839"/>
  <path d="m100 172q4.88-3.57 12.6-2.2 51.6 9.26 51.4 14.8-1.43 37.2-7.53 38.4-40.9 8.34-41.3 7.96-2.64-2.55-4.36-9.8-11.5-48.6-10.8-49.2z" fill="#38552a"/>
  <path d="m254 288c0.05-0.036 6.87 1 20.5 3.12 0.104 0.016 5.36 6.83 15.8 20.5-5.67 33.3-6.89 40.1-30.2 41.4-11.4 0.627-12-9.78-14.7-16.7-5.01-12.7-2.56-5.99-1.11-41 0.0113-0.269 3.3-2.72 9.87-7.35z" fill="#718ef0"/>
  <path d="m319 103c1.44 0.486 3.05 2.18 4.81 5.07 0.0613 0.1 0.028 1.88-0.1 5.35-5e-3 0.121-36.6 11.9-53.6 20.8-5.78 3.03-7.16-2.28-17.8-8.28-0.368-0.209-0.73-0.577-1.08-1.1-0.0127-0.018-3.63-34.4 8.63-34.2 17.3 0.253 17.5-1.61 59.1 12.4z" fill="#711cea"/>
  <path d="m343 149c-0.213-0.026-2.23 2.92-2.74 4.64-6.45 21.6-4.44 45-3.22 67.4 1.05 19.4 5.85 37.5 9.04 57.5 0.865 5.38 5.22 14.6 11.7 16.8 15.3 5.06 44.7-29.3 45.8-51.7 1.59-33.4 10.6-49.4-5.66-71.6 0.0713-0.252-6.19-14.1-12.4-17.9-12.2-7.4-14.2-1.86-42.6-5.3z" fill="#aa631a"/>
  <path d="m200 235q33.2-0.931 39.8 18 10.4 30.2 6.62 32.9-6.11 4.3-27.8 6.52-34.7 3.54-36.5-19.7-2.88-37.1 17.9-37.7z" fill="#557165"/>
  <path d="m143 408q16 5.38 23.9 22.5 5.1 11-12.3 28.4-11.2 11.2-16.4 12.4-3.36 0.796-21.4-16.5-11.5-11.1-3.74-38 4.98-17.2 29.9-8.85z" fill="#38c798"/>
  <path d="m412 58.2c26.9 16.6 42.8 23 41.3 28.8-2.84 10.7-8.89 16.5-18.1 17.4-17.2 1.71-28.3-0.253-33.2-5.9-9.14-10.5-13.1-20.7-11.9-30.7 2.28-18.5 7.46-18.5 21.9-9.6z" fill="#c71c5c"/>
  <path d="m242 121c5.3 3 26.2 23.1 30.2 32.3 3.77 8.6 3.86 8.53 2.33 12.5-2.16 5.59-2.75 4.71-14.3 10.9-10.8 5.75-17.9 6.64-21.1 2.67-3.05-3.71-5.56-16.1-0.319-31.1 4.9-14-7.95-21.6 3.22-27.2z" fill="#713883"/>
  <path d="m90.2 179c4.82-0.14 7.25 2.32 11.6 20.8 4.44 18.7-3.67 24.7-24.3 17.8-20.9-6.96-21-9.31-9.51-20.8 11.6-11.6 17.4-17.7 22.2-17.8z" fill="#1c557e"/>
  <path d="m200 132c29.8-2.45 22.3-1.28 29.2 2.58 5.67 3.19 5.13 10.5 2.02 19.4-7.03 20.1-6.5 18-17.1 16.6-24.1-3.09-35.9-7.93-35.4-14.5 1.06-15 8.17-23 21.3-24.1z" fill="#553853"/>
  <path d="m327 230q2.59-0.276 4.05 0.467 0.442 0.225 9.23 54.9 2.66 16.6-33.3 19.7-10.9 0.949-23-14.8-3.66-4.79 25.6-46.6 8.87-12.7 17.4-13.6z" fill="#8e71bc"/>
  <path d="m112 319q5.93-10.8 39.6-10.1 21 0.404 23.6 16.9 1.68 10.3-0.243 15-1.2 2.93-36.8 24.9-22.2 13.7-27.8 8.47-3.5-3.23-6.2-24.5-1.68-13.3 7.85-30.6z" fill="#388e9a"/>
  <path d="m282 170q0.182-0.745 20.3-6.57 32.1-9.27 29.8 17.1-3.55 42.1-7.84 42.5-6.84 0.73-12.9-2.15-9.67-4.59-17.3-22.3-12.2-28.2-12.1-28.7z" fill="#8e5565"/>
  <path d="m118 257c6.5-13.7 5.78-20.1 17.4-22.4 19.8-4.03 30.5-5.19 32.2-3.48 2.9 2.92 4.92 11.8 6.08 26.7 1.97 25.4 2.52 38.9 1.65 40.4-1.49 2.62-8.96 3.8-22.4 3.54-23-0.444-27.2-4.99-31.1-12.5-6.69-12.8-7.57-24.2-3.76-32.2z" fill="#387161"/>
  <path d="m36.7 403q21.4-21.4 29.9-22.3 33.4-3.46 35.3-1.75 7.26 6.71 7.81 8.79 2.17 8.16-0.426 17.1-10.2 35.2-10.6 35.3-1.56 0.465-15.3-4.44-53.8-19.3-53.9-19.4-0.348-0.552 0.063-2.04 1.61-5.86 7.07-11.3z" fill="#1cc73b"/>
  <path d="m316 30.8c5.44 23.8 5.95 47 5.99 50.5 0.114 12.3-4.52 16.8-13.9 13.7-33.6-11.3-43.6-9.22-44.8-15.8-1.25-6.37 2.32-4.24 8.32-10.2 21.5-21.5 41.1-43.9 44.4-38.1z" fill="#8e1c3e"/>
  <path d="m115 115q2.21-1.55 20.7 3.41 35.5 9.5 36.2 11.1 1.44 2.99 0.65 14.1-1.5 21.3-2.96 23.9-2.78 5.12-23.1 1.47-39-6.99-36.8-22.8 4.14-30.3 5.3-31.1z" fill="#38385b"/>
  <path d="m428 173c15.6-0.565 25.7 1.84 30.4 7.2 4.74 5.43 5.62 14.4 2.63 26.8-3.02 12.6-5.19 19.5-6.5 20.9-1.33 1.33-9 3.8-23 7.41-14.1 3.65-13.8 2.09-20.3-3.26-6.61-5.4-2.79-15.1 1.96-32 4.8-17-0.533-26.5 14.9-27.1z" fill="#c7557e"/>
  <path d="m241 229q5.31-5.29 21.2-5.92 36.5-1.46 41.2 0.802 11 5.2-0.586 21.7-26.6 38-32.8 37.1-14.3-2.23-19.5-17.1-11.8-34.3-9.52-36.5z" fill="#717152"/>
  <path d="m173 405q19.6-14.3 26.6-10.7 16.8 8.8 16.1 19.9-1.72 26.7-12.3 26.2-25.4-1.27-29.3-9.52-9.24-19.9-1.12-25.9z" fill="#55c74f"/>
 </g>
</svg>
