<?xml version="1.0" encoding="UTF-8"?>
<svg width="512px" height="512px" contentScriptType="text/ecmascript" contentStyleType="text/css" version="1.1" viewBox="0 0 512 512" xmlns="http://www.w3.org/2000/svg">
 <g class="voronoi" stroke-width=".5">
  <path d="m458-37.1 39.9 3.59 31.6 25.6 4.85 5.94-17.3 17.4-55.1-29.8z" fill="#e3e3c9"/>
  <path d="m303 25.7 3.17-4.14 11.2 0.316s35.5 0.278 40.2 13.2c4.96 13.8-18.8 26.4-29.5 33.5-6.18 4.12-25.7-27.8-25.7-27.8z" fill="#8e00cf"/>
  <path d="m-13.2 126 13.2 3.6s7.08 0.568 8.49 5.57c1.98 7.04-8.49 14.5-8.49 14.5l-10.9 11.6-25.6 20.8-12.6-8.24-3.62-33.7z" fill="#e3388e"/>
  <path d="m94.7 379c-6.35-0.013-15.6 0.61-27.8 1.87-6.2 0.641-16.4 8.1-30.7 22.4-10.9 12.2 0.796 32.8-6.01 40.2 0 0-16.5 18.7-23.3 25.2-7.35 7.01 9.74 28.9 9.74 28.9 5.28 15.7 29.4-13.2 44.6-18.3l34.4-39.2c1.4 0.344 2.31 0.472 2.68 0.361 0.265-0.0793 3.8-11.9 10.6-35.4 1.73-5.99 0.468-14-3.79-24.1-0.542-1.28-3.99-1.93-10.3-1.95z" fill="#e3c74e"/>
  <path d="m-54.2-37.1 4.02 22.8 50.2 27.1 2.98 2.9c3.19 3.62-0.882 8.14 1.95 11.7l15 19.1s26.6 21.4 35.8 12.8c8.4-7.88-9.5-33.2-9.5-33.2-7.54-8.8-30.5-20.1-26-26.1l1.93-1.95-4.85-5.94-31.6-25.6z" fill="#e3e3c9"/>
  <path d="m445-14.3 30.2 14 0.43 0.334 34.6 26.9-4.09 21.3s-17.8 16.6-25.9 15.4c-11.6-1.79-20.2-34.3-20.2-34.3l-10.2-29.3z" fill="#e3006f"/>
  <path d="m-32 187 32 13.5s8.82 4.05 10.7 9.02c3.7 9.57-8.98 25.1-8.98 25.1l-42.8-5.79-1.28-33.1z" fill="#e355c7"/>
  <path d="m318-32.9 34.7 13.3-30.4 34.4s-7.31 3.04-10.9-0.216c-4.12-3.77-2.77-14.6-2.77-14.6l1.18-28z" fill="#8ee3e0"/>
  <path d="m122 16.8-11.6 13.2c-5.73 15-11.2 11.3-21.7 14.1-8.42 2.37-16.8 7.7-25.1 16-8.12 8.12-15.2 18.6-16.5 30-2.03 18-17 11.7 15 52.3 12.3 15.8 17.1 21 29.3 23.4 1.33 0.261 2.57-1.37 3.91-1.15 14.1 2.37 21.2 21.2 35.1 24.9 17.7 4.73 32.8-9.6 54.7-5.27 8.43 1.67 10.9-3.4 21.9-13.6s35.3-29.2 38.2-51.7c3.32-26.3 4.98-39.5 4.96-39.6-0.0827-0.193-2.42-1.79-7.02-4.78-22.4-19-36.2-22.5-54.6-33l-42-23.9z" fill="#3824a5"/>
  <path d="m-41.1 70.8 11-5.22 42.6 33.1s8 12.1 2.98 18.3c-4.09 5.03-15.4 2.96-15.4 2.96l-31.6-2.72-23.3-10.1 3-20.3z" fill="#e31caf"/>
  <path d="m533 148 16.4 59.2-1.36 0.59-14-1.31-22.2-14.1s-12.9-4.7-13.2-12.8c-0.326-8.58 13.2-15.7 13.2-15.7z" fill="#005528"/>
  <path d="m-12.9 332 24.8 6.79s27.4 11.8 32.6 24.3c3.35 8.19 3.79 22.1-4.04 26.2-11 5.75-33.4-16.2-33.4-16.2l-7.06-14.6z" fill="#00aa73"/>
  <path d="m144 476c11.9-0.528 29.1 1.9 32.1 15.7 1.68 7.61-8.67 20.3-8.67 20.3l-9.94 11.9-28.6-3.55 6.41-39.1s5.3-5.1 8.68-5.25z" fill="#38e3df"/>
  <path d="m195-13 28 5.11-0.229 7.92-0.196 6.79-13.3 39.9-7.78-2.98-37.4-30.4 15.6-13.3z" fill="#550029"/>
  <path d="m-18 59.4 18-9.57s8.07-2.21 11.9-1.58c16.1 2.58 32.2 31.3 32.2 31.3l-7.42 29.5-1.82 1.62-11.2-7.47-23.7-24.9z" fill="#001c34"/>
  <path d="m471 70.8c3.07-2.65 5-0.663 9.03-0.224 12.7 1.38 32.1 18.4 32.1 18.4l12.5 9.69 6.92 22.9-51-4.39s-19.2-2.73-23.3-10.1c-3.32-5.98 0.53-13.9 3-20.3 2.32-5.99 5.89-11.8 10.8-16z" fill="#e31caf"/>
  <path d="m-51.9 233 28.5 6.35 24.1 34-4.08 27.9-25.6-18.4-20.7-34.8z" fill="#e37192"/>
  <path d="m86.9-50 14.6-13.7 19.3 17.6 5.01 36.9-4.68 9.17s-2.25 14.2-7.9 15.5c-8.29 1.88-20.3-15.5-20.3-15.5l-12.5-9.53z" fill="#1ce39d"/>
  <path d="m361-16.4 23.1 4.88 13.1 13.8-11.2 25.7-19.1 1.93-41.4-12 18.5-17.8z" fill="#aa0016"/>
  <path d="m22 132s-2.4-14.4 2.6-17.6c3.56-2.29 8.75 1.07 12.2 3.53 17.1 12.3 35 41.9 36.1 51.8 1.69 15.1-27.7 30.2-27.7 30.2l-5.32 3.8-17.2-61z" fill="#0038dc"/>
  <path d="m499 126 28.2 7.71-26 27.6s-4.14 21.5-25.6 20.8c-5.01-0.168-12.6-8.24-12.6-8.24s-16-38.3-1.72-50.4c9.96-8.42 37.6 2.56 37.6 2.56z" fill="#e3388e"/>
  <path d="m-42.5 273 33 39.7-4.94 11.3-6.77 6.49-13.1 3.47-34.6-37.7z" fill="#e38e16"/>
  <path d="m144-36 38.5 18.1-24.9 29.8-28.6-3.55 6.41-39.1z" fill="#38e3df"/>
  <path d="m393 31.5 7.56-20.8 27.8-17.7 31.9 48.6s7.38 23.6-0.753 28.4c-15.6 9.33-48.8-24.7-48.8-24.7z" fill="#c700b4"/>
  <path d="m-5.02 315 11.3-12.7s25.2-17.8 31.7-11.4c10.3 10.2 22.1 18.4 24 29.5 1.64 9.35-18.3 21.6-18.3 21.6l-42-12.8-1.68-3.53z" fill="#008ebf"/>
  <path d="m-54.2 475 39.9 3.59 31.6 25.6 4.85 5.94-17.3 17.4-55.1-29.8z" fill="#e3e3c9"/>
  <path d="m238-35.6 35.3-15.2 27 15.5 0.782 35.2 0.202 9.07-3.41 10-57.4-17.8-11.1-12z" fill="#71e3d0"/>
  <path d="m29.9 0.189 0.149-0.189 2.32-2.94 20.7-20 11.7 3.96 16.6 19s18.8 16.3 19.6 27.4c0.284 3.72-3.55 7.34-3.55 7.34s-17.7 10.7-26.4 7.75c-17.1-5.89-41.2-42.3-41.2-42.3z" fill="#1c0024"/>
  <path d="m18.3 157c9.92 3.44 8.5 11.6 11 21.5 2.5 9.97 6.87 29.4 6.87 29.4l-14-1.31-42.8-27.2 20.6-15.4s9.99-9.86 18.3-6.97z" fill="#005528"/>
  <path d="m-32.7 343 10.8-5.21 36.2 56 5.66 18.3-60.2 9.24-12.9 1.37 13.5-62.4z" fill="#e3aac9"/>
  <path d="m133 403c-10.6-0.158-17.3 4.44-20 13.8-1.04 3.61-1.82 7-2.34 10.2l-24.1 35.3-6.45 40.5 32.7 25 12.6-24.7 11.4-32c0.542 0.184 0.99 0.254 1.32 0.176 3.5-0.828 8.97-4.96 16.4-12.4 11.6-11.6 15.3-22 11.1-31.1-6.57-14.2-14.8-22.2-24.6-24-2.88-0.543-5.54-0.833-8-0.869z" fill="#1ce39d"/>
  <path d="m271 16.4s23.4 3.93 25 13.2c2.19 12.6-22.2 28.8-39.5 39.7-10.4 6.55-25.7-8.33-35.9-16.8-9.72-8.14 2.26-35.2 9.82-42.6 11.1-10.9 40.6 6.55 40.6 6.55z" fill="#710098"/>
  <path d="m500 60.6c1.09-6.72 12.4-10.8 12.4-10.8l10.4-5.52 33.8 35.2-7.42 29.5-1.82 1.62-11.2-7.47-23.7-24.9s-13.8-9.11-12.4-17.7z" fill="#001c34"/>
  <path d="m13.6 232s11.3-19 19.8-17.1c8.66 1.99 10.5 24.5 10.5 24.5s10.1 24.6 2.98 35.4c-6.73 10.3-27.9 17.2-35.4 16.4-8.73-0.92-5.57-19.3-5.57-19.3z" fill="#007170"/>
  <path d="m-52.4 429 71-9.47s6.66 4.05 7.98 7.44c1.69 4.37 1.94 6.07-1.11 14-3.73 9.68-25.5 26.8-25.5 26.8l-5.6 5.73-46.2-7.54-1.61-33.9z" fill="#e3c7ec"/>
  <path d="m29.9 512 0.149-0.189 2.32-2.94 20.7-20 11.7 3.96 38.6 44.3-6 9.46-27.5 2.24z" fill="#1c0024"/>
  <path d="m300 43.3c-5.73 0.141-24.2 15-33.8 25.4-4.06 4.38-4.41 0.515-9.64 15.1-10.7 29.8-5.62 46.7-5.12 47.1 14.3 12.1 22 17.8 23.2 16.9 33.8-24.8 50.7-37.3 50.6-37.4-1.95-3.2-1.42-9.11-1.36-10.8 0.238-6.48-2.08-11.3-2.15-18.2-0.032-3.43-6.11-15.5-18.2-36.2-0.74-1.26-1.91-1.88-3.52-1.84z" fill="#801c94"/>
  <path d="m180 230c-20.3-0.317-20.6 5.55-61.3 17.5-1.05 0.307-2.11 6.92-3.19 19.8-0.028 0.333 3.1 4.91 9.39 13.7 0.0754 0.106 0.23 9.31 4.25 17.7-0.32 2.27-0.301 4.67 0.0605 7.19 1.63 11.3 16.6 15 26.4 20.1 9.33 4.83 20.2 5.71 30.1 9.45 6.84 2.6 15.6 10.6 20 9.02 11.1-4.01 17.1-10.6 24.3-17.6 11.6-11.3 26-22.7 29.5-38.5 1.84-8.44 1.53-10-5.77-25.3-4.43-9.25-8.37-15.3-11.8-18.1-19.8-4.59-31.6-14.7-61.9-15.1z" fill="#478067"/>
  <path d="m361 108q21.2-9.42 31.5-2.83 11.6 7.41 7.55 33.1-4.51 28.9-10.9 33.3-7.18 4.89-17.3 4.09-11.4-0.898-20-28.4-9.68-30.9 9.2-39.3z" fill="#aa3878"/>
  <path d="m191 190c4.31-0.467 13.2 1.48 26.6 5.83 10.9 3.56 16.8 12.1 17.6 25.7 0.634 11.1-5.62 6.99-21.6 8.9-13 1.56-22.1-0.0178-25-6.34-2.38-5.16-4.18-4.45-4.78-17.4-0.486-10.6 1.91-16.1 7.19-16.7z" fill="#55558b"/>
  <path d="m121 341q9.27-11.6 17.3-10.5 36 4.69 39.4 7.59 15.3 13.1 15.3 14.4-0.06 6.25-1.28 10.2-5.5 17.8-10.7 21-23.5 14.6-30.4 13.3-30.9-5.83-32.3-9.29-6.55-15.5-5.24-20.7 5.9-23.4 7.96-26z" fill="#38aa36"/>
  <path d="m298 137q30.9-22.7 34.1-21.2 4.54 2.08 12.1 26.1 10.8 34.4 7.81 36.9-4.25 3.54-32.8-4.57-40.9-11.6-41.7-15.6-1.11-5.73 20.5-21.5z" fill="#8e386b"/>
  <path d="m161 190q12.5-2.19 15.1-0.091 0.903 0.735 2.1 26.8 0.42 9.12-46 22.8-16.2 4.77-18.9-6.46-0.926-3.93 8.58-28.3 3.32-8.51 39.1-14.8z" fill="#3855b6"/>
  <path d="m71.2 329q40.2 14.5 39.6 17-6.58 26.1-10.6 26.5-41.8 4.32-43.1 2.07-13.3-23.5-11.2-25.5 21.4-21.4 25.3-20z" fill="#1caa20"/>
  <path d="m273 179q3.69-11.7 23.7-6 49.4 14 43.8 25.4-13.8 28.1-15.1 28.8-3.27 1.9-13.2-3.3-24.5-12.8-29.1-20.7-11.5-19.5-10-24.2z" fill="#8e554f"/>
  <path d="m415 53.6q40.4 25 38.1 33.6-4.26 16-18.3 17.4-26.2 2.6-33.8-2.29-14.2-9.11-11.9-27.6 4.24-34.5 25.9-21.1z" fill="#c71c5c"/>
  <path d="m246 135q0.749-0.175 9.91 7.6 13 11 13.8 15.1 1.1 5.71-1.04 12.5-3.04 9.65-14.4 16.1-16.1 9.22-31.2 4.32-21.4-6.96-3.26-27 25.8-28.5 26.3-28.6z" fill="#71386b"/>
  <path d="m91.9 172q10.2-0.298 19.1 10.9 9.01 11.3 2.63 27.6-6.45 16.5-36.4 6.55-30.3-10.1-13-27.3 17.5-17.5 27.6-17.7z" fill="#1c557e"/>
  <path d="m371 36.4q14.1-2 14.5-1 1.18 3.77-0.179 14.9-5.15 41.9-13.5 45.6-31.7 14.1-33.3 13.3-6.1-2.8-6.95-4.2-3.22-5.28-3.26-10.2-0.173-18.6 8.04-26.8 31-31 34.8-31.6z" fill="#aa1c3c"/>
  <path d="m293 220q27.4 14.3 26.5 16.2-3.48 7.37-9.87 15.5-25 31.6-26.8 32.2-7.3 2.34-8.36 2.1-4.14-0.948-7.72-8.44-14-29.3-7.21-35.8 26.5-25.4 33.5-21.7z" fill="#71713b"/>
  <path d="m49.7 286q8.21-8.21 26.2-9.92 33.1-3.15 36.6 1.63 6.26 8.8 8.16 22 3.48 24.2-0.51 29.2-7.34 9.17-22.9 3.58-28.5-10.3-36.8-21.5-15.2-20.6-10.8-25z" fill="#1c8e5d"/>
  <path d="m428 110c14.5-1.44 22.6-0.689 24.4 2.25 2.07 3.46-1.4 12.1-2.78 26.6-1.62 17-6.27 26.1-21.6 26.7-18 0.654-25.7-7.39-23.1-24.1 3.07-19.7 10.8-30.1 23.1-31.4z" fill="#c73876"/>
  <path d="m262 188q4.47-2.55 18.1 20.4 2.64 4.45-25.2 31.2-5.4 5.18-12.4-0.436-1.36-1.09-3.13-32-0.344-5.99 22.7-19.2z" fill="#7155cc"/>
  <path d="m42.6 212q0.301-0.3 0.855-0.441 1.69-0.43 16.6 4.52 45.3 15.1 46.2 18.8 2.69 11.4 2.28 16.3-1.25 15-13.9 16.2-38.5 3.66-41.9-10.9-10.2-44.4-10.1-44.5z" fill="#1c7145"/>
 </g>
</svg>
