<?xml version="1.0" encoding="UTF-8"?>
<svg width="512px" height="512px" contentScriptType="text/ecmascript" contentStyleType="text/css" version="1.1" viewBox="0 0 512 512" xmlns="http://www.w3.org/2000/svg">
 <g class="voronoi" stroke-width=".5">
  <path d="m458-37.1 39.9 3.59 31.6 25.6 4.85 5.94-17.3 17.4-55.1-29.8z" fill="#e3e3c9"/>
  <path d="m306 21.6c-21.3 14.4-29.3 36.7-39.5 47.1-13 12.3-24.5 46.6-14.8 62.2 9.89 15.9 22 17.8 23.2 16.9 33.8-24.8 54.3-32.9 48.8-43.4-5.36-10.2 0.46-20.6 1.42-29.6 0.883-8.34 36.1-34.9 32.2-43.4-2.51-5.44-40.1-9.41-40.1-9.41s-7.8-1.92-11.2-0.316z" fill="#8413a8"/>
  <path d="m460 429 71-9.47 2.17 0.445 0.978 25.5-27.4 28s-32-3.46-46.2-7.54c-10.9-3.12-1.61-33.9-1.61-33.9z" fill="#e3c7ec"/>
  <path d="m318 479c10.2-0.532 23.7 7.03 27.9 13 4.96 7.14-5.21 12.2-10.7 15-7.94 4.1-21 6.8-26.8 0-5.1-5.99-1-15.3 3.76-23.3 1.62-2.72 2.56-4.5 5.72-4.66z" fill="#8ee3e0"/>
  <path d="m445-14.3 30.2 14 0.43 0.334s29.5 13.2 34.6 26.9c2.56 6.89 0.399 16-4.34 21.6-6.1 7.24-21.9 18-30.9 15.1-11.2-3.6-10.4-22.7-14.9-34.4-3.75-9.62-10.2-29.3-10.2-29.3z" fill="#e3006f"/>
  <path d="m508 315c0.353-2.5 4.22-5.68 4.22-5.68l6.24-7.05 25.7-8.73 24.8 23-13 25.3-42-12.8-1.68-3.53s-4.76-6.7-4.22-10.6z" fill="#008ebf"/>
  <path d="m461 476c9.04-9.85 24.7-2.92 37.1 2.1 5.68 2.3 14.3 11.6 14.3 11.6l17.3 14 4.85 5.94-17.3 17.4-28.7-15.5s-20.6-6.17-26.5-14.3c-4.51-6.25-6.39-15.6-1.18-21.3z" fill="#e3e3c9"/>
  <path d="m533 148 16.4 59.2-1.36 0.59-14-1.31-22.2-14.1s-11.1-5.08-11.4-13.2c-0.326-8.58 11.4-15.3 11.4-15.3z" fill="#005528"/>
  <path d="m479 343s3.36-4.94 7.2-3.87c13 3.63 25.5 32.6 25.5 32.6l14.3 22.1 5.66 18.3-60.2 9.24s-14.5 0.145-14.6-4.18c-0.325-15.8 15.2-56.8 15.2-56.8z" fill="#e3aac9"/>
  <path d="m393 543 7.56-20.8 16.7-10.6s5.96-5.76 10.2-4.84c2.75 0.592 5.49 4.84 5.49 4.84l27.3 41.5-0.753 28.4-48.8-24.7z" fill="#c700b4"/>
  <path d="m471 70.8c2.76-1.54 5.45-0.832 9.48-0.393 12.7 1.38 31.7 18.6 31.7 18.6l12.5 9.69 6.92 22.9-51-4.39s-19.2-2.73-23.3-10.1c-3.32-5.98 3-20.3 3-20.3s5.15-12.8 10.8-16z" fill="#e31caf"/>
  <path d="m504 335c2.84-3.42 8.18 0.2 8.18 0.2l12 3.27 32.6 24.3-4.04 26.2-33.4-16.2-7.06-14.6s-14.5-15.7-8.18-23.2z" fill="#00aa73"/>
  <path d="m450 501c8.23-7.46 25.1 11.1 25.1 11.1l0.43 0.334 34.6 26.9-11.8 16.3-19 15.6-19.3-29.5-10.2-29.3s-3.57-8.09 0.176-11.5z" fill="#e3006f"/>
  <path d="m361-16.4 23.1 4.88 13.1 13.8-11.2 25.7-19.1 1.93-41.4-12 18.5-17.8z" fill="#aa0016"/>
  <path d="m499 126 28.2 7.71-15 16s-8.3 6.99-10.9 11.6c-3.41 5.97 0.17 16.3-5.75 19.8-9.52 5.63-25 0.999-32.4-7.25-7.53-8.43-8.99-40.3-2.99-49.9 7.43-11.8 38.9 2.04 38.9 2.04z" fill="#e3388e"/>
  <path d="m360 446c10.4 2.61 16.6 28.2 16.6 28.2s5.88 16.2 0.542 20.5c-7.03 5.64-26.2-6.56-26.2-6.56s-21.8-4.46-21.4-14.1c0.543-12.8 17.3-31.3 30.5-28.1z" fill="#aae33b"/>
  <path d="m393 31.5c-2.05-7.1 7.56-20.8 7.56-20.8l27.8-17.7 4.63 7.05s22.7 25.6 27.3 41.5c2.59 9.11 7.38 23.6-0.753 28.4-15.6 9.33-48.8-24.7-48.8-24.7s-15.7-6.59-17.8-13.8z" fill="#c700b4"/>
  <path d="m469 273s25.6 24.1 33 39.7c2.39 5.07 6.5 12.1 3.12 16.5-3 3.95-8.97 5.57-13.9 6.42-4.45 0.774-9.86 0.469-14.1-1.68-15.2-7.77-34.6-37.7-34.6-37.7z" fill="#e38e16"/>
  <path d="m417 433s22.9-7.67 30.8 0.449c7.99 8.25 5.6 18.8 5.91 27.7 0.308 8.76 0.96 20.4-0.895 26.3-1.87 5.91-7.18 13.8-11.8 14.4-12.5 1.41-25.9 10.1-38.3 6.38-6.2-1.87-10.9-7.65-14.2-13.2-4.67-7.99-9.04-18.1-6.53-27 4.48-15.9 35.1-34.9 35.1-34.9z" fill="#c7e30d"/>
  <path d="m480 187 46.8 19.7-13 27.9-1.76-0.238s-37.4-3.97-46.7-14.2c-7.43-8.18 0.286-17.3 4.42-24.5 2.23-3.89 10.2-8.73 10.2-8.73z" fill="#e355c7"/>
  <path d="m361 498c7.56-2.17 22.7 2 22.7 2l13.1 13.8-11.2 25.7-19.1 1.93-41.4-12 18.5-17.8s9.75-11.3 17.3-13.5z" fill="#aa0016"/>
  <path d="m417-78.8 33.9 1.52 0.463 34.4-8.5 18.9-6.21 6.11-34 14.2-14.2-13.2-6.53-27z" fill="#c7e30d"/>
  <path d="m501 59.9c1.09-6.72 11-10.1 11-10.1l10.4-5.52 33.8 35.2-7.42 29.5-1.82 1.62-11.2-7.47-23.7-24.9s-12.4-9.81-11-18.4z" fill="#001c34"/>
  <path d="m460 233s32.3-3.25 43.5 8.87c6.84 7.41 8.43 30.5 8.43 30.5l0.733 1.03-4.08 27.9s-18.5-10.6-25.6-18.4c-9.13-9.95-16.2-22.1-20.7-34.8-1.69-4.77-2.19-15-2.19-15z" fill="#e37192"/>
  <path d="m286 171c-6.84-0.119-11.1 2.5-12.8 7.87-0.999 3.17 2.35 11.2 10 24.2 3.12 5.28 12.8 12.2 29.1 20.7 5.16 2.7 25.1 7.93 34.7 9.51 3.42 4.1 8.31 8.09 14.7 12 18.8 11.4 29.7 16.7 32.7 15.9 3.07-0.801 6.81-4.49 11.2-11.1 4.47-6.66 1.69-19.2-8.35-37.6-10.2-18.6-18.8-28.3-26-28.8-24.6 4.33-21.7 4.73-42.8-1.13-4.18-1.19-39.5-11.6-42.7-11.7z" fill="#9c5568"/>
  <path d="m358 330c-3.48-0.399-9.63 5.57-18.4 16.9-11.7 3.51-22.9 12.1-33 16.6-8 4.42-20.2 8.81-21.3 19-0.0747 0.81 2.09 6 6.5 15.6 2.65 5.75 16.3 9.31 40.9 10.7 9.51 0.524 14.3-1.42 22.5 0.783 2.68 0.728 9.76 4.39 10.3 5.54 0.0393 0.0713 16 3.92 47.7 11.5 1.43 0.343 13 0.943 34.7 1.8 0.979 0.0387 1.81-0.657 2.51-2.09 0.0313-0.0647 2.45-9.67-0.824-12-16.7-11.8-23.7-12.2-52.6-45.2-2.34-2.68-1.3-11.6-4.58-16.2-8.78-9.9-30.5-22.4-34.5-22.9z" fill="#aab436"/>
  <path d="m382 103c-5.65 0.156-12.2 3.39-20.4 5.53s-18.4 1.8-29.2 7.24c-2.11-0.97-13.5 6.1-34.1 21.2-14.4 10.5-21.2 17.7-20.5 21.5 28.6 21.5 70 23.7 94.6 17.7 6.77 0.533 12.6-0.831 17.3-4.09 4.26-2.9 7.89-14 10.9-33.3 2.67-17.1 0.153-28.2-7.55-33.1-3-1.92-6.69-2.82-11.1-2.7z" fill="#9c3872"/>
  <path d="m287 291q0.933-0.299 56 27.1 6.24 3.11 6.85 5.91 0.07 0.317-15.4 20.3-1.75 2.26-38.5 18.1-4.17 1.8-15.9-61.7-1.33-7.19 6.91-9.83z" fill="#8e8eda"/>
  <path d="m416 248q2.07-3.08 31.1-10.6 5.33-1.38 14.5 24.4 1.68 4.72-20.3 26.7-4.04 4.04-20.4-3.31-3-1.35-14.1-17.5-2.03-2.96 9.23-19.7z" fill="#c771ce"/>
  <path d="m363 420q0.224-2.63 42.6 7.51 7.48 1.79-22.3 31.6-5.27 5.27-19.1-19.8-2.44-4.43-1.17-19.3z" fill="#aac7cf"/>
  <path d="m427 294c6 2.69 15.2 11.8 28.5 25.4 11.5 11.8 16.8 17.7 15.1 19.4-1.51 1.51-12.8 2.36-34 2.57-18.4 0.181-26.2-9.06-23.5-27.7 2.34-16.2 6.97-22.8 13.9-19.7z" fill="#c78e87"/>
  <path d="m415 53.6q40.4 25 38.1 33.6-4.26 16-18.3 17.4-26.2 2.6-33.8-2.29-14.2-9.11-11.9-27.6 4.24-34.5 25.9-21.1z" fill="#c71c5c"/>
  <path d="m329 235c-3.95 0.622-7.47 7.2-8.9 8.02-7.38 9.86-13.1 20.7-20.2 29.8-7.55 9.56 1.72 20.8 27.8 33.8 14.8 7.36 23.6 8.01 26.5 1.96 0.846-1.78 5.88-6.73 9.7-13.6 3-5.42 9.7-13.3 20.7-26.4 1.29-1.55 5.4-0.737-29.4-21.9-1.28-0.777-16.7-13.2-26.1-11.7z" fill="#9c713e"/>
  <path d="m342 415q14.4 0.792 15.4 2.67 0.335 0.602-0.792 13.9-0.362 4.26-28.7 32.6-9.08 9.08-15.6 10-2.08 0.295-20.9-15.2-6.03-4.97 2.86-36.3 2.85-10.1 47.6-7.6z" fill="#8ec7ba"/>
  <path d="m371 36.4q14.1-2 14.5-1 1.18 3.77-0.179 14.9-5.15 41.9-13.5 45.6-31.7 14.1-33.3 13.3-6.1-2.8-6.95-4.2-3.22-5.28-3.26-10.2-0.173-18.6 8.04-26.8 31-31 34.8-31.6z" fill="#aa1c3c"/>
  <path d="m398 358q0.346-6.38 6.41-9.62 5.06-2.7 37.4-3.02 27-0.267 18 41-7.49 34.4-37.3 4.37-24.9-25.1-24.5-32.7z" fill="#c7aa89"/>
  <path d="m395 178q6.82-4.64 31.7-5.54 25.1-0.912 32.2 7.14 7.11 8.14 2.63 26.8-4.53 18.9-6.5 20.9-2 2-19.1 6.41-17.3 4.46-32.4-23.2-15.2-27.9-8.5-32.5z" fill="#c7557e"/>
  <path d="m293 220q27.4 14.3 26.5 16.2-3.48 7.37-9.87 15.5-25 31.6-26.8 32.2-7.3 2.34-8.36 2.1-4.14-0.948-7.72-8.44-14-29.3-7.21-35.8 26.5-25.4 33.5-21.7z" fill="#71713b"/>
  <path d="m428 110q21.7-2.16 24.4 2.25 3.1 5.19 1.04 26.9-2.43 25.5-25.4 26.4-27 0.981-23.1-24.1 4.6-29.5 23.1-31.4z" fill="#c73876"/>
  <path d="m387 276q3.99-4.78 11.9-6.83 1.29-0.336 12.6 16.1 1.85 2.7-4.64 47.6-1.07 7.38-10.6 12.5-1.57 0.839-34.2-19.5-5.35-3.35-5.94-6.02-0.097-0.439 5.7-12.7 0.952-2.01 25.2-31.1z" fill="#aa8ed1"/>
 </g>
</svg>
