<?xml version="1.0" encoding="UTF-8"?>
<svg width="512px" height="512px" contentScriptType="text/ecmascript" contentStyleType="text/css" version="1.1" viewBox="0 0 512 512" xmlns="http://www.w3.org/2000/svg">
 <g class="voronoi" stroke-width=".5">
  <path d="m458-37.1 39.9 3.59 31.6 25.6 4.85 5.94-17.3 17.4-55.1-29.8z" fill="#e3e3c9"/>
  <path d="m-13.2 126 28.2 7.71-26 27.6-25.6 20.8-12.6-8.24-3.62-33.7z" fill="#e3388e"/>
  <path d="m479 426c10.8-2.22 32.8-3.92 32.8-3.92l18.6-2.48 2.17 0.445 0.978 25.5-21.8 22.3s-5.73 3.85-8.26 4.73c-13.5 4.66-29.1 6.8-39.8-4.61-5.16-5.52-12.5-15.3-5.93-24.5 4.16-5.85 14.1-16 21.2-17.4z" fill="#e3c7ec"/>
  <path d="m330 468c-7.07 4.72-12.8 7.51-16.8 15.1-4.31 8.28-4.69 28.4-4.69 28.4l-0.707 16.7 14.4-1.89 13.1-14.8 22.7-20.7c2.31-2.11 14.5 1.86 20.9-3.28 5.33-4.28-1.5-14.2-1.5-14.2s-7.19-14.7-14.6-22.6c-15.7-16.7-25.7 12-32.8 17.3z" fill="#8ee3e0"/>
  <path d="m18.6 10.9c-7.15 0.59-13.7 16.6-13.7 16.6l-4.93 22.4-18 9.57 41.8 43.7 11.2 7.47 1.82-1.62s19.4-32 19-49.7c-0.194-9.33-11.1-25.7-11.1-25.7s-14.6-23.7-26.1-22.7z" fill="#001c34"/>
  <path d="m445-14.3 30.2 14 0.43 0.334 34.6 26.9s-7.21 11.4-11.8 16.3c-5.62 5.96-10.9 16.8-19 15.6-11.6-1.79-14.1-18.9-19.3-29.5-4.56-9.27-10.2-29.3-10.2-29.3z" fill="#e3006f"/>
  <path d="m507 315 11.3-12.7 25.7-8.73 24.8 23-13 25.3-42-12.8-1.68-3.53z" fill="#008ebf"/>
  <path d="m470 488c5.6-7.2 18.2-2.53 27.3-1.7 4.89 0.449 14.3 3.58 14.3 3.58l17.3 14 4.85 5.94-17.3 17.4-28.7-15.5s-12.5-7.7-16-13.8c-1.69-2.94-3.96-7.32-1.88-9.99z" fill="#e3e3c9"/>
  <path d="m318-32.9 34.7 13.3-17.3 19.5s-12.9 18.1-22.7 22c-2.1 0.841-7.22 2.17-6.79-0.0588 1.65-8.66 2.72-21.9 2.72-21.9l1.18-28z" fill="#8ee3e0"/>
  <path d="m122 16.8c-5.37 2.31-9.9 7.58-11.6 13.2-5.08 16.9 7.78 37.2 7.3 52.6-0.633 17.5 7.48 28.6 24.3 33.1 19.2 5.13 30.4 0.192 33.8-14.8 1.83-19.8 21.1-40.7 12.9-59.1-6.57-14.7-42-23.9-42-23.9s-17.1-4.18-24.7-0.928z" fill="#380e9d"/>
  <path d="m-41.1 70.8 11-5.22 42.6 33.1 6.92 22.9-51-4.39-23.3-10.1 3-20.3z" fill="#e31caf"/>
  <path d="m533 148 16.4 59.2-1.36 0.59-14-1.31-22.2-14.1s-12.1-4.42-12.4-12.6c-0.326-8.58 12.4-16 12.4-16z" fill="#005528"/>
  <path d="m485 341c13 3.63 27.4 31.5 27.4 31.5l14.3 22.1 5.66 18.3-20 3.06-26.4 4.52s-18.3 0.607-21.2-2.61c-14.2-15.8 7.98-56.7 7.98-56.7 2.8-5.92 6-21.6 12.2-20.1z" fill="#e3aac9"/>
  <path d="m393 543 7.56-20.8 27.8-17.7 31.9 48.6-0.753 28.4-48.8-24.7z" fill="#c700b4"/>
  <path d="m195-13 28 5.11-0.229 7.92-0.196 6.79s-0.287 34.6-13.3 39.9c-9.27 3.75-39.5-26.4-41.9-31.7-2.86-6.21 12.3-15 12.3-15z" fill="#550029"/>
  <path d="m471 70.8c4.74-3.55 9.83-7.34 16.9-5.37 10.6 2.96 24.2 23.6 24.2 23.6l12.5 9.69 6.92 22.9-51-4.39s-19.2-2.73-23.3-10.1c-3.32-5.98 3-20.3 3-20.3s5.62-12.1 10.8-16z" fill="#e31caf"/>
  <path d="m501 339c1.12-4.14 11-3.81 11-3.81l12 3.27 32.6 24.3-4.04 26.2-33.4-16.2-7.06-14.6s-12.8-12.5-11-19.2z" fill="#00aa73"/>
  <path d="m445 498c0.805-4.68 2.76-11.9 8.9-11.1 10.7 1.28 21.8 25.4 21.8 25.4l34.6 26.9-11.8 16.3-19 15.6-19.3-29.5s-6.78-19.5-10.2-29.3c-1.66-4.77-5.83-9.34-4.98-14.3z" fill="#e3006f"/>
  <path d="m86.9-50 14.6-13.7 19.3 17.6 5.01 36.9-4.68 9.17s-1.28 16.6-7.65 18c-8.88 2.02-20.5-18-20.5-18l-12.5-9.53z" fill="#1ce39d"/>
  <path d="m361-16.4-35.5 34.2 0.582 0.17c-5.24 6.19 2.46 63.7 2.58 76.1 0.0307 3.28 0.767 6.11 2.21 8.48 0.382 0.627 13.9-4.96 40.5-16.7 7.03-3.12 11.9-15.9 14.7-38.5-0.558-6.2-1.38-13.1-0.0293-19.5 1.86-8.72 11.3-15.5 10.9-24.4-0.0529-1.31-1.89-3.46-1.89-3.46l-11-11.5z" fill="#aa0016"/>
  <path d="m49.8 115c-5.15 0.0175-7.88 0.185-8.2 0.502l-7.88 4.25-11.8 12.1-22 32.1-20.6 15.4 42.8 27.2c22.7 14.4 36.9-9.93 39.1-13.5 12.4-19.7 18.8-16.2 36.4-28.6 1.75-1.28 3.74-10.1 5.98-26.5 1.96-14.4-8.44-21.9-31.2-22.5-9.98-0.282-17.5-0.416-22.7-0.398z" fill="#005528"/>
  <path d="m498 128c4.55-0.174 13.9 1.83 13.9 1.83l15 4.11-26 27.6s-14.6 20.2-25.6 20.8c-5 0.258-9.92-3.98-12.6-8.24-7.35-11.8-13.7-30.6-5.04-41.5 8.37-10.6 26.3-4 40.2-4.54z" fill="#e3388e"/>
  <path d="m144-36 38.5 18.1-15 17.9s-5.14 10-9.94 11.9c-8.93 3.52-22.8 4.14-28.6-3.55-1.69-2.26 1.37-8.35 1.37-8.35l5.04-30.8z" fill="#38e3df"/>
  <path d="m393 31.5c-2.05-7.1 7.56-20.8 7.56-20.8l27.8-17.7 31.9 48.6s7.38 23.6-0.753 28.4c-15.6 9.33-33.4-14.9-48.8-24.7-6.34-4.01-15.7-6.59-17.8-13.8z" fill="#c700b4"/>
  <path d="m459 238c-3.71 3.44-3.61 7.91-4.22 12.9-2.05 17-8.87 28.8-5.06 43.8 4.2 16.5 14.9 28.6 30 34 4.25 1.51 11.4 1.45 11.4 1.45l6.77-6.49s7.89-14.3 10.4-22.1c2.33-7.34 4.15-22.8 4.15-22.8l0.732-5-0.732-1.03s-12.5-24.3-24.3-30.8c-8.78-4.87-22.1-10.6-29.2-3.99z" fill="#e37192"/>
  <path d="m363 420c-3.57 1.52-1.59 15.6 0.439 19.6 6.57 11.9 16.7 22.1 18.3 28.6l6.53 27s7.83 12.1 14.2 13.2c12.1 2.16 34-14.2 34-14.2l6.21-6.11s7.1-12.1 8.5-18.9c2.34-11.2-1.25-31.9-11.9-34.4-7.4-1.78-14.3-0.808-21.4-1.95-18.5-3-50.7-14.6-54.8-12.9z" fill="#b9d56e"/>
  <path d="m238-35.6 35.3-15.2 27 15.5 0.782 35.2s0.0764 7.32-2.49 9.18c-6.58 4.78-24.4-1.19-24.4-1.19s-17.6 1.83-25.6-1.02c-3.66-1.3-9.35-6.97-9.35-6.97l-9.91-10.7z" fill="#71e3d0"/>
  <path d="m29.9 0.189 0.149-0.189 2.32-2.94 20.7-20 11.7 3.96 16.6 19c6.91 10 31.4 24.5 16.1 34.8-7.88 4.76-19.7 16.4-30.6 13.6-19.6-4.98-37-48.2-37-48.2z" fill="#1c0080"/>
  <path d="m480 194c11.5-1.77 31.6 7.13 31.6 7.13l14.7 6.21-13 27.9-1.76-0.238s-31.2 4.16-41-5.55c-4.89-4.86-4.8-13.8-2.93-20.5 1.75-6.24 7.94-14.3 12.4-15z" fill="#e355c7"/>
  <path d="m363 496c7.56-2.18 20.9 4.44 20.9 4.44l13.1 13.8-11.2 25.7-19.1 1.93-41.4-12 18.5-17.8s11.6-13.9 19.2-16.1z" fill="#aa0016"/>
  <path d="m-54.2-37.1 39.9 3.59 31.6 25.6 4.85 5.94-1.93 1.95s-6.91 11.9-12.9 14c-2.35 0.814-7.36-1.17-7.36-1.17l-50.2-27.1z" fill="#e3e3c9"/>
  <path d="m271 16.4c-12.7-2.8-27.9-4.94-38.8 1.97-12 7.6-9.64 28.2-20.3 37.6-9.31 3.39-22.6 17.8-25 27.6-5.92 26.4-8.76 39.8-8.5 40.3 1.2 2.5 5.62 3.43 13.3 2.8 35.3-2.91 29-3.88 39.9-12.6 10.6-8.48 12.5-24.2 20.5-35.2 12.9-17.8 44.8-37.2 44-49.3-0.577-9.42-15.8-11.2-25-13.2z" fill="#630eb1"/>
  <path d="m501 61.8c1.09-6.72 10.6-12 10.6-12l10.4-5.52 33.8 35.2-7.42 29.5-1.82 1.62-11.2-7.47-23.7-24.9s-12-7.92-10.6-16.5z" fill="#001c34"/>
  <path d="m68.4 65.1c8.29-8.29 12.6-18 21-20.4 8.61-2.42 14.6-0.829 18.1 4.78 3.53 5.73 5 16.7 4.41 33-0.601 16.7 3.91 20.3-2.56 26.2-8.21 7.52-12.3 0.894-33.4 0.296-21.6-0.611-26.3-3.73-23.5-15.3 2.89-11.9 7.88-20.5 16-28.6z" fill="#1c1c7e"/>
  <path d="m332 110q0.06-1.63 35.2-17.2 15.3-6.77 30 10.1 6.38 7.34-6.2 33.1-5.46 11.2-35.3 7.55-13-1.58-20.5-21.3-3.29-8.55-3.15-12.3z" fill="#aa3850"/>
  <path d="m176 173q1.03-1.9 40.4 3.14 12.7 1.63 19.9 10.3 2.31 2.81 3.16 25.6 0.274 7.35-5.49 13.1-1.86 1.85-42.7 3-13.2 0.369-18.4-4.87-1.68-1.69-0.436-34 0.402-10.4 3.61-16.3z" fill="#5555ba"/>
  <path d="m320 311q23.5-2.05 25.3-0.768 1.82 1.29 5.78 15.9 3.98 14.7-7.67 21.2-11.7 6.53-32.2 7.49-20.6 0.964-22-0.563-1.36-1.54 3-21.4 4.38-19.9 27.8-22z" fill="#8e8e7f"/>
  <path d="m394 368c38 38.3 57 57.4 57 57.5 0.032 0.26 0.0327 0.422 2e-3 0.487-0.693 1.43-1.53 2.13-2.51 2.09-21.7-0.86-33.3-1.46-34.7-1.8 0 0-44-5.27-47.7-11.4-3.87-6.38 13.9-58.3 27.9-46.9z" fill="#c7c716"/>
  <path d="m428 111q21.5-2.13 24.1 2.28 3.1 5.19 1.04 26.9-2.43 25.5-23.8 26.3-25.1 0.912-30.9-7.19-6.8-9.52 1.49-26.5 9.75-20 28-21.8z" fill="#c738b0"/>
  <path d="m296 214c1.09 2.51-14.4 4.4-46.4 5.69-2.86 0.115-4.63-9.05-5.32-27.5-0.0613-1.65 4.98-8.74 26.4-16.2 12.9-4.49 22.1 30.7 25.3 38z" fill="#715530"/>
  <path d="m389 294q14.2-6.98 18.2 32.9 1.59 15.7-13.1 26.6-5.77 4.27-9.95 4.83-1.65 0.221-17.1-12.3-6.08-4.94-11.8-26-2.25-8.31 33.7-26z" fill="#aa8eb1"/>
  <g>
   <path d="m282 134q44.6-17.2 46.7-11.6 8.74 22.7 8.26 23.6-1.96 3.79-12.2 6.75-41.9 12.1-44.2 6.89-9.41-21.5 1.48-25.6z" fill="#8e3880"/>
   <path d="m132 173c34.4 6.17 32.5 8.25 32.4 11.9-0.953 24.8-3.46 37.6-7.53 38.4-16 1.03-41 17.5-45.7-1.84-7.67-32.4-19.2-39.5-6.9-51.9 6.55-6.6 23.3 2.6 27.7 3.44z" fill="#3855e0"/>
   <path d="m446 237c4.36-1.13-0.653 9.56-1.72 26.7 1.16 27.1-18.2 24.5-31 17.3-2.94-1.32-4-11.2-3.19-29.7 0.149-3.4 12.1-8.16 35.9-14.3z" fill="#c77130"/>
  </g>
  <path d="m319 103c1.44 0.486 3.05 2.18 4.81 5.07 0.0613 0.1 0.028 1.88-0.1 5.35-5e-3 0.121-36.6 11.9-53.6 20.8-5.78 3.03-7.16-2.28-17.8-8.28-0.368-0.209-0.73-0.577-1.08-1.1-0.0127-0.018-3.63-34.4 8.63-34.2 17.3 0.253 17.5-1.61 59.1 12.4z" fill="#711cea"/>
  <path d="m340 154c-6.45 21.6-4.44 45-3.22 67.4 1.05 19.4 5.85 37.5 9.04 57.5 0.865 5.38 5.22 14.6 11.7 16.8 15.3 5.06 27.8-1.85 45.8-15.3-2.34-35 10.6-85.8-5.66-108 0.0713-0.252-6.19-14.1-12.4-17.9-16.1-1.94-40-17-45.3-0.5z" fill="#aa63d6"/>
  <path d="m328 359c1.77-0.0827 7.1 31-1.58 42-5.38 6.79-6.23 5.41-25 6.91-1.29 0.103-19.7-31.5-11.2-44 7.14-10.5 12.2-3.64 37.8-4.84z" fill="#8eaae3"/>
  <path d="m412 58.2c26.9 16.6 42.8 23 41.3 28.8-2.84 10.7-8.89 16.5-18.1 17.4-17.2 1.71-28.3-0.253-33.2-5.9-9.14-10.5-13.1-20.7-11.9-30.7 2.28-18.5 7.46-18.5 21.9-9.6z" fill="#c71c5c"/>
  <path d="m242 121c5.3 3 26.2 23.1 30.2 32.3 3.77 8.6 3.86 8.53 2.33 12.5-2.16 5.59-2.75 4.71-14.3 10.9-10.8 5.75-17.9 6.64-21.1 2.67-3.05-3.71-5.56-16.1-0.319-31.1 4.9-14-7.95-21.6 3.22-27.2z" fill="#7138e0"/>
  <path d="m90.2 179c4.82-0.14 7.25 2.32 11.6 20.8 4.44 18.7-3.67 24.7-24.3 17.8-20.9-6.96-21-9.31-9.51-20.8 11.6-11.6 17.4-17.7 22.2-17.8z" fill="#1c5520"/>
  <path d="m299 416c1.12-1.41 9.29-2.72 24.5-3.93 13.6 1.15 28.4-5.64 33.7 5.72 2.6 5.56-0.338 4.51-1.09 13.4-0.241 2.84-9.81 13.7-28.7 32.6-6.05 6.05-11.3 9.39-15.6 10-1.39 0.197-8.35-4.87-20.9-15.2-4.02-3.31-3.81-12.8 0.619-28.4 1.42-5.02 3.88-9.72 7.38-14.1z" fill="#8ec7ba"/>
  <path d="m200 132c29.8-2.45 22.3-1.28 29.2 2.58 5.67 3.19 5.13 10.5 2.02 19.4-7.03 20.1-6.5 18-17.1 16.6-24.1-3.09-35.9-7.93-35.4-14.5 1.06-15 8.17-23 21.3-24.1z" fill="#553880"/>
  <path d="m331 230c12.3 5.58 3.37 18.4 9.23 54.9 1.77 11.1-9.33 17.6-33.3 19.7-7.27 0.633-14.9-4.3-23-14.8-2.44-3.19 6.09-18.7 25.6-46.6 5.04-5.08 9.2-18.8 21.5-13.2z" fill="#8e71bc"/>
  <path d="m405 353c6.19-4.58 19.4-6.96 39.6-7.16 16.9-0.166 15.9 11 9.9 38.5-4.99 22.9-11.9 26-33.5 4.16-18.1-18.2-23.4-30-16-35.5z" fill="#c7aa89"/>
  <path d="m302 163c21.4-6.18 31.3-0.48 29.8 17.1-2.37 28.1-4.98 42.2-7.84 42.5-4.56 0.487-8.86-0.23-12.9-2.15-6.45-3.06-12.2-10.5-17.3-22.3-14-29.9-17-27.8 8.24-35.2z" fill="#8e5520"/>
  <path d="m424 292c8.8 3.95 19.8 12.8 33.1 26.4 11.5 11.8 16.4 18.6 14.7 20.3-1.51 1.51-12.2 2.36-32 2.55-17.2 0.171-26.8-9.66-28.9-29.5-2.63-26.7-7.55-29 13.1-19.8z" fill="#c78e87"/>
  <path d="m316 30.8c5.44 23.8 5.95 47 5.99 50.5 0.114 12.3-4.52 16.8-13.9 13.7-33.6-11.3-43.6-9.22-44.8-15.8-1.25-6.37 2.32-4.24 8.32-10.2 21.5-21.5 41.1-43.9 44.4-38.1z" fill="#8e1c3e"/>
  <path d="m115 115q2.21-1.55 20.7 3.41 35.5 9.5 36.2 11.1 1.44 2.99 0.65 14.1-1.5 21.3-2.96 23.9-2.78 5.12-23.1 1.47-39-6.99-36.8-22.8 4.14-30.3 5.3-31.1z" fill="#383890"/>
  <path d="m428 173c15.6-0.565 25.7 1.84 30.4 7.2 4.74 5.43 5.62 14.4 2.63 26.8-3.02 12.6-5.19 19.5-6.5 20.9-1.33 1.33-9 3.8-23 7.41-8.1 2.29-11.2 1.27-15.7-1.48-6.61-5.4-7.35-16.9-2.6-33.8 4.8-17-0.533-26.5 14.9-27.1z" fill="#c75550"/>
  <path d="m241 229q5.31-5.29 21.2-5.92 36.5-1.46 41.2 0.802 11 5.2-0.586 21.7-26.6 38-32.8 37.1-14.3-2.23-19.5-17.1-11.8-34.3-9.52-36.5z" fill="#717152"/>
  <path d="m353 348q5.14-2.86 21.9 10.8 4.73 3.84-10.6 41.5-4.34 10.6-24.8 5.87-5.77-1.34-4.95-37.8 0.229-10.3 18.5-20.4z" fill="#aaaabf"/>
 </g>
</svg>
