<?xml version="1.0" encoding="UTF-8"?>
<svg width="512px" height="512px" contentScriptType="text/ecmascript" contentStyleType="text/css" version="1.1" viewBox="0 0 512 512" xmlns="http://www.w3.org/2000/svg">
 <g class="voronoi" stroke-width=".5">
  <path d="m458-37.1 39.9 3.59 31.6 25.6 4.85 5.94-17.3 17.4-55.1-29.8z" fill="#e3e3c9"/>
  <path d="m361-16.4-35.5 34.2-19.7 3.72c-6.92 1.31-2.06 10.6-0.969 16.9l25.1 42.4c-0.581 2.81-0.863 5.86-0.832 9.16 0.024 2.63 13.4 5.64 40.2 9.03 7.08 0.895 12.6-15.1 16.7-48 0.986-15.8 5.33-34.4 11.2-48.8l-13.1-13.8z" fill="#aa0016"/>
  <path d="m-13.2 126 13.2 3.6s4.9 1.36 6.31 6.37c1.98 7.04-6.31 13.7-6.31 13.7l-10.9 11.6-25.6 20.8-12.6-8.24-3.62-33.7z" fill="#e3388e"/>
  <path d="m526 232 19.8-17.1 10.5 24.5 2.16 38.9-19.9 10.4-20.3-16.8z" fill="#007170"/>
  <path d="m460 429 71-9.47 2.17 0.445 0.978 25.5-21.8 22.3s-6.11 3.09-8.65 3.92c-14.8 4.88-43.2-5.73-43.2-5.73l-1.61-33.9z" fill="#e3c7ec"/>
  <path d="m4.93 27.5c0.0781-7.17 6.66-15.1 13.7-16.6 13-2.79 25.8 4.63 33.1 15.8 5.6 8.59 9.63 24.6 1.38 30.7-10.2 7.53-22.8-3.45-33.1-10.8-6.57-4.72-15.1-11-15-19.1z" fill="#00009c"/>
  <path d="m445-14.3 30.2 14 0.43 0.334s32.5 12.4 34.6 26.9c0.941 6.64-5.66 13.6-11.8 16.3-5.68 2.45-18.4-2.4-18.4-2.4s-12-8.13-16.5-13.7c-6.27-7.9-13.6-27-13.6-27z" fill="#e3006f"/>
  <path d="m507 315 11.3-12.7 25.7-8.73 24.8 23-13 25.3-42-12.8-1.68-3.53z" fill="#008ebf"/>
  <path d="m465 483c9.04-9.85 32.4-4.73 32.4-4.73l31.6 25.6 4.85 5.94-17.3 17.4-28.7-15.5s-22.4-5.14-26.5-14.3c-2.01-4.53-1.65-8.77 3.56-14.4z" fill="#e3e3c9"/>
  <path d="m318-32.9 34.7 13.3-30.4 34.4s-7.41 2.33-11-0.928c-4.12-3.77-2.68-13.9-2.68-13.9l1.18-28z" fill="#8ee3e0"/>
  <path d="m122 16.8c-5.37 2.31-11.6 13.2-11.6 13.2-14.7 12.4-35 18.6-46.8 30.1-8.12 8.12-13.6 18.1-16.5 30-2.83 11.6 7.1 17.7 29.8 18.4 8.98 0.254 15.7-2.4 21.6-3.68 17.6-3.79 18.6 9.15 28.3 12.6 4.85 1.7 3.24 3.75 14.9 3.9 13.3 0.175 21.7-0.851 25.2-3.08 3.97-2.53 7.3-9.76 9.98-21.7 1.69-18.2 28.1-45.5 11.8-54.8 0 0-26.5-19.5-42-23.9-7.91-2.26-17.1-4.18-24.7-0.928z" fill="#2f1393"/>
  <path d="m-41.1 70.8 11-5.22 42.6 33.1s7.44 9.21 2.41 15.4c-4.09 5.03-14.9 5.82-14.9 5.82l-31.6-2.72-23.3-10.1 3-20.3z" fill="#e31caf"/>
  <path d="m533 148 16.4 59.2-1.36 0.59-14-1.31-22.2-14.1s-8.62-4.19-8.93-12.3c-0.326-8.58 8.93-16.2 8.93-16.2z" fill="#005528"/>
  <path d="m479 349c6.19-0.84 7.9 6.02 12 8.83 6.98 4.81 21.4 13.8 21.4 13.8l14.3 22.1 5.66 18.3-20 3.06s-27.8 7.74-40.4 2.84c-4.79-1.86-6.63-5.44-9.52-8.66-14.2-15.8 2.85-29.1 10.3-49 1.51-4.02 0.0647-10.4 6.24-11.3z" fill="#e3aac9"/>
  <path d="m393 543 7.56-20.8 16.7-10.6s7.11-9.33 11.4-8.41c2.75 0.592 4.34 8.41 4.34 8.41l27.3 41.5-0.753 28.4-48.8-24.7z" fill="#c700b4"/>
  <path d="m195-13 28 5.11-0.229 7.92-0.196 6.79s3.58 28.6-9.08 34.5c-2.51 1.19-12 2.35-12 2.35s-31.8-10.1-32-26.1c-0.0844-6.84 10.2-17.5 10.2-17.5z" fill="#550029"/>
  <path d="m-18 59.4 18-9.57s8-3.51 11.9-2.89c25.8 7.21 45.6 43.5 23 63.7l-11.2-7.47-23.7-24.9z" fill="#001c34"/>
  <path d="m449 72.4c1.39-5.67-0.0355-13.4 5.77-16.5 17-9.23 57.4 33.2 57.4 33.2l12.5 9.69 6.92 22.9-19.4-1.67s-21-2.15-31.6-1.37c-6.5 0.481-13.2 6.03-19.1 3.17-10.8-5.26-13.6-25.9-14.9-32.7-1.08-5.49 1.08-11.2 2.41-16.6z" fill="#e31caf"/>
  <path d="m500 344c0.548-5.03 12.2-9.02 12.2-9.02l12 3.27 32.6 24.3-4.04 26.2-33.4-16.2-7.06-14.6s-12.9-7.84-12.2-14z" fill="#00aa73"/>
  <path d="m452 506c6.73-2.1 23.9 5.97 23.9 5.97l0.43 0.334 34.6 26.9-11.8 16.3-19 15.6-19.3-29.5-10.2-29.3s-1.56-5.38 1.4-6.3z" fill="#e3006f"/>
  <path d="m86.9-50 14.6-13.7 19.3 17.6 5.01 36.9-4.68 9.17s-6.22 11.1-11.7 11.6c-6.69 0.567-16.5-11.6-16.5-11.6l-12.5-9.53z" fill="#1ce39d"/>
  <path d="m16.2 134c1.16-5.52 3.48-16.2 10.1-19 3.34-1.42 10.5 2.98 10.5 2.98l36 45.8s-1.62 14.3-12.5 24.9c-1.56 1.52-8.71 12-10 10.3-8.66-11.1-11-36.3-21.2-51.9-3.34-5.09-13.6-9.07-12.8-13z" fill="#0038dc"/>
  <path d="m499 126 28.2 7.71-26 27.6s-14.6 20.1-25.6 20.8c-14.6-7.54-16.1-43.6-11.2-49.6 9.08-10.7 34.6-6.48 34.6-6.48z" fill="#e3388e"/>
  <path d="m326 427c-14.9 7.27-0.645 42.3 14.9 52.9l10.8 7.36 36.9 6.08c3.11 5.59 7.66 12.5 14.2 13.7 11.9-7.34 29.8-8.65 40.5-19.5 4.82-4.93 8.5-18.9 8.5-18.9s-0.417-16-8.41-24.3c-6.77-6.99-21.2-11.5-21.2-11.5-0.055-0.0247-0.111-0.0478-0.172-0.0625-17.4 2.37-29.4-8.69-47.5-5.76z" fill="#b4da5d"/>
  <path d="m144-36 38.5 18.1-15 17.9s-5.14 10-9.94 11.9c-8.93 3.52-20.2 4.56-25.9-3.13-1.69-2.26-1.28-8.77-1.28-8.77l5.04-30.8z" fill="#38e3df"/>
  <path d="m396 27.6c-3.21-6.66 3.84-17 3.84-17l27.8-17.7 4.63 7.05s29.9 28.3 22.7 43.3c-10.8 11-34.8-2.16-46.9-6.48 0 0-9.74-4.17-12.2-9.2z" fill="#c700b4"/>
  <path d="m446 237c-0.284 1.8e-4 -0.566 0.0357-0.844 0.107-24.2 6.25-36.7 10-37.4 11.2-3.88 6.77-5.32 11.3-4.3 13.6 5.37 17.5 5.31 11 5.37 23.8 0.062 14 2.07 8.13-0.804 21.3-3.27 15.7-4.02 25.2-2.23 28.6 2.05 3.88 12.5 5.73 31.2 5.55 21.6-0.214 33.3-0.934 34.7-2.58 3.56-4.34 13-6.44 18.7-8.78l6.77-6.49c4.7-22.5-32.2-41.3-36.2-60.6 0.125-0.611 0.125-1.13-0.0215-1.54-5.7-16.1-10.7-24.1-15-24.1z" fill="#d08479"/>
  <path d="m238-35.6 35.3-15.2 27 15.5 0.782 35.2s0.57 6.81-1.12 9.32c-2.85 4.24-9.84 3.62-13 5.22-17.8 9.1-46.5-13.2-46.5-13.2l-11.1-12z" fill="#71e3d0"/>
  <path d="m29.9 0.189 0.149-0.189 2.32-2.94 20.7-20 11.7 3.96 16.6 19s11.4 7.54 12.3 18.7c0.284 3.72 0.176 7.35-3.44 11.5-4.26 4.9-3.48 5.74-12.2 2.75-17.1-5.89-48.1-32.8-48.1-32.8z" fill="#1c0024"/>
  <path d="m18.2 150c6.6-4.78 30.5 41.6 18 57.2-2.95 3.64-14-1.31-14-1.31l-42.8-27.2 20.6-15.4z" fill="#005528"/>
  <path d="m497 194c5.23 0.918 14.7 6.18 14.7 6.18l14.7 6.21-13 27.9-1.76-0.238s-14.4-0.951-20-4.89c-6.7-4.7-17.8-14.8-13.6-20.4 4.73-6.45 9.87-16.3 18.9-14.8z" fill="#e355c7"/>
  <path d="m362 500c7.43-1.9 14.5-1.74 21.4 2.09 4.63 2.58 11.9 10.3 11.9 10.3l2.15 2.25-11.2 25.7-19.1 1.93-41.4-12 18.5-17.8s10.2-10.5 17.8-12.4z" fill="#aa0016"/>
  <path d="m-54.2-37.1 39.9 3.59 31.6 25.6 4.85 5.94-17.3 17.4-55.1-29.8z" fill="#e3e3c9"/>
  <path d="m269 19.4c9.26 1.81 24.6 3.68 26.9 13 2.95 12.4-27.1 23.1-27.1 23.1s-20.2 18.7-29.8 9.56c-10.9-10.3-18.1-41.6-10.1-51.4 9.44-11.5 24.8 2.81 40.1 5.81z" fill="#710098"/>
  <path d="m494 59.4 28.4-15.1 33.8 35.2-7.42 29.5-1.82 1.62-11.2-7.47-23.7-24.9z" fill="#001c34"/>
  <path d="m460 233c3.44-4.56 10.8-4.61 17-2.25 16.8 6.42 34.9 41.6 34.9 41.6l0.733 1.03-0.733 5s-2.16 15.8-9.24 18.9c-9.68 4.11-19.7-14.4-19.7-14.4s-16.2-22.1-20.7-34.8c-1.69-4.77-5.23-11-2.19-15z" fill="#e37192"/>
  <path d="m324 105q0.228-0.706 4.17-3.74 0.253-0.195 48 5.83 3.06 0.386 7.67 6.46 0.296 0.39-4.67 50.6-0.319 3.22-3.21 6.73-0.186 0.226-15 2.62-0.952 0.153-38.1-54-2.38-3.47 1.17-14.5z" fill="#aa3886"/>
  <path d="m209 192q12.6 0.907 18 12.4 2.74 5.77 0.525 17.4-1.12 5.86-32.3 24.7-15.7 9.49-21.7-11.9-3.02-10.8 5.95-33.1 4.52-11.2 29.5-9.43z" fill="#5555a5"/>
  <path d="m311 256c-7.36 0.9-12.5 2.44-15.3 4.61-18.4 14.1-27.6 21.6-27.7 22.4-0.491 5.38-0.456 8.31 0.105 8.81 5.72 7.47 9.64 52.4 30.5 62.5 4.27 2.08 34.9-36.6 39.3-49.8 3.23-10.1 3.51-16.6 0.836-19.6-17.4-19.4-26.6-29.1-27.7-29z" fill="#8e80d2"/>
  <path d="m320 418c-2.87-30.3 77.4-46 79-44.4l51.2 51.6c0.032 0.26 0.0323 0.422 1e-3 0.487-0.693 1.43-1.53 2.13-2.51 2.09-21.7-0.86-33.3-1.46-34.7-1.8-13.8-7.2-91.1 1.34-92.9-8z" fill="#c7c716"/>
  <path d="m207 54.8c-7.16 5.31-16.8 18.5-19 26.9-4.71 20.9-4.38 32.9 0.996 35.8 20.1 10.8 37.1 30.6 44.2 36 2.33 4.81 5.59 7 9.8 6.56 31.5-3.29 47.3-5.83 47.6-7.62 2.88-10.5 2.22-12.6 5.23-18.2 4.63-8.08 20.2-17.1 16.4-24.2-9.28-17-45.5-19.7-53.3-21.9-7.29-3.4-12.7-11.9-15.2-13.5-21.2-13.8-27-27-36.7-19.8z" fill="#68252a"/>
  <path d="m285 209c3.86-10.1 26.8-16.3 28.2-15.9 12.6 3.21 17.2 2.25 17 4.47-0.707 19.3-1.64 29.8-2.8 31.4-10.1 13.8-15.5 20.8-16.4 20.9-7.6 0.933-12-0.0867-13.2-3.06-1.69-5.06-17.6-25.4-12.9-37.8z" fill="#8e5549"/>
  <path d="m125 207c26.2 12.7 30.2 8.47 39.6 19.9 6.92 8.45 11.2 21 8.63 31.6-0.756 3.12-3.38 6.37-6.51 7.1-18.1 4.2-40.4-5.72-51.9-20.3-3.06-3.88-2.88-9.83-2.04-14.7 1.51-8.74 11.6-23.9 12.3-23.6z" fill="#387112"/>
  <path d="m42.2 115q0.953-0.952 32.4-0.062 35.9 1.02 39.5 5.11 4.1 4.67-2.21 23.9-7.2 21.9-18.3 22.3-12.7 0.368-31.1-23.3-21.1-27-20.3-27.9z" fill="#1c3877"/>
  <path d="m360 183q1.25-0.593 16.2-3.01 0.806-0.13 25.5 59.4 1.33 3.2-5.21 14.6-0.352 0.614-11.9 3.56-0.624 0.158-46.6-29.5-2.47-1.6-1.35-32.3 0.06-1.65 23.3-12.7z" fill="#aa5517"/>
  <path d="m176 270q-0.063-0.508 4.11-6.81 1.03-1.56 38.7-24.3 9.3-5.61 34.2 32.1 6.14 9.32 5.46 16.8-0.169 1.84-26.7 18.4-6.55 4.09-45.8-26.6-9.69-7.58-9.95-9.63z" fill="#5571c4"/>
  <path d="m340 318c1.33-0.121 0.106-1.3 3.18 2.43 1.41 1.72 2.76 17.8 4.05 48.4 0.589 14-2.37 12.8-6.96 16.6-6.59 5.59-4.05 6.13-25.2 5.97-9.74-0.0747-16.3-2.06-19.8-5.96-1.59-1.79-2.43-2.84-2.52-3.13-0.0427-0.136 0.337-3.97 1.14-11.5 0.369-3.46 7.04-8.15 26.5-31.2 8.95-10.6 9.94-20.8 19.6-21.7z" fill="#8eaaa9"/>
  <path d="m425 111c-20-0.672-35.2 17.8-36.8 31.8-0.123 19.2 2.47 19.6-3.35 33.5-5.87 14 6.89 22.3 11.5 33.4 8.67 20.8 20.2 29.3 34.6 25.6 14.3-3.68 22.1-6.19 23.4-7.52 1.31-1.33 3.48-8.3 6.5-20.9 2.99-12.4 2.11-21.4-2.63-26.8-1.93-11.8-3.18-17-1.91-29.4 1.37-14.5-7.82-27.7-9.89-31.1-1.49-2.58-6.19-8.58-21.4-8.63z" fill="#c7477a"/>
  <path d="m275 161c19-2.86 30.1 10.8 29.8 23.4-0.26 11.1-16.6 15.7-27.1 19.3-13.4 4.57-30.2 8.88-42.4 1.66-4.99-2.97-7.33-9.82-7.73-15.6-0.429-6.26 1.36-13.6 5.96-17.8 26.5-14 14.2-6.77 41.5-10.9z" fill="#715517"/>
  <path d="m370 276q15.1-10.9 22.1-12.7 5.25-1.33 10.9 11.3 4.22 9.55-1.01 34.6-3.94 18.9-30.7 12-20.1-5.15-24-9.81-2.89-3.51 0.297-13.5 2.4-7.49 22.5-22z" fill="#aa8e8f"/>
  <path d="m304 45.5c12.1 20.7 18.2 32.4 18.2 35.2 0.0913 9.85-0.168 15-0.779 15.5-2.19 1.69-7.67 1.05-16.4-1.9-31.4-10.6-36.8-2.88-42.3-17.1-1.08-2.82-2.01-2.14 3.99-8.14 21.5-21.5 33.9-29.3 37.3-23.5z" fill="#8e1c7b"/>
  <path d="m142 127q18.5 0.245 20.1 25.3 1.53 24.6-18.4 31-19.5 6.3-26.9-4.67-7.25-10.8-0.431-31.5 6.69-20.4 25.6-20.1z" fill="#383880"/>
  <path d="m235 218q1.03-5.43 29.9-7.53 13-0.943 25.2 28.8 5.49 13.4-16.5 30.2-9.88 7.58-31.3-24.9-9.62-14.6-7.32-26.7z" fill="#7171ab"/>
  <path d="m371 327q26.9 6.88 29.4 11.5 3.3 6.25-0.684 15.2-5.38 12.1-22.6 21.9-23.2 13.1-24.4-15.3-1.61-38.4 18.4-33.3z" fill="#aaaa6e"/>
  <path d="m168 127c7.05-4.49 11.4-6.28 13.1-5.38 28.5 15.4 30.8 23 30.9 23.6 2.44 11.3 13.9 10.8 15.3 18.7 1.46 8.11-6.61 23.5-8.01 23.4-23.7-1.7-35.8-2.7-36.3-2.99-8.41-4.87-12.7-8.24-12.8-10.1-1.94-31.3-2.71-47-2.29-47.3z" fill="#553819"/>
  <path d="m405 356c2.84-6.41 15.3-9.72 37.3-9.94 18.4-0.181 25.5 16.3 12.5 39.4-4.99 22.9-11.1 26.2-30.5 6.63-16.2-16.4-22.6-28.4-19.2-36.1z" fill="#c7aa89"/>
  <path d="m305 132q11.7-13.3 26.6 8.52 24.6 35.8 15.3 40.2-15.2 7.23-23.2 5.2-13.1-3.33-18.7-13.1-9.26-16-8.46-22.3 1.33-10.4 8.44-18.5z" fill="#8e38a1"/>
  <path d="m126 195q0.128-0.981 35.2-12.3 4.31-1.39 16.2 5.51 1.46 0.846-10.6 30.7-1.48 3.66-37.5-13.8-4.42-2.14-3.38-10.1z" fill="#3855d9"/>
  <path d="m225 328c0.28-4.49 4.2-11.6 5.41-12.4 20.8-13 31.4-19.4 31.6-19.2 3.98 3.54 4.87 6.98 5.58 9.2 9.39 39.2 22.7 53.3 22.6 53.9-1.11 10.4-5.59 19-7.62 17.7-35.1-21.8-52.8-33-52.9-33.5-3.24-10.1-5-10.3-4.66-15.7z" fill="#718e19"/>
  <path d="m406 44.3c26.9 16.6 34.3 34.2 32.8 39.9-2.84 10.7 2.36 19.9-11.2 21.3-25.3 2.51-38.5 3.02-39.7 1.51-2.13-2.8-2.3-11.5-0.517-26 3.32-27 4.11-45.6 18.6-36.7z" fill="#c71cd1"/>
  <path d="m94.2 172c7.93-0.232 14.3 3.27 19.2 10.5 4.91 7.27 7.17 12.4 6.78 15.4-0.393 3.01-13.5 20.6-17.3 28.8-3.85 8.33-14.1 1.74-34.1-4.95-20.3-6.73-15.3-20.4-3.78-32 11.7-11.7 21.4-17.6 29.3-17.8z" fill="#1c5578"/>
  <path d="m330 234q3.07-4.21 42.6 21.4 8.84 5.71-19.9 26.5-6.42 4.64-31-22.9-5.49-6.14 8.25-25z" fill="#aa71c8"/>
 </g>
</svg>
