<?xml version="1.0" encoding="UTF-8"?>
<svg width="512px" height="512px" contentScriptType="text/ecmascript" contentStyleType="text/css" version="1.1" viewBox="0 0 512 512" xmlns="http://www.w3.org/2000/svg">
 <g class="voronoi" stroke-width=".5">
  <path d="m458-37.1 39.9 3.59 31.6 25.6 4.85 5.94-17.3 17.4-55.1-29.8z" fill="#e3e3c9"/>
  <path d="m271 16.4s-36.5-16.9-46-4.54c-7.73 10 5.62 46.7 5.62 46.7 28.2 21 48.6 26.7 77.5 36.4 14.2 4.65 10.8-7.16 15-12 4.17-4.9 3.62-8.8 9.52-16.8 5.9-7.98 28.6-22.7 25.3-32.4-3.52-10.2-40.7-11.9-40.7-11.9-15.6 0.718-30.6-2.92-46.2-5.48z" fill="#84098c"/>
  <path d="m-13.2 126 13.2 3.6s7.9 0.615 9.3 5.62c1.98 7.04-9.3 14.4-9.3 14.4l-10.9 11.6-25.6 20.8-12.6-8.24-3.62-33.7z" fill="#e3388e"/>
  <path d="m526 232 19.8-17.1 10.5 24.5 2.16 38.9-19.9 10.4-20.3-16.8z" fill="#007170"/>
  <path d="m472 427c12.4-2.44 39.6-4.55 39.6-4.55l18.6-2.48 2.17 0.445 0.978 25.5-27.4 28s-35.4-3.81-45.8-15.5c-7.53-8.44-2.05-26-2.05-26s8.51-4.41 13.9-5.46z" fill="#e3c7ec"/>
  <path d="m18.6 10.9s-13.6 9.44-13.7 16.6c-0.0879 8.08 10.5 12.4 15 19.1 10.1 15 27 47.1 27 47.1-0.135 9.35 9.94 14.3 30.2 14.9 22.2 0.629 33.6-7.8 34.3-25.3 0.617-17.1-0.839-28.5-4.37-34.3-25.2-14.5-79.4-49-88.4-38.1z" fill="#0e0e8d"/>
  <path d="m445-14.3 30.2 14 0.43 0.334 34.6 26.9s0.0967 14.8-4.22 20.1c-6.11 7.52-18.5 12.9-26.6 11.7-11.6-1.79-19.3-29.5-19.3-29.5l-10.2-29.3z" fill="#e3006f"/>
  <path d="m507 315c0.353-2.5 5.02-5.68 5.02-5.68l6.24-7.05 25.7-8.73 24.8 23-13 25.3-42-12.8-1.68-3.53s-5.57-6.7-5.02-10.6z" fill="#008ebf"/>
  <path d="m458 475c9.04-9.85 39.9 3.59 39.9 3.59l31.6 25.6 4.85 5.94-17.3 17.4-55.1-29.8s-9.23-17.1-4.02-22.8z" fill="#e3e3c9"/>
  <path d="m318-32.9 34.7 13.3-17.3 19.5s-7.28 11.7-13.1 14.8c-4.26 2.27-14.4 1.9-14.4 1.9l0.707-16.7 1.18-28z" fill="#8ee3e0"/>
  <path d="m111 30c2.05-5.48 11.6-13.2 11.6-13.2l24.7 0.928s25.3 12 42 23.9c6.93 4.98 6.91 20.8 0.958 25.6-13.5 10.9-54.7-8.93-54.7-8.93s-19.9-7.95-24.5-16.7c-1.83-3.43-1.42-8.03-0.053-11.7z" fill="#3800b4"/>
  <path d="m-41.1 70.8 11-5.22 42.6 33.1 6.92 22.9-51-4.39-23.3-10.1 3-20.3z" fill="#e31caf"/>
  <path d="m533 148 16.4 59.2-1.36 0.59-14-1.31-22.2-14.1s-13.5-4.97-13.8-13.1c-0.326-8.58 13.8-15.4 13.8-15.4z" fill="#005528"/>
  <path d="m479 343s3.7-6.25 7.54-5.17c13 3.63 25.2 33.9 25.2 33.9l14.3 22.1 5.66 18.3-60.2 9.24s-14.8-2.72-13.9-6.94c5.92-26.8 1.52-38 10.7-58.5 2.28-5.11 10.7-12.9 10.7-12.9z" fill="#e3aac9"/>
  <path d="m393 543 7.56-20.8 16.7-10.6s6.82-7.98 11.1-7.05c2.75 0.592 4.63 7.05 4.63 7.05l27.3 41.5-0.753 28.4-48.8-24.7z" fill="#c700b4"/>
  <path d="m363-67.1 14.3 29 0.542 20.5-26.2-6.56-21.7-19.2z" fill="#aae33b"/>
  <path d="m195-13 28 5.11-0.229 7.92-0.196 6.79s-0.613 33.9-13.3 39.9c-2.51 1.19-12.2-4.76-17.6-8.37-10.3-6.9-27.7-12.6-27.6-25 0.0981-6.84 15.6-13.3 15.6-13.3z" fill="#550029"/>
  <path d="m-18 59.4 18-9.57s7.12-2.41 10.9-1.27c20.4 6.14 30 51.8 30 51.8l-4.14 8.59-1.82 1.62-11.2-7.47-23.7-24.9z" fill="#001c34"/>
  <path d="m471 70.8s6.95-5.66 11-5.22c12.7 1.38 30.2 23.4 30.2 23.4l12.5 9.69 6.92 22.9-51-4.39s-19.2-2.73-23.3-10.1c-3.32-5.98 3-20.3 3-20.3z" fill="#e31caf"/>
  <path d="m502 334c2.84-3.42 9.75 0.951 9.75 0.951l12 3.27 32.6 24.3-4.04 26.2-33.4-16.2-7.06-14.6s-16-16.4-9.75-24z" fill="#00aa73"/>
  <path d="m448 498c8.23-7.46 26.9 13.8 26.9 13.8l0.43 0.334 34.6 26.9-11.8 16.3-19 15.6-19.3-29.5-10.2-29.3s-5.38-10.8-1.64-14.2z" fill="#e3006f"/>
  <path d="m86.9-50 14.6-13.7 19.3 17.6 5.01 36.9-4.68 9.17s-5.68 7.29-11.3 8.57c-8.29 1.88-16.8-8.57-16.8-8.57l-12.5-9.53z" fill="#1ce39d"/>
  <path d="m361-16.4 23.1 4.88 13.1 13.8-11.2 25.7-19.1 1.93s-25.4-0.298-28.8-14.2c-2.06-8.31 5.9-15.6 5.9-15.6z" fill="#aa0016"/>
  <path d="m50.7 114c-10.7-0.0568-6.55 1.96-16.9 5.48l-16.3 7.75c-7.71 6.61-4.73 13.5 9.46 21.5l55.4 13.8c20.5 2.98 23.8-12.1 26.7-20.4 4.56-13.6 5.88-21.6 3.94-23.8-1.7-1.93-14.5-3.24-38.4-3.92-10.5-0.297-18.4-0.44-23.8-0.43z" fill="#0e38a9"/>
  <path d="m499 126 28.2 7.71-26 27.6-25.6 20.8s-10.1-3.87-12.6-8.24c-9.34-16.6-13.1-39.6-1.97-57.1 2.97-4.67 37.8 9.26 37.8 9.26z" fill="#e3388e"/>
  <path d="m363 445 14.3 29s5.88 16.2 0.542 20.5c-7.03 5.64-26.2-6.56-26.2-6.56s-22.2-6.62-21.7-16.3c0.708-13.5 33.1-26.6 33.1-26.6z" fill="#aae33b"/>
  <path d="m144-36 38.5 18.1-24.9 29.8-28.6-3.55 6.41-39.1z" fill="#38e3df"/>
  <path d="m393 31.5c-2.05-7.1 7.56-20.8 7.56-20.8l27.8-17.7 31.9 48.6s3.81 17.5-4.32 22.4c-15.6 9.33-45.2-18.6-45.2-18.6s-15.7-6.59-17.8-13.8z" fill="#c700b4"/>
  <path d="m448 237c-0.232-0.0133-0.46 9e-3 -0.682 0.0664-19.4 5-29.8 8.52-31.1 10.6-7.51 11.2-9.41 12.5-9.23 19.7 0.154 6.27 8.36 12.2 8.8 16.6 0.394 4.04 1.1 20.8-0.159 29.5-2.7 18.7 5.13 27.9 23.5 27.7 23.6 2.86 32.9-4.55 51.8-11.2l6.77-6.49 4.94-11.3-40.8-50.4c-2.14-4.99-9.05-24.1-13.9-24.8z" fill="#d08479"/>
  <path d="m398 373c-16.6 18.1-26.1 22.6-34.5 35.8-5.35 8.42-1.21 27.6 0.411 30.6 5.82 10.6 13.1 22.8 18.5 29.5l6.3 26.1s7.83 12.1 14.2 13.2c12.1 2.16 34-14.2 34-14.2 8.01-6.27 10.6-16 14.7-25 0.358-8.41 7.33-36.9-4.14-48.3-17.5-17.3-29.6-35.7-49.1-47.7-0.12-0.0741-0.231-0.145-0.4-0.139z" fill="#bdd051"/>
  <path d="m238-35.6 35.3-15.2 27 15.5 0.782 35.2s0.376 5.82-1.44 8.24c-2.6 3.47-7.88 6.03-12.6 6.49-16.1 1.58-46.6-13.4-46.6-13.4l-11.1-12z" fill="#71e3d0"/>
  <path d="m29.9 0.189 0.149-0.189 2.32-2.94 20.7-20 11.7 3.96 16.6 19s28.8 9.5 29.6 20.7c0.284 3.72-4.84 15.4-11.2 16.7-11.2 2.14-33.5-16.9-33.5-16.9z" fill="#1c0024"/>
  <path d="m26.7 154c-9.5 0.036-18.5 4.79-26.7 9.61l-20.6 15.4 42.8 27.2c21.3 0.134 37.8 4.81 55.1 10.7 19.9 6.64 32.1 4.46 36.4-6.55 4.25-10.9 3.37-20.1-2.63-27.6-5.94-7.46-12.3-11.1-19.1-10.9-22.9-2.42-43.6-17.5-65.3-17.8z" fill="#005528"/>
  <path d="m486 185c7.36 8.67 26.4 16.1 26.4 16.1l14.7 6.21-13 27.9-1.76-0.238s-31.7 4.66-41-5.55c-7.43-8.18-6.14-23.2-1.28-33.1 2.86-5.84 13-14.8 15.9-11.4z" fill="#e355c7"/>
  <path d="m361 496 23.1 4.88 13.1 13.8-11.2 25.7-19.1 1.93-41.4-12 18.5-17.8z" fill="#aa0016"/>
  <path d="m-54.2-37.1 39.9 3.59 31.6 25.6 4.85 5.94-1.93 1.95s-6.02 12.1-13.2 13.1c-1.83 0.271-7.05-0.285-7.05-0.285l-50.2-27.1z" fill="#e3e3c9"/>
  <path d="m499 62.1c1.09-6.72 12.9-12.2 12.9-12.2l10.4-5.52 33.8 35.2-7.42 29.5-1.82 1.62-11.2-7.47-23.7-24.9s-14.3-7.63-12.9-16.2z" fill="#001c34"/>
  <path d="m460 233c7.13-6.62 28.5 6.35 28.5 6.35l24.1 34-0.733 5s-1.85 17.8-8.94 20.8c-9.68 4.11-20-16.4-20-16.4l-20.7-34.8s-5.89-11.6-2.19-15z" fill="#e37192"/>
  <path d="m319 103q2.17 0.729 6.1 7.18 0.136 0.224-50.6 37.4-1.76 1.29-23.2-16.9-0.744-0.631 5.12-47.1 0.204-1.61 62.6 19.4z" fill="#711cea"/>
  <g>
   <path d="m382 103c-5.65 0.156-12.5 2-20.4 5.53-12.5 5.53-12.6 17.8-9.36 38.7 1.15 7.46-2.3 49.5-8.28 61.6-6.5 13.2-0.482 25.5 18.1 36.8 18.8 11.4 29.7 16.7 32.7 15.9 3.07-0.801 6.81-4.49 11.2-11.1 4.47-6.66 1.69-19.2-8.35-37.6-7.43-13.6-7.53-33-6.27-42.6 0.719-5.49 3.91-16 6.49-32.6 2.67-17.1 2.95-27.1-4.75-32-3-1.92-6.69-2.82-11.1-2.7z" fill="#aa477c"/>
   <path d="m211 246c-10.9 1.31-17.1 4.74-18.5 10.3-0.833 3.36-5.44 9.58-2.36 18.5 6.99 20.3-21.9 45.7-12.1 59.1 8.93 7.61 22.6 12.5 27 10.9 11.1-4.01 19.2-9.88 24.3-17.6 10.2-14 18.7-24.7 29.5-38.5 3.45-1.59 1.53-10-5.77-25.3-4.43-9.25-8.37-15.3-11.8-18.1-9.61-2.56-21.7-0.299-30.2 0.709z" fill="#558089"/>
   <path d="m358 330c-3.33-0.0741-9.08 5.12-17.2 15.4-8.66 1.01-22 12.8-34.3 18.1-10.2 4.42-16.6 8.78-19 13.1-4.75 7.78 1.72 28.6 4.14 33.8 2.65 5.75 16.3-3.05 40.9-1.7 9.82 0.541 14.2 4.37 23.8-1.83 9.58-6.2 13.5-13.7 31.5-36.8 2.56-3.28 4.06-9.02 4.5-17.2-11.2-8.17-25.9-21.2-34.5-22.9z" fill="#9caa46"/>
  </g>
  <path d="m191 190q6.46-0.7 26.6 5.83 16.4 5.33 17.6 25.7 0.951 16.6-23 19.5-19.5 2.34-23.9-7.14-3.58-7.74-4.47-27.1-0.729-15.8 7.19-16.7z" fill="#55558b"/>
  <path d="m321 258c-6.08-0.111-12.9 4.59-20.4 14.1-4.26 8.43-21.1 20.2-20.6 27.9 7.8 42.3 13.1 62.9 15.9 61.7 24.5-10.6 37.4-16.6 38.5-18.1 10.3-13.3 15.4-20.1 15.4-20.3 3.95-8.62 2.61-10.2 5.14-15.3 1.63-3.43-5.37-17.1-21-40.9-3.87-5.9-8.17-8.9-12.9-8.98z" fill="#8e809c"/>
  <path d="m298 137c20.6-15.1 32-22.2 34.1-21.2 3.03 1.39 7.05 10.1 12.1 26.1 7.18 22.9 0.138 36.8-1.84 38.5-2.83 2.36-4.11-0.799-23.1-6.2-27.3-7.74-41.1-12.9-41.7-15.6-0.739-3.82 6.08-11 20.5-21.5z" fill="#8e386b"/>
  <path d="m171 189c-2.52 0.0152-5.86 0.387-10 1.12-23.8 4.17-36.9 9.1-39.1 14.8-15.1 34.7-12.3 42.7-7.18 63.3 1.34 5.38 3.1 4.91 9.39 13.7 0.162 0.227 19.5-6.58 58-20.4 0.992-0.356 5.57-4.65 4.71-13.5-1.21-12.6-8.37-20.3-8.66-31.1-0.801-17.4-1.5-26.3-2.11-26.8-0.861-0.7-2.55-1.04-5.06-1.03z" fill="#386364"/>
  <path d="m259 297q8.72-4.02 10.6-3.58 3.3 0.757 8.05 26.5 8.29 44.9 6.2 48.7-3.65 6.55-23-6.22-33.8-22.3-24-37.1 17.1-25.9 22.1-28.2z" fill="#718e60"/>
  <path d="m206 58.5q3.58-3.58 5.39-4.32 0.392-0.162 32.2 20.6 6.9 4.49 7.02 4.78 0.027 0.062-4.96 39.6-1.08 8.56-2.13 8.8-0.227 0.053-52.1-9.78-11.2-2.13-3.66-35.8 1.64-7.29 18.2-23.8z" fill="#551cc9"/>
  <path d="m273 179q3.69-11.7 23.7-6 49.4 14 43.8 25.4-13.8 28.1-15.1 28.8-3.27 1.9-13.2-3.3-24.5-12.8-29.1-20.7-11.5-19.5-10-24.2z" fill="#8e554f"/>
  <path d="m415 53.6q40.4 25 38.1 33.6-4.26 16-18.3 17.4-26.2 2.6-33.8-2.29-14.2-9.11-11.9-27.6 4.24-34.5 25.9-21.1z" fill="#c71c5c"/>
  <path d="m246 135q0.749-0.175 9.91 7.6 13 11 13.8 15.1 1.1 5.71-1.04 12.5-3.04 9.65-14.4 16.1-16.1 9.22-31.2 4.32-21.4-6.96-3.26-27 25.8-28.5 26.3-28.6z" fill="#71386b"/>
  <path d="m322 243q4.07-8.62 4.38-8.8 4.29-2.48 8.13-0.151 52.2 31.7 50.2 34-26.3 31.6-28.9 27.7-34.2-52.2-33.9-52.8z" fill="#aa711c"/>
  <path d="m342 415q14.4 0.792 15.4 2.67 0.335 0.602-0.792 13.9-0.362 4.26-28.7 32.6-9.08 9.08-15.6 10-2.08 0.295-20.9-15.2-6.03-4.97 2.86-36.3 2.85-10.1 47.6-7.6z" fill="#8ec7ba"/>
  <path d="m371 36.4q14.1-2 14.5-1 1.18 3.77-0.179 14.9-5.15 41.9-13.5 45.6-31.7 14.1-33.3 13.3-6.1-2.8-6.95-4.2-3.22-5.28-3.26-10.2-0.173-18.6 8.04-26.8 31-31 34.8-31.6z" fill="#aa1c3c"/>
  <path d="m177 124c-12.4 5.8-49.2-6.49-56.9 5.69-8.57 25.6-12.1 39.4-10.7 41.2 10.5 13.2 17.7 19.4 21.6 18.7 21.6-3.78 21-3.33 29.3-4.4 1.5-0.193 23.7-0.682 25.5-0.868 7.14-0.773 14.4-5.29 21.9-13.6 21.8-24.1 27.3-37.2 16.6-39.2-27.4-5.2-43.6-9.35-47.3-7.57z" fill="#4738c7"/>
  <path d="m153 276c21.6-7.75 28.6-10.1 31.7-3.93 3.72 7.43 2.42 16.6-3.67 30-7.33 16-12.3 25.9-25.6 24.2-16-2.08-24.8-8.79-26.4-20.1-1.96-13.6 6.04-23.6 24-30.1z" fill="#388e75"/>
  <path d="m398 358c0.231-4.25 2.37-7.46 6.41-9.62 3.37-1.8 15.8-2.81 37.4-3.02 18-0.178 20.7 11.7 14.7 39.2-4.99 22.9-14.1 26.2-34 6.14-16.6-16.7-24.7-27.6-24.5-32.7z" fill="#c7aa89"/>
  <path d="m440 110c-3.29 0.022-7.19 0.257-11.7 0.707-12.3 1.22-20.5-9.34-23.6 10.3-1.1 7.03-6.11 43.5-7.13 48.1-1.91 8.63-3.93 25 5.32 41.9 10.1 18.4 20.8 26.1 32.4 23.2 11.4-2.94 17.8-5.08 19.1-6.41 1.32-1.32 3.49-8.27 6.51-20.9 2.99-12.5 2.11-21.4-2.63-26.8-8.96-11.5-9.86-24.3-10.6-37.2-0.569-10.1 7.05-26.5 4.98-30-1.21-2.02-5.43-3.01-12.7-2.96z" fill="#c747b2"/>
  <path d="m293 220q27.4 14.3 26.5 16.2-3.48 7.37-9.87 15.5-25 31.6-26.8 32.2-7.3 2.34-8.36 2.1-4.14-0.948-7.72-8.44-14-29.3-7.21-35.8 26.5-25.4 33.5-21.7z" fill="#71713b"/>
  <path d="m49.7 286q8.21-8.21 26.2-9.92 33.1-3.15 36.6 1.63 6.26 8.8 8.16 22 3.48 24.2-0.51 29.2-7.34 9.17-22.9 3.58-28.5-10.3-36.8-21.5-15.2-20.6-10.8-25z" fill="#1c8e5d"/>
  <path d="m152 68.8q29.5 7.39 24.6 29.2-4.3 19.2-7.38 22.4-2.7 2.86-26.4 0.335-20.8-2.22-23.7-5.52-2.55-2.91-1.56-30.5 0.876-24.3 34.4-15.9z" fill="#381c86"/>
  <path d="m262 188q4.47-2.55 18.1 20.4 2.64 4.45-25.2 31.2-5.4 5.18-12.4-0.436-1.36-1.09-3.13-32-0.344-5.99 22.7-19.2z" fill="#7155cc"/>
  <path d="m42.6 212q0.301-0.3 0.855-0.441 1.69-0.43 16.6 4.52 45.3 15.1 46.2 18.8 2.69 11.4 2.28 16.3-1.25 15-13.9 16.2-38.5 3.66-41.9-10.9-10.2-44.4-10.1-44.5z" fill="#1c7145"/>
  <path d="m387 276q3.99-4.78 11.9-6.83 1.29-0.336 12.6 16.1 1.85 2.7-4.64 47.6-1.07 7.38-10.6 12.5-1.57 0.839-34.2-19.5-5.35-3.35-5.94-6.02-0.097-0.439 5.7-12.7 0.952-2.01 25.2-31.1z" fill="#aa8ed1"/>
 </g>
</svg>
