<?xml version="1.0" encoding="UTF-8"?>
<svg width="512px" height="512px" contentScriptType="text/ecmascript" contentStyleType="text/css" version="1.1" viewBox="0 0 512 512" xmlns="http://www.w3.org/2000/svg">
 <g class="voronoi" stroke-width=".5">
  <path d="m458-37.1 39.9 3.59 31.6 25.6 4.85 5.94-17.3 17.4-55.1-29.8z" fill="#e3e3c9"/>
  <path d="m334 29.9c-19.9-3.96-32.1 51.3-32.3 73.7l30.8 2.58c9.39 6.61 33.5-7.74 39.1-10.2 5.59-2.48 10.1-17.7 13.5-45.6 0.909-7.39 0.969-12.3 0.18-14.9-21-1.17-8.06 3.63-30.5-1.36z" fill="#b110c0"/>
  <path d="m-13.2 126 28.2 7.71-26 27.6-25.6 20.8-12.6-8.24-3.62-33.7z" fill="#e3388e"/>
  <path d="m34.3 429c2.32-3.06 56.6 15.1 56.6 15.1l-29.7 35.2-31.3 22.5s-20.4-6.9-21.2-24.3c-0.393-8.9 19.9-41.2 25.5-48.5z" fill="#00c7e4"/>
  <path d="m460 429 71-9.47 2.17 0.445 0.978 25.5-27.4 28-46.2-7.54-1.61-33.9z" fill="#e3c7ec"/>
  <path d="m445-14.3 30.2 14 0.43 0.334 34.6 26.9-11.8 16.3s-10.9 16.8-19 15.6c-11.6-1.79-19.3-29.5-19.3-29.5l-10.2-29.3z" fill="#e3006f"/>
  <path d="m-32 187 32 13.5s10.6 3.58 12.5 8.55c3.7 9.57-10.8 25.6-10.8 25.6l-42.8-5.79-1.28-33.1z" fill="#e355c7"/>
  <path d="m507 315 11.3-12.7 25.7-8.73 24.8 23-13 25.3-42-12.8-1.68-3.53z" fill="#008ebf"/>
  <path d="m458 475 39.9 3.59 31.6 25.6 4.85 5.94-17.3 17.4-55.1-29.8z" fill="#e3e3c9"/>
  <path d="m119 20c-5.4 2.25-8.18 10-8.18 10l0.0527 11.7c0.0631 14 5.58 28.6 7.14 43 1.1 10.1-0.145 28.6 1.56 30.5 1.93 2.2 9.84 4.05 23.7 5.53 15.8 1.68 24.6 1.57 26.4-0.336 13.7-23.9 0.635-60.5-2-84.7 0 0-5.83-13.6-14.3-17-7.65-3.03-24.8-2.68-34.4 1.3z" fill="#380e9d"/>
  <path d="m-41.1 70.8 11-5.22 42.6 33.1 6.92 22.9-51-4.39-23.3-10.1 3-20.3z" fill="#e31caf"/>
  <path d="m533 148 16.4 59.2-1.36 0.59-14-1.31-42.8-27.2 20.6-15.4z" fill="#005528"/>
  <path d="m70.7 329c-1.14 9e-3 -19.4 5.49-21.9 7.3 0 0-12.4 2.5-28.5 2.07-6.03-0.161-20.3-2.72-20.3-2.72l-12.9-3.52 19.9 41.1c11.6 14.6 9.77 33.2 22.1 44.1 14.3 12.7 18 6.56 53.9 19.4 9.14 3.27 10.6 6.97 15.3 4.44 10.8-5.89 9.12-23.2 10.6-35.4 1.29-10.7-2.11-21.6-1.68-32.4 0.362-9.18 9.83-17.9 3.59-27.3-10.7-16.1-25.2-11.8-40.1-17.1z" fill="#00aa73"/>
  <path d="m464 347c4.02-7.02 18.9-9.52 22.7-8.45 13 3.63 25.4 33.7 25.4 33.7l14.3 22.1 5.66 18.3-60.2 9.24s-18.2 0.79-18-3.53c0.615-13.4 13.4-35 13-55.2-0.118-5.49-5.57-11.5-2.84-16.2z" fill="#e3aac9"/>
  <path d="m178 444c-11.3-1.35-13.5 17-23.1 23.9l-19 13.6-5.04 30.8-1.37 8.35 28.6 3.55 24.9-29.8c12.4-11.6 40-44.9 25.3-46.7z" fill="#38e3df"/>
  <path d="m-18 59.4 18-9.57s7.29-0.272 18-12.9c7.22-8.56 30.5 28.6 30.5 28.6l-11.7 43.5-1.82 1.62-11.2-7.47-23.7-24.9z" fill="#001c34"/>
  <path d="m471 70.8 11-5.22 42.6 33.1 6.92 22.9-51-4.39-23.3-10.1 3-20.3z" fill="#e31caf"/>
  <path d="m-51.9 233 28.5 6.35 24.1 34-4.08 27.9-25.6-18.4-20.7-34.8z" fill="#e37192"/>
  <path d="m505 337c2.84-3.42 6.99-2.07 6.99-2.07l12 3.27 32.6 24.3-4.04 26.2-33.4-16.2-7.06-14.6s-13.3-13.4-6.99-20.9z" fill="#00aa73"/>
  <path d="m445 498 30.2 14 0.43 0.334 34.6 26.9-11.8 16.3-19 15.6-19.3-29.5-10.2-29.3z" fill="#e3006f"/>
  <path d="m86.9-50 14.6-13.7 19.3 17.6 5.01 36.9-4.68 9.17s-5 10-10.7 11.3c-8.29 1.88-17.5-11.3-17.5-11.3l-12.5-9.53z" fill="#1ce39d"/>
  <path d="m361-16.4 23.1 4.88 13.1 13.8-11.2 25.7-19.1 1.93s-30 3.32-33.4-10.6c-2.06-8.31 10.5-19.2 10.5-19.2z" fill="#aa0016"/>
  <path d="m41.8 114c-2.19 0.0923-3.4 1.23-8 5.96-3.53 5.13-7.77 9.95-11.6 15-7.44 9.7-22.2 29.2-22.2 29.2l-20.6 15.4 42.8 27.2 14 1.31c5.66 0.53 24.9-20.6 29.5-23.9l23.7-18.2c17.1-13.1 18.3-19.7 19.6-23.4 4.56-13.6 5.88-21.6 3.94-23.8-1.7-1.93-14.5-3.24-38.4-3.92-10.5-0.297-18.4-0.44-23.8-0.43-4.93 9e-3 -7.22-0.55-8.92-0.479z" fill="#005528"/>
  <path d="m499 126 28.2 7.71-26 27.6s-14.6 20.2-25.6 20.8c-5 0.258-10.1-3.89-12.6-8.24-9-15.7-7.83-36.3-2.72-54.3 2.37-8.35 38.6 6.42 38.6 6.42z" fill="#e3388e"/>
  <path d="m348 417c18.6 10.2 29 56.7 29 56.7l0.542 20.5s-21.5 3.68-30.3-1.3c-24.9-14.1-59.6-45.7-47.3-71.5 6.95-14.5 34-12.2 48.1-4.48z" fill="#aae33b"/>
  <path d="m144-36 38.5 18.1-15 17.9s-8.21 9.6-13 11.5c-8.93 3.52-18.7 5.45-23.9-1.41-1.69-2.26-0.281-10.1-0.281-10.1l5.04-30.8z" fill="#38e3df"/>
  <path d="m393 31.5c-2.05-7.1 7.56-20.8 7.56-20.8l27.8-17.7 31.9 48.6s7.38 23.6-0.753 28.4c-15.6 9.33-48.8-24.7-48.8-24.7s-15.7-6.59-17.8-13.8z" fill="#c700b4"/>
  <path d="m-5.02 315 11.3-12.7s16.8-10.6 25.7-8.73c13.4 2.88 28.1 16.9 30 28 1.64 9.35-19.8 9.85-19.8 9.85l-40.4-2.34-1.68-3.53z" fill="#008ebf"/>
  <path d="m466 275c-14.9-3-29.5 21.7-36.9 18.7-6.71-2.73-11.2 3.87-13.5 19.8-2.7 18.7 5.13 27.9 23.5 27.7 25 3.07 32.4-5.48 51.8-11.2l6.77-6.49 4.94-11.3s-19.8-33.8-36.6-37.2z" fill="#d58e4f"/>
  <path d="m-54.2 475 39.9 3.59 31.6 25.6 4.85 5.94-17.3 17.4-55.1-29.8z" fill="#e3e3c9"/>
  <path d="m417 433 33.9 1.52 0.463 34.4-8.5 18.9-6.21 6.11-34 14.2-14.2-13.2-6.53-27z" fill="#c7e30d"/>
  <path d="m29.9 0.189 0.149-0.189 2.32-2.94 20.7-20 11.7 3.96 16.6 19s21.2 14.1 22.1 25.3c0.284 3.72-32.9 23.7-50.5 29.7-10.2 3.47-23.9-15.9-27.8-28.7-2.57-8.48 4.79-26.2 4.79-26.2z" fill="#1c0024"/>
  <path d="m480 187 46.8 19.7-13 27.9-1.76-0.238s-52.6-2.13-49.4-15.5c0.393-1.64 2.72-16.4 7.16-23.1 2.47-3.74 10.2-8.73 10.2-8.73z" fill="#e355c7"/>
  <path d="m-32.7 343 10.8-5.21 36.2 56 5.66 18.3-60.2 9.24-12.9 1.37 13.5-62.4z" fill="#e3aac9"/>
  <path d="m86.9 462 14.6-13.7 19.3 17.6 5.01 36.9-12.6 24.7-20.3-15.5s-21.6-15.7-22-27.5c-0.275-9.22 16-22.6 16-22.6z" fill="#1ce39d"/>
  <path d="m365 498c7.56-2.17 19.3 2.8 19.3 2.8l13.1 13.8-11.2 25.7-19.1 1.93-41.4-12 18.5-17.8s13.2-12.1 20.8-14.3z" fill="#aa0016"/>
  <path d="m-54.2-37.1 39.9 3.59 31.6 25.6 4.85 5.94-1.93 1.95s0.293 40.6-6.26 32c-5.92-7.82-14-19.1-14-19.1l-50.2-27.1z" fill="#e3e3c9"/>
  <path d="m494 59.4 28.4-15.1 33.8 35.2-7.42 29.5-1.82 1.62-11.2-7.47-23.7-24.9z" fill="#001c34"/>
  <path d="m17.7 213-4.02 18.8s-12.2 27.2-7.62 39.9c2.96 8.26 11.6 15.4 20.3 16.8 18.8 3.04 48.1-20.8 53.2-20.7 4.51 0.0501 9.54-0.175 15.2-0.711 8.43-0.802 13.1-6.19 13.9-16.2 0.273-3.28-0.488-8.72-2.28-16.3-0.589-2.5-16-8.78-46.2-18.8-27.9-9.31-41.8-5.37-42.4-2.78z" fill="#0e715b"/>
  <path d="m460 233c7.13-6.62 20.4 0.962 28.5 6.35 11.2 7.46 23.4 33 23.4 33l0.733 1.03-4.08 27.9s-18.5-10.6-25.6-18.4c-9.13-9.95-20.7-34.8-20.7-34.8s-5.89-11.6-2.19-15z" fill="#e37192"/>
  <path d="m-52.4 429 71-9.47 2.17 0.445s-0.188 14.8-3.24 22.7c-3.73 9.68-17.5 25.1-17.5 25.1l-5.6 5.73-46.2-7.54-1.61-33.9z" fill="#e3c7ec"/>
  <path d="m29.9 512 0.149-0.189 2.32-2.94s11.4-17.9 20.7-20c4.01-0.899 11.7 3.96 11.7 3.96l38.6 44.3-6 9.46-27.5 2.24z" fill="#1c0024"/>
  <path d="m357 186q3.58-2.98 14.4-2.13 10.7 0.842 26 28.8 15.1 27.6 8.35 37.6-6.62 9.86-11.2 11.1-4.54 1.18-32.7-15.9-27.8-16.9-18.1-36.8 9.62-19.6 13.3-22.6z" fill="#aa5580"/>
  <path d="m287 291c-5.49 1.76-7.8 5.04-6.91 9.83 1.09 22.4-0.355 26.1 0.517 39.1 0.971 14.5 5.37 41.8 5.24 43.2-0.0747 0.81 2.09 6 6.5 15.6 2.65 5.75 16.3 9.31 40.9 10.7 14.8 0.816 11.3 1.66 14.6-2.02 8.96-10.2 5.05-15.4 0.356-40.7-1.11-6.01 1.7-42.4 1.67-42.5-0.411-1.87-2.69-3.84-6.85-5.91-36.7-18.3-55.4-27.3-56-27.1z" fill="#8e9c9e"/>
  <path d="m141 404q14.7 2.78 24.6 24 6.32 13.6-11.1 31-11.2 11.2-16.4 12.4-3.36 0.795-21.4-16.5-11.5-11.1-3.72-38.1 4.99-17.3 28-12.9z" fill="#38c798"/>
  <path d="m63.9 60.2q12.4-12.4 25.1-16 12.9-3.63 18.1 4.78 5.29 8.59 4.37 34.3-0.945 26.2-34.3 25.3-34-0.963-29.8-18.4 4.34-17.8 16.5-30z" fill="#1c1c7e"/>
  <path d="m361 108q21.2-9.42 31.5-2.83 11.6 7.41 7.55 33.1-4.51 28.9-10.9 33.3-7.18 4.89-17.3 4.09-11.4-0.898-20-28.4-9.68-30.9 9.2-39.3z" fill="#aa3878"/>
  <path d="m121 341c6.18-7.72 11.9-11.2 17.3-10.5 24 3.12 37.1 5.65 39.4 7.59 10.2 8.7 15.3 13.5 15.3 14.4-0.04 4.17-0.468 7.57-1.28 10.2-3.67 11.8-7.24 18.9-10.7 21-15.7 9.72-19.5 11.2-30.4 13.3-11.9 2.26-35.4 0.891-36.4-1.41-4.37-10.4-2.04-25.1-1.16-28.6 3.93-15.6 6.59-24.3 7.96-26z" fill="#38aa36"/>
  <path d="m398 373c34.9 35.2 52.3 52.7 52.3 52.8 0.0327 0.26 0.0333 0.422 2e-3 0.487-0.692 1.43-1.53 2.13-2.51 2.09-21.7-0.859-33.3-1.46-34.7-1.8-31.8-7.62-47.7-11.5-47.7-11.5-0.879-1.58-6.15 2.04-7.76 0.0176-1.6-2.01 0.86-6.36 1.75-7.5 19.8-25.3 37.1-36.1 38.7-34.5z" fill="#c7c716"/>
  <path d="m300 109c22.8 0.0756 29.5 5.81 31.7 6.78 3.03 1.39 7.05 10.1 12.1 26.1 7.18 22.9 9.79 35.2 7.81 36.9-2.83 2.36-13.8 0.835-32.8-4.57-27.3-7.74-27.3-9.23-27.8-11.9-0.739-3.82-5.37-42.7 9.01-53.3z" fill="#8e386b"/>
  <path d="m133 127c-8.53 4e-3 -13.1 1.01-13.8 3.03-9.17 18.2-9.57 24.2-18 33.7-10.1 11.4-25.7 14.7-37.3 26.3-11.5 11.5-7.17 20.6 13 27.3 7.67 3.47 36.1 9.7 36.4 15.6 1.76 7.49 8.06 9.64 18.9 6.46 30.9-9.09 46.3-16.7 46-22.8-0.801-17.4-0.613-18-2.11-26.8-3.51-20.8-1.97-55.3-16-61.1-11.4-1.21-20.4-1.82-27-1.82z" fill="#2f4bae"/>
  <path d="m416 248c1.38-2.05 11.8-5.58 31.1-10.6 3.55-0.917 9.48 11.3 15.6 28.5 1.12 3.15-7.35 8.95-25.8 18.2-3.4 1.71-5.13 5.94-16 1.04-2-0.898-6.7-6.73-14.1-17.5-1.36-1.97 1.72-8.55 9.23-19.7z" fill="#c771ce"/>
  <path d="m363 420c0.149-1.76 14.3 0.748 42.6 7.51 4.99 1.2-2.45 11.7-22.3 31.6-3.51 3.51-2.19-4.43-11.4-21.1-1.63-2.95-9.69-8.05-8.85-18z" fill="#aac7cf"/>
  <g>
   <path d="m285 182c-3.49 6.27-1.35 14.3-1.45 21.5-0.362 26-11 65.5 3.08 77.9-0.892 8.26 20.7 14.7 41.8 25.2 14.8 7.36 23.6 8.01 26.5 1.96 1.45-3.05-15.1-28.8-23.9-54.3-4.14-12 2.83-41 10-55.6 3.73-7.6-10.9-16.1-43.8-25.4-4.18-1.19-9.8 4.39-12.2 8.78z" fill="#8e6357"/>
   <path d="m180 230c-18.3-1.51-20.6 5.55-61.3 17.5-1.05 0.307-3.99 13.2-3.19 19.8 0.834 6.89 6.25 12.5 8.11 19.2 3.06 11 4.78 33 4.9 33.8 1.63 11.3 34.7 9.32 50.7 11.4 13.3 1.74 5.63-17.9 7.41-27 1.98-10.3 7.29-23.7 3.56-31.1-2.31-7.42-0.291-17.9-2.56-26.4-1.6-6.05-1.44-16.6-7.67-17.1z" fill="#388044"/>
   <path d="m404 49.9c-8.04 0.0336-13.1 8.31-15.1 24.8 6.84 22.9 20.2 38.9 16.5 67-2.61 16.7 5.09 24.8 23.1 24.1 15.3-0.556 23.8-9.34 25.4-26.4 3.27-14.7-1.92-29.9-0.955-52.3 1.53-5.74 2.7-2.79-24.2-19.4-4.07-2.51-21.6-17.9-24.7-17.9z" fill="#c72a69"/>
  </g>
  <path d="m333 247c5.31-15.7 5.18-12.1 17.7-5 34.8 21.1 35.3 24.2 34 25.8-17.6 21-27.2 30.3-28.9 27.7-22.8-34.8-17.5-34.9-22.9-48.5z" fill="#aa711c"/>
  <path d="m398 358c0.231-4.25 2.37-7.46 6.41-9.62 3.37-1.8 15.8-2.81 37.4-3.02 18-0.178 24 13.5 18 41-8.86 31.7-11 39.4-37.3 4.37-16.6-16.7-24.7-27.6-24.5-32.7z" fill="#c7aa89"/>
  <path d="m395 178q6.82-4.64 31.7-5.54 25.1-0.912 32.2 7.14 7.11 8.14 2.63 26.8-4.53 18.9-6.5 20.9-2 2-19.1 6.41-17.3 4.46-32.4-23.2-15.2-27.9-8.5-32.5z" fill="#c7557e"/>
  <path d="m47.6 291c5.47-5.47 16.4-14.3 28.4-15.5 22.1-2.1 34.3-1.56 36.6 1.63 4.18 5.86 6.9 13.2 8.16 22 2.32 16.2 2.15 25.9-0.51 29.2-4.89 6.11-12.5 7.31-22.9 3.58-19-6.85-31.3-14-36.8-21.5-10.2-13.7-15.9-16.5-12.9-19.5z" fill="#1c8e5d"/>
  <path d="m359 331c22.2 13.8 33.2 21.4 33.1 22.5-0.444 8.19-1.95 13.9-4.5 17.2-18.1 23.2-28.1 32.5-30 27.9-5.36 1.52-9.86-74.8 1.39-67.6z" fill="#aaaa29"/>
  <path d="m158 402c13.5-8.41 31.5-18 36.3-11.4 11.7 15.9 8.58 16 8.32 20-0.629 9.77 7.57 30.6 0.55 30.3-17-0.849-27-4.68-30.2-11.5-7.63-16.4-20.6-23.9-15-27.4z" fill="#55c74f"/>
  <path d="m387 276q3.99-4.78 11.9-6.83 1.29-0.336 12.6 16.1 1.85 2.7-4.64 47.6-1.07 7.38-10.6 12.5-1.57 0.839-34.2-19.5-5.35-3.35-5.94-6.02-0.097-0.439 5.7-12.7 0.952-2.01 25.2-31.1z" fill="#aa8ed1"/>
 </g>
</svg>
