<?xml version="1.0" encoding="UTF-8"?>
<svg width="512px" height="512px" contentScriptType="text/ecmascript" contentStyleType="text/css" version="1.1" viewBox="0 0 512 512" xmlns="http://www.w3.org/2000/svg">
 <g class="voronoi" stroke-width=".5">
  <path d="m291 220c-4.6-0.0305-10.7 7.91-24.2 15.5-6.58 3.69-39 8.67-55.2 10.6-22.7 4.44-21.4 11.9-13.3 28.1 2.6 5.11 14 9.91 34.2 14.4 12.2 2.72 21.2 2.77 26.9 0.152 9.79-0.616 15.5-1.92 23.6-4.49 1.2-0.4 10.1-5.77 26.8-26.8 4.26-5.42 12.1-13.5 9.87-20.9-5.06-8.85-22.7-16-28.5-16.6z" fill="#63714f"/>
  <path d="m458-37.1 39.9 3.59 31.6 25.6 4.85 5.94-17.3 17.4-55.1-29.8z" fill="#e3e3c9"/>
  <path d="m303 25.7 3.17-4.14 11.2 0.316s35.3 1.49 38.7 14.9c3.18 12.5-18.4 31.5-33.1 29.5-10.9-1.49-17.9-27.8-17.9-27.8z" fill="#8e00cf"/>
  <path d="m-13.2 126 28.2 7.71-26 27.6-25.6 20.8-12.6-8.24-3.62-33.7z" fill="#e3388e"/>
  <path d="m94.7 379c-6.35-0.013-15.6 0.61-27.8 1.87-6.2 0.641-18.8 7.01-25.9 13.7-5.61 5.34-10.8 16-11.9 20 0.528 5.1-7.06 26.8-8.14 32.4 0 0-16.8 16.9-17.9 31-0.84 10.1 13.5 19.5 13.5 19.5s5.53 7.73 9.59 7.52c7.75-0.415 10.4-11.7 16.7-16.2 5.57-4.03 12.9-5.23 18.3-9.53 13.5-2.82 23.7-26.9 37.1-38.8 9.2-8.19 3.8-11.9 10.6-35.4 1.73-5.99 1.88-18.3-3.79-24.1-2.44-2.52-3.99-1.93-10.3-1.95z" fill="#00d59e"/>
  <path d="m460 429 71-9.47 2.17 0.445 0.978 25.5-27.4 28-46.2-7.54-1.61-33.9z" fill="#e3c7ec"/>
  <path d="m4.93 27.5c0.0142-8.96 13.8-23.9 21-18.5 16.7 12.5 28.9 16 42.5 34 6.9 9.11-12.9 20.9-21.2 27-10.2 7.53-27.3-23.5-27.3-23.5s-15.1-10.9-15.1-19z" fill="#00009c"/>
  <path d="m445-14.3 30.2 14 0.43 0.334s32.5 8.34 34.6 22.8c0.947 6.64 1.08 18.7-4.32 25.4-5.96 7.39-18.3 11.8-26.4 10.6-11.6-1.78-19.3-29.5-19.3-29.5l-10.2-29.3z" fill="#e3006f"/>
  <path d="m-32 187 46.8 19.7-13 27.9-42.8-5.79-1.28-33.1z" fill="#e355c7"/>
  <path d="m507 315 11.3-12.7 25.7-8.73 24.8 23-13 25.3-42-12.8-1.68-3.53z" fill="#008ebf"/>
  <path d="m458 475 39.9 3.59 31.6 25.6 4.85 5.94-17.3 17.4-55.1-29.8z" fill="#e3e3c9"/>
  <path d="m318-32.9 34.7 13.3-30.4 34.4-14.4 1.9 0.707-16.7 1.18-28z" fill="#8ee3e0"/>
  <path d="m111 30c2.05-5.49 6.22-10.9 11.6-13.2 7.57-3.25 17-1.89 24.7 0.928 20.4 7.41 62.3 20.6 51.4 39.9-5.3 9.38-34.1 8.8-41.6 7.41-24.7-4.55-23 1.41-39.3-4.67-9.25-3.47-6.78-18.8-6.78-18.8s-1.41-7.94-0.06-11.5z" fill="#3800b4"/>
  <path d="m-41.1 70.8 11-5.22 42.6 33.1 6.92 22.9-51-4.39-23.3-10.1 3-20.3z" fill="#e31caf"/>
  <path d="m533 148 16.4 59.2-1.36 0.59-14-1.31-42.8-27.2 20.6-15.4z" fill="#005528"/>
  <path d="m-12.9 332 24.8 6.79s27.4 11.8 32.6 24.3c3.35 8.19 0.895 18.9-4.04 26.2-17.8 26.4-33.4-16.2-33.4-16.2l-7.06-14.6z" fill="#00aa73"/>
  <path d="m479 343 10.8-5.21 36.2 56 5.66 18.3-60.2 9.24-12.9 1.37 13.5-62.4z" fill="#e3aac9"/>
  <path d="m160 460c8.34-6.3 13.5 12.8 16.6 26.6 1.68 7.61-9.17 24.9-9.17 24.9l-9.94 11.9-28.6-3.55 1.37-8.35s3.04-24.1 8.17-33.2c5.33-9.37 6.91-7.33 21.6-18.4z" fill="#38e3df"/>
  <path d="m393 543 7.56-20.8 16.7-10.6s6.82-7.98 11.1-7.05c2.75 0.592 4.63 7.05 4.63 7.05l27.3 41.5-0.753 28.4-48.8-24.7z" fill="#c700b4"/>
  <path d="m195-13 28 5.11-0.229 7.92s0.362 10.2-2.42 14c-6.08 8.24-4.97 20.3-10.2 29-5.09 8.44-17.1-9.89-25.6-14.8-6.91-4.01-20.4-3.63-20.7-12.1-0.277-6.83 15.8-16 15.8-16z" fill="#550029"/>
  <path d="m-18 59.4 28.4-15.1 33.8 35.2-7.42 29.5-1.82 1.62-11.2-7.47-23.7-24.9z" fill="#001c34"/>
  <path d="m469 62.4c3.08-2.65 12.8 3.13 12.8 3.13l42.6 33.1 6.92 22.9-51-4.39s-19.2-2.7-23.3-10.1c-3.32-5.98-0.34-21.7-0.34-21.7s7.48-18.8 12.4-23z" fill="#e31caf"/>
  <path d="m-51.9 233 28.5 6.35 24.1 34-4.08 27.9-25.6-18.4-20.7-34.8z" fill="#e37192"/>
  <path d="m499 332 24.8 6.79 32.6 24.3-4.04 26.2-33.4-16.2-7.06-14.6z" fill="#00aa73"/>
  <path d="m445 498c8.23-7.46 30.2 14 30.2 14l0.43 0.334 34.6 26.9-11.8 16.3-19 15.6-19.3-29.5-10.2-29.3s-8.72-10.9-4.98-14.3z" fill="#e3006f"/>
  <path d="m86.9-50 14.6-13.7 19.3 17.6 5.01 36.9-12.6 24.7-32.7-25z" fill="#1ce39d"/>
  <path d="m361-16.4 23.1 4.88 13.1 13.8s-3.65 20.2-11.2 25.7c-5.17 3.77-19.1 1.93-19.1 1.93s-30.7-0.178-34.2-14.1c-2.05-8.31 11.3-15.7 11.3-15.7z" fill="#aa0016"/>
  <path d="m499 126 28.2 7.71-26 27.6s-14.6 20.2-25.6 20.8c-5.01 0.259-16.9-8.98-20.2-17.2-5.01-12.2 3.17-25.7 3.47-39.4 0.303-14 40.2 0.451 40.2 0.451z" fill="#e3388e"/>
  <path d="m327 415c-20-0.0745-30.7 2.62-32.3 8.09-5.93 20.9-18.6 30.7-14.6 34 12.5 10.3 31.3 17.7 32.7 17.5 12 4.99 25.6 10.1 38.8 13.8 11.6-10.3 24-21.1 32.2-28.9 19.9-19.9 27.3-30.4 22.3-31.6-15-5.63-32.1-6.8-48.2-9.84-5.12-0.966-5.8-2.14-15.4-2.67l-0.133 0.0703c-5.59-0.312-10.7-0.477-15.3-0.494z" fill="#a1d097"/>
  <path d="m144-36 38.5 18.1-24.9 29.8-28.6-3.55 6.41-39.1z" fill="#38e3df"/>
  <path d="m393 31.5c-2.04-7.09 7.56-20.8 7.56-20.8l27.8-17.7 31.9 48.6s7.38 23.5-0.753 28.4c-15.7 9.34-48.8-24.7-48.8-24.7s-15.6-6.61-17.7-13.8z" fill="#c700b4"/>
  <path d="m61 321-17.4 20.7-42-12.8-6.71-14.1 11.3-12.7 25.7-8.73" fill="#008ebf"/>
  <path d="m469 273c11.9 12.1 33 39.7 33 39.7l-4.94 11.3-6.77 6.49-13.1 3.47-34.6-37.7s18.2-31.6 26.4-23.3z" fill="#e38e16"/>
  <path d="m-54.2 475 39.9 3.59 31.6 25.6 4.85 5.94-17.3 17.4-55.1-29.8z" fill="#e3e3c9"/>
  <path d="m417 433-27.8 29.4-28.3 33-35.5 34.2 41.4 12 19.1-1.93 11.2-25.7-1.84-1.93c13.2-7.25 15.5-4.16 28.2-12.2l19.3-12.1 8.5-18.9s9.16-22.7 1.17-31c-7.87-8.12-35.5-5.01-35.5-5.01z" fill="#aa0016"/>
  <path d="m238-35.6 35.3-15.2 27 15.5 0.782 35.2 0.202 9.07-3.41 10-57.4-17.8-11.1-12z" fill="#71e3d0"/>
  <path d="m29.9 0.189 0.149-0.189 2.32-2.94 20.7-20 11.7 3.96 38.6 44.3s-2.8 7.53-6 9.46c-7.87 4.76-27.5 2.24-27.5 2.24z" fill="#1c0024"/>
  <path d="m20.9 144c13.3-15.5 24.9 40 33.4 60.1 2.39 5.65-18 3.69-18 3.69l-14-1.31-42.8-27.2 20.6-15.4s9.58-6.72 20.9-19.9z" fill="#005528"/>
  <path d="m480 187 46.8 19.7-13 27.9-42.8-5.79s-7.22-30.6-2.77-40.7c1.81-4.11 11.8-1.11 11.8-1.11z" fill="#e355c7"/>
  <path d="m-32.7 343 10.8-5.21 36.2 56s8.06 11.1 4.68 16.5c-3.57 5.71-19 4.86-19 4.86l-40.3 6.18-12.9 1.37 13.5-62.4z" fill="#e3aac9"/>
  <path d="m86.9 462c3.12-5.89 7.9-13.7 14.6-13.7 8.71-0.061 26.4 18.1 30.4 25.8 5.76 11-6.1 28.7-6.1 28.7l-12.6 24.7-20.3-15.5s-15.4-11.8-17.4-16.7c-5.07-12.7 4.96-21.3 11.4-33.4z" fill="#1ce39d"/>
  <path d="m-54.2-37.1 39.9 3.59 31.6 25.6 4.85 5.94-17.3 17.4-55.1-29.8z" fill="#e3e3c9"/>
  <path d="m417-78.8 33.9 1.52 0.463 34.4-8.5 18.9-6.21 6.11-34 14.2-14.2-13.2-6.53-27z" fill="#c7e30d"/>
  <path d="m271 16.4c8.79 3.39 26 3.83 25 13.2-0.752 7.11-22.6 34.4-40.7 36.8-13.2 1.77-26.3-3.6-35.6-18-7.88-12.2-1.13-27.3 10.4-42.4 8.55-11.2 27.8 5.37 40.9 10.4z" fill="#710098"/>
  <path d="m494 59.4 28.4-15.1 33.8 35.2-7.42 29.5-1.82 1.62-11.2-7.47-23.7-24.9z" fill="#001c34"/>
  <path d="m18.4 213s-8.01 10.9-9.92 17.2c-4.01 13.4-2.58 41.7-2.58 41.7s11.6 15.3 20.3 16.8c19.7 3.39 18.2-9.68 30.9-14.7 3.44-1.35 33.2-6.25 37.6-6.66 8.43-0.8 13.1-6.2 13.9-16.2 0.273-3.27-0.486-8.7-2.28-16.3-0.6-2.47-16-8.73-46.2-18.8-15.5-4.92-40.2-9.23-41.7-3.16z" fill="#0e715b"/>
  <path d="m460 233c7.13-6.63 28.5 6.35 28.5 6.35l24.1 34-4.08 27.9-25.6-18.4-20.7-34.8s-5.93-11.6-2.22-15z" fill="#e37192"/>
  <path d="m-52.4 429 71-9.47 2.17 0.445s-0.502 14.6-3.56 22.5c-3.73 9.68-17.2 25.2-17.2 25.2l-5.6 5.73-46.2-7.54-1.61-33.9z" fill="#e3c7ec"/>
  <path d="m29.9 512 0.149-0.189 2.32-2.94s11.4-17.9 20.7-20c4.01-0.899 11.7 3.96 11.7 3.96l38.6 44.3-6 9.46-27.5 2.24z" fill="#1c0024"/>
  <path d="m319 103q2.17 0.729 6.1 7.18 0.136 0.224-50.6 37.4-1.76 1.29-23.2-16.9-0.744-0.631 5.12-47.1 0.204-1.61 62.6 19.4z" fill="#711cea"/>
  <path d="m50.7 115c-5.4 0.0103-14.5-3.9-21.6 2.77l0.0837 12.6c-0.512 0.576 6.13 16 18.9 37.1-0.765 6.67 15.7 45.5 29.2 50.1 20 6.63 32.1 4.45 36.4-6.55 3.78-9.66 4.49-25.8 0.166-32.8-2.19-12.8-8.23-24.9-4.84-35 4.57-13.7 5.88-21.6 3.94-23.8-1.67-1.93-14.5-3.24-38.4-3.92-10.5-0.297-18.4-0.44-23.8-0.43z" fill="#1c477b"/>
  <path d="m357 186q3.58-2.98 14.4-2.13 10.7 0.842 26 28.8 15.1 27.6 8.35 37.6-6.62 9.86-11.2 11.1-4.54 1.18-32.7-15.9-27.8-16.9-18.1-36.8 9.62-19.6 13.3-22.6z" fill="#aa5580"/>
  <path d="m358 330c-3.49-0.0583-9.61 5.6-18.4 17l-17.4 8.92c-4.4 2.26-8.99 5.13-15.6 7.98-8.18 4.65-20.1 8.65-21.2 18.9-0.0733 0.8 2.09 6 6.5 15.6 2.6 5.77 16.2 9.34 40.9 10.7 34.7 3.34 38.7 7.65 79.9 17.5 1.4 0.34 25.8 9.18 34.7 1.8 1.72-1.42 0.231-5.19 0.924-6.63-25.8-26.5-33.6-32.9-49.6-50.9-4.15-4.67-2.77-13.5-6.28-18-8.48-10.8-26-21.3-34.4-22.9z" fill="#aab436"/>
  <path d="m141 404q14.7 2.78 24.6 24 6.32 13.6-11.1 31-11.2 11.2-16.4 12.4-3.36 0.795-21.4-16.5-11.5-11.1-3.72-38.1 4.99-17.3 28-12.9z" fill="#38c798"/>
  <path d="m63.9 60.2q12.4-12.4 25.1-16 12.9-3.63 18.1 4.78 5.29 8.59 4.37 34.3-0.945 26.2-34.3 25.3-34-0.963-29.8-18.4 4.34-17.8 16.5-30z" fill="#1c1c7e"/>
  <path d="m361 108q21.2-9.42 31.5-2.83 11.6 7.41 7.55 33.1-4.51 28.9-10.9 33.3-7.18 4.89-17.3 4.09-11.4-0.898-20-28.4-9.68-30.9 9.2-39.3z" fill="#aa3878"/>
  <path d="m240 134c-11.6 2.89-2.67 10.8-19.8 29.7-15.2 21.2-17.9 19.8-33 24.2-5.28 0.6-3.49 8.39-3 18.9 0.593 12.9 2.08 21.9 4.47 27.1 2.93 6.32 10.9 8.7 23.9 7.14 9.81-5.32 40.4-4.18 45.1-7.76 18.6-17.8 24.6-21.9 22.8-24.9-6.47-10.9-8.51-13.1-10.5-20.6-1.53-5.69-1.17-16.9-0.927-17.6 1.43-4.53 1.77-8.69 1.04-12.5-0.533-2.73-5.13-7.77-13.8-15.1-5.86-4.98-10.3-10.2-16.3-8.7z" fill="#684b96"/>
  <path d="m287 291q0.933-0.299 56 27.1 6.24 3.11 6.85 5.91 0.07 0.317-15.4 20.3-1.75 2.26-38.5 18.1-4.17 1.8-15.9-61.7-1.33-7.19 6.91-9.83z" fill="#8e8eda"/>
  <path d="m121 341q9.27-11.6 17.3-10.5 36 4.69 39.4 7.59 15.3 13.1 15.3 14.4-0.06 6.25-1.28 10.2-5.5 17.8-10.7 21-23.5 14.6-30.4 13.3-30.9-5.83-32.3-9.29-6.55-15.5-5.24-20.7 5.9-23.4 7.96-26z" fill="#38aa36"/>
  <path d="m298 137q30.9-22.7 34.1-21.2 4.54 2.08 12.1 26.1 10.8 34.4 7.81 36.9-4.25 3.54-32.8-4.57-40.9-11.6-41.7-15.6-1.11-5.73 20.5-21.5z" fill="#8e386b"/>
  <path d="m161 190q12.5-2.19 15.1-0.091 0.903 0.735 2.1 26.8 0.42 9.12-46 22.8-16.2 4.77-18.9-6.46-0.926-3.93 8.58-28.3 3.32-8.51 39.1-14.8z" fill="#3855b6"/>
  <path d="m416 248q2.07-3.08 31.1-10.6 5.33-1.38 14.5 24.4 1.68 4.72-20.3 26.7-4.04 4.04-20.4-3.31-3-1.35-14.1-17.5-2.03-2.96 9.23-19.7z" fill="#c771ce"/>
  <path d="m259 297q8.72-4.02 10.6-3.58 3.3 0.757 8.05 26.5 8.29 44.9 6.2 48.7-3.65 6.55-23-6.22-33.8-22.3-24-37.1 17.1-25.9 22.1-28.2z" fill="#718e60"/>
  <path d="m71.2 329q40.2 14.5 39.6 17-6.58 26.1-10.6 26.5-41.8 4.32-43.1 2.07-13.3-23.5-11.2-25.5 21.4-21.4 25.3-20z" fill="#1caa20"/>
  <path d="m206 58.5c2.39-2.39 4.18-3.83 5.39-4.32 0.261-0.108 11 6.76 32.2 20.6 4.6 2.99 6.94 4.59 7.02 4.78 0.018 0.0413-1.64 13.2-4.96 39.6-0.72 5.71-1.43 8.64-2.13 8.8-0.151 0.0353-17.5-3.22-52.1-9.78-7.47-1.42-14.3-22.3-9.29-44.7 1.09-4.86 12.8-3.87 23.8-14.9z" fill="#551cc9"/>
  <path d="m273 179q3.69-11.7 23.7-6 49.4 14 43.8 25.4-13.8 28.1-15.1 28.8-3.27 1.9-13.2-3.3-24.5-12.8-29.1-20.7-11.5-19.5-10-24.2z" fill="#8e554f"/>
  <path d="m179 230c-0.133-0.267-20.6 5.57-61.3 17.5-5.04 10.3-2.55 12.3-3.13 19.8-0.0166 0.207 2.01 6.61 7.27 20.4 1.28 3.36 6.32 13.9 6.9 17.9 4.6 14.3 13.9 18.4 26.4 20.1 13.3 1.73 23.7-5.4 31-21.4 6.09-13.3 7.28-23.7 3.56-31.1-3.72-4.73-4.34-20.1-3.03-26.1-1.88-6.81-2.69-8.17-7.67-17.1z" fill="#388044"/>
  <path d="m429 294q9 4.04 28.9 24.5 17.3 17.7 14.7 20.3-2.26 2.26-34 2.57-27.5 0.272-23.5-27.7 3.52-24.3 13.9-19.7z" fill="#c78e87"/>
  <path d="m202 353q7e-3 -0.754 20.9-8.34 2.29-0.83 50.2 30.8 5.24 3.46 4.98 6.38-0.03 0.319-29.4 8.82-3.21 0.931-42.5-27.6-4.3-3.13-4.24-10z" fill="#71aadb"/>
  <path d="m415 53.6q40.4 25 38.1 33.6-4.26 16-18.3 17.4-26.2 2.6-33.8-2.29-14.2-9.11-11.9-27.6 4.24-34.5 25.9-21.1z" fill="#c71c5c"/>
  <path d="m322 243q4.07-8.62 4.38-8.8 4.29-2.48 8.13-0.151 52.2 31.7 50.2 34-26.3 31.6-28.9 27.7-34.2-52.2-33.9-52.8z" fill="#aa711c"/>
  <path d="m235 295q13.9 3.08-5.37 32.2-7.66 11.6-24.3 17.6-6.61 2.4-20-9.02-5.33-4.54 9.07-36 5.73-12.5 40.6-4.8z" fill="#558eb0"/>
  <path d="m371 36.4q14.1-2 14.5-1 1.18 3.77-0.179 14.9-5.15 41.9-13.5 45.6-31.7 14.1-33.3 13.3-6.1-2.8-6.95-4.2-3.22-5.28-3.26-10.2-0.173-18.6 8.04-26.8 31-31 34.8-31.6z" fill="#aa1c3c"/>
  <path d="m176 124q1.48-1.56 48.4 7.35 16.1 3.06-16.6 39.2-11.2 12.4-21.9 13.6-3.67 0.398-6.27-1.71-0.891-0.724-6.14-40.3-1.8-13.6 2.5-18.1z" fill="#5538b7"/>
  <path d="m334 267q23.4 35.8 21 40.9-4.31 9.08-26.5-1.96-39.2-19.5-27.8-33.8 20-25.3 33.3-5.1z" fill="#8e715f"/>
  <path d="m398 358q0.346-6.38 6.41-9.62 5.06-2.7 37.4-3.02 27-0.267 18 41-7.49 34.4-37.3 4.37-24.9-25.1-24.5-32.7z" fill="#c7aa89"/>
  <path d="m258 394q20.8-6.02 24.6 2.29 6.76 14.7 2.51 29.7-7.5 26.5-21.8 31.2-25.3 8.34-32-0.165-11.9-15-11.4-22.5 0.85-13.2 10.1-21.8 16.3-15.2 28.1-18.6z" fill="#71c75f"/>
  <path d="m304 45.1q18.2 31 18.2 36.2 0.171 18.4-13.9 13.7-50.4-17-50.5-17.1-0.119-0.274 8.88-9.27 32.2-32.2 37.3-23.5z" fill="#8e1c3e"/>
  <path d="m161 128c3.64 0.388 7.51 16.1 11.6 47.2 0.576 4.34-13.3 8.97-41.5 13.9-3.95 0.693-13.7-19.7-15.5-31.2-1.46-9.58-2.55-14.7 4.57-28.7 1.2-3.58 14.8-3.98 40.8-1.21z" fill="#3838d6"/>
  <path d="m395 178q6.82-4.64 31.7-5.54 25.1-0.912 32.2 7.14 7.11 8.14 2.63 26.8-4.53 18.9-6.5 20.9-2 2-19.1 6.41-17.3 4.46-32.4-23.2-15.2-27.9-8.5-32.5z" fill="#c7557e"/>
  <path d="m49.7 286q8.21-8.21 26.2-9.92 33.1-3.15 36.6 1.63 6.26 8.8 8.16 22 3.48 24.2-0.51 29.2-7.34 9.17-22.9 3.58-28.5-10.3-36.8-21.5-15.2-20.6-10.8-25z" fill="#1c8e5d"/>
  <path d="m170 399q20.3-12.6 27.6-2.71 17.5 23.9 17.1 30-0.943 14.7-11.5 14.1-25.4-1.27-30.2-11.5-11.4-24.7-3.04-29.9z" fill="#55c74f"/>
  <path d="m152 68.8c28.2-5.1 27.9 14.7 24.6 29.2-2.87 12.8-5.33 20.3-7.38 22.4-1.8 1.91-10.6 2.02-26.4 0.335-13.9-1.48-21.8-3.32-23.7-5.52-1.7-1.94-5.38-24.9-4.72-43.3 0.584-16.2 20.9 3.13 37.6-3.14z" fill="#381c86"/>
  <path d="m428 110q21.7-2.16 24.4 2.25 3.1 5.19 1.04 26.9-2.43 25.5-25.4 26.4-27 0.981-23.1-24.1 4.6-29.5 23.1-31.4z" fill="#c73876"/>
  <path d="m387 276q3.99-4.78 11.9-6.83 1.29-0.336 12.6 16.1 1.85 2.7-4.64 47.6-1.07 7.38-10.6 12.5-1.57 0.839-34.2-19.5-5.35-3.35-5.94-6.02-0.097-0.439 5.7-12.7 0.952-2.01 25.2-31.1z" fill="#aa8ed1"/>
  <path d="m194 379q5.29-17.1 14.6-10.3 34.3 24.9 28.8 30-20.1 18.7-25.4 11.5-19.5-26.6-18-31.2z" fill="#55aa3d"/>
 </g>
</svg>
