<?xml version="1.0" encoding="UTF-8"?>
<svg width="512px" height="512px" contentScriptType="text/ecmascript" contentStyleType="text/css" version="1.1" viewBox="0 0 512 512" xmlns="http://www.w3.org/2000/svg">
 <g class="voronoi" stroke-width=".5">
  <path d="m377 420c-12.1-1.5-23.3 1.42-13 19.3 6.55 11.9 16.9 22.8 18.5 29.5l6.3 26 14.2 13.2s17-6.58 25.1-10.8c5.27-2.77 13.5-7.11 15.1-9.49 3.94-5.66 8.5-18.9 8.5-18.9l-0.463-34.4c-22.4-2.75-45-14-74.2-14.5z" fill="#b9d52f"/>
  <path d="m27.5 423c17.5-13.8 63.4 21.1 63.4 21.1l-29.7 35.2-9.71 3.23-21.7-32.9s-9.3-21.1-2.3-26.6z" fill="#00c7e4"/>
  <path d="m460 429 71-9.47 2.17 0.445 0.978 25.5-27.4 28s-28.7-5.33-46.2-7.54c-11.2-1.42-4.15-27.2-4.15-27.2z" fill="#e3c7ec"/>
  <path d="m318 479s25.6-1.55 28.5 10.5c2.07 8.44-11.1 22.4-11.1 22.4l-13.1 14.8-14.4 1.9 0.707-16.7 1.18-28z" fill="#8ee3e0"/>
  <path d="m33.1 462c9.15 5.35 13.4 21.8 7.76 30.8-4.37 7.02-17.1 9.27-24.3 5.18-8.83-5.03-14.5-19.9-9.74-28.9 4.26-8 18.4-11.7 26.2-7.15z" fill="#00e358"/>
  <path d="m458 475c11.6-6.62 39.9 3.59 39.9 3.59l31.6 25.6 4.85 5.94-17.3 17.4-28.7-15.5s-28.4-13.7-36.6-24.2c-2.94-3.75 2.02-10.5 6.16-12.9z" fill="#e3e3c9"/>
  <path d="m-12.9 332 24.8 6.79s27.4 11.8 32.6 24.3c3.35 8.19 0.517 18.7-4.04 26.2-19 31.6-33.4-16.2-33.4-16.2l-7.06-14.6z" fill="#00aa73"/>
  <path d="m456 353c7.06-10.2 15.7-17.6 27.7-14 12.9 3.83 28.3 32.7 28.3 32.7l14.3 22.1 5.66 18.3-60.2 9.24-12.9 1.37-3.88-51.6s-2.42-13.2 1.02-18.2z" fill="#e3aac9"/>
  <path d="m144 476c14.1-0.741 21.1 8.87 35.7 16.2 6.97 3.5-12.2 19.8-12.2 19.8l-9.94 11.9-28.6-3.55 1.37-8.35s0.748-22.2 6.57-30.8c1.89-2.8 3.77-5.07 7.15-5.25z" fill="#38e3df"/>
  <path d="m393 543 7.56-20.8 27.8-17.7 31.9 48.6-0.753 28.4-48.8-24.7z" fill="#c700b4"/>
  <path d="m503 337c2.84-3.42 9.13-1.38 9.13-1.38l12 3.27 32.6 24.3-4.04 26.2-33.4-16.2-7.06-14.6s-15.4-14.1-9.13-21.6z" fill="#00aa73"/>
  <path d="m187 445s23.3 0.345 31.7 7.13c7.03 5.64 12.6 15.5 11.5 24.5-0.969 8.31-15.6 19.6-15.6 19.6l-34-8.15s-24.7-11.2-24-22c0.825-12.3 30.4-21.1 30.4-21.1z" fill="#55e345"/>
  <path d="m452 499c8.23-7.46 23.8 12.2 23.8 12.2l0.43 0.334 34.6 26.9-11.8 16.3-19 15.6-19.3-29.5-10.2-29.3s-2.27-9.16 1.47-12.6z" fill="#e3006f"/>
  <path d="m356 446c11.6 1.33 20.6 28.3 20.6 28.3s7.64 15.4 2.31 19.7c-7.03 5.64-28-5.71-28-5.71s-29.5-13.6-21.7-19.2c8.82-6.38 15-24.3 26.7-23z" fill="#aae33b"/>
  <path d="m195 499 28 5.11-0.229 7.92-0.196 6.79-13.3 39.9-7.78-2.98-37.4-30.4 15.6-13.3z" fill="#550029"/>
  <path d="m-54.2 475 39.9 3.59 31.6 25.6 4.85 5.94-17.3 17.4-55.1-29.8z" fill="#e3e3c9"/>
  <path d="m-32.7 343 10.8-5.21 36.2 56 5.66 18.3-60.2 9.24-12.9 1.37 13.5-62.4z" fill="#e3aac9"/>
  <path d="m86.9 462s7.9-13.7 14.6-13.7c8.71-0.061 19.3 17.6 19.3 17.6l5.01 36.9-12.6 24.7-20.3-15.5s-20.9-19.2-22.8-24c-5.07-12.7 16.8-26 16.8-26z" fill="#1ce39d"/>
  <path d="m361 496 23.1 4.88 13.1 13.8-11.2 25.7-19.1 1.93-41.4-12 18.5-17.8z" fill="#aa0016"/>
  <path d="m-52.4 429 71-9.47 2.17 0.445 0.978 25.5-27.4 28-46.2-7.54-1.61-33.9z" fill="#e3c7ec"/>
  <path d="m238 476c8.73-9.39 22.5-15.9 35.3-15.2 10.4 0.607 21.7 6.61 27 15.5 5.99 10.1 0.782 35.2 0.782 35.2l0.202 9.07-3.41 10-57.4-17.8-11.1-12s2.63-18.5 8.62-24.9z" fill="#71e3d0"/>
  <path d="m29.9 512 0.149-0.189 2.32-2.94 20.7-20 11.7 3.96 38.6 44.3-6 9.46-27.5 2.24z" fill="#1c0024"/>
  <path d="m288 377q3.59-6.44 19-13.1 25.6-11 34.4 9.66 14.6 34.5 14.4 35.3-0.413 1.45-22.6 0.224-37-2.04-40.9-10.7-6.61-14.4-6.5-15.6 0.188-2.02 2.34-5.89z" fill="#8eaa62"/>
  <path d="m141 380c9.82 1.85 18.4 33.4 25 47.6 4.21 9.08 0.505 19.4-11.1 31-7.44 7.44-12.9 11.6-16.4 12.4-2.24 0.53-9.36-4.98-21.4-16.5-7.68-7.39-8.92-20.1-3.72-38.1 3.33-11.5 12.3-39.4 27.6-36.5z" fill="#38c798"/>
  <path d="m447 358c3.71 2.99 3.93 4.9 2.75 14-1.18 9.11 2.19 47 2.16 47.1-0.692 1.43-2.47 10.1-3.44 10-21.7-0.859-72.9-14-74.3-14.3-31.8-7.62-22.4-49.2-19.2-51.8-0.879-1.58 20.4-2.32 20.4-2.38 0.422-1.48 38.6-1.75 57.9-2.33 4.59-0.138 10.2-3.15 13.8-0.272z" fill="#c7c716"/>
  <path d="m45.5 391c14.3-14.3 15.3-9.49 21.4-10.1 24.3-2.52 37-2.49 38.1 0.078 4.26 10.1 5.52 18.1 3.79 24.1-6.8 23.5-10.3 35.3-10.6 35.4-1.04 0.31-24.6-12.3-33.7-15.6-37.7-14.9-38.1-14.7-19.1-33.8z" fill="#1cc73b"/>
  <path d="m342 415q14.4 0.792 15.4 2.67 0.335 0.602-0.792 13.9-0.362 4.26-28.7 32.6-9.08 9.08-15.6 10-2.08 0.295-20.9-15.2-6.03-4.97 2.86-36.3 2.85-10.1 47.6-7.6z" fill="#8ec7ba"/>
  <path d="m258 400c13.8-4.01 22.9-9.62 25.4-4.07 4.5 9.79 5.34 19.7 2.51 29.7-5 17.6-12.3 28-21.8 31.2-16.9 5.56-27.5 5.51-32-0.165-7.92-10-11.7-17.5-11.4-22.5 0.567-8.82-0.0112-11.3 6.14-17 10.9-10.1 23.3-14.8 31.2-17.1z" fill="#71c75f"/>
  <path d="m157 382c13.5-8.41 35.3 7.77 40.1 14.4 11.7 15.9 17.4 25.9 17.1 30-0.629 9.77-4.45 14.5-11.5 14.1-17-0.849-27-4.68-30.2-11.5-7.63-16.4-21.2-43.5-15.6-47z" fill="#55c74f"/>
  <path d="m194 379c3.52-11.4 34.1-9.35 50.8-6.04 9.84 1.95 44.7 5.23 26.3 14.7s-55.5 27.4-59 22.6c-13-17.7-19-28.1-18-31.2z" fill="#55aa3d"/>
 </g>
</svg>
