<?xml version="1.0" encoding="UTF-8"?>
<svg width="512px" height="512px" contentScriptType="text/ecmascript" contentStyleType="text/css" version="1.1" viewBox="0 0 512 512" xmlns="http://www.w3.org/2000/svg">
 <g class="voronoi" stroke-width=".5">
  <path d="m458-37.1 39.9 3.59 31.6 25.6 4.85 5.94-17.3 17.4-55.1-29.8z" fill="#e3e3c9"/>
  <path d="m361-16.4-35.5 34.2-19.7 3.72c-6.92 1.31-2.06 10.6-0.969 16.9l18.7 33c-0.581 2.81 5.49 15.3 5.52 18.6 0.024 2.63 13.4 5.64 40.2 9.03 7.08 0.895 12.6-15.1 16.7-48 0.986-15.8 5.33-34.4 11.2-48.8l-13.1-13.8z" fill="#aa0016"/>
  <path d="m-13.2 126 13.2 3.6s4.9 1.36 6.31 6.37c1.98 7.04-6.31 13.7-6.31 13.7l-10.9 11.6-25.6 20.8-12.6-8.24-3.62-33.7z" fill="#e3388e"/>
  <path d="m27.5 419c3.21-22.3 50.1 10 56.6 30.8 3.23 9.71-12.8 16.9-26.3 24.2-15.9 8.69-40.8 27.1-50.6 11.8-7.76-12.1 10.6-23.9 14.4-36.3 2.69-8.78 3.06-11.1 4.37-20.1z" fill="#00c7e4"/>
  <path d="m460 429 71-9.47 2.17 0.445 0.978 25.5-21.8 22.3s-6.11 3.09-8.65 3.92c-14.8 4.88-43.2-5.73-43.2-5.73l-1.61-33.9z" fill="#e3c7ec"/>
  <path d="m320 479c11-0.298 23.8 3.26 26.7 15.3 2.07 8.44-11.7 17.5-11.7 17.5l-13.1 14.8-14.4 1.9 0.707-16.7s0.0833-20.3 5.31-28c2.17-3.2 3.28-4.62 6.44-4.7z" fill="#8ee3e0"/>
  <path d="m4.93 27.5c0.0781-7.17 6.66-15.1 13.7-16.6 13-2.79 25.8 4.63 33.1 15.8 5.6 8.59 9.63 24.6 1.38 30.7-10.2 7.53-22.8-3.45-33.1-10.8-6.57-4.72-15.1-11-15-19.1z" fill="#00009c"/>
  <path d="m445-14.3 30.2 14 0.43 0.334s32.5 12.4 34.6 26.9c0.941 6.64-5.66 13.6-11.8 16.3-5.68 2.45-18.4-2.4-18.4-2.4s-12-8.13-16.5-13.7c-6.27-7.9-13.6-27-13.6-27z" fill="#e3006f"/>
  <path d="m465 483c9.04-9.85 32.4-4.73 32.4-4.73l31.6 25.6 4.85 5.94-17.3 17.4-28.7-15.5s-22.4-5.14-26.5-14.3c-2.01-4.53-1.65-8.77 3.56-14.4z" fill="#e3e3c9"/>
  <path d="m318-32.9 34.7 13.3-30.4 34.4s-7.41 2.33-11-0.928c-4.12-3.77-2.68-13.9-2.68-13.9l1.18-28z" fill="#8ee3e0"/>
  <path d="m122 16.8c-5.37 2.31-11.6 13.2-11.6 13.2-14.7 12.4-35 18.6-46.8 30.1-8.12 8.12-13.6 18.1-16.5 30-2.83 11.6 7.1 17.7 29.8 18.4 8.98 0.254 15.7-2.4 21.6-3.68 17.6-3.79 18.6 9.15 28.3 12.6 4.85 1.7 3.24 3.75 14.9 3.9 13.3 0.175 21.7-0.851 25.2-3.08 3.97-2.53 7.3-9.76 9.98-21.7 1.69-18.2 28.1-45.5 11.8-54.8 0 0-26.5-19.5-42-23.9-7.91-2.26-17.1-4.18-24.7-0.928z" fill="#2f1332"/>
  <path d="m-41.1 70.8 11-5.22 42.6 33.1s7.44 9.21 2.41 15.4c-4.09 5.03-14.9 5.82-14.9 5.82l-31.6-2.72-23.3-10.1 3-20.3z" fill="#e31caf"/>
  <path d="m533 148 16.4 59.2-1.36 0.59-14-1.31-22.2-14.1s-8.62-4.19-8.93-12.3c-0.326-8.58 8.93-16.2 8.93-16.2z" fill="#005528"/>
  <path d="m-12.9 332 24.8 6.79s27.4 11.8 32.6 24.3c3.35 8.19-4.43 19.7-12.3 23.8-11 5.75-25.2-13.8-25.2-13.8l-7.06-14.6z" fill="#00aa73"/>
  <path d="m479 349c6.19-0.84 7.9 6.02 12 8.83 6.98 4.81 21.4 13.8 21.4 13.8l14.3 22.1 5.66 18.3-20 3.06s-27.8 7.74-40.4 2.84c-4.79-1.86-6.63-5.44-9.52-8.66-14.2-15.8 2.85-29.1 10.3-49 1.51-4.02 0.0647-10.4 6.24-11.3z" fill="#e3aac9"/>
  <path d="m141 479c14.9-0.512 52.5 11.4 42.5 17.4-6.68 4.02-16.2 15.6-16.2 15.6l-9.94 11.9-28.6-3.55 1.37-8.35s-0.581-13.4 1.61-19.5c1.83-5.13 5.87-13.3 9.25-13.5z" fill="#38e3df"/>
  <path d="m393 543 7.56-20.8 16.7-10.6s7.11-9.33 11.4-8.41c2.75 0.592 4.34 8.41 4.34 8.41l27.3 41.5-0.753 28.4-48.8-24.7z" fill="#c700b4"/>
  <path d="m195-13 28 5.11-0.229 7.92-0.196 6.79s3.58 28.6-9.08 34.5c-2.51 1.19-12 2.35-12 2.35s-31.8-10.1-32-26.1c-0.0844-6.84 10.2-17.5 10.2-17.5z" fill="#550029"/>
  <path d="m-18 59.4 18-9.57s8-3.51 11.9-2.89c25.8 7.21 45.6 43.5 23 63.7l-11.2-7.47-23.7-24.9z" fill="#001c34"/>
  <path d="m449 72.4c1.39-5.67-0.0355-13.4 5.77-16.5 17-9.23 57.4 33.2 57.4 33.2l12.5 9.69 6.92 22.9-19.4-1.67s-21-2.15-31.6-1.37c-6.5 0.481-13.2 6.03-19.1 3.17-10.8-5.26-13.6-25.9-14.9-32.7-1.08-5.49 1.08-11.2 2.41-16.6z" fill="#e31caf"/>
  <path d="m500 344c0.548-5.03 12.2-9.02 12.2-9.02l12 3.27 32.6 24.3-4.04 26.2-33.4-16.2-7.06-14.6s-12.9-7.84-12.2-14z" fill="#00aa73"/>
  <path d="m185 460c-12.1 2.58-16.2 4.22-18.8 13.5-2.88 10.5 15.3 9.91 15.3 9.91s33.8 9.21 48.5 18.1c4.03 2.45 9.62 10.3 9.62 10.3l1.23 1.32 57.4 17.8 3.41-10-0.201-9.07s3.02-25.2-2.97-35.3c-5.29-8.93-15.7-11.9-24.8-15.5-27.4-10.7-59.9-7.26-88.7-1.12z" fill="#71e3d0"/>
  <path d="m452 506c6.73-2.1 23.9 5.97 23.9 5.97l0.43 0.334 34.6 26.9-11.8 16.3-19 15.6-19.3-29.5-10.2-29.3s-1.56-5.38 1.4-6.3z" fill="#e3006f"/>
  <path d="m86.9-50 14.6-13.7 19.3 17.6 5.01 36.9-4.68 9.17s-6.22 11.1-11.7 11.6c-6.69 0.567-16.5-11.6-16.5-11.6l-12.5-9.53z" fill="#1ce39d"/>
  <path d="m50.8 115c-7.83 2.54-19.1-1.37-24.5 0.492-6.62 2.8-8.94 13.5-10.1 19l0.102 0.0801c-0.8 3.93 9.46 7.91 12.8 13 10.2 15.6 12.5 40.8 21.2 51.9 1.29 1.7 8.44-8.78 10-10.3 11.9-9.68 19-22.1 33.3-22.4 7.4-0.267 13.5-7.7 18.3-22.3 4.21-12.8 4.94-20.8 2.21-23.9-2.4-2.73-15.6-4.43-39.5-5.11-10.5-0.297-18.4-0.44-23.8-0.43z" fill="#0e3834"/>
  <path d="m499 126 28.2 7.71-26 27.6s-14.6 20.1-25.6 20.8c-8.53 0.531-19.4-9.16-21.7-13.6-6.36-12.2 0.362-24.1 10.5-36 9.08-10.7 34.6-6.48 34.6-6.48z" fill="#e3388e"/>
  <path d="m358 393c-10.5 12.7-7.79 42.8-11.9 57.7-3.77 13.7-13.1 23.7-5.09 29.2 13.8 11.5 30.2 10.6 47.7 13.4 3.11 5.59 7.66 12.5 14.2 13.7 11.9-7.34 29.8-8.65 40.5-19.5 4.82-4.93 8.5-18.9 8.5-18.9 2.43-15.6 1.42-34.1-1.71-43.5-5.26-15.4-51.2-51.6-51.2-51.6-5.48-5.52-38.9 18.3-41 19.5z" fill="#bdd18d"/>
  <path d="m201 496c4.57-0.764 13.5 4.97 13.5 4.97l8.59 10.9-0.196 6.79-13.3 39.9-7.78-2.98-37.4-30.4 15.6-13.3s14.3-14.8 20.9-15.9z" fill="#550029"/>
  <path d="m144-36 38.5 18.1-15 17.9s-5.14 10-9.94 11.9c-8.93 3.52-20.2 4.56-25.9-3.13-1.69-2.26-1.28-8.77-1.28-8.77l5.04-30.8z" fill="#38e3df"/>
  <path d="m396 27.6c-3.21-6.66 3.84-17 3.84-17l27.8-17.7 4.63 7.05s29.9 28.3 22.7 43.3c-10.8 11-34.8-2.16-46.9-6.48 0 0-9.74-4.17-12.2-9.2z" fill="#c700b4"/>
  <path d="m-54.2 475 39.9 3.59 14.3 11.6s21.2 8.4 29.9 4.92c5.24-2.08-7.72 15.1-7.72 15.1l-17.3 17.4-55.1-29.8z" fill="#e3e3c9"/>
  <path d="m238-35.6 35.3-15.2 27 15.5 0.782 35.2s0.57 6.81-1.12 9.32c-2.85 4.24-9.84 3.62-13 5.22-17.8 9.1-46.5-13.2-46.5-13.2l-11.1-12z" fill="#71e3d0"/>
  <path d="m29.9 0.189 0.149-0.189 2.32-2.94 20.7-20 11.7 3.96 16.6 19s11.4 7.54 12.3 18.7c0.284 3.72 0.176 7.35-3.44 11.5-4.26 4.9-3.48 5.74-12.2 2.75-17.1-5.89-48.1-32.8-48.1-32.8z" fill="#1c0024"/>
  <path d="m18.2 150c6.6-4.78 30.5 41.6 18 57.2-2.95 3.64-14-1.31-14-1.31l-42.8-27.2 20.6-15.4z" fill="#005528"/>
  <path d="m-32.7 343 10.8-5.21 21.9 33.9s9.61 11.6 16.6 17c5.21 3.99 22 4.14 19.6 11.5-3.89 11.8-36.3 15.1-36.3 15.1l-40.3 6.18-12.9 1.37 13.5-62.4z" fill="#e3aac9"/>
  <path d="m76.2 471c3.12-5.9 18.6-22.7 25.3-22.7 8.71-0.062 15.3 9.89 19.3 17.6 5.77 11 5.01 36.9 5.01 36.9l-12.6 24.7-32.7-25s-10.7-19.4-4.3-31.5z" fill="#1ce39d"/>
  <path d="m362 500c7.43-1.9 14.5-1.74 21.4 2.09 4.63 2.58 11.9 10.3 11.9 10.3l2.15 2.25-11.2 25.7-19.1 1.93-41.4-12 18.5-17.8s10.2-10.5 17.8-12.4z" fill="#aa0016"/>
  <path d="m-54.2-37.1 39.9 3.59 31.6 25.6 4.85 5.94-17.3 17.4-55.1-29.8z" fill="#e3e3c9"/>
  <path d="m269 19.4c9.26 1.81 24.6 3.68 26.9 13 2.95 12.4-27.1 23.1-27.1 23.1s-20.2 18.7-29.8 9.56c-10.9-10.3-18.1-41.6-10.1-51.4 9.44-11.5 24.8 2.81 40.1 5.81z" fill="#710040"/>
  <path d="m494 59.4 28.4-15.1 33.8 35.2-7.42 29.5-1.82 1.62-11.2-7.47-23.7-24.9z" fill="#001c34"/>
  <path d="m-52.4 429 52.4-6.99c6.87-0.0632 7.08 4.14 13.9 5.54s6.97 8.35 3.92 16.3c-3.73 9.68-17.8 23.9-17.8 23.9l-5.6 5.73-46.2-7.54-1.61-33.9z" fill="#e3c7ec"/>
  <path d="m29.9 512 0.149-0.189s-0.0122-2.87 0.544-4.15c4.55-10.5 10.8-23.4 21.8-26.4 6.77-1.84 19.9 4.37 19.3 8.44-1.63 11.1 9.71 22.1 9.71 22.1l22.1 25.3-6 9.46-27.5 2.24z" fill="#1c0024"/>
  <path d="m324 105q0.228-0.706 4.17-3.74 0.253-0.195 48 5.83 3.06 0.386 7.67 6.46 0.296 0.39-4.67 50.6-0.319 3.22-3.21 6.73-0.186 0.226-15 2.62-0.952 0.153-38.1-54-2.38-3.47 1.17-14.5z" fill="#aa38e4"/>
  <path d="m296 261c-18.4 14.1-22.6 11.7-27.7 22.4-1.25 2.66-0.573 5.95 0.105 8.81 5.35 22.6 9.64 52.4 30.5 62.5 4.27 2.08 34.9-36.6 39.3-49.8 3.23-10.1 3.51-16.6 0.836-19.6-14.4-13.6-29.6-33.6-43-24.3z" fill="#8e80d2"/>
  <path d="m57.6 348c2.3-4.47 21.8-5.86 26.1-8.8 1.11-0.759 16 0.859 23.9 1.87 9.81 1.25 21.3-0.696 29.2 5.17 12 8.87 15.8 24.3 20.5 39.9 1.22 4.02-22.8 13.8-33.5 21.7-11.7 8.58-10.9 19.3-33.5 27.7-5.85 2.18-38.5-16.5-48.1-36.6-2.49-5.21 6.56-33.7 15.4-50.9z" fill="#38aac3"/>
  <path d="m207 54.8c-7.16 5.31-16.8 18.5-19 26.9-4.71 20.9-4.38 32.9 0.996 35.8 20.1 10.8 37.1 30.6 44.2 36 2.33 4.81 5.59 7 9.8 6.56 31.5-3.29 47.3-5.83 47.6-7.62 2.88-10.5 2.22-12.6 5.23-18.2 4.63-8.08 20.2-17.1 16.4-24.2-9.28-17-45.5-19.7-53.3-21.9-7.29-3.4-12.7-11.9-15.2-13.5-21.2-13.8-27-27-36.7-19.8z" fill="#682520"/>
  <path d="m278 380c4.47 2.77 6.76 4.35 6.88 4.72 0.016 0.052-34.8 6.66-52.3 5.15-6.46-0.559-15.9 0.646-18.7-5.2-4.73-9.89 2.73-6.59 13-30.2 1.41-3.23 18.4 5.31 51.1 25.6z" fill="#71aad6"/>
  <path d="m340 318c1.33-0.121 0.106-1.3 3.18 2.43 1.41 1.72 2.76 17.8 4.05 48.4 0.589 14 0.586 21.5-9e-3 22.3-0.274 0.375-11 0.481-32.2 0.319-9.74-0.0747-16.3-2.06-19.8-5.96-1.59-1.79-2.43-2.84-2.52-3.13-0.0427-0.136 0.337-3.97 1.14-11.5 0.369-3.46 7.04-8.15 26.5-31.2 8.95-10.6 9.94-20.8 19.6-21.7z" fill="#8eaaa9"/>
  <path d="m138 411c11.1-4.13 20.2 1.36 27.2 16.5 4.49 9.68 3.86 32.3-7.76 44-7.44 7.44-14.4 3.78-21.7 1.36-7.34-2.42-7-5.93-19-17.5-7.68-7.39-10.1-15.9-7.37-25.5 1.77-6.13 11.3-12.4 28.7-18.9z" fill="#38c798"/>
  <path d="m399 42.1c-8.06 0.602-9.09 17-11.8 38.9-1.5 20.9 2.49 43.1 0.967 61.5-1.6 16.4 9.2 24.1 32.6 23.3 19.8-0.7 30.6-9.6 32.2-26.6 1.37-14.5-4.48-16.4-6.55-19.9-0.375-19.7-5.7-16.9-7.8-35.1 1.5-5.7-5.9-23.3-32.8-39.9l-0.0176 0.0098c-2.72-1.67-4.95-2.37-6.81-2.23z" fill="#c72a69"/>
  <path d="m290 159c0.255-0.0267 15.5 16 13.5 25.4-2.27 10.4-15.4 15.6-25.4 19.4-13 4.97-29.6 10.1-41.7 3.15-5.52-3.15-7.55-10.8-8.41-17.1-0.836-6.13-0.883-13.8 3.44-18.3 19-14.3 45.2-11.3 58.6-12.6z" fill="#7155f0"/>
  <path d="m145 344c8.31 10.3 13.9 34.9 24.9 38.2 15.4 3.18 39.3 0.201 43.6-9.67 11.3-13.5 8.12-35.7 6.47-51.2-5.43-20.8-82.9 6.1-75 22.7z" fill="#559c8f"/>
  <path d="m304 45.5c12.1 20.7 18.2 32.4 18.2 35.2 0.0913 9.85-0.168 15-0.779 15.5-2.19 1.69-7.67 1.05-16.4-1.9-31.4-10.6-36.8-2.88-42.3-17.1-1.08-2.82-2.01-2.14 3.99-8.14 21.5-21.5 33.9-29.3 37.3-23.5z" fill="#8e1ccb"/>
  <path d="m142 127q18.5 0.245 20.1 25.3 1.53 24.6-18.4 31-19.5 6.3-26.9-4.67-7.25-10.8-0.431-31.5 6.69-20.4 25.6-20.1z" fill="#383880"/>
  <path d="m371 327q26.9 6.88 29.4 11.5 3.3 6.25-0.684 15.2-5.38 12.1-22.6 21.9-23.2 13.1-24.4-15.3-1.61-38.4 18.4-33.3z" fill="#aaaa6e"/>
  <path d="m163 396c0.869 20.3 7.8 39.6 14.8 54.8 18 1.84 31.7-3.34 50.4-3.28 13.3-0.233 22.9 5.6 39.8 0.0391 9.6-3.2 13.1-7 19.7-30.3 3.74-13.2 4-21.6 0.777-25.2-1.8-2.06-16.3 0.58-43.5 7.93-29.6 2.56-42.4-8.66-64.6-13.3-7.85-1.5-14.4 4.35-17.4 9.3z" fill="#63c7bc"/>
  <path d="m168 127c7.05-4.49 11.4-6.28 13.1-5.38 28.5 15.4 30.8 23 30.9 23.6 2.44 11.3 13.9 10.8 15.3 18.7 1.46 8.11-6.61 23.5-8.01 23.4-23.7-1.7-34.2-5.5-34.7-5.79-8.41-4.87-14.3-5.44-14.4-7.3-1.94-31.3-2.71-47-2.29-47.3z" fill="#553819"/>
  <path d="m405 356c2.84-6.41 15.3-9.72 37.3-9.94 18.4-0.181 25.5 16.3 12.5 39.4-4.99 22.9-11.1 26.2-30.5 6.63-16.2-16.4-22.6-28.4-19.2-36.1z" fill="#c7aa89"/>
  <path d="m305 132q11.7-13.3 26.6 8.52 24.6 35.8 15.3 40.2-15.2 7.23-23.2 5.2-13.1-3.33-18.7-13.1-9.26-16-8.46-22.3 1.33-10.4 8.44-18.5z" fill="#8e3863"/>
  <path d="m126 195c0.0853-0.654 11.8-4.75 35.2-12.3 2.87-0.927 41.5 5.55 49.4 10.2 14.5 8.44-26.9 24.5-43.8 26.1-13.3 1.22-13.5-2.16-37.5-13.8-2.95-1.43-4.07-4.79-3.38-10.1z" fill="#38552f"/>
  <path d="m225 328c0.28-4.49 4.2-11.6 5.41-12.4 20.8-13 16.5-18.7 27.4-18.1 4.23 0.229 9.07 5.9 9.78 8.12 9.39 39.2 22.7 53.3 22.6 53.9-1.11 10.4-5.59 19-7.62 17.7-35.1-21.8-52.8-33-52.9-33.5-3.24-10.1-5-10.3-4.66-15.7z" fill="#718e19"/>
  <path d="m94.2 172q11.9-0.348 19.2 10.5 7.37 10.9 6.78 15.4-0.589 4.52-6.3 16.8-5.78 12.5-35.8 2.47-30.4-10.1-13.1-27.4 17.5-17.5 29.3-17.8z" fill="#1c55cf"/>
  <path d="m322 399c7.53 0.0573 14.9 6.35 20.1 15.8 1.68 3.03 1.41 10.6 0.369 15.8-2.38 11.8 4.11 14-14.8 32.9-6.05 6.05-11.3 9.39-15.6 10-1.39 0.197-8.35-4.87-20.9-15.2-4.02-3.31-2.12-18.8 5.71-46.4 8.56-12.3 16.8-12.8 25.1-12.8z" fill="#8ec7ba"/>
 </g>
</svg>
