<?xml version="1.0" encoding="UTF-8"?>
<svg width="512px" height="512px" contentScriptType="text/ecmascript" contentStyleType="text/css" version="1.1" viewBox="0 0 512 512" xmlns="http://www.w3.org/2000/svg">
 <g class="voronoi" stroke-width=".5">
  <path d="m458-37.1 39.9 3.59 31.6 25.6 4.85 5.94-17.3 17.4-55.1-29.8z" fill="#e3e3c9"/>
  <path d="m303 25.7c0.415-1.69 1.6-3.39 3.17-4.14 3.36-1.6 7.47-0.164 11.2 0.316 13.6 1.77 43.3 13 43.3 13s-20.4 21.8-29.8 31.4c-2.99 3.05-5.46 4.84-11-6.48-1.91-3.87-17.9-29.9-16.8-34.1z" fill="#8e00cf"/>
  <path d="m-13.2 126 13.2 3.6s9.71 0.468 11.1 5.47c1.98 7.04-11.1 14.6-11.1 14.6l-10.9 11.6-25.6 20.8-12.6-8.24-3.62-33.7z" fill="#e3388e"/>
  <path d="m460 434c12.9-12 51.8-11.8 51.8-11.8l18.6-2.48 2.17 0.445 0.978 25.5-27.4 28-46.2-7.54s-4.42-12-4.53-18.3c-0.102-6.34-0.0576-9.49 4.59-13.8z" fill="#e3c7ec"/>
  <path d="m318 479c12.3-1.07 34.7 13.3 34.7 13.3l-30.4 34.4-14.4 1.9 0.707-16.7s-3.59-20 1.18-28c1.62-2.72 4.99-4.61 8.15-4.89z" fill="#8ee3e0"/>
  <path d="m4.93 27.5c0.0781-7.17 6.66-15.1 13.7-16.6 13-2.79 28.5 6.56 35.8 17.7 5.6 8.59 9.63 24.6 1.38 30.7-10.2 7.53-25.5-5.38-35.8-12.8-6.57-4.72-15.1-11-15-19.1z" fill="#00009c"/>
  <path d="m445-14.3 30.2 14 0.43 0.334s31.8 8 33.9 22.5c0.941 6.64 0.203 19.7-5.67 26.7-5.67 6.69-16.4 10.9-24.5 9.61-11.6-1.79-19.3-29.5-19.3-29.5l-10.2-29.3z" fill="#e3006f"/>
  <path d="m41.2 449c10.2 3.32 21.4 16.9 18.5 27.7-4.15 15.4-28.3 27.2-43 21.1-9.38-3.91-13.3-19.4-9.74-28.9 4.65-12.4 21.7-23.9 34.3-19.9z" fill="#00e358"/>
  <path d="m458 475c9.04-9.85 39.9 3.59 39.9 3.59l31.6 25.6 4.85 5.94-17.3 17.4-55.1-29.8s-9.23-17.1-4.02-22.8z" fill="#e3e3c9"/>
  <path d="m318-32.9 34.7 13.3-30.4 34.4s-8.64 1.1-12.2-2.16c-4.12-3.77-1.45-12.7-1.45-12.7l1.18-28z" fill="#8ee3e0"/>
  <path d="m111 30c2.05-5.48 6.21-10.9 11.6-13.2 7.56-3.25 24.4 0.973 32.3 3.23 15.5 4.42 34.4 21.6 34.4 21.6s3.81 18-2.14 22.8c-13.5 10.9-20.4 0.028-37.6-1.96-6.62-0.764-28.9-1.88-33.8-6.43-6.47-6.04-6.09-22.5-4.72-26.1z" fill="#3800b4"/>
  <path d="m-41.1 70.8 11-5.22 42.6 33.1 6.92 22.9-51-4.39-23.3-10.1 3-20.3z" fill="#e31caf"/>
  <path d="m490 181s14.7-9.44 21.7-16.8l21.2-15.8 16.4 59.2-1.36 0.59-14-1.31-22.2-14.1" fill="#005528"/>
  <path d="m-12.9 332 12.9 3.52s27 1.28 36.6 9.42c8.73 7.39 13.9 31.4 13.9 31.4s-9.25 10.6-17.1 14.7c-11 5.75-7.54 2.06-13.6-1.17-10.9-5.82-19.9-31.3-19.9-31.3z" fill="#00aa73"/>
  <path d="m470 348c2.2-4.07 11.8-9.33 15.7-8.26 13 3.63 26.4 32.4 26.4 32.4l14.3 22.1 5.66 18.3-60.2 9.24s-18.2-7.38-14.8-13c6.35-10.6 9.17-30.6 11.8-46.3 0.807-4.79-0.971-10.4 1.22-14.5z" fill="#e3aac9"/>
  <path d="m144 476c14.1-0.741 27.4 12.1 38.5 18.1 6.86 3.7-15 17.9-15 17.9l-9.94 11.9-28.6-3.55 6.41-39.1s5.3-5.07 8.68-5.25z" fill="#38e3df"/>
  <path d="m393 543 7.56-20.8 27.8-17.7 31.9 48.6-0.753 28.4-48.8-24.7z" fill="#c700b4"/>
  <path d="m195-13 28 5.11-0.229 7.92-0.196 6.79s-5.56 21.4-9.21 36c-0.674 2.69-11.8 0.895-11.8 0.895s-37.2-14.3-37.4-30.4c-0.0844-6.84 15.6-13.3 15.6-13.3z" fill="#550029"/>
  <path d="m-18 59.4 28.4-15.1s29.6 19.5 33.8 35.2c2.59 9.79-7.42 29.5-7.42 29.5l-1.82 1.62-11.2-7.47-23.7-24.9z" fill="#001c34"/>
  <path d="m471 70.8c6.3-4.48 22.5-9.97 22.4-5.92-0.225 11.3 18.7 24.1 18.7 24.1l12.5 9.69 6.92 22.9-51-4.39s-19.2-2.73-23.3-10.1c-3.32-5.98 3-20.3 3-20.3s5.52-12.3 10.8-16z" fill="#e31caf"/>
  <path d="m503 336c2.84-3.42 8.98-1.3 8.98-1.3l12 3.27 32.6 24.3-4.04 26.2-33.4-16.2-7.06-14.6s-15.3-14.2-8.98-21.7z" fill="#00aa73"/>
  <path d="m187 445c10.6-2.08 23.3 0.345 31.7 7.13 7.03 5.64 12.6 15.5 11.5 24.5-0.969 8.31-15.6 19.6-15.6 19.6l-34-8.15s-24.7-11.2-24-22c0.825-12.3 18.3-18.8 30.4-21.1z" fill="#55e345"/>
  <path d="m445 498 30.2 14 0.43 0.334 34.6 26.9-11.8 16.3-19 15.6-19.3-29.5-10.2-29.3z" fill="#e3006f"/>
  <path d="m86.9-50 14.6-13.7 19.3 17.6 5.01 36.9-4.68 9.17s-5.88 11.1-11.5 12.4c-8.29 1.88-16.6-12.4-16.6-12.4l-12.5-9.53z" fill="#1ce39d"/>
  <path d="m361-16.4 23.1 4.88 13.1 13.8s-3.66 20.2-11.2 25.7c-5.17 3.77-12.7 2.51-19.1 1.93-14.3-1.31-41.4-12-41.4-12l18.5-17.8z" fill="#aa0016"/>
  <path d="m499 126 28.2 7.71-26 27.6s-14.6 20.2-25.6 20.8c-5 0.258-12.6-8.24-12.6-8.24s-5.87-38.3 0.142-47.9c7.43-11.8 35.7 0.0559 35.7 0.0559z" fill="#e3388e"/>
  <path d="m363 445c10.4 2.61 14.3 29 14.3 29s5.88 16.2 0.542 20.5c-7.03 5.64-26.2-6.56-26.2-6.56s-25.1-9.2-20.3-17.6c4.34-7.67 18.6-28.6 31.7-25.3z" fill="#aae33b"/>
  <path d="m195 499 28 5.11-0.229 7.92-0.196 6.79-13.3 39.9-7.78-2.98-37.4-30.4 15.6-13.3z" fill="#550029"/>
  <path d="m144-36 38.5 18.1-15 17.9s-5.14 10-9.94 11.9c-8.93 3.52-22.8 4.14-28.6-3.55-1.69-2.26 1.37-8.35 1.37-8.35l5.04-30.8z" fill="#38e3df"/>
  <path d="m393 31.5c-2.05-7.1 7.56-20.8 7.56-20.8l27.8-17.7 4.63 7.05s22.7 25.6 27.3 41.5c2.59 9.11 7.38 23.6-0.753 28.4-15.6 9.33-33.4-14.9-48.8-24.7-6.34-4.01-15.7-6.59-17.8-13.8z" fill="#c700b4"/>
  <path d="m-54.2 475 39.9 3.59 31.6 25.6 4.85 5.94-17.3 17.4-55.1-29.8z" fill="#e3e3c9"/>
  <path d="m417 433 33.9 1.52 0.463 34.4-8.5 18.9-6.21 6.11-34 14.2-14.2-13.2-6.53-27z" fill="#c7e30d"/>
  <path d="m238-35.6 35.3-15.2 27 15.5 0.782 35.2 0.202 9.07s0.0651 10.7-3.41 10c-22.9-4.34-57.4-17.8-57.4-17.8l-11.1-12z" fill="#71e3d0"/>
  <path d="m29.9 0.189 0.149-0.189 2.32-2.94 20.7-20 11.7 3.96 38.6 44.3s-19.3 21.6-31.2 19.2c-12-2.43-12.7-26.9-21.4-29.9-17.1-5.89-20.9-14.4-20.9-14.4z" fill="#1c0024"/>
  <path d="m517 27.5 13.7-16.6 35.8 17.7 1.38 30.7-35.8-12.8z" fill="#00009c"/>
  <path d="m-32.7 343 10.8-5.21 21.9 33.9s9.02 15.1 14.3 22.1c3.9 5.17 16.2 9.2 12.8 14.6-3.57 5.71-27.1 6.74-27.1 6.74l-40.3 6.18-12.9 1.37 13.5-62.4z" fill="#e3aac9"/>
  <path d="m55.2 449s10.8-9.77 17.5-9.81c18.3-0.101 37.1 11.6 48 26.3 7.46 9.94 5.01 36.9 5.01 36.9l-12.6 24.7-32.7-25z" fill="#1ce39d"/>
  <path d="m65.8 156c-10.9-12-15.8-36.1-32-36.5-5.64-0.145-11.8 12.1-11.8 12.1s-2.44 12-8.76 19.4c-2.27 2.65-13.2 12.7-13.2 12.7l-20.6 15.4 42.8 27.2 14 1.31c11.5-9.43 19.8-22.2 29.5-33.9 0 0 7.39-6.6 7.09-10.4-0.0368-5.23-4.71-4.86-7-7.36z" fill="#005528"/>
  <path d="m360 499c7.56-2.17 23.9 1.43 23.9 1.43l13.1 13.8-11.2 25.7-19.1 1.93-41.4-12 18.5-17.8s8.55-10.8 16.1-12.9z" fill="#aa0016"/>
  <path d="m-54.2-37.1 39.9 3.59 31.6 25.6 4.85 5.94-17.3 17.4-55.1-29.8z" fill="#e3e3c9"/>
  <path d="m271 16.4 25 13.2s-26.2 29.5-37.8 34.7c-12.1 5.45-18.1 3.37-27.7-5.8-12.5-12-14.6-40.9-1.21-51.8 11-8.99 41.6 9.63 41.6 9.63z" fill="#710098"/>
  <path d="m502 59.9c1.09-6.72 10.4-10.1 10.4-10.1l10.4-5.52 33.8 35.2-7.42 29.5-1.82 1.62-11.2-7.47-23.7-24.9s-11.8-9.78-10.4-18.4z" fill="#001c34"/>
  <path d="m-52.4 429 71-9.47s12.3-0.696 14.9 5.64c2.58 6.26 1.92 13.8-5.16 17.5-12 6.3-28.4 25-28.4 25l-5.6 5.73-46.2-7.54-1.61-33.9z" fill="#e3c7ec"/>
  <path d="m238 476c8.73-9.39 22.5-15.9 35.3-15.2 10.4 0.607 27 15.5 27 15.5l0.782 35.2 0.202 9.07-3.41 10-57.4-17.8-1.23-1.32s-9.18-8.17-10.2-12.9c-1.82-8.61 2.91-16.2 8.9-22.7z" fill="#71e3d0"/>
  <path d="m29.9 512 0.149-0.189 2.32-2.94 20.7-20 11.7 3.96 38.6 44.3-6 9.46-27.5 2.24z" fill="#1c0024"/>
  <path d="m211 54.1c-6.16-0.0342-13.3 7.38-15.7 9.76-11 11-6.77 13.5-7.87 18.4-5.04 22.4-3.82 34.4 3.67 35.8 33.7 6.4 50.5 9.55 51.4 9.67 1.98 1.4 20.3 13.5 24.3 14.2 14.3 12.1 4.91 7.48 7.64 5.81 19.5-11.9 50.7-37.3 50.6-37.4-2.62-4.3-4.65-6.69-6.1-7.18-26.7-9.35-55.3-15.2-75.7-28.4-21.2-13.8-19.5-20.5-32.2-20.6z" fill="#631cd9"/>
  <path d="m42.1 115q0.952-0.953 32.4-0.062 35.9 1.02 38.4 3.92 2.91 3.31-3.94 23.8-7.81 23.3-17.3 23.6-10.9 0.315-29.3-23.4-21.1-27-20.3-27.9z" fill="#1c3877"/>
  <path d="m426 173c-15.4 0.559-25.6 2.19-30.6 4.9-9.62 0.494-19.9 6.72-24.3 6.38-7.24-0.569-12.1 0.139-14.4 2.13-2.42 2.02-6.84 9.56-13.3 22.6-6.5 13.2-8.71 12 0.997 17.1 40 3.11 70.3 5.81 116-19.2 2.99-12.5 2.11-21.4-2.63-26.8-11.2-7.41-20.8-7.54-32.2-7.14z" fill="#b9557f"/>
  <path d="m288 377q3.59-6.44 19-13.1 25.6-11 34.4 9.66 14.6 34.5 14.4 35.3-0.413 1.45-22.6 0.224-37-2.04-40.9-10.7-6.61-14.4-6.5-15.6 0.188-2.02 2.34-5.89z" fill="#8eaa62"/>
  <path d="m141 404q14.7 2.78 24.6 24 6.32 13.6-11.1 31-11.2 11.2-16.4 12.4-3.36 0.795-21.4-16.5-11.5-11.1-3.72-38.1 4.99-17.3 28-12.9z" fill="#38c798"/>
  <path d="m63.9 60.2q12.4-12.4 25.1-16 12.9-3.63 18.1 4.78 5.29 8.59 4.37 34.3-0.945 26.2-34.3 25.3-34-0.963-29.8-18.4 4.34-17.8 16.5-30z" fill="#1c1c7e"/>
  <path d="m361 108q21.2-9.42 31.5-2.83 11.6 7.41 7.55 33.1-4.51 28.9-10.9 33.3-7.18 4.89-17.3 4.09-11.4-0.898-20-28.4-9.68-30.9 9.2-39.3z" fill="#aa3878"/>
  <path d="m267 188c-6.99 2.14-17 7.24-22.7 8.47-8.67 1.79-17 2.47-26.6-0.637-13.4-4.36-22.3-6.3-26.6-5.83-5.28 0.571-7.67 6.13-7.19 16.7 0.595 12.9-1.52 13.1 2.44 17.5 10.4 11.5 28.5 7.99 45.1 10.8 5.05 0.851 29.2 5 39.9-2.97 6.71-5 10.7-20.5 8.94-23.4-8.21-13.9-10.4-21.5-13.4-20.6z" fill="#6355ab"/>
  <path d="m287 291q0.933-0.299 56 27.1 6.24 3.11 6.85 5.91 0.07 0.317-15.4 20.3-1.75 2.26-38.5 18.1-4.17 1.8-15.9-61.7-1.33-7.19 6.91-9.83z" fill="#8e8eda"/>
  <path d="m121 341q9.27-11.6 17.3-10.5 36 4.69 39.4 7.59 15.3 13.1 15.3 14.4-0.06 6.25-1.28 10.2-5.5 17.8-10.7 21-23.5 14.6-30.4 13.3-30.9-5.83-32.3-9.29-6.55-15.5-5.24-20.7 5.9-23.4 7.96-26z" fill="#38aa36"/>
  <path d="m398 373q52.3 52.7 52.3 52.8 0.049 0.39 2e-3 0.487-1.04 2.15-2.51 2.09-32.6-1.29-34.7-1.8-47.7-11.4-47.7-11.5-1.32-2.37-1.29-2.47 0.633-2.22 1.97-3.93 29.6-38 32-35.6z" fill="#c7c716"/>
  <path d="m298 137q30.9-22.7 34.1-21.2 4.54 2.08 12.1 26.1 10.8 34.4 7.81 36.9-4.25 3.54-32.8-4.57-40.9-11.6-41.7-15.6-1.11-5.73 20.5-21.5z" fill="#8e386b"/>
  <path d="m91.9 172c-6.75 0.196-15.9 6.11-27.6 17.7-11.5 11.5-7.17 20.6 13 27.3 20 4.99 39.4 26.6 55.3 22.1 30.9-9.09 48-12.6 47.8-18.7-0.801-17.4-3.28-30.4-3.89-30.8-1.72-1.4-2.44-11.8-10.8-10.3-11.8 2.07-21.2 6.66-32.1 5.99-14.6-0.904-35.7-13.5-41.7-13.3z" fill="#2a559a"/>
  <path d="m259 297q8.72-4.02 10.6-3.58 3.3 0.757 8.05 26.5 8.29 44.9 6.2 48.7-3.65 6.55-23-6.22-33.8-22.3-24-37.1 17.1-25.9 22.1-28.2z" fill="#718e60"/>
  <path d="m71.2 329q40.2 14.5 39.6 17-6.58 26.1-10.6 26.5-41.8 4.32-43.1 2.07-13.3-23.5-11.2-25.5 21.4-21.4 25.3-20z" fill="#1caa20"/>
  <path d="m363 420c0.149-1.76 14.3 0.748 42.6 7.51 4.99 1.2-2.45 11.7-22.3 31.6-3.51 3.51-7.47-2.82-16.7-19.5-1.63-2.95-4.41-9.66-3.57-19.6z" fill="#aac7cf"/>
  <path d="m273 179q3.69-11.7 23.7-6 49.4 14 43.8 25.4-13.8 28.1-15.1 28.8-3.27 1.9-13.2-3.3-24.5-12.8-29.1-20.7-11.5-19.5-10-24.2z" fill="#8e554f"/>
  <path d="m429 294q9 4.04 28.9 24.5 17.3 17.7 14.7 20.3-2.26 2.26-34 2.57-27.5 0.272-23.5-27.7 3.52-24.3 13.9-19.7z" fill="#c78e87"/>
  <path d="m202 353q7e-3 -0.754 20.9-8.34 2.29-0.83 50.2 30.8 5.24 3.46 4.98 6.38-0.03 0.319-29.4 8.82-3.21 0.931-42.5-27.6-4.3-3.13-4.24-10z" fill="#71aadb"/>
  <path d="m36.2 403c3.76-19.8 24.5-21.7 30.7-22.4 24.3-2.52 37-2.49 38.1 0.078 4.26 10.1 5.52 18.1 3.79 24.1-6.8 23.5 0.198 29.5-10.6 35.4-8.03 4.42-17.3-6.78-26.5-7.46-9.43-0.702-26.9 18.1-28.1 3.57-1.97-23.5-11.4-12.5-7.43-33.3z" fill="#1cc73b"/>
  <path d="m415 53.6q40.4 25 38.1 33.6-4.26 16-18.3 17.4-26.2 2.6-33.8-2.29-14.2-9.11-11.9-27.6 4.24-34.5 25.9-21.1z" fill="#c71c5c"/>
  <path d="m246 135q0.749-0.175 9.91 7.6 13 11 13.8 15.1 1.1 5.71-1.04 12.5-3.04 9.65-14.4 16.1-16.1 9.22-31.2 4.32-21.4-6.96-3.26-27 25.8-28.5 26.3-28.6z" fill="#71386b"/>
  <path d="m235 295q13.9 3.08-5.37 32.2-7.66 11.6-24.3 17.6-6.61 2.4-20-9.02-5.33-4.54 9.07-36 5.73-12.5 40.6-4.8z" fill="#558eb0"/>
  <path d="m342 415c9.58 0.528 14.7 1.42 15.4 2.67 0.223 0.401-0.0407 5.03-0.792 13.9-0.241 2.84-9.8 13.7-28.7 32.6-6.06 6.06-11.2 9.39-15.6 10-1.39 0.197-18.8-8.94-31.4-19.3-4.02-3.31 6.09-21.7 12-42.6 1.9-6.71 19.1 1.11 49 2.76z" fill="#8ec7ba"/>
  <path d="m371 36.4q14.1-2 14.5-1 1.18 3.77-0.179 14.9-5.15 41.9-13.5 45.6-31.7 14.1-33.3 13.3-6.1-2.8-6.95-4.2-3.22-5.28-3.26-10.2-0.173-18.6 8.04-26.8 31-31 34.8-31.6z" fill="#aa1c3c"/>
  <path d="m176 124q1.48-1.56 48.4 7.35 16.1 3.06-16.6 39.2-11.2 12.4-21.9 13.6-3.67 0.398-6.27-1.71-0.891-0.724-6.14-40.3-1.8-13.6 2.5-18.1z" fill="#5538b7"/>
  <path d="m153 276q32.3-11.6 37-2.35 5.58 11.1-3.56 31.1-11 24-31 21.4-24-3.13-26.4-20.1-2.93-20.4 24-30.1z" fill="#388e75"/>
  <path d="m398 358q0.346-6.38 6.41-9.62 5.06-2.7 37.4-3.02 27-0.267 18 41-7.49 34.4-37.3 4.37-24.9-25.1-24.5-32.7z" fill="#c7aa89"/>
  <path d="m258 394q20.8-6.02 24.6 2.29 6.76 14.7 2.51 29.7-7.5 26.5-21.8 31.2-25.3 8.34-32-0.165-11.9-15-11.4-22.5 0.85-13.2 10.1-21.8 16.3-15.2 28.1-18.6z" fill="#71c75f"/>
  <path d="m301 34.8c12.1 20.7 21 43.1 21 46.5 0.114 12.3-4.52 16.8-13.9 13.7-33.6-11.3-50.4-17-50.5-17.1-0.0793-0.183 2.88-3.27 8.88-9.27 21.5-21.5 31.1-39.6 34.5-33.8z" fill="#8e1c3e"/>
  <path d="m161 128c3.64 0.388 5.83 8.06 9.96 39.1 0.576 4.34-5.62 6.83-33.9 11.8-3.95 0.691-17.1 4.66-27.6-8.5-1.46-1.84 2.09-15.6 10.7-41.2 1.2-3.58 14.8-3.98 40.8-1.21z" fill="#3838d6"/>
  <path d="m49.7 286q8.21-8.21 26.2-9.92 33.1-3.15 36.6 1.63 6.26 8.8 8.16 22 3.48 24.2-0.51 29.2-7.34 9.17-22.9 3.58-28.5-10.3-36.8-21.5-15.2-20.6-10.8-25z" fill="#1c8e5d"/>
  <path d="m340 347q15-19.5 19.7-16.6 33.2 20.8 33.1 22.5-0.666 12.3-4.5 17.2-27.1 34.8-30 27.9-20.5-48.3-18.4-51.1z" fill="#aaaa29"/>
  <path d="m170 399q20.3-12.6 27.6-2.71 17.5 23.9 17.1 30-0.943 14.7-11.5 14.1-25.4-1.27-30.2-11.5-11.4-24.7-3.04-29.9z" fill="#55c74f"/>
  <path d="m152 68.8q29.5 7.39 24.6 29.2-4.3 19.2-7.38 22.4-2.7 2.86-26.4 0.335-20.8-2.22-23.7-5.52-2.55-2.91-1.56-30.5 0.876-24.3 34.4-15.9z" fill="#381c86"/>
  <path d="m428 110q21.7-2.16 24.4 2.25 3.1 5.19 1.04 26.9-2.43 25.5-25.4 26.4-27 0.981-23.1-24.1 4.6-29.5 23.1-31.4z" fill="#c73876"/>
  <path d="m387 276q3.99-4.78 11.9-6.83 1.29-0.336 12.6 16.1 1.85 2.7-4.64 47.6-1.07 7.38-10.6 12.5-1.57 0.839-34.2-19.5-5.35-3.35-5.94-6.02-0.097-0.439 5.7-12.7 0.952-2.01 25.2-31.1z" fill="#aa8ed1"/>
  <path d="m194 379q5.29-17.1 14.6-10.3 34.3 24.9 28.8 30-20.1 18.7-25.4 11.5-19.5-26.6-18-31.2z" fill="#55aa3d"/>
 </g>
</svg>
