<?xml version="1.0" encoding="UTF-8"?>
<svg width="512px" height="512px" contentScriptType="text/ecmascript" contentStyleType="text/css" version="1.1" viewBox="0 0 512 512" xmlns="http://www.w3.org/2000/svg">
 <g class="voronoi" stroke-width=".5">
  <path d="m-13.2 126 13.2 3.6s4.9 1.36 6.31 6.37c1.98 7.04-6.31 13.7-6.31 13.7l-10.9 11.6-25.6 20.8-12.6-8.24-3.62-33.7z" fill="#e3388e"/>
  <path d="m27.9 427c22.4-2.28 49.7 2.24 56.2 23 4.6 14.6-16.5 10.7-30 18-15.9 8.69-37.1 33.3-46.9 18-7.76-12.1 10.6-23.9 14.4-36.3 2.69-8.78-2.85-21.8 6.28-22.7z" fill="#00c7e4"/>
  <path d="m460 429 71-9.47 2.17 0.445 0.978 25.5-21.8 22.3s-6.11 3.09-8.65 3.92c-14.8 4.88-43.2-5.73-43.2-5.73l-1.61-33.9z" fill="#e3c7ec"/>
  <path d="m320 479c11-0.298 23.8 3.26 26.7 15.3 2.07 8.44-11.7 17.5-11.7 17.5l-13.1 14.8-14.4 1.9 0.707-16.7s0.0833-20.3 5.31-28c2.17-3.2 3.28-4.62 6.44-4.7z" fill="#8ee3e0"/>
  <path d="m4.93 27.5c0.0781-7.17 6.66-15.1 13.7-16.6 13-2.79 25.8 4.63 33.1 15.8 5.6 8.59 9.63 24.6 1.38 30.7-10.2 7.53-22.8-3.45-33.1-10.8-6.57-4.72-15.1-11-15-19.1z" fill="#00009c"/>
  <path d="m-32 187 32 13.5s12.5 7.48 14.4 12.5c3.7 9.57-12.6 21.7-12.6 21.7l-42.8-5.79-1.28-33.1z" fill="#e355c7"/>
  <path d="m465 483c9.04-9.85 32.4-4.73 32.4-4.73l31.6 25.6 4.85 5.94-17.3 17.4-28.7-15.5s-22.4-5.14-26.5-14.3c-2.01-4.53-1.65-8.77 3.56-14.4z" fill="#e3e3c9"/>
  <path d="m122 16.8c-5.37 2.31-11.6 13.2-11.6 13.2-14.7 12.4-35 18.6-46.8 30.1-8.12 8.12-13.6 18.1-16.5 30-2.83 11.6 7.1 17.7 29.8 18.4 8.98 0.254 15.7-2.4 21.6-3.68 17.6-3.79 18.6 9.15 28.3 12.6 4.85 1.7 3.24 3.75 14.9 3.9 13.3 0.175 21.7-0.851 25.2-3.08 3.97-2.53 7.3-9.76 9.98-21.7 1.69-18.2 28.1-45.5 11.8-54.8 0 0-26.5-19.5-42-23.9-7.91-2.26-17.1-4.18-24.7-0.928z" fill="#2f132f"/>
  <path d="m-41.1 70.8 11-5.22 42.6 33.1s7.44 9.21 2.41 15.4c-4.09 5.03-14.9 5.82-14.9 5.82l-31.6-2.72-23.3-10.1 3-20.3z" fill="#e31caf"/>
  <path d="m-12.9 332 24.8 6.79s27.4 11.8 32.6 24.3c3.35 8.19-4.43 19.7-12.3 23.8-11 5.75-25.2-13.8-25.2-13.8l-7.06-14.6z" fill="#00aa73"/>
  <path d="m479 349c6.19-0.84 7.9 6.02 12 8.83 6.98 4.81 21.4 13.8 21.4 13.8l14.3 22.1 5.66 18.3-20 3.06s-27.8 7.74-40.4 2.84c-4.79-1.86-6.63-5.44-9.52-8.66-14.2-15.8 2.85-29.1 10.3-49 1.51-4.02 0.0647-10.4 6.24-11.3z" fill="#e3aac9"/>
  <path d="m141 479c14.9-0.512 52.5 11.4 42.5 17.4-6.68 4.02-16.2 15.6-16.2 15.6l-9.94 11.9-28.6-3.55 1.37-8.35s-0.581-13.4 1.61-19.5c1.83-5.13 5.87-13.3 9.25-13.5z" fill="#38e3df"/>
  <path d="m393 543 7.56-20.8 16.7-10.6s7.11-9.33 11.4-8.41c2.75 0.592 4.34 8.41 4.34 8.41l27.3 41.5-0.753 28.4-48.8-24.7z" fill="#c700b4"/>
  <path d="m-18 59.4 18-9.57s8-3.51 11.9-2.89c25.8 7.21 45.6 43.5 23 63.7l-11.2-7.47-23.7-24.9z" fill="#001c34"/>
  <path d="m-51.9 233 28.5 6.35 24.1 34-4.08 27.9-25.6-18.4-20.7-34.8z" fill="#e37192"/>
  <path d="m500 344c0.548-5.03 12.2-9.02 12.2-9.02l12 3.27 32.6 24.3-4.04 26.2-33.4-16.2-7.06-14.6s-12.9-7.84-12.2-14z" fill="#00aa73"/>
  <path d="m185 460c-12.1 2.58-16.2 4.22-18.8 13.5-2.88 10.5 15.3 9.91 15.3 9.91s33.8 9.21 48.5 18.1c4.03 2.45 9.62 10.3 9.62 10.3l1.23 1.32 57.4 17.8 3.41-10-0.201-9.07s3.02-25.2-2.97-35.3c-5.29-8.93-15.7-11.9-24.8-15.5-27.4-10.7-59.9-7.26-88.7-1.12z" fill="#71e3d0"/>
  <path d="m452 506c6.73-2.1 23.9 5.97 23.9 5.97l0.43 0.334 34.6 26.9-11.8 16.3-19 15.6-19.3-29.5-10.2-29.3s-1.56-5.38 1.4-6.3z" fill="#e3006f"/>
  <path d="m86.9-50 14.6-13.7 19.3 17.6 5.01 36.9-4.68 9.17s-6.22 11.1-11.7 11.6c-6.69 0.567-16.5-11.6-16.5-11.6l-12.5-9.53z" fill="#1ce39d"/>
  <path d="m16.2 134c1.16-5.52 3.48-16.2 10.1-19 3.34-1.42 10.5 2.98 10.5 2.98l36 45.8s-1.62 14.3-12.5 24.9c-1.56 1.52-6.6 13.7-10 10.3-10-9.91-11-36.3-21.2-51.9-3.34-5.09-13.6-9.07-12.8-13z" fill="#0038dc"/>
  <path d="m372 427c-14.9 7.27-46.5 42.6-31 53.2l10.8 7.36 36.9 6.08c6.31 1.04 7.66 12.5 14.2 13.7 11.9-7.34 29.8-8.65 40.5-19.5 4.82-4.93 8.5-18.9 8.5-18.9s-0.417-16-8.41-24.3c-6.77-6.99-21.2-11.5-21.2-11.5-0.055-0.0247-0.113-0.0483-0.172-0.0625-16.3-3.92-34.4-15.7-50-6.15z" fill="#b4dae1"/>
  <path d="m201 496c4.57-0.764 13.5 4.97 13.5 4.97l8.59 10.9-0.196 6.79-13.3 39.9-7.78-2.98-37.4-30.4 15.6-13.3s14.3-14.8 20.9-15.9z" fill="#550029"/>
  <path d="m144-36 38.5 18.1-15 17.9s-5.14 10-9.94 11.9c-8.93 3.52-20.2 4.56-25.9-3.13-1.69-2.26-1.28-8.77-1.28-8.77l5.04-30.8z" fill="#38e3df"/>
  <path d="m74.6 277c-1.73-0.0473-3.54 0.0196-5.43 0.199-8.22 0.781-23.8-1.92-29.9 2.82-9.77 7.57-24.1 12.4-33 22.5l-11.3 12.7 5.03 10.6 1.68 3.53 90.7 2.35c8.53 3 14.5 3.35 18 1 1.9-1.3-1.77-14-11-38-4.41-11.4-12.7-17.3-24.8-17.7z" fill="#008ebf"/>
  <path d="m446 237c-0.284 1.8e-4 -0.566 0.0357-0.844 0.107-24.2 6.25-36.7 10-37.4 11.2-3.88 6.77-5.32 11.3-4.3 13.6 5.37 17.5 5.31 11 5.37 23.8 0.062 14 2.07 8.13-0.804 21.3-3.27 15.7-4.02 25.2-2.23 28.6 2.05 3.88 12.5 5.73 31.2 5.55 21.6-0.214 33.3-0.934 34.7-2.58 3.56-4.34 13-6.44 18.7-8.78l6.77-6.49c4.7-22.5-32.2-41.3-36.2-60.6 0.125-0.611 0.125-1.13-0.0215-1.54-5.7-16.1-10.7-24.1-15-24.1z" fill="#d08479"/>
  <path d="m-54.2 475 39.9 3.59 14.3 11.6s21.2 8.4 29.9 4.92c5.24-2.08-7.72 15.1-7.72 15.1l-17.3 17.4-55.1-29.8z" fill="#e3e3c9"/>
  <path d="m29.9 0.189 0.149-0.189 2.32-2.94 20.7-20 11.7 3.96 16.6 19s11.4 7.54 12.3 18.7c0.284 3.72 0.176 7.35-3.44 11.5-4.26 4.9-3.48 5.74-12.2 2.75-17.1-5.89-48.1-32.8-48.1-32.8z" fill="#1c0024"/>
  <path d="m18.2 150c6.6-4.78 30.5 41.6 18 57.2-2.95 3.64-14-1.31-14-1.31l-42.8-27.2 20.6-15.4z" fill="#005528"/>
  <path d="m-32.7 343 10.8-5.21 21.9 33.9s9.61 11.6 16.6 17c5.21 3.99 22 4.14 19.6 11.5-3.89 11.8-36.3 15.1-36.3 15.1l-40.3 6.18-12.9 1.37 13.5-62.4z" fill="#e3aac9"/>
  <path d="m74.3 470c3.12-5.9 20.5-21.8 27.2-21.9 8.71-0.062 15.3 9.89 19.3 17.6 5.77 11 5.01 36.9 5.01 36.9l-12.6 24.7-32.7-25s-12.6-20.2-6.16-32.3z" fill="#1ce39d"/>
  <path d="m362 500c7.43-1.9 14.5-1.74 21.4 2.09 4.63 2.58 11.9 10.3 11.9 10.3l2.15 2.25-11.2 25.7-19.1 1.93-41.4-12 18.5-17.8s10.2-10.5 17.8-12.4z" fill="#aa0016"/>
  <path d="m-54.2-37.1 39.9 3.59 31.6 25.6 4.85 5.94-17.3 17.4-55.1-29.8z" fill="#e3e3c9"/>
  <path d="m13.6 232c4.02-6.65 7.68-18.7 16.2-16.8 8.66 1.99 14.2 24.2 14.2 24.2s5.9 18 3.25 25c-3.42 8.98-13.1 15-22.1 16-6.92 0.718-17.7-13.8-20.9-19.9-6.28-12 4.31-19.9 9.48-28.4z" fill="#007170"/>
  <path d="m-52.4 429 52.4-6.99c6.87-0.0632 7.08 4.14 13.9 5.54s6.97 8.35 3.92 16.3c-3.73 9.68-17.8 23.9-17.8 23.9l-5.6 5.73-46.2-7.54-1.61-33.9z" fill="#e3c7ec"/>
  <path d="m29.9 512 0.149-0.189s-0.0122-2.87 0.544-4.15c4.55-10.5 10.8-23.4 21.8-26.4 6.77-1.84 19.9 4.37 19.3 8.44-1.63 11.1 9.71 22.1 9.71 22.1l22.1 25.3-6 9.46-27.5 2.24z" fill="#1c0024"/>
  <path d="m209 192q12.6 0.907 18 12.4 2.74 5.77 0.525 17.4-1.12 5.86-32.3 24.7-15.7 9.49-21.7-11.9-3.02-10.8 5.95-33.1 4.52-11.2 29.5-9.43z" fill="#5555a5"/>
  <path d="m311 256c-7.36 0.9-12.5 2.44-15.3 4.61-18.4 14.1-27.6 21.6-27.7 22.4-0.491 5.38-0.456 8.31 0.105 8.81 5.72 7.47 9.64 52.4 30.5 62.5 4.27 2.08 34.9-36.6 39.3-49.8 3.23-10.1 3.51-16.6 0.836-19.6-17.4-19.4-26.6-29.1-27.7-29z" fill="#8e80d2"/>
  <path d="m57.6 348c2.3-4.47 21.8-5.86 26.1-8.8 1.11-0.759 16 0.859 23.9 1.87 9.81 1.25 21.3-0.696 29.2 5.17 12 8.87 15.8 24.3 20.5 39.9 1.22 4.02-22.8 13.8-33.5 21.7-11.7 8.58-10.9 19.3-33.5 27.7-5.85 2.18-38.5-16.5-48.1-36.6-2.49-5.21 6.56-33.7 15.4-50.9z" fill="#38aa2a"/>
  <path d="m358 393s26.5-23.9 41-19.5c6.45 1.97 51.2 51.6 51.2 51.6 0.032 0.26 0.0323 0.422 1e-3 0.487-0.693 1.43-1.53 2.13-2.51 2.09-21.7-0.86-33.3-1.46-34.7-1.8-31.8-7.6-35-2.09-48.1-12.2-3.65-5.28-15-16-6.89-20.7z" fill="#c7c7db"/>
  <path d="m207 54.8c-7.16 5.31-16.8 18.5-19 26.9-4.71 20.9-4.38 32.9 0.996 35.8 20.1 10.8 37.1 30.6 44.2 36 2.33 4.81 5.59 7 9.8 6.56 31.5-3.29 47.3-5.83 47.6-7.62 2.88-10.5 2.22-12.6 5.23-18.2 4.63-8.08 20.2-17.1 16.4-24.2-9.28-17-45.5-19.7-53.3-21.9-7.29-3.4-12.7-11.9-15.2-13.5-21.2-13.8-27-27-36.7-19.8z" fill="#6825d5"/>
  <path d="m285 206q24.6-17.3 26.7-16.7 18.9 4.81 18.7 8.15-1.06 29-2.8 31.4-15.1 20.7-16.4 20.9-11.4 1.4-13.2-3.06-15.9-38.7-13.1-40.7z" fill="#8e5524"/>
  <path d="m278 383c3.36 5.77-11.7 7.18-49.2 17.3-5.12 1.38-10.5-1.51-16.1-8.66-0.767-0.98-0.663-10.9 15.9-30.7 5.41-6.46 38.2 2.75 49.4 22z" fill="#71aad6"/>
  <path d="m42.2 115q0.953-0.952 32.4-0.062 35.9 1.02 39.5 5.11 4.1 4.67-2.21 23.9-7.2 21.9-18.3 22.3-12.7 0.368-31.1-23.3-21.1-27-20.3-27.9z" fill="#1c3877"/>
  <path d="m360 183q1.25-0.593 16.2-3.01 0.806-0.13 25.5 59.4 1.33 3.2-5.21 14.6-0.352 0.614-11.9 3.56-0.624 0.158-46.6-29.5-2.47-1.6-1.35-32.3 0.06-1.65 23.3-12.7z" fill="#aa5521"/>
  <path d="m176 270q-0.063-0.508 4.11-6.81 1.03-1.56 38.7-24.3 9.3-5.61 34.2 32.1 6.14 9.32 5.46 16.8-0.169 1.84-26.7 18.4-6.55 4.09-45.8-26.6-9.69-7.58-9.95-9.63z" fill="#5571e9"/>
  <path d="m340 318c1.33-0.121 0.106-1.3 3.18 2.43 1.41 1.72 2.76 17.8 4.05 48.4 0.589 14 5.22 17-9e-3 22.3-7.55 7.63-11 0.481-32.2 0.319-9.74-0.0747-16.3-2.06-19.8-5.96-1.59-1.79-2.43-2.84-2.52-3.13-0.0427-0.136 0.337-3.97 1.14-11.5 0.369-3.46 7.04-8.15 26.5-31.2 8.95-10.6 9.94-20.8 19.6-21.7z" fill="#8eaaa9"/>
  <path d="m138 411c11.1-4.13 20.2 1.36 27.2 16.5 4.49 9.68 3.86 32.3-7.76 44-7.44 7.44-14.4 3.78-21.7 1.36-7.34-2.42-7-5.93-19-17.5-7.68-7.39-10.1-15.9-7.37-25.5 1.77-6.13 11.3-12.4 28.7-18.9z" fill="#38c798"/>
  <path d="m290 159q0.383-0.04 15.2 25.5 0.102 0.175-27.1 19.3-0.186 0.131-41.7 3.15-0.285 0.021-8.41-17.1-0.056-0.117 6.16-24.9 0.043-0.17 55.9-6.01z" fill="#7155f0"/>
  <path d="m42.4 212c0.201-0.2 5.66-3.15 8.61-2.63 3.65 0.652 2.76 2.66 8.87 6.73 30.3 10.1 45.7 16.3 46.1 18.7 1.21 7.24 0.419 12.7-2.37 16.3-8.5 11.1-15.6 16.9-21.4 17.4-17.6 1.67-27.5-2.36-29.7-12.1-6.8-29.6-10.2-44.4-10.1-44.5z" fill="#1c7145"/>
  <path d="m370 276q15.1-10.9 22.1-12.7 5.25-1.33 10.9 11.3 4.22 9.55-1.01 34.6-3.94 18.9-30.7 12-20.1-5.15-24-9.81-2.89-3.51 0.297-13.5 2.4-7.49 22.5-22z" fill="#aa8e8f"/>
  <path d="m179 288c-8.21-0.222-15.3 4.99-21.1 15.6-10.2 18.4-17.9 34.1-13.1 40.1 8.31 10.3 13.9 34.9 24.9 38.2 15.4 3.18 39.3 0.201 43.6-9.67 11.3-13.5 8.12-35.7 6.47-51.2-0.446-4.18-6.14-12.3-22.3-24.9-6.71-5.24-12.9-7.94-18.5-8.09z" fill="#559c2d"/>
  <path d="m142 127q18.5 0.245 20.1 25.3 1.53 24.6-18.4 31-19.5 6.3-26.9-4.67-7.25-10.8-0.431-31.5 6.69-20.4 25.6-20.1z" fill="#383880"/>
  <path d="m235 218q1.03-5.43 29.9-7.53 13-0.943 25.2 28.8 5.49 13.4-16.5 30.2-9.88 7.58-31.3-24.9-9.62-14.6-7.32-26.7z" fill="#7171ab"/>
  <path d="m371 327q26.9 6.88 29.4 11.5 3.3 6.25-0.684 15.2-5.38 12.1-22.6 21.9-23.2 13.1-24.4-15.3-1.61-38.4 18.4-33.3z" fill="#aaaa6e"/>
  <path d="m163 396c4.49-7.67 10.3-10.8 17.4-9.3 17.2 3.55 26.7 6.52 28.6 8.9 4.5 5.76 6.53 12.1 6.08 19-1.08 16.8 1.65 34-5.37 33.6-17-0.849-28.6 9.87-31.9 2.61-8.13-17.5-16.6-51.7-14.7-54.9z" fill="#55c74f"/>
  <path d="m168 127c7.05-4.49 11.4-6.28 13.1-5.38 28.5 15.4 30.8 23 30.9 23.6 2.44 11.3 13.9 10.8 15.3 18.7 1.46 8.11-6.61 23.5-8.01 23.4-23.7-1.7-35.8-2.7-36.3-2.99-8.41-4.87-12.7-8.24-12.8-10.1-1.94-31.3-2.71-47-2.29-47.3z" fill="#553881"/>
  <path d="m405 356c2.84-6.41 15.3-9.72 37.3-9.94 18.4-0.181 25.5 16.3 12.5 39.4-4.99 22.9-11.1 26.2-30.5 6.63-16.2-16.4-22.6-28.4-19.2-36.1z" fill="#c7aa17"/>
  <path d="m245 400c27.2-7.35 41.7-9.99 43.5-7.93 3.22 3.63 2.96 12-0.777 25.2-6.6 23.3-10.1 27.1-19.7 30.3-16.9 5.56-35.3 5.63-39.8-0.0385-7.92-10-8.41-10-7.86-18.6 0.973-15.1 9.16-24.8 24.6-28.9z" fill="#71c75f"/>
  <path d="m117 222c-13 15.3 2.68 20.2-8.34 35.9-7.57 9.9-9.06 20.8-4.46 32.8 9.7 25.1 16.6 37.7 20.7 37.6 8.58-0.133 16.1-6.07 22.6-17.8 13.6-24.6 14.5-24.7 20.3-37.7 2.1-4.7 5.03-9.39 5.23-14.5 0.431-10.9-0.284-24.6-8.63-31.6-12.1-10.2-34.9-21.7-47.4-4.62z" fill="#388020"/>
  <path d="m305 132q11.7-13.3 26.6 8.52 24.6 35.8 15.3 40.2-15.2 7.23-23.2 5.2-13.1-3.33-18.7-13.1-9.26-16-8.46-22.3 1.33-10.4 8.44-18.5z" fill="#8e38bb"/>
  <path d="m126 195q0.128-0.981 35.2-12.3 4.31-1.39 16.2 5.51 1.46 0.846-10.6 30.7-1.48 3.66-37.5-13.8-4.42-2.14-3.38-10.1z" fill="#3855d9"/>
  <path d="m225 328c0.28-4.49 4.2-11.6 5.41-12.4 20.8-13 31.4-19.4 31.6-19.2 3.98 3.54 4.87 6.98 5.58 9.2 9.39 39.2 22.7 53.3 22.6 53.9-1.11 10.4-5.59 19-7.62 17.7-35.1-21.8-52.8-33-52.9-33.5-3.24-10.1-5-10.3-4.66-15.7z" fill="#718e19"/>
  <path d="m94.2 172q11.9-0.348 19.2 10.5 7.37 10.9 6.78 15.4-0.589 4.52-6.3 16.8-5.78 12.5-35.8 2.47-30.4-10.1-13.1-27.4 17.5-17.5 29.3-17.8z" fill="#1c55cf"/>
  <path d="m330 234q3.07-4.21 42.6 21.4 8.84 5.71-19.9 26.5-6.42 4.64-31-22.9-5.49-6.14 8.25-25z" fill="#aa71c8"/>
  <path d="m336 399q11.3 0.086 19.1 14.2 2.52 4.54 1.39 17.8-0.362 4.26-28.7 32.6-9.08 9.08-15.6 10-2.08 0.295-20.9-15.2-6.03-4.97 5.71-46.4 3.77-13.3 38.9-13z" fill="#8ec71d"/>
 </g>
</svg>
