<?xml version="1.0" encoding="UTF-8"?>
<svg width="512px" height="512px" contentScriptType="text/ecmascript" contentStyleType="text/css" version="1.1" viewBox="0 0 512 512" xmlns="http://www.w3.org/2000/svg">
 <g class="voronoi" stroke-width=".5">
  <path d="m-13.2 126 13.2 3.6s9.21 0.89 10.6 5.89c1.98 7.04-10.6 14.2-10.6 14.2l-10.9 11.6-25.6 20.8-12.6-8.24-3.62-33.7z" fill="#e3388e"/>
  <path d="m460 429 71-9.47 2.17 0.445 0.978 25.5-27.4 28s-35.8 4.11-46.2-7.54c-7.53-8.44-1.61-33.9-1.61-33.9z" fill="#e3c7ec"/>
  <path d="m318 479s25.9 4.53 28.8 16.6c2.07 8.44-11.4 16.3-11.4 16.3l-13.1 14.8-14.4 1.9 0.707-16.7 1.18-28z" fill="#8ee3e0"/>
  <path d="m4.93 27.5c0.0781-7.17 6.66-15.1 13.7-16.6 13-2.79 21.9 6.24 29.1 17.4 5.6 8.59 36.5 11.6 8.01 31-10.5 7.16-25.5-5.38-35.8-12.8-6.57-4.72-15.1-11-15-19.1z" fill="#00009c"/>
  <path d="m-32 187 46.8 19.7-13 27.9-42.8-5.79-1.28-33.1z" fill="#e355c7"/>
  <path d="m94.7 379c-6.35-0.013-15.6 0.61-27.8 1.87-6.2 0.641-16.4 8.1-30.7 22.4-12.3 13.3-6.78 27.5-6.42 46.3l21.7 32.9 9.71-3.23c30.5-26.8 39.1-44.8 47.6-74.2 1.73-5.99 0.468-14-3.79-24.1-0.542-1.28-3.99-1.93-10.3-1.95z" fill="#0ec78f"/>
  <path d="m33.1 462c9.15 5.35 13.4 21.8 7.76 30.8-4.37 7.02-17.1 9.27-24.3 5.18-8.83-5.03-14.5-19.9-9.74-28.9 4.26-8 18.4-11.7 26.2-7.15z" fill="#00e3c7"/>
  <path d="m453 477c9.04-9.85 43.2 4.7 43.2 4.7l15.3 8.34 17.3 14 4.85 5.94-17.3 17.4-55.1-29.8s-13.5-15-8.32-20.7z" fill="#e3e3c9"/>
  <path d="m111 30s6.21-10.9 11.6-13.2c7.56-3.25 24.7 0.928 24.7 0.928l42 23.9s3.81 18-2.14 22.8c-13.5 10.9-51.6-6.19-51.6-6.19s-19.9-7.95-24.5-16.7c-1.83-3.43-0.053-11.7-0.053-11.7z" fill="#3800b4"/>
  <path d="m-41.1 70.8 11-5.22 42.6 33.1s9.84 11.8 6.92 17.2c-3.12 5.81-19.4 4.02-19.4 4.02l-31.6-2.72-23.3-10.1 3-20.3z" fill="#e31caf"/>
  <path d="m-12.9 332 24.8 6.79s37.3 17.1 38.4 34.2c0.704 10.4-8.25 21.4-20.2 23.7-10.8 2.03-23.1-23.6-23.1-23.6l-7.06-14.6z" fill="#00aa73"/>
  <path d="m479 343c1.89-2.04 3.65-4.74 7.48-3.66 13 3.63 25.2 32.4 25.2 32.4l14.3 22.1 5.66 18.3-60.2 9.24s-9.78 4.36-12.9 1.37c-3.99-3.82 1.02-16.5 1.02-16.5s15.2-58.6 19.4-63.2z" fill="#e3aac9"/>
  <path d="m144 476s35.1 8.34 38.2 22.2c1.68 7.61-14.7 13.8-14.7 13.8l-9.94 11.9-28.6-3.55 6.41-39.1z" fill="#38e3df"/>
  <path d="m393 543 7.56-20.8 16.7-10.6s7.01-5.77 11.3-4.84c2.75 0.592 4.44 4.84 4.44 4.84l27.3 41.5-0.753 28.4-48.8-24.7z" fill="#c700b4"/>
  <path d="m-18 59.4 28.4-15.1s29.6 19.5 33.8 35.2c2.59 9.79-7.42 29.5-7.42 29.5l-1.82 1.62-11.2-7.47-23.7-24.9z" fill="#001c34"/>
  <path d="m504 336c2.84-3.42 7.53-0.646 7.53-0.646l12 3.27 32.6 24.3-4.04 26.2-33.4-16.2-7.06-14.6s-13.8-14.8-7.53-22.4z" fill="#00aa73"/>
  <path d="m230 476c3.56 7.57-7.71 16.9-15.6 19.6-11 3.8-34-8.15-34-8.15s-24.7-11.2-24-22c0.825-12.3 18.3-18.8 30.4-21.1 10.6-2.08 31.7 7.13 31.7 7.13" fill="#55e345"/>
  <path d="m448 501c8.23-7.46 27.8 10.3 27.8 10.3l0.43 0.334 34.6 26.9-11.8 16.3-19 15.6-19.3-29.5-10.2-29.3s-6.29-7.27-2.54-10.7z" fill="#e3006f"/>
  <path d="m86.9-50 14.6-13.7 19.3 17.6 5.01 36.9-4.68 9.17s-2.25 14.2-7.9 15.5c-8.29 1.88-20.3-15.5-20.3-15.5l-12.5-9.53z" fill="#1ce39d"/>
  <path d="m50.7 114c-11.9 4.47-25.9-6.61-27.4 6.36l-1.29 11.2 14 60.5s0.926 8.55 3.8 11.3c1.97 1.87 7.83 2.2 7.83 2.2 3.16 3.04 22.5 8.99 29.7 11.4 19.9 6.64 32.1 4.46 36.4-6.55 4.25-10.9 3.37-20.1-2.63-27.6-4.4-13.4-15.4-1.66-2.05-40.7 4.56-13.6 5.88-21.6 3.94-23.8-1.7-1.93-14.5-3.24-38.4-3.92-10.5-0.297-18.8-2.33-23.8-0.43z" fill="#134224"/>
  <path d="m360 449c10.4 2.61 17.5 25.3 17.5 25.3s4.26 13-1.07 17.3c-7.03 5.64-24.6-3.37-24.6-3.37s-23.1-4.75-22.5-14.4c0.813-12 17.5-28.2 30.7-24.9z" fill="#aae33b"/>
  <path d="m195 499c9.16-2.47 28 5.11 28 5.11l-0.229 7.92-0.196 6.79-13.3 39.9-7.78-2.98-37.4-30.4 15.6-13.3s8.79-11.3 15.2-13z" fill="#550029"/>
  <path d="m144-36 38.5 18.1-15 17.9s-5.14 10-9.94 11.9c-8.93 3.52-20.4 4.67-26.1-3.02-1.69-2.26-1.11-8.87-1.11-8.87l5.04-30.8z" fill="#38e3df"/>
  <path d="m56.7 316s-4.3 21.6-13 25.3c-13.5 5.69-42-12.8-42-12.8l-6.71-14.1 11.3-12.7 25.7-8.73" fill="#008ebf"/>
  <path d="m469 273c11 0.168 18 13.4 24.1 22.6 6.38 9.63 21.1 19.7 15.2 29.6-2.54 4.32-10.9 6.54-17 8.06-4.59 1.14-14.2 0.642-14.2 0.642s-23.3-19.9-34.6-37.7c-6.29-9.9 14.7-23.4 26.4-23.3z" fill="#e38e16"/>
  <path d="m-54.2 475 39.9 3.59 31.6 25.6 4.85 5.94-17.3 17.4-55.1-29.8z" fill="#e3e3c9"/>
  <path d="m417 433s26-6.6 33.9 1.52c7.99 8.25 0.463 34.4 0.463 34.4l-8.5 18.9-6.21 6.11s-21.9 16.4-34 14.2c-6.37-1.14-14.2-13.2-14.2-13.2s-9.04-18.1-6.53-27c4.48-15.9 35.1-34.9 35.1-34.9z" fill="#c7e30d"/>
  <path d="m29.9 0.189 0.149-0.189 2.32-2.94 20.7-20 11.7 3.96 16.6 19s21.2 14.1 22.1 25.3c0.284 3.72-6 9.46-6 9.46s-18.8 5.23-27.5 2.24c-17.1-5.89-40-36.8-40-36.8z" fill="#1c0024"/>
  <path d="m22.8 152c7.29 14.8 12.2 47.8 12.2 47.8s2.82 8.96 0.783 10.3c-2.96 1.99-13.5-4.32-13.5-4.32l-42.8-27.2 20.6-15.4s18.9-19.1 22.8-11.2z" fill="#005528"/>
  <path d="m-32.7 343 10.8-5.21 21.9 33.9s9.01 15.1 14.3 22.1c4.11 5.43 16.9 9.94 13.5 15.3-3.57 5.71-27.8 6.01-27.8 6.01l-40.3 6.18-12.9 1.37 13.5-62.4z" fill="#e3aac9"/>
  <path d="m86.9 462s7.9-13.7 14.6-13.7c8.71-0.061 19.3 17.6 19.3 17.6l5.01 36.9-12.6 24.7-32.7-25z" fill="#1ce39d"/>
  <path d="m361 496c7.56-2.17 16.2 1.05 23.1 4.88 4.63 2.58 11 11.5 11 11.5l2.15 2.25-11.2 25.7-19.1 1.93-41.4-12 18.5-17.8s9.43-14.2 17-16.4z" fill="#aa0016"/>
  <path d="m-54.2-37.1 39.9 3.59 31.6 25.6 4.85 5.94-17.3 17.4-55.1-29.8z" fill="#e3e3c9"/>
  <path d="m13.6 232c4.36-7.54 11.3-19 19.8-17.1 8.66 1.99 10.5 24.5 10.5 24.5s8.57 27.6 2.16 38.9c-3.69 6.51-12.4 11.2-19.9 10.4-8.73-0.92-17.3-8.56-20.3-16.8-4.57-12.7 0.842-28.2 7.62-39.9z" fill="#007170"/>
  <path d="m-52.4 429 71-9.47 2.17 0.445 0.978 25.5-27.4 28-46.2-7.54-1.61-33.9z" fill="#e3c7ec"/>
  <path d="m238 476c8.73-9.39 35.3-15.2 35.3-15.2s17.8 4.74 23.1 13.7c5.99 10.1 4.64 37.1 4.64 37.1l0.202 9.07-3.41 10-57.4-17.8-1.23-1.32s-8.91-5.91-9.91-10.7c-1.82-8.61 2.63-18.5 8.62-24.9z" fill="#71e3d0"/>
  <path d="m29.9 512 0.149-0.189 2.32-2.94 20.7-20 11.7 3.96 38.6 44.3-6 9.46-27.5 2.24z" fill="#1c0024"/>
  <path d="m257 83.6c-0.17 0.0084-0.259 0.046-0.268 0.113-3.91 31-12.5 40.4-2.26 49.1 12 10.2 24.2 30.5 28.2 29 6.29 2.9 18.5 6.93 36.6 12.1 19 5.4 29.9 6.93 32.8 4.57 1.98-1.65-0.627-13.9-7.81-36.9-2.88-10.4-14-33.1-25-38.5-39-13.1-59.7-19.6-62.3-19.5z" fill="#802a56"/>
  <path d="m366 184c-4.52 0.0525-7.68 0.823-9.47 2.31-2.42 2.02-6.84-1.7-13.3 11.4-1.27 2.59-6.47 16.1-7.89 18.2-3.92 5.79-7.11 17.6-9.26 18.8-0.211 0.122-1.67 3.06-4.38 8.8-0.2 0.423 11.1 18 33.9 52.8 1.59 2.43 7.57-3.37 14.3-8.88 6.72-5.51 23.6-25.6 24.2-25.8 3.07-0.801 17.7-19.1 22.1-25.7 4.47-6.66-9.15-4.55-19.2-22.9-9.06-12.9-15.5-29.1-31-29z" fill="#aa634e"/>
  <path d="m193 256q2.06-8.31 18.5-10.3 27-3.24 30.2-0.709 5.2 4.18 11.8 18.1 10.9 22.9 5.77 25.3-8.54 3.93-26.9-0.152-30.3-6.73-34.2-14.4-6.37-12.7-5.12-17.7z" fill="#557163"/>
  <path d="m288 377q3.59-6.44 19-13.1 25.6-11 34.4 9.66 14.6 34.5 14.4 35.3-0.413 1.45-22.6 0.224-37-2.04-40.9-10.7-6.61-14.4-6.5-15.6 0.188-2.02 2.34-5.89z" fill="#8eaa62"/>
  <path d="m141 404q14.7 2.78 24.6 24 6.32 13.6-11.1 31-11.2 11.2-16.4 12.4-3.36 0.795-21.4-16.5-11.5-11.1-3.72-38.1 4.99-17.3 28-12.9z" fill="#38c798"/>
  <path d="m63.9 60.2q12.4-12.4 25.1-16 12.9-3.63 18.1 4.78 5.29 8.59 4.37 34.3-0.945 26.2-34.3 25.3-34-0.963-29.8-18.4 4.34-17.8 16.5-30z" fill="#1c1c7e"/>
  <path d="m191 190q6.46-0.7 26.6 5.83 16.4 5.33 17.6 25.7 0.951 16.6-23 19.5-19.5 2.34-23.9-7.14-3.58-7.74-4.47-27.1-0.729-15.8 7.19-16.7z" fill="#55558b"/>
  <path d="m287 291q0.933-0.299 56 27.1 6.24 3.11 6.85 5.91 0.07 0.317-15.4 20.3-1.75 2.26-38.5 18.1-4.17 1.8-15.9-61.7-1.33-7.19 6.91-9.83z" fill="#8e8eda"/>
  <path d="m121 341q9.27-11.6 17.3-10.5 36 4.69 39.4 7.59 15.3 13.1 15.3 14.4-0.06 6.25-1.28 10.2-5.5 17.8-10.7 21-23.5 14.6-30.4 13.3-30.9-5.83-32.3-9.29-6.55-15.5-5.24-20.7 5.9-23.4 7.96-26z" fill="#38aa36"/>
  <path d="m398 373q52.3 52.7 52.3 52.8 0.049 0.39 2e-3 0.487-1.04 2.15-2.51 2.09-32.6-1.29-34.7-1.8-47.7-11.4-47.7-11.5-1.32-2.37-1.29-2.47 0.633-2.22 1.97-3.93 29.6-38 32-35.6z" fill="#c7c716"/>
  <path d="m161 190c-23.8 4.17-36.9 9.1-39.1 14.8-6.34 16.2-9.2 25.6-8.58 28.2 3.89 13.3 2.35 23.7 1.4 35-0.028 0.333 3.1 4.91 9.39 13.7 0.162 0.227 19.5-6.58 58-20.4 0.992-0.356 2.56-4.87 4.71-13.5-8.83-14.5-1.01-44.8-10.8-57.9-4.75-2.02-10.7-0.674-15.1 0.0918z" fill="#386364"/>
  <path d="m432 241 29.4 20.3c2.75 1.9-8.43 9.56-23.1 24.2-2.69 2.69-6.72 4.09-17.6-0.807-2-0.898-13.2-10.1-14.1-17.5 3.44-20.7 16.6-32.1 25.5-26.2z" fill="#c771ce"/>
  <path d="m259 297q8.72-4.02 10.6-3.58 3.3 0.757 8.05 26.5 8.29 44.9 6.2 48.7-3.65 6.55-23-6.22-33.8-22.3-24-37.1 17.1-25.9 22.1-28.2z" fill="#718e60"/>
  <path d="m71.2 329q40.2 14.5 39.6 17-6.58 26.1-10.6 26.5-41.8 4.32-43.1 2.07-13.3-23.5-11.2-25.5 21.4-21.4 25.3-20z" fill="#1caa20"/>
  <path d="m363 420q0.224-2.63 42.6 7.51 7.48 1.79-22.3 31.6-5.27 5.27-19.1-19.8-2.44-4.43-1.17-19.3z" fill="#aac7cf"/>
  <path d="m198 55.9c3.62-2.87 12.6-1.23 13.8-1.73 0.262-0.107 11 6.74 32.2 20.6 4.6 2.99 6.94 4.58 7.02 4.78 0.018 0.0413-1.64 13.2-4.96 39.6-0.721 5.71-1.43 8.64-2.13 8.8-0.151 0.0353-17.5-3.22-52.1-9.78-7.49-1.42-8.71-13.3-3.66-35.8 1.09-4.86 2.44-20.6 9.8-26.4z" fill="#551cc9"/>
  <path d="m273 179q3.69-11.7 23.7-6 49.4 14 43.8 25.4-13.8 28.1-15.1 28.8-3.27 1.9-13.2-3.3-24.5-12.8-29.1-20.7-11.5-19.5-10-24.2z" fill="#8e554f"/>
  <path d="m429 294q9 4.04 28.9 24.5 17.3 17.7 14.7 20.3-2.26 2.26-34 2.57-27.5 0.272-23.5-27.7 3.52-24.3 13.9-19.7z" fill="#c78e87"/>
  <path d="m202 353q7e-3 -0.754 20.9-8.34 2.29-0.83 50.2 30.8 5.24 3.46 4.98 6.38-0.03 0.319-29.4 8.82-3.21 0.931-42.5-27.6-4.3-3.13-4.24-10z" fill="#71aadb"/>
  <path d="m246 135q0.749-0.175 9.91 7.6 13 11 13.8 15.1 1.1 5.71-1.04 12.5-3.04 9.65-14.4 16.1-16.1 9.22-31.2 4.32-21.4-6.96-3.26-27 25.8-28.5 26.3-28.6z" fill="#71386b"/>
  <path d="m235 295q13.9 3.08-5.37 32.2-7.66 11.6-24.3 17.6-6.61 2.4-20-9.02-5.33-4.54 9.07-36 5.73-12.5 40.6-4.8z" fill="#558eb0"/>
  <path d="m342 415q14.4 0.792 15.4 2.67 0.335 0.602-0.792 13.9-0.362 4.26-28.7 32.6-9.08 9.08-15.6 10-2.08 0.295-20.9-15.2-6.03-4.97 2.86-36.3 2.85-10.1 47.6-7.6z" fill="#8ec7ba"/>
  <path d="m176 124q1.48-1.56 48.4 7.35 16.1 3.06-16.6 39.2-11.2 12.4-21.9 13.6-3.67 0.398-6.27-1.71-0.891-0.724-6.14-40.3-1.8-13.6 2.5-18.1z" fill="#5538b7"/>
  <path d="m334 267q23.4 35.8 21 40.9-4.31 9.08-26.5-1.96-39.2-19.5-27.8-33.8 20-25.3 33.3-5.1z" fill="#8e715f"/>
  <path d="m153 276q32.3-11.6 37-2.35 5.58 11.1-3.56 31.1-11 24-31 21.4-24-3.13-26.4-20.1-2.93-20.4 24-30.1z" fill="#388e75"/>
  <path d="m398 358q0.346-6.38 6.41-9.62 5.06-2.7 37.4-3.02 27-0.267 18 41-7.49 34.4-37.3 4.37-24.9-25.1-24.5-32.7z" fill="#c7aa89"/>
  <path d="m258 394q20.8-6.02 24.6 2.29 6.76 14.7 2.51 29.7-7.5 26.5-21.8 31.2-25.3 8.34-32-0.165-11.9-15-11.4-22.5 0.85-13.2 10.1-21.8 16.3-15.2 28.1-18.6z" fill="#71c75f"/>
  <path d="m161 128q5.46 0.582 11.6 47.2 0.864 6.51-41.5 13.9-5.92 1.04-21.6-18.7-2.2-2.76 10.7-41.2 1.8-5.37 40.8-1.21z" fill="#3838d6"/>
  <path d="m293 220q27.4 14.3 26.5 16.2-3.48 7.37-9.87 15.5-25 31.6-26.8 32.2-7.3 2.34-8.36 2.1-4.14-0.948-7.72-8.44-14-29.3-7.21-35.8 26.5-25.4 33.5-21.7z" fill="#71713b"/>
  <path d="m49.7 286q8.21-8.21 26.2-9.92 33.1-3.15 36.6 1.63 6.26 8.8 8.16 22 3.48 24.2-0.51 29.2-7.34 9.17-22.9 3.58-28.5-10.3-36.8-21.5-15.2-20.6-10.8-25z" fill="#1c8e5d"/>
  <path d="m340 347q15-19.5 19.7-16.6 33.2 20.8 33.1 22.5-0.666 12.3-4.5 17.2-27.1 34.8-30 27.9-20.5-48.3-18.4-51.1z" fill="#aaaa29"/>
  <path d="m170 399q20.3-12.6 27.6-2.71 17.5 23.9 17.1 30-0.943 14.7-11.5 14.1-25.4-1.27-30.2-11.5-11.4-24.7-3.04-29.9z" fill="#55c74f"/>
  <path d="m152 68.8q29.5 7.39 24.6 29.2-4.3 19.2-7.38 22.4-2.7 2.86-26.4 0.335-20.8-2.22-23.7-5.52-2.55-2.91-1.56-30.5 0.876-24.3 34.4-15.9z" fill="#381c86"/>
  <path d="m262 188q4.47-2.55 18.1 20.4 2.64 4.45-25.2 31.2-5.4 5.18-12.4-0.436-1.36-1.09-3.13-32-0.344-5.99 22.7-19.2z" fill="#7155cc"/>
  <path d="m43.6 219c0.201-0.2-3.29-4.84-0.0587-7.33 3.24-2.49 6.65 1.22 16.6 4.52 30.2 10.1 45.6 16.3 46.2 18.8 1.79 7.61 2.55 13 2.28 16.3-0.832 9.98-5.46 15.4-13.9 16.2-25.7 2.44-39.6-1.2-41.9-10.9-6.8-29.6-9.25-37.5-9.19-37.6z" fill="#1c7145"/>
  <path d="m387 276q3.99-4.78 11.9-6.83 1.29-0.336 12.6 16.1 1.85 2.7-4.64 47.6-1.07 7.38-10.6 12.5-1.57 0.839-34.2-19.5-5.35-3.35-5.94-6.02-0.097-0.439 5.7-12.7 0.952-2.01 25.2-31.1z" fill="#aa8ed1"/>
  <path d="m194 379q5.29-17.1 14.6-10.3 34.3 24.9 28.8 30-20.1 18.7-25.4 11.5-19.5-26.6-18-31.2z" fill="#55aa3d"/>
 </g>
</svg>
