<?xml version="1.0" encoding="UTF-8"?>
<svg width="512px" height="512px" contentScriptType="text/ecmascript" contentStyleType="text/css" version="1.1" viewBox="0 0 512 512" xmlns="http://www.w3.org/2000/svg">
 <g class="voronoi" stroke-width=".5">
  <path d="m458-37.1 39.9 3.59 31.6 25.6 4.85 5.94-17.3 17.4-55.1-29.8z" fill="#e3e3c9"/>
  <path d="m-13.2 126 28.2 7.71-26 27.6-25.6 20.8-12.6-8.24-3.62-33.7z" fill="#e3388e"/>
  <path d="m25.3 428c-5.36 23.4-7.78 24.7-12.5 39.2-2.76 9.77-3.58 34.2 11.2 27.8 14.8-6.37 13.9-4.87 29.1-9.97 12.8-4.25 34.1-23 28.1-37.1-4.53-10.6-53-32.6-55.9-19.9z" fill="#00d59e"/>
  <path d="m479 426c10.8-2.22 32.8-3.92 32.8-3.92l18.6-2.48 2.17 0.445 0.978 25.5-21.8 22.3s-5.73 3.85-8.26 4.73c-13.5 4.66-29.1 6.8-39.8-4.61-5.16-5.52-12.5-15.3-5.93-24.5 4.16-5.85 14.1-16 21.2-17.4z" fill="#e3c7ec"/>
  <path d="m358 452c-13.1-3.29-19.1 10.2-28.1 16.2-7.07 4.72-12.8 7.51-16.8 15.1-4.31 8.28-4.69 28.4-4.69 28.4l-0.707 16.7 14.4-1.89 13.1-14.8 22.7-20.7c2.31-2.11 14.5 1.86 20.9-3.28 5.33-4.28-1.5-14.2-1.5-14.2s-8.83-18.9-19.3-21.5z" fill="#8ee3e0"/>
  <path d="m18.6 10.9c-7.15 0.59-13.7 16.6-13.7 16.6l-4.93 22.4-18 9.57 41.8 43.7 11.2 7.47 1.82-1.62s19.4-32 19-49.7c-0.194-9.33-11.1-25.7-11.1-25.7s-14.6-23.7-26.1-22.7z" fill="#001c34"/>
  <path d="m445-14.3 30.2 14 0.43 0.334 34.6 26.9s-7.21 11.4-11.8 16.3c-5.62 5.96-10.9 16.8-19 15.6-11.6-1.79-14.1-18.9-19.3-29.5-4.56-9.27-10.2-29.3-10.2-29.3z" fill="#e3006f"/>
  <path d="m-32 187 32 13.5s13.1 8.2 15 13.2c3.7 9.57-13.2 21-13.2 21l-42.8-5.79-1.28-33.1z" fill="#e355c7"/>
  <path d="m470 488c5.6-7.2 18.2-2.53 27.3-1.7 4.89 0.449 14.3 3.58 14.3 3.58l17.3 14 4.85 5.94-17.3 17.4-28.7-15.5s-12.5-7.7-16-13.8c-1.69-2.94-3.96-7.32-1.88-9.99z" fill="#e3e3c9"/>
  <path d="m318-32.9 34.7 13.3-17.3 19.5s-12.9 18.1-22.7 22c-2.1 0.841-7.22 2.17-6.79-0.0588 1.65-8.66 2.72-21.9 2.72-21.9l1.18-28z" fill="#8ee3e0"/>
  <path d="m122 16.8c-5.37 2.31-9.9 7.58-11.6 13.2-5.08 16.9 7.78 37.2 7.3 52.6-0.633 17.5 7.48 28.6 24.3 33.1 19.2 5.13 30.4 0.192 33.8-14.8 1.83-19.8 21.1-40.7 12.9-59.1-6.57-14.7-42-23.9-42-23.9s-17.1-4.18-24.7-0.928z" fill="#380e9d"/>
  <path d="m-41.1 70.8 11-5.22 42.6 33.1 6.92 22.9-51-4.39-23.3-10.1 3-20.3z" fill="#e31caf"/>
  <path d="m533 148 16.4 59.2-1.36 0.59-14-1.31-22.2-14.1s-12.1-4.42-12.4-12.6c-0.326-8.58 12.4-16 12.4-16z" fill="#005528"/>
  <path d="m15.5 336-15.5-0.633-12.9-3.52 12.9 26.5s6.32 10.8 10.8 13.7c14 9.06 43.7 8.59 43.7 8.59 2.11 1.2 32.5-3.06 40.9-14.9 4.89-6.84 10.8-6.7 0.471-25.2-14.5-26-53.4-8.54-80.5-4.62z" fill="#00aa73"/>
  <path d="m485 341c13 3.63 27.4 31.5 27.4 31.5l14.3 22.1 5.66 18.3-20 3.06-26.4 4.52s-18.3 0.607-21.2-2.61c-14.2-15.8 7.98-56.7 7.98-56.7 2.8-5.92 6-21.6 12.2-20.1z" fill="#e3aac9"/>
  <path d="m153 479c7.81 0.317 5.96 3.97 10.2 10.6 4.09 6.37 4.43 22.3 4.43 22.3l-9.94 11.9-28.6-3.55 1.37-8.35s3.91-22.2 9.73-30.8c1.89-2.8 9.44-2.21 12.8-2.07z" fill="#38e3df"/>
  <path d="m393 543 7.56-20.8 27.8-17.7 31.9 48.6-0.753 28.4-48.8-24.7z" fill="#c700b4"/>
  <path d="m195-13 28 5.11-0.229 7.92-0.196 6.79s-0.287 34.6-13.3 39.9c-9.27 3.75-39.5-26.4-41.9-31.7-2.86-6.21 12.3-15 12.3-15z" fill="#550029"/>
  <path d="m471 70.8c4.74-3.55 9.83-7.34 16.9-5.37 10.6 2.96 24.2 23.6 24.2 23.6l12.5 9.69 6.92 22.9-51-4.39s-19.2-2.73-23.3-10.1c-3.32-5.98 3-20.3 3-20.3s5.62-12.1 10.8-16z" fill="#e31caf"/>
  <path d="m-51.9 233 28.5 6.35 24.1 34-4.08 27.9-25.6-18.4-20.7-34.8z" fill="#e37192"/>
  <path d="m501 339c1.12-4.14 11-3.81 11-3.81l12 3.27 32.6 24.3-4.04 26.2-33.4-16.2-7.06-14.6s-12.8-12.5-11-19.2z" fill="#00aa73"/>
  <path d="m176 404c-7.75 5.6-2.97 10-3.66 19.2-0.592 7.96-3.64 18.7-5.21 30.5-0.83 6.26-5.69 9.06-6.02 14-0.7 10.9 10.7 15 19.9 20.2s23 12 34 8.15c7.89-2.7 28-20.5 17-38.8-15.5-25.9-6.37-32.6-14.9-46.4-4.18-6.78-5.86-10.9-17.1-16.7-9.48-2.38-18.8 6.1-24 9.87z" fill="#55d5eb"/>
  <path d="m445 498c0.805-4.68 2.76-11.9 8.9-11.1 10.7 1.28 21.8 25.4 21.8 25.4l34.6 26.9-11.8 16.3-19 15.6-19.3-29.5s-6.78-19.5-10.2-29.3c-1.66-4.77-5.83-9.34-4.98-14.3z" fill="#e3006f"/>
  <path d="m86.9-50 14.6-13.7 19.3 17.6 5.01 36.9-4.68 9.17s-1.28 16.6-7.65 18c-8.88 2.02-20.5-18-20.5-18l-12.5-9.53z" fill="#1ce39d"/>
  <path d="m361-16.4-35.5 34.2 0.582 0.17c-5.24 6.19 2.46 63.7 2.58 76.1 0.0307 3.28 0.767 6.11 2.21 8.48 0.382 0.627 13.9-4.96 40.5-16.7 7.03-3.12 11.9-15.9 14.7-38.5-0.558-6.2-1.38-13.1-0.0293-19.5 1.86-8.72 11.3-15.5 10.9-24.4-0.0529-1.31-1.89-3.46-1.89-3.46l-11-11.5z" fill="#aa0016"/>
  <path d="m49.8 115c-5.15 0.0175-7.88 0.185-8.2 0.502l-7.88 4.25-11.8 12.1-22 32.1-20.6 15.4 42.8 27.2 14 1.31 3.59-4.26 51.8-37.1c2.66-0.366 4.71-1.06 6.13-2.09 1.75-1.28 3.74-10.1 5.98-26.5 1.96-14.4-8.44-21.9-31.2-22.5-9.98-0.282-17.5-0.416-22.7-0.398z" fill="#005528"/>
  <path d="m498 128c4.55-0.174 13.9 1.83 13.9 1.83l15 4.11-26 27.6s-14.6 20.2-25.6 20.8c-5 0.258-9.92-3.98-12.6-8.24-7.35-11.8-13.7-30.6-5.04-41.5 8.37-10.6 26.3-4 40.2-4.54z" fill="#e3388e"/>
  <path d="m196 502c8.56-2.28 19.2-5.52 25.2 1.85 1.66 2.05 1.66 8.12 1.66 8.12l-0.196 6.79-13.3 39.9-7.78-2.98-37.4-30.4 15.6-13.3s9.75-8.26 16.2-9.98z" fill="#550029"/>
  <path d="m144-36 38.5 18.1-15 17.9s-5.14 10-9.94 11.9c-8.93 3.52-22.8 4.14-28.6-3.55-1.69-2.26 1.37-8.35 1.37-8.35l5.04-30.8z" fill="#38e3df"/>
  <path d="m393 31.5c-2.05-7.1 7.56-20.8 7.56-20.8l27.8-17.7 31.9 48.6s7.38 23.6-0.753 28.4c-15.6 9.33-33.4-14.9-48.8-24.7-6.34-4.01-15.7-6.59-17.8-13.8z" fill="#c700b4"/>
  <path d="m-5.02 315 5.02-5.68s4.79-4.57 7.4-6.31c7.52-5.01 19.1-7.18 27.5-4.71 8.29 2.44 13 4.95 12.3 16.2-0.383 5.85-5.15 10.6-8.7 13.1-11 7.96-36.8 1.44-36.8 1.44l-1.68-3.53z" fill="#008ebf"/>
  <path d="m-54.2 475 39.9 3.59 31.6 25.6 4.85 5.94-17.3 17.4-55.1-29.8z" fill="#e3e3c9"/>
  <path d="m363 420c-3.57 1.52-1.59 15.6 0.439 19.6 6.57 11.9 16.7 22.1 18.3 28.6l6.53 27s7.83 12.1 14.2 13.2c12.1 2.16 34-14.2 34-14.2l6.21-6.11s7.1-12.1 8.5-18.9c2.34-11.2-1.25-31.9-11.9-34.4-7.4-1.78-14.3-0.808-21.4-1.95-18.5-3-50.7-14.6-54.8-12.9z" fill="#b9d56e"/>
  <path d="m238-35.6 35.3-15.2 27 15.5 0.782 35.2s0.0764 7.32-2.49 9.18c-6.58 4.78-24.4-1.19-24.4-1.19s-17.6 1.83-25.6-1.02c-3.66-1.3-9.35-6.97-9.35-6.97l-9.91-10.7z" fill="#71e3d0"/>
  <path d="m29.9 0.189 0.149-0.189 2.32-2.94 20.7-20 11.7 3.96 16.6 19c6.91 10 31.4 24.5 16.1 34.8-7.88 4.76-19.7 16.4-30.6 13.6-19.6-4.98-37-48.2-37-48.2z" fill="#1c0080"/>
  <path d="m-32.7 343 10.8-5.21 36.2 56 5.66 18.3-60.2 9.24-12.9 1.37 13.5-62.4z" fill="#e3aac9"/>
  <path d="m82.7 464c3.26-4.35 13.6-9.01 19-8.79 7.29 0.3 15 4.74 19.1 10.8 6.96 10.3 5.72 24.2 3.63 36.4-0.576 3.38-3.31 9.68-3.31 9.68l-7.9 15.5-20.3-15.5s-9.5-9.02-11.4-13.9c-5.07-12.7-6.08-24.5 1.23-34.2z" fill="#1ce39d"/>
  <path d="m363 496c7.56-2.18 20.9 4.44 20.9 4.44l13.1 13.8-11.2 25.7-19.1 1.93-41.4-12 18.5-17.8s11.6-13.9 19.2-16.1z" fill="#aa0016"/>
  <path d="m-54.2-37.1 39.9 3.59 31.6 25.6 4.85 5.94-1.93 1.95s-6.91 11.9-12.9 14c-2.35 0.814-7.36-1.17-7.36-1.17l-50.2-27.1z" fill="#e3e3c9"/>
  <path d="m271 16.4c-12.7-2.8-27.9-4.94-38.8 1.97-12 7.6-9.64 28.2-20.3 37.6-9.31 3.39-22.6 17.8-25 27.6-5.92 26.4-8.76 39.8-8.5 40.3 1.2 2.5 5.62 3.43 13.3 2.8 35.3-2.91 29-3.88 39.9-12.6 10.6-8.48 12.5-24.2 20.5-35.2 12.9-17.8 44.8-37.2 44-49.3-0.577-9.42-15.8-11.2-25-13.2z" fill="#630eb1"/>
  <path d="m501 61.8c1.09-6.72 10.6-12 10.6-12l10.4-5.52 33.8 35.2-7.42 29.5-1.82 1.62-11.2-7.47-23.7-24.9s-12-7.92-10.6-16.5z" fill="#001c34"/>
  <path d="m-52.4 429 52.4-6.99s15.1-2.3 19.2 2.72c4.52 5.57 0.3 17.8-1.43 21.5l-17.8 21.5-5.6 5.73-46.2-7.54-1.61-33.9z" fill="#e3c7ec"/>
  <path d="m238 476c7.52-8.64 19.2-15.9 30.6-15.6 10.4 0.265 21.7 6.61 27 15.5 5.99 10.1 5.49 35.7 5.49 35.7l0.202 9.07-3.41 10-57.4-17.8-1.23-1.32s-5.63-6.94-6.64-11.7c-1.82-8.61-0.425-17.3 5.35-23.9z" fill="#71e3d0"/>
  <path d="m29.9 512 0.149-0.189 2.32-2.94s11.4-17.9 20.7-20c4.01-0.899 11.7 3.96 11.7 3.96l38.6 44.3-6 9.46-27.5 2.24z" fill="#1c0024"/>
  <path d="m33.1 211c-8.92 0.482-16.6 5.27-19.6 20.9l0.0293 0.0996c-0.277 24.1-14.1 43.2 12.6 56.7 0 0 19.7 10.2 29 16.3 10.8 7.08 20.2 19.5 30.8 23.4 24.2 2 47-27 66.9-26.6 13.4 0.26 20.9-0.919 22.4-3.54 0.87-1.5 0.32-15-1.65-40.4-1.16-14.9-3.18-23.8-6.08-26.7-1.7-1.71-12.9-2.42-32.2 3.48-11.3 3.46-10.5 2.86-27.3-2.3-8.74-2.67-16.4-5.94-47.7-16.4-8.1-1.58-18.3-5.41-27.2-4.92z" fill="#267618"/>
  <path d="m68.4 65.1c8.29-8.29 12.6-18 21-20.4 8.61-2.42 14.6-0.829 18.1 4.78 3.53 5.73 5 16.7 4.41 33-0.601 16.7-1.46 25.4-2.56 26.2-1.13 0.795-12.3 0.894-33.4 0.296-21.6-0.611-26.3-3.73-23.5-15.3 2.89-11.9 7.88-20.5 16-28.6z" fill="#1c1c7e"/>
  <path d="m332 110c0.04-1.09 11.8-6.82 35.2-17.2 10.2-4.51 20.2-1.15 30 10.1 4.25 4.89-1.05 32-9.43 49.2-3.64 7.47-20.6 6.74-40.5 4.31-8.67-1.05-7.11-21-12.1-34.1-2.19-5.7-3.24-9.8-3.15-12.3z" fill="#aa38ac"/>
  <path d="m176 173c-2.27 5.54-3.35 11.4-3.57 16.3-1.07 31.9 7.64 56.1 9.69 83.5 1.2 15.5 13.4 22.1 36.5 19.7 14.5-1.48 23.7-3.65 27.8-6.52 2.52-1.8 0.314-12.8-6.62-32.9-6.14-11.7-0.0575-26.9-0.34-41-0.567-15.2-1.62-23.7-3.16-25.6-4.8-5.78-11.4-9.21-19.9-10.3-10.6 1.13-30.2-6.74-40.4-3.14z" fill="#71711b"/>
  <path d="m345 310c1.21 0.86 3.14 6.16 5.78 15.9 2.65 9.8 0.0967 16.9-7.67 21.2-7.8 4.35-18.5 6.85-32.2 7.49-13.7 0.643-17.3 4.98-22-0.563s0.0933-8.16 3-21.4c5.52-14.8 34.4-32.9 53.1-22.6z" fill="#8e8e7f"/>
  <path d="m123 380q51.8-31.9 53.2-27.7 12.1 35.2 9.18 37.4-24.8 18.1-29.1 16.7-36.6-12.3-36.9-13.4-2.43-9.17 3.64-12.9z" fill="#38aa24"/>
  <path d="m386 366q5.57-0.749 8.14 1.84 57 57.4 57 57.5 0.048 0.39 2e-3 0.487-1.04 2.15-2.51 2.09-32.6-1.29-34.7-1.8-47.7-11.4-47.7-11.4-0.149-0.268 0.701-2.35 18.9-46.2 19.1-46.3z" fill="#c7c716"/>
  <path d="m428 111q21.5-2.13 24.1 2.28 3.1 5.19 1.04 26.9-2.43 25.5-23.8 26.3-25.1 0.912-30.9-7.19-6.8-9.52 1.49-26.5 9.75-20 28-21.8z" fill="#c73876"/>
  <path d="m239 122c-11.2 5.6 4.57 12.1-0.329 26.1-5.24 15-2.73 27.4 0.32 31.1 7.59 4.26 4.67 38.6 10.5 40 32-1.29 49.1 2.09 42.9-12.2-11.1-25.9-14.3-40.2-20.3-53.8-4.5-6.54-25-34.4-33.1-31.1z" fill="#714725"/>
  <path d="m238 311c-8.1-24.2-55.8-13.6-59.6-4.48 2.95 19.8 1.82 38.4 7.37 54.8 5.49 16 11.3 25.6 17.5 28.9 9.65 5.06 15.9 6.55 18.8 4.47 4.55-3.25 8.56-9 12-17.3 5.41-12.9 5.23-14.1 6.07-21.5 1.69-14.9-2.4-38.7-2.16-44.8z" fill="#559c53"/>
  <path d="m282 134c29.7-11.5 45.3-15.3 46.7-11.6 5.83 15.1 9.17 16.1 6.24 23.7-1.45 3.79-3.35 4.69-10.2 6.66-27.9 8.07-42.7 10.4-44.2 6.89-6.27-14.3-5.78-22.9 1.48-25.6z" fill="#8e3839"/>
  <path d="m68 197c-11.5 11.5-11.4 13.8 9.51 20.8 18.7 3.11 26.2 10.9 39.7 11.7 13.5 0.859 12-0.764 39.2-6.32 4.07-0.8 6.58-13.6 7.53-38.4 0.133-3.69-33.7-17.1-51.4-14.8-17.2 2.29-43.5 25.9-44.6 27z" fill="#2a55df"/>
  <path d="m254 288c0.05-0.036 6.87 1 20.5 3.12 0.104 0.016 5.36 6.83 15.8 20.5 0.08 0.105-2.77 13.3-8.55 39.6-0.044 0.202 1.07 0.576-21.7 1.83-11.4 0.627-12-9.78-14.7-16.7-5.01-12.7-2.56-5.99-1.11-41 0.0113-0.269 3.3-2.72 9.87-7.35z" fill="#718ef0"/>
  <path d="m319 103c1.44 0.486 3.05 2.18 4.81 5.07 0.0613 0.1 0.028 1.88-0.1 5.35-5e-3 0.121-36.6 11.9-53.6 20.8-5.78 3.03-7.16-2.28-17.8-8.28-0.368-0.209-0.73-0.577-1.08-1.1-0.0127-0.018-3.63-34.4 8.63-34.2 17.3 0.253 17.5-1.61 59.1 12.4z" fill="#711cea"/>
  <path d="m353 348c-3.73 0.225-6.17 5.41-9.39 6.13-8.06 3.92-34.7-0.924-44 11-6.89 8.78-5.63 27.3-0.142 33.5 2.7 19.7-3.54 16.6-7.91 31.6-4.43 15.6-4.64 25.1-0.619 28.4 12.5 10.3 19.5 15.4 20.9 15.2 4.35-0.613 9.55-3.95 15.6-10 18.9-18.9 28.5-29.8 28.7-32.6-2.33-17.1 28.5-62.4 18.8-72.4-6.08-3.28-13.8-11.3-21.9-10.8z" fill="#9caae3"/>
  <path d="m143 408c10.7 3.59 19.2-0.356 24.5 11.1 3.4 7.33-1.3 28.2-12.9 39.8-7.47 7.47-9.55 12.4-16.4 12.4-9.01-0.0425-9.37-4.97-21.4-16.5-7.67-7.4-8.91-20.1-3.74-38 3.32-11.5 13.3-14.4 29.9-8.85z" fill="#38c798"/>
  <path d="m412 58.2c26.9 16.6 42.8 23 41.3 28.8-2.84 10.7-8.89 16.5-18.1 17.4-17.2 1.71-28.3-0.253-33.2-5.9-9.14-10.5-13.1-20.7-11.9-30.7 2.28-18.5 7.46-18.5 21.9-9.6z" fill="#c71c5c"/>
  <path d="m115 115c-7.76 13.3-3.93 21.1-5.31 31.2-1.47 10.5 10.6 19.5 36.8 22.8 23.3 2.91 46.4-0.952 67.6 1.6 10.6 1.4 10.1 3.5 17.1-16.6 3.11-8.9 2.61-14.8-2.02-19.4-6.96-6.85 0.601-5.03-29.2-2.58-27.5 1.51-43.3-7.97-64.3-13.6-6.47-0.444-17.3-9.25-20.7-3.41z" fill="#4738bd"/>
  <path d="m331 230c16.9 7.68 3.37 18.4 9.23 54.9 1.77 11.1-9.33 17.6-33.3 19.7-7.27 0.633-14.9-4.3-23-14.8-2.44-3.19 6.09-18.7 25.6-46.6 5.04-5.08 13.8-16.7 21.5-13.2z" fill="#8e71bc"/>
  <path d="m152 309c14 0.269 21.9 5.9 23.6 16.9 1.12 6.87 1.04 11.9-0.243 15-0.8 1.95-13.1 10.3-36.8 24.9-14.8 9.13-24.1 12-27.8 8.47-2.33-2.15-4.4-10.3-6.2-24.5-0.161-18 31.1-39.6 47.4-40.8z" fill="#388e9a"/>
  <path d="m405 353c6.19-4.58 19.4-6.96 39.6-7.16 16.9-0.166 15.9 11 9.9 38.5-4.99 22.9-11.9 26-33.5 4.16-18.1-18.2-23.4-30-16-35.5z" fill="#c7aa89"/>
  <path d="m225 401c4.76-3.4 13.6-2.06 26.4 4.03 22.7 10.7 33 19.8 30.9 27.3-3.74 13.2-10.4 21.4-19.9 24.5-16.9 5.56-20.4 1.76-24.8-3.91-7.93-10-12.8-21.1-12.2-30.2 1.03-16.1-3.07-19.8-0.372-21.7z" fill="#71c75f"/>
  <path d="m302 163c21.4-6.18 31.3-0.48 29.8 17.1-2.37 28.1 3.95 34.2-7.84 42.5-3.57 2.5-8.86-0.23-12.9-2.15-6.45-3.06-12.2-10.5-17.3-22.3-8.13-18.8-12.7-20.4-9.35-26.9 4.91-9.61 14-7.2 17.6-8.23z" fill="#8e5565"/>
  <path d="m271 359q12-0.658 13.8 1.34 0.943 1.07 7.39 31.8 3.45 16.4-1.07 22.1-2.42 3.02-37.2-13.4-18.6-8.8-9.93-29.5 4.63-11.1 27.1-12.3z" fill="#71aaa2"/>
  <path d="m67 383c22.3-2.31 25.2-10.7 34.9-4.16 7.47 4.97 10.4 15.2 7.38 25.9-6.8 23.5 0.287 29.6-10.6 35.3-12.1 6.3-29.6-9.39-38.8-12.7-35.9-12.9-36-10.4-34.8-24.5 1.31-15.4 34.6-18.8 41.9-19.9z" fill="#1cc73b"/>
  <path d="m316 30.8c5.44 23.8 5.95 47 5.99 50.5 0.114 12.3-4.52 16.8-13.9 13.7-33.6-11.3-43.6-9.22-44.8-15.8-1.25-6.37 2.32-4.24 8.32-10.2 21.5-21.5 41.1-43.9 44.4-38.1z" fill="#8e1c3e"/>
  <path d="m248 226c3.54-3.53 3.14-2.78 13.7-3.2 24.3-0.973 38.1-0.706 41.2 0.802 7.33 3.47 7.14 10.7-0.586 21.7-17.7 25.3-28.7 37.7-32.8 37.1-9.53-1.49-16-7.19-19.5-17.1-7.82-20.8-6.25-21.2-2.05-39.3z" fill="#7171cc"/>
 </g>
</svg>
