<?xml version="1.0" encoding="UTF-8"?>
<svg width="512px" height="512px" contentScriptType="text/ecmascript" contentStyleType="text/css" version="1.1" viewBox="0 0 512 512" xmlns="http://www.w3.org/2000/svg">
 <g class="voronoi" stroke-width=".5">
  <path d="m458-37.1 39.9 3.59 31.6 25.6 4.85 5.94-17.3 17.4-55.1-29.8z" fill="#e3e3c9"/>
  <path d="m303 25.7 3.17-4.14 11.2 0.316s54.4 5.76 43.7 15.9c-7.63 7.2-20.3 28.4-34.9 29.1-12.6 0.605-20.8-28.4-20.8-28.4z" fill="#8e007c"/>
  <path d="m-13.2 126 28.2 7.71-26 27.6-25.6 20.8-12.6-8.24-3.62-33.7z" fill="#e3388e"/>
  <path d="m57.1 434s-22-10.4-27.9-3.09c-6.83 8.49 10.5 31 10.5 31l23.1 22.2c0.547 2.62 17.8 18.6 17.8 18.6l32.7 25 12.6-24.7-5.01-36.9s-25.9-15.4-39.4-21.9c-7.89-3.84-3.95-2.33-24.3-10.2z" fill="#1ce39d"/>
  <path d="m460 429 71-9.47 2.17 0.445 0.978 25.5-27.4 28-46.2-7.54-1.61-33.9z" fill="#e3c7ec"/>
  <path d="m318 479c12.3-1.07 21.2 4.6 29.5 13.9 5.8 6.47-12 19-12 19l-13.1 14.8-14.4 1.9 0.707-16.7 1.18-28s4.99-4.61 8.15-4.89z" fill="#8ee3e0"/>
  <path d="m4.93 27.5c0.0937-8.43 9.07-18 16.1-19.5 13-2.79 35.5 21 35.5 21 9.19 4.55 7.53 24.2-0.721 30.3-10.2 7.53-35.8-12.8-35.8-12.8s-15.1-11-15-19.1z" fill="#00009c"/>
  <path d="m445-14.3 30.2 14 0.43 0.334s32.5 12.4 34.6 26.9c0.941 6.64-2.53 16.9-7.13 21.8-5.62 5.96-15.5 12.6-23.7 10.1-11.2-3.41-19.3-29.5-19.3-29.5l-10.2-29.3z" fill="#e3006f"/>
  <path d="m-32 187 32 13.5s11.3 7.46 13.2 12.4c3.7 9.57-11.5 21.7-11.5 21.7l-42.8-5.79-1.28-33.1z" fill="#e355c7"/>
  <path d="m33.1 462c9.15 5.35 13.4 21.8 7.76 30.8-4.37 7.02-17.1 9.27-24.3 5.18-8.83-5.03-14.5-19.9-9.74-28.9 4.26-8 18.4-11.7 26.2-7.15z" fill="#00e358"/>
  <path d="m458 475c9.04-9.85 39.9 3.59 39.9 3.59l31.6 25.6 4.85 5.94-17.3 17.4-55.1-29.8s-9.23-17.1-4.02-22.8z" fill="#e3e3c9"/>
  <path d="m318-32.9 34.7 13.3-30.4 34.4s-7.96 3.55-11.5 0.297c-4.12-3.77-2.13-15.1-2.13-15.1l1.18-28z" fill="#8ee3e0"/>
  <path d="m111 30c2.05-5.48 6.21-10.9 11.6-13.2 7.56-3.25 24.7 0.928 24.7 0.928s19.8 16.8 42 23.9c7.28 2.34 3.81 18-2.14 22.8-13.5 10.9-51.6-6.19-51.6-6.19l-24.5-16.7s-1.42-8.03-0.053-11.7z" fill="#3800b4"/>
  <path d="m-41.1 70.8 11-5.22 42.6 33.1 6.92 22.9-51-4.39-23.3-10.1 3-20.3z" fill="#e31caf"/>
  <path d="m533 148 16.4 59.2-1.36 0.59-14-1.31-22.2-14.1s-15.7-4.94-16-13.1c-0.326-8.58 16-15.5 16-15.5z" fill="#005528"/>
  <path d="m-12.9 332 24.8 6.79s27.4 11.8 32.6 24.3c3.35 8.19 3.79 22.1-4.04 26.2-11 5.75-24.7-7.48-33.4-16.2-3.81-3.82-7.06-14.6-7.06-14.6z" fill="#00aa73"/>
  <path d="m462 342c1.51-6.69 16.5-4.27 20.3-3.19 13 3.63 29.6 33 29.6 33l14.3 22.1 5.66 18.3-60.2 9.24-12.9 1.37s7.5-32.9 6.55-53.8c-0.281-6.23-5.25-18.5-3.32-27z" fill="#e3aac9"/>
  <path d="m144 476c14.1-0.741 38.5 18.1 38.5 18.1l-24.9 29.8-28.6-3.55 6.41-39.1s5.3-5.07 8.68-5.25z" fill="#38e3df"/>
  <path d="m393 543 7.56-20.8 27.8-17.7 31.9 48.6-0.753 28.4-48.8-24.7z" fill="#c700b4"/>
  <path d="m195-13 28 5.11-0.229 7.92-0.196 6.79s-0.613 33.9-13.3 39.9c-2.51 1.19-5.37-1.59-7.78-2.98-13.9-8.03-36-10.2-36.2-26.2-0.0844-6.84 14.5-17.5 14.5-17.5z" fill="#550029"/>
  <path d="m-18 59.4 18-9.57s7.3-2.97 10.9-2.18c13.4 2.93 29.1 8.42 33.2 24.1 2.59 9.79 0.904 14.8-0.904 21.9-1.55 6.09-2.27 15.3-8.34 16.9-4.33 1.16-11.2-7.47-11.2-7.47l-23.7-24.9z" fill="#001c34"/>
  <path d="m471 70.8s5.63-2.06 9.66-1.62c12.7 1.38 31.5 19.8 31.5 19.8l12.5 9.69 6.92 22.9-51-4.39s-19.2-2.73-23.3-10.1c-3.32-5.98 3-20.3 3-20.3z" fill="#e31caf"/>
  <path d="m504 339c2.84-3.42 7.79-3.62 7.79-3.62l12 3.27 32.6 24.3-4.04 26.2-33.4-16.2-7.06-14.6s-14.1-11.8-7.79-19.4z" fill="#00aa73"/>
  <path d="m187 445c10.6-2.08 31.7 7.13 31.7 7.13s12.6 15.5 11.5 24.5c-0.969 8.31-15.6 19.6-15.6 19.6l-34-8.15s-24.7-11.2-24-22c0.825-12.3 18.3-18.8 30.4-21.1z" fill="#55e345"/>
  <path d="m445 498 30.2 14 0.43 0.334 34.6 26.9-11.8 16.3-19 15.6-19.3-29.5-10.2-29.3z" fill="#e3006f"/>
  <path d="m86.9-50 14.6-13.7 19.3 17.6 5.01 36.9-4.68 9.17s-6.47 8.04-12.1 9.32c-8.29 1.88-16-9.32-16-9.32l-12.5-9.53z" fill="#1ce39d"/>
  <path d="m361-16.4 23.1 4.88 13.1 13.8-11.2 25.7-19.1 1.93-41.4-12 18.5-17.8z" fill="#aa0016"/>
  <g>
   <path d="m36.8 118c-2.67-0.177-6.65 4.5-6.65 4.5l-8.14 9.61c-0.594 8.8-16 24.2-22 32.1l-20.6 15.4 42.8 27.2s19.4 0.126 27.3-4.63c10.3-6.17 22-28.5 22-28.5s3.34-4.41 3.29-6.99c-0.0612-2.91-4.05-7.75-4.05-7.75l-30-37.4s-2.22-3.45-4.01-3.57z" fill="#005528"/>
   <path d="m428 111c-11.9 1.18-19.3 11.3-22.3 30.2 1.13 19.9 4.75 29.6 19.5 30.4 9.2 0.518 37.3 5.85 49.8 4.4 9.8-1.14 25.6-15 25.6-15l26-27.6-28.2-7.71-47.9-13.7c-7.5-2.81-15.1-1.81-22.4-1.09z" fill="#e3388e"/>
   <path d="m326 414c-20-0.0643-30.8 2.63-32.3 8.08-5.93 20.9-6.88 33-2.86 36.3 12.5 10.3 9.22 15.4 14.7 16.1 5.48 0.672 8.48-4.11 12.9-3.66 12.1 1.22 32.4 16.8 32.4 16.8s19.2 12.2 26.2 6.55c5.33-4.28-0.543-20.5-0.543-20.5-3.24-8.49-22.5-36.9-20.6-42.6 0.751-8.85 1.02-13.5 0.793-13.9-0.695-1.25-5.83-2.14-15.4-2.67-5.6-0.309-10.7-0.47-15.3-0.484z" fill="#9cd5a6"/>
  </g>
  <path d="m195 499 28 5.11-0.229 7.92-0.196 6.79-13.3 39.9-7.78-2.98-37.4-30.4 15.6-13.3z" fill="#550029"/>
  <path d="m144-36 38.5 18.1-15 17.9s-5.14 10-9.94 11.9c-8.93 3.52-22.8 4.14-28.6-3.55-1.69-2.26 1.37-8.35 1.37-8.35l5.04-30.8z" fill="#38e3df"/>
  <path d="m393 31.5 7.56-20.8 27.8-17.7 31.9 48.6s7.38 23.6-0.753 28.4c-15.6 9.33-48.8-24.7-48.8-24.7z" fill="#c700b4"/>
  <path d="m-5.02 315 11.3-12.7s16.8-10.6 25.7-8.73c11 2.35 22.8 11.9 24.8 23 1.64 9.35-4.3 21.6-13 25.3-13.5 5.69-42-12.8-42-12.8l-1.68-3.53z" fill="#008ebf"/>
  <path d="m-54.2 475 39.9 3.59 31.6 25.6 4.85 5.94-17.3 17.4-55.1-29.8z" fill="#e3e3c9"/>
  <path d="m363 420c-0.236-8e-3 -0.364 0.0406-0.373 0.15-0.843 9.94-0.452 16.4 1.17 19.3 5.44 9.87 12.8 22.3 18.6 30.1l6.17 25.5s7.83 12.1 14.2 13.2c12.1 2.16 34-14.2 34-14.2l6.21-6.11 8.5-18.9-0.463-34.4-33.9-1.52c-23.8-2.55-40.1-11.5-54.1-13.2z" fill="#b9d538"/>
  <path d="m238-35.6 35.3-15.2 27 15.5 0.782 35.2 0.202 9.07-3.41 10-57.4-17.8-11.1-12z" fill="#71e3d0"/>
  <path d="m29.9 0.189 0.149-0.189 2.32-2.94 20.7-20 11.7 3.96 16.6 19s15.6 12.5 29.1 19.6c3.31 1.73-13.1 15.2-13.1 15.2l-27.5 2.24z" fill="#1c0024"/>
  <path d="m-32.7 343 10.8-5.21 36.2 56 5.66 18.3-60.2 9.24-12.9 1.37 13.5-62.4z" fill="#e3aac9"/>
  <path d="m360 499c7.56-2.17 23.9 1.42 23.9 1.42l13.1 13.8-11.2 25.7-19.1 1.93-41.4-12 18.5-17.8s8.58-10.8 16.1-12.9z" fill="#aa0016"/>
  <path d="m-54.2-37.1 39.9 3.59 31.6 25.6 4.85 5.94-17.3 17.4-55.1-29.8z" fill="#e3e3c9"/>
  <path d="m271 16.4c9.26 1.81 23.5 3.91 25 13.2 2.01 12.6-28.5 33.1-40.1 38.4-12.1 5.45-15.2-0.943-25.4-9.44-9.72-8.14-13.8-27.5-6.04-37.5 9.49-12.3 31.2-7.61 46.4-4.62z" fill="#710098"/>
  <path d="m501 60.9c1.09-6.72 11.4-11 11.4-11l10.4-5.52 33.8 35.2-7.42 29.5-1.82 1.62-11.2-7.47-23.7-24.9s-12.8-8.86-11.4-17.5z" fill="#001c34"/>
  <path d="m20.7 215c-5.19 3.38-2.67 9.64-7.03 17.2-6.77 11.7-12.2 27.2-7.62 39.9 2.96 8.26 20.3 16.8 20.3 16.8s29.4-13.5 45-17.7c7.6-2.08 14-2.86 23.3-3.74 8.43-0.802 13.1-6.19 13.9-16.2 0.273-3.28-0.488-8.72-2.28-16.3-0.589-2.5-16-8.78-46.2-18.8-20.9-10.9-28.4-8.29-39.4-1.12z" fill="#0e715b"/>
  <path d="m-52.4 429 71-9.47 2.17 0.445 0.978 25.5-27.4 28-46.2-7.54-1.61-33.9z" fill="#e3c7ec"/>
  <path d="m238 476c8.73-9.39 22.5-15.9 35.3-15.2 10.4 0.607 27 15.5 27 15.5l0.782 35.2 0.202 9.07-3.41 10-57.4-17.8-11.1-12s2.63-18.5 8.62-24.9z" fill="#71e3d0"/>
  <path d="m29.9 512 0.149-0.189 2.32-2.94 20.7-20 11.7 3.96 38.6 44.3-6 9.46-27.5 2.24z" fill="#1c0024"/>
  <path d="m42.1 115q0.952-0.953 32.4-0.062 35.9 1.02 38.4 3.92 2.91 3.31-3.94 23.8-7.81 23.3-17.3 23.6-10.9 0.315-29.3-23.4-21.1-27-20.3-27.9z" fill="#1c3877"/>
  <path d="m141 404q14.7 2.78 24.6 24 6.32 13.6-11.1 31-11.2 11.2-16.4 12.4-3.36 0.795-21.4-16.5-11.5-11.1-3.72-38.1 4.99-17.3 28-12.9z" fill="#38c798"/>
  <path d="m63.9 60.2q12.4-12.4 25.1-16 12.9-3.63 18.1 4.78 5.29 8.59 4.37 34.3-0.945 26.2-34.3 25.3-34-0.963-29.8-18.4 4.34-17.8 16.5-30z" fill="#1c1c7e"/>
  <path d="m361 108q21.2-9.42 31.5-2.83 11.6 7.41 7.55 33.1-4.51 28.9-10.9 33.3-7.18 4.89-17.3 4.09-11.4-0.898-20-28.4-9.68-30.9 9.2-39.3z" fill="#aa3878"/>
  <path d="m121 341q9.27-11.6 17.3-10.5 36 4.69 39.4 7.59 15.3 13.1 15.3 14.4-0.06 6.25-1.28 10.2-5.5 17.8-10.7 21-23.5 14.6-30.4 13.3-30.9-5.83-32.3-9.29-6.55-15.5-5.24-20.7 5.9-23.4 7.96-26z" fill="#38aa36"/>
  <path d="m398 373q52.3 52.7 52.3 52.8 0.049 0.39 2e-3 0.487-1.04 2.15-2.51 2.09-32.6-1.29-34.7-1.8-47.7-11.4-47.7-11.5-1.32-2.37-1.29-2.47 0.633-2.22 1.97-3.93 29.6-38 32-35.6z" fill="#c7c716"/>
  <path d="m307 141c20.6-15.1 22.9-26.3 25-25.3 3.03 1.39 7.05 10.1 12.1 26.1 7.18 22.9 9.79 35.2 7.81 36.9-2.83 2.36-13.8 0.835-32.8-4.57-27.3-7.74-41.1-12.9-41.7-15.6-0.739-3.82 15.2-6.87 29.6-17.4z" fill="#8e386b"/>
  <path d="m161 190c-23.8 4.17-36.9 9.1-39.1 14.8-1.72 8.69-12.5 23.8-6.94 32.1-0.201 5.58 0.633 20.7-0.24 31.1 4.41 13.4 11.9 25.9 13.7 38.7 1.63 11.3 10.4 18 26.4 20.1 13.3 1.74 27.2 11.3 34.5-4.74 6.1-13.3 7.11-26.5 3.38-33.9-0.0983-0.196-3.14-19.7-3.25-19.9-1.05-6.21-0.753-6.42-2.66-20.4s-1.69-45.7-10.8-57.9c-6.92-3.97-11.5-0.588-15.1 0.0918z" fill="#3871b1"/>
  <path d="m71.2 329q40.2 14.5 39.6 17-6.58 26.1-10.6 26.5-41.8 4.32-43.1 2.07-13.3-23.5-11.2-25.5 21.4-21.4 25.3-20z" fill="#1caa20"/>
  <path d="m36.2 403q21.4-21.4 30.7-22.4 36.5-3.78 38.1 0.078 6.38 15.1 3.79 24.1-10.2 35.3-10.6 35.4-1.56 0.465-15.3-4.44-53.8-19.3-53.9-19.4-0.348-0.552 0.063-2.04 1.61-5.86 7.07-11.3z" fill="#1cc73b"/>
  <path d="m415 53.6q40.4 25 38.1 33.6-4.26 16-18.3 17.4-26.2 2.6-33.8-2.29-14.2-9.11-11.9-27.6 4.24-34.5 25.9-21.1z" fill="#c71c5c"/>
  <path d="m91.9 172q10.2-0.298 19.1 10.9 9.01 11.3 2.63 27.6-6.45 16.5-36.4 6.55-30.3-10.1-13-27.3 17.5-17.5 27.6-17.7z" fill="#1c557e"/>
  <path d="m371 36.4q14.1-2 14.5-1 1.18 3.77-0.179 14.9-5.15 41.9-13.5 45.6-31.7 14.1-33.3 13.3-6.1-2.8-6.95-4.2-3.22-5.28-3.26-10.2-0.173-18.6 8.04-26.8 31-31 34.8-31.6z" fill="#aa1c3c"/>
  <path d="m176 124q1.48-1.56 48.4 7.35 16.1 3.06-16.6 39.2-11.2 12.4-21.9 13.6-3.67 0.398-6.27-1.71-0.891-0.724-6.14-40.3-1.8-13.6 2.5-18.1z" fill="#5538b7"/>
  <path d="m398 358c0.231-4.25 2.37-7.46 6.41-9.62 3.37-1.8 15.8-2.81 37.4-3.02 18-0.178 24 13.5 18 41-1.36 60.7-17.4 24.4-37.3 4.37-16.6-16.7-24.7-27.6-24.5-32.7z" fill="#c7aa89"/>
  <path d="m203 367c-3.69 0.313-6.75 4.39-9.17 12.2-0.895 2.89 2.17 8.08 14.8 26.4-0.288 1.5 15.1 26.8 15 28.4-0.321 4.99 0.248 13 8.17 23 4.49 5.67 15.2 5.73 32 0.166 23.9-1.54 20.4-13.2 25.4-30.8 2.83-9.99-1.56-20.3-6.07-30-1.4-3.04-4.51-4.64-9.31-4.8-10.4-3.43-46.6-8.99-65.4-22.6-1.94-1.41-3.75-2.05-5.43-1.9z" fill="#63b98d"/>
  <path d="m304 45.1c12.1 20.7 18.2 32.8 18.2 36.2 0.114 12.3-4.03 17.1-13.4 14-33.6-11.3-50.9-17.3-51-17.3-0.0793-0.183 2.88-3.27 8.88-9.27 21.5-21.5 33.9-29.3 37.3-23.5z" fill="#8e1c73"/>
  <path d="m161 128q5.46 0.582 11.6 47.2 0.864 6.51-41.5 13.9-5.92 1.04-21.6-18.7-2.2-2.76 10.7-41.2 1.8-5.37 40.8-1.21z" fill="#3838d6"/>
  <path d="m49.7 286q8.21-8.21 26.2-9.92 33.1-3.15 36.6 1.63 6.26 8.8 8.16 22 3.48 24.2-0.51 29.2-7.34 9.17-22.9 3.58-28.5-10.3-36.8-21.5-15.2-20.6-10.8-25z" fill="#1c8e5d"/>
  <path d="m214 55.2c-3.03-0.337-6.14 0.912-8.52 3.3-11 11-17.1 19-18.2 23.8-5.04 22.4-3.82 34.4 3.67 35.8 34.6 6.56 51.9 9.82 52.1 9.78 0.28-0.0653 15.7 11.8 20.3 13.6 2.67 4.01 7.08 7.85 11 6.26 23.5-9.59 48.2-16.6 50.6-37.4 0.36-3.12-4.65-6.69-6.1-7.18-25.1-9.78-52.7-13.8-75.7-28.4-21.2-13.8-17.5-18.2-29.1-19.5z" fill="#6c2f9a"/>
  <path d="m170 399q20.3-12.6 27.6-2.71 17.5 23.9 17.1 30-0.943 14.7-11.5 14.1-25.4-1.27-30.2-11.5-11.4-24.7-3.04-29.9z" fill="#55c74f"/>
  <path d="m152 68.8q29.5 7.39 24.6 29.2-4.3 19.2-7.38 22.4-2.7 2.86-26.4 0.335-20.8-2.22-23.7-5.52-2.55-2.91-1.56-30.5 0.876-24.3 34.4-15.9z" fill="#381c86"/>
 </g>
</svg>
