<?xml version="1.0" encoding="UTF-8"?>
<svg width="512px" height="512px" contentScriptType="text/ecmascript" contentStyleType="text/css" version="1.1" viewBox="0 0 512 512" xmlns="http://www.w3.org/2000/svg">
 <g class="voronoi" stroke-width=".5">
  <path d="m428-7.05-11.1 7.05c-16.1 6.1-25.9 23.1-38.8 30.4-10.6 5.67-3.81 13.6-6.51 35.5-1.52 12.3 19.7 30.4 29.1 36.4 5.09 3.26 16.4 4.02 33.8 2.29 19.2-10.1 31.3-42.2 25.4-63.1l-27.3-41.5z" fill="#c700b4"/>
  <path d="m458-37.1 39.9 3.59 31.6 25.6 4.85 5.94-17.3 17.4-55.1-29.8z" fill="#e3e3c9"/>
  <path d="m94.7 379c-6.35-0.013-15.6 0.61-27.8 1.87-6.2 0.641-16.4 8.1-30.7 22.4-10.7 11.7-0.458 32.1-11.6 44.9 0 0-18.2 16.2-19.2 25.2-1.29 12.6 8.48 26.5 19.9 28.4 10.9 1.85 27-19.5 27-19.5l8.89-2.96c10.4-9.6 27.9-31.1 37.1-38.8 15.1-12.8 3.8-11.9 10.6-35.4 1.73-5.99 1.88-18.3-3.79-24.1-2.44-2.52-3.99-1.93-10.3-1.95z" fill="#09d07d"/>
  <path d="m460 429 71-9.47 2.17 0.445 0.978 25.5-27.4 28s-22.6-0.614-33-12.3c-7.53-8.44-13.7-12.2-15.6-20.7-0.95-4.25 1.75-11.4 1.75-11.4z" fill="#e3c7ec"/>
  <path d="m318 479c9.5-0.552 15.2 5.71 26 11.7 6.81 3.79-8.59 21.1-8.59 21.1l-13.1 14.8-14.4 1.9 0.707-16.7s-1.07-19.3 3.7-27.4c1.62-2.72 2.47-5.32 5.63-5.51z" fill="#8ee3e0"/>
  <path d="m445-14.3 30.2 14 0.43 0.334s27.5 5.49 32.3 19.3c2.19 6.27-2.38 27-2.38 27s-18.1 13.7-26.2 12.5c-11.6-1.79-19.3-29.5-19.3-29.5l-10.2-29.3z" fill="#e3006f"/>
  <path d="m507 315 11.3-12.7 25.7-8.73 24.8 23-13 25.3-42-12.8-1.68-3.53z" fill="#008ebf"/>
  <path d="m474 482c9.04-9.85 24.1-3.96 24.1-3.96l31.6 25.6 4.85 5.94-17.3 17.4-28.7-15.5-11.4-8.92s-8.48-14.9-3.27-20.6z" fill="#e3e3c9"/>
  <path d="m533 148 16.4 59.2-1.36 0.59-14-1.31-22.2-14.1s-12.5-5.17-12.8-13.3c-0.326-8.58 12.8-15.2 12.8-15.2z" fill="#005528"/>
  <path d="m-12.9 332 12.9 3.52s8.24 1.46 12 3.27c12.2 5.94 36.2-12.1 37.4-1.11 1.99 18.1 6.65 43.7-8.9 51.7-11 5.65-33.4-16.2-33.4-16.2l-7.06-14.6z" fill="#00aa73"/>
  <path d="m475 349c3.95-4.15 20.9-11 21.3-5.24 0.658 8.38 15.8 27.9 15.8 27.9l14.3 22.1 5.66 18.3-60.2 9.24s-14.4 2.57-17.5-0.449c-3.97-3.86 5.87-14.7 5.87-14.7s12.1-54.3 14.7-57.1z" fill="#e3aac9"/>
  <path d="m144 479c14.1-0.741 17.5 5.35 32.6 12.6 7.03 3.36-8.6 19.9-8.6 19.9l-9.94 11.9-28.6-3.55 6.41-39.1s4.72-1.57 8.1-1.74z" fill="#38e3df"/>
  <path d="m393 543 7.56-20.8 16.7-10.6s6.82-7.98 11.1-7.05c2.75 0.592 4.63 7.05 4.63 7.05l27.3 41.5-0.753 28.4-48.8-24.7z" fill="#c700b4"/>
  <path d="m471 70.8s6.95-5.66 11-5.22c12.7 1.38 30.2 23.4 30.2 23.4l12.5 9.69 6.92 22.9-51-4.39s-19.2-2.73-23.3-10.1c-3.32-5.98 0.53-13.9 3-20.3 2.32-5.99 10.8-16 10.8-16z" fill="#e31caf"/>
  <path d="m505 337c2.84-3.42 6.58-1.42 6.58-1.42l12 3.27 32.6 24.3-4.04 26.2-33.4-16.2-7.06-14.6s-12.9-14-6.58-21.6z" fill="#00aa73"/>
  <path d="m176 442c10.6-2.08 42.5 10.1 42.5 10.1s12.6 15.5 11.5 24.5c-0.969 8.31 1.4 14.1-6.51 16.8-11 3.8-43.1-5.34-43.1-5.34s-30.5-8.09-24-16.7c6.06-7.99 7.49-27 19.6-29.4z" fill="#55e345"/>
  <path d="m456 504c8.23-7.46 19.2 7.41 19.2 7.41l0.43 0.334 34.6 26.9-11.8 16.3-19 15.6-19.3-29.5-10.2-29.3s2.35-4.36 6.09-7.75z" fill="#e3006f"/>
  <path d="m361-16.4 23.1 4.88 13.1 13.8s-5.67 12.1-10.4 16.6c-5.49 5.2-19.9 11-19.9 11s-31.4 4.79-34.9-9.16c-2.06-8.31 12-20.7 12-20.7z" fill="#aa0016"/>
  <path d="m499 126 28.2 7.71-26 27.6s-6.94 8.69-11.9 10.8c-8.07 3.44-17.7 3.89-22.1-3.71-8.37-14.5-16.4-35.3-3.29-46.7 8.87-7.7 35 4.36 35 4.36z" fill="#e3388e"/>
  <path d="m356 446c11.4 1.25 21 27.3 21 27.3s5.88 16.2 0.542 20.5c-7.03 5.64-26.2-6.56-26.2-6.56s-30.7-8.64-24.1-15.7c7.96-8.56 17.4-26.8 28.8-25.6z" fill="#aae33b"/>
  <path d="m195 499c8.12-2.46 19.3-4.36 25.3 3.01 1.66 2.05 2.49 10 2.49 10l-0.196 6.79-13.3 39.9-7.78-2.98-37.4-30.4 15.6-13.3s8.85-11.1 15.2-13z" fill="#550029"/>
  <path d="m-54.2 475 39.9 3.59 31.6 25.6 4.85 5.94-17.3 17.4-55.1-29.8z" fill="#e3e3c9"/>
  <path d="m417 433 31.2 2.71s22 23.8 22.5 38.8c0.274 7.58-3.98 15.8-9.99 20.5-4.62 3.55-11.4 2.14-17.1 3.39-13.7 3-40.9 9.81-40.9 9.81l-14.2-13.2s-9.04-18.1-6.53-27c4.48-15.9 35.1-34.9 35.1-34.9z" fill="#c7e30d"/>
  <path d="m493 184c10.8 6.54 18.7 16.2 18.7 16.2l14.7 6.21-13 27.9-42.8-5.79s-6.93-23.4-6.1-42.3c0.41-9.37 24.5-4.58 28.4-2.26z" fill="#e355c7"/>
  <path d="m-32.7 343 10.8-5.21 36.2 56s10.2 10.4 6.82 15.8c-3.57 5.71-21.1 5.57-21.1 5.57l-40.3 6.18-12.9 1.37 13.5-62.4z" fill="#e3aac9"/>
  <path d="m86.9 462c3.12-5.89 7.9-13.7 14.6-13.7 8.71-0.061 19.3 17.6 19.3 17.6s8.27 14.5 6.19 26.8c-0.576 3.38-5.86 19.3-5.86 19.3l-7.9 15.5-20.3-15.5s-19.1-17-21-21.9c-5.07-12.7 8.59-16.1 15-28.2z" fill="#1ce39d"/>
  <path d="m363 500c7.56-2.17 14.4-2.16 20.7 0.654 4.84 2.16 11 11.5 11 11.5l2.15 2.25-11.2 25.7-19.1 1.93-41.4-12 18.5-17.8s11.8-10 19.4-12.2z" fill="#aa0016"/>
  <path d="m497 60c1.09-6.72 14.5-10.2 14.5-10.2l10.4-5.52 33.8 35.2-7.42 29.5-1.82 1.62-11.2-7.47-23.7-24.9s-15.9-9.7-14.5-18.3z" fill="#001c34"/>
  <path d="m460 233c7.13-6.62 28.5 6.35 28.5 6.35l24.1 34-4.08 27.9-25.6-18.4-20.7-34.8s-5.89-11.6-2.19-15z" fill="#e37192"/>
  <path d="m-52.4 429 71-9.47 2.17 0.445 0.978 25.5-27.4 28-46.2-7.54-1.61-33.9z" fill="#e3c7ec"/>
  <path d="m238 476c8.73-9.39 35.3-15.2 35.3-15.2s17.8-0.402 23.1 8.53c5.99 10.1 4.64 42.2 4.64 42.2l0.202 9.07-3.41 10-57.4-17.8-1.23-1.32s-7.48-8.3-8.49-13c-1.82-8.61 1.21-16.1 7.2-22.5z" fill="#71e3d0"/>
  <path d="m29.9 512 0.149-0.189 2.32-2.94 20.7-20 11.7 3.96 38.6 44.3-6 9.46-27.5 2.24z" fill="#1c0024"/>
  <path d="m354 326c-3.36-0.0747-9.7 8.77-21.2 15.5-6.8 3.97-12.7 16.8-26.1 22.6-8 4.42-20.2 8.81-21.3 19-0.0747 0.81 2.09 6 6.5 15.6 2.65 5.75 16.3 9.31 40.9 10.7 6.71-1.05 12.1 2.65 22.6-2.81s19.2-18.6 32.7-35.8c2.56-3.28 4.06-9.02 4.5-17.2-11.2-8.17-30.1-25.8-38.7-27.5z" fill="#9caa5f"/>
  <path d="m141 404q14.7 2.78 24.6 24 6.32 13.6-11.1 31-11.2 11.2-16.4 12.4-3.36 0.795-21.4-16.5-11.5-11.1-3.72-38.1 4.99-17.3 28-12.9z" fill="#38c798"/>
  <path d="m121 341q9.27-11.6 17.3-10.5 36 4.69 39.4 7.59 15.3 13.1 15.3 14.4-0.06 6.25-1.28 10.2-5.5 17.8-10.7 21-23.5 14.6-30.4 13.3-30.9-5.83-32.3-9.29-6.55-15.5-5.24-20.7 5.9-23.4 7.96-26z" fill="#38aa83"/>
  <path d="m398 373q52.3 52.7 52.3 52.8 0.049 0.39 2e-3 0.487-1.04 2.15-2.51 2.09-32.6-1.29-34.7-1.8-47.7-11.4-47.7-11.5-1.32-2.37-1.29-2.47 0.633-2.22 1.97-3.93 29.6-38 32-35.6z" fill="#c7c716"/>
  <path d="m416 248c1.38-2.05 11.8-5.58 31.1-10.6 3.55-0.917 8.37 7.21 14.5 24.4 1.12 3.15-6.98 4.57-21.7 19.2-2.69 2.69-8.17 9.08-19.1 4.18-2-0.898-6.7-6.73-14.1-17.5-1.36-1.97 1.72-8.55 9.23-19.7z" fill="#c77144"/>
  <path d="m71.2 329c26.8 9.65 40 15.3 39.6 17-4.39 17.4-7.92 26.2-10.6 26.5-27.9 2.88-42.2 3.57-43.1 2.07-4.12-16.5-1.99-14.7-3.63-28.9-0.93-8.04 15.1-17.5 17.7-16.6z" fill="#1caa20"/>
  <path d="m363 420q0.224-2.63 42.6 7.51 7.48 1.79-22.3 31.6-5.27 5.27-19.1-19.8-2.44-4.43-1.17-19.3z" fill="#aac7cf"/>
  <path d="m202 353q7e-3 -0.754 20.9-8.34 2.29-0.83 50.2 30.8 5.24 3.46 4.98 6.38-0.03 0.319-29.4 8.82-3.21 0.931-42.5-27.6-4.3-3.13-4.24-10z" fill="#71aadb"/>
  <path d="m342 415q14.4 0.792 15.4 2.67 0.335 0.602-0.792 13.9-0.362 4.26-28.7 32.6-9.08 9.08-15.6 10-2.08 0.295-20.9-15.2-6.03-4.97 2.86-36.3 2.85-10.1 47.6-7.6z" fill="#8ec7ba"/>
  <path d="m398 358q0.346-6.38 6.41-9.62 5.06-2.7 37.4-3.02 27-0.267 18 41-7.49 34.4-37.3 4.37-24.9-25.1-24.5-32.7z" fill="#c7aa89"/>
  <path d="m258 394q20.8-6.02 24.6 2.29 6.76 14.7 2.51 29.7-7.5 26.5-21.8 31.2-25.3 8.34-32-0.165-11.9-15-11.4-22.5 0.85-13.2 10.1-21.8 16.3-15.2 28.1-18.6z" fill="#71c75f"/>
  <g>
   <path d="m426 109c-5.7-0.0181-11.4 0.189-15.9 0.639-12.3 1.22-10.7 16.9-13.8 36.6-2.58 14.5-2.09 21-2.13 31.5-0.0675 17.4-7.06 33.5 3.11 52.1 10.1 18.4 26.2 6.56 37.8 3.58 11.4-2.94 17.8-5.08 19.1-6.41 1.32-1.32 3.49-8.27 6.51-20.9 2.99-12.5 1.59-28.2-0.629-35-4.62-14.3-8.45-13.2-6.56-32.1 1.38-14.5 1.03-23.4-1.04-26.9-1.21-2.02-13.9-3.15-26.5-3.19z" fill="#c7470d"/>
   <path d="m170 399q20.3-12.6 27.6-2.71 17.5 23.9 17.1 30-0.943 14.7-11.5 14.1-25.4-1.27-30.2-11.5-11.4-24.7-3.04-29.9z" fill="#55c7a0"/>
   <path d="m469 273c-3.72-3.51-13.9 6.43-13.9 6.43-6.1-1.59-29.6 16.3-41.3 20.2-2.7 18.7 6.32 42.2 24.7 42 29 1.07 35.3 4.14 57.7-5.33 0 0 5.71-13.3 5.96-19.2 0.529-12.6-22.6-30.2-22.6-30.2s6e-3 -4.07-10.5-13.9z" fill="#d58e4f"/>
  </g>
  <path d="m387 276q3.99-4.78 11.9-6.83 1.29-0.336 12.6 16.1 1.85 2.7-4.64 47.6-1.07 7.38-10.6 12.5-1.57 0.839-34.2-19.5-5.35-3.35-5.94-6.02-0.097-0.439 5.7-12.7 0.952-2.01 25.2-31.1z" fill="#aa8ed1"/>
  <path d="m194 379q5.29-17.1 14.6-10.3 34.3 24.9 28.8 30-20.1 18.7-25.4 11.5-19.5-26.6-18-31.2z" fill="#55aa93"/>
 </g>
</svg>
