<?xml version="1.0" encoding="UTF-8"?>
<svg width="512px" height="512px" contentScriptType="text/ecmascript" contentStyleType="text/css" version="1.1" viewBox="0 0 512 512" xmlns="http://www.w3.org/2000/svg">
 <g class="voronoi" stroke-width=".5">
  <path d="m458-37.1 39.9 3.59 31.6 25.6 4.85 5.94-17.3 17.4-55.1-29.8z" fill="#e3e3c9"/>
  <path d="m303 25.7 3.17-4.14 11.2 0.316 40.1 9.42-26.6 35-25.7-27.8z" fill="#8e00cf"/>
  <path d="m-13.2 126 28.2 7.71-26 27.6-25.6 20.8-12.6-8.24-3.62-33.7z" fill="#e3388e"/>
  <path d="m27.5 423s36.1 6.05 63.4 21.1c3.79 2.09-4.07 7.93-7.43 10.6-2.93 2.37-10.4 4.39-10.4 4.39s-38.7-8.19-47-23.7c-1.98-3.7 1.52-12.5 1.52-12.5z" fill="#00c7f1"/>
  <path d="m460 429 71-9.47 2.17 0.445 0.978 25.5-21.8 22.3s-4.87 7.16-7.48 6.58c-19.2-4.26-44.4-8.39-44.4-8.39s-3.43-11.7-3.56-17.7c-0.14-6.47 3-19.2 3-19.2z" fill="#e3c7ec"/>
  <path d="m318 479c12.1 2.76 34.7 13.3 34.7 13.3l-30.4 34.4-14.4 1.9 0.707-16.7s-0.691-21.3-3.06-33.9c-0.582-3.11 8.35 0.11 12.4 1.03z" fill="#8ee3e0"/>
  <path d="m23.1 7.35c-6.91 1.92-17 8.39-17.3 17.4-0.272 8.08 14.2 21.7 14.2 21.7 22.4 28.4 15.2 31.5 27.4 43.6 8.28 8.21 7.1 17.7 29.8 18.4 22.2 0.629 33.6-7.8 34.3-25.3 0.617-17.1-0.839-28.5-4.37-34.3-3.45-5.61-10.4-8.32-16.2-11.4-11.5-6.16-8.7-4.22-36.6-14.1 0 0-19-19.4-31.1-16.1z" fill="#0e0eb0"/>
  <path d="m445-14.3 30.2 14 0.43 0.334s28.1 5.53 32.2 19.5c2.05 7.02-0.371 23.2-4.97 28-5.62 5.96-15.4 12.4-23.5 11.1-11.6-1.79-19.3-29.5-19.3-29.5l-10.2-29.3z" fill="#e3006f"/>
  <path d="m507 315c0.353-2.5 5.02-5.68 5.02-5.68l6.24-7.05 25.7-8.73 24.8 23-13 25.3-42-12.8-1.68-3.53s-5.57-6.7-5.02-10.6z" fill="#008ebf"/>
  <path d="m30.4 450c13.8 4.68 50.6 12.2 49.3 28-1.59 19.5-40.5 22.6-63.1 19.5-10.1-1.37-9.74-28.9-9.74-28.9s14-21.9 23.4-18.7z" fill="#00e358"/>
  <path d="m457 473c9.04-9.85 40.9 5.46 40.9 5.46l31.6 25.6 4.85 5.94-17.3 17.4-55.1-29.8s-10.1-19-4.93-24.6z" fill="#e3e3c9"/>
  <path d="m318-32.9 34.7 13.3-30.4 34.4s-8.49 2.52-12.1-0.734c-4.12-3.77-1.59-14.1-1.59-14.1l1.18-28z" fill="#8ee3e0"/>
  <path d="m111 30s6.21-10.9 11.6-13.2c7.56-3.25 16.6 0.723 24.5 2.98 15.5 4.42 34.6 7.98 42.2 21.9 3.66 6.71 3.81 18-2.14 22.8-13.5 10.9-34.3-5.4-51.6-6.19-6.87-0.315-15.4 5.03-20.6 0.577-7.42-6.29-3.96-28.9-3.96-28.9z" fill="#3800b4"/>
  <path d="m-41.1 70.8 11-5.22 42.6 33.1s7.6 11.4 2.58 17.6c-4.09 5.03-15 3.67-15 3.67l-31.6-2.72-23.3-10.1 3-20.3z" fill="#e31caf"/>
  <path d="m533 148 16.4 59.2-1.36 0.59-14-1.31-22.2-14.1s-14.9-4.62-15.2-12.8c-0.326-8.58 15.2-15.8 15.2-15.8z" fill="#005528"/>
  <path d="m-12.9 332 12.9 3.52s7.89 2.52 12 3.27c8.71 1.6 22.3-5.24 26.4 2.58 7.85 14.7-7.04 43.6-23.7 44.1-4.84 0.145-7.63-12.3-7.63-12.3l-7.06-14.6z" fill="#00aa73"/>
  <path d="m496 340c-0.35-3.97-28.8 3.35-32.6 4.48-6.19 1.83-39.2 0.603-39.2 0.603-22.6 0.309-16.1 2-19.4 3.75-4.04 2.16-6.18 5.36-6.41 9.62-0.276 5.1 7.87 16 24.5 32.7 6.2 11.3 33.6 33.4 43 31.8l14.4-2.48 52-7.93-5.66-18.3-14.3-22.1s-15.2-20.2-16.3-32.1z" fill="#e3aac9"/>
  <path d="m144 476c14.1-0.741 22.8 5.01 35.7 16.3 5.86 5.15-12.2 19.7-12.2 19.7l-9.94 11.9-28.6-3.55 1.37-8.35s1.7-22.7 7.52-31.3c1.89-2.8 2.82-4.57 6.2-4.75z" fill="#38e3df"/>
  <path d="m393 543 7.56-20.8 27.8-17.7 31.9 48.6-0.753 28.4-48.8-24.7z" fill="#c700b4"/>
  <path d="m195-13 28 5.11-0.229 7.92-0.196 6.79s2.11 26.2-8.26 41.7c-1.54 2.31-12.8-4.8-12.8-4.8l-37.4-30.4 15.6-13.3z" fill="#550029"/>
  <path d="m-18 59.4 28.4-15.1s7.18 1.31 12.7 16.6c2.53 7.06 19.4 41 19.4 41s-4.61 4.41-7.57 4.78c-3.87 0.486-11.1-3.6-11.1-3.6l-23.7-24.9z" fill="#001c34"/>
  <path d="m471 70.8s15.2-9.81 17.4-6.39c9.17 14.4 23.7 24.6 23.7 24.6l12.5 9.69 6.92 22.9-51-4.39-23.3-10.1 3-20.3z" fill="#e31caf"/>
  <path d="m505 339c2.84-3.42 6.91-3.32 6.91-3.32l12 3.27 32.6 24.3-4.04 26.2-33.4-16.2-7.06-14.6s-13.2-12.1-6.91-19.7z" fill="#00aa73"/>
  <path d="m187 445s23.3 0.345 31.7 7.13c7.03 5.64 13.6 15.7 11.5 24.5-1.42 6.07-1.66 16.5-7.96 17.4-14.1 2-29.8 2.32-36.8-3.96-7.93-7.04-28.7-13.3-28.8-23.9-0.175-12.3 30.4-21.1 30.4-21.1z" fill="#55e399"/>
  <path d="m449 499c8.23-7.46 25.9 13 25.9 13l0.43 0.334 34.6 26.9-11.8 16.3-19 15.6-19.3-29.5-10.2-29.3s-4.39-9.98-0.644-13.4z" fill="#e3006f"/>
  <path d="m86.9-50 14.6-13.7 19.3 17.6 5.01 36.9-4.68 9.17s-4.86 8.94-10.5 10.2c-8.29 1.88-17.6-10.2-17.6-10.2l-12.5-9.53z" fill="#1ce39d"/>
  <path d="m361-16.4 23.1 4.88 13.1 13.8-11.2 25.7-19.1 1.93-41.4-12 18.5-17.8z" fill="#aa0016"/>
  <path d="m499 126 28.2 7.71-26 27.6s-14.6 20.2-25.6 20.8c-5 0.258-12.6-8.24-12.6-8.24s-6.1-39-0.0877-48.5c7.43-11.8 36 0.712 36 0.712z" fill="#e3388e"/>
  <path d="m357 444c12 0.218 20 29.9 20 29.9s9.51 16 4.18 20.3c-7.03 5.64-29.9-6.3-29.9-6.3s-22.5-5.21-23-14.8c-0.434-7.32 22.4-29.1 28.7-29z" fill="#aae33b"/>
  <path d="m201 498c9.16-2.47 22.1 6.03 22.1 6.03l-0.229 7.92-0.196 6.79-13.3 39.9-7.78-2.98-37.4-30.4 15.6-13.3s14.7-12.2 21.1-13.9z" fill="#550029"/>
  <path d="m144-36 38.5 18.1-15 17.9s-5.21 9.82-9.94 11.9c-9.24 4.04-24.5 6.2-30.2-1.49-1.69-2.26 2.99-10.4 2.99-10.4l5.04-30.8z" fill="#38e3df"/>
  <path d="m393 31.5c-2.05-7.1 7.56-20.8 7.56-20.8l27.8-17.7 31.9 48.6s7.38 23.6-0.753 28.4c-15.6 9.33-48.8-24.7-48.8-24.7s-15.7-6.59-17.8-13.8z" fill="#c70034"/>
  <path d="m448 237c-0.185-0.141-6.86 0.65-10.2 1.58-7.53 2.13-16 3.64-21.7 9.06-5.24 5.03-10.9 12.7-9.23 19.7 3.07 12.7 29 23.1 31 24 7.83 3.52 25.1 24.9 31.5 32.1s4.19 8.65 8.31 9.96c4.3 1.37 13.1-3.47 13.1-3.47l6.77-6.49s5.69-7.25 4.94-11.3c-0.679-3.65-7.84-7.92-7.84-7.92 0.272-0.878-32.8-42.3-33-42.8-5.7-16.1-1.25-12.4-4.59-17.4-2.14-3.2-9.18-6.99-9.18-6.99z" fill="#d58021"/>
  <path d="m-54.2 475 39.9 3.59 31.6 25.6 4.85 5.94-17.3 17.4-55.1-29.8z" fill="#e3e3c9"/>
  <path d="m417 433c10.5-4.08 33.9 1.52 33.9 1.52s2.8 23.2 0.463 34.4c-1.4 6.75-8.5 18.9-8.5 18.9l-6.21 6.11s-21.9 16.4-34 14.2c-6.37-1.14-14.2-13.2-14.2-13.2s-13.1-20.5-6.53-27c11.4-11.3 19.7-28.9 35.1-34.9z" fill="#c7e30d"/>
  <path d="m238-35.6 35.3-15.2 27 15.5 0.782 35.2 0.202 9.07s0.0694 10.7-3.41 10c-20-3.64-57.4-17.8-57.4-17.8l-11.1-12z" fill="#71e3d0"/>
  <path d="m29.9 0.189 0.149-0.189 2.32-2.94 20.7-20 11.7 3.96 16.6 19s14.8 12.1 28.3 17.4c5.98 2.36-8.66 16.7-8.66 16.7s-17.5-4.15-25.8-7.7c-16-6.91-45.3-26.2-45.3-26.2z" fill="#1c0024"/>
  <path d="m50.7 114c-10.8-0.0437-28.2-8.65-28.4 2.42l-0.281 15.2 0.656 10.8 17.2 61 19.1 1.59c2.11 4.61 8.25 8.62 18.4 12 19.9 6.64 32.1 4.46 36.4-6.55 4.25-10.9 3.37-20.1-2.63-27.6-3.94-4.96-6.26-9.9-6.9-15.5-0.971-8.48 0.968-13.7 4.85-25.2 4.56-13.6 5.88-21.6 3.94-23.8-1.7-1.93-14.5-3.24-38.4-3.92-10.5-0.297-18.4-0.44-23.8-0.43z" fill="#0055b4"/>
  <path d="m22.2 153c6.13 20.5 13.2 47.1 13.2 47.1s2.56 5.73 0.784 7.52c-3.3 3.33-14-1.31-14-1.31l-42.8-27.2 20.6-15.4s19.7-19.1 22.2-10.6z" fill="#005528"/>
  <path d="m491 186c11 7.57 21.1 15.1 21.1 15.1l14.7 6.21-13 27.9-1.76-0.238s-31.7 4.66-41-5.55c-7.43-8.18-6.94-23.6-1.28-33.1 4.02-6.74 17.5-12.9 21.1-10.4z" fill="#e355c7"/>
  <path d="m-32.7 343 10.8-5.21 21.9 33.9s6.21 8.43 10.5 16.1c2.56 4.53 14 14.7 10.6 20.1-3.57 5.71-21.1 7.32-21.1 7.32l-40.3 6.18-12.9 1.37 13.5-62.4z" fill="#e3aac9"/>
  <path d="m86.9 462c3.12-5.89 7.9-13.7 14.6-13.7 8.71-0.061 15.2 9.92 19.3 17.6 5.76 11 5.01 36.9 5.01 36.9l-12.6 24.7-20.3-15.5s-13.8-9.53-13.2-14.7c1.5-13.1 0.824-23.2 7.22-35.3z" fill="#1ce39d"/>
  <path d="m360 497c7.56-2.17 24 3.18 24 3.18l13.1 13.8-11.2 25.7-19.1 1.93-41.4-12 18.5-17.8s8.51-12.5 16.1-14.7z" fill="#aa0016"/>
  <path d="m-54.2-37.1 39.9 3.59 31.6 25.6 4.85 5.94-17.3 17.4-55.1-29.8z" fill="#e3e3c9"/>
  <path d="m271 16.4s30.3 5.41 25 13.2c-7.32 10.8-14.1 23-25.7 28.3-12.1 5.45-29.7 9.32-39.7 0.677-11.6-9.99-1.61-33.2 0.165-47.3 1.94-15.4 40.2 5.16 40.2 5.16z" fill="#710098"/>
  <path d="m498 61.8c1.09-6.72 14.4-12 14.4-12l10.4-5.52 33.8 35.2-7.42 29.5-1.82 1.62-11.2-7.47-23.7-24.9s-15.8-7.91-14.4-16.5z" fill="#001c34"/>
  <path d="m460 233c7.13-6.62 28.5 6.35 28.5 6.35l24.1 34-0.733 5s-2.76 17.4-3.35 22.9c-1.13 10.5-25.6-18.4-25.6-18.4l-20.7-34.8s-5.89-11.6-2.19-15z" fill="#e37192"/>
  <path d="m-52.4 429 71-9.47 2.17 0.445 0.978 25.5-27.4 28-46.2-7.54-1.61-33.9z" fill="#e3c7ec"/>
  <path d="m238 476c8.73-9.39 22.5-15.9 35.3-15.2 10.4 0.607 17.7 1.59 23 10.5 5.99 10.1 4.79 40.3 4.79 40.3l0.202 9.07-3.41 10-57.4-17.8-11.1-12s2.63-18.5 8.62-24.9z" fill="#71e3d0"/>
  <path d="m29.9 512 0.149-0.189 2.32-2.94s13.9-7.9 21.7-9.06c6.18-0.931 18.7 1.82 18.7 1.82l8.66 10.2 22.1 25.3-6 9.46-27.5 2.24z" fill="#1c0024"/>
  <g>
   <path d="m258 84.5c-2.4 0.0618-4.74 5.36-4.75 5.43-3.91 31-2.53 40.4-2.03 40.9 13.8 14.7 12.1 10.3 26 27.5 1.71 2.11 14.4 7.87 41.7 15.6 19 5.4 19.3 0.181 22.2-2.18 1.98-1.65 9.98-7.18 2.8-30.1-5.01-16-6.51-18.3-12.1-26.1-3.46-4.86-7.71-9.88-12.9-12.4-39-13.1-41.3-19.1-60.9-18.6z" fill="#802ad4"/>
   <path d="m382 103c-5.65 0.156-12.5 2-20.4 5.53-12.6 5.58-15.7 18.7-9.2 39.3 3.93 12.5-4.18 21.7-3.39 32-2.57 3.55-0.179 19.2-5.05 29.1-6.5 13.2-0.482 25.5 18.1 36.8 18.8 11.4 20.8 17.9 32.7 15.9 5.18-0.849 7.02-7.92 11.2-11.1 9.08-6.78 21.5-12.8 29.7-16.4s17.8-5.08 19.1-6.41c1.32-1.32 3.49-8.27 6.51-20.9 2.99-12.5-1.69-17.9-2.63-26.8-1.42-13.4-1.2-6.02-4.56-40.3 1.38-14.5 1.03-23.4-1.04-26.9-1.76-2.94-9.88-3.69-24.4-2.25-18.7-0.548-16.4-1.68-35.6-4.84-3-1.92-6.69-2.82-11.1-2.7z" fill="#b9477b"/>
   <path d="m288 377q3.59-6.44 19-13.1 25.6-11 34.4 9.66 14.6 34.5 14.4 35.3-0.413 1.45-22.6 0.224-37-2.04-40.9-10.7-6.61-14.4-6.5-15.6 0.188-2.02 2.34-5.89z" fill="#8eaabf"/>
  </g>
  <path d="m141 404q14.7 2.78 24.6 24 6.32 13.6-11.1 31-11.2 11.2-16.4 12.4-3.36 0.795-21.4-16.5-11.5-11.1-3.72-38.1 4.99-17.3 28-12.9z" fill="#38c798"/>
  <path d="m121 341c6.18-7.72 11.9-11.2 17.3-10.5 24 3.12 37.1 5.65 39.4 7.59 10.2 8.7 15.3 13.5 15.3 14.4-0.04 4.17-0.468 7.57-1.28 10.2-3.67 11.8-2.95 14-7.24 19.5-7.38 9.36-25.1 20.8-29.7 20-20.6-3.89-33.6-0.165-34.5-2.47-4.37-10.4-7.29-15.8-7.56-24.3-0.379-11.8 6.95-32.6 8.32-34.4z" fill="#38aa36"/>
  <path d="m398 373q52.3 52.7 52.3 52.8 0.049 0.39 2e-3 0.487-1.04 2.15-2.51 2.09-32.6-1.29-34.7-1.8-47.7-11.4-47.7-11.5-1.32-2.37-1.29-2.47 0.633-2.22 1.97-3.93 29.6-38 32-35.6z" fill="#c7c716"/>
  <path d="m70.7 329c-3.1 0.0232-11.3 6.73-24.7 20.1-1.26 1.26-4.21 30.9-25.4 40.7-2.15 0.998 2.1 10.3 3.7 15.4 1.32 4.14 4.64 11.7 4.87 12.1 0.0587 0.0933 18 6.56 53.9 19.4 9.14 3.27 11.8 5.21 16.5 2.16 5.48-3.62 1.21-4.98 5.29-19 1.43-4.73 2.94-10.1 4.11-14.1 1.41-4.87 0.844-10.9 0.199-18.9-1.26-15.6 8.96-29.3 1.71-40.8-7.64-12.1-12.8-7.33-39.6-17-0.188-0.0774-0.392-0.0597-0.551-0.084z" fill="#1cb9b0"/>
  <path d="m363 420q0.224-2.63 42.6 7.51 7.48 1.79-22.3 31.6-5.27 5.27-19.1-19.8-2.44-4.43-1.17-19.3z" fill="#aac7cf"/>
  <path d="m206 58.5q3.58-3.58 5.39-4.32 0.392-0.162 32.2 20.6 6.9 4.49 7.02 4.78 0.027 0.062-4.96 39.6-1.08 8.56-2.13 8.8-0.227 0.053-52.1-9.78-11.2-2.13-3.66-35.8 1.64-7.29 18.2-23.8z" fill="#551cc9"/>
  <path d="m429 294q9 4.04 28.9 24.5 17.3 17.7 14.7 20.3-2.26 2.26-34 2.57-27.5 0.272-23.5-27.7 3.52-24.3 13.9-19.7z" fill="#c78e87"/>
  <path d="m253 350c-11.3-3.17-35-4.54-35.1-4.52-14 5.05-11.7 3.46-16.2 7.24-1.81 1.5-4.16 4.91-4.03 5.78-3.32 4.11-1.35 12.2-3.86 20.3-0.958 3.1 5.06 13.5 18 31.2 3.41 4.65 4.27 9.08 17.5-3.05 1.04 0.45 18.7-16.5 19-16.6 19.5-5.67 27.7 2.08 28.4-5.37 0.18-1.94 13.6-10.7 10.7-19.7-2.86-9.02-22.4-11.9-34.6-15.3z" fill="#63aadb"/>
  <path d="m415 53.6q40.4 25 38.1 33.6-4.26 16-18.3 17.4-26.2 2.6-33.8-2.29-14.2-9.11-11.9-27.6 4.24-34.5 25.9-21.1z" fill="#c71c5c"/>
  <path d="m246 135c4.15-0.36 3.8 2.42 9.91 7.6 8.66 7.36 13.3 12.4 13.8 15.1 0.735 3.8 0.388 7.97-1.04 12.5-2.03 6.43-6.84 11.8-14.4 16.1-10.8 6.15-21.2 7.59-31.2 4.32-14.3-4.64-15.4-13.7-3.26-27 17.2-19 13.4-27.5 26.3-28.6z" fill="#71386b"/>
  <path d="m342 415q14.4 0.792 15.4 2.67 0.335 0.602-0.792 13.9-0.362 4.26-28.7 32.6-9.08 9.08-15.6 10-2.08 0.295-20.9-15.2-6.03-4.97 2.86-36.3 2.85-10.1 47.6-7.6z" fill="#8ec741"/>
  <path d="m371 36.4q14.1-2 14.5-1 1.18 3.77-0.179 14.9-5.15 41.9-13.5 45.6-31.7 14.1-33.3 13.3-6.1-2.8-6.95-4.2-3.22-5.28-3.26-10.2-0.173-18.6 8.04-26.8 31-31 34.8-31.6z" fill="#aa1c3c"/>
  <path d="m176 124q1.48-1.56 48.4 7.35 16.1 3.06-16.6 39.2-11.2 12.4-21.9 13.6-3.67 0.398-6.27-1.71-0.891-0.724-6.14-40.3-1.8-13.6 2.5-18.1z" fill="#553850"/>
  <path d="m258 394q20.8-6.02 24.6 2.29 6.76 14.7 2.51 29.7-7.5 26.5-21.8 31.2-25.3 8.34-32-0.165-11.9-15-11.4-22.5 0.85-13.2 10.1-21.8 16.3-15.2 28.1-18.6z" fill="#71c75f"/>
  <path d="m305 46.8c12.1 20.7 17.1 31 17.2 34.5 0.114 12.3-4.52 16.8-13.9 13.7-28.6-17.4-55.8-7.56-54.4-27.9 0.453-6.63 11.8-1.78 18.8-6.6 23.5-16.2 28.9-19.4 32.3-13.7z" fill="#8e1c3e"/>
  <path d="m161 128q5.46 0.582 11.6 47.2 0.864 6.51-41.5 13.9-5.92 1.04-21.6-18.7-2.2-2.76 10.7-41.2 1.8-5.37 40.8-1.21z" fill="#3838d6"/>
  <path d="m340 347q15-19.5 19.7-16.6 33.2 20.8 33.1 22.5-0.666 12.3-4.5 17.2-27.1 34.8-30 27.9-20.5-48.3-18.4-51.1z" fill="#aaaa29"/>
  <path d="m170 399q20.3-12.6 27.6-2.71 17.5 23.9 17.1 30-0.943 14.7-11.5 14.1-25.4-1.27-30.2-11.5-11.4-24.7-3.04-29.9z" fill="#55c74f"/>
  <path d="m152 68.8q29.5 7.39 24.6 29.2-4.3 19.2-7.38 22.4-2.7 2.86-26.4 0.335-20.8-2.22-23.7-5.52-2.55-2.91-1.56-30.5 0.876-24.3 34.4-15.9z" fill="#381c86"/>
  <path d="m387 276q3.99-4.78 11.9-6.83 1.29-0.336 12.6 16.1 1.85 2.7-4.64 47.6-1.07 7.38-10.6 12.5-1.57 0.839-34.2-19.5-5.35-3.35-5.94-6.02-0.097-0.439 5.7-12.7 0.952-2.01 25.2-31.1z" fill="#aa8ed1"/>
 </g>
</svg>
