<?xml version="1.0" encoding="UTF-8"?>
<svg width="512px" height="512px" contentScriptType="text/ecmascript" contentStyleType="text/css" version="1.1" viewBox="0 0 512 512" xmlns="http://www.w3.org/2000/svg">
 <g class="voronoi" stroke-width=".5">
  <path d="m458-37.1 39.9 3.59 31.6 25.6 4.85 5.94-17.3 17.4-55.1-29.8z" fill="#e3e3c9"/>
  <path d="m361-16.4-35.5 34.2c-24.1 40.7-19.1 53.6-4.01 72.6 10 12.7 21 5.17 47.8 8.56 7.08 0.895 12.6-15.1 16.7-48 0.986-15.8 5.33-34.4 11.2-48.8l-13.1-13.8z" fill="#aa0016"/>
  <path d="m-13.2 126 13.2 3.6s4.9 1.36 6.31 6.37c1.98 7.04-6.31 13.7-6.31 13.7l-10.9 11.6-25.6 20.8-12.6-8.24-3.62-33.7z" fill="#e3388e"/>
  <path d="m526 232 19.8-17.1 10.5 24.5 2.16 38.9-19.9 10.4-20.3-16.8z" fill="#007170"/>
  <path d="m84.1 450c4.6 14.6-16.5 10.7-30 18-15.9 8.69-37.1 33.3-46.9 18-7.76-12.1 10.6-23.9 14.4-36.3 2.69-8.78 11.5-18.5 18.1-24.8 14.7-14.1 40.8 15.3 44.4 25.1z" fill="#00c7e4"/>
  <path d="m460 429 71-9.47 2.17 0.445 0.978 25.5-21.8 22.3s-6.11 3.09-8.65 3.92c-14.8 4.88-43.2-5.73-43.2-5.73l-1.61-33.9z" fill="#e3c7ec"/>
  <path d="m320 479c11-0.298 23.8 3.26 26.7 15.3 2.07 8.44-11.7 17.5-11.7 17.5l-13.1 14.8-14.4 1.9 0.707-16.7s0.0833-20.3 5.31-28c2.17-3.2 3.28-4.62 6.44-4.7z" fill="#8ee3e0"/>
  <path d="m4.93 27.5c0.0781-7.17 6.66-15.1 13.7-16.6 13-2.79 25.8 4.63 33.1 15.8 5.6 8.59 9.63 24.6 1.38 30.7-10.2 7.53-22.8-3.45-33.1-10.8-6.57-4.72-15.1-11-15-19.1z" fill="#00009c"/>
  <path d="m445-14.3 30.2 14 0.43 0.334s32.5 12.4 34.6 26.9c0.941 6.64-5.66 13.6-11.8 16.3-5.68 2.45-18.4-2.4-18.4-2.4s-12-8.13-16.5-13.7c-6.27-7.9-13.6-27-13.6-27z" fill="#e3006f"/>
  <path d="m-32 187 32 13.5s12.5 7.48 14.4 12.5c3.7 9.57-12.6 21.7-12.6 21.7l-42.8-5.79-1.28-33.1z" fill="#e355c7"/>
  <path d="m507 315 11.3-12.7 25.7-8.73 24.8 23-13 25.3-42-12.8-1.68-3.53z" fill="#008ebf"/>
  <path d="m465 483c9.04-9.85 32.4-4.73 32.4-4.73l31.6 25.6 4.85 5.94-17.3 17.4-28.7-15.5s-22.4-5.14-26.5-14.3c-2.01-4.53-1.65-8.77 3.56-14.4z" fill="#e3e3c9"/>
  <path d="m122 16.8c-5.37 2.31-25.9 19.8-25.9 19.8-14.7 12.4-20.7 12-32.5 23.5-8.12 8.12-13.6 18.1-16.5 30-2.83 11.6 7.13 19.8 29.8 18.4 22.5-1.43 33.7 5.28 49.9 8.92 4.85 1.7 3.24 3.75 14.9 3.9 13.3 0.175 37.6-5.33 37.6-9.48 0.0418-38.9-8.7-61.4-18-92.2-11.7-0.865-29.4-6.3-39.3-2.84z" fill="#2f1393"/>
  <path d="m-41.1 70.8 11-5.22 42.6 33.1s7.44 9.21 2.41 15.4c-4.09 5.03-14.9 5.82-14.9 5.82l-31.6-2.72-23.3-10.1 3-20.3z" fill="#e31caf"/>
  <path d="m533 148 16.4 59.2-1.36 0.59-14-1.31-22.2-14.1s-8.62-4.19-8.93-12.3c-0.326-8.58 8.93-16.2 8.93-16.2z" fill="#005528"/>
  <path d="m-12.9 332 24.8 6.79s27.4 11.8 32.6 24.3c3.35 8.19-4.43 19.7-12.3 23.8-11 5.75-25.2-13.8-25.2-13.8l-7.06-14.6z" fill="#00aa73"/>
  <path d="m479 349c6.19-0.84 7.9 6.02 12 8.83 6.98 4.81 21.4 13.8 21.4 13.8l14.3 22.1 5.66 18.3-20 3.06s-27.8 7.74-40.4 2.84c-4.79-1.86-6.63-5.44-9.52-8.66-14.2-15.8 2.85-29.1 10.3-49 1.51-4.02 0.0647-10.4 6.24-11.3z" fill="#e3aac9"/>
  <path d="m141 479c14.9-0.512 52.5 11.4 42.5 17.4-6.68 4.02-16.2 15.6-16.2 15.6l-9.94 11.9-28.6-3.55 1.37-8.35s-0.581-13.4 1.61-19.5c1.83-5.13 5.87-13.3 9.25-13.5z" fill="#38e3df"/>
  <path d="m393 543 7.56-20.8 16.7-10.6s7.11-9.33 11.4-8.41c2.75 0.592 4.34 8.41 4.34 8.41l27.3 41.5-0.753 28.4-48.8-24.7z" fill="#c700b4"/>
  <path d="m-18 59.4 18-9.57s8-3.51 11.9-2.89c25.8 7.21 45.6 43.5 23 63.7l-11.2-7.47-23.7-24.9z" fill="#001c34"/>
  <path d="m449 72.4c1.39-5.67-0.0355-13.4 5.77-16.5 17-9.23 57.4 33.2 57.4 33.2l12.5 9.69 6.92 22.9-19.4-1.67s-21-2.15-31.6-1.37c-6.5 0.481-13.2 6.03-19.1 3.17-10.8-5.26-13.6-25.9-14.9-32.7-1.08-5.49 1.08-11.2 2.41-16.6z" fill="#e31caf"/>
  <path d="m-51.9 233 28.5 6.35 24.1 34-4.08 27.9-25.6-18.4-20.7-34.8z" fill="#e37192"/>
  <path d="m500 344c0.548-5.03 12.2-9.02 12.2-9.02l12 3.27 32.6 24.3-4.04 26.2-33.4-16.2-7.06-14.6s-12.9-7.84-12.2-14z" fill="#00aa73"/>
  <path d="m185 460c-12.1 2.58-16.2 4.22-18.8 13.5-2.88 10.5 15.3 9.91 15.3 9.91s33.8 9.21 48.5 18.1c4.03 2.45 9.62 10.3 9.62 10.3l1.23 1.32 57.4 17.8 3.41-10-0.201-9.07s3.02-25.2-2.97-35.3c-5.29-8.93-15.7-11.9-24.8-15.5-27.4-10.7-59.9-7.26-88.7-1.12z" fill="#71e3d0"/>
  <path d="m452 506c6.73-2.1 23.9 5.97 23.9 5.97l0.43 0.334 34.6 26.9-11.8 16.3-19 15.6-19.3-29.5-10.2-29.3s-1.56-5.38 1.4-6.3z" fill="#e3006f"/>
  <path d="m86.9-50 14.6-13.7 19.3 17.6 5.01 36.9-4.68 9.17s-6.22 11.1-11.7 11.6c-6.69 0.567-16.5-11.6-16.5-11.6l-12.5-9.53z" fill="#1ce39d"/>
  <path d="m16.2 134c1.16-5.52 3.48-16.2 10.1-19 3.34-1.42 10.5 2.98 10.5 2.98l36 45.8s-1.62 14.3-12.5 24.9c-1.56 1.52-8.71 12-10 10.3-8.66-11.1-11-36.3-21.2-51.9-3.34-5.09-13.6-9.07-12.8-13z" fill="#0038dc"/>
  <path d="m499 126 28.2 7.71-26 27.6s-14.6 20.1-25.6 20.8c-8.53 0.531-19.4-9.16-21.7-13.6-6.36-12.2 0.362-24.1 10.5-36 9.08-10.7 34.6-6.48 34.6-6.48z" fill="#e3388e"/>
  <path d="m372 427c-14.9 7.27-46.5 42.6-31 53.2l10.8 7.36 36.9 6.08c3.11 5.59 7.66 12.5 14.2 13.7 11.9-7.34 29.8-8.65 40.5-19.5 4.82-4.93 8.5-18.9 8.5-18.9s-0.417-16-8.41-24.3c-6.77-6.99-21.2-11.5-21.2-11.5-0.055-0.0247-0.111-0.0478-0.172-0.0625-17.4 2.37-31.9-9.08-50-6.15z" fill="#b4da5d"/>
  <path d="m201 496c4.57-0.764 13.5 4.97 13.5 4.97l8.59 10.9-0.196 6.79-13.3 39.9-7.78-2.98-37.4-30.4 15.6-13.3s14.3-14.8 20.9-15.9z" fill="#550029"/>
  <path d="m144-36 38.5 18.1-15 17.9s-5.14 10-9.94 11.9c-8.93 3.52-20.2 4.56-25.9-3.13-1.69-2.26-1.28-8.77-1.28-8.77l5.04-30.8z" fill="#38e3df"/>
  <path d="m396 27.6c-3.21-6.66 3.84-17 3.84-17l27.8-17.7 4.63 7.05s29.9 28.3 22.7 43.3c-10.8 11-34.8-2.16-46.9-6.48 0 0-9.74-4.17-12.2-9.2z" fill="#c700b4"/>
  <path d="m74.6 277c-1.73-0.0473-3.54 0.0196-5.43 0.199-8.22 0.781-23.8-1.92-29.9 2.82-9.77 7.57-24.1 12.4-33 22.5l-11.3 12.7 5.03 10.6 1.68 3.53 90.7 2.35c8.53 3 14.5 3.35 18 1 1.9-1.3-1.77-14-11-38-4.41-11.4-12.7-17.3-24.8-17.7z" fill="#008ebf"/>
  <path d="m446 237c-0.284 1.8e-4 -0.566 0.0357-0.844 0.107-24.2 6.25-36.7 10-37.4 11.2-3.88 6.77-5.32 11.3-4.3 13.6 5.37 17.5 5.31 11 5.37 23.8 0.062 14 2.07 8.13-0.804 21.3-3.27 15.7-4.02 25.2-2.23 28.6 2.05 3.88 12.5 5.73 31.2 5.55 21.6-0.214 33.3-0.934 34.7-2.58 3.56-4.34 13-6.44 18.7-8.78l6.77-6.49c4.7-22.5-32.2-41.3-36.2-60.6 0.125-0.611 0.125-1.13-0.0215-1.54-5.7-16.1-10.7-24.1-15-24.1z" fill="#d08479"/>
  <path d="m-54.2 475 39.9 3.59 14.3 11.6s21.2 8.4 29.9 4.92c5.24-2.08-7.72 15.1-7.72 15.1l-17.3 17.4-55.1-29.8z" fill="#e3e3c9"/>
  <path d="m29.9 0.189 0.149-0.189 2.32-2.94 20.7-20 11.7 3.96 16.6 19s11.4 7.54 12.3 18.7c0.284 3.72 0.176 7.35-3.44 11.5-4.26 4.9-3.48 5.74-12.2 2.75-17.1-5.89-48.1-32.8-48.1-32.8z" fill="#1c0024"/>
  <path d="m18.2 150c6.6-4.78 30.5 41.6 18 57.2-2.95 3.64-14-1.31-14-1.31l-42.8-27.2 20.6-15.4z" fill="#005528"/>
  <path d="m497 194c5.23 0.918 14.7 6.18 14.7 6.18l14.7 6.21-13 27.9-1.76-0.238s-14.4-0.951-20-4.89c-6.7-4.7-17.8-14.8-13.6-20.4 4.73-6.45 9.87-16.3 18.9-14.8z" fill="#e355c7"/>
  <path d="m-32.7 343 10.8-5.21 21.9 33.9s9.61 11.6 16.6 17c5.21 3.99 25.6 12.7 23.2 20-9.25 5.84-39.9 6.58-39.9 6.58l-40.3 6.18-12.9 1.37 13.5-62.4z" fill="#e3aac9"/>
  <path d="m75.6 472c3.85-11 19.5-23.6 25.9-23.6 5.68-0.0649 15.3 9.89 19.3 17.6 5.77 11 5.01 36.9 5.01 36.9l-12.6 24.7-32.7-25s-8.27-20.8-4.87-30.6z" fill="#1ce39d"/>
  <path d="m362 500c7.43-1.9 14.5-1.74 21.4 2.09 4.63 2.58 11.9 10.3 11.9 10.3l2.15 2.25-11.2 25.7-19.1 1.93-41.4-12 18.5-17.8s10.2-10.5 17.8-12.4z" fill="#aa0016"/>
  <path d="m-54.2-37.1 39.9 3.59 31.6 25.6 4.85 5.94-17.3 17.4-55.1-29.8z" fill="#e3e3c9"/>
  <path d="m494 59.4 28.4-15.1 33.8 35.2-7.42 29.5-1.82 1.62-11.2-7.47-23.7-24.9z" fill="#001c34"/>
  <path d="m13.6 232c4.02-6.65 7.68-18.7 16.2-16.8 8.66 1.99 14.2 24.2 14.2 24.2s5.9 18 3.25 25c-3.42 8.98-13.1 15-22.1 16-6.92 0.718-17.7-13.8-20.9-19.9-6.28-12 4.31-19.9 9.48-28.4z" fill="#007170"/>
  <path d="m460 233c3.44-4.56 10.8-4.61 17-2.25 16.8 6.42 34.9 41.6 34.9 41.6l0.733 1.03-0.733 5s-2.16 15.8-9.24 18.9c-9.68 4.11-19.7-14.4-19.7-14.4s-16.2-22.1-20.7-34.8c-1.69-4.77-5.23-11-2.19-15z" fill="#e37192"/>
  <path d="m-52.4 429 52.4-6.99c6.87-0.0632 24.8-3.67 31.6-2.27s-10.7 16.2-13.8 24.1c-3.73 9.68-17.8 23.9-17.8 23.9l-5.6 5.73-46.2-7.54-1.61-33.9z" fill="#e3c7ec"/>
  <path d="m29.9 512 0.149-0.189s-0.0122-2.87 0.544-4.15c4.55-10.5 10.8-23.4 21.8-26.4 6.77-1.84 19.9 4.37 19.3 8.44-1.63 11.1 9.71 22.1 9.71 22.1l22.1 25.3-6 9.46-27.5 2.24z" fill="#1c0024"/>
  <path d="m324 105q0.228-0.706 4.17-3.74 0.253-0.195 48 5.83 3.06 0.386 7.67 6.46 0.296 0.39-4.67 50.6-0.319 3.22-3.21 6.73-0.186 0.226-15 2.62-0.952 0.153-38.1-54-2.38-3.47 1.17-14.5z" fill="#aa38e4"/>
  <path d="m162 184c-5.33 1.21-33.7 7.84-35.9 11.2-0.656 4.19 2.38 5.38 4.88 6.55 18 9.68 37.8 15.2 42.6 33 4 14.3 11.2 18.2 21.7 11.9 20.8-12.6 31.6-20.8 32.3-24.7 1.48-7.75 1.3-13.6-0.525-17.4-3.6-7.66-9.6-11.8-18-12.4-3.03-0.381-6.38 0.714-8.83-0.131-8.77-3.29-33-9.26-38.2-8.07z" fill="#475529"/>
  <path d="m332 233c-4.29 5.93-30.8 23.5-36.2 27.2-6.32 6.23-33.6 19.7-27.6 31.2 5.72 7.47 9.64 52.4 30.5 62.5 4.27 2.08 34.9-36.6 39.3-49.8-3.04-18.9 36.3-26.4 33.2-44.7-2.67-15.5-36.4-30.4-39.3-26.4z" fill="#9c79e8"/>
  <path d="m57.6 348c2.3-4.47 21.8-5.86 26.1-8.8 1.11-0.759 16 0.859 23.9 1.87 9.81 1.25 21.3-0.696 29.2 5.17 12 8.87 15.8 24.3 20.5 39.9 1.22 4.02-22.8 13.8-33.5 21.7-11.7 8.58-10.9 19.3-33.5 27.7-5.85 2.18-38.5-16.5-48.1-36.6-2.49-5.21 6.56-33.7 15.4-50.9z" fill="#38aac3"/>
  <path d="m358 393c25.8-14.6 23.5-10.9 36-13.7 15.7-3.44 52.5 37.4 53.6 48.3 1.15 11.5-33.3-1.46-34.7-1.8-31.8-7.6-47.8-11.7-48.1-12.2-2.44-8.23-15.1-16-6.89-20.7z" fill="#c7c716"/>
  <path d="m284 207c4.89-8.24 17-16.5 27.9-17.3 6.78-0.492 18.8 5.92 18.7 8.15-0.707 19.3-1.64 29.8-2.8 31.4-3.81 7.89-23.8 27.8-29.6 17.8-7.97-14.8-22-26.9-14.2-40.1z" fill="#8e5524"/>
  <path d="m227 354c-10.3 23.6-15.1 35.9-14.3 36.9 8.15 18 8.92 22.1 7.78 37.6-0.55 8.6-0.0606 8.6 7.86 18.6 4.5 5.67 22.9 5.6 39.8 0.0391 9.6-3.2 13.1-7 19.7-30.3 3.74-13.2 4-21.6 0.777-25.2-16.9-6.19-47.3-48.1-61.6-37.6z" fill="#71b90f"/>
  <path d="m42.2 115q0.953-0.952 32.4-0.062 35.9 1.02 39.5 5.11 4.1 4.67-2.21 23.9-7.2 21.9-18.3 22.3-12.7 0.368-31.1-23.3-21.1-27-20.3-27.9z" fill="#1c3877"/>
  <path d="m360 183q1.25-0.593 16.2-3.01 0.806-0.13 25.5 59.4 1.33 3.2-5.21 14.6-0.352 0.614-11.9 3.56-0.624 0.158-46.6-29.5-2.47-1.6-1.35-32.3 0.06-1.65 23.3-12.7z" fill="#aa55e6"/>
  <path d="m176 270q-0.063-0.508 4.11-6.81 1.03-1.56 38.7-24.3 9.3-5.61 34.2 32.1 6.14 9.32 5.46 16.8-0.169 1.84-26.7 18.4-6.55 4.09-45.8-26.6-9.69-7.58-9.95-9.63z" fill="#5571c4"/>
  <path d="m340 318c1.33-0.121 0.106-1.3 3.18 2.43 1.41 1.72 2.76 17.8 4.05 48.4 0.589 14 5.22 17-9e-3 22.3-7.55 7.63-11 0.481-32.2 0.319-9.74-0.0747-16.3-2.06-19.8-5.96-1.59-1.79-2.43-2.84-2.52-3.13-0.0427-0.136 0.337-3.97 1.14-11.5 0.369-3.46 7.04-8.15 26.5-31.2 8.95-10.6 9.94-20.8 19.6-21.7z" fill="#8eaaa9"/>
  <g>
   <path d="m122 210c-10.5 12.3-10.6 32-13.1 47.7-1.52 11-8.26 23-4.6 32.9 9.7 25.1 6.68 34.8 20.7 37.6 9.4 1.91 16.1-6.07 22.6-17.8 13.6-24.6 17.2-33.6 20.3-37.7 5.36-7.22 5.03-9.39 5.23-14.5 0.431-10.9-4.34-26.2-8.63-31.6-7.18-8.99-28.4-22.3-42.5-16.6z" fill="#38805d"/>
   <path d="m132 413c-17.4 6.5-20.9 10.4-22.7 16.6-2.73 9.6-0.309 18.1 7.37 25.5 12 11.6 11.7 15.1 19 17.5 7.3 2.42 14.3 6.08 21.7-1.36 10.1-7.8 8.07-9.81 13.5-12.9 11.7-6.56 21.8-11.3 38.8-10.4 7.02 0.4 4.29-16.8 5.37-33.6 0.45-6.9-1.58-13.2-6.08-19-1.9-2.38-11.1-10.4-28.6-8.9-17.1 1.44-34 19.9-48.4 26.6z" fill="#47c7e7"/>
   <path d="m399 42.1c-10.7 6.7-11.9 49.4-12.5 61.8-0.423 9.1 3.04 24.7 1.66 38.6-1.6 16.4 9.2 24.1 32.6 23.3 19.8-0.7 30.6-9.6 32.2-26.6 1.37-14.5-6-15.9-6.55-19.9-2.61-19-2.55-24.3-7.8-35.1-14.7-19-16.4-43.4-39.6-42.1z" fill="#c72a1e"/>
  </g>
  <path d="m289 159c8.4 4.81 15.9 16 13.9 25.5-2.16 10.3-6.8 6.55-24.9 19.3-9.07 6.38-8.97 0.385-36.6 2.4-13.9 1.01-11-3.96-13.5-16.3-1.95-9.75-1.56-19.4 12.3-29.3 19.4-13.8 34.7-9.65 48.8-1.55z" fill="#7155f0"/>
  <path d="m42.4 212c0.201-0.2 5.66-3.15 8.61-2.63 3.65 0.652 2.76 2.66 8.87 6.73 30.3 10.1 45.7 16.3 46.1 18.7 1.21 7.24 0.419 12.7-2.37 16.3-8.5 11.1-15.6 16.9-21.4 17.4-17.6 1.67-27.5-2.36-29.7-12.1-6.8-29.6-10.2-44.4-10.1-44.5z" fill="#1c7145"/>
  <path d="m370 276q15.1-10.9 22.1-12.7 5.25-1.33 10.9 11.3 4.22 9.55-1.01 34.6-3.94 18.9-30.7 12-20.1-5.15-24-9.81-2.89-3.51 0.297-13.5 2.4-7.49 22.5-22z" fill="#aa8e8f"/>
  <path d="m179 288c-8.21-0.222-15.3 4.99-21.1 15.6-10.2 18.4-17.9 34.1-13.1 40.1 8.31 10.3 13.9 34.9 24.9 38.2 15.4 3.18 39.3 0.201 43.6-9.67 11.3-13.5 8.12-35.7 6.47-51.2-0.446-4.18-6.14-12.3-22.3-24.9-6.71-5.24-12.9-7.94-18.5-8.09z" fill="#559c8f"/>
  <path d="m142 127q18.5 0.245 20.1 25.3 1.53 24.6-18.4 31-19.5 6.3-26.9-4.67-7.25-10.8-0.431-31.5 6.69-20.4 25.6-20.1z" fill="#383880"/>
  <path d="m385 176q1.55-1.88 33.8-3.05 32.6-1.18 39.6 6.87 7.11 8.14 2.63 26.8-4.53 18.9-6.5 20.9-2 2-23.4 7.52-21.6 5.58-34.6-25.6-13.1-31.5-11.6-33.4z" fill="#c7557e"/>
  <path d="m235 218q1.03-5.43 29.9-7.53 13-0.943 25.2 28.8 5.49 13.4-16.5 30.2-9.88 7.58-31.3-24.9-9.62-14.6-7.32-26.7z" fill="#7171ab"/>
  <path d="m371 327q26.9 6.88 29.4 11.5 3.3 6.25-0.684 15.2-5.38 12.1-22.6 21.9-23.2 13.1-24.4-15.3-1.61-38.4 18.4-33.3z" fill="#aaaa6e"/>
  <path d="m168 127c7.05-4.49 11.4-6.28 13.1-5.38 13.6 8.04 43.4 30.3 46.2 42.3 1.46 8.11-6.61 23.5-8.01 23.4-23.7-1.7-35.8-2.7-36.3-2.99-8.41-4.87-12.7-8.24-12.8-10.1-1.94-31.3-2.71-47-2.29-47.3z" fill="#553819"/>
  <path d="m405 356c2.84-6.41 15.3-9.72 37.3-9.94 18.4-0.181 25.5 16.3 12.5 39.4-4.99 22.9-11.1 26.2-30.5 6.63-16.2-16.4-22.6-28.4-19.2-36.1z" fill="#c7aa89"/>
  <path d="m305 132q11.7-13.3 26.6 8.52 24.6 35.8 15.3 40.2-15.2 7.23-23.2 5.2-13.1-3.33-18.7-13.1-9.26-16-8.46-22.3 1.33-10.4 8.44-18.5z" fill="#8e3863"/>
  <path d="m225 328c0.28-4.49 4.2-11.6 5.41-12.4 20.8-13 31.4-19.4 31.6-19.2 3.98 3.54 4.87 6.98 5.58 9.2 9.39 39.2 22.7 53.3 22.6 53.9-1.11 10.4-5.59 19-7.62 17.7-35.1-21.8-52.8-33-52.9-33.5-3.24-10.1-5-10.3-4.66-15.7z" fill="#718e19"/>
  <path d="m94.2 172q11.9-0.348 19.2 10.5 7.37 10.9 6.78 15.4-0.589 4.52-6.3 16.8-5.78 12.5-35.8 2.47-30.4-10.1-13.1-27.4 17.5-17.5 29.3-17.8z" fill="#1c55cf"/>
  <path d="m336 399q11.3 0.086 19.1 14.2 2.52 4.54 1.39 17.8-0.362 4.26-28.7 32.6-9.08 9.08-15.6 10-2.08 0.295-20.9-15.2-6.03-4.97 5.71-46.4 3.77-13.3 38.9-13z" fill="#8ec7ba"/>
 </g>
</svg>
