<?xml version="1.0" encoding="UTF-8"?>
<svg width="512px" height="512px" contentScriptType="text/ecmascript" contentStyleType="text/css" version="1.1" viewBox="0 0 512 512" xmlns="http://www.w3.org/2000/svg">
 <g class="voronoi" stroke-width=".5">
  <path d="m458-37.1 39.9 3.59 31.6 25.6 4.85 5.94-17.3 17.4-55.1-29.8z" fill="#e3e3c9"/>
  <path d="m322 55.5s-7.02-25 0.42-30.5c8.7-6.33 21.5 2.42 31.8 5.66 3.09 0.974 8.25 0.902 8.82 4.09 0.491 2.77-2.8 5.24-4.88 7.14-7.97 7.27-15.2 18.7-26 19.5-3.92 0.32-10.2-5.98-10.2-5.98z" fill="#8e00cf"/>
  <path d="m-13.2 126 13.2 3.6s9.02-0.898 10.4 4.11c1.98 7.04-10.4 16-10.4 16l-10.9 11.6-25.6 20.8-12.6-8.24-3.62-33.7z" fill="#e3388e"/>
  <path d="m27.5 423c10.1-4.55 29-0.21 31.6 10.6 2.16 8.91-5.54 19.3-13.8 21.5-6.42 1.74-17.7-9.09-17.7-9.09l-3.25-15.7s0.704-6.21 3.12-7.3z" fill="#00c7e4"/>
  <path d="m460 429 71-9.47 2.17 0.445 0.978 25.5-27.4 28s-35.8 4.11-46.2-7.54c-7.53-8.44-1.61-33.9-1.61-33.9z" fill="#e3c7ec"/>
  <path d="m318 479 34.7 13.3-30.4 34.4-14.4 1.9 0.707-16.7 1.18-28z" fill="#8ee3e0"/>
  <path d="m445-14.3 30.2 14 0.43 0.334 34.6 26.9s-0.748 16.9-6.01 22.7c-5.94 6.52-16.5 11.9-24.8 9.15-11.1-3.68-19.3-29.5-19.3-29.5l-10.2-29.3z" fill="#e3006f"/>
  <path d="m-32 187 46.8 19.7-13 27.9-42.8-5.79-1.28-33.1z" fill="#e355c7"/>
  <path d="m507 315c0.353-2.5 5.02-5.68 5.02-5.68l6.24-7.05 25.7-8.73 24.8 23-13 25.3-42-12.8-1.68-3.53s-5.57-6.7-5.02-10.6z" fill="#008ebf"/>
  <path d="m468 476c11.2-0.563 30.1 2.84 30.1 2.84l31.6 25.6 4.85 5.94-17.3 17.4-28.7-15.5s-18.5-7.31-24.4-15.4c-4.51-6.25-3.97-20.5 3.73-20.9z" fill="#e3e3c9"/>
  <path d="m111 30 0.0527 11.7 6.94 21.5c-0.629 2.01 0.294 18.9 0.202 21.5-0.664 18.4-0.145 28.6 1.56 30.5 1.93 2.2 9.84 4.05 23.7 5.53 15.8 1.68 23.7 0.694 25.5-1.21 2.05-2.17 1.38-36.6 4.25-49.4 1.97-8.77-0.0113-25.7-3.08-38-1.06-4.27-1.72-9.48-5.23-12.1-4.74-3.57-11.7-1.76-17.7-2.25-28.9-1.57-19.8-6.44-36.2 12.2z" fill="#380e9d"/>
  <path d="m-41.1 70.8 11-5.22 42.6 33.1s7.94 12.9 2.92 19.1c-4.09 5.03-15.4 2.12-15.4 2.12l-31.6-2.72-23.3-10.1 3-20.3z" fill="#e31caf"/>
  <path d="m533 148 16.4 59.2-1.36 0.59-14-1.31-22.2-14.1s-13.1-5.29-13.4-13.4c-0.326-8.58 13.4-15.1 13.4-15.1z" fill="#005528"/>
  <path d="m-12.9 332 24.8 6.79s16.3 3.59 19.7 10.9c2.61 5.61 0.295 8.5-3.95 13-5.3 5.61-12.1 11.8-19.4 9.31-5.11-1.73-8.29-13.5-8.29-13.5z" fill="#00aa73"/>
  <path d="m479 338c3-2.22 11.2 0.188 11.2 0.188l36.2 56 5.66 18.3-60.2 9.24s-11.7 0.0146-12.4-4.25c-3.12-18.1 7.91-36.1 13.1-56.7 1.92-7.66 0.15-18.1 6.49-22.8z" fill="#e3aac9"/>
  <path d="m144 476c7.84 7 20.2 10.6 31.5 16.3 6.95 3.53-8.06 19.7-8.06 19.7l-9.94 11.9-28.6-3.55 1.37-8.35s0.695-20.7-4.32-35.1c-1.98-5.68 15.5-3.16 18-0.913z" fill="#38e3df"/>
  <path d="m393 543 7.56-20.8 16.7-10.6s5.39-5.24 9.68-4.31c2.75 0.592 6.06 4.31 6.06 4.31l27.3 41.5-0.753 28.4-48.8-24.7z" fill="#c700b4"/>
  <path d="m-18 59.4 18-9.57s9.77-15.5 17.9-17c11.3-2.13 39.6 26.9 39.6 26.9s-11.1 16.8-12.3 25.6c-1.19 9.02-10.3 25.3-10.3 25.3l-11.2-7.47-23.7-24.9z" fill="#001c34"/>
  <path d="m469 66.1c6.8-4.76 24.8-5.17 26.1-1.34 4.82 13.9 17 24.2 17 24.2l12.5 9.69 6.92 22.9-51-4.39s-19.2-2.73-23.3-10.1c-3.32-5.98 3-20.3 3-20.3s3.59-17 8.85-20.6z" fill="#e31caf"/>
  <path d="m-51.9 233 28.5 6.35 24.1 34-4.08 27.9-25.6-18.4-20.7-34.8z" fill="#e37192"/>
  <path d="m501 336c2.84-3.42 10.9-0.419 10.9-0.419l12 3.27 32.6 24.3-4.04 26.2-33.4-16.2-7.06-14.6s-17.2-15-10.9-22.6z" fill="#00aa73"/>
  <path d="m273 391c-3.9-0.0732-8.87 0.769-14.9 2.53-37.6 18.4-40.7 1.21-61 2.65-9.21 0.653-14-5.69-27.6 2.71-4.64 2.88-1.23 8.49-3.75 20.8 0 0-7.14 40.8-11.5 52.7-3.69 10.2 26 15.3 26 15.3s23.2 12.4 34 8.15c9.28-3.63 16.6-24.8 16.6-24.8 3.11-4.63 22.9-11.3 32.3-14.4 9.55-3.15 16.8-13.5 21.8-31.2 2.83-9.99 1.99-19.9-2.51-29.7-1.44-3.12-4.66-4.73-9.67-4.82z" fill="#38c72c"/>
  <path d="m451 502c8.23-7.46 23.9 9.32 23.9 9.32l0.43 0.334 34.6 26.9-11.8 16.3-19 15.6-19.3-29.5-10.2-29.3s-2.43-6.27 1.32-9.66z" fill="#e3006f"/>
  <path d="m86.9-50 14.6-13.7 19.3 17.6 5.01 36.9-4.68 9.17s-4.94 11.2-10.6 12.5c-8.29 1.88-17.6-12.5-17.6-12.5l-12.5-9.53z" fill="#1ce39d"/>
  <path d="m361-16.4 23.1 4.88 13.1 13.8-11.2 25.7-19.1 1.93s-18.9-3.72-35.3-10.5c-7.92-3.27 12.4-19.3 12.4-19.3z" fill="#aa0016"/>
  <path d="m88.9 44.2c-8.42 2.37-16.8 7.7-25.1 16-15.3 26.8-13.4 47.9-24.6 55.3-11.2 7.35-14.3 0.986-19.3 4.89-5.05 3.91-8.17 14.7-7.58 23.3 1.15 16.7 17.8 28.7 26.8 52.4 1.07 2.79 4.92 4.79 7.87 4.3 4.56-0.765 9.34-10.3 9.34-10.3 5.94-0.97 22.2-17 35.9-26.2 13.6-9.31 22.6-43.2 20.7-45.4-0.0642-0.0731-0.176-0.144-0.271-0.215 1.23-10.8-1.63-25.2-1.28-35 0.617-17.1-0.839-28.5-4.37-34.3-4.94-6.45-11.5-6.59-18.1-4.78z" fill="#1313dc"/>
  <path d="m499 126 28.2 7.71-26 27.6s-14.6 20.2-25.6 20.8c-5 0.258-12.6-8.24-12.6-8.24s-14.4-38.8-2.31-50.5c9.14-8.91 38.2 2.71 38.2 2.71z" fill="#e3388e"/>
  <path d="m356 444c11.5 0.668 20.9 27.6 20.9 27.6s10.6 17.1 5.27 21.4c-7.03 5.64-30.9-5.51-30.9-5.51s-26-8.15-21.6-16c4.4-7.91 13.7-28.2 26.4-27.5z" fill="#aae33b"/>
  <path d="m195 499s14.9 1.49 25.6 1.15c3.67-0.117 2.18 11.9 2.18 11.9l-0.196 6.79-13.3 39.9-7.78-2.98-37.4-30.4 15.6-13.3z" fill="#550029"/>
  <path d="m144-36 38.5 18.1-15 17.9s-8.19 9.45-13 11.3c-8.93 3.52-25.5-2.99-25.5-2.99l6.41-39.1z" fill="#38e3df"/>
  <path d="m428-7.05-27.8 17.7-7.56 20.8 1.73 1.35c-4.53 6.33-3.53 25.4-5.55 41.9-1.52 12.3 2.46 21.5 11.9 27.6 5.09 3.26 16.4 4.02 33.8 2.29 25.7-3.97 24.4-27.2 24.6-34.6 0 0 6.94-21.2 0.752-28.4-11.7-13.6-27.3-41.5-27.3-41.5z" fill="#c700b4"/>
  <path d="m-5.02 315 11.3-12.7s16.8-10.6 25.7-8.73c11 2.35 22.8 11.9 24.8 23 1.64 9.35-4.3 21.6-13 25.3-13.5 5.69-42-12.8-42-12.8l-1.68-3.53z" fill="#008ebf"/>
  <path d="m455 238c-4.86 1.39 1 13.5 1 13.5s5.41 12.6 2.77 19.7c-3.46 9.25-16.6 15.3-15.7 25.1 0.365 3.96 8.05 8.8 8.05 8.8s17.1 25.6 30.7 27.3c5.87 0.692 17.8-0.699 22.6-6.94 2.3-3 0.398-11.3 0.398-11.3 0.951-4.52 3.21-7.68 3.86-12.1l4.08-27.9-0.732-1.03s-3.33-29.6-9.33-33.2c-12-7.27-35.3-5.47-47.7-1.93z" fill="#e37192"/>
  <path d="m-54.2 475 39.9 3.59 31.6 25.6 4.85 5.94-17.3 17.4-55.1-29.8z" fill="#e3e3c9"/>
  <path d="m417 433 33.9 1.52s0.256 28.9 7.73 41.4c3.4 5.65-6.61 21.1-6.61 21.1s-9.17 4.84-14.1 6.26c-11.4 3.26-35.2 4.93-35.2 4.93l-14.2-13.2-6.53-27z" fill="#c7e30d"/>
  <path d="m44.1 44.1c-12.7-8.35-26.1-15.4-23.4-30.4 1.1-6.1 11.7-16.7 11.7-16.7l20.7-20 11.7 3.96 16.6 19s21.2 14.1 22.1 25.3c0.284 3.72-6 9.46-6 9.46s-23.4 16-36.8 16.2c-5.95 0.0674-10.9-3.12-16.5-6.79z" fill="#1c0024"/>
  <path d="m11.4 158c5.9 1.12 5.26 9.89 8.29 15.1 6.5 11.1 14.7 14.9 12.7 23.6-1.07 4.62-10.2 9.89-10.2 9.89l-42.8-27.2 20.6-15.4s7.22-6.72 11.4-5.92z" fill="#005528"/>
  <path d="m490 185c6.48 5 21.5 15.3 21.5 15.3l14.7 6.21-13 27.9-1.76-0.238s-36 0.783-45.3-9.42c-7.43-8.18-2.59-19.7 3-29.2 3.93-6.69 17.2-13.3 20.8-10.6z" fill="#e355c7"/>
  <path d="m-32.7 343 10.8-5.21 36.2 56s4.6 9.77 1.22 15.2c-3.57 5.71-15.5 6.18-15.5 6.18l-40.3 6.18-12.9 1.37 13.5-62.4z" fill="#e3aac9"/>
  <path d="m56.3 453c2.09-9 19.2-13.5 19.2-13.5s18.7 1.61 25.3 7.37c15.3 13.4 23.1 28.3 25.2 45.6 0.795 6.75-4.87 19.2-4.87 19.2l-7.9 15.5-32.7-25s-28.3-31.3-24.1-49.2z" fill="#1ce39d"/>
  <path d="m361 496 23.1 4.88 13.1 13.8-11.2 25.7-19.1 1.93-41.4-12 18.5-17.8z" fill="#aa0016"/>
  <path d="m-54.2-37.1 39.9 3.59 31.6 25.6 4.85 5.94-1.93 1.95s0.574 17.6-5.94 20.4c-4.97 2.11-14.3-7.54-14.3-7.54l-50.2-27.1z" fill="#e3e3c9"/>
  <path d="m502 61.1c1.09-6.72 9.66-11.2 9.66-11.2l10.4-5.52 33.8 35.2-7.42 29.5-1.82 1.62-11.2-7.47-23.7-24.9s-11.1-8.64-9.66-17.2z" fill="#001c34"/>
  <path d="m33.4 215s-15.4 9.52-19.8 17.1c-6.77 11.7-12.2 27.2-7.62 39.9 2.96 8.26 22.8 13.8 22.8 13.8s17.3 7.33 24 13.6c12.3 18.7 26.6 26.4 44.5 32.9 10.3 3.73 18 2.53 22.9-3.58 2.66-3.32 0.883-19.5 0.51-29.2-0.595-15.5 0.206-31.6-4.38-46.4-2.04-6.62-4.87-13.6-10.1-18.2-12.4-11-16-8.78-46.2-18.8-18.1-9.21-1-11.9-26.6-1.01z" fill="#137b9d"/>
  <path d="m-52.4 429 71-9.47 2.17 0.445 0.978 25.5-27.4 28-46.2-7.54-1.61-33.9z" fill="#e3c7ec"/>
  <path d="m242 470c9.53-7.1 20.9-12.4 33.7-11.7 10.4 0.607 19.8 9.96 25.1 18.9 5.99 10.1 0.782 35.2 0.782 35.2l0.202 9.07-3.41 10-57.4-17.8-1.23-1.32-15-18.4s9.36-18.1 17.3-24z" fill="#71e3d0"/>
  <path d="m29.9 512 0.149-0.189s-21-18.2-22.1-30.6c-1.01-11 3.69-23 14.3-26 11.5-3.22 24.8 6.96 31.7 16.7 9.64 13.6 27.4 39.9 27.4 39.9l22.1 25.3-6 9.46-27.5 2.24z" fill="#1c0024"/>
  <path d="m141 404c9.82 1.85 11-3.91 17.5 10.3 4.21 9.08-5.78 39.5-7.71 56.3-7.44 7.44-13.8 1.07-19.8-1.67-6.05-2.76-2.32-2.36-14.3-13.9-7.68-7.39-8.92-20.1-3.72-38.1 3.33-11.5 12.7-15.8 28-12.9z" fill="#38c798"/>
  <path d="m382 103c-5.65 0.156-12.5 2-20.4 5.53-12.6 5.58-15.7 18.7-9.2 39.3 5.74 18.3 12.4 27.8 20 28.4 6.77 0.533 11.5-2.95 17.3-4.09 12.9-2.52 20.8-5.56 39-6.06 15.3-0.556 21.4-10.1 23-27.1 1.38-14.5 3.39-22.7 1.32-26.1-1.76-2.94-16.3-1.33-24.4-2.25-11.9-1.36-19.6 5.92-35.6-4.84-3-1.92-6.69-2.82-11.1-2.7z" fill="#b9382d"/>
  <path d="m398 373q52.3 52.7 52.3 52.8 0.049 0.39 2e-3 0.487-1.04 2.15-2.51 2.09-32.6-1.29-34.7-1.8-47.7-11.4-47.7-11.5-1.32-2.37-1.29-2.47 0.633-2.22 1.97-3.93 29.6-38 32-35.6z" fill="#c7c7bc"/>
  <path d="m419 242c6.07-7.32 8.79 0.501 28.2-4.5 3.55-0.917 1.85 6.49 7.93 23.6 1.12 3.15 0.863 12.8-13.8 27.5-2.69 2.69-16.1 1.45-20.4-3.31s-0.889-11.9-1.17-17.8c-0.398-8.48-6.14-18.9-0.721-25.5z" fill="#c771ce"/>
  <path d="m70.7 329c-3.1 0.0232-17.3 2.69-24.7 20.1-4.41 10.4-6.59 10.6-8.73 16.4-3.25 8.79-5 23.5-6.08 27.4-0.274 0.995-0.0412 19.1-0.0412 19.1s-13.6-4.08 22.3 8.75c9.14 3.27 26.9 20.1 40.7 15.6 11.3-3.64 12.6-6.21 19.4-29.7 1.73-5.99 2.02-16.5 2.73-23.5 0.705-6.97-2.13-18.3-2.13-18.3-0.546-4.7 0.645-13.9-3.33-18.9-8.91-11.3-12.8-7.33-39.6-17-0.161-0.0579-0.344-0.0855-0.551-0.084z" fill="#1cb92e"/>
  <path d="m363 420q0.224-2.63 42.6 7.51 7.48 1.79-22.3 31.6-5.27 5.27-19.1-19.8-2.44-4.43-1.17-19.3z" fill="#aac73f"/>
  <path d="m429 294q9 4.04 28.9 24.5 17.3 17.7 14.7 20.3-2.26 2.26-34 2.57-27.5 0.272-23.5-27.7 3.52-24.3 13.9-19.7z" fill="#c78e87"/>
  <path d="m91.9 172q10.2-0.298 19.1 10.9 9.01 11.3 2.63 27.6-6.45 16.5-36.4 6.55-30.3-10.1-13-27.3 17.5-17.5 27.6-17.7z" fill="#1c557e"/>
  <path d="m342 415q14.4 0.792 15.4 2.67 0.335 0.602-0.792 13.9-0.362 4.26-28.7 32.6-9.08 9.08-15.6 10-2.08 0.295-20.9-15.2-6.03-4.97 2.86-36.3 2.85-10.1 47.6-7.6z" fill="#8ec7ba"/>
  <path d="m371 36.4q14.1-2 14.5-1 1.18 3.77-0.179 14.9-5.15 41.9-13.5 45.6-31.7 14.1-33.3 13.3-6.1-2.8-6.95-4.2-3.22-5.28-3.26-10.2-0.173-18.6 8.04-26.8 31-31 34.8-31.6z" fill="#aa1c3c"/>
  <path d="m398 358c0.231-4.25 2.37-7.46 6.41-9.62 3.37-1.8 15.8-2.81 37.4-3.02 18-0.178 24 13.5 18 41-5.18 25.1-3.91 52.8-37.3 4.37-16.6-16.7-24.7-27.6-24.5-32.7z" fill="#c7aa3d"/>
  <path d="m161 128c3.64 0.388 0.0239 27.7-6.25 39.4-5.05 9.43-12.9 21.3-23.6 21.7-11.7 0.472-17.1-8.4-27.6-21.6-7.27-9.13 10.7-14.9 16.1-42.6 1.2-3.58 15.3 0.294 41.4 3.07z" fill="#383831"/>
  <path d="m379 181c4.55-3.09 30.5-7.4 47.1-8.01 16.8-0.608 27.5 1.77 32.2 7.14 4.74 5.43 5.62 14.4 2.63 26.8-3.02 12.6-5.19 19.5-6.5 20.9-1.33 1.33-7.7 3.47-19.1 6.41-11.5 2.97-22.3-4.75-32.4-23.2-10.2-18.6-28.4-27-23.9-30.1z" fill="#c7557e"/>
 </g>
</svg>
