<?xml version="1.0" encoding="UTF-8"?>
<svg width="512px" height="512px" contentScriptType="text/ecmascript" contentStyleType="text/css" version="1.1" viewBox="0 0 512 512" xmlns="http://www.w3.org/2000/svg">
 <g class="voronoi" stroke-width=".5">
  <path d="m458-37.1 39.9 3.59 31.6 25.6 4.85 5.94-17.3 17.4-55.1-29.8z" fill="#e3e3c9"/>
  <path d="m303 25.7c3.27-5.98 8.13-4 14.3-3.82 4.94 0.14 29.5 2.17 34.2 15.1 4.96 13.8-18.9 28.5-24.2 28.9-8.02 0.534-17.3-16.7-22.1-27.4-1.78-3.93-2.2-12.8-2.2-12.8z" fill="#8e00cf"/>
  <path d="m-13.2 126 13.2 3.6s5.8 1.4 7.21 6.4c1.98 7.04-7.21 13.7-7.21 13.7l-10.9 11.6-25.6 20.8-12.6-8.24-3.62-33.7z" fill="#e3388e"/>
  <path d="m27.5 423c-7.02 5.5-0.626 18.2 2.3 26.6 4.31 12.4 12.5 23.6 21.7 32.9 8.19 8.32 28.9 19.8 28.9 19.8l32.7 25 12.6-24.7s0.753-25.9-5.01-36.9c-4.04-7.72-11.8-13.2-19.3-17.6-22.4-13.3-53.5-41.2-73.9-25.1z" fill="#0ed5c1"/>
  <path d="m482 424c11.6 3.02 30.3-1.46 30.3-1.46l18.6-2.48 2.17 0.445 0.978 25.5-21.8 22.3s-5.6 3.57-8.14 4.41c-14.8 4.88-33.3 5.44-43.7-6.22-7.53-8.44-7.86-24.5-1.61-33.9 4.55-6.86 15.2-10.6 23.2-8.54z" fill="#e3c7ec"/>
  <path d="m327 470c9.9-0.587 14 12.9 17.2 20.8 2.38 5.88-9.73 20.7-9.73 20.7l-13.1 14.8-14.4 1.9 0.707-16.7s-1.1-23.7 3.26-31.9c3.51-6.67 12.9-9.41 16-9.6z" fill="#8ee3e0"/>
  <path d="m17.1 16c-2.71-0.056-5.11 0.464-6.83 1.89-6.8 5.63 4.7 18.9 0.172 26.5-2.01 3.37-10.4 5.52-10.4 5.52l-18 9.57 41.8 43.7s6.74 8.02 11.2 7.47c2.7-0.335 4.31-3.59 5.47-6.05 3.61-7.62 0.883-15.3 3.77-25 3.92-13.2 16-25.1 13.4-39-2.02-10.7-17.3-16.9-17.3-16.9s-13.5-7.56-23.2-7.76z"/>
  <path d="m445-14.3 30.2 14 0.43 0.334s32.5 12.4 34.6 26.9c0.941 6.64-11.8 16.3-11.8 16.3s-10.9 16.8-19 15.6c-11.6-1.79-19.3-29.5-19.3-29.5l-10.2-29.3z" fill="#e3006f"/>
  <path d="m-32 187 32 13.5s11.5 6.87 13.4 11.8c3.7 9.57-11.6 22.3-11.6 22.3l-42.8-5.79-1.28-33.1z" fill="#e355c7"/>
  <path d="m507 315 11.3-12.7 25.7-8.73 24.8 23-13 25.3-42-12.8-1.68-3.53z" fill="#008ebf"/>
  <path d="m33.1 462c4.61 4.38-0.359 13.5-4.06 18.6-4.22 5.88-12 14.3-18.6 11.2-6.94-3.23-7.73-16.3-3.57-22.7 4.92-7.61 19.7-13.4 26.2-7.15z" fill="#00e3b4"/>
  <path d="m462 479c4.8-5.31 21.8-2.33 33.7 1.3 5.86 1.79 16.7 9.75 16.7 9.75l17.3 14 4.85 5.94-17.3 17.4-28.7-15.5s-23.4-11.6-28.9-20.1c-2.9-4.48-2.95-7.19 2.22-12.9z" fill="#e3e3c9"/>
  <path d="m318-32.9 34.7 13.3-17.3 19.5s-9.79 12.1-16.1 14.1c-4.06 1.3-5.94 1.09-9.5-2.16-4.12-3.77-1.18-11.9-1.18-11.9l1.18-28z" fill="#8ee3e0"/>
  <path d="m144-36-8.68 5.25-5.04 30.8-1.37 8.35s-15.2 12.8-18.4 21.7c-1.33 3.65-1.77 8.23 0.0527 11.7 4.65 8.73 14.2 15.4 24.5 16.7 42.3 4.92 15.5-23.5 22.4-46.5 1.67-4.89 9.95-11.9 9.95-11.9l15-17.9z" fill="#38e3df"/>
  <path d="m-41.1 70.8 11-5.22 42.6 33.1s9.4 11.5 4.38 17.6c-4.09 5.03-16.8 3.57-16.8 3.57l-31.6-2.72-23.3-10.1 3-20.3z" fill="#e31caf"/>
  <path d="m533 148 16.4 59.2-1.36 0.59-14-1.31-22.2-14.1s-10.9-5.44-11.2-13.6c-0.326-8.58 11.2-15 11.2-15z" fill="#005528"/>
  <path d="m-12.9 332 24.8 6.79s27.4 11.8 32.6 24.3c3.35 8.19 3.79 22.1-4.04 26.2-11 5.75-22.4-7.62-31.1-16.4-3.81-3.82-9.32-14.4-9.32-14.4z" fill="#00aa73"/>
  <path d="m478 331c2.72-2.92 10.6 3.15 12.5 6.69 4.75 9.24 21.9 33.9 21.9 33.9l14.3 22.1 5.66 18.3-20 3.06s-27.1 5.66-40.4 2.98c-5.57-1.12-14.9-0.0554-14.4-5.71 1.74-17.6 11.1-31.2 15.2-52.1 1.92-9.72 0.97-24.7 5.22-29.3z" fill="#e3aac9"/>
  <path d="m156 482c6.73 2.63 16.7 1.27 18.9 10.6 1.77 7.59-7.66 18.9-7.66 18.9l-9.94 11.9-28.6-3.55 1.37-8.35s-6.18-31.2 3.56-34.9c15.1-5.64 15.2 2.56 22.3 5.35z" fill="#38e3df"/>
  <path d="m393 543 7.56-20.8 16.7-10.6s7.62-4.79 11.9-3.86c2.75 0.592 3.83 3.86 3.83 3.86l27.3 41.5-0.753 28.4-48.8-24.7z" fill="#c700b4"/>
  <path d="m195-13 28 5.11-0.229 7.92-0.196 6.79s-3.63 29.7-13.3 39.9c-9.23 9.73-25.8 21.4-37.5 14.7-14.1-8.05-10.7-29.6-5.06-44.8 2.36-6.42 13-16.6 13-16.6z" fill="#550029"/>
  <path d="m464 68c4.6-4.25 27.2-7.84 28.7-4.08 5.46 13.5 18.8 25.1 18.8 25.1l12.5 9.69 6.92 22.9-51-4.39s-19.2-2.73-23.3-10.1c-3.32-5.98 1.72-13.6 3-20.3 1.2-6.31-0.345-14.4 4.37-18.8z" fill="#e31caf"/>
  <path d="m-51.9 233 28.5 6.35 24.1 34-4.08 27.9-25.6-18.4-20.7-34.8z" fill="#e37192"/>
  <path d="m503 340c1.1-3.33 9.43-4.68 9.43-4.68l12 3.27 32.6 24.3-4.04 26.2-33.4-16.2-7.06-14.6s-11.6-11.8-9.43-18.3z" fill="#00aa73"/>
  <path d="m194 388c-11.9-0.587-21.1 5.45-27.5 12.7-2.76 3.17-0.575 12.4 6.55 27.8 4.66 6.4-12.1 29-16.6 37.1-6.53 11.9 14.4 16.9 24 22 10.3 5.47 23 12 34 8.15 7.91-2.73 14.4-11.4 15.6-19.6 2.34-16-20.2-39.4-18.1-45.1 1.58-4.31 3.51-11.9 3.11-18-0.505-7.62-1.81-14.7-6.85-21.9-1.57-2.23-6.35-3.3-14.4-3.2z" fill="#55d54a"/>
  <path d="m441 496c-2.12-2.9 5.69-5.77 9.27-5.49 10.9 0.877 25.2 21 25.2 21l34.6 26.9-11.8 16.3-19 15.6-19.3-29.5-10.2-29.3s-3.32-8-8.8-15.5z" fill="#e3006f"/>
  <path d="m86.9-50 14.6-13.7 19.3 17.6 5.01 36.9-12.6 24.7-32.7-25z" fill="#1ce39d"/>
  <path d="m361-16.4 23.1 4.88 13.1 13.8s-3.66 20.2-11.2 25.7c-5.17 3.77-12.7 2.51-19.1 1.93-14.3-1.31-43.6-10.2-41.4-12 7.94-6.46 18.5-17.8 18.5-17.8z" fill="#aa0016"/>
  <path d="m41.5 121c-1.92-1.81-10.5-1.33-13.1-0.524-8.26 4.12-6.31 14.6-5.86 22l17.2 61c5.49 12.9 9.8 40.2 12.7 53 2.23 9.72 12.6 13.7 31.2 11.9 6.11-0.581 13.4-6.45 21.9-17.6 23.5-18.1 46.5-39 43.8-53.3 4.63-13.7-73.4-32.8-80.6-41.5 0 0-17.5-25.9-27.3-35.1z" fill="#13553b"/>
  <path d="m427 111c-12.6 1.25-22.1 11.2-28.4 29.7-5.4 15.8-12.3 16.1-7.9 22.8 6.1 9.44 13 3.78 33.6 3.03 18.9 3.12 27.7-0.287 49.1-0.936l27.7-4.19 26-27.6-28.2-7.71c-9.79-3.6-43.6-6-46.9-13-7.63-4.85-16.7-3.01-24.9-2.21z" fill="#e3388e"/>
  <path d="m356 449c-13.1-3.29-15.7 9.28-16.1 20.2-0.522 13.8 13.1 12.3 12.4 23.5-0.501 7.85-8.3 19.2-8.3 19.2l-18.5 17.8 41.4 12 19.1-1.93 11.2-25.7-2.15-2.25s-8.39-11.8-11-16.4c-4.48-8.02-4.16-14.7-7.03-21.8-4.05-9.97-10.6-22.1-21-24.8z" fill="#aa0016"/>
  <path d="m195 503c9.16-2.47 16-5.46 22.4 1.39 1.79 1.94 5.35 7.92 5.35 7.92l-0.196 6.79-13.3 39.9-7.78-2.98-37.4-30.4 15.6-13.3s8.85-7.57 15.3-9.31z" fill="#550029"/>
  <path d="m397 32.1c-1.46-6.69 0.989-13.1 5.62-18.9 4.14-5.15 14.8-13.3 14.8-13.3l11.1-7.05 31.9 48.6s9.19 17.1 1.05 21.9c-15.6 9.33-50.6-18.2-50.6-18.2s-12.3-5.78-13.9-13.1z" fill="#c700b4"/>
  <path d="m-5.02 315 11.3-12.7s16.8-10.6 25.7-8.73c11 2.35 22.8 11.9 24.8 23 1.64 9.35-4.3 21.6-13 25.3-13.5 5.69-42-12.8-42-12.8l-1.68-3.53z" fill="#008ebf"/>
  <path d="m466 277c15.6 1.71 24.1 22.3 32.9 37.6 2.85 6.91-2.53 17.4-8.2 15.8l-18.9-5.41s-27.2-17.2-28.4-23.2c-1.95-9.75 12.2-25.9 22.6-24.7z" fill="#e38ea4"/>
  <path d="m-54.2 475 39.9 3.59 31.6 25.6 4.85 5.94-17.3 17.4-55.1-29.8z" fill="#e3e3c9"/>
  <path d="m417 433c10.5-4.08 25.9-6.53 33.9 1.52 2.89 2.93 2.8 23.2 0.463 34.4-2.89 8.85-6.8 19.5-14.7 25-10.2 6.79-21.9 16.4-34 14.2-6.37-1.14-10.9-7.65-14.2-13.2-4.67-7.99-9.04-18.1-6.53-27 4.48-15.9 19.7-28.9 35.1-34.9z" fill="#c7e30d"/>
  <path d="m238-35.6 35.3-15.2 27 15.5 0.782 35.2s-1.31 6.47-2.97 9c-2.05 3.13-16 3.32-19.5 3.17-24.6-1.04-38.1-10.8-38.1-10.8l-11.1-12z" fill="#71e3d0"/>
  <path d="m29.9 0.189 0.149-0.189 2.32-2.94 20.7-20 11.7 3.96 16.6 19s19.4 17.6 20.2 28.7c0.284 3.72-9.05 8.79-12.2 10.7-7.88 4.76-10.7 0.54-19.4-2.45-17.1-5.89-40-36.8-40-36.8z" fill="#1c0024"/>
  <path d="m14.3 158c12.4 2.02 17.6 26 17.6 26s6.76 14.5 3.33 20.6c-2.5 4.41-11.7 9.63-14.1 5.61-5.2-8.59-21.2-17.8-21.2-17.8l-20.6-13.1 20.6-15.4s8.91-6.73 14.3-5.85z" fill="#005528"/>
  <path d="m497 192c5.06 2.96 15.2 8.78 15.2 8.78l14.7 6.21-13 27.9-1.76-0.238s-37.7 7.84-41-5.55c-3.81-15.5-8.28-39-1.28-53.2 4.65-9.39 18 10.8 27 16z" fill="#e355c7"/>
  <path d="m-32.7 343 10.8-5.21 21.9 33.9s8.14 15.9 14.3 22.1c4.43 4.5 16.5 4.24 15.8 10.5-1.29 10.6-30.1 10.8-30.1 10.8l-40.3 6.18-12.9 1.37 13.5-62.4z" fill="#e3aac9"/>
  <path d="m-54.2-37.1 39.9 3.59 31.6 25.6 4.85 5.94-1.93 1.95s-5.76 8.62-11.3 12.9c-3.67 2.87-8.98-0.101-8.98-0.101l-50.2-27.1z" fill="#e3e3c9"/>
  <path d="m271 16.4c-8.72-2.27-27-0.631-27-0.631-19.1-0.445-27 32-37.9 42.8-11 11-16.9 18.2-17.7 21.6-3.47 15.5-3.08 25 1.19 28.6 19.7 16.7 30.4 25 32.1 25.1 7.85 0.171 12.7-2 14.5-6.53 8.35-20.9 12.7-32.3 12.9-34.2 0.722-27.7 16.3-30.8 33.6-49.8 17.7-19.5-2.47-24.4-11.6-26.8z" fill="#630e56"/>
  <path d="m502 61.8c1.09-6.72 10.1-11.9 10.1-11.9l10.4-5.52 33.8 35.2-7.42 29.5-1.82 1.62-11.2-7.47-23.7-24.9s-11.5-7.95-10.1-16.5z" fill="#001c34"/>
  <path d="m13.6 232c4.36-7.54 11.3-19 19.8-17.1 8.66 1.99 10.5 24.5 10.5 24.5s8.57 27.6 2.16 38.9c-3.69 6.51-12.4 11.2-19.9 10.4-8.73-0.92-17.3-8.56-20.3-16.8-4.57-12.7 0.842-28.2 7.62-39.9z" fill="#007170"/>
  <path d="m461 240c10.2-8.48 28.9 0.377 37 5.76 11.2 7.46 14.2 26.5 14.2 26.5l0.733 1.03-0.733 5s-1.23 17.7-8.32 20.7c-9.68 4.11-13.2-8.81-20.7-16.3-6.07-6.08-11.1-13.3-15-21-3.46-6.81-11.1-18.5-7.18-21.8z" fill="#e37192"/>
  <path d="m-52.4 429 52.4-6.99s7.46-2.08 11.2-1.48c3.38 0.553 8.56 1.39 9.23 4.52 2.03 9.53-0.146 20-4.75 28.4-3.38 6.19-15.7 14.2-15.7 14.2l-5.6 5.73-46.2-7.54-1.61-33.9z" fill="#e3c7ec"/>
  <path d="m238 476c9.85-11.3 31.8-20.9 40.1-20.5 5.54 0.299 20.6 10.8 22.2 20.8 2.06 12.6 0.782 35.2 0.782 35.2l0.202 9.07-3.41 10-57.4-17.8-1.23-1.32s-9.97-10.6-11-15.4c-1.82-8.61 3.91-13.6 9.68-20.2z" fill="#71e3d0"/>
  <path d="m29.9 512 0.149-0.189s2.02-1.72 2.32-2.94c1.83-7.52-10.1-17.5-4.38-22.8 8.28-7.68 30 7.15 32.7 8.91 6.36 4.09 20.7 16.8 20.7 16.8l22.1 25.3-6 9.46-27.5 2.24z" fill="#1c0024"/>
  <path d="m300 43.3c-14.1-0.725-17 8.6-33.8 25.4-6.77 5.83-16.1 20.2-9.63 29.5 17.6 15.1 15.6 12.8 25 15.4 14 3.82 34.3 10.5 43.5-0.787 4.92-6.05-2.44-15.5-4.35-23 0.706-2.22 2.07-11.3 0.758-16.8-1.88-7.78 0.202-0.161-11.9-20.9-0.74-1.26-5.22-8.63-9.56-8.86z" fill="#801c94"/>
  <path d="m49.5 113c4.75-6.97 4.3 0.621 25.3 1.21 23.9 0.677 37.5 2.81 40.6 6.41 3.6 4.1 3.62 12.1 0.068 24-4.05 13.6-8.14 12.2-17 12.4-10 0.293-23.6 0.86-35.9-14.9-14.1-18-19.1-20.3-13.1-29.1z" fill="#1c3877"/>
  <path d="m326 168q9.7-9.73 33.2-4.24 24.8 5.78 26.2 7.4 1.51 1.7 2.32 28.4 0.854 28.1-8.27 27.9-9.61-0.217-35.5-24.6-27.2-25.7-18-34.9z" fill="#aa551b"/>
  <path d="m325 329c-3.21-0.506-14.2 7.36-32.8 20.9-1.53 1.11-0.0504 12.8 4.43 35.1 0.235 1.17 3.9 4.88 6.19 5.9 17.5 6.13 28.7 5.95 43.2 10.7 4.75 1.55 8.42 8.71 19.5 13.8s16.1 4.12 47.8 11.7c9.9-0.119 35.6 5.24 37.2-0.773 2.33-8.88-31.3-33.4-65.9-73.5-2.66-3.08 0.961-9.16-1.96-10.6-18.4-9.05-39.5-10.3-57.7-13.2z" fill="#aab4c3"/>
  <path d="m141 410c11-0.533 15.7 3.06 21.8 16.3 3.93 8.48 3.91 21.3-7.72 32.9-7.44 7.44-12.9 11.6-16.4 12.4-2.24 0.53-9.36-4.98-21.4-16.5-7.68-7.39-9.6-17.7-5.75-31.1 2.47-8.53 12.3-13.2 29.4-14z" fill="#38c798"/>
  <path d="m365 278c11.9-6.95 42.2 6.61 54.8 12.3 10.9 4.91 23 14.2 36.3 27.8 11.5 11.8 16.4 18.6 14.7 20.3-1.51 1.51-15.8 2.39-42.9 2.66-23.5 0.233-47.1 4.57-59.6-11.3-6.16-7.83 0.777-19.7 1.49-29.9s-16.7-14.9-4.78-21.9z" fill="#c78ede"/>
  <path d="m243 343c-13.9 2.65-22.7 10.1-26.6 22.4-3.66 11.7-1.31 19.2-0.0312 25.4 2.43 11.8 5.5 26.3 5.08 36.9-0.587 9.13 3.08 18.7 11 28.7 4.49 5.67 15.2 5.72 32 0.164 9.55-3.15 17.6-16.4 24.2-39.6 1.87-20.3 1.13-32.5-1.61-47-2.36-11.7-6.75-19.9-13.2-24.5-10.1-5.59-20.9-4.32-31-2.43z" fill="#71b90d"/>
  <path d="m36.1 404c14.3-14.3 24-21.7 29.3-22.2 20.5-2.12 31.6-1.17 33.2 2.85 6.32 15.8 8.84 25.9 7.56 30.3-5.04 17.4 2.15 17.8-4.22 21.3-8.16 4.39-16.6-7.21-25.7-10.5-14.8-9.88-51.9-8.87-40-21.7z" fill="#1cc73b"/>
  <path d="m152 68.6q29.5 7.39 26.1 22.4-2.97 13.2-15.6 22.2-11.1 7.88-24.3 9.26-11.6 1.21-17-4.93-4.74-5.4-3.74-33 0.875-24.3 34.4-15.9z" fill="#381c86"/>
  <g>
   <path d="m156 327q2.96-2.17 31.8 0.436 9.97 0.901 23.4 13 4.66 4.19-3.69 30.9-2.89 9.24-24.2 11.1-7.37 0.633-28.5-36.4-7.32-12.8 1.23-19.1z" fill="#55aad3"/>
   <path d="m293 124q32.6-6.14 33.5 2.13 3.22 28.3-1.06 32.6-14.6 14.7-16.8 16-7.23 4.58-10.4 4.69-11 0.383-15.7-3.84-16.1-14.4-12.2-22.4 13.1-27.4 22.6-29.2z" fill="#8e38ca"/>
   <path d="m379 234c-19.1 7.01-16 30.5 22.7 44.8 21.1 6.89 27 14 39.9 9.42 10.5-3.78 20-15.5 20.3-26.7 0.26-9.63-11.5-25.1-16.2-23.9-24.9 11.5-47.1-2.82-66.6-3.46z" fill="#b9711a"/>
  </g>
  <path d="m70.8 329c25.1 9.07 26.8 6.8 30.8 17 3.98 10.2-0.316 23.4-9.52 28.8-9.21 5.37-34.3 1.34-35.1-0.158-8.87-15.7-12.6-24.2-11.2-25.5 14.3-14.3 22.6-21 25.1-20.1z" fill="#1caa20"/>
  <path d="m363 420c0.149-1.76 14.3 0.748 42.6 7.51 4.99 1.2-6.57 9.01-26.4 28.9-3.51 3.51-5.75-0.366-15-17.1-1.63-2.95-2.02-9.4-1.17-19.3z" fill="#aac7cf"/>
  <path d="m371 35.8q14.1-2 14.5-1 1.18 3.77-0.034 13.7-4.61 37.5-14.9 41.4-39 14.7-39.7 13.6-2.63-4.32-2.68-9.25-0.172-18.6 8.04-26.8 31-31 34.8-31.6z" fill="#aa1c3c"/>
  <path d="m181 111c-4.5 0.122-10.2 6.94-21.9 11-14.8 5.09-19.5 2.66-26.8 8.55-9.72 7.86-20.4 23.7-18.7 32.5 1.75 8.87 8.9 11.3 15.1 14.5 36.1 19 33.8 6.48 56.1-11.6 4.21-4.5 14-10.5 25.6-22.8-0.596-10.6-24.9-32.3-29.4-32.2z" fill="#473852"/>
  <path d="m120 252c-3.07-0.0607-6.36 1.24-8.02 4.62-8.64 17.6-23.8 18.6-41.6 20.5-8.7 0.827-18.4 2.23-21.3 9.45-3.31 8.45 0.61 11.3 10.8 25 5.52 7.45 17.2 14.4 35.1 20.8 10.3 2.74 20.9-1.19 29.7-1.33 12-0.201 18.7-3.7 20.6-5.1 5.76-4.23 8.96-9.56 9.59-16 1.9-19.4 0.626-32.2-5.48-36.2-7.44-4.83-20.6-21.7-29.3-21.8z" fill="#2a8e7d"/>
  <path d="m392 353c0.384-4.12 14.6-3.07 42-6.6 49-6.3 31.6 13.4 25.6 40.9-4.99 22.9-13.3 20-35.4-2.27-18.4-18.6-32.7-27.1-32.2-32z" fill="#c7aa89"/>
  <path d="m63.9 60.2q12.4-12.4 25.1-16 12.9-3.63 18.1 4.78 5.29 8.59 4.37 34.3-0.945 26.2-34.3 25.3-34-0.963-29.8-18.4 4.34-17.8 16.5-30z" fill="#1c1c7e"/>
  <path d="m332 114q0.439-3.74 10.4-7.52 39.3-14.9 43.4-10.9 16.2 15.7 12.6 26.1-14.1 41.1-23.8 38.8-38.5-8.98-39.4-16.4-3.32-29.2-3.21-30.1z" fill="#aa38c3"/>
  <path d="m113 346q1.02-2.63 5.01-6.34 0.379-0.352 21.9-4 2.04-0.347 28.1 45.1 2.47 4.32-10.4 19.2-1.23 1.41-39.7 3.28-3.65 0.177-14.5-27-1.03-2.58 9.67-30.3z" fill="#38aade"/>
  <path d="m415 53.5q40.4 25 38.1 33.6-4.26 16-18.6 17.5-26.8 2.66-33.8-4.22-13.2-12.8-11.1-29.4 3.79-30.8 25.5-17.4z" fill="#c71c5c"/>
  <path d="m266 113q12.6 10.9 3.54 29.9-7.86 16.4-15.6 12.1-6.67-3.69-12.7-10.5-5.18-5.92 3-26.4 7.07-17.7 21.7-5.07z" fill="#713887"/>
  <path d="m341 408q12.8 2.86 15.8 8.3 0.97 1.75-0.158 15-0.361 4.26-28.7 32.6-9.08 9.08-15.6 10-2.08 0.295-20.9-15.2-6.03-4.97 5.69-46.3 3.76-13.3 43.7-4.38z" fill="#8ec7ba"/>
  <path d="m423 174c19.1-0.693 31 1.64 35.7 7.01 4.74 5.43 5.62 14.4 2.63 26.8-3.02 12.6-5.19 19.6-6.51 20.9-1.33 1.33-9.6 3.96-24.8 7.88-15.3 3.96-28.5-7.91-32.1-12.1-3.59-4.23-1.95-3.67-2.5-21.8-0.558-18.4 8.61-27.9 27.5-28.6z" fill="#c7557e"/>
 </g>
</svg>
