<?xml version="1.0" encoding="UTF-8"?>
<svg width="512px" height="512px" contentScriptType="text/ecmascript" contentStyleType="text/css" version="1.1" viewBox="0 0 512 512" xmlns="http://www.w3.org/2000/svg">
 <g class="voronoi" stroke-width=".5">
  <path d="m458-37.1 39.9 3.59 31.6 25.6 4.85 5.94-17.3 17.4-55.1-29.8z" fill="#e3e3c9"/>
  <path d="m303 25.7 3.17-4.14 11.2 0.316 40.1 9.42-26.6 35-25.7-27.8z" fill="#8e00cf"/>
  <path d="m-13.2 126 13.2 3.6s6.62 0.858 8.02 5.86c1.98 7.04-8.02 14.2-8.02 14.2l-10.9 11.6-25.6 20.8-12.6-8.24-3.62-33.7z" fill="#e3388e"/>
  <path d="m70.6 381c-14.4 2.12-39.3 19-41.8 33.8-1.37 8.2-3.74 18.3-6.08 27.2 0 0-14.7 16.3-15.8 26.5-1.08 10.1 2.3 26.3 11.6 30.4 11.6 5.15 20.8-15.4 33-16.5 7.7-0.696 31.7-22.3 46.4-41.6 0.265-0.0787 1.68-4.55 4.24-13.4 0.653-2.26-3.82-15.3-13.4-39-1.99-4.91-8.04-7.33-18.1-7.24z" fill="#09d0d8"/>
  <path d="m460 436c12.3-12.7 51.7-14.3 51.7-14.3l18.6-2.48 2.17 0.445 0.978 25.5-21.8 22.3s-4.86 4.41-7.4 5.25c-14.8 4.88-32.1 4.13-42.4-7.61-4.06-4.63-4.41-18.4-4.41-18.4s-1.72-6.32 2.47-10.7z" fill="#e3c7ec"/>
  <path d="m318 479c12.3-1.07 26 6.8 31.2 11.3 6.58 5.68-13.8 21.6-13.8 21.6l-13.1 14.8-14.4 1.9 0.707-16.7s-0.454-19.6 3.95-28c1.13-2.14 2.22-4.61 5.38-4.89z" fill="#8ee3e0"/>
  <path d="m53.1-23-20.7 20-2.32 2.94-0.15 0.189s-22.6 10.5-23.1 22.8c3.65 13.8 25.2 45.7 35.9 46.1 14-0.601 20.3-17.6 32.8-24 6.91-3.78 21.8-10.2 21.6-19.8-0.85-11.2-15.8-25.3-15.8-25.3l-16.6-19z" fill="#1c0024"/>
  <path d="m445-14.3 30.2 14 0.43 0.334 34.6 26.9s-7.9 10.8-11.8 16.3c-5.4 7.51-7.98 23.9-16.1 22.6-11.6-1.79-22.2-36.5-22.2-36.5l-10.2-29.3z" fill="#e3006f"/>
  <path d="m-32 187 46.8 19.7-13 27.9-42.8-5.79-1.28-33.1z" fill="#e355c7"/>
  <path d="m509 315c0.353-2.5 2.76-6.19 2.76-6.19l6.24-7.05 25.7-8.73 24.8 23-13 25.3-42-12.8-1.68-3.53s-3.3-6.19-2.76-10.1z" fill="#008ebf"/>
  <path d="m450 485c8.85-9.21 33.6-10 46-4.99 5.68 2.3 16.3 10 16.3 10l17.3 14 4.85 5.94-17.3 17.4-55.1-29.8s-17.4-7.08-12.1-12.6z" fill="#e3e3c9"/>
  <path d="m318-32.9 34.7 13.3-30.4 34.4-14.4 1.9 0.707-16.7 1.18-28z" fill="#8ee3e0"/>
  <path d="m122 16.8c-5.37 2.31-9.53 7.7-11.6 13.2-1.36 3.64 0.0527 11.7 0.0527 11.7 7.43 7.3 7.31 30.3 7 41.8-0.495 18.4 0.692 29.5 4.06 33.4 3.83 4.37 14.1-0.641 30.8-15 19-16.4 34-36.5 34.2-37.3 0 0 3.07-20.7-2.32-28.6-7.86-11.5-24.1-14.9-37.6-18.2-7.98-1.99-17.1-4.18-24.7-0.928z" fill="#380e9d"/>
  <path d="m-41.1 70.8 11-5.22 30.2 23.4s13.3 11.6 23.1 18.6c4.75 3.41 7.49 20.5 0.0904 17.5-8.82-3.53-23.2-5.19-23.2-5.19l-31.6-2.72-23.3-10.1 3-20.3z" fill="#e31caf"/>
  <path d="m533 148 16.4 59.2-1.36 0.59-14-1.31-22.2-14.1s-8.24-4.38-8.55-12.5c-0.326-8.58 8.55-16 8.55-16z" fill="#005528"/>
  <path d="m68.5 328c-24.7 16.1-35.5 8.51-53.6 9-4.97 0.136-14.8-1.66-14.8-1.66l-12.9-3.52 12.9 26.5s15.6 28.1 23.8 36.7c8.99 9.31 24-11.8 36.6-16 7.39-2.41 17.4-1.82 22.8-5.06 21.2-11.6-2.51-52.9-14.8-46z" fill="#00aa73"/>
  <path d="m484 340c13 3.63 27.5 31.8 27.5 31.8l14.3 22.1 5.66 18.3-20 3.06s-27.9 7.44-41.2 4.66c-5.32-1.11-10.8-2.13-12.8-7.2-6.52-16.9 17.9-35.3 14.4-52.3-0.495-6.21 7.15-21.6 12.1-20.4z" fill="#e3aac9"/>
  <path d="m152 478c14.1-0.741 20.2 6.1 22.4 17.3 1.55 7.64-6.86 16.3-6.86 16.3l-9.94 11.9-28.6-3.55 1.37-8.35s2.7-21.5 10-28.9c3.94-3.97 8.2-4.5 11.6-4.68z" fill="#38e3df"/>
  <path d="m393 543 7.56-20.8 16.7-10.6s7.09-4.77 11.4-3.85c2.75 0.592 4.37 3.85 4.37 3.85l27.3 41.5-0.753 28.4-48.8-24.7z" fill="#c700b4"/>
  <path d="m195-13 28 5.11-0.229 7.92s-0.561 4.69-1.12 6.88c-0.809 3.18-3.53 8.7-3.53 8.7-21.8 14.3-64.6 6.86-54-2.26l15.6-13.3z" fill="#550029"/>
  <path d="m-18 59.4 18-9.57s9.23-2.42 13-1.34c11.7 3.34 11.1 16.1 15.7 27.3 4.24 10.6 11.5 22.3 8.07 33.2-0.241 0.776-1.01 1.57-1.82 1.62-4.47 0.315-7.76-4.58-11.2-7.47-8.77-7.36-23.7-24.9-23.7-24.9z" fill="#001c34"/>
  <path d="m471 70.8c3.07-2.65 4.69-1.31 8.72-0.868 12.7 1.38 32.4 19.1 32.4 19.1l12.5 9.69 6.92 22.9-51-4.39s-19.2-2.73-23.3-10.1c-3.32-5.98 0.53-13.9 3-20.3 2.32-5.99 5.89-11.8 10.8-16z" fill="#e31caf"/>
  <path d="m-51.9 233 28.5 6.35 24.1 34-4.08 27.9-25.6-18.4-20.7-34.8z" fill="#e37192"/>
  <path d="m502 337c2.84-3.42 10.3-2.25 10.3-2.25l12 3.27 32.6 24.3-4.04 26.2-33.4-16.2-7.06-14.6s-16.6-13.2-10.3-20.8z" fill="#00aa73"/>
  <path d="m175 384c-5 0.25-15.5 12.2-17.1 21.1-1.78 9.93 7.24 21.4 9.72 28.6 3.26 9.54-15.5 19.1-10.6 32.4 3.71 10.2 14.4 16.9 24 22 10.3 5.47 23 12 34 8.15 7.91-2.73 33.4-22.3 12-31.8-6.31-22.5-12.9-28.7-11.4-50.6 0.471-7.33 0.0808-11.6-1.17-13-14.8-5.26-26.2-17.4-39.4-16.9z" fill="#55d570"/>
  <path d="m449 498c9.23 0.197 26.7 13.6 26.7 13.6l0.43 0.334 34.6 26.9-11.8 16.3-19 15.6-19.3-29.5-10.2-29.3s-6.53-14.1-1.48-13.9z" fill="#e3006f"/>
  <path d="m86.9-50 14.6-13.7 19.3 17.6 5.01 36.9-4.68 9.17s-5.02 8.09-10.7 9.37c-8.29 1.88-17.5-9.37-17.5-9.37l-12.5-9.53z" fill="#1ce39d"/>
  <path d="m361-16.4 23.1 4.88 13.1 13.8-11.2 25.7-19.1 1.93-41.4-12 18.5-17.8z" fill="#aa0016"/>
  <path d="m43.2 125c-2.76-2.49-7.02-2.81-11.3-1.36-3.63 1.23-5.76 8.38-8.16 11.4-8.13 10.1-23.8 28.3-23.8 28.3l-20.6 15.4 20.6 13.1s13.9 11.3 22.2 14.1c4.43 1.52 9.36 2 14 1.31 5.99-0.885 14.3-1.34 16.8-6.85 5.01-11 19.1-17.3 22.2-28 1.09-3.75-0.97-6.53-2.4-9.44-8.58-17.4-17.6-27.2-29.6-38z" fill="#005528"/>
  <path d="m499 126c4.45 0.976 13.2 3.6 13.2 3.6l15 4.11-26 27.6s-13.4 20.7-24.3 21.3c-5 0.258-24.1-11.7-22.9-16.6 3.98-16.1-0.0558-42.6 4.03-46.8 9.64-9.95 27.5 3.86 41 6.83z" fill="#e3388e"/>
  <path d="m360 449c10.4 2.61 14.6 14.3 17.2 24.8 1.64 6.64 2.39 12.4-2.94 16.7-7.03 5.64-22.7-2.72-22.7-2.72s-22.2-9.59-21.7-19.2c0.708-13.5 17-22.8 30.2-19.5z" fill="#aae33b"/>
  <path d="m194 504c9.16-2.47 19.7-6.33 25.6 1.04 1.66 2.05 2.97 7.14 2.97 7.14l-0.196 6.79-13.3 39.9-7.78-2.98-37.4-30.4 15.6-13.3s7.94-6.44 14.4-8.18z" fill="#550029"/>
  <path d="m144-36 38.5 18.1-15 17.9s-6.88 9.08-11.7 11c-7.97 3.15-18 5.49-23.8-2.2-1.69-2.26-1.72-8.78-1.72-8.78l5.04-30.8z" fill="#38e3df"/>
  <path d="m428-7.05-11.1 7.05s-10.8 7.47-15 12.6c-4.63 5.76-9.33 18.8-9.33 18.8-4.1 13.3-3.39 40.6-4.9 53.7-7.79 34.3 10.9 22.9 38.7 20.1 14.1-1.4 23.4-2.83 27-14.6 0 0 14.3-21 15.3-28.1 1.41-9.37-8.8-21.1-8.8-21.1l-27.3-41.5z" fill="#c700b4"/>
  <path d="m-5.02 315 5.02-5.68s4.08-4.77 6.24-7.05c4.8-5.08 6.04-16.7 14.9-14.8 20.2 8.35 32.8 16.2 36.8 36.1 1.93 9.3-7.84 7.67-16.8 9.53-12.7 2.64-39.5-4.05-39.5-4.05l-1.68-3.53z" fill="#008ebf"/>
  <path d="m452 284c5.94-4.27 16.8-13.3 20.7-7.14 6.88 10.8 21 19.2 34 28.4 5.89 4.13-10.1 20.2-15.9 24.4-3.66 2.64-10.3 7.01-13.1 3.47-13-16.4-26-22.8-34.6-37.7-2.39-4.17 4.9-8.62 8.8-11.4z" fill="#e38e16"/>
  <path d="m-54.2 475 39.9 3.59 31.6 25.6 4.85 5.94-17.3 17.4-55.1-29.8z" fill="#e3e3c9"/>
  <path d="m370 386c-1.14 0.111-6.28 7.2-6.43 22.4-0.088 9.23-3.12 22.4 0.582 30.6 7.12 12.9 15.8 24 17.1 29.4 1.75 7.48 2.21 13.2 7.64 20.5 3.36 4.51 14.7 14.2 14.7 14.2 14.2 8.27 33.1-0.666 39.8-15.6l8.5-18.9c4.68-10.4 4.86-34-0.676-42.9-13.8-22.2-26.6-26.9-45.2-38.1-11.2-6.76-29.2-7.76-36-1.71-1.28 1.16 5e-5 0 5e-5 0z" fill="#bdd014"/>
  <path d="m238-35.6 35.3-15.2 27 15.5 0.782 35.2 0.202 9.07-3.41 10-57.4-17.8-11.1-12z" fill="#71e3d0"/>
  <path d="m496 182c2.93 7.28 15.6 18.3 15.6 18.3l14.7 6.21-13 27.9-1.76-0.238s-37.7-2.97-47-13.2c-7.43-8.18-0.91-16 4.68-25.5 5.04-8.59 22.9-22.8 26.6-13.5z" fill="#e355c7"/>
  <path d="m-32.7 343 10.8-5.21 36.2 56 5.66 18.3-60.2 9.24-12.9 1.37 13.5-62.4z" fill="#e3aac9"/>
  <path d="m86.9 462s7.9-11.9 14.6-11.9c8.71-0.061 19.3 15.9 19.3 15.9s9.34 15.7 9.23 24.3c-0.1 7.84-8.9 21.8-8.9 21.8l-7.9 15.5-20.3-15.5s-21.4-15.5-22.5-26.8c-1.02-10.7 16.4-23.3 16.4-23.3z" fill="#1ce39d"/>
  <path d="m365 497c9.07-2.77 22.1-4.53 23.8 3.12 1.37 5.86 6.03 11.4 6.03 11.4l2.15 2.25-11.2 25.7-19.1 1.93-41.4-12 18.5-17.8s13.6-12.3 21.2-14.6z" fill="#aa0016"/>
  <path d="m-54.2-37.1 39.9 3.59 31.6 25.6 4.85 5.94-17.3 17.4-55.1-29.8z" fill="#e3e3c9"/>
  <path d="m271 16.4s23.4 3.93 25 13.2c2.19 12.6-13.8 23.7-25.7 28.3-23.5 8.94-75-7.88-75-7.88s-3.44-13.9 0.592-18.7c16.5-19.5 75.2-14.9 75.2-14.9z" fill="#710098"/>
  <path d="m494 59.4 28.4-15.1 33.8 35.2-7.42 29.5-1.82 1.62-11.2-7.47-23.7-24.9z" fill="#001c34"/>
  <path d="m30.2 217s-12.9 8.47-16.5 14.9c-6.64 11.8-13.4 27.7-7.62 39.9 3.8 8 15.9 7.93 23.4 12.6 12.7 7.72 22 14.8 30 25.6 5.52 7.46 12.5 12.7 20.8 15.7 4.56 1.64 13.2-7.03 26.1-26 6.98-10.3 5.36-26.9 4.51-33.2-2.62-19.4 3.81-18.4-0.772-25.6-9.83-15.4-15.7-13.7-49-24.8-12.7-2.43-14.5-10.8-30.9 0.768z" fill="#137b80"/>
  <path d="m461 241c10.5-9.85 36.6-12.1 41.2 1.52 3.44 10.2 9.62 30.3 9.62 30.3l0.733 1.03-0.733 5s-4.92 13.8-8.04 15.6c-7.61 4.32-20.9-11.1-20.9-11.1l-17.4-15.2s-8.12-23.7-4.43-27.1z" fill="#e37192"/>
  <path d="m-52.4 429 52.4-6.99s14.7-3.58 20.1-0.426c2.28 1.33 1.43 2.65 1.43 5.29-6.56e-4 5.23-3.51 9.88-5.83 14.6-4.53 9.15-15.7 26.3-15.7 26.3l-5.6 5.73-46.2-7.54-1.61-33.9z" fill="#e3c7ec"/>
  <path d="m243 477c8.73-9.38 18-16.8 30.8-16.1 10.4 0.594 15.3 6.75 20.6 15.7 5.99 10.1 7.16 35 7.16 35l0.202 9.07-3.41 10-57.4-17.8-11.1-12s7.22-17.5 13.2-23.9z" fill="#71e3d0"/>
  <path d="m29.9 512 0.149-0.189 2.32-2.94s11.4-17.9 20.7-20c4.01-0.899 5.24 2.67 8.65 4.96 6.99 4.68 19.6 18 19.6 18l22.1 25.3-6 9.46-27.5 2.24z" fill="#1c0024"/>
  <path d="m63.9 60.2q12.4-12.4 25.1-16 12.9-3.63 18.1 4.78 5.29 8.59 4.37 34.3-0.945 26.2-34.3 25.3-34-0.963-29.8-18.4 4.34-17.8 16.5-30z" fill="#1c1c7e"/>
  <path d="m438 110c-6.02 1e-3 -14.1 0.504-24.2 1.51-19.6 1.95-30.4 3.87-32.3 5.76-14.9 6.27-28 12.3-36.2 23.4-13.1 18.9-13.5 30.6-1.17 35.2 18.6 7 29.9 11.5 32.8 9.97 17.9-9.55 30.3-19.5 48.1-20.1 16.4-0.597 25.5-9.4 27.1-26.4 1.38-14.5 1.03-23.4-1.04-26.9-0.99-1.66-5.35-2.48-13.1-2.48z" fill="#b93820"/>
  <path d="m95.9 370q3.25-4.96 37.6-9.22 24.8-3.08 27.6 8.21 1.98 8.17-3.38 20.3-3.87 8.8-29.6 22.4-18.6 9.82-29.1-16.1-7.59-18.8-3.1-25.6z" fill="#38aa10"/>
  <path d="m372 36.8q14.1-2 14.5-1 1.18 3.77-0.599 18.3-6.74 54.9-7.84 56-4.15 4.15-7.46 4.07-12.5-0.323-18.5-3.58-22.8-12.3-22.9-16.8-0.159-17.1 8.05-25.3 31-31 34.8-31.6z" fill="#aa1c3c"/>
  <path d="m449 346c14.3-0.141 27.9 8.89 9.68 40.2-4.99 22.9-12.5 27.4-28 11.8-12.9-13-17.2-25.4-12.8-37.1 3.64-9.79 14-14.8 31.1-14.9z" fill="#c7aa89"/>
  <g>
   <path d="m241 398q33.9-10.6 38.7-0.763 8.49 17.4 4.66 30.9-6.77 23.9-21.1 28.6-25.3 8.34-32-0.164-11.9-15-11-28.6 1.54-24 20.7-30z" fill="#71c78c"/>
   <path d="m189 75.5c0.062-0.275-2.92-3.92 8.1-14.9 2.11-2.11 16 2.45 20 3.19 7.03 1.25 30.9 9.67 33.1 15.8 2.34 8.25-1.59 12.9-4.83 38.6-0.702 5.56-5.45 11.4-14.2 17.5-1.9 1.33-10.5-0.345-25.9-5.02-3.32-1.01-8.21-15.7-14.7-44-1.4-6.14-1.95-9.84-1.67-11.1z" fill="#551c30"/>
   <path d="m398 287c5.02-2.57 7.73-3.21 21.3 2.89 11.8 5.3 24.3 14.8 37.6 28.4 11.5 11.8 16.4 18.6 14.7 20.3-1.51 1.51-10.6 2.34-27.4 2.51-14.6 0.144-28.2-4.26-40.9-13.2-11-7.73-14.7-17.7-11.1-30 4.19-11.8 0.78-8.33 5.8-10.9z" fill="#c78e30"/>
   <path d="m322 105c1.55-0.375 5.19 0.985 10.9 4.08 13.5 7.27 17 15.6 10.5 24.9-6.65 19.3-53.7 20.5-47.1-2.2 16.4-17.7 24.9-26.7 25.6-26.9z" fill="#8e38c0"/>
   <path d="m447 237q5.23-1.35 14.4 24.4 1.68 4.72-20.3 26.7-4.04 4.04-36.2-10.4-5.9-2.65 10.7-28.6 3.04-4.76 31.5-12.1z" fill="#c77130"/>
   <path d="m104 172q21.5-0.627 20 22.7-1.6 23.6-5.6 29.1-4.05 5.62-37-5.36-33.3-11.1-16.1-28.4 17.5-17.5 38.7-18.1z" fill="#1c5520"/>
   <path d="m357 393c0.474 0.854 3.7 27.7-0.539 38.5s-16.7 14.8-19.1 17.3c-6.06 6.06-13.3 24.3-25.1 25.3-8.58 0.685-8.35-4.87-20.9-15.2-4.02-3.31-2.96-47.4 2.39-66.3 22.9-23.8 46.8-16.9 63.2 0.397z" fill="#8ec728"/>
   <path d="m315 104c-5.87 13.9-20 26.9-33.3 30.7-13.3 3.81-19.3 7.97-25.6-2.86-5.28-8.97-9.14-31.1 1-39.5 21.4-6.53 55.7 3.58 57.9 11.7z" fill="#711c30"/>
  </g>
  <path d="m43.3 115q0.952-0.952 32.4-0.062 35.9 1.02 40.9 6.77 5.76 6.56 9.83 20.1 4.64 15.4 1.72 19.2-3.34 4.34-23.3 4.92-22.8 0.664-41.3-23-21.1-27-20.2-27.9z" fill="#1c3877"/>
  <path d="m137 413c11.5-6.09 10.3-2.15 17.4 13.2 4.57 9.85 4.29 17.5-3.04 31.3-4.94 9.29-9.84 13.2-13.3 14-2.24 0.53-9.36-4.98-21.4-16.5-7.68-7.39-10.5-14.5-8.58-21.3 1.26-4.35 10.9-11.3 28.9-20.8z" fill="#38c798"/>
  <path d="m304 45.5q18.2 31 18.2 35.8 0.157 16.9-0.567 17.1-2.59 0.627-16-3.87-47.8-16.1-47.9-16.2-0.119-0.274 8.88-9.27 32.2-32.2 37.3-23.5z" fill="#8e1c3e"/>
  <g>
   <path d="m188 104q6.67 29.3-11.8 39.5-24.2 13.3-30.3 13.2-7.87-0.092-11.6-12.6-4.94-16.4 18.3-36.4 30.4-26.1 35.5-3.75z" fill="#3838a0"/>
   <path d="m391 191q-0.531-2.14 2.79-9.87 3.35-7.81 30-8.78 27-0.979 34 7.07 7.11 8.14 2.63 26.8-4.53 18.9-6.51 20.9-2 2-18.8 6.32-17 4.38-30.2-17.8-13.4-22.5-13.9-24.6z" fill="#c755cf"/>
   <path d="m361 336q21.6-16.4 29.6-10.8 27.6 19.4 24.9 26.6-9.32 25-18.2 25.9-30.7 2.98-33.3-5.98-9.16-31-2.92-35.8z" fill="#aaaad0"/>
  </g>
 </g>
</svg>
