<?xml version="1.0" encoding="UTF-8" standalone="no"?>
<svg
   width="512px"
   height="512px"
   contentScriptType="text/ecmascript"
   contentStyleType="text/css"
   version="1.1"
   viewBox="0 0 512 512"
   id="svg126"
   sodipodi:docname="0FC.svg"
   inkscape:version="1.1.2 (0a00cf5339, 2022-02-04)"
   xmlns:inkscape="http://www.inkscape.org/namespaces/inkscape"
   xmlns:sodipodi="http://sodipodi.sourceforge.net/DTD/sodipodi-0.dtd"
   xmlns="http://www.w3.org/2000/svg"
   xmlns:svg="http://www.w3.org/2000/svg">
  <defs
     id="defs130" />
  <sodipodi:namedview
     id="namedview128"
     pagecolor="#ffffff"
     bordercolor="#000000"
     borderopacity="0.25"
     inkscape:pageshadow="2"
     inkscape:pageopacity="0.0"
     inkscape:pagecheckerboard="0"
     showgrid="false"
     inkscape:zoom="7.9439027"
     inkscape:cx="421.32943"
     inkscape:cy="195.68467"
     inkscape:window-width="2490"
     inkscape:window-height="1376"
     inkscape:window-x="0"
     inkscape:window-y="0"
     inkscape:window-maximized="1"
     inkscape:current-layer="svg126" />
  <g
     class="voronoi"
     stroke-width=".5"
     id="g124">
    <path
       d="m458-37.1 39.9 3.59 31.6 25.6 4.85 5.94-17.3 17.4-55.1-29.8z"
       fill="#e3e3c9"
       id="path2" />
    <path
       d="m361-16.4-17 16.4c-10.4 12.7-28.5 18.6-33.5 33.5-3.61 10.8 0.45 23.2 4.72 33.8 2.74 6.76 12.9 13.7 12.9 17.7 0.0306 3.28 2.08 17.5 5.32 22.8 0.859 1.41 4.9 2.76 12.1 4.05 1.91 0.342 11.3-4.84 28.2-15.6 4.47-2.83 12.3-17.6 15.8-45.4-1.31-18.3 1.29-30.5 7.6-48.7l-13.1-13.8z"
       fill="#aa0016"
       id="path4" />
    <path
       d="m-13.2 126 13.2 3.6s6.15-0.0106 7.56 4.99c1.98 7.04-7.56 15.1-7.56 15.1l-10.9 11.6-25.6 20.8-12.6-8.24-3.62-33.7z"
       fill="#e3388e"
       id="path6" />
    <path
       d="m526 232 19.8-17.1 10.5 24.5 2.16 38.9-19.9 10.4-20.3-16.8z"
       fill="#007170"
       id="path8" />
    <path
       d="m33.6 426c-8.89-0.66-6.74 15.5-3.81 23.9 4.31 12.4 12.6 23.5 21.7 32.9 11.8 12.1 41.4 29.3 41.4 29.3l20.3 15.5 7.9-15.5s7.25-17.7 7.83-21.1c2.26-24.3-15.3-31.9-31.9-43.9 0 0-39.8-19.4-63.4-21.1z"
       fill="#1ce39d"
       id="path10" />
    <path
       d="m467 431c-1.35-3.57 45.4-8.51 45.4-8.51l18.6-2.48 2.17 0.445 0.978 25.5-21.8 22.3s-5.32 4.89-8.41 4.31c-18.2-3.41-31.1-25.9-37-41.5z"
       fill="#e3c7ec"
       id="path12" />
    <path
       d="m358 447c-9.31-2.55-19.4 13.7-19.4 13.7s-23.7 20.3-25.3 23c-4.77 8.02-4.94 28.3-4.94 28.3l-0.707 16.7 14.4-1.89 30.4-34.4c3.86-3.52 24.2-15.6 24.8-18.6 1.47-10.9-8.72-24-19.1-26.8z"
       fill="#8ee3e0"
       id="path14" />
    <path
       d="m18.6 10.9c-7.48-2.75-9.4 14.5-8.31 22.4 0.746 5.41 6.72 8.63 9.64 13.2 10.2 16.1 27.3 50 27.3 50 1.12 7.72 9.58 11.8 25.4 12.2 19.1 0.539 30.3-0.297 33.5-2.51 3.22-2.17 5.1-10.8 5.65-26 0.536-14.9-0.96-25.1-4.49-30.9-2.82-4.58-9.1-3.76-13.6-5.7-25.1-10.7-48.1-22.9-75.1-32.8z"
       fill="#0e0e8d"
       id="path16" />
    <path
       d="m445-14.3 30.2 14 0.43 0.334s26.6 12.6 30.7 26.6c2.53 8.46 1.65 19.2-4.7 25.4-5.58 5.39-15 9.4-22.3 6.74-11-4.01-19.3-29.5-19.3-29.5l-10.2-29.3z"
       fill="#e3006f"
       id="path18" />
    <path
       d="m-32 187 32 13.5s7.78 5.84 9.7 10.8c3.7 9.57-7.94 23.3-7.94 23.3l-42.8-5.79-1.28-33.1z"
       fill="#e355c7"
       id="path20" />
    <path
       d="m507 315 11.3-12.7 25.7-8.73 24.8 23-13 25.3-42-12.8-1.68-3.53z"
       fill="#008ebf"
       id="path22" />
    <path
       d="m27.8 467c9.15 5.35 17.2 17.1 13.1 25.8-3.19 6.68-14.3 8.82-21.8 6.27-0.878-0.3-1.7-0.666-2.46-1.1-8.83-5.03-15.2-20.3-9.74-28.9 3.8-5.89 13.1-6.67 20.9-2.1z"
       fill="#00e358"
       id="path24" />
    <path
       d="m417 433s-30.6 19-35.1 34.9c-2.52 8.91 1.86 19 6.53 27 8.25 8.33 24.8 4.53 39.4 2.71 20.6-1.7 60.3 14.2 60.3 14.2l28.7 15.5 17.3-17.4-4.85-5.94-17.3-14s-9.68-7.53-14.3-11.6c-15.9-13.9-26.4-34.6-46-43.5-0.248-0.112-0.495-0.22-0.74-0.323-10.4-4.39-33.9-1.52-33.9-1.52z"
       fill="#e3e3c9"
       id="path26" />
    <path
       d="m318-32.9 34.7 13.3-30.4 34.4s-8.57 7.59-12.1 4.34c-4.12-3.77-1.51-19.2-1.51-19.2l1.18-28z"
       fill="#8ee3e0"
       id="path28" />
    <path
       d="m113 13.1c7.56-3.25 33.4 4.64 33.4 4.64s34.6 9.64 42 23.9c3.53 6.78 3.81 18-2.14 22.8-13.5 10.9-35.3-0.118-51.6-6.19-9.26-3.47-25.1-7.14-24.5-16.7 0.495-8.1-1.77-26.1 2.77-28.6z"
       fill="#3800b4"
       id="path30" />
    <path
       d="m-41.1 70.8 11-5.22 42.6 33.1s7.05 8.79 2.02 15c-4.09 5.03-14.5 6.24-14.5 6.24l-31.6-2.72-23.3-10.1 3-20.3z"
       fill="#e31caf"
       id="path32" />
    <path
       d="m 533,148 16.4,59.2 -1.36,0.59 -14,-1.31 c 0,0 -35.05579,-7.69912 -35.69648,-24.59088 C 498.01858,173.32193 511.84,163.88 511.84,163.88 Z"
       fill="#005528"
       id="path34"
       sodipodi:nodetypes="ccccscc" />
    <path
       d="m-12.9 332 24.8 6.79s27.4 11.8 32.6 24.3c3.35 8.19 3.79 22.1-4.04 26.2-11 5.75-22.5-7.48-31.2-16.2-3.81-3.82-9.22-14.6-9.22-14.6z"
       fill="#00aa73"
       id="path36" />
    <path
       d="m484 342c-3.84-1.08-30.3 2.7-40.9 2.81-17.4 0.172-23.7 5.89-28.6 14.2-5.86 9.9-1.57 22.1 12.9 36.7 10 10.1 19.2 19.2 25.3 27.2 3.96 5.2 14.2-0.603 18.8-1.09l60.2-9.24-5.66-18.3-14.3-22.1s-14.7-26.4-27.7-30.1z"
       fill="#e3aac9"
       id="path38" />
    <path
       d="m166 461c9.38 0.35 17.4 0.997 22.4 17.1 3.69 11.9-21.3 33.9-21.3 33.9l-9.94 11.9-28.6-3.55 6.41-39.1s18.7-20.7 31-20.2z"
       fill="#38e3df"
       id="path40" />
    <path
       d="m393 543 7.56-20.8 16.7-10.6s7.14-3.45 11.4-2.53c2.75 0.592 4.31 2.53 4.31 2.53l27.3 41.5-0.753 28.4-48.8-24.7z"
       fill="#c700b4"
       id="path42" />
    <path
       d="m195-13 28 5.11-0.229 7.92s2.23 7.31 6.25 9.45c11.2 5.93-20.1 4.34-15.6 35.2 0.234 1.63-2.77 1.57-4.08 2.06-2.6 0.975-7.78-2.98-7.78-2.98s-29-17.3-34.9-27.7c-3.39-5.94 13.1-16 13.1-16z"
       fill="#550029"
       id="path44" />
    <path
       d="m-18 59.4 18-9.57s8.93-4.19 12.6-2.08c19.1 10.8 18.9 29.7 24.1 61.2l-1.82 1.62-11.2-7.47-23.7-24.9z"
       fill="#001c34"
       id="path46" />
    <path
       d="m460 62.6c4.79-4.19 12.6-1.02 19 1.75 0.985 0.427 1.94 0.845 2.84 1.22 11.7 4.94 30.2 23.4 30.2 23.4l12.5 9.69 6.92 22.9-19.4-1.67s-21.4-0.126-31.6-2.72c-8.2-2.08-19.2-2.73-23.3-10.1-3.32-5.98 2.51-13.5 3-20.3 0.577-8.04-6.15-18.9-0.0854-24.2z"
       fill="#e31caf"
       id="path48" />
    <path
       d="m-51.9 233 28.5 6.35 24.1 34-4.08 27.9-25.6-18.4-20.7-34.8z"
       fill="#e37192"
       id="path50" />
    <path
       d="m501 338c-1.53-4.17 11.3-3.04 11.3-3.04l12 3.27 32.6 24.3-4.04 26.2-33.4-16.2-7.06-14.6s-6.51-7.04-11.3-20z"
       fill="#00aa73"
       id="path52" />
    <path
       d="m253 387c-26.6 6.25-23 9.49-51.8 1.61-4.62-1.26-13.1 3.12-26.9 16.6-5.63 5.5-0.0317 12.9-0.541 25.7 3.71 33 15.1 43.4 41.5 63.9l24 17.2 1.23 1.32 57.4 17.8 3.41-10-0.201-9.07s0.588-23.6-1.41-35.2c-0.19-17.2-12.9-36.3-14-55.3-0.551-9.77-1.91-21.1-15.4-29.3-5.71-3.49-11.5-5.18-17.4-5.06z"
       fill="#71e3d0"
       id="path54" />
    <path
       d="m452 507c16.7-1.11 23.4 4.34 23.4 4.34l0.43 0.334 34.6 26.9-11.8 16.3-19 15.6-19.3-29.5-10.2-29.3s-1.11-4.48 1.83-4.67z"
       fill="#e3006f"
       id="path56" />
    <path
       d="m86.9-50 14.6-13.7 19.3 17.6 5.01 36.9-4.68 9.17s-6.44 6.19-12.1 7.47c-8.29 1.88-16.1-7.47-16.1-7.47l-12.5-9.53z"
       fill="#1ce39d"
       id="path58" />
    <path
       d="m36.8 118c-5.52 3.9-10.9 8.81-14.8 14.1-5.43 7.62-6.61 17.9-12.6 25.1-2.5 2.98-9.36 7-9.36 7l-20.6 15.4 20.6 13.1s14.4 7.42 22.1 9.95c13.6 4.48 28 7.27 41.9 9.07 3.14 2.22 7.47 4.25 13 6.1 19.8 6.61 32.2 7.46 37.1 2.55 4.81-4.85 2.35-14-7.36-27.6-25.6-23.8-55.4-85.2-69.9-74.8z"
       fill="#005528"
       id="path60" />
    <path
       d="m499 126c-11.2-1.96-6.98-4.07-34.1-2.7-5.98 0.303-24 41.8-64 51.2-0.767 0.381-3.26 8.89-7.48 25.5-7.38 16.2 18 40.4 34.4 36 15.9-4.1 24.5-6.81 25.8-8.14 1.32-1.32 3.48-8.27 6.51-20.9 9.32-15.3 28.1-31.9 41.1-45.8l26-27.6-15-4.11s-8.7-2.82-13.2-3.6z"
       fill="#e355c7"
       id="path62" />
    <path
       d="m194 488c0.0324-11.3 21.1 8.55 27.5 17.3 1.46 1.98 1.88 7.14 1.88 7.14l-0.196 6.79-13.3 39.9-7.78-2.98-37.4-30.4 15.6-13.3s13.6-16.8 13.6-24.4z"
       fill="#550029"
       id="path64" />
    <path
       d="m144-36 38.5 18.1-15 17.9s-6.84 8.88-11.7 10.8c-8.93 3.52-26.9-2.43-26.9-2.43l6.41-39.1z"
       fill="#38e3df"
       id="path66" />
    <path
       d="m428-7.05-27.8 17.7s-6.34 13.6-7.56 20.8c-1.48 8.84 2.78 21.8 0.428 26.9-1.87 4-3.22 9.39-4.06 16.2-1.51 12.3 4.13 21.4 16.9 27.2 6.86 3.12 17.4 3.99 31.5 2.58 7.58-0.754 12.8-6.48 15.6-17.2 0.384-1.44-0.136-3.23-1.55-5.37 0 0 7.3-25.7 4.75-39.2-3.08-16.3-23.6-42.6-23.6-42.6z"
       fill="#c700b4"
       id="path68" />
    <path
       d="m72.2 276c-22.4 7.58-40 5.82-59.8 22.7l-12.4 10.6-5.03 5.68 5.03 10.6s4.87 4.89 5.97 5.59c16.5 10.4 30.2 10.9 41.1 22 5.53 5.68 5.03 11.2 10.7 21.3 0.849 1.5 15.9 0.745 45-2.27 2.8-0.29 5.64-3.8 8.52-10.5 0.245-0.573 1.47-22.3 2.06-35.6 0.167-3.76 1.04-8.94 2.59-14.1 2.69-8.92-0.304-18.8-8.98-29.6-8.74-6.72-25.5-9.15-34.8-6.21z"
       fill="#008ebf"
       id="path70" />
    <path
       d="m467 291s35.1-6.23 42 6.15c4.6 8.34-11.6 26.1-11.6 26.1l-6.77 6.49-13.1 3.47s-0.795-0.188-1.87-1.01c-19-14.5-40.7-23.5-36-37.7 2.57-7.74 27.4-3.55 27.4-3.55z"
       fill="#e38e51"
       id="path72" />
    <path
       d="m-54.2 475 39.9 3.59 31.6 25.6 4.85 5.94-17.3 17.4-55.1-29.8z"
       fill="#e3e3c9"
       id="path74" />
    <path
       d="m274-50.8-35.3 15.2-8.62 24.9 9.91 10.7s-1.96 19.3-15.4 21c-12.6 1.63-2.26 30.2 6.04 37.5 5.17 4.58 17.2 14.3 27.1 19.3 15.8 8.09 16.8 5.74 50.5 17.1 9.39 3.16 14-1.4 13.9-13.7-0.032-3.43-17-12.2-18.2-36.2-0.757-15-1.72-30-2.05-45.1l-0.783-35.2z"
       fill="#71e3d0"
       id="path76" />
    <path
       d="m29.9 0.189 0.149-0.189 2.32-2.94 20.7-20 11.7 3.96 16.6 19s11.5 15 22.1 25.3c2.68 2.6-5.53 7.65-9.26 7.38-31.6-2.26-31-6.01-45.8-15-7.26-4.41-18.5-17.5-18.5-17.5z"
       fill="#1c0024"
       id="path78" />
    <path
       d="m487 191c12.4 2.26 24.5 9.49 24.5 9.49l14.7 6.21-13 27.9-42.8-5.79s-5.94-11.2-5.27-17.2c0.0427-0.376 0.105-0.762 0.184-1.16 1.91-9.46 12.6-21.1 21.5-19.5z"
       fill="#e355c7"
       id="path80" />
    <path
       d="m-32.7 343 10.8-5.21 21.9 33.9s9.79 14.6 14.3 22.1c2.52 4.2 10.5 7.44 7.12 12.8-3.57 5.71-21.4 8.5-21.4 8.5l-40.3 6.18-12.9 1.37 13.5-62.4z"
       fill="#e3aac9"
       id="path82" />
    <path
       d="m375 485c6.62 0.471 5.43 10.6 9 15.3 3.19 4.24 11 11.5 11 11.5l2.15 2.25-11.2 25.7-19.1 1.93-41.4-12 18.5-17.8s18.1-27.8 31.1-26.9z"
       fill="#aa0016"
       id="path84" />
    <path
       d="m-54.2-37.1 39.9 3.59 31.6 25.6 4.85 5.94-17.3 17.4-55.1-29.8z"
       fill="#e3e3c9"
       id="path86" />
    <path
       d="m503 63.1c1.09-6.72 9.49-13.2 9.49-13.2l10.4-5.52 33.8 35.2-7.42 29.5-1.82 1.62-11.2-7.47-23.7-24.9s-10.9-6.64-9.49-15.2z"
       fill="#001c34"
       id="path88" />
    <path
       d="m13.6 232-7.62 39.9c5.14 6.75 6.32 9.16 14.9 11 7.44 0.784 17-2.11 25.2-4.62 6.73-2.07 12.3-7.76 19.3-8.54 6.59-0.737 9.31-0.872 22-2.08 7.04-0.67 12.1-10 15.2-28.1 1.03-5.92-13.5-13.9-43.5-23.9-26.1-8.83-41.3-5.88-45.5 16.3z"
       fill="#0e715b"
       id="path90" />
    <path
       d="m460 233 28.5 6.35 24.1 34-0.733 5s-4.03 7.09-11.1 10.1c-9.68 4.11-17.9-5.63-17.9-5.63l-20.7-34.8z"
       fill="#e37192"
       id="path92" />
    <path
       d="m-52.4 429 52.4-6.99s14.6-3.72 20.2-0.0101c1.43 0.946 1.43 2.12 2.02 4.74 1.05 4.67 2.75 6.43-0.303 14.4-3.73 9.68-21.9 26.6-21.9 26.6l-5.6 5.73-46.2-7.54-1.61-33.9z"
       fill="#e3c7ec"
       id="path94" />
    <path
       d="m29.9 512 0.149-0.189 2.32-2.94s11.2-19.3 20.7-20c4.02-0.325 5.14 3.15 9.93 6.89s18.3 16.1 18.3 16.1l22.1 25.3-6 9.46-27.5 2.24z"
       fill="#1c0024"
       id="path96" />
    <path
       d="m153 68.1q29.5 7.39 25.5 25.1-3.5 15.6-12.2 22.3-7.68 5.9-29.4-2.93-19.1-7.77-18.2-31.7 0.761-21.1 34.3-12.7z"
       fill="#381c86"
       id="path98" />
    <path
       d="m374 104c-15.3 9.72-18.1 13.3-18.3 23.1-0.205 11.2 10.4 21.1 19.9 27.1 10.4 6.52 24.7 10.8 36.3 6.67 19.8-7.06 37.4-12.3 41-48.1 0.341-3.41-8.5-3.83-20.2-2.67-1.87 0.186-19.1-0.321-20.9-0.716-10.9-2.3-28.9-10.5-37.7-5.33z"
       fill="#b93893"
       id="path100" />
    <path
       d="m206 57.9c2.39-2.39 4.18-3.83 5.39-4.32 0.261-0.107 11 6.76 32.2 20.6 4.6 2.99 5.85 2.2 7.02 4.78 1.68 3.7-0.479 4.08-1.49 12.1-0.219 1.73-14.5 6.27-40.2 15.1-34.8 11.9-26.8 1.82-20.8-25.7 0.887-3.95 6.85-11.4 17.9-22.4z"
       fill="#551cc9"
       id="path102" />
    <path
       d="m408 313c-1.29-5.44-2.09-8.84 2.39-16.8 3.89-6.94 12.3-1.54 24.1 3.78 0.639 14.6 43.2 29 36.6 37.5-1.51 1.51-10.8 2.34-27.9 2.51-14.8 0.147-14.9-1.63-25.8-13.4-8.99-8.21-8.2-8.17-9.49-13.6z"
       fill="#c78ee6"
       id="path104" />
    <path
       d="m67.4 381c25.5-2.64 38.5-2.44 39.2 0.601 2.61 11.9 3.12 20.7 1.52 26.2-6.3 21.8-9.58 32.7-9.85 32.8-1.04 0.31-6.13-1.17-15.3-4.44-35.9-12.8-34.4-8.82-53.9-19.4-5.45-2.96-7.49-16.3-1.7-18.5 13.8-5.31 30-15.9 40-17.3z"
       fill="#1cc73b"
       id="path106" />
    <path
       d="m445 238c19.2 10.6 27.1 43.9 24.6 48.8-2.53 4.88-41.8 1.59-60.5-6.82-3.43-1.54-4.99-10.5-4.66-27 0.0593-3.02 13.6-8.01 40.6-15z"
       fill="#c7714c"
       id="path108" />
    <path
       d="m363 420q0.224-2.63 42.6 7.51 7.48 1.79-22.3 31.6-5.27 5.27-19.1-19.8-2.44-4.43-1.17-19.3z"
       fill="#aac7cf"
       id="path110" />
    <path
       d="m115 370q3.07-7.18 24.7-8.01 39.9-1.53 43.8 5.82 7.19 13.5-3.11 23.6-19 18.5-34.2 13.8-28-8.81-29.7-16.7-3.19-14.5-1.52-18.4z"
       fill="#38aa5d"
       id="path112" />
    <path
       d="m353 387q50.3-9.5 52.3-7.43 45.5 45.9 45.5 45.9 0.048 0.39 1e-3 0.487-1.04 2.15-2.5 2.09-32.6-1.29-34.7-1.8-47.7-11.4-48.3-12.6-14.6-26.2-12.3-26.6z"
       fill="#c7c716"
       id="path114" />
    <path
       d="m329 392c6.58-2.95 10.7-3.88 12.2-2.8 0.501 0.348 4.59 7.44 12.3 21.3 2.46 4.44 3.32 11.1 2.57 19.9-0.241 2.84-9.8 13.7-28.7 32.6-6.06 6.06-9.59 11.5-15.6 10-10.8-2.69-12.6-13.3-16.3-29.1-2.91-12.4-0.123-6.9-0.529-26.7 2.16-7.62 13.5-16 34-25.2z"
       fill="#8ec7ba"
       id="path116" />
    <path
       d="m69.4 115c20.5 0.581 30.8 6.93 30.8 19.1-0.0333 13.8-1.49 22.6-4.38 26.2-3.29 4.13-2.98 0.618-6.31 0.715-3.8 0.111-6.51-6.5-18.8-22.3-24-30.8-24.6-28.3-1.25-23.7z"
       fill="#1c3877"
       id="path118" />
    <path
       d="m144 411q16.9 5.31 24 20.7 4.56 9.83-12.9 27.3-11.2 11.2-16.4 12.4-3.36 0.795-21.4-16.5-11.5-11.1-4.3-36.1 4.63-16 31-7.72z"
       fill="#38c798"
       id="path120" />
    <path
       d="m106 115c6.21-4.19 9.94-6.03 11.2-5.52 25.9 10.5 38.5 11.1 38.8 17.1 0.845 18.9-31.9 38-50.5 25.8-7.36-4.79 0.237-37.3 0.534-37.5z"
       fill="#383817"
       id="path122" />
  </g>
</svg>
