<?xml version="1.0" encoding="UTF-8"?>
<svg width="512px" height="512px" contentScriptType="text/ecmascript" contentStyleType="text/css" version="1.1" viewBox="0 0 512 512" xmlns="http://www.w3.org/2000/svg">
 <g class="voronoi" stroke-width=".5">
  <path d="m458-37.1 39.9 3.59 31.6 25.6 4.85 5.94-17.3 17.4-55.1-29.8z" fill="#e3e3c9"/>
  <path d="m318-32.9-8.15 4.88-1.18 28s0.245 7.66-0.48 11.4c-0.448 7.64-17.9 21.4-14.9 33.1 2.77 10.9 20.8 27.7 26.9 20.5 5.37-6.26 6.29-33.6 9.39-50.7 0.923-5.07 5.83-14.3 5.83-14.3l17.3-19.5z" fill="#8ee3e0"/>
  <path d="m-13.2 126 13.2 3.6s4.24-0.256 5.65 4.75c1.98 7.04-5.65 15.3-5.65 15.3l-10.9 11.6-25.6 20.8-12.6-8.24-3.62-33.7z" fill="#e3388e"/>
  <path d="m70.3 382c-14.1-0.298-27.9 15.9-34.4 22.4-3.64 3.63-8.06 7.39-7.07 11.3 6.87 27.2-23.8 25.9-18.7 50.3l6.61 32.1c3.01 14.7 31.9-8.32 44.6-18.3 16.8-13.2 35.2-26.7 39.4-46.6 3.05-14.6-3.85-15.7-12.7-42.8-1.84-5.62-7.71-8.32-17.6-8.53z" fill="#09d02e"/>
  <path d="m531 420-71 9.47s-31.7 1.36-42.5 4.15c-10.1 2.61-23.8 49.7 6.66 57.6 0 0 8.51 3.29 13 3.37 8.53 0.144 25-5.58 25-5.58l44.7-15 27.4-28-0.979-25.5z" fill="#e3c7ec"/>
  <path d="m318 479c9.53-0.671 15.5 5.28 26.4 11.2 9.87 5.32-9 21.7-9 21.7l-13.1 14.8-14.4 1.9 0.707-16.7s-1.33-21.3 3.44-29.3c1.62-2.72 2.73-3.33 5.89-3.55z" fill="#8ee3e0"/>
  <path d="m445-14.3 30.2 14 0.43 0.334s32.5 12.4 34.6 26.9c0.0231 0.163 0.038 0.328 0.045 0.495 0.276 6.61-7.89 19.8-7.89 19.8s-14.9 12.8-23 11.6c-11.6-1.79-19.3-29.5-19.3-29.5l-10.2-29.3z" fill="#e3006f"/>
  <path d="m-32 187 32 13.5s8.74 4.98 10.7 9.96c3.7 9.57-8.9 24.2-8.9 24.2l-42.8-5.79-1.28-33.1z" fill="#e355c7"/>
  <path d="m509 316c0.353-2.5 2.81-7.02 2.81-7.02l6.24-7.05 25.7-8.73 24.8 23-13 25.3-42-12.8-1.68-3.53s-3.35-5.36-2.81-9.22z" fill="#008ebf"/>
  <path d="m499 484 12.6 6.39 17.3 14 4.85 5.94-17.3 17.4-28.7-15.5s-17.9-5.68-17.4-12.9c0.766-10.8 16-21.8 28.5-15.4z" fill="#e3e3c9"/>
  <path d="m122 16.8s-9.53 7.7-11.6 13.2c-1.36 3.64 0.0527 11.7 0.0527 11.7 1.9 14 7.33 28.9 6.79 42.6-0.664 18.4 0.615 29.4 3.84 33.1 3.66 4.17 12.6 5.27 26.7 3.3 16.1-2.25 26.9-9.61 28.4-22.8 2.23-19.2 20.4-32.9 14.6-48.7-6.45-14.8-21.7-23.7-36.1-29.6-10.1-4.11-32.7-2.8-32.7-2.8z" fill="#380eb7"/>
  <path d="m-41.1 70.8 11-5.22 42.6 33.1s15.5 13.7 10.5 19.9c-4.09 5.03-23 1.37-23 1.37l-31.6-2.72-23.3-10.1 3-20.3z" fill="#e31caf"/>
  <path d="m533 148 16.4 59.2-1.36 0.59-14-1.31-22.2-14.1s-9.45-5.09-9.76-13.2c-0.326-8.58 9.76-15.3 9.76-15.3z" fill="#005528"/>
  <path d="m54.9 327c-8.76 4.67-25.7 12.4-39.9 11.7-5.13-0.248-15-3.64-15-3.64l-12.9-3.52 19.9 41.1s12.5 21.6 23.2 22.2c11.2 0.559 17.1-17.4 26.5-20.7s9.55 1.39 26.1-0.318c1.59-0.165 25.7-18.4 24.4-28.6-0.817-6.77-38.1-25.8-52.3-18.1z" fill="#00aa73"/>
  <path d="m488 344c13 3.63 23.7 28.1 23.7 28.1l14.3 22.1 5.66 18.3-20 3.06s-28.8 6.06-42 2.98c-4.87-1.13-10.1-6.81-8.88-11.7 4.76-19.7 3.7-32.2 11.3-46.1 3.7-6.76 2.4-20.3 15.9-16.7z" fill="#e3aac9"/>
  <path d="m162 473c7.64 0.0436 16.7-6.49 18.5 15.6 0.659 8.06-13.3 23.3-13.3 23.3l-9.94 11.9-28.6-3.55 1.37-8.35s1.18-23.4 8.64-31.3c5.66-5.94 20-7.72 23.4-7.7z" fill="#38e3df"/>
  <path d="m393 543 7.56-20.8 16.7-10.6s-7.34-18.8 0.0867-21.1c2.69-0.825 15.7 21.1 15.7 21.1l27.3 41.5-0.753 28.4-48.8-24.7z" fill="#c700b4"/>
  <path d="m195-13 28 5.11-0.229 7.92s0.209 4.56-0.196 6.79c-1.82 9.99-5.53 19.6-9.9 28.8-2.37 4.97-5.35 17.1-8.75 14-9.62-8.75-34.9-21.6-34.8-32.5 0.0572-6.84 10.6-17.1 10.6-17.1z" fill="#550029"/>
  <path d="m-18 59.4 18-9.57s8.95-4.29 12.8-3.67c16.1 2.58 29.6 19.5 33.8 35.2 1.78 11.2-7.94 33.1-16.7 27.3-3.73-2.49-3.06-2.26-6.16-5.5l-23.7-24.9z" fill="#001c34"/>
  <path d="m466 76.9c3.24-3.45 7.85-8.24 11.9-7.8 12.7 1.38 34.4 19.9 34.4 19.9l12.5 9.69 6.92 22.9-19.4-1.67s-21.9-2.31-32.2-4.91c-8.2-2.08-18.4-5.9-22.6-12.8-3.54-5.85 1.05-10.6 2.85-15.5 1.3-3.56 3.04-7.11 5.63-9.87z" fill="#e31caf"/>
  <path d="m-51.9 233 28.5 6.35 24.1 34-4.08 27.9-25.6-18.4-20.7-34.8z" fill="#e37192"/>
  <path d="m499 336c2.84-3.42 12.8-1.15 12.8-1.15l12 3.27 32.6 24.3-4.04 26.2-33.4-16.2-7.06-14.6s-19-14.3-12.8-21.9z" fill="#00aa73"/>
  <path d="m195 468c-5.8 1.82-10.4 9.46-9.19 17.4 2.22 14.3-5.44 26.1-5.44 26.1l-16.5 14.1 37.4 30.4 7.78 2.98 13.3-39.9 0.197-6.79 0.229-7.92s5.51-14.7 3.46-21.7c-1.97-6.79 0.675-17.6-6.35-16.8-13.8 1.61-11.8-1.93-24.8 2.15z" fill="#550029"/>
  <path d="m451 498c8.23-7.46 24.7 14.2 24.7 14.2l0.43 0.334 34.6 26.9-11.8 16.3-19 15.6-19.3-29.5-10.2-29.3s-3.22-11.1 0.522-14.5z" fill="#e3006f"/>
  <path d="m86.9-50 14.6-13.7 19.3 17.6 5.01 36.9-4.68 9.17s-4.5 6.49-10.1 7.77c-8.29 1.88-18-7.77-18-7.77l-12.5-9.53z" fill="#1ce39d"/>
  <path d="m361-16.4 23.1 4.88 11 11.5s1.82 1.69 2 2.71c0.233 9.57-7.93 23.5-17.1 25 0 0-8.86 3.49-13 2.12-5.88-1.93-27.7 3.46-32.9-6.42-3.98-7.51 10-23.5 10-23.5z" fill="#aa0016"/>
  <path d="m36.8 118c-7.84-5.68-11.1 18.6-17.1 26.4-8.21 10-19.6 19.8-19.6 19.8l-20.6 15.4 20.6 13.1s14.6 11.8 23.2 13.2c4.83 0.789 13.4 0.102 17.2-1.35 7.62-3.18 11.5-15.6 11.5-15.6 10.9-13.3 31.4-11.7 20.9-25.1 0 0-22-35.7-36-45.8z" fill="#005528"/>
  <path d="m440 110c-3.25 0.0183-7.11 0.249-11.6 0.693-12.2 1.21-19.9 11.7-23.2 31.4-2.82 16.8 5.97 17.7 22.9 24.2 16.1 6.11 31.3 10.4 47.7 10.6 11-0.565 25-15.1 25-15.1l26-27.6-15-4.11s-9.43-1.09-14-2.18c-18-1.81-42.3-17.9-57.7-17.9z" fill="#e3388e"/>
  <path d="m359 449c10.4 2.61 8.39 16.3 11.7 24.8 1.47 3.82 5.83 8.29 3.55 11.7-5.47 8.29-23.2 1.75-23.2 1.75s-22.6-3.08-21.8-12.7c0.914-11.7 16.7-28.9 29.9-25.6z" fill="#aae3b6"/>
  <path d="m144-36 38.5 18.1-15 17.9s-7.59 9.24-12.4 11.2c-8.13 3.3-18 5.69-23.8-2-1.69-2.26-1.03-9.18-1.03-9.18l5.04-30.8z" fill="#38e3df"/>
  <path d="m393 31.5c-2.05-7.1 3.79-13.6 8.42-19.3 4.14-5.15 15.9-12.2 15.9-12.2l11.1-7.05 31.9 48.6s13.7 22.4 5.56 27.3c-15.6 2.27-66.7-20.1-72.9-37.3z" fill="#c700b4"/>
  <path d="m-5.02 315 5.02-5.68s5.17-5.31 7.78-7.05c7.52-5.01 15.2-10.3 24.1-8.73 9.18 1.64 19.6 11.1 21.7 17.6 2.14 6.55-0.0089 10-3.39 12.9-12.4 10.6-45.4 8.34-48.6 5.01-0.894-0.95-1.68-3.53-1.68-3.53z" fill="#008ebf"/>
  <path d="m451 289c-2.04-0.0149-38.7-4.02-46.9 4.52s-1.93 7.08 1.62 20.6c4.1 15.5 0.649 19.7 7.61 25.3s18 2.05 27.1 2.02c10.5-0.0326 30-1.04 31.5-2.55 10.7-6.88 19.1-3.85 25.8-14.9 8.76-14.3 17.1-25.2 5.88-30.1-28.8-7.47-23.9-4.34-52.6-4.86z" fill="#d58e25"/>
  <path d="m-54.2 475 39.9 3.59 31.6 25.6 4.85 5.94-17.3 17.4-55.1-29.8z" fill="#e3e3c9"/>
  <path d="m238-35.6 35.3-15.2 27 15.5 0.782 35.2 0.202 9.07-3.41 10-57.4-17.8-11.1-12z" fill="#71e3d0"/>
  <path d="m13.9 26c-1.1-10.1 16.1-26 16.1-26l2.32-2.94 20.7-20 11.7 3.96 16.6 19s8.87 12 11.8 18.7c2.21 5.07 0.0609 11.1-2.78 15.6-8.92 14-25 33.8-40.7 28.5-20.7-7.03-33.9-19.8-35.8-36.8z" fill="#1c0024"/>
  <path d="m403 175c-6.15 4.86-4.7 7.55-6.21 22.7-1.5 15 1.27 25.6 8.29 32 6.95 6.32 20 6.54 30.4 7.66 10.5 1.12 21-0.651 31.5-1.02 15-0.525 45-1.7 45-1.7l1.76 0.236 13-27.9-14.7-6.21-55.2-21.9c-17.7-4.71-42.9-12.1-53.9-3.9z" fill="#e355c7"/>
  <path d="m-32.7 343 10.8-5.21 21.9 33.9s8.83 14.8 13.7 22.6c2.71 4.31 8.55 8.73 5.17 14.1-3.57 5.71-18.9 6.79-18.9 6.79l-40.3 6.18-12.9 1.37 13.5-62.4z" fill="#e3aac9"/>
  <path d="m87.6 469c3.12-5.89 7.9-13.7 14.6-13.7 8.71-0.061 15.2 9.92 19.3 17.6 5.76 11 5.39 14.9 3.3 27.1-0.576 3.38-3.65 11.6-3.65 11.6l-7.9 15.5-20.3-15.5s-8.09-7.21-10-12.1c-5.07-12.7-1.71-18.5 4.68-30.6z" fill="#1ce39d"/>
  <path d="m361 496c15-6.41 47.8-18.6 49-1.85 0.459 6.57-15 18.2-15 18.2l2.15 2.25-11.2 25.7-19.1 1.93-41.4-12 18.5-17.8s9.75-13.3 17-16.4z" fill="#aa0016"/>
  <path d="m-54.2-37.1 39.9 3.59 31.6 25.6 4.85 5.94-1.93 1.95s-7.55 7.86-12.4 13.3c-2.54 2.89-7.91-0.481-7.91-0.481l-50.2-27.1z" fill="#e3e3c9"/>
  <path d="m271 16.4c6 2.02 12.8 6.69 13.9 12.9 1.86 10.5-5.56 22.9-14.6 28.6-11.2 7-29.6 9.17-39.7 0.677-9.72-8.14-13.8-27.5-6.04-37.5 9.49-12.3 31.7-9.58 46.4-4.62z" fill="#710098"/>
  <path d="m503 62c1.09-6.72 8.76-12.1 8.76-12.1l10.4-5.52 33.8 35.2-7.42 29.5-1.82 1.62-11.2-7.47-23.7-24.9s-10.2-7.75-8.76-16.3z" fill="#001c34"/>
  <path d="m13.6 232c-6.33 9.56-12.6 21.3-7.09 33.7 2.37 5.33 14.4 15.3 14.4 15.3 15.3 9.27 43-10.9 60-12.5 16.1-8.47 35.7-28.3 34.2-33.4-3.35-10.8-17.3-6.65-52.7-18.4-20.2-8.77-35.4-3.56-48.9 15.3z" fill="#0e7150"/>
  <path d="m441 241c-9.3 3.03-19.1 0.753-25.4 9.69s-11.6 28.1-1.64 30.9c23.6 6.49 58.2 3.2 85.6 3.82 4.87 0.111 13.1-6.46 13.1-6.46l0.732-5-0.732-1.03s-12.6-27.6-25.4-31.7c-11.7-3.78-34.5-1.47-46.3-0.22z" fill="#d571db"/>
  <path d="m-52.4 429 52.4-6.99c3.75-0.354 16.2 0.679 15.8 6.83-0.558 10.7-15.8 38.9-15.8 38.9l-5.6 5.73-46.2-7.54-1.61-33.9z" fill="#e3c7ec"/>
  <path d="m238 476c8.73-9.39 22.6-16.5 35.3-15.2 9.16 0.933 17.4 6.86 22.7 15.8 5.99 10.1 5.12 35 5.12 35l0.202 9.07-3.41 10-57.4-17.8-1.23-1.32s-7.63-7.44-8.63-12.2c-1.82-8.61 1.35-17 7.34-23.4z" fill="#71e3d0"/>
  <path d="m29.9 512 0.149-0.189s1.48-2.01 2.32-2.94c6.45-7.13 9.17-10.4 18.5-12.5 4.01-0.899 13.3 0.625 16.8 2.91 6.99 4.68 13.7 12.5 13.7 12.5l22.1 25.3-6 9.46-27.5 2.24z" fill="#1c0024"/>
  <path d="m159 339c1.38-0.993 2.11-1.52 2.18-1.57 0.0473-0.0347 0.0913-0.05 0.132-0.046 21.8 8.14 58 20.3 58.2 43.5-12.4 11.2-39.2 8.14-50 1.69-10.9-6.44-9.41-4.16-11.5-22.9-1.38-12.2-1.01-19.1 1.12-20.6z" fill="#55aa97"/>
  <path d="m94 43.5c-8.42 2.37-15.6 13.8-23.9 22.1-7.66 10.7-19.9 19.9-23.1 29.2-3.19 9.32-3.66 8.98-2.99 13.6 1.89 12.9 4.99 16.3 19 34.3 12.3 15.8 22.8 23.6 31.4 23.3 7.54-0.219 12.9-2.77 16.2-7.66 2.85-4.28 5.44-10.8 7.76-19.4 0.153-19.5-7.66-37.6-6.93-55.8 0.617-17.1-0.839-28.5-4.37-34.3-4.94-6.45-6.54-7.2-13.1-5.39z" fill="#1c2aa3"/>
  <path d="m337 118c9e-3 -0.0433 28-21.2 44.2-20.1 8.79 0.582 18.8 5.99 22.4 14 7.56 16.8-5.04 44.7-9.03 54.5-4.1 10.1-18.5-16.2-40.4-24.7-0.207-0.078-15.4 0.239-19.4-12.7-0.024-0.0773 0.725-3.74 2.25-11z" fill="#aa3827"/>
  <path d="m98.8 365q16-20.7 17.5-21.4 2.79-1.41 13.2-1.13 20.6 0.547 22.4 16.2 3.49 30.9 2.78 33-1.41 4.16-16.8 14.5-30.4 20.4-36.1 3.28-11.1-34-3.01-44.4z" fill="#38aab0"/>
  <path d="m362 408c12.7 13.1 19.8 11 51.6 18.6 1.43 0.343 26.7 4.5 33.3-4.59 1.35-1.89 1.48-3.6-1.3-6.84-22.3-26-31.5-26.4-37.6-38s5.34-16.5-8.9-22.8c-20.1-8.93-60.7 24.9-37.1 53.6z" fill="#b9b919"/>
  <path d="m289 53.4c-4.6 0.0951-11.6 3.79-23 15.2-4.87 4.83-5.38 19-7.44 24.4-8.8 23.2-9.04 27 10.8 31.5 19.8 4.52 20.8 6.72 33.2 6.91s20.9-0.545 25.2-4.91 2.14-10.7 1.97-11c-8.44-10.8-7.87-21.1-8.18-34.3-0.032-3.43-12.5-1.81-24.6-22.5-1.59-2.71-3.75-5.43-7.8-5.35z" fill="#801c80"/>
  <path d="m160 398c-13 6.19-46.1 28.2-52.4 39.4-1.2 4.15 2.04 9.91 9.72 17.3 12 11.5 12.7 18.9 21.4 16.5 36.2-10.1 91-3.9 125-14.9 9.55-3.15 16.4-12.2 20.7-27.1 2.39-8.44-0.433-17.5-8.48-27.2-4.55-5.49-13.9-12.2-28.6-12.2-31.9 0.117-76.2 2.89-87.3 8.16z" fill="#55c72b"/>
  <path d="m336 33.3c15.2-2.41 44.7-2.5 49.9 1.66 3.83 3.11 0.732 7.44-0.171 14.8-3.42 27.8-8.22 43.1-14.4 45.9-23.4 10.6-35.7 15.1-36.7 13.4-3.95-6.48-5.94-11.4-5.97-14.7-0.115-12.4-0.0154-17.7 0.993-27.9 1.01-10.3-5.3-30.5 6.43-33.2z" fill="#aa1c3c"/>
  <path d="m144 233c-10.4 0.547-16.3 1.44-17.8 2.67-13.3 15.6-30.9 40-24.4 57.7 11.4 28.4 20.2 42.7 26.3 42.8 14.5 0.385 17.6 2.88 23.4-0.551s6.72-9.67 8.51-14.7c3.18-9.45 3.36-23.6 0.51-42.5-4.61-30.6-10.1-45.8-16.5-45.4z" fill="#3880cd"/>
  <path d="m410 358c3.45-7.64 15.1-11.6 35-11.7 16.6-0.164 21.9 13.5 15.9 41-4.99 22.9-20.7 19.2-38.7 1.03-15-15.1-16.2-21.1-12.1-30.3z" fill="#c7aa89"/>
  <path d="m205 58.7c2.39-2.39 4.54-4.18 7.34-4.06 12.1 0.516 9.06 6.48 30.3 20.3 4.6 2.99 5.93 2.17 7.02 4.78 5.54 13.2-0.584 37.2-7.56 42.2-8.25 5.79-16.8 0.212-49.2-1.05-7.01-0.273-10.8 0.406-13.2-3.45-6.26-10 1.98-12 7.09-34.8 1.11-4.93 7.17-12.9 18.2-23.9z" fill="#551c35"/>
  <path d="m141 127c-8.17 1.14-13.8 7.64-17 19.5-4 5.59-6.16 15.3-9.63 20.9-1.99 2.99 0.932 16.6 8.76 40.9 3.78 11.7 11.3 17.3 22.6 16.7 5.47-0.288 12.9-2.07 22.2-5.36 8.59-13.7 10.4-31.3 17.1-44.8 1.04-2.15-0.72-14.3-5.27-36.4-1.69-8.22-2.52-14.8-4.91-15-13.6-1.37-23.4 2.16-33.9 3.62z" fill="#384751"/>
  <path d="m363 420c8.36-3.17 33 5.14 42.6 7.51 4.99 1.2-2.71 48-19.8 53.5-4.73 1.52-12.4-24.9-21.6-41.6-1.63-2.95-10.5-15.8-1.17-19.3z" fill="#aac730"/>
  <path d="m415 53.6q40.4 25 38.1 33.6-4.26 16-18.1 17.4-25.9 2.57-33.6-2.4-14.5-9.26-12.2-27.7 4.22-34.3 25.9-20.9z" fill="#c71c5c"/>
  <path d="m94.2 173c8.11-0.237 15.1 8.6 20.8 26.5 5.84 18.1 10.4 25.7 8.42 27.3-1.98 1.63-17.1-1.34-40.4-9.11-23.6-7.87-29.8-15.4-18.3-26.9 11.6-11.6 21.5-17.6 29.5-17.8z" fill="#1c5530"/>
  <path d="m334 404q12.6-4.71 20.5 9.46 2.52 4.54 1.4 17.8-0.362 4.26-28.7 32.6-9.08 9.08-15.6 10-2.08 0.295-20.9-15.2-6.03-4.97 1.49-31.5 2.41-8.51 41.7-23.2z" fill="#8ec73d"/>
  <path d="m48.7 286c5.47-5.47 12.1-8.58 19.9-9.32 14.3-1.36 24.3 5.09 30 19.4 10.5 26.2 18.8 27 10.8 37-2.96 3.69-4.18 2.69-14.1-0.899-18.3-6.6-30.2-13.6-35.8-21.1-10.1-13.7-13.7-22-10.8-25z" fill="#1c8e5d"/>
 </g>
</svg>
