<?xml version="1.0" encoding="UTF-8"?>
<svg width="512px" height="512px" contentScriptType="text/ecmascript" contentStyleType="text/css" version="1.1" viewBox="0 0 512 512" xmlns="http://www.w3.org/2000/svg">
 <g class="voronoi" stroke-width=".5">
  <path d="m-13.2 126 28.2 7.71-26 27.6-25.6 20.8-12.6-8.24-3.62-33.7z" fill="#e3388e"/>
  <path d="m18.6 10.9c-7.15 0.59-13.7 16.6-13.7 16.6l-4.93 22.4-18 9.57 41.8 43.7 11.2 7.47 1.82-1.62s19.4-32 19-49.7c-0.194-9.33-11.1-25.7-11.1-25.7s-14.6-23.7-26.1-22.7z" fill="#001c34"/>
  <path d="m122 16.8c-5.37 2.31-9.9 7.58-11.6 13.2-5.08 16.9 7.78 37.2 7.3 52.6-0.633 17.5 7.48 28.6 24.3 33.1 19.2 5.13 30.4 0.192 33.8-14.8 1.83-19.8 21.1-40.7 12.9-59.1-6.57-14.7-42-23.9-42-23.9s-17.1-4.18-24.7-0.928z" fill="#380e40"/>
  <path d="m-41.1 70.8 11-5.22 42.6 33.1 6.92 22.9-51-4.39-23.3-10.1 3-20.3z" fill="#e31caf"/>
  <path d="m195-13 28 5.11-0.229 7.92-0.196 6.79s-0.287 34.6-13.3 39.9c-9.27 3.75-39.5-26.4-41.9-31.7-2.86-6.21 12.3-15 12.3-15z" fill="#550029"/>
  <path d="m86.9-50 14.6-13.7 19.3 17.6 5.01 36.9-4.68 9.17s-1.28 16.6-7.65 18c-8.88 2.02-20.5-18-20.5-18l-12.5-9.53z" fill="#1ce39d"/>
  <path d="m49.8 115c-5.15 0.0175-7.88 0.185-8.2 0.502l-7.88 4.25-11.8 12.1-22 32.1-20.6 15.4 42.8 27.2s9.66 3.09 14 1.31c1.72-0.704 2.23-3 3.59-4.26 15.6-14.4 51.8-37.1 51.8-37.1 2.66-0.366 4.71-1.06 6.13-2.09 1.75-1.28 3.74-10.1 5.98-26.5 1.96-14.4-8.44-21.9-31.2-22.5-9.98-0.282-17.5-0.416-22.7-0.398z" fill="#005528"/>
  <path d="m144-36 38.5 18.1-15 17.9s-5.14 10-9.94 11.9c-8.93 3.52-22.8 4.14-28.6-3.55-1.69-2.26 1.37-8.35 1.37-8.35l5.04-30.8z" fill="#38e3df"/>
  <path d="m29.9 0.189 0.149-0.189 2.32-2.94 20.7-20 11.7 3.96 16.6 19c6.91 10 31.4 24.5 16.1 34.8-7.88 4.76-19.7 16.4-30.6 13.6-19.6-4.98-37-48.2-37-48.2z" fill="#1c0080"/>
  <path d="m-54.2-37.1 39.9 3.59 31.6 25.6 4.85 5.94-1.93 1.95s-6.91 11.9-12.9 14c-2.35 0.814-7.36-1.17-7.36-1.17l-50.2-27.1z" fill="#e3e3c9"/>
  <path d="m68.4 65.1c8.29-8.29 12.6-18 21-20.4 8.61-2.42 14.6-0.829 18.1 4.78 3.53 5.73 5 16.7 4.41 33-0.601 16.7-1.46 25.4-2.56 26.2-1.13 0.795-12.3 0.894-33.4 0.296-21.6-0.611-26.3-3.73-23.5-15.3 2.89-11.9 7.88-20.5 16-28.6z" fill="#1c1cc6"/>
  <path d="m100 172c3.25-2.38 7.45-3.11 12.6-2.2 34.4 6.17 42.1-0.415 51.4 14.8 6.8 11.1 1.32 28.8-7.53 38.4-6.65 7.21-18.6 9.14-28.3 7.96-6.59-0.797-16.2-4.97-17.3-9.8-7.67-32.4-11.3-48.8-10.8-49.2z" fill="#385590"/>
  <path d="m90.2 179c4.82-0.14 7.25 2.32 11.6 20.8 4.44 18.7-3.67 24.7-24.3 17.8-20.9-6.96-30.2-9.31-18.7-20.8 11.6-11.6 26.6-17.7 31.4-17.8z" fill="#1c5530"/>
  <path d="m115 115q2.21-1.55 20.7 3.41 35.5 9.5 36.2 11.1 1.44 2.99 0.65 14.1-1.5 21.3-2.96 23.9-2.78 5.12-23.1 1.47-39-6.99-36.8-22.8 4.14-30.3 5.3-31.1z" fill="#383810"/>
 </g>
</svg>
