<?xml version="1.0" encoding="UTF-8"?>
<svg width="512px" height="512px" contentScriptType="text/ecmascript" contentStyleType="text/css" version="1.1" viewBox="0 0 512 512" xmlns="http://www.w3.org/2000/svg">
 <g class="voronoi" stroke-width=".5">
  <path d="m-13.2 126 13.2 3.6s6.4-0.278 7.81 4.73c1.98 7.04-7.81 15.3-7.81 15.3l-10.9 11.6-25.6 20.8-12.6-8.24-3.62-33.7z" fill="#e3388e"/>
  <path d="m4.93 27.5c1.13-10 17.2-22.4 23.6-19.1 11.7 6.09 15.7 16.8 27.4 22.6 31.9 15.8 8.06 22.2-0.185 28.3-10.2 7.53-35.8-12.8-35.8-12.8s-15.9-11-15-19.1z" fill="#00009c"/>
  <path d="m-41.1 70.8 11-5.22 30.2 23.4 19.9 14.8s9.71 5.57 4.68 11.8c-4.09 5.03-24.6 4.35-24.6 4.35l-31.6-2.72-23.3-10.1 3-20.3z" fill="#e31caf"/>
  <path d="m-18 59.4 28.4-15.1s30.9 17.1 35.2 24.4c7.02 11.8-3.96 32-3.96 32s-2.79 9.2-6.72 9.98c-4.4 0.868-11.2-7.47-11.2-7.47l-23.7-24.9z" fill="#001c34"/>
  <path d="m86.9-50 14.6-13.7 19.3 17.6 5.01 36.9-4.68 9.17s-4.98 9.05-10.6 10.3c-8.29 1.88-17.5-10.3-17.5-10.3l-12.5-9.53z" fill="#1ce39d"/>
  <path d="m8.86 124c1.96-5.29 16.5-3.83 24.9-4.87 11.3-1.41 34.1-1.87 34.1-1.87s11.9-2.74 15.1 1.18c6.42 7.98-4.2 30.4-4.2 30.4s-7.78 41.6-23.9 42.1c-19.5 0.631-24-27-33.3-42.4-4.69-7.75-13.8-21.2-12.6-24.6z" fill="#0038dc"/>
  <path d="m144-36 38.5 18.1-15 17.9s-8.11 8.71-12.9 10.6c-8.93 3.52-16.4 5-21.6-1.77-1.73-2.23-2.64-8.83-2.64-8.83l5.04-30.8z" fill="#38e3df"/>
  <path d="m29.9 0.189 0.149-0.189 2.32-2.94 20.7-20 11.7 3.96 16.6 19s16.9 14.6 29 16.1c7.17 0.893 4.99 25.3-1.2 24.6-16.1-1.68-27.3 1.64-39.3-3.71-16.6-7.37-40-36.8-40-36.8z" fill="#1c0024"/>
  <path d="m14.8 156c4.75 1.59 8.11 9.28 11.1 15.6 5.39 11.3 18.4 26.6 10.4 36.2-2.99 3.61-14-1.31-14-1.31l-42.8-27.2 20.6-15.4s9.47-9.6 14.8-7.82z" fill="#005528"/>
  <path d="m-54.2-37.1 39.9 3.59 31.6 25.6 4.85 5.94-1.93 1.95s-5.16 13.1-12.4 14.2c-1.83 0.271-7.92-1.32-7.92-1.32l-50.2-27.1z" fill="#e3e3c9"/>
  <path d="m63.9 60.2c8.29-8.29 16.7-13.6 25.1-16 8.61-2.42 14.6-0.829 18.1 4.78 3.53 5.73-9.66 10.2-10.3 27.4-0.63 17.5-9.02 38.6-31.2 38-22.7-0.642-28.6 4.52-16.7-23.5 2.89-11.9 6.94-22.5 15.1-30.6z" fill="#1c1c7e"/>
 </g>
</svg>
