<?xml version="1.0" encoding="UTF-8"?>
<svg width="512px" height="512px" contentScriptType="text/ecmascript" contentStyleType="text/css" version="1.1" viewBox="0 0 512 512" xmlns="http://www.w3.org/2000/svg">
 <g class="voronoi" stroke-width=".5">
  <path d="m458-37.1 39.9 3.59 31.6 25.6 4.85 5.94-17.3 17.4-55.1-29.8z" fill="#e3e3c9"/>
  <path d="m328 38.9c-2.86 6.76 1.14 13.9 1.34 20.8 0.222 7.45 2.55 13.5-0.109 22.3s-23.4 17.9-18.1 27.5c4.35 7.95 18.3 1.42 27.2-0.345 11.7-2.34 12.2-3.95 33.3-13.3 5.59-2.48 10.1-17.7 13.5-45.6 0.909-7.39 0.969-12.3 0.18-14.9-0.209-0.665-5.03-0.33-14.5 1-18.1-4.76-5.71-1.92-23.8-6.78-13.3-3.58-17.1 4.49-19.2 9.25z" fill="#9c0eb4"/>
  <path d="m-13.2 126 13.2 3.6s8.95 0.563 10.4 5.57c1.98 7.04-10.4 14.5-10.4 14.5l-10.9 11.6-25.6 20.8-12.6-8.24-3.62-33.7z" fill="#e3388e"/>
  <path d="m462 429c14.8-7.8 49.6-6.86 49.6-6.86l18.6-2.48 2.17 0.445 0.978 25.5-27.4 28c-21.8-11.8-20-14.7-50.4-37.5 0 0 3.59-5.59 6.41-7.07z" fill="#e3c7ec"/>
  <path d="m318 482c11 2.76 38.9 9.22 31.7 13.5-6.39 3.79-15 16.5-15 16.5l-13.1 14.8-14.4 1.9 0.707-16.7 1.18-28s5.76-2.71 8.84-1.94z" fill="#8ee3e0"/>
  <path d="m12.2 16.8c-3.64 3.76-3.32 15.4-3.32 15.4l30.6 67c3.72 8.17 17.9 8.71 37.7 9.27 22.2 0.629 23.5-14.4 29-26.2 4.64-10.1 4.43-27.6 0.897-33.3-2.7-4.38-73.3-36.6-79.1-36-28.9 2.57-12 0.0561-15.7 3.94z" fill="#0e0e8d"/>
  <path d="m445-14.3 30.2 14 0.43 0.334s19.4 10.4 30 17c9.4 5.88 5.83 24.7-1.09 33.4-7.03 8.88-28.2 16.4-32.8 8.86-3.92-6.47-11.6-30-11.6-30l-10.2-29.3z" fill="#e3006f"/>
  <path d="m507 315c0.353-2.5 5.02-5.68 5.02-5.68l6.24-7.05 25.7-8.73 24.8 23-13 25.3-42-12.8-1.68-3.53s-5.57-6.7-5.02-10.6z" fill="#008ebf"/>
  <path d="m417 433c-15.4 5.89-22.8 23.6-35.1 34.9-6.83 6.25 1.86 19 6.53 27 3.27 5.59 14.2 13.2 14.2 13.2 5.03 4.69 39.3-13.8 59.1-10.7 9.9 1.58 26.5 14.3 26.5 14.3l28.7 15.5 17.3-17.4-4.85-5.94-17.3-14s-16.4-15.2-24.8-22.6c-9.38-8.28-28.5-24.4-28.5-24.4s-9.1-6.84-14.4-8.43c-8.7-2.6-18.7-4.66-27.2-1.42z" fill="#e3e3c9"/>
  <path d="m122 16.8c-5.37 2.31-11.6 13.2-11.6 13.2-0.711 19.7 7.73 37.7 7.19 54.7-0.664 18.4-0.145 28.6 1.56 30.5 1.93 2.2 9.84 4.05 23.7 5.53 15.8 1.68 24.6 1.57 26.4-0.336 2.05-2.17 4.51-9.64 7.38-22.4 0.998-4.44 2.02-35.8 0.868-39.4-4.04-12.5 3.31-14.8-2.53-28.9-6.15-14.9-28.3-11.9-28.3-11.9s-17.1-4.18-24.7-0.928z" fill="#380e9d"/>
  <path d="m-41.1 70.8 11-5.22 42.6 33.1 6.92 22.9-51-4.39-23.3-10.1 3-20.3z" fill="#e31caf"/>
  <path d="m533 148 16.4 59.2-1.36 0.59-14-1.31-22.2-14.1s-13.6-4.56-14-12.7c-0.326-8.58 14-15.8 14-15.8z" fill="#005528"/>
  <path d="m471 347s9.95-6.87 13.8-5.79c13 3.63 27.3 31 27.3 31l14.3 22.1 5.66 18.3-60.2 9.24s-10 4.77-14 1.57-9.02-3.94-0.592-17.5c8.42-13.6 13.7-58.9 13.7-58.9z" fill="#e3aac9"/>
  <path d="m393 543 7.56-20.8 16.7-10.6s6.29-5.95 10.6-5.03c2.75 0.592 5.16 5.03 5.16 5.03l27.3 41.5-0.753 28.4-48.8-24.7z" fill="#c700b4"/>
  <path d="m-18 59.4 18-9.57s4.87-3.08 7.27-2.26c2.71 0.928 4.93 7.05 4.93 7.05l24.5 54.4-1.82 1.62-11.2-7.47-23.7-24.9z" fill="#001c34"/>
  <path d="m471 70.8s7.03-6.5 10.4-4.23c10.9 7.36 30.7 22.5 30.7 22.5l12.5 9.69 6.92 22.9-19.4-1.67s-32.6 0.773-42.9-1.82c-8.2-2.08-7.9-3.63-12-11-3.32-5.98 0.53-13.9 3-20.3 2.32-5.99 10.8-16 10.8-16z" fill="#e31caf"/>
  <path d="m504 337c2.84-3.42 8.29-2.05 8.29-2.05l12 3.27 32.6 24.3-4.04 26.2-33.4-16.2-7.06-14.6s-14.6-13.4-8.29-21z" fill="#00aa73"/>
  <path d="m451 502c8.23-7.46 24.7 9.43 24.7 9.43l0.43 0.334 34.6 26.9-11.8 16.3-19 15.6-19.3-29.5-10.2-29.3s-3.22-6.37 0.526-9.76z" fill="#e3006f"/>
  <path d="m86.9-50 14.6-13.7 19.3 17.6 5.01 36.9-4.68 9.17s-2.25 14.2-7.9 15.5c-8.29 1.88-20.3-15.5-20.3-15.5l-12.5-9.53z" fill="#1ce39d"/>
  <path d="m361-16.4 23.1 4.88 13.1 13.8-11.2 25.7-19.1 1.93s-30.3-5.39-32.4-11c-2.96-8.04 9.51-18.8 9.51-18.8z" fill="#aa0016"/>
  <path d="m45.8 111c-8.3 1.62-19.6-0.219-22.2 12.4-2.1 6.41-1.42 12.6-1.02 19.2l17.2 61 13.5 8.39c4.24 2.64 14.2 1.92 24.1 5.22 43.5-10.4 40.3-8.75 39.8-35-0.217-12.1-9.17-24.3-5.71-36 2.43-8.19 3.43-25.5 1.49-27.7-1.7-1.93-14.5-3.24-38.4-3.92-10.5-0.297-19.2-5.45-28.7-3.61z" fill="#134233"/>
  <path d="m499 126 28.2 7.71-26 27.6s-14.6 20.2-25.6 20.8c-5 0.258-26.8-8.22-23.4-17.3 3.86-10.6 2.05-27.2 8.06-36.7 7.43-11.8 38.7-2 38.7-2z" fill="#e3388e"/>
  <path d="m357 445c11.2 1.78 17.7 29 17.7 29s7.98 16 2.64 20.3c-7.03 5.64-26.2-6.56-26.2-6.56s-25.5-4.39-21.4-13.2c5.47-11.9 15.4-31.4 27.3-29.5z" fill="#aae3de"/>
  <path d="m144-36 38.5 18.1-15 17.9s-11.2 9.51-16 11.4c-8.93 3.52-15.3 3.63-19.8-2.47-1.68-2.27-1.37-8.93-1.37-8.93l5.04-30.8z" fill="#38e3df"/>
  <path d="m393 31.5c-2.05-7.1 7.56-20.8 7.56-20.8l27.8-17.7 4.63 7.05s22.7 25.6 27.3 41.5c2.59 9.11 7.38 23.6-0.753 28.4-15.6 9.33-33.4-14.9-48.8-24.7-6.34-4.01-15.7-6.59-17.8-13.8z" fill="#c700b4"/>
  <path d="m464 274c-7.94-5.31-23.1 16.2-40 17.1-7.56 0.406-6.24 5.85-8.58 22.1-2.7 18.7 5.13 27.9 23.5 27.7 23.7 2.88 32.9-4.62 51.8-11.2 0 0 10.7-9.87 10.4-16.3-0.837-13.8-26.4-32.1-26.4-32.1z" fill="#d58ebb"/>
  <path d="m29.9 0.189 0.149-0.189 2.32-2.94 20.7-20 11.7 3.96 16.6 19s18.2 17.7 19 28.9c0.284 3.72-2.95 5.87-2.95 5.87l-19.3-8.52z" fill="#1c0024"/>
  <path d="m20.5 156c9.9 20 16.5 44.6 16.5 44.6s0.988 5.43-0.806 6.88c-3.64 2.95-14-1.31-14-1.31l-42.8-27.2 20.6-15.4s16.6-15.4 20.5-7.47z" fill="#005528"/>
  <path d="m493 187c7.58 8.72 19.4 13.5 19.4 13.5l14.7 6.21-13 27.9-1.76-0.238s-31.5 4.45-41-5.55c-8.99-9.46-9.37-29.8-3.27-39 4.51-6.82 22-6.21 24.9-2.83z" fill="#e355c7"/>
  <path d="m363 500c7.56-2.17 13.2-1.03 19.6 1.73 4.87 2.09 12.4 9.81 12.4 9.81l2.15 2.25-11.2 25.7-19.1 1.93-41.4-12 18.5-17.8s11.5-9.36 19.1-11.5z" fill="#aa0016"/>
  <path d="m-54.2-37.1 39.9 3.59 31.6 25.6 4.85 5.94-17.3 17.4-55.1-29.8z" fill="#e3e3c9"/>
  <path d="m502 60.7c1.09-6.72 9.91-10.9 9.91-10.9l10.4-5.52 33.8 35.2-7.42 29.5-1.82 1.62-11.2-7.47-23.7-24.9s-11.3-8.99-9.91-17.6z" fill="#001c34"/>
  <path d="m466 238c7.13-6.62 42.2 5.43 42.2 5.43l3.86 29.7 0.733 1.03-0.733 5s-0.454 16.5-7.54 19.5c-9.68 4.11-21.4-15-21.4-15l-20.7-34.8s-0.0275-7.35 3.68-10.8z" fill="#e37192"/>
  <path d="m357 186q3.58-2.98 14.4-2.13 10.7 0.842 26 28.8 15.1 27.6 8.35 37.6-6.62 9.86-11.2 11.1-4.54 1.18-32.7-15.9-27.8-16.9-18.1-36.8 9.62-19.6 13.3-22.6z" fill="#aa5580"/>
  <path d="m193 256q2.06-8.31 18.5-10.3 27-3.24 30.2-0.709 5.2 4.18 11.8 18.1 10.9 22.9 5.77 25.3-8.54 3.93-26.9-0.152-30.3-6.73-34.2-14.4-6.37-12.7-5.12-17.7z" fill="#557163"/>
  <path d="m359 330c-4.78 0.463-19.8 21.1-34.2 26.5-8.88 3.37-11.2 3.88-17.8 6.74-8 4.42-20.2 8.81-21.3 19-0.0747 0.81 2.09 6 6.5 15.6 2.65 5.75 16.3 9.31 40.9 10.7 8.55 0.471 14.6 0.637 18.3 0.514 28.2 10.8 63.4 12.5 93.3 19.5 1.43 0.343 14.8 0.116 2.64-13.9-12.2-14-52.9-27.1-54.4-61.9-10.1-5.28-23.7-20.5-33.9-22.6z" fill="#aab436"/>
  <path d="m361 108q21.2-9.42 31.5-2.83 11.6 7.41 7.55 33.1-4.51 28.9-10.9 33.3-7.18 4.89-17.3 4.09-11.4-0.898-20-28.4-9.68-30.9 9.2-39.3z" fill="#aa3878"/>
  <path d="m287 291c0.622-0.199 19.3 8.85 56 27.1 4.16 2.07 6.44 4.04 6.85 5.91 0.0467 0.211-5.07 6.98-15.4 20.3-1.16 1.51-33.3 25.3-47.4 16.4-17-10.7 0.832-17.6-6.97-59.9-0.884-4.79 1.42-8.07 6.91-9.83z" fill="#8e8eda"/>
  <path d="m70.7 329c-10.1 3.39-11.3 6.73-24.7 20.1-1.37 1.37-4.89 17.5 11.2 25.5 30.3 15 61.6 25.9 93.7 23.2 11-0.935 14.7-3.56 30.4-13.3 8.12-9.86 11.9-19.7 12-31.2 9e-3 -0.927-5.09-5.74-15.3-14.4-2.27-1.94-15.2-7.25-39.4-7.59-43-0.595-46.4-9.53-67.8-2.32z" fill="#2aaac0"/>
  <path d="m298 137q30.9-22.7 34.1-21.2 4.54 2.08 12.1 26.1 10.8 34.4 7.81 36.9-4.25 3.54-32.8-4.57-40.9-11.6-41.7-15.6-1.11-5.73 20.5-21.5z" fill="#8e386b"/>
  <path d="m416 248c1.38-2.05 11.8-5.58 31.1-10.6 3.55-0.917 8.37 7.21 14.5 24.4 1.12 3.15-6.15 3.21-20.8 17.9-2.69 2.69-9 10.4-19.9 5.54-2-0.898-6.7-6.73-14.1-17.5-1.36-1.97 1.72-8.55 9.23-19.7z" fill="#c7713c"/>
  <path d="m363 420q0.224-2.63 42.6 7.51 7.48 1.79-22.3 31.6-5.27 5.27-19.1-19.8-2.44-4.43-1.17-19.3z" fill="#aac73e"/>
  <path d="m273 179q3.69-11.7 23.7-6 49.4 14 43.8 25.4-13.8 28.1-15.1 28.8-3.27 1.9-13.2-3.3-24.5-12.8-29.1-20.7-11.5-19.5-10-24.2z" fill="#8e554f"/>
  <path d="m155 236c11.2 0.198 26.9 0.856 31.8 10.9 2.09 4.3-3.72 13.2-4.71 13.5-38.5 13.8-40.1 22.9-59.2 15.8-4.76-1.78-8.56-12.3-8.53-12.6 18.2-21.8 36.1-27.7 40.6-27.6z" fill="#387112"/>
  <path d="m415 53.6q40.4 25 38.1 33.6-4.26 16-18.3 17.4-26.2 2.6-33.8-2.29-14.2-9.11-11.9-27.6 4.24-34.5 25.9-21.1z" fill="#c71c5c"/>
  <path d="m322 243q4.07-8.62 4.38-8.8 4.29-2.48 8.13-0.151 52.2 31.7 50.2 34-26.3 31.6-28.9 27.7-34.2-52.2-33.9-52.8z" fill="#aa711c"/>
  <path d="m235 295q13.9 3.08-5.37 32.2-7.66 11.6-24.3 17.6-6.61 2.4-20-9.02-5.33-4.54 9.07-36 5.73-12.5 40.6-4.8z" fill="#558eb0"/>
  <path d="m342 415q14.4 0.792 15.4 2.67 0.335 0.602-0.792 13.9-0.362 4.26-28.7 32.6-9.08 9.08-15.6 10-2.08 0.295-20.9-15.2-6.03-4.97 2.86-36.3 2.85-10.1 47.6-7.6z" fill="#8ec769"/>
  <path d="m334 267q23.4 35.8 21 40.9-4.31 9.08-26.5-1.96-39.2-19.5-27.8-33.8 20-25.3 33.3-5.1z" fill="#8e715f"/>
  <path d="m153 276q32.3-11.6 37-2.35 5.58 11.1-3.56 31.1-11 24-31 21.4-24-3.13-26.4-20.1-2.93-20.4 24-30.1z" fill="#388e75"/>
  <path d="m398 358q0.346-6.38 6.41-9.62 5.06-2.7 37.4-3.02 27-0.267 18 41-7.49 34.4-37.3 4.37-24.9-25.1-24.5-32.7z" fill="#c7aa89"/>
  <path d="m161 128c3.64 0.388 7.52 16.1 11.6 47.2 0.576 4.34-17.9 21.1-46.1 26-3.95 0.691-3.12-20.7-5.82-30.8s-9.08-15.6-0.506-41.2c1.2-3.58 14.8-3.98 40.8-1.21z" fill="#3838d6"/>
  <path d="m395 178q6.82-4.64 31.7-5.54 25.1-0.912 32.2 7.14 7.11 8.14 2.63 26.8-4.53 18.9-6.5 20.9-2 2-19.1 6.41-17.3 4.46-32.4-23.2-15.2-27.9-8.5-32.5z" fill="#c7557e"/>
  <path d="m49.7 286c5.47-5.47 14.2-8.78 26.2-9.92 22.1-2.1 22.9-11.7 32.7-6.44 9.48 5.15 10.8 21.3 12 30 2.32 16.2 5.22 15.3 2.56 18.6-4.89 6.11-15.6 4.59-26.4 5.63-27.5-2.23-30.8-5.45-36.4-12.9-10.2-13.7-13.7-22-10.8-25z" fill="#1c8e5d"/>
  <path d="m428 110q21.7-2.16 24.4 2.25 3.1 5.19 1.04 26.9-2.43 25.5-25.4 26.4-27 0.981-23.1-24.1 4.6-29.5 23.1-31.4z" fill="#c73876"/>
  <path d="m387 276q3.99-4.78 11.9-6.83 1.29-0.336 12.6 16.1 1.85 2.7-4.64 47.6-1.07 7.38-10.6 12.5-1.57 0.839-34.2-19.5-5.35-3.35-5.94-6.02-0.097-0.439 5.7-12.7 0.952-2.01 25.2-31.1z" fill="#aa8ed1"/>
 </g>
</svg>
