<?xml version="1.0" encoding="UTF-8"?>
<svg width="512px" height="512px" contentScriptType="text/ecmascript" contentStyleType="text/css" version="1.1" viewBox="0 0 512 512" xmlns="http://www.w3.org/2000/svg">
 <g class="voronoi" stroke-width=".5">
  <path d="m340 320c-7.18 0.154-11.8 11.5-19.6 19.9-19.5 23-26.1 27.7-26.5 31.2-3.46 10.4 1.25 26.5 0.911 41.1-0.336 14.7-15.3 29.8-9.77 43.6 4.07 10.1 25.8 18.2 27.2 18 4.35-0.613 9.55-3.95 15.6-10 18.9-18.9 28.5-29.8 28.7-32.6 0.753-8.84 0.289-14.8-1.39-17.8-5.33-11.4-7.2-31.1-7.87-44.4-4.85-20 11.9-49.3-7.3-49.1z" fill="#8eb9ec"/>
  <path d="m-13.2 126 13.2 3.6s4.9 1.36 6.31 6.37c1.98 7.04-6.31 13.7-6.31 13.7l-10.9 11.6-25.6 20.8-12.6-8.24-3.62-33.7z" fill="#e3388e"/>
  <path d="m35.1 416c16.1 1.6 38 5.56 44.5 26.3 4.6 14.6-12 18.9-25.5 26.2-15.9 8.69-37.1 33.3-46.9 18-7.76-12.1 10.6-23.9 14.4-36.3 2.69-8.78-4.79-21.8 4.34-22.7 0 0 4.3-12 9.18-11.5z" fill="#00c728"/>
  <path d="m460 429 71-9.47 2.17 0.445 0.978 25.5-21.8 22.3s-6.11 3.09-8.65 3.92c-14.8 4.88-43.2-5.73-43.2-5.73l-1.61-33.9z" fill="#e3c7ec"/>
  <path d="m320 479c11-0.298 23.8 3.26 26.7 15.3 2.07 8.44-11.7 17.5-11.7 17.5l-13.1 14.8-14.4 1.9 0.707-16.7s0.0833-20.3 5.31-28c2.17-3.2 3.28-4.62 6.44-4.7z" fill="#8ee3e0"/>
  <path d="m4.93 27.5c0.0781-7.17 6.66-15.1 13.7-16.6 13-2.79 25.8 4.63 33.1 15.8 5.6 8.59 9.63 24.6 1.38 30.7-10.2 7.53-22.8-3.45-33.1-10.8-6.57-4.72-15.1-11-15-19.1z" fill="#00009c"/>
  <path d="m465 483c9.04-9.85 32.4-4.73 32.4-4.73l31.6 25.6 4.85 5.94-17.3 17.4-28.7-15.5s-22.4-5.14-26.5-14.3c-2.01-4.53-1.65-8.77 3.56-14.4z" fill="#e3e3c9"/>
  <path d="m122 16.8c-5.37 2.31-11.6 13.2-11.6 13.2-14.7 12.4-35 18.6-46.8 30.1-8.12 8.12 1.89 10.3-1.01 22.2-2.83 11.6-8.31 24.1 14.3 26.2 24 2.24 33.4 5.29 49.9 8.92 5.01 1.1 3.24 3.75 14.9 3.9 13.3 0.175 17-7.47 20.1-15.3 10.9-27.8 16.2-76.5-15.1-88.2-7.91-2.26-17.1-4.18-24.7-0.928z" fill="#2f1393"/>
  <path d="m-41.1 70.8 11-5.22 42.6 33.1s7.44 9.21 2.41 15.4c-4.09 5.03-14.9 5.82-14.9 5.82l-31.6-2.72-23.3-10.1 3-20.3z" fill="#e31caf"/>
  <path d="m-12.9 332 24.8 6.79s27.4 11.8 32.6 24.3c3.35 8.19-4.43 19.7-12.3 23.8-11 5.75-25.2-13.8-25.2-13.8l-7.06-14.6z" fill="#00aa73"/>
  <path d="m479 349c6.19-0.84 7.9 6.02 12 8.83 6.98 4.81 21.4 13.8 21.4 13.8l14.3 22.1 5.66 18.3-20 3.06c-11.4-1.11-50.5 9.32-52.8 7.17-14.2-15.8 5.71-42.1 13.2-62 1.51-4.02 0.0647-10.4 6.24-11.3z" fill="#e3aac9"/>
  <path d="m141 479c14.9-0.512 52.5 11.4 42.5 17.4-6.68 4.02-16.2 15.6-16.2 15.6l-9.94 11.9-28.6-3.55 1.37-8.35s-0.581-13.4 1.61-19.5c1.83-5.13 5.87-13.3 9.25-13.5z" fill="#38e3df"/>
  <path d="m393 543 7.56-20.8 16.7-10.6s7.11-9.33 11.4-8.41c2.75 0.592 4.34 8.41 4.34 8.41l27.3 41.5-0.753 28.4-48.8-24.7z" fill="#c700b4"/>
  <path d="m-18 59.4 18-9.57s8-3.51 11.9-2.89c20.4 17.6 60.5 29 37.9 49.2l-12.2 15.7-37.7-33.6z" fill="#001c34"/>
  <path d="m500 344c0.548-5.03 12.2-9.02 12.2-9.02l12 3.27 32.6 24.3-4.04 26.2-33.4-16.2-7.06-14.6s-12.9-7.84-12.2-14z" fill="#00aa73"/>
  <path d="m211 469c-2.88 10.5-6.07 11.7-3.88 17.1 3.45 8.55 8.42 6.32 23.1 15.2 4.03 2.45 9.62 10.3 9.62 10.3l1.23 1.32 57.4 17.8 3.41-10-0.201-9.07s3.02-25.2-2.97-35.3c-5.29-8.93-15.7-11.9-24.8-15.5-19.2-6.26-55.6-16.5-62.9 8.12z" fill="#71e3d0"/>
  <path d="m452 506c6.73-2.1 23.9 5.97 23.9 5.97l0.43 0.334 34.6 26.9-11.8 16.3-19 15.6-19.3-29.5-10.2-29.3s-1.56-5.38 1.4-6.3z" fill="#e3006f"/>
  <path d="m86.9-50 14.6-13.7 19.3 17.6 5.01 36.9-4.68 9.17s-6.22 11.1-11.7 11.6c-6.69 0.567-16.5-11.6-16.5-11.6l-12.5-9.53z" fill="#1ce39d"/>
  <path d="m16.2 134c1.16-5.52 3.48-16.2 10.1-19 3.34-1.42 10.5 2.98 10.5 2.98l36 45.8s-1.62 14.3-12.5 24.9c-1.56 1.52-8.71 12-10 10.3-8.66-11.1-11-36.3-21.2-51.9-3.34-5.09-13.6-9.07-12.8-13z" fill="#0038dc"/>
  <path d="m372 427c-14.9 7.27-46.5 42.6-31 53.2l10.8 7.36 36.9 6.08c3.11 5.59 7.66 12.5 14.2 13.7 11.9-7.34 29.8-8.65 40.5-19.5 4.82-4.93 8.5-18.9 8.5-18.9s-0.417-16-8.41-24.3c-6.77-6.99-21.2-11.5-21.2-11.5-0.055-0.0247-0.111-0.0478-0.172-0.0625-17.4 2.37-31.9-9.08-50-6.15z" fill="#b4da5d"/>
  <path d="m201 496c4.57-0.764 13.5 4.97 13.5 4.97l8.59 10.9-0.196 6.79-13.3 39.9-7.78-2.98-37.4-30.4 15.6-13.3s14.3-14.8 20.9-15.9z" fill="#550029"/>
  <path d="m144-36 38.5 18.1-15 17.9s-5.14 10-9.94 11.9c-8.93 3.52-20.2 4.56-25.9-3.13-1.69-2.26-1.28-8.77-1.28-8.77l5.04-30.8z" fill="#38e3df"/>
  <path d="m-54.2 475 39.9 3.59 14.3 11.6s21.2 8.4 29.9 4.92c5.24-2.08-7.72 15.1-7.72 15.1l-17.3 17.4-55.1-29.8z" fill="#e3e3c9"/>
  <path d="m29.9 0.189 0.149-0.189 2.32-2.94 20.7-20 11.7 3.96 16.6 19s11.4 7.54 12.3 18.7c0.284 3.72 0.176 7.35-3.44 11.5-4.26 4.9-3.48 5.74-12.2 2.75-17.1-5.89-48.1-32.8-48.1-32.8z" fill="#1c0024"/>
  <path d="m18.2 150c6.6-4.78 30.5 41.6 18 57.2-2.95 3.64-14-1.31-14-1.31l-42.8-27.2 20.6-15.4z" fill="#005528"/>
  <path d="m-32.7 343 10.8-5.21 21.9 33.9s9.61 11.6 16.6 17c5.21 3.99 22 4.14 19.6 11.5-3.89 11.8-36.3 15.1-36.3 15.1l-40.3 6.18-12.9 1.37 13.5-62.4z" fill="#e3aac9"/>
  <path d="m86.9 462 14.6-13.7 19.3 17.6 5.01 36.9-12.6 24.7-32.7-25z" fill="#1ce39d"/>
  <path d="m362 500c7.43-1.9 14.5-1.74 21.4 2.09 4.63 2.58 11.9 10.3 11.9 10.3l2.15 2.25-11.2 25.7-19.1 1.93-41.4-12 18.5-17.8s10.2-10.5 17.8-12.4z" fill="#aa0016"/>
  <path d="m-54.2-37.1 39.9 3.59 31.6 25.6 4.85 5.94-17.3 17.4-55.1-29.8z" fill="#e3e3c9"/>
  <path d="m-52.4 429 52.4-6.99c6.87-0.0632 7.08 4.14 13.9 5.54s6.97 8.35 3.92 16.3c-3.73 9.68-17.8 23.9-17.8 23.9l-5.6 5.73-46.2-7.54-1.61-33.9z" fill="#e3c7ec"/>
  <path d="m29.9 512 0.149-0.189s-0.0122-2.87 0.544-4.15c4.55-10.5 8.48-24.3 18.2-31.4 6.51-4.8 24.2-9.49 23.6-5.42-4.19 32 8.93 41 8.93 41l22.1 25.3-6 9.46-27.5 2.24z" fill="#1c0024"/>
  <path d="m57.6 348c2.3-4.47 21.8-5.86 26.1-8.8 1.11-0.759 16 0.859 23.9 1.87 9.81 1.25 21.3-0.696 29.2 5.17 12 8.87 15.8 24.3 20.5 39.9 1.22 4.02-22.8 13.8-33.5 21.7-11.7 8.58-9.77 11.2-32.4 19.6-5.85 2.18-39.6-8.41-49.2-28.5-2.49-5.21 6.56-33.7 15.4-50.9z" fill="#38aac3"/>
  <path d="m442 346c-22 0.22-34.5 3.53-37.3 9.94l-29.7 28.4c-2.89 1.61-6.04 3.39-9.66 5.44-8.2 4.71-3.17 15.9-0.723 24.1 0.267 0.533 16.3 4.6 48.1 12.2 1.4 0.34 11.1 6.16 30.3-4.12 12.2-6.54 10.7-32.2 14.5-49 13-23.1 2.89-27.2-15.5-27z" fill="#e3aa3f"/>
  <path d="m285 385c0.942 6.57-18.7 5.15-56.2 15.3-5.12 1.38-10.5-1.51-16.1-8.66-0.767-0.98 6.98-23.4 16.9-30.8 8.11-6.08 55 21.6 55.4 24.2z" fill="#71aaf5"/>
  <path d="m50.2 108c10.3-11.3 3.44 6.52 24.4 7.11 23.9 0.68 37.1 2.38 39.5 5.11 2.73 3.11 2 11.1-2.21 23.9-4.8 14.6-10.9 22-18.3 22.3-8.47 0.245-18.8-7.52-31.1-23.3-14.1-18-20.2-15.9-19.6-27 0.199-3.63 7.34-8.08 7.34-8.08z" fill="#1c3877"/>
  <path d="m138 411c11.1-4.13 20.2 1.36 27.2 16.5 4.49 9.68 3.86 32.3-7.76 44-7.44 7.44-14.4 3.78-21.7 1.36-7.34-2.42-7-5.93-19-17.5-7.68-7.39-10.1-15.9-7.37-25.5 1.77-6.13 11.3-12.4 28.7-18.9z" fill="#38c798"/>
  <path d="m145 344c8.31 10.3 13.9 34.9 24.9 38.2 15.4 3.18 39.3 0.201 43.6-9.67 11.3-13.5 8.12-35.7 6.47-51.2-0.446-4.18-13.5-10-21.4-10.9-35.8-3.78-59.5 26.4-53.5 33.5z" fill="#559c8f"/>
  <path d="m142 127q18.5 0.245 20.1 25.3 1.53 24.6-18.4 31-19.5 6.3-26.9-4.67-7.25-10.8-0.431-31.5 6.69-20.4 25.6-20.1z" fill="#383880"/>
  <path d="m371 327q26.9 6.88 29.4 11.5 3.3 6.25-0.684 15.2-5.38 12.1-22.6 21.9-23.2 13.1-24.4-15.3-1.61-38.4 18.4-33.3z" fill="#aaaa6e"/>
  <path d="m163 396c4.49-7.67 10.3-10.8 17.4-9.3 17.2 3.55 26.7 6.52 28.6 8.9 4.5 5.76 6.53 12.1 6.08 19-1.08 16.8-10.4 67.7-17.4 67.3-17-0.849-25.1 2.88-28.4-4.38 2.01-16.4 6.05-38.8 5.02-42.4z" fill="#55c761"/>
  <path d="m245 400c27.2-7.35 41.7-9.99 43.5-7.93 3.22 3.63 2.96 12-0.777 25.2-6.6 23.3-10.1 27.1-19.7 30.3-16.9 5.56-35.3 5.63-39.8-0.0385-7.92-10-8.41-10-7.86-18.6 0.973-15.1 9.16-24.8 24.6-28.9z" fill="#71c740"/>
  <path d="m225 328c0.28-4.49 4.2-11.6 5.41-12.4 20.8-13 19.9-6.38 30.2-6.17 18.9 0.377 47.8-3.91 54.9 13.5 5.43 13.3-15.6 24.1-22.6 36.6-2.11 3.82-1.68 10.3-5.8 11.7-20.1 6.92-57.4-27.1-57.5-27.6-1.66-6.84-4.89-11.1-4.67-15.7z" fill="#718e19"/>
  <path d="m94.2 172q11.9-0.348 19.2 10.5 7.37 10.9 6.78 15.4-0.589 4.52-6.3 16.8-5.78 12.5-35.8 2.47-30.4-10.1-13.1-27.4 17.5-17.5 29.3-17.8z" fill="#1c55cf"/>
 </g>
</svg>
