<?xml version="1.0" encoding="UTF-8"?>
<svg width="512px" height="512px" contentScriptType="text/ecmascript" contentStyleType="text/css" version="1.1" viewBox="0 0 512 512" xmlns="http://www.w3.org/2000/svg">
 <g class="voronoi" stroke-width=".5">
  <path d="m33.1-50.3 7.76 30.8-24.3 5.18-9.74-28.9z" fill="#00e358"/>
  <path d="m303 25.7s15.2-15.4 24.9-15.1c7.06 0.202 13.8 2.98 19.3 6.11 5.53 3.13 8.6 0.141 13.6 12.9 3.18 8.21-15.3 33.1-31.1 33.5-12.6 0.384-24.5-24.7-24.5-24.7z" fill="#8e00cf"/>
  <path d="m-13.2 126 13.2 3.6s6.35 1.56 7.76 6.57c1.98 7.04-7.76 13.5-7.76 13.5l-10.9 11.6-25.6 20.8-12.6-8.24-3.62-33.7z" fill="#e3388e"/>
  <path d="m43.6 370c-5.79 9.01-16.4 16.7-22.9 22.6-5.84 5.33-2.16 18.2-3.24 22.1-1.58 9.09 2.32 7.98 3.31 19.4 0 0-15.6 27.6-16 40-0.288 10.2 15 38.4 27.2 28 15-12.7 16-11.8 26.7-23.4l32-34.5c4.31-0.79 10.8-7.18 13.7-12.7 4.24-7.86 3.47-17.6 4.37-26.4 1.22-12 5.65-26 1.4-36.1-9.49 1.25-47.2-4.77-61.4-13.5-3.34-2.07-2.5 10-5.25 14.3z" fill="#09d06a"/>
  <path d="m495 426c5.9-0.703 17.5-3.5 17.5-3.5l18.6-2.48 2.17 0.445 0.978 25.5-21.8 22.3s-4.27 4.1-6.81 4.94c-14.8 4.88-30.5 9.75-30.3-0.526 0.285-19.7 2.28-28.5 1.58-45.9-0.169-4.23 12.1-6e-3 18.1-0.72z" fill="#e3c7ec"/>
  <path d="m318 479c6.85 5.73 13.6 5.01 29.2 11.3 8.06 3.24-11.8 21.6-11.8 21.6l-13.1 14.8-14.4 1.9 0.707-16.7 1.18-28s5.72-6.92 8.15-4.89z" fill="#8ee3e0"/>
  <path d="m22.6 6.47c-6.66-2.65-17.6 11.8-17.7 21-0.137 8.08 9.29 16.1 13.1 23.2 9.58 18 20.6 54.1 20.6 54.1 0.291 8.97 23.3 5.74 43.2 6.3 22.2 0.629 22.3-9.27 26.8-28.3 0.617-17.1 1.99-28.1-1.54-33.8-2.71-4.39-32-13.5-41.5-17.9-8.53-3.91-22.2-16.3-42.9-24.6z" fill="#0e0e3d"/>
  <path d="m477 481s13.6-3.37 20.2-1.51c5.9 1.67 14.5 10.5 14.5 10.5l17.3 14 4.85 5.94-17.3 17.4-28.7-15.5s-20.4-6.62-22-16.5c-1.21-7.49 11.1-14.4 11.1-14.4z" fill="#e3e3c9"/>
  <path d="m93.5 9.09c-1.36 3.64 11.2 16.7 14.6 28.5 1.86 6.31 3.94 15.8 4.31 23.8 0.746 16.2-8.25 42.9-4.21 48.4 1.93 2.2 21 9.51 34.9 11 15.8 1.68 24.6 1.57 26.4-0.336 2.05-2.17-13-45.5-10.1-58.2 0.784-3.49-2.26-23.8-2.8-26.8 0 0 3.12-12-6.28-20.1-5.2-4.48-6.83-0.398-12.9-3.52-7.34-3.76-3.26-6.76-11.5-6.98-2.42-0.0649-28 1.75-32.4 4.29z" fill="#380e63"/>
  <path d="m-41.1 70.8 11-5.22 42.6 33.1s10.1 10.6 5.04 16.7c-4.09 5.03-17.5 4.47-17.5 4.47l-31.6-2.72-23.3-10.1 3-20.3z" fill="#e31caf"/>
  <path d="m-12.9 332 24.8 6.79s30.7 3.37 31.9 16.9c1.07 12-16.1 29.7-24 33.8-11 5.75-9.13-10.5-12.8-16.4-2.85-4.58-7.06-14.6-7.06-14.6z" fill="#00aa73"/>
  <path d="m463 341c6.51-6.42 18.9-7.21 27.2-3.33 12.2 5.7 21.9 33.9 21.9 33.9l14.3 22.1 5.66 18.3-20 3.06-9.18 1.91s-14.3 11.2-24.3 0.325c-14.4-15.7-8.03-31.7-18.2-58.1-0.989-2.57-1.86-13.9 2.49-18.2z" fill="#e3aac9"/>
  <path d="m146 472c3.33 6.89 20.2 15.9 36.2 22 7.29 2.76-15 17.9-15 17.9l-9.94 11.9-28.6-3.55 6.41-39.1s9.44-12.2 10.9-9.18z" fill="#38e3df"/>
  <path d="m393 543 7.56-20.8 16.7-10.6s5.29-3.86 9.58-2.93c2.75 0.592 6.16 2.93 6.16 2.93l27.3 41.5-0.753 28.4-48.8-24.7z" fill="#c700b4"/>
  <path d="m-18 59.4 18-9.57s3.13-2.41 6.84-1.16c17.5 5.91 24.9 45.2 24.9 45.2l4.97 15.2-1.82 1.62s-15.1 1.83-15.1-1.53c-0.178-9.63-19.8-30.8-19.8-30.8z" fill="#001c34"/>
  <path d="m506 338c2.84-3.42 6.03-2.43 6.03-2.43l12 3.27 32.6 24.3-4.04 26.2-33.4-16.2-7.06-14.6s-12.3-13-6.03-20.6z" fill="#00aa73"/>
  <path d="m174 447 22.6-3.62 20.7 2.86s18.8 11.5 16.7 20c-4.6 18.4-33.9 23.2-52.9 21.3-11.6-1.13-30.1-8.28-29.3-19.1 0.825-12.3 22.2-21.4 22.2-21.4z" fill="#55e345"/>
  <path d="m453 506c8.23-7.46 22.1 5.61 22.1 5.61l0.43 0.334 34.6 26.9-11.8 16.3-19 15.6-19.3-29.5-10.2-29.3s-0.531-2.56 3.21-5.95z" fill="#e3006f"/>
  <path d="m86.9-50 14.6-13.7 19.3 17.6 5.01 36.9-4.68 9.17s-4.77 2.95-10.4 4.23c-8.29 1.88-17.7-4.23-17.7-4.23l-12.5-9.53z" fill="#1ce39d"/>
  <path d="m50.7 114c-5.4 0.0103-16.8-0.633-23.7 1.68s-17 3.64-18.1 10.2 2.63 25 2.63 25l28.2 52.5 13.8 8.34c16.6 10 13.5 5.06 23.8 5.27 41.6-4.56 19.3-46.6 24.6-59.1 5.36-12.4 4.79-9.1 7.03-15.8 4.56-13.6 5.88-21.6 3.94-23.8-1.7-1.93-14.5-3.24-38.4-3.92-10.5-0.297-18.4-0.44-23.8-0.43z" fill="#003bbb"/>
  <path d="m358 440c5.87-11.6 17.1 23.3 20.8 32.6 3.63 9.25 8.58 17.2 3.25 21.4-7.03 5.64-30.4-6.09-30.4-6.09s-34.1-3.8-29.7-12.8c3.54-7.25 29-21 36.1-35.1z" fill="#aae391"/>
  <path d="m188 495c2.37-8.84 21.1-2.4 34.8-11.1 7.9-5.04 0.227 28.1 0.227 28.1l-0.196 6.79-13.3 39.9-7.78-2.98-37.4-30.4 15.6-13.3s3.41 0.101 8-17z" fill="#550029"/>
  <path d="m144-36 38.5 18.1-15 17.9s-4.87 3.45-9.68 5.34c-8.93 3.52-21.7 6.03-26.7-0.859-1.67-2.27-0.75-4.48-0.75-4.48l5.04-30.8z" fill="#38e3df"/>
  <path d="m-66.9-14.3 30.2 14 35 27.2-11.8 16.3-19 15.6-19.3-29.5z" fill="#e3006f"/>
  <path d="m-54.2 475 39.9 3.59 31.6 25.6 4.85 5.94-17.3 17.4-55.1-29.8z" fill="#e3e3c9"/>
  <path d="m450 433s14.5-10.7 19.2-6.03c10.3 10.3 0.82 50 0.82 50l-8.98 17-14.7 11.6-43.6 2.87-14.2-13.2s-12.5-30.8-3.57-33.3c23.6-6.48 65-28.9 65-28.9z" fill="#c7e30d"/>
  <path d="m29.9 0.189 0.149-0.189 2.32-2.94 20.7-20 11.7 3.96 16.6 19s5.44 6.8 7.49 10.6c4.69 8.69 20.1 18.6 10.9 27.6s-42.2-18-50.7-21.8c-15-6.71-19.1-16.2-19.1-16.2z" fill="#1c0024"/>
  <path d="m13.9 159c4.64 12.5 9.96 21.8 20.3 40.5 1.22 2.21-7.03 7.97-7.03 7.97l-4.91-0.84-42.8-27.2 20.6-15.4s12.6-8.33 13.9-4.97z" fill="#005528"/>
  <path d="m-32.7 343 10.8-5.21 36.2 56s1.66 13-1.72 18.4c-3.57 5.71-12.6 2.99-12.6 2.99l-40.3 6.18-12.9 1.37 13.5-62.4z" fill="#e3aac9"/>
  <path d="m84.5 457c4.92-4.49 10.6-9.83 16.9-9.03 8.65 1.09 26 14.5 30.1 27.4 2.82 8.81-5.84 27.1-5.84 27.1l-12.6 24.7-20.3-15.5s-28.6-16.1-29-29.7c-0.336-11.5 13-18.1 20.6-25z" fill="#1ce39d"/>
  <path d="m363 500c7.56-2.17 14.9-2.33 21.4 0.56 4.85 2.15 11 11.5 11 11.5l2.15 2.25-11.2 25.7-19.1 1.93-41.4-12 18.5-17.8s11.1-9.9 18.7-12.1z" fill="#aa0016"/>
  <path d="m-54.2-37.1 39.9 3.59 31.6 25.6 4.85 5.94-17.3 17.4-55.1-29.8z" fill="#e3e3c9"/>
  <path d="m-52.4 429 52.4-6.99 8.12-2.07s3.45-1.49 5.72 1.03c8.79 9.75-0.914 24.6-6.73 35-2.99 5.37-7.11 11.8-7.11 11.8l-5.6 5.73-46.2-7.54-1.61-33.9z" fill="#e3c7ec"/>
  <path d="m233 475c10.8-3.5 33.8-9.02 49.4-14.2 7.56-2.51 14.5 8.66 17.9 15.9 4.93 10.7 0.782 35.2 0.782 35.2l0.202 9.07-3.41 10-57.4-17.8-1.23-1.32s-8.91-9.52-9.91-14.3c-1.82-8.61-4.67-19.9 3.69-22.7z" fill="#71e3d0"/>
  <path d="m29.9 512 0.149-0.189 2.32-2.94 20.7-20 11.7 3.96 38.6 44.3-6 9.46-27.5 2.24z" fill="#1c0024"/>
  <g>
   <path d="m300 43.3c-5.73 0.141-17 8.6-33.8 25.4-6 6-7.07 5.39-8.88 9.27-7.52 16.1-12.1 37.8-5.88 52.9 10.5 9.34 14.6 19.9 26 27.5s14.4 7.87 41.7 15.6c19 5.4 29.9 6.93 32.8 4.57 1.98-1.65-0.627-13.9-7.81-36.9-12-25.7-13.4-47.9-20.2-72.7-2.79-10.1-4.64-1.81-16.8-22.5-0.74-1.26-5.54-3.22-7.15-3.18z" fill="#842586"/>
   <path d="m289 369c2.39-4.29 0.757-0.855 11-5.28 17.1-7.36 28.4-19.1 34.2-5.31 2.03 24.5 23.4 32.3 24.2 50.2 0.325 7.53-11.3 1.04-26 0.224-24.6-1.36-40.7-4.59-43.4-10.3-4.41-9.58-3.78-10.7-4.04-15.9s2.63-11 4.07-13.6z" fill="#8eaa96"/>
   <path d="m140 397c9.82 1.85 20 3.78 27.1 21.1 4.21 9.08-0.344 28.7-12 40.3-7.44 7.44-12.9 11.6-16.4 12.4-2.24 0.53-9.36-4.98-21.4-16.5-7.68-7.39-10.1-33.9-4.9-51.8 3.33-11.5 12.2-8.34 27.5-5.45z" fill="#38c7ec"/>
  </g>
  <path d="m361 108c14.2-6.28 24.7-7.22 31.5-2.83 7.71 4.94 13.3 16.2 10.6 33.3-3.01 19.3-9.7 30.2-14 33.1-4.79 3.26-10.6 4.62-17.3 4.09-7.62-0.599-14.3-10.1-20-28.4-6.46-20.6-3.39-33.7 9.2-39.3z" fill="#aa3878"/>
  <path d="m287 291q0.933-0.299 56 27.1 6.24 3.11 6.85 5.91 0.07 0.317-15.4 20.3-1.75 2.26-38.5 18.1-4.17 1.8-15.9-61.7-1.33-7.19 6.91-9.83z" fill="#8e8eda"/>
  <path d="m121 341q9.27-11.6 17.3-10.5 36 4.69 39.4 7.59 15.3 13.1 15.3 14.4-0.06 6.25-1.28 10.2-5.5 17.8-10.7 21-23.5 14.6-30.4 13.3-30.9-5.83-32.3-9.29-6.55-15.5-5.24-20.7 5.9-23.4 7.96-26z" fill="#38aa36"/>
  <path d="m358 330c-3.5-0.0779-16.4 8.85-18.4 16.9-4.31 17.6-0.503 21.6 18.4 51.1 4.17 6.51 0.575 8.92 6.53 14.6 7.66 7.25 16.2 3 48 10.6 1.43 0.343 13.8 4.32 35.5 5.18 1.64-0.817 5.92-4.29 5.68-5.06-2.6-6.42-8.07-6.44-17.7-17-9.59-10.6-17.2-13.2-24.6-21-11.8-12.6-27-38.6-31.1-41.3l-20.9-13.6c-0.387-0.252-0.838-0.374-1.34-0.385z" fill="#b9b950"/>
  <path d="m154 186c8.34-1.46 15.6-6.15 17.3-4.75 0.602 0.49 2.59-2.35 3.39 15 0.28 6.08-27.4 32.5-43.6 33.2-16.2 0.657-24.7-6.94-26.4-14.4-0.617-2.62-4.24-2.64 2.1-18.9 2.22-5.67 23.3-6.02 47.2-10.2z" fill="#385580"/>
  <path d="m259 297q8.72-4.02 10.6-3.58 3.3 0.757 8.05 26.5 8.29 44.9 6.2 48.7-3.65 6.55-23-6.22-33.8-22.3-24-37.1 17.1-25.9 22.1-28.2z" fill="#718e60"/>
  <path d="m71.2 329c15.4-0.389 37 1.33 43.6 15.2 3.25 6.8-4.92 21-7.6 21.3-27.9 2.88-41.3-3.72-51.3-10.1-9.91-6.42-16.9-6.65-14.6-14.2 0.872-2.97 19.1-11.9 29.9-12.2z" fill="#1caad1"/>
  <path d="m363 420c0.149-1.76 51.4 5.92 79.6 12.7 4.99 1.2-41 21.4-54.8 26.3s-12.6-3.52-21.8-20.2c-1.63-2.95-3.8-8.79-2.96-18.7z" fill="#aac76f"/>
  <path d="m202 353c5e-3 -0.503 6.98-3.28 20.9-8.34 1.53-0.553 18.3 9.71 50.2 30.8 3.5 2.31 8.03 1.2 4.98 6.38s-18.6-2.18-27.7-4.37c-15.1-3.63-18 4.59-44.2-14.5-2.87-2.09-4.28-5.42-4.24-10z" fill="#71aadb"/>
  <path d="m415 53.6q40.4 25 38.1 33.6-4.26 16-18.3 17.4-26.2 2.6-33.8-2.29-14.2-9.11-11.9-27.6 4.24-34.5 25.9-21.1z" fill="#c71c5c"/>
  <path d="m235 295q13.9 3.08-5.37 32.2-7.66 11.6-24.3 17.6-6.61 2.4-20-9.02-5.33-4.54 9.07-36 5.73-12.5 40.6-4.8z" fill="#558eb0"/>
  <path d="m342 415c9.58 0.528 14.7 1.42 15.4 2.67 0.223 0.401-0.0407 5.03-0.792 13.9-0.241 2.84-9.8 13.7-28.7 32.6-6.06 6.06-11.2 9.39-15.6 10-1.39 0.197-8.35-4.87-20.9-15.2-4.02-3.31-4.49-27.7 1.44-48.6 1.9-6.71 19.2 3.06 49.1 4.71z" fill="#8ec7ba"/>
  <path d="m371 36.4c9.43-1.33 10.5-3.79 14.5-1 4.2 2.96 5.07 7.45 4.16 14.8-3.43 27.9-3.5 43.1-9.1 45.5-21.2 9.38-33.7 23-34.8 22.5-4.07-1.87-6.45-5.56-9.76-9.85-2.14-3.52-5.99-22.9-6.02-26.2-0.115-12.4 0.799-8.76 6.27-14.2 20.7-20.7 32.3-31.2 34.8-31.6z" fill="#aa1cc3"/>
  <path d="m398 358c0.231-4.25 2.37-7.46 6.41-9.62 3.37-1.8 15.8-2.81 37.4-3.02 18-0.178 21.1 32.6 26.6 64.8 13.9 26.5-26 0.562-45.9-19.5-16.6-16.7-24.7-27.6-24.5-32.7z" fill="#c7aa89"/>
  <g>
   <path d="m197 365c-4.28 2.34-0.982 6.39-3.4 14.2-0.862 2.78 21.6 34.4 26.6 54.8 2.33 9.51 15.5 27.4 19.9 33.1 4.49 5.67 20.9-5.32 37.8-10.9 9.55-3.15 2.47-12.6 7.47-30.2 2.83-9.99 1.99-19.9-2.51-29.7-1.31-2.84-4.11-4.42-8.38-4.75-9.82-3.39-47.3-8.81-66.3-22.7-1.94-1.41-7.73-5.8-11.2-3.91z" fill="#63b9d3"/>
   <path d="m161 128c3.64 0.388 7.52 16.1 11.6 47.2 0.576 4.34-34.8 10.6-63.1 15.5-3.95 0.691-3.3-14.8-5.53-25.1-2.23-10.3 6.6-9.47 13.6-39.1 1.2-3.58 17.4-1.23 43.4 1.54z" fill="#38383c"/>
   <path d="m170 399c13.5-8.41 22.7-9.31 27.6-2.71 11.7 15.9 17.4 25.9 17.1 30 11.9 26.3-4.45 14.5-11.5 14.1-17-0.849-32.7 14.6-31.1-10.4 1.17-18.1-7.69-27.5-2.09-30.9z" fill="#55c73d"/>
   <path d="m413 110c14.5-1.44 38.4-0.53 40.1 2.41 2.07 3.46 2.41 12.4 1.04 26.9-1.62 17-10.1 25.8-25.4 26.4-18 0.654-25.7-7.39-23.1-24.1 3.07-19.7-5.01-30.3 7.32-31.5z" fill="#c738d8"/>
  </g>
 </g>
</svg>
