<?xml version="1.0" encoding="UTF-8"?>
<svg width="512px" height="512px" contentScriptType="text/ecmascript" contentStyleType="text/css" version="1.1" viewBox="0 0 512 512" xmlns="http://www.w3.org/2000/svg">
 <g class="voronoi" stroke-width=".5">
  <path d="m458-37.1 39.9 3.59 31.6 25.6 4.85 5.94-17.3 17.4-55.1-29.8z" fill="#e3e3c9"/>
  <path d="m322 28.1s1.6-3.39 3.17-4.14c3.36-1.6 11.2 0.316 11.2 0.316s20.9 2.57 22.8 9.49c1.81 6.68-25 28.9-25 28.9s-4.42 6.44-7.14 5.27c-12.3-5.29-4.97-39.9-4.97-39.9z" fill="#8e0084"/>
  <path d="m-13.2 126 13.2 3.6s5.07 1.27 6.48 6.28c1.98 7.04-6.48 13.8-6.48 13.8l-10.9 11.6-25.6 20.8-12.6-8.24-3.62-33.7z" fill="#e3388e"/>
  <path d="m27.5 423c21.2 2.85 40.6 9.2 57 16.8 9.28 4.32-19.1 40.4-19.1 40.4s-8.16 8.18-11.4 7.07c-12.4-4.3-24.3-37.7-24.3-37.7s-11.1-27.8-2.3-26.6z" fill="#00c73e"/>
  <path d="m496 424 15.6-2.2 18.6-2.48 2.17 0.445 0.978 25.5-27.4 28s-34.7 0.302-45.1-11.4c-7.53-8.44-9.72-8.98-3.72-17.1 7.66-10.3 38.7-20.8 38.7-20.8z" fill="#e3c7ec"/>
  <path d="m326 476c8.77 0.715 17 4.17 20 16.2 2.07 8.44-11.1 20-11.1 20l-13.1 14.8-14.4 1.9 0.707-16.7s-0.593-19.8 4.18-27.8c1.62-2.72 8.35-8.8 13.7-8.37z" fill="#8ee3e0"/>
  <path d="m4.93 27.5s7.91-19.6 14.9-21.1c13-2.79 27.3 11 34.5 22.2 5.6 8.59 23.5 12.6 15.3 18.7-10.2 7.53-45.2 0.44-60-6.91-7.25-3.59-4.66-12.9-4.66-12.9z" fill="#00009c"/>
  <path d="m445-14.3 30.2 14 0.43 0.334s19.9 11.5 29.9 19.6c7.83 6.33 2.68 23.7-3.78 29.7-5.01 4.71-14.7 11.8-22.4 9.41-11.2-3.44-14.1-18.9-19.3-29.5-4.56-9.27-10.2-29.3-10.2-29.3z" fill="#e3006f"/>
  <path d="m-32 187 46.8 19.7-13 27.9-42.8-5.79-1.28-33.1z" fill="#e355c7"/>
  <path d="m508 315c0.353-2.5 4.2-5.97 4.2-5.97l6.24-7.05 25.7-8.73 24.8 23-13 25.3-42-12.8-1.68-3.53s-4.75-6.41-4.2-10.3z" fill="#008ebf"/>
  <path d="m23.5 449c3.65 0.689 19.6 32.2 21.8 36.5 4.03 7.98-9.38 19.2-18.3 19.6-10.8 0.477-22.7-11-24.2-21.7-1.5-10.8 16.8-35.1 20.7-34.4z" fill="#00e3d4"/>
  <path d="m458 475c9.04-9.85 39.9 3.59 39.9 3.59l31.6 25.6 4.85 5.94-17.3 17.4-55.1-29.8s-9.23-17.1-4.02-22.8z" fill="#e3e3c9"/>
  <path d="m103 13.1c2.7-4.82 8.65 0.261 14.9-3.06 8.93-4.78 17.7 8.27 29.4 7.76 7.44-0.324 16.5 15 16.5 15s3.23 17.4-2.14 22.8c-6.13 6.2-17.5 4.71-26 2.72-12.9-3.02-27.1-9.7-33.5-21.2-3.81-6.8-3.87-15.5 0.925-24.1z" fill="#3800b4"/>
  <path d="m-41.1 70.8 11-5.22 42.6 33.1s9.02 11.1 4 17.3c-4.09 5.03-16.5 3.9-16.5 3.9l-31.6-2.72-23.3-10.1 3-20.3z" fill="#e31caf"/>
  <path d="m533 148 16.4 59.2-1.36 0.59-14-1.31-22.2-14.1s-12.6-4.97-12.9-13.1c-0.326-8.58 12.9-15.4 12.9-15.4z" fill="#005528"/>
  <path d="m-12.9 332 24.8 6.79s45.7 19.1 39.9 36.1c-2.34 6.8-21.8-1.43-37.4 6.25-3.27 1.61-7.4-8.04-7.4-8.04l-7.06-14.6z" fill="#00aa73"/>
  <path d="m479 343s2.11-3.91 5.94-2.83c13 3.63 26.8 31.5 26.8 31.5l14.3 22.1 5.66 18.3-20 3.06s-11.1 0.63-34.4 12.9c-6.05 3.18-21.9 11.2-21.2 6.91 2.58-14.9 16-74.6 16-74.6z" fill="#e3aac9"/>
  <path d="m143 473s34.4-35 34.6-20.9c0.765 49.2-10 59.5-10 59.5l-9.94 11.9-28.6-3.55 1.37-8.35s1.32-22.8 7.14-31.4c1.89-2.8 5.38-7.24 5.38-7.24z" fill="#38e3df"/>
  <path d="m393 543 7.56-20.8 16.7-10.6s7.11-4.64 11.4-3.72c2.75 0.592 4.34 3.72 4.34 3.72l27.3 41.5-0.753 28.4-48.8-24.7z" fill="#c700b4"/>
  <path d="m-18 59.4 18-9.57s6.82-7.12 10.4-5.52c15.3 6.83 41.7 6.62 48.7 10.6 3.09 1.73-13 30.4-13 30.4s-6.22 21-15.1 23.6c-4.31 1.25-14.7-12.9-14.7-12.9l-16.4-17.7z" fill="#001c34"/>
  <path d="m471 70.8c3.44-2.26 6.72-9.47 10.1-7.16 10.1 7.01 31.1 25.4 31.1 25.4l12.5 9.69 6.92 22.9-51-4.39s-19.2-2.73-23.3-10.1c-3.32-5.98-3.39-20.7 1.59-29 2.44-4.06 8.21-4.73 12.2-7.33z" fill="#e31caf"/>
  <path d="m499 332c1.61-3.05 12.8 3.16 12.8 3.16l12 3.27 32.6 24.3-4.04 26.2-33.4-16.2-7.06-14.6s-16.5-19.2-12.8-26.2z" fill="#00aa73"/>
  <path d="m187 445c9.18-5.76 20.4-2.65 29.5 0.276 6.29 2.03 19 19.6 17.3 31.4-1.2 8.27-9.07 15.1-17.8 17.6-11.2 3.23-22.7 2.85-33.1 10.7-12.4 9.36-2.45-16.7-3.03-29-0.579-12.3-1.79-25.3 7.19-31z" fill="#55e39c"/>
  <path d="m450 501c8.23-7.46 25.3 10.7 25.3 10.7l0.43 0.334 34.6 26.9-11.8 16.3-19 15.6-19.3-29.5-10.2-29.3s-3.78-7.61-0.039-11z" fill="#e3006f"/>
  <path d="m86.9-50 14.6-13.7 19.3 17.6 5.01 36.9-4.68 9.17s-3.88 5.91-9.53 7.19c-8.29 1.88-18.6-7.19-18.6-7.19l-12.5-9.53z" fill="#1ce39d"/>
  <path d="m361-16.4 23.1 4.88 13.1 13.8s-8.13 18.8-15.7 24.4c-5.17 3.77-14.6 3.27-14.6 3.27s-17.9-4.22-31.5-10.5c-6.84-3.14 8.61-19.4 8.61-19.4z" fill="#aa0016"/>
  <path d="m19.1 134c-1.95-4.95-1.31-12.5 1.58-15.9 3.49-4.06 16.1-0.88 16.1-0.88l36 45.8-27.7 36.2s-3.22 4.41-5.32 3.8c-2.66-0.768-3.14-7.69-3.14-7.69s-8.06-37.5-17.5-61.4z" fill="#003866"/>
  <path d="m357 438c3.98-4.21 19.7 36.3 19.7 36.3l0.542 20.5-26.2-6.56s-22.5-15.3-22.3-19.7c0.313-6.39 18.4-20.1 28.3-30.6z" fill="#aae33b"/>
  <path d="m195 502c8.25-2.58 20.2-7.32 26.2 0.0511 1.66 2.05 1.97 10.4 1.97 10.4l-0.196 6.79-13.3 39.9-7.78-2.98-37.4-30.4 15.6-13.3s8.47-8.45 14.9-10.4z" fill="#550029"/>
  <path d="m144-36 38.5 18.1-15 17.9s-6.55 7.72-11.4 9.62c-8.93 3.52-18.9 7.15-24.6 0.105-1.78-2.19-1.2-9.72-1.2-9.72l5.04-30.8z" fill="#38e3df"/>
  <path d="m387 30.4c-2.05-7.1 12.9-19.7 12.9-19.7l27.8-17.7 4.63 7.05s20.2 26.6 27.3 41.5c3.65 7.7 15.8 19.5 7.69 24.4-15.6 9.33-39-11.7-57.2-20.7-8.22-4.07-21-7.68-23.1-14.9z" fill="#c700b4"/>
  <path d="m447 237c-19.4 5-22.6 0.05-30.6 6.76-6.51 5.46-7.76 15.3-9.76 23.5-1.55 6.37-4.17 17-1.64 19.6-1.46 8.01 9.41 27.4 8 37.1-2.7 18.7 7.42 17.3 25.8 17.1 29.3 1.36 20.4-0.188 30.4-2.27 8.33-1.75 17.7-2.3 24.1-8.49 4.88-4.73 12.1-15.4 9.11-18.2-11.5-11.2-23.7-25.2-33-39.7-4.3-6.75-7.48-18.1-10.3-21.7-4.93-6.3-6.81-12.9-12.1-13.8z" fill="#d08430"/>
  <path d="m-54.2 475 39.9 3.59 31.6 25.6 4.85 5.94-17.3 17.4-55.1-29.8z" fill="#e3e3c9"/>
  <path d="m417 433s20.5-3.38 28.8 1.45c2.86 1.66 5.34 8.38 5.34 8.38s3.03 42.2-0.911 47.9c-1.66 2.38-3.5 3.82-10.3 7.36-6.76 3.54-19.1 13.3-31.2 11.1-6.37-1.14-24.5-13.4-24.5-13.4s-4.9-19-2.38-27.9c4.48-15.9 35.1-34.9 35.1-34.9z" fill="#c7e30d"/>
  <path d="m29.9 0.189 0.149-0.189 2.32-2.94 20.7-20 11.7 3.96 16.6 19s7.86 8.24 16.5 13.7c3.68 2.34-1.91 11.1-1.93 20.1-0.0208 9.2-26 3.24-26 3.24z" fill="#1c0024"/>
  <path d="m12.2 142c4.91-22.9 25.4 65.4 25.4 65.4l-1.36 0.59-14-1.31-42.8-27.2 20.6-15.4s9.78-10.8 12.2-22z" fill="#005528"/>
  <path d="m403 172c-1.08 20.5-0.895 24.1 4.67 39 7.31 19.7 16.4 25.8 27.9 22.9 7.12-1.84 12.3-3.36 15.5-4.57l61.1 5.25 1.76 0.236 13-27.9-14.7-6.21s-20.9-10.5-32-13.5c-7.79-2.11-19.4-2.12-26.5-6.04-17-9.43-38.7-17.3-50.6-9.16z" fill="#e355c7"/>
  <path d="m-32.7 343 10.8-5.21 36.2 56 5.66 18.3-60.2 9.24-12.9 1.37 13.5-62.4z" fill="#e3aac9"/>
  <path d="m67.1 485c9.13-14.7 17.8-35.1 34.4-36.4 5.98-0.479 9.73 7.05 14.3 11 5.64 4.82 14.7 9.52 16.1 15.4 2.76 11.8-10.8 37.4-10.8 37.4l-7.9 15.5-32.7-25s-17.6-11-13.4-17.8z" fill="#1ce39d"/>
  <path d="m440 110c-3.29 0.022-7.19 0.257-11.7 0.707-12.3 1.22-20 11.7-23.1 31.4-2.61 16.7-13.5 27.7 8.42 26.6 22-1.05 35.6 4.96 38.2 6.17 0 0 9.63 9.37 23.5 7.67 10.9-1.33 25.6-20.8 25.6-20.8l26-27.6-28.2-7.71c-16-4.37-45.5-16.5-58.7-16.5z" fill="#e3388e"/>
  <path d="m361 499c7.56-2.17 23.1 1.39 23.1 1.39l13.1 13.8-11.2 25.7-19.1 1.93-41.4-12 18.5-17.8s9.43-10.7 17-12.9z" fill="#aa0016"/>
  <path d="m-54.2-37.1 39.9 3.59 31.6 25.6 4.85 5.94-17.3 17.4-55.1-29.8z" fill="#e3e3c9"/>
  <path d="m500 61.6c1.09-6.72 12.3-11.8 12.3-11.8l10.4-5.52 33.8 35.2-7.42 29.5-1.82 1.62-11.2-7.47-23.7-24.9s-13.7-8.12-12.3-16.7z" fill="#001c34"/>
  <path d="m457 236c9.28-9.56 27.3 1.29 42.6 1.68 10.3 0.264 12.2 34.8 12.2 34.8l0.733 1.03-0.733 5s0.201 21.2-6.89 24.3c-9.68 4.11-22.1-19.8-22.1-19.8s-14.6-22.8-20.7-34.8c-1.97-3.91-8.59-8.49-5.07-12.1z" fill="#e37192"/>
  <path d="m-52.4 429 71-9.47 2.17 0.445s4.64 14.7 1.59 22.6c-3.73 9.68-22.4 25.1-22.4 25.1l-5.6 5.73-46.2-7.54-1.61-33.9z" fill="#e3c7ec"/>
  <path d="m238 476s19.3-17.7 31.3-17.6c12 0.0764 15.1 6.59 25.7 12.9 10.1 6 6.11 40.3 6.11 40.3l0.202 9.07-3.41 10-57.4-17.8-1.23-1.32s-8.91-5.91-9.91-10.7c-1.82-8.61 8.62-24.9 8.62-24.9z" fill="#71e3d0"/>
  <path d="m29.9 512 0.149-0.189 2.32-2.94s13.9-16 23.3-18.1c4.01-0.899 9.11 1.98 9.11 1.98l38.6 44.3-6 9.46-27.5 2.24z" fill="#1c0024"/>
  <path d="m43.4 117c4.25-9.5 10.1-3.28 31.1-2.68 23.9 0.677 36.7 1.98 38.4 3.92 1.94 2.21 3.57 10.7-0.995 24.3-5.21 15.6 2.82 27.6-20.3 23.1-15.9-0.718-17-7.58-29.3-23.4-14.1-18-23.2-15.6-19-25.2z" fill="#1c3877"/>
  <path d="m357 186c2.39-1.99 7.9 1.02 14.4-2.13 34.4-16.5 24.2 10.6 34.4 29.2 10 18.4 4.43 30.5-0.0475 37.2-4.41 6.57-8.16 10.3-11.2 11.1-3.03 0.79-13.9-4.52-32.7-15.9-18.5-11.3-24.6-23.5-18.1-36.8 6.42-13.1 10.8-20.6 13.3-22.6z" fill="#aa5580"/>
  <path d="m288 377q3.59-6.44 19-13.1 25.6-11 34.4 9.66 14.6 34.5 14.4 35.3-0.413 1.45-22.6 0.224-37-2.04-40.9-10.7-6.61-14.4-6.5-15.6 0.188-2.02 2.34-5.89z" fill="#8eaa62"/>
  <path d="m142 398c31.1 7.23 17.9 15 24.5 29.2 4.21 9.08 0.505 19.4-11.1 31-7.44 7.44-12.9 11.6-16.4 12.4-2.24 0.53-9.36-4.98-21.4-16.5-7.68-7.39-12.8-19.1-7.62-37.1 3.33-11.5-3.27-27.3 32-19.1z" fill="#38c735"/>
  <path d="m70.2 52.4c8.29-8.29 10.4-5.92 18.8-8.29 8.61-2.42 30.8 10.9 34.2 16.5 3.53 5.73-8.97 11.6-9.58 28.7-0.63 17.5-14.2 19.7-36.4 19.1-22.7-0.642-37.7 6.44-34.9-5.16 2.89-11.9 19.8-42.8 27.9-50.9z" fill="#1c25d7"/>
  <path d="m361 108c14.2-6.28 24.7-7.22 31.5-2.83 7.71 4.94 10.2 16 7.55 33.1-3.01 19.3-6.64 30.4-10.9 33.3-4.79 3.26-17.6 9.98-24.3 9.45-7.62-0.599-7.31-15.4-13.1-33.7-6.46-20.6-3.39-33.7 9.2-39.3z" fill="#aa3878"/>
  <path d="m287 291q0.933-0.299 56 27.1 6.24 3.11 6.85 5.91 0.07 0.317-15.4 20.3-1.75 2.26-38.5 18.1-4.17 1.8-15.9-61.7-1.33-7.19 6.91-9.83z" fill="#8e8eda"/>
  <path d="m123 336c6.18-7.72 10.5-6.06 15.9-5.37 24 3.12 27.5 1.49 39.4 7.59 6.24 3.2 12.9 7.84 15.3 14.4 1.16 3.23-0.468 7.57-1.28 10.2-3.67 11.8-0.435 18.4-6.29 24.4-8.42 8.63-30.2 10.8-34.8 9.93-20.6-3.89-37.4-5.49-38.3-7.79-4.37-10.4-3.87-25.7-3-29.2 3.93-15.6 11.8-22.5 13.1-24.2z" fill="#38aab0"/>
  <path d="m398 373q52.3 52.7 52.3 52.8 0.049 0.39 2e-3 0.487-1.04 2.15-2.51 2.09-32.6-1.29-34.7-1.8-47.7-11.4-47.7-11.5-1.32-2.37-1.29-2.47 0.633-2.22 1.97-3.93 29.6-38 32-35.6z" fill="#c7c716"/>
  <path d="m311 134c20.6-15.1 18.9-19.9 21-18.9 3.03 1.39 7.05 10.1 12.1 26.1 7.18 22.9 9.79 35.2 7.81 36.9-2.83 2.36-13.8 0.835-32.8-4.57-20.2-2.33-16.2-3.99-18.6-10.7-3.48-9.58-3.88-18.2 10.5-28.7z" fill="#8e38b9"/>
  <path d="m259 297q8.72-4.02 10.6-3.58 3.3 0.757 8.05 26.5 8.29 44.9 6.2 48.7-3.65 6.55-23-6.22-33.8-22.3-24-37.1 17.1-25.9 22.1-28.2z" fill="#718e60"/>
  <path d="m71.2 329q40.2 14.5 39.6 17-6.58 26.1-10.6 26.5-41.8 4.32-43.1 2.07-13.3-23.5-11.2-25.5 21.4-21.4 25.3-20z" fill="#1caa20"/>
  <path d="m363 420q0.224-2.63 42.6 7.51 7.48 1.79-22.3 31.6-5.27 5.27-19.1-19.8-2.44-4.43-1.17-19.3z" fill="#aac7cf"/>
  <path d="m294 191c4.88-7.61 9.01-19.1 22.4-15.3 32.9 9.35 34.6 5.93 30.8 13.5-9.19 18.7-20.8 37.2-21.7 37.8-2.18 1.26-6.58 0.163-13.2-3.3-16.3-8.54-18.2-4.55-21.8-12-3.01-6.28-0.198-14.7 3.56-20.6z" fill="#8e550f"/>
  <path d="m202 353q7e-3 -0.754 20.9-8.34 2.29-0.83 50.2 30.8 5.24 3.46 4.98 6.38-0.03 0.319-29.4 8.82-3.21 0.931-42.5-27.6-4.3-3.13-4.24-10z" fill="#71aadb"/>
  <path d="m17.2 389c14.3-14.3 43.6-7.04 49.8-7.68 24.3-2.52 37-2.49 38.1 0.078 4.26 10.1 5.52 18.1 3.79 24.1-6.8 23.5 0.222 29.5-10.6 35.4-4.65 2.53-6.13-1.17-15.3-4.44-35.9-12.8-53.8-19.3-53.9-19.4-0.232-0.368-2.29-5.16-2.02-6.16 1.07-3.91-13.6-18.3-9.93-21.9z" fill="#1cc7b1"/>
  <path d="m415 53.6q40.4 25 38.1 33.6-4.26 16-18.3 17.4-26.2 2.6-33.8-2.29-14.2-9.11-11.9-27.6 4.24-34.5 25.9-21.1z" fill="#c71c5c"/>
  <path d="m84.6 169c6.83-0.199 23 3.35 29 10.8 6.01 7.55 4.37 19.4 0.114 30.2-4.3 11-16.4 13.2-36.4 6.55-20.2-6.72-34.6-13.8-23.1-25.3 11.6-11.6 19.5-30.2 30.4-22.3z" fill="#1c5549"/>
  <path d="m322 243q4.07-8.62 4.38-8.8 4.29-2.48 8.13-0.151 52.2 31.7 50.2 34-26.3 31.6-28.9 27.7-34.2-52.2-33.9-52.8z" fill="#aa711c"/>
  <path d="m235 295q13.9 3.08-5.37 32.2-7.66 11.6-24.3 17.6-6.61 2.4-20-9.02-5.33-4.54 9.07-36 5.73-12.5 40.6-4.8z" fill="#558eb0"/>
  <path d="m342 415c9.58 0.528 14.7 1.42 15.4 2.67 0.223 0.401-0.0407 5.03-0.792 13.9-0.241 2.84-9.8 13.7-28.7 32.6-6.06 6.06-11.2 9.39-15.6 10-1.39 0.197-22.1-7.11-34.6-17.4-4.02-3.31 11.1-25.2 17-46.1 1.9-6.71 17.3 2.76 47.2 4.4z" fill="#8ec7ba"/>
  <path d="m371 36.4q14.1-2 14.5-1 1.18 3.77-0.179 14.9-5.15 41.9-13.5 45.6-31.7 14.1-33.3 13.3-6.1-2.8-6.95-4.2-3.22-5.28-3.26-10.2-0.173-18.6 8.04-26.8 31-31 34.8-31.6z" fill="#aa1c3c"/>
  <path d="m334 267q23.4 35.8 21 40.9-4.31 9.08-26.5-1.96-39.2-19.5-27.8-33.8 20-25.3 33.3-5.1z" fill="#8e715f"/>
  <g>
   <path d="m398 358c0.231-4.25 2.37-7.46 6.41-9.62 3.37-1.8 15.8-2.81 37.4-3.02 48.3-5.54 20.2 25.2 17.7 54.3-4.99 22.9-1.57 34.4-37-8.98-16.6-16.7-24.7-27.6-24.5-32.7z" fill="#c7aa2b"/>
   <path d="m258 394q20.8-6.02 24.6 2.29 6.76 14.7 2.51 29.7-7.5 26.5-21.8 31.2-25.3 8.34-32-0.165-11.9-15-11.4-22.5 0.85-13.2 10.1-21.8 16.3-15.2 28.1-18.6z" fill="#71c7ba"/>
   <path d="m153 129c10.1 9.1-0.358 9.43 3.77 40.5 0.576 4.34 1.75 14.7-26.5 19.6-3.95 0.691-11.2-5.55-21.6-18.7-1.46-1.84 2.09-15.6 10.7-41.2 1.2-3.58 25.4-7.76 33.7-0.222z" fill="#38384a"/>
   <path d="m293 220q27.4 14.3 26.5 16.2-3.48 7.37-9.87 15.5-25 31.6-26.8 32.2-7.3 2.34-8.36 2.1-4.14-0.948-7.72-8.44-14-29.3-7.21-35.8 26.5-25.4 33.5-21.7z" fill="#71717c"/>
  </g>
  <path d="m340 347q15-19.5 19.7-16.6 33.2 20.8 33.1 22.5-0.666 12.3-4.5 17.2-27.1 34.8-30 27.9-20.5-48.3-18.4-51.1z" fill="#aaaa29"/>
  <path d="m170 399q20.3-12.6 27.6-2.71 17.5 23.9 17.1 30-0.943 14.7-11.5 14.1-25.4-1.27-30.2-11.5-11.4-24.7-3.04-29.9z" fill="#55c79e"/>
  <path d="m151 63.3c19.7 4.93 12.5 13 9.24 27.5-2.87 12.8-0.56 27.3-2.61 29.5-1.8 1.91 1 2.04-14.8 0.353-13.9-1.48-21.8-3.32-23.7-5.52-1.7-1.94-2.22-12.1-1.56-30.5 0.584-16.2 11.1-26.9 33.4-21.3z" fill="#381cc5"/>
  <path d="m387 276c2.66-3.19 3.78-10.9 7.94-10 7.07 1.53 3.84 14 5.23 21.1 2.96 15.1 10.9 15.9 6.6 45.8-0.711 4.92-4.25 9.08-10.6 12.5-1.05 0.559-12.4-5.95-34.2-19.5-3.57-2.23-5.55-4.24-5.94-6.02-0.0647-0.293 1.84-4.51 5.7-12.7 0.635-1.34 9.05-11.7 25.2-31.1z" fill="#aa8ed1"/>
  <path d="m194 379q5.29-17.1 14.6-10.3 34.3 24.9 28.8 30-20.1 18.7-25.4 11.5-19.5-26.6-18-31.2z" fill="#55aa3d"/>
 </g>
</svg>
