<?xml version="1.0" encoding="UTF-8"?>
<svg width="512px" height="512px" contentScriptType="text/ecmascript" contentStyleType="text/css" version="1.1" viewBox="0 0 512 512" xmlns="http://www.w3.org/2000/svg">
 <g class="voronoi" stroke-width=".5">
  <path d="m458-37.1 39.9 3.59 31.6 25.6 4.85 5.94-17.3 17.4-55.1-29.8z" fill="#e3e3c9"/>
  <path d="m361-16.4-35.5 34.2-19.7 3.72c-6.92 1.31-2.06 10.6-0.969 16.9l22.3 41.3c1.36 2.53 1.98 6.96 2.01 10.3 0.024 2.63 13.4 5.64 40.2 9.03 7.08 0.895 12.6-15.1 16.7-48 0.986-15.8 5.33-34.4 11.2-48.8l-13.1-13.8z" fill="#aa0016"/>
  <path d="m445-14.3 30.2 14 0.43 0.334s32.5 12.4 34.6 26.9c0.941 6.64-5.66 13.6-11.8 16.3-5.68 2.45-18.4-2.4-18.4-2.4s-12-8.13-16.5-13.7c-6.27-7.9-13.6-27-13.6-27z" fill="#e3006f"/>
  <path d="m533 148 16.4 59.2-1.36 0.59-14-1.31-22.2-14.1s-8.62-4.19-8.93-12.3c-0.326-8.58 8.93-16.2 8.93-16.2z" fill="#005528"/>
  <path d="m449 72.4c1.39-5.67-0.0355-13.4 5.77-16.5 17-9.23 57.4 33.2 57.4 33.2l12.5 9.69 6.92 22.9-19.4-1.67s-21-2.15-31.6-1.37c-6.5 0.481-13.2 6.03-19.1 3.17-10.8-5.26-13.6-25.9-14.9-32.7-1.08-5.49 1.08-11.2 2.41-16.6z" fill="#e31caf"/>
  <path d="m499 126 28.2 7.71-26 27.6s-14.6 20.1-25.6 20.8c-8.53 0.531-19.4-9.16-21.7-13.6-6.36-12.2 0.362-24.1 10.5-36 9.08-10.7 34.6-6.48 34.6-6.48z" fill="#e3388e"/>
  <path d="m396 27.6c-3.21-6.66 3.84-17 3.84-17l27.8-17.7 4.63 7.05s29.9 28.3 22.7 43.3c-10.8 11-34.8-2.16-46.9-6.48 0 0-9.74-4.17-12.2-9.2z" fill="#c700b4"/>
  <path d="m494 59.4 28.4-15.1 33.8 35.2-7.42 29.5-1.82 1.62-11.2-7.47-23.7-24.9z" fill="#001c34"/>
  <path d="m323 120c24.8 36.1 16.5 49.4 38.1 54 13.5 2.86 40.2-7.11 60-7.73 19.8-0.7 30.6-9.6 32.2-26.6 1.37-14.5-4.48-16.4-6.55-19.9-1.7-2.95-7.6-10.4-28.6-8.27-38.8-1.28-60.1-8.97-85.2-9.68-11-0.31-15 9.51-9.92 18.2z" fill="#b9380d"/>
  <path d="m304 45.5c12.1 20.7 18.2 32.4 18.2 35.2 0.0913 9.85-1.8 9.03-2.41 9.53-2.19 1.69-6.03 7.02-14.8 4.07-19.6-7.27-53.9-9.62-38.3-25.2 21.5-21.5 33.9-29.3 37.3-23.5z" fill="#8e1c3e"/>
  <path d="m385 176c11-2.48 22.5-3.51 33.8-3.05 13.4 0.548 34.9 1.5 39.6 6.87 4.74 5.43 5.62 14.4 2.63 26.8-3.02 12.6-3.46 18.1-10.8 20.1-28.7 7.75-107-35.3-76.1-46.7 0 0 7.11-3.15 10.9-4z" fill="#c7557e"/>
  <path d="m406 44.3c26.9 16.6 34.3 34.2 32.8 39.9-2.84 10.7 2.36 19.9-11.2 21.3-25.3 2.51-39.5-2.52-40.7-4.03-2.13-2.8-1.29-5.96 0.492-20.5 3.32-27 4.11-45.6 18.6-36.7z" fill="#c71c5c"/>
 </g>
</svg>
