<?xml version="1.0" encoding="UTF-8"?>
<svg width="512px" height="512px" contentScriptType="text/ecmascript" contentStyleType="text/css" version="1.1" viewBox="0 0 512 512" xmlns="http://www.w3.org/2000/svg">
 <g class="voronoi" stroke-width=".5">
  <path d="m458-37.1 39.9 3.59 31.6 25.6 4.85 5.94-17.3 17.4-55.1-29.8z" fill="#e3e3c9"/>
  <path d="m305 42.1c-0.893-6.51 9.16-17.5 9.16-17.5s6.16-1.57 13.6-0.216c10.9 2 21.4 6.77 32.4 7.77 14.6 1.32-30.2 34.1-30.2 34.1l-4.5-2.42s-19.1-11.9-20.5-21.8z" fill="#8e004b"/>
  <path d="m445-14.3 30.2 14 0.43 0.334s32.5 12.4 34.6 26.9c0.941 6.64-0.476 17.2-5.08 22.1-5.62 5.96-6.4 22-15.1 19.2-11.2-3.63-24.4-23.4-32.1-38.2-4.76-9.16-7.95-29.9-7.95-29.9z" fill="#e3006f"/>
  <path d="m533 148 16.4 59.2-1.36 0.59-14-1.31-22.2-14.1s-13.3-4.33-13.6-12.5c-0.326-8.58 13.6-16.1 13.6-16.1z" fill="#005528"/>
  <path d="m472 72.2c2.19-1.43 2.88-3.29 6.91-2.85 12.7 1.38 33.4 19.6 33.4 19.6l12.5 9.69 6.92 22.9-19.4-1.67s-21.4-0.131-31.6-2.72c-11.1-2.8-27.3-6.24-31.4-13.6-3.32-5.98 8.68-10.4 11.2-16.8 2.32-5.99 6.19-11 11.6-14.6z" fill="#e31caf"/>
  <path d="m361-16.4 23.1 4.88 11 11.5s3.18 3.02 3.14 4.05c-0.355 11.7-4.82 18.8-12.2 23.9-5.28 3.61-12.7 2.51-19.1 1.93-14.3-1.31-23.5 0.212-35.9-8.87-6.91-5.05 13-21 13-21z" fill="#aa0016"/>
  <path d="m499 126c4.55-0.174 13.2 3.6 13.2 3.6l15 4.11-15 16s-13.4 16.6-15.6 24.1c-2.87 9.72-9.94 7.7-20.9 8.26-5 0.258-9.99-3.94-12.6-8.24-9.2-15.3-7.46-40.9-4.81-53.5 2.89-13.7 26.7 6.16 40.7 5.62z" fill="#e3388e"/>
  <path d="m428-7.05-11.1 7.05s-14.1 8.47-18.2 13.6c-4.63 5.76-4.65 12.8-6.06 17.8s-1.41 6.11-1.81 9.22c-1.43 11.3-0.259 19.8-2.01 34-1.52 12.3 2.46 21.5 11.9 27.6 5.09 3.26 16.4 4.02 33.8 2.29 14.9-4.96 37.6-33.9 33.7-43.1l-8.35-20-27.3-41.5z" fill="#c700b4"/>
  <path d="m474 184c11.5-1.77 22.5 9.19 22.5 9.19s8.41 4.14 10.3 8.07c0.973 25.3-8.89 29.6-29.7 28 0 0-0.345 3.88-9.65-6.31-7.43-8.18-4.99-13.2-1.89-23.8 1.11-3.8-3.62-14.4 0.812-15.1z" fill="#e35538"/>
  <path d="m502 60.6c1.09-6.72 10.5-10.8 10.5-10.8l10.4-5.52 33.8 35.2-7.42 29.5-1.82 1.62-11.2-7.47-23.7-24.9s-11.9-9.08-10.5-17.7z" fill="#001c34"/>
  <path d="m319 100c1.44 0.486 7.58-1.84 6.19 10.1-1.38 12-35.5 24.1-47.7 39.5-5.93 7.5-21.7-9.14-26.1-19-5.52-12.5-9.11-41.2 4.59-40.8 21.1 0.552 20.8-0.799 63 10.2z" fill="#711cea"/>
  <path d="m345 182c2.39-1.99 26.3-3.92 33.5-3.35 14.4-0.439 12 14.2 22.2 32.8 10 18.4 9.7 32.3 5.23 38.9-4.41 6.57-8.16 10.3-11.2 11.1-3.03 0.79-13.9-4.52-32.7-15.9-18.5-11.3-31-15.4-24.5-28.7 6.42-13.1 5.16-32.8 7.58-34.9z" fill="#aa5580"/>
  <path d="m382 103c-5.65 0.156-12.8-0.959-18.3 1.66-10.4 4.93-21.3 6.31-31.3 11.1-12.1 5.81-13.5 6.1-34.1 21.2-14.4 10.5-21.2 17.7-20.5 21.5 0.515 2.67 14.4 7.87 41.7 15.6 19 5.4 21.7 4.49 32.8 4.57 6.77 0.048 13.4-1.62 20.1-2.52 6.06-0.81 13.4 0.676 18.2-2.58 4.26-2.9 7.07-15.5 10.1-34.8 2.67-17.1 0.153-28.2-7.55-33.1-3-1.92-6.69-2.82-11.1-2.7z" fill="#9c3833"/>
  <path d="m273 179c2.46-7.8-6.32-22.9 23.7-6 32.9 9.35 44.3 11.3 42.6 20.4-0.651 19.6-13 33.4-13.9 33.9-2.18 1.26-6.58 0.163-13.2-3.3-16.3-8.54-26-15.4-29.1-20.7-7.69-13-11-21.1-10-24.2z" fill="#8e554f"/>
  <path d="m246 135c4.15-0.36 3.8 2.42 9.91 7.6 8.66 7.36 13.3 12.4 13.8 15.1 0.735 3.8 0.388 7.97-1.04 12.5-2.03 6.43-6.84 11.8-14.4 16.1-10.8 6.15-21.2 7.59-31.2 4.32-14.3-4.64-15.4-13.7-3.26-27 17.2-19 13.4-27.5 26.3-28.6z" fill="#71386b"/>
  <path d="m331 233c-1.35 0.0252-2.75 0.452-4.17 1.28-0.211 0.122-5.16 7.76-7.79 11.6-6.09 8.89-5.83 10.9-18.5 26.5-7.55 9.56 1.72 20.8 27.8 33.8 14.8 7.36 18.2 4.62 26.5 1.96s18.1-14.2 19.6-16.4c3.76-5.63 15.1-15.5 17.7-24.2 3.07-4-2.78-3.8-7.96-7.14s-51.8-27.5-53.1-27.5z" fill="#9c711d"/>
  <path d="m371 36.4c9.43-1.33 14.2-1.67 14.5-1 0.789 2.51 0.73 7.46-0.179 14.9-3.43 27.9 2.97 41.7-2.62 44.2-21.2 9.38-43.2 15.3-44.3 14.8-4.07-1.87-6.38-3.26-6.95-4.2-2.14-3.52-3.23-6.92-3.26-10.2-0.115-12.4 2.56-21.4 8.04-26.8 20.7-20.7 32.3-31.2 34.8-31.6z" fill="#aa1c3c"/>
  <path d="m304 45.1c12.1 20.7 24.8 20.3 24.9 23.7 0.114 12.3 0.203 33.9-20.6 26.2-33.6-11.3-46.2 0.188-50.5-17.1-1.02-4.16 2.88-3.27 8.88-9.27 21.5-21.5 33.9-29.3 37.3-23.5z" fill="#8e1c83"/>
  <path d="m442 110c-3.64-0.0763-8.18 0.155-13.6 0.695-12.3 1.22-20 11.7-23.1 31.4-0.892 21.5-5.13 17.9-10.8 36.5-1.59 5.2-1.67 13.9 8.5 32.5 10.1 18.4 20.8 26.1 32.4 23.2 11.4-2.94 17.8-5.08 19.1-6.41 1.32-1.32 3.49-8.27 6.51-20.9 2.99-12.5-1.24-15-2.01-22.5-1.53-14.9-7.23-24.9-5.18-44.6 1.38-14.5 1.03-23.4-1.04-26.9-1.1-1.84-4.69-2.82-10.8-2.95z" fill="#c747c1"/>
  <path d="m293 220q27.4 14.3 26.5 16.2-3.48 7.37-9.87 15.5-25 31.6-26.8 32.2-7.3 2.34-8.36 2.1-4.14-0.948-7.72-8.44-14-29.3-7.21-35.8 26.5-25.4 33.5-21.7z" fill="#71713b"/>
  <path d="m262 188q4.47-2.55 18.1 20.4 2.64 4.45-25.2 31.2-5.4 5.18-12.4-0.436-1.36-1.09-3.13-32-0.344-5.99 22.7-19.2z" fill="#7155cc"/>
 </g>
</svg>
