<?xml version="1.0" encoding="UTF-8"?>
<svg width="512px" height="512px" contentScriptType="text/ecmascript" contentStyleType="text/css" version="1.1" viewBox="0 0 512 512" xmlns="http://www.w3.org/2000/svg">
 <g class="voronoi" stroke-width=".5">
  <path d="m458-37.1 39.9 3.59 31.6 25.6 4.85 5.94-17.3 17.4-55.1-29.8z" fill="#e3e3c9"/>
  <path d="m361-16.4-35.5 34.2-19.7 3.72c-6.92 1.31-2.06 10.6-0.969 16.9l25.1 42.4c9.71 16.4 32.3 17.3 39.4 18.2 7.08 0.895 12.6-15.1 16.7-48 0.986-15.8 5.33-34.4 11.2-48.8l-13.1-13.8z" fill="#aa0016"/>
  <path d="m-13.2 126 13.2 3.6s4.9 1.36 6.31 6.37c1.98 7.04-6.31 13.7-6.31 13.7l-10.9 11.6-25.6 20.8-12.6-8.24-3.62-33.7z" fill="#e3388e"/>
  <path d="m51.2 429c-20.3-0.696-26.1 7.54-29.6 20.7-3.8 12.4-22.2 24.2-14.4 36.3 7.89 12.3 49.1-10.5 60.7 2.38l12.6 14.1 32.7 25 12.6-24.7s1.89-26.6-5.01-36.9c-8.69-13-40.5-23.6-40.5-23.6-12.9-7.5-11.9-13.7-29.1-13.4z" fill="#1ce39d"/>
  <path d="m4.93 27.5c0.0781-7.17 6.66-15.1 13.7-16.6 13-2.79 25.8 4.63 33.1 15.8 5.6 8.59 9.63 24.6 1.38 30.7-10.2 7.53-22.8-3.45-33.1-10.8-6.57-4.72-15.1-11-15-19.1z" fill="#00009c"/>
  <path d="m445-14.3 30.2 14 0.43 0.334s32.5 12.4 34.6 26.9c0.941 6.64-5.66 13.6-11.8 16.3-5.68 2.45-18.4-2.4-18.4-2.4s-12-8.13-16.5-13.7c-6.27-7.9-13.6-27-13.6-27z" fill="#e3006f"/>
  <path d="m-32 187 32 13.5s12.5 7.48 14.4 12.5c3.7 9.57-12.6 21.7-12.6 21.7l-42.8-5.79-1.28-33.1z" fill="#e355c7"/>
  <path d="m122 16.8c-5.37 2.31-11.6 13.2-11.6 13.2-14.7 12.4-35 18.6-46.8 30.1-8.12 8.12-13.6 18.1-16.5 30-2.83 11.6 7.1 17.7 29.8 18.4 8.98 0.254 15.7-2.4 21.6-3.68 17.6-3.79 18.6 9.15 28.3 12.6 4.85 1.7 3.24 3.75 14.9 3.9 13.3 0.175 21.7-0.851 25.2-3.08 3.97-2.53 7.3-9.76 9.98-21.7 1.69-18.2 28.1-45.5 11.8-54.8 0 0-26.5-19.5-42-23.9-7.91-2.26-17.1-4.18-24.7-0.928z" fill="#2f1393"/>
  <path d="m-41.1 70.8 11-5.22 42.6 33.1s7.44 9.21 2.41 15.4c-4.09 5.03-14.9 5.82-14.9 5.82l-31.6-2.72-23.3-10.1 3-20.3z" fill="#e31caf"/>
  <path d="m533 148 16.4 59.2-1.36 0.59-14-1.31-22.2-14.1s-8.62-4.19-8.93-12.3c-0.326-8.58 8.93-16.2 8.93-16.2z" fill="#005528"/>
  <path d="m-12.9 332 24.8 6.79s34.6-10.1 39.8 2.43c3.35 8.19-11.6 41.6-19.5 45.7-11 5.75-25.2-13.8-25.2-13.8l-7.06-14.6z" fill="#00aa73"/>
  <path d="m141 479c14.9-0.512 52.5 11.4 42.5 17.4-6.68 4.02-16.2 15.6-16.2 15.6l-9.94 11.9-28.6-3.55 1.37-8.35s-0.581-13.4 1.61-19.5c1.83-5.13 5.87-13.3 9.25-13.5z" fill="#38e3df"/>
  <path d="m-18 59.4 18-9.57s8-3.51 11.9-2.89c25.8 7.21 45.6 43.5 23 63.7l-11.2-7.47-23.7-24.9z" fill="#001c34"/>
  <path d="m449 72.4c1.39-5.67-0.0355-13.4 5.77-16.5 17-9.23 57.4 33.2 57.4 33.2l12.5 9.69 6.92 22.9-19.4-1.67s-21-2.15-31.6-1.37c-6.5 0.481-13.2 6.03-19.1 3.17-10.8-5.26-13.6-25.9-14.9-32.7-1.08-5.49 1.08-11.2 2.41-16.6z" fill="#e31caf"/>
  <path d="m-51.9 233 28.5 6.35 24.1 34-4.08 27.9-25.6-18.4-20.7-34.8z" fill="#e37192"/>
  <path d="m86.9-50 14.6-13.7 19.3 17.6 5.01 36.9-4.68 9.17s-6.22 11.1-11.7 11.6c-6.69 0.567-16.5-11.6-16.5-11.6l-12.5-9.53z" fill="#1ce39d"/>
  <path d="m26.3 115c-6.62 2.8-8.94 13.5-10.1 19l0.102 0.0801c-0.8 3.93 9.46 7.91 12.8 13 10.2 15.6 12.5 40.8 21.2 51.9 1.29 1.7 8.44-8.78 10-10.3 20.7-19.4 43.5-21 51.6-44.7 4.21-12.8 4.94-20.8 2.21-23.9-2.4-2.73-15.6-4.43-39.5-5.11-15.9-0.451-26-0.545-30.1-0.287l-0.301-0.289c-5.76 0.432-12.1-1.61-17.9 0.639z" fill="#0e3848"/>
  <path d="m499 126 28.2 7.71-26 27.6s-14.6 20.1-25.6 20.8c-8.53 0.531-19.4-9.16-21.7-13.6-6.36-12.2 0.362-24.1 10.5-36 9.08-10.7 34.6-6.48 34.6-6.48z" fill="#e3388e"/>
  <path d="m144-36 38.5 18.1-15 17.9s-5.14 10-9.94 11.9c-8.93 3.52-20.2 4.56-25.9-3.13-1.69-2.26-1.28-8.77-1.28-8.77l5.04-30.8z" fill="#38e3df"/>
  <path d="m396 27.6c-3.21-6.66 3.84-17 3.84-17l27.8-17.7 4.63 7.05s29.9 28.3 22.7 43.3c-10.8 11-34.8-2.16-46.9-6.48 0 0-9.74-4.17-12.2-9.2z" fill="#c700b4"/>
  <path d="m74.6 277c-1.73-0.0473-3.54 0.0196-5.43 0.199-8.22 0.781-23.8-1.92-29.9 2.82-9.77 7.57-24.1 12.4-33 22.5l-11.3 12.7 5.03 10.6 1.68 3.53 90.7 2.35c8.53 3 14.5 3.35 18 1 1.9-1.3-1.77-14-11-38-4.41-11.4-12.7-17.3-24.8-17.7z" fill="#008ebf"/>
  <path d="m-54.2 475 39.9 3.59 14.3 11.6s21.2 8.4 29.9 4.92c5.24-2.08-7.72 15.1-7.72 15.1l-17.3 17.4-55.1-29.8z" fill="#e3e3c9"/>
  <path d="m29.9 0.189 0.149-0.189 2.32-2.94 20.7-20 11.7 3.96 16.6 19s11.4 7.54 12.3 18.7c0.284 3.72 0.176 7.35-3.44 11.5-4.26 4.9-3.48 5.74-12.2 2.75-17.1-5.89-48.1-32.8-48.1-32.8z" fill="#1c0024"/>
  <path d="m18.2 150c6.6-4.78 30.5 41.6 18 57.2-2.95 3.64-14-1.31-14-1.31l-42.8-27.2 20.6-15.4z" fill="#005528"/>
  <path d="m-32.7 343 10.8-5.21 21.9 33.9s9.61 11.6 16.6 17c5.21 3.99 22 4.14 19.6 11.5-3.89 11.8-36.3 15.1-36.3 15.1l-40.3 6.18-12.9 1.37 13.5-62.4z" fill="#e3aac9"/>
  <path d="m-54.2-37.1 39.9 3.59 31.6 25.6 4.85 5.94-17.3 17.4-55.1-29.8z" fill="#e3e3c9"/>
  <path d="m494 59.4 28.4-15.1 33.8 35.2-7.42 29.5-1.82 1.62-11.2-7.47-23.7-24.9z" fill="#001c34"/>
  <path d="m13.6 232 0.131 0.0996c-5.17 8.5-15.8 16.4-9.48 28.4 3.2 6.1 14 20.6 20.9 19.9 20.1-9.88 38.8-10.3 57.1-11.9 5.8-0.5 12.9-6.3 21.4-17.4 2.79-3.6 3.58-9.06 2.37-16.3-0.4-2.4-15.8-8.6-46.1-18.7-6.11-4.07-5.26-7.58-8.87-6.73-11.7 2.73-30.8 13.3-37.4 22.6z" fill="#0e71a6"/>
  <path d="m-52.4 429 52.4-6.99c6.87-0.0632 31.6-9.5 38.4-8.1s-17.5 22-20.6 29.9c-3.73 9.68-17.8 23.9-17.8 23.9l-5.6 5.73-46.2-7.54-1.61-33.9z" fill="#e3c7ec"/>
  <path d="m29.9 512 0.149-0.189s-0.0122-2.87 0.544-4.15c9.95-14 28.6-19.2 34.7-13.8 5.56 5.8 16.1 17.9 16.1 17.9l22.1 25.3-6 9.46-27.5 2.24z" fill="#1c0024"/>
  <path d="m328 90c-5.86 3.51-7.96 24.9-5.07 29.5 24.8 36.1 10.9 34.8 30.5 39.9 20.2 5.18 39 7.29 67.6 6.42 19.8-0.7 30.6-9.6 32.2-26.6 1.37-14.5-4.48-16.4-6.55-19.9-19.5-13.1-43.4-7.88-70.4-12.2-31.8-4.02-48.1-17.2-48.2-17.1z" fill="#c71cb0"/>
  <path d="m57.6 348c2.3-4.47 21.8-5.86 26.1-8.8 1.11-0.759 16 0.859 23.9 1.87 9.81 1.25 21.3-0.696 29.2 5.17 12 8.87 15.3 40.2 20 55.8 1.22 4.02-28.1 2.22-38.8 10.1-11.7 8.58-5.01 15-27.6 23.4-5.85 2.18-38.5-16.5-48.1-36.6-2.49-5.21 6.56-33.7 15.4-50.9z" fill="#38aa2b"/>
  <path d="m131 230c29 2.33 30.3-1.33 39.1 5.18 8.81 6.51 3.43 22.8 3.33 23-3.38 5.1-5.55 7.47-6.51 7.1-34.6-13.3-51.9-20-51.9-20.3-5.41-22.2 4.89-16.1 15.9-14.9z" fill="#387112"/>
  <path d="m138 411c11.1-4.13 20.2 1.36 27.2 16.5 4.49 9.68 3.86 32.3-7.76 44-7.44 7.44-14.4 3.78-21.7 1.36-7.34-2.42-7-5.93-19-17.5-7.68-7.39-10.1-15.9-7.37-25.5 1.77-6.13 11.3-12.4 28.7-18.9z" fill="#38c798"/>
  <path d="m142 127c12.3 0.163 19 8.6 20.1 25.3 1.02 16.4-8.19 13.4-16.1 15.9-7.95 2.49-21.7 0.531-26.9-4.67-5.15-5.2-7.24-2.61-2.69-16.4 4.46-13.6 13-20.3 25.6-20.1z" fill="#383880"/>
  <path d="m109 258c3.65-4.75 17.5-2.52 41.6 6.69 11.5 4.4 17.3 7.18 17.4 8.34 0.0687 0.552-3.22 36.9-16.8 61.4-6.49 11.7-19-0.571-26.1-5.94-11.4-8.61-11-12.5-20.7-37.6-4.62-12-3.11-23 4.54-32.9z" fill="#388ea8"/>
  <path d="m106 169c-10.8 8.37-26.2 13.5-37.2 26-11.5 11.5-11 15.6 9.24 22.4 21.4 1.63 73.7 20.2 88.7 1.74 8.04-19.9 12.8-20.1 10.6-30.7-1.64-8.05-13.7-19.2-16.5-18.3-21.9 10.5-42.2-1.26-54.8-1.11z" fill="#387177"/>
  <path d="m406 44.3c26.9 16.6 34.3 34.2 32.8 39.9-2.84 10.7 2.36 19.9-11.2 21.3-25.3 2.51-44-4.64-45.2-6.15-2.13-2.8 3.18-3.84 4.96-18.3 3.32-27 4.11-45.6 18.6-36.7z" fill="#c71c5c"/>
 </g>
</svg>
