<?xml version="1.0" encoding="UTF-8"?>
<svg width="512px" height="512px" contentScriptType="text/ecmascript" contentStyleType="text/css" version="1.1" viewBox="0 0 512 512" xmlns="http://www.w3.org/2000/svg">
 <g class="voronoi" stroke-width=".5">
  <path d="m458-37.1 39.9 3.59 31.6 25.6 4.85 5.94-17.3 17.4-55.1-29.8z" fill="#e3e3c9"/>
  <path d="m471 57.1s-5.8-9.05-3.13-8c10.3 4.03 26.8 2.76 33.4 8.91 1.81 1.7 1.95 7.19 1.95 7.19s6.78 14.6 2.19 13.8c-11.4-1.97-30.7-14.9-30.7-14.9z" fill="#c50082"/>
  <path d="m-13.2 126 13.2 3.6s3.27-0.0398 4.68 4.97c1.98 7.04-4.68 15.1-4.68 15.1l-10.9 11.6-25.6 20.8-12.6-8.24-3.62-33.7z" fill="#e3388e"/>
  <path d="m27.5 423c19.5 0.967 61.4 15.5 63.4 21.1 4.69 13.2-50.9 52.9-59.1 55.1-9.33 2.59-35.2-2.74-26.6-25.5 3.86-10.2 12.5-32.5 12.5-32.5s2.89-18.5 9.76-18.2z" fill="#00c7e4"/>
  <path d="m445-14.3 30.2 14 0.43 0.334s32.5 12.4 34.6 26.9c0.941 6.64-0.0504 18.3-4.65 23.2-5.62 5.96-16.5 3.08-25.2 0.0442-11.1-3.87-20.3-20.8-20.3-20.8l-10.2-29.3z" fill="#e3006f"/>
  <path d="m-32 187 32 13.5s6.5 2.59 8.42 7.57c3.7 9.57-6.66 26.6-6.66 26.6l-42.8-5.79-1.28-33.1z" fill="#e355c7"/>
  <path d="m27.1 111c5.14 4.11 1.69 13.7-0.895 19.7-2.96 6.91-3.41 20.5-10.7 18.5-8.74-2.45-5.94-15.5-8.41-26-1.94-8.26 12.9-17.9 20-12.2z" fill="#003b58"/>
  <path d="m111 30 11.6-13.2 24.7 0.928 42 23.9-2.14 22.8-51.6-6.19-24.5-16.7z" fill="#3800b4"/>
  <path d="m-41.1 70.8 11-5.22 30.2 23.4 6.87 9.69s4.77 8.34 2.75 11.9c-2.21 3.88-9.62 9.34-9.62 9.34l-31.6-2.72-23.3-10.1 3-20.3z" fill="#e31caf"/>
  <path d="m533 148 16.4 59.2-1.36 0.59-14-1.31-22.2-14.1s-11.5-4.73-11.9-12.9c-0.326-8.58 11.9-15.7 11.9-15.7z" fill="#005528"/>
  <path d="m-12.9 332 24.8 6.79 26.8 26.1s20.5 15.6 5.67 28c-24.7 20.5-27.6-9.62-37.3-19.7-3.75-3.88-7.06-14.6-7.06-14.6z" fill="#00aa73"/>
  <path d="m144 476c14.1-0.741 36.5 9.61 38.5 18.1 1.73 7.6-15 17.9-15 17.9l-9.94 11.9-28.6-3.55 1.37-8.35s0.163-22.2 5.98-30.8c1.89-2.8 4.35-5.07 7.73-5.25z" fill="#38e3df"/>
  <path d="m-18 59.4 18-9.57s5.4-3.93 9.32-3.78c15.1 0.58 44.7-0.668 65.6 0.599 7.82 0.473-38.2 62.3-38.2 62.3l-1.82 1.62-11.2-7.47-23.7-24.9z" fill="#001c34"/>
  <path d="m458 76s14.1-12 17.4-9.64c8.23 5.76 37.1 22.6 37.1 22.6l12.5 9.69 6.92 22.9-19.4-1.67s-21.4-0.126-31.6-2.72c-8.2-2.08-18.7-3.01-23.3-10.1-3.43-5.34 0.327-19 0.327-19z" fill="#e31caf"/>
  <path d="m-51.9 233 28.5 6.35 24.1 34-4.08 27.9-25.6-18.4-20.7-34.8z" fill="#e37192"/>
  <path d="m187 445c10.7-1.77 23.3 0.345 31.7 7.13 7.03 5.64 9.33 8.73 8.24 14-2.37 11.5-20.4 18.7-28.4 21-16.6 4.62-22.9-3.12-32.4-8.98-3.72-2.28-11.1-3.25-10.3-14.1 0.825-12.3 19.2-17.1 31.2-19.1z" fill="#55e3cf"/>
  <path d="m86.9-50 14.6-13.7 19.3 17.6 5.01 36.9-4.68 9.17s-6.51 9.07-11.4 9.5c-6.38 0.561-16.7-9.5-16.7-9.5l-12.5-9.53z" fill="#1ce39d"/>
  <path d="m361-16.4 23.1 4.88 13.1 13.8s-5.75 19-13.3 24.5c-5.17 3.77-17 3.1-17 3.1s-24.3-2.84-36.7-11.1c-7.13-4.74 13.8-18.7 13.8-18.7z" fill="#aa0016"/>
  <path d="m50.7 114c-10.1-0.156-7.54 1.71-16.9 5.48 0 0-11.3 27.8-10.5 33.4 2.44 16.1 5.5 14.8 7.61 23.2 2.34 9.28 5.68 26.2 8.89 27.3 2.06 0.72 5.31-3.8 5.31-3.8l46.6-33.8c5.13-3.72 12.1-8.08 17.3-23.6 4.56-13.6 5.88-21.6 3.94-23.8-1.7-1.93-14.5-3.24-38.4-3.92-10.5-0.297-18.4-0.44-23.8-0.43z" fill="#0e383c"/>
  <path d="m499 126c4.55-0.174 13.2 3.6 13.2 3.6l15 4.11-15 16s-7.05 7.98-10.9 11.6c-8.04 7.48-14.6 20.2-25.6 20.8-5 0.258-10.2-3.82-12.6-8.24-8.22-15.3-12.1-37.6 0.235-52.1 4.79-5.65 21.7 4.8 35.6 4.26z" fill="#e3388e"/>
  <path d="m144-36 38.5 18.1-24.9 29.8s-20.4 4.89-26.2-2.79c-1.69-2.26-1.04-9.1-1.04-9.1l5.04-30.8z" fill="#38e3df"/>
  <path d="m390 28.4c-2.05-7.1 10.5-17.7 10.5-17.7l27.8-17.7 31.9 48.6s13.8 20.9 5.69 25.8c-15.6 9.33-55.2-22-55.2-22s-18.6-9.7-20.7-16.9z" fill="#c700b4"/>
  <path d="m-5.02 315 5.02-5.68s7.46-10.9 13.1-13.6c9.8-4.83 31.1-9.23 33.7-0.565 3.28 11.2 11.4 17.2 18.1 26.3 4.37 5.94-28.2 34.7-29.7 33.2-6.66-6.63-33.5-25.5-33.5-25.5l-1.68-3.53z" fill="#008ebf"/>
  <path d="m-54.2 475 39.9 3.59 31.6 25.6 4.85 5.94-17.3 17.4-55.1-29.8z" fill="#e3e3c9"/>
  <path d="m5.4 36.1c-8.21-10 24.2-35.6 24.6-36.1s2.32-2.94 2.32-2.94l20.7-20 11.7 3.96 16.6 19s19 12.1 27.4 17.4c5.88 3.67-0.501 15.9-5.96 20.5-7.18 6.01-20.2 2.18-27.9 2.94-23.1 2.25-58 9.41-69.5-4.65z" fill="#1c0024"/>
  <path d="m20.2 156c6.1 17 15.7 44.2 15.7 44.2s5.03 9.28 1.97 11.9c-4.25 3.58-15.7-5.46-15.7-5.46l-42.8-27.2 20.6-15.4s17.3-16.2 20.2-7.93z" fill="#005528"/>
  <path d="m-32.7 343 10.8-5.21 21.9 33.9s9.24 14.7 16.5 21.7c4.72 4.49 13.6 11.4 10.2 16.8-3.57 5.71-26.7 4.98-26.7 4.98l-40.3 6.18-12.9 1.37 13.5-62.4z" fill="#e3aac9"/>
  <path d="m86.9 462s9.18-12.1 15.8-12.1c8.71-0.061 18 16.1 18 16.1s11 18.2 8.92 30.4c-0.576 3.38-8.6 15.7-8.6 15.7l-7.9 15.5-20.3-15.5s-24.5-13.4-25.6-25c-1.05-11 19.6-25 19.6-25z" fill="#1ce39d"/>
  <path d="m-54.2-37.1 39.9 3.59 31.6 25.6 4.85 5.94-1.93 1.95s-2.82 11.9-10 13c-1.83 0.271-10.2-0.117-10.2-0.117l-50.2-27.1z" fill="#e3e3c9"/>
  <path d="m505 60.4c1.09-6.72 6.56-10.6 6.56-10.6l10.4-5.52 33.8 35.2-7.42 29.5-1.82 1.62-11.2-7.47-23.7-24.9s-7.95-9.27-6.56-17.9z" fill="#001c34"/>
  <path d="m12.6 208c1.25-7.25 15.1 5.99 24.4 9.48 6.5 2.45 7.79 15.6 9.45 22.3 2.87 11.7 10.2 28.8 7.95 35.1-5.66 15.5-34.5 15.9-46.7 16.6-9.09 0.494-4.45-26.9-4.45-26.9-1.54-13.5 6.74-41.1 9.4-56.6z" fill="#007170"/>
  <path d="m-52.4 429 52.4-6.99s8.34-1.43 12.5-1.79c2.73-0.235 8.53-2.97 8.23-0.247-0.82 7.27-9.2 22-9.2 22l-11.6 25.7-5.6 5.73-46.2-7.54-1.61-33.9z" fill="#e3c7ec"/>
  <path d="m29.9 512 0.149-0.189 2.32-2.94s11.5-16.6 20.9-18.7c4.01-0.899 8.13 0.374 11.5 2.66 6.99 4.68 16.6 19 16.6 19l22.1 25.3-6 9.46-27.5 2.24z" fill="#1c0024"/>
  <path d="m319 103q2.17 0.729 6.1 7.18 0.136 0.224-50.6 37.4-1.76 1.29-23.2-16.9-0.744-0.631 5.12-47.1 0.204-1.61 62.6 19.4z" fill="#711cea"/>
  <path d="m357 186q3.58-2.98 14.4-2.13 10.7 0.842 26 28.8 15.1 27.6 8.35 37.6-6.62 9.86-11.2 11.1-4.54 1.18-32.7-15.9-27.8-16.9-18.1-36.8 9.62-19.6 13.3-22.6z" fill="#aa5580"/>
  <path d="m193 256q2.06-8.31 18.5-10.3 27-3.24 30.2-0.709 5.2 4.18 11.8 18.1 10.9 22.9 5.77 25.3-8.54 3.93-26.9-0.152-30.3-6.73-34.2-14.4-6.37-12.7-5.12-17.7z" fill="#557163"/>
  <path d="m288 377c2.39-4.29 8.71-8.65 19-13.1 38.3-25.2 28.5-4.14 34.4 9.66 9.74 23 4.77 27.6 4.6 28.2-0.275 0.965-26.2 16.9-40.9 16-22.2 5.28-12.8-13.2-16-19.1-3.15-5.9-3.44-15-3.37-15.8 0.125-1.35 0.906-3.31 2.34-5.89z" fill="#8eaa62"/>
  <path d="m141 404q14.7 2.78 24.6 24 6.32 13.6-11.1 31-11.2 11.2-16.4 12.4-3.36 0.795-21.4-16.5-11.5-11.1-3.72-38.1 4.99-17.3 28-12.9z" fill="#38c798"/>
  <path d="m69.3 67.3c8.29-8.29 11.2-20.7 19.7-23.1 8.61-2.42 14.6-0.829 18.1 4.78 3.53 5.73 4.98 17.1 4.37 34.3-0.63 17.5-12.1 25.9-34.3 25.3-22.7-0.642-38.5 4.29-32.3-5.92 6.22-10.2 17.4-23.6 24.4-35.3z" fill="#1c1c7e"/>
  <path d="m361 108q21.2-9.42 31.5-2.83 11.6 7.41 7.55 33.1-4.51 28.9-10.9 33.3-7.18 4.89-17.3 4.09-11.4-0.898-20-28.4-9.68-30.9 9.2-39.3z" fill="#aa3878"/>
  <path d="m191 190q6.46-0.7 26.6 5.83 16.4 5.33 17.6 25.7 0.951 16.6-23 19.5-19.5 2.34-23.9-7.14-3.58-7.74-4.47-27.1-0.729-15.8 7.19-16.7z" fill="#55558b"/>
  <path d="m287 291q0.933-0.299 56 27.1 6.24 3.11 6.85 5.91 0.07 0.317-15.4 20.3-1.75 2.26-38.5 18.1-4.17 1.8-15.9-61.7-1.33-7.19 6.91-9.83z" fill="#8e8eda"/>
  <path d="m121 341q9.27-11.6 17.3-10.5 36 4.69 39.4 7.59 15.3 13.1 15.3 14.4-0.06 6.25-1.28 10.2-5.5 17.8-10.7 21-23.5 14.6-30.4 13.3-30.9-5.83-32.3-9.29-6.55-15.5-5.24-20.7 5.9-23.4 7.96-26z" fill="#38aa36"/>
  <path d="m298 137q30.9-22.7 34.1-21.2 4.54 2.08 12.1 26.1 10.8 34.4 7.81 36.9-4.25 3.54-32.8-4.57-40.9-11.6-41.7-15.6-1.11-5.73 20.5-21.5z" fill="#8e386b"/>
  <path d="m161 190q12.5-2.19 15.1-0.091 0.903 0.735 2.1 26.8 0.42 9.12-46 22.8-16.2 4.77-18.9-6.46-0.926-3.93 8.58-28.3 3.32-8.51 39.1-14.8z" fill="#3855b6"/>
  <path d="m416 248q2.07-3.08 31.1-10.6 5.33-1.38 14.5 24.4 1.68 4.72-20.3 26.7-4.04 4.04-20.4-3.31-3-1.35-14.1-17.5-2.03-2.96 9.23-19.7z" fill="#c771ce"/>
  <path d="m259 297c5.82-2.68 9.36-3.87 10.6-3.58 2.2 0.505 4.89 9.33 8.05 26.5 5.52 30 7.59 46.2 6.2 48.7-2.43 4.37-10.1 2.29-23-6.22-22.5-14.9-47.9-15.4-24-37.1 11.4-17.3 18.8-26.7 22.1-28.2z" fill="#718ec1"/>
  <path d="m71.2 329c26.8 9.65 47.1 7.45 46 10.1-4.39 17.4-7.51 33-10.2 33.3-27.9 2.88-52.8 13.6-53.7 12.1-4.85-16.6-17.8-26.1-16.4-27.5 14.3-14.3 31.7-29 34.3-28.1z" fill="#1caa20"/>
  <path d="m206 58.5q3.58-3.58 5.39-4.32 0.392-0.162 32.2 20.6 6.9 4.49 7.02 4.78 0.027 0.062-4.96 39.6-1.08 8.56-2.13 8.8-0.227 0.053-52.1-9.78-11.2-2.13-3.66-35.8 1.64-7.29 18.2-23.8z" fill="#551cc9"/>
  <path d="m273 179q3.69-11.7 23.7-6 49.4 14 43.8 25.4-13.8 28.1-15.1 28.8-3.27 1.9-13.2-3.3-24.5-12.8-29.1-20.7-11.5-19.5-10-24.2z" fill="#8e554f"/>
  <path d="m122 247c23.7-6.07 43.9-22.7 61.9-11.9 3.68 2.21 3.85 12.1 3.8 12.3-2.15 8.67 4.08 15.9-0.702 15.9-17.2 0.217-44.1 13.4-65.9 18.7-5.39 1.32-2.24-9.98-2.22-15 0.0245-6.76-3.38-18.4 3.11-20z" fill="#387112"/>
  <path d="m202 353q7e-3 -0.754 20.9-8.34 2.29-0.83 50.2 30.8 5.24 3.46 4.98 6.38-0.03 0.319-29.4 8.82-3.21 0.931-42.5-27.6-4.3-3.13-4.24-10z" fill="#71aa35"/>
  <path d="m36.2 403c14.3-14.3 24.5-21.7 30.7-22.4 24.3-2.52 33.1-9.15 42.1-2.74 8.95 6.41 6.79 23.2 5.06 29.2-9.15 22.3-1.31 32.2-9.05 36.4-7.73 4.21-12.9-4.45-22-7.72-35.9-12.8-53.8-19.3-53.9-19.4-0.232-0.368-0.211-1.05 0.063-2.04 1.07-3.91 3.43-7.68 7.07-11.3z" fill="#1cc7b9"/>
  <path d="m415 53.6q40.4 25 38.1 33.6-4.26 16-18.3 17.4-26.2 2.6-33.8-2.29-14.2-9.11-11.9-27.6 4.24-34.5 25.9-21.1z" fill="#c71c5c"/>
  <path d="m246 135q0.749-0.175 9.91 7.6 13 11 13.8 15.1 1.1 5.71-1.04 12.5-3.04 9.65-14.4 16.1-16.1 9.22-31.2 4.32-21.4-6.96-3.26-27 25.8-28.5 26.3-28.6z" fill="#71386b"/>
  <path d="m91.9 172c6.83-0.199 11.4 4.69 17.4 12.1 6.01 7.55 25.5 1.92 4.42 26.4-4.3 11-16.4 13.2-36.4 6.55-20.2-6.72-24.5-15.8-13-27.3 11.6-11.6 20.8-17.6 27.6-17.7z" fill="#1c5533"/>
  <path d="m322 243q4.07-8.62 4.38-8.8 4.29-2.48 8.13-0.151 52.2 31.7 50.2 34-26.3 31.6-28.9 27.7-34.2-52.2-33.9-52.8z" fill="#aa711c"/>
  <path d="m235 295c32.9-3.36 7.46 12.8-5.37 32.2-5.11 7.74-13.2 13.6-24.3 17.6-4.41 1.6-11.1-1.41-20-9.02-3.56-3.03-1.85-18.2 7.76-39.2 2.93-28.9 18.7-6.8 41.9-1.64z" fill="#558e37"/>
  <path d="m371 36.4q14.1-2 14.5-1 1.18 3.77-0.179 14.9-5.15 41.9-13.5 45.6-31.7 14.1-33.3 13.3-6.1-2.8-6.95-4.2-3.22-5.28-3.26-10.2-0.173-18.6 8.04-26.8 31-31 34.8-31.6z" fill="#aa1c3c"/>
  <path d="m176 124q1.48-1.56 48.4 7.35 16.1 3.06-16.6 39.2-11.2 12.4-21.9 13.6-3.67 0.398-6.27-1.71-0.891-0.724-6.14-40.3-1.8-13.6 2.5-18.1z" fill="#5538b7"/>
  <path d="m334 267q23.4 35.8 21 40.9-4.31 9.08-26.5-1.96-39.2-19.5-27.8-33.8 20-25.3 33.3-5.1z" fill="#8e715f"/>
  <path d="m153 276c21.6-7.75 33.9-8.53 37-2.35 3.72 7.43 2.53 17.8-3.56 31.1-7.33 16 3.63 31-31 21.4-37.9 1.99-28.2-6.83-29.8-18.2-1.96-13.6-15.1-20.8 27.4-32.1z" fill="#388ecc"/>
  <path d="m258 394q20.8-6.02 24.6 2.29 6.76 14.7 2.51 29.7-7.5 26.5-21.8 31.2-25.3 8.34-32-0.165-11.9-15-11.4-22.5 0.85-13.2 10.1-21.8 16.3-15.2 28.1-18.6z" fill="#71c75f"/>
  <path d="m304 45.1q18.2 31 18.2 36.2 0.171 18.4-13.9 13.7-50.4-17-50.5-17.1-0.119-0.274 8.88-9.27 32.2-32.2 37.3-23.5z" fill="#8e1c3e"/>
  <path d="m161 128c3.64 0.388 7.52 16.1 11.6 47.2 0.576 4.34-13.3 8.99-41.5 13.9-3.95 0.691-32.5-11.1-30.1-23.6 2.11-11.2 10.6-10.7 19.2-36.3 1.2-3.58 14.8-3.98 40.8-1.21z" fill="#3838d6"/>
  <path d="m395 178q6.82-4.64 31.7-5.54 25.1-0.912 32.2 7.14 7.11 8.14 2.63 26.8-4.53 18.9-6.5 20.9-2 2-19.1 6.41-17.3 4.46-32.4-23.2-15.2-27.9-8.5-32.5z" fill="#c7557e"/>
  <path d="m293 220q27.4 14.3 26.5 16.2-3.48 7.37-9.87 15.5-25 31.6-26.8 32.2-7.3 2.34-8.36 2.1-4.14-0.948-7.72-8.44-14-29.3-7.21-35.8 26.5-25.4 33.5-21.7z" fill="#71713b"/>
  <path d="m49.7 286q8.21-8.21 26.2-9.92 33.1-3.15 36.6 1.63 6.26 8.8 8.16 22 3.48 24.2-0.51 29.2-7.34 9.17-22.9 3.58-28.5-10.3-36.8-21.5-15.2-20.6-10.8-25z" fill="#1c8e5d"/>
  <path d="m340 347c10-13 16.6-18.5 19.7-16.6 22.2 13.8 33.2 21.4 33.1 22.5-0.444 8.19-1.95 13.9-4.5 17.2-18.1 23.2-36.3 26.8-38.3 22.3-7.22-33.4-11.5-43.6-10.1-45.4z" fill="#aaaab0"/>
  <path d="m170 399q20.3-12.6 27.6-2.71 17.5 23.9 17.1 30-0.943 14.7-11.5 14.1-25.4-1.27-30.2-11.5-11.4-24.7-3.04-29.9z" fill="#55c74f"/>
  <path d="m152 68.8q29.5 7.39 24.6 29.2-4.3 19.2-7.38 22.4-2.7 2.86-26.4 0.335-20.8-2.22-23.7-5.52-2.55-2.91-1.56-30.5 0.876-24.3 34.4-15.9z" fill="#381c86"/>
  <path d="m428 110c14.5-1.44 22.6-0.689 24.4 2.25 2.07 3.46 2.41 12.4 1.04 26.9 0.965 43.8-10.1 25.8-25.4 26.4-18 0.654-25.7-7.39-23.1-24.1 3.07-19.7 10.8-30.1 23.1-31.4z" fill="#c7381f"/>
  <path d="m262 188q4.47-2.55 18.1 20.4 2.64 4.45-25.2 31.2-5.4 5.18-12.4-0.436-1.36-1.09-3.13-32-0.344-5.99 22.7-19.2z" fill="#7155cc"/>
  <path d="m42.6 212c0.201-0.2 0.486-0.347 0.855-0.441 1.13-0.287 6.65 1.22 16.6 4.52 30.2 10.1 50.2 8.63 50.8 11.1 1.79 7.61 3.25 22 2.97 25.2-0.832 9.98 0.361 17.6-8.07 18.4-25.7 2.44-46.5 9.21-48.7-0.508-6.8-29.6-14.5-58.3-14.4-58.4z" fill="#1c71c9"/>
  <path d="m387 276q3.99-4.78 11.9-6.83 1.29-0.336 12.6 16.1 1.85 2.7-4.64 47.6-1.07 7.38-10.6 12.5-1.57 0.839-34.2-19.5-5.35-3.35-5.94-6.02-0.097-0.439 5.7-12.7 0.952-2.01 25.2-31.1z" fill="#aa8e68"/>
  <path d="m194 379q5.29-17.1 14.6-10.3 34.3 24.9 28.8 30-20.1 18.7-25.4 11.5-19.5-26.6-18-31.2z" fill="#55aa3d"/>
 </g>
</svg>
