<?xml version="1.0" encoding="UTF-8"?>
<svg width="512px" height="512px" contentScriptType="text/ecmascript" contentStyleType="text/css" version="1.1" viewBox="0 0 512 512" xmlns="http://www.w3.org/2000/svg">
 <g class="voronoi" stroke-width=".5">
  <path d="m458-37.1 39.9 3.59 31.6 25.6 4.85 5.94-17.3 17.4-55.1-29.8z" fill="#e3e3c9"/>
  <path d="m445-14.3 30.2 14 0.43 0.334 34.6 26.9s-7.21 11.4-11.8 16.3c-5.62 5.96-10.9 16.8-19 15.6-11.6-1.79-14.1-18.9-19.3-29.5-4.56-9.27-10.2-29.3-10.2-29.3z" fill="#e3006f"/>
  <path d="m318-32.9 34.7 13.3-17.3 19.5s-12.9 18.1-22.7 22c-2.1 0.841-7.22 2.17-6.79-0.0588 1.65-8.66 2.72-21.9 2.72-21.9l1.18-28z" fill="#8ee3e0"/>
  <path d="m533 148 16.4 59.2-1.36 0.59-14-1.31-22.2-14.1s-12.1-4.42-12.4-12.6c-0.326-8.58 12.4-16 12.4-16z" fill="#005528"/>
  <path d="m471 70.8c4.74-3.55 9.83-7.34 16.9-5.37 10.6 2.96 24.2 23.6 24.2 23.6l12.5 9.69 6.92 22.9-51-4.39s-19.2-2.73-23.3-10.1c-3.32-5.98 3-20.3 3-20.3s5.62-12.1 10.8-16z" fill="#e31caf"/>
  <path d="m361-16.4-35.5 34.2 0.582 0.17c-5.24 6.19 2.46 63.7 2.58 76.1 0.0307 3.28 0.767 6.11 2.21 8.48 0.382 0.627 13.9-4.96 40.5-16.7 7.03-3.12 11.9-15.9 14.7-38.5-0.558-6.2-1.38-13.1-0.0293-19.5 1.86-8.72 11.3-15.5 10.9-24.4-0.0529-1.31-1.89-3.46-1.89-3.46l-11-11.5z" fill="#aa0016"/>
  <path d="m498 128c4.55-0.174 13.9 1.83 13.9 1.83l15 4.11-26 27.6s-14.6 20.2-25.6 20.8c-5 0.258-9.92-3.98-12.6-8.24-7.35-11.8-13.7-30.6-5.04-41.5 8.37-10.6 26.3-4 40.2-4.54z" fill="#e3388e"/>
  <path d="m393 31.5c-2.05-7.1 7.56-20.8 7.56-20.8l27.8-17.7 31.9 48.6s7.38 23.6-0.753 28.4c-15.6 9.33-33.4-14.9-48.8-24.7-6.34-4.01-15.7-6.59-17.8-13.8z" fill="#c700b4"/>
  <path d="m501 61.8c1.09-6.72 10.6-12 10.6-12l10.4-5.52 33.8 35.2-7.42 29.5-1.82 1.62-11.2-7.47-23.7-24.9s-12-7.92-10.6-16.5z" fill="#001c34"/>
  <path d="m332 110c0.04-1.09 11.8-6.82 35.2-17.2 10.2-4.51 7.84 4.63 17.6 15.9 4.25 4.89 5.73 13.1-2.66 30.3-3.64 7.47-6.59 7.01-26.5 4.58-8.67-1.05-15.5-8.15-20.5-21.3-2.19-5.7-3.24-9.8-3.15-12.3z" fill="#aa38dd"/>
  <path d="m399 52.4c-4.73-0.0501-7.11 4.41-8.46 15.4 6.32 27.8-6.24 65.5 8.34 91.5 3.87 5.4 14.2 7.8 30.9 7.19 14.2-0.533 18.8-9.72 20.5-26.7 2.49-18.7-0.764-36.5 3.49-52.8 1.5-5.8-14.4-12.2-41.3-28.8-5.87-3.62-10.2-5.76-13.4-5.8z" fill="#c72a19"/>
  <path d="m27.5 423c-8.88-0.721 2.3 26.6 2.3 26.6s-14.3 7.77-17 17.3c-2.76 9.77-3.58 34.2 11.2 27.8 14.8-6.37 18.1-11.3 33.3-16.4 12.8-4.25 29.9-16.6 23.9-30.7-4.53-10.6-40.7-23.6-53.7-24.6z" fill="#00d59e"/>
  <path d="m479 426c10.8-2.22 32.8-3.92 32.8-3.92l18.6-2.48 2.17 0.445 0.978 25.5-21.8 22.3s-5.73 3.85-8.26 4.73c-13.5 4.66-29.1 6.8-39.8-4.61-5.16-5.52-12.5-15.3-5.93-24.5 4.16-5.85 14.1-16 21.2-17.4z" fill="#e3c7ec"/>
  <path d="m358 452c-13.1-3.29-19.1 10.2-28.1 16.2-7.07 4.72-12.8 7.51-16.8 15.1-4.31 8.28-4.69 28.4-4.69 28.4l-0.707 16.7 14.4-1.89 13.1-14.8 22.7-20.7c2.31-2.11 14.5 1.86 20.9-3.28 5.33-4.28-1.5-14.2-1.5-14.2s-8.83-18.9-19.3-21.5z" fill="#8ee3e0"/>
  <path d="m470 488c5.6-7.2 18.2-2.53 27.3-1.7 4.89 0.449 14.3 3.58 14.3 3.58l17.3 14 4.85 5.94-17.3 17.4-28.7-15.5s-12.5-7.7-16-13.8c-1.69-2.94-3.96-7.32-1.88-9.99z" fill="#e3e3c9"/>
  <path d="m15.5 336-15.5-0.633-12.9-3.52 12.9 26.5s6.32 10.8 10.8 13.7c22.5 11.5 59.3 18.1 84.6-6.31 4.89-6.84 12.5-12.3 0.471-25.2-12-12.9-53.4-8.54-80.5-4.62z" fill="#00aa73"/>
  <path d="m485 341c13 3.63 27.4 31.5 27.4 31.5l14.3 22.1 5.66 18.3-20 3.06-26.4 4.52s-18.3 0.607-21.2-2.61c-14.2-15.8 7.98-56.7 7.98-56.7 2.8-5.92 6-21.6 12.2-20.1z" fill="#e3aac9"/>
  <path d="m153 479c7.81 0.317 5.96 3.97 10.2 10.6 4.09 6.37 4.43 22.3 4.43 22.3l-9.94 11.9-28.6-3.55 1.37-8.35s3.91-22.2 9.73-30.8c1.89-2.8 9.44-2.21 12.8-2.07z" fill="#38e3df"/>
  <path d="m393 543 7.56-20.8 27.8-17.7 31.9 48.6-0.753 28.4-48.8-24.7z" fill="#c700b4"/>
  <path d="m501 339c1.12-4.14 11-3.81 11-3.81l12 3.27 32.6 24.3-4.04 26.2-33.4-16.2-7.06-14.6s-12.8-12.5-11-19.2z" fill="#00aa73"/>
  <path d="m187 445s23.3 0.345 31.7 7.13c7.03 5.64 11.5 24.5 11.5 24.5s-7.71 16.9-15.6 19.6c-11 3.8-23.7-2.68-34-8.15-9.58-5.09-20.6-9.34-19.9-20.2 0.825-12.3 26.3-23 26.3-23z" fill="#55e345"/>
  <path d="m445 498c0.805-4.68 2.76-11.9 8.9-11.1 10.7 1.28 21.8 25.4 21.8 25.4l34.6 26.9-11.8 16.3-19 15.6-19.3-29.5s-6.78-19.5-10.2-29.3c-1.66-4.77-5.83-9.34-4.98-14.3z" fill="#e3006f"/>
  <path d="m196 502c8.56-2.28 19.2-5.52 25.2 1.85 1.66 2.05 1.66 8.12 1.66 8.12l-0.196 6.79-13.3 39.9-7.78-2.98-37.4-30.4 15.6-13.3s9.75-8.26 16.2-9.98z" fill="#550029"/>
  <path d="m-54.2 475 39.9 3.59 31.6 25.6 4.85 5.94-17.3 17.4-55.1-29.8z" fill="#e3e3c9"/>
  <path d="m363 420c-3.57 1.52-1.59 15.6 0.439 19.6 6.57 11.9 16.7 22.1 18.3 28.6l6.53 27s7.83 12.1 14.2 13.2c12.1 2.16 34-14.2 34-14.2l6.21-6.11s7.1-12.1 8.5-18.9c2.34-11.2-1.25-31.9-11.9-34.4-7.4-1.78-14.3-0.808-21.4-1.95-18.5-3-50.7-14.6-54.8-12.9z" fill="#b9d5e1"/>
  <path d="m-32.7 343 10.8-5.21 36.2 56 5.66 18.3-60.2 9.24-12.9 1.37 13.5-62.4z" fill="#e3aac9"/>
  <path d="m82.7 464c3.26-4.35 13.6-9.01 19-8.79 7.29 0.3 15 4.74 19.1 10.8 6.96 10.3 5.72 24.2 3.63 36.4-0.576 3.38-3.31 9.68-3.31 9.68l-7.9 15.5-20.3-15.5s-9.5-9.02-11.4-13.9c-5.07-12.7-6.08-24.5 1.23-34.2z" fill="#1ce39d"/>
  <path d="m363 496c7.56-2.18 20.9 4.44 20.9 4.44l13.1 13.8-11.2 25.7-19.1 1.93-41.4-12 18.5-17.8s11.6-13.9 19.2-16.1z" fill="#aa0016"/>
  <path d="m-52.4 429 52.4-6.99s15.1-2.3 19.2 2.72c4.52 5.57 0.3 17.8-1.43 21.5l-17.8 21.5-5.6 5.73-46.2-7.54-1.61-33.9z" fill="#e3c7ec"/>
  <path d="m238 476c7.52-8.64 19.2-15.9 30.6-15.6 10.4 0.265 21.7 6.61 27 15.5 5.99 10.1 5.49 35.7 5.49 35.7l0.202 9.07-3.41 10-57.4-17.8-1.23-1.32s-5.63-6.94-6.64-11.7c-1.82-8.61-0.425-17.3 5.35-23.9z" fill="#71e3d0"/>
  <path d="m29.9 512 0.149-0.189 2.32-2.94s11.4-17.9 20.7-20c4.01-0.899 11.7 3.96 11.7 3.96l38.6 44.3-6 9.46-27.5 2.24z" fill="#1c0024"/>
  <path d="m169 387c-2.91 20.3-9.93 20.2-12.8 19.3-24.4-8.2-36.9-0.314-36.9-13.4 0-27.9 54.7-40.5 49.7-5.87z" fill="#38aa7a"/>
  <g>
   <path d="m386 366c3.71-0.499 6.43 0.114 8.14 1.84 38 38.3 57 57.4 57 57.5 0.032 0.26 0.0327 0.422 2e-3 0.487-0.693 1.43-1.53 2.13-2.51 2.09-21.7-0.86-33.3-1.46-34.7-1.8l-40.6-9.76c-16.4-3.93 5.62-34.4 12.7-50.3z" fill="#c7c722"/>
   <path d="m355 348c-10.9 2.57-22.1 6.27-33.1 9.47-13.2 1.42-21.8-1.85-26.4 5.88-7.93 13.1-0.229 35.3 12.1 44.4 8.71 6.47 20.9-0.472 32.5-0.883 13.1 2.83 21 0.818 23.8-6.08 10.2-25.1 13.8-38.9 10.6-41.5-9.08-7.4-15.6-11.2-19.6-11.3z" fill="#9caa11"/>
   <path d="m143 408q16 5.38 23.9 22.5 5.1 11-12.3 28.4-11.2 11.2-16.4 12.4-3.36 0.796-21.4-16.5-11.5-11.1-3.74-38 4.98-17.2 29.9-8.85z" fill="#38c7c3"/>
   <path d="m299 416q1.68-2.11 24.5-3.93 7.33-0.584 27.2 4.03 6.37 1.48 6.49 1.69 0.038 0.068-1.09 13.4-0.362 4.26-28.7 32.6-9.08 9.08-15.6 10-2.08 0.295-20.9-15.2-6.03-4.97 0.619-28.4 2.13-7.53 7.38-14.1z" fill="#8ec7ed"/>
  </g>
  <path d="m405 353c6.19-4.58 19.4-6.96 39.6-7.16 16.9-0.166 15.9 11 9.9 38.5-4.99 22.9-11.9 26-33.5 4.16-18.1-18.2-23.4-30-16-35.5z" fill="#c7aaf0"/>
  <path d="m225 401q7.14-5.1 26.4 4.03 34.1 16.1 30.9 27.3-5.61 19.8-19.9 24.5-25.3 8.34-32-0.164-11.9-15-11-28.7 1.55-24.1 5.6-27z" fill="#71c72e"/>
  <path d="m271 359c8-0.439 12.6 8e-3 13.8 1.34 0.629 0.713 3.09 11.3 7.39 31.8 2.3 10.9 1.94 18.3-1.07 22.1-1.61 2.01-14-2.45-37.2-13.4-12.4-5.87-36.9-12.1-31.1-25.9 3.09-7.4 33.3-15.1 48.3-15.9z" fill="#71aa40"/>
  <path d="m36.7 403c14.3-14.3 24.2-18.7 29.9-19.3 22.3-2.31 34-5.89 35.3-4.75 4.84 4.47 7.44 7.4 7.81 8.79 1.45 5.44 1.3 11.1-0.426 17.1-6.8 23.5-10.3 35.2-10.6 35.3-1.04 0.31-6.14-1.17-15.3-4.44-35.9-12.9-53.8-19.3-53.9-19.4-0.232-0.368-0.211-1.05 0.063-2.04 1.07-3.91 3.43-7.67 7.07-11.3z" fill="#1cc7f6"/>
  <path d="m181 375c4.54-15.5 22.2-3.22 26.9-0.816 11.2 5.87 7.79 32.9 7.32 40.3-1.15 17.8-5.25 26.5-12.3 26.2-16.9-0.847-26.7-4.02-29.3-9.52-6.16-13.3-3.6-18.7-1.71-25.2z" fill="#55c777"/>
 </g>
</svg>
