<?xml version="1.0" encoding="UTF-8"?>
<svg width="512px" height="512px" contentScriptType="text/ecmascript" contentStyleType="text/css" version="1.1" viewBox="0 0 512 512" xmlns="http://www.w3.org/2000/svg">
 <g class="voronoi" stroke-width=".5">
  <path d="m229 357c-14.1 21.6-9.81 21.1-11.2 32.5-1.21 10 2.58 20.6 2.75 30.2 0.177 9.64 0.0613 17.8 7.98 27.8 4.5 5.67 22.9 5.6 39.8 0.0391 9.6-3.2 13.1-7 19.7-30.3 3.99-14.6 2.61-29-9.72-37.3l-0.0195 0.0605c-9.71-1.23-42.7-33.1-49.3-23z" fill="#71b9e5"/>
  <path d="m458-37.1 39.9 3.59 31.6 25.6 4.85 5.94-17.3 17.4-55.1-29.8z" fill="#e3e3c9"/>
  <path d="m361-16.4-35.5 34.2-19.7 3.72c-6.92 1.31-2.06 10.6-0.969 16.9l25.1 42.4c-0.581 2.81-0.863 5.86-0.832 9.16 0.024 2.63 13.4 5.64 40.2 9.03 7.08 0.895 12.6-15.1 16.7-48 0.986-15.8 5.33-34.4 11.2-48.8l-13.1-13.8z" fill="#aa0016"/>
  <path d="m27.9 427c22.4-2.28 49.7 2.24 56.2 23 4.6 14.6-16.5 10.7-30 18-15.9 8.69-37.1 33.3-46.9 18-7.76-12.1 10.6-23.9 14.4-36.3 2.69-8.78-2.85-21.8 6.28-22.7z" fill="#00c7e4"/>
  <path d="m460 429 71-9.47 2.17 0.445 0.978 25.5-21.8 22.3s-6.11 3.09-8.65 3.92c-14.8 4.88-43.2-5.73-43.2-5.73l-1.61-33.9z" fill="#e3c7ec"/>
  <path d="m320 479c11-0.298 23.8 3.26 26.7 15.3 2.07 8.44-11.7 17.5-11.7 17.5l-13.1 14.8-14.4 1.9 0.707-16.7s0.0833-20.3 5.31-28c2.17-3.2 3.28-4.62 6.44-4.7z" fill="#8ee3e0"/>
  <path d="m445-14.3 30.2 14 0.43 0.334s32.5 12.4 34.6 26.9c0.941 6.64-5.66 13.6-11.8 16.3-5.68 2.45-18.4-2.4-18.4-2.4s-12-8.13-16.5-13.7c-6.27-7.9-13.6-27-13.6-27z" fill="#e3006f"/>
  <path d="m465 483c9.04-9.85 32.4-4.73 32.4-4.73l31.6 25.6 4.85 5.94-17.3 17.4-28.7-15.5s-22.4-5.14-26.5-14.3c-2.01-4.53-1.65-8.77 3.56-14.4z" fill="#e3e3c9"/>
  <path d="m533 148 16.4 59.2-1.36 0.59-14-1.31-22.2-14.1s-8.62-4.19-8.93-12.3c-0.326-8.58 8.93-16.2 8.93-16.2z" fill="#005528"/>
  <path d="m-12.9 332 24.8 6.79s27.4 11.8 32.6 24.3c3.35 8.19-4.43 19.7-12.3 23.8-11 5.75-25.2-13.8-25.2-13.8l-7.06-14.6z" fill="#00aa73"/>
  <path d="m479 349c6.19-0.84 7.9 6.02 12 8.83 6.98 4.81 21.4 13.8 21.4 13.8l14.3 22.1 5.66 18.3-20 3.06s-27.8 7.74-40.4 2.84c-4.79-1.86-6.63-5.44-9.52-8.66-14.2-15.8 2.85-29.1 10.3-49 1.51-4.02 0.0647-10.4 6.24-11.3z" fill="#e3aac9"/>
  <path d="m141 479c14.9-0.512 52.5 11.4 42.5 17.4-6.68 4.02-16.2 15.6-16.2 15.6l-9.94 11.9-28.6-3.55 1.37-8.35s-0.581-13.4 1.61-19.5c1.83-5.13 5.87-13.3 9.25-13.5z" fill="#38e3df"/>
  <path d="m393 543 7.56-20.8 16.7-10.6s7.11-9.33 11.4-8.41c2.75 0.592 4.34 8.41 4.34 8.41l27.3 41.5-0.753 28.4-48.8-24.7z" fill="#c700b4"/>
  <path d="m461 47.4c17-9.23 50.8 41.7 50.8 41.7l12.5 9.69 6.92 22.9-19.4-1.67s-21-2.15-31.6-1.37c-6.5 0.481-13.2 6.03-19.1 3.17-10.8-5.26-14.9-12.8-16.2-19.6-1.08-5.49 0.918-19.1 2.25-24.5 2.85-8.86 7.76-26.7 13.8-30.4z" fill="#e31caf"/>
  <path d="m500 344c0.548-5.03 12.2-9.02 12.2-9.02l12 3.27 32.6 24.3-4.04 26.2-33.4-16.2-7.06-14.6s-12.9-7.84-12.2-14z" fill="#00aa73"/>
  <path d="m230 502c4.03 2.45 9.62 10.3 9.62 10.3l1.23 1.32 57.4 17.8 3.41-10-0.201-9.07s3.02-25.2-2.97-35.3c-5.29-8.93-15.7-11.9-24.8-15.5-64.2-20.9-65.7 25-43.7 40.4z" fill="#71e3d0"/>
  <path d="m452 506c6.73-2.1 23.9 5.97 23.9 5.97l0.43 0.334 34.6 26.9-11.8 16.3-19 15.6-19.3-29.5-10.2-29.3s-1.56-5.38 1.4-6.3z" fill="#e3006f"/>
  <path d="m499 126 28.2 7.71-26 27.6s-14.6 20.1-25.6 20.8c-8.53 0.531-19.4-9.16-21.7-13.6-6.36-12.2 0.362-24.1 10.5-36 9.08-10.7 34.6-6.48 34.6-6.48z" fill="#e3388e"/>
  <path d="m372 427c-14.9 7.27-46.5 42.6-31 53.2l10.8 7.36 36.9 6.08c3.11 5.59 7.66 12.5 14.2 13.7 11.9-7.34 29.8-8.65 40.5-19.5 4.82-4.93 8.5-18.9 8.5-18.9s-0.417-16-8.41-24.3c-6.77-6.99-21.2-11.5-21.2-11.5-0.055-0.0247-0.111-0.0478-0.172-0.0625-17.4 2.37-31.9-9.08-50-6.15z" fill="#b4da5d"/>
  <path d="m201 496c4.57-0.764 13.5 4.97 13.5 4.97l8.59 10.9-0.196 6.79-13.3 39.9-7.78-2.98-37.4-30.4 15.6-13.3s14.3-14.8 20.9-15.9z" fill="#550029"/>
  <path d="m428-7.1-27.8 17.7c-7.33 21.2-7.07 49.5-12.5 70.4-1.78 14.5-1.61 23.2 0.518 26 1.2 1.51 14.4 1 39.7-1.51 19.1-15.6 12.3-47.2 27.4-62.2 7.2-15-22.7-43.3-22.7-43.3z" fill="#c700b4"/>
  <path d="m-54.2 475 39.9 3.59 14.3 11.6s21.2 8.4 29.9 4.92c5.24-2.08-7.72 15.1-7.72 15.1l-17.3 17.4-55.1-29.8z" fill="#e3e3c9"/>
  <path d="m-32.7 343 10.8-5.21 21.9 33.9s9.61 11.6 16.6 17c5.21 3.99 22 4.14 19.6 11.5-3.89 11.8-36.3 15.1-36.3 15.1l-40.3 6.18-12.9 1.37 13.5-62.4z" fill="#e3aac9"/>
  <path d="m86.9 462 14.6-13.7 19.3 17.6 5.01 36.9-12.6 24.7-32.7-25z" fill="#1ce39d"/>
  <path d="m362 500c7.43-1.9 14.5-1.74 21.4 2.09 4.63 2.58 11.9 10.3 11.9 10.3l2.15 2.25-11.2 25.7-19.1 1.93-41.4-12 18.5-17.8s10.2-10.5 17.8-12.4z" fill="#aa0016"/>
  <path d="m494 59.4 28.4-15.1 33.8 35.2-7.42 29.5-1.82 1.62-11.2-7.47-23.7-24.9z" fill="#001c34"/>
  <path d="m-52.4 429 52.4-6.99c6.87-0.0632 7.08 4.14 13.9 5.54s6.97 8.35 3.92 16.3c-3.73 9.68-17.8 23.9-17.8 23.9l-5.6 5.73-46.2-7.54-1.61-33.9z" fill="#e3c7ec"/>
  <path d="m29.9 512 0.149-0.189s-0.0122-2.87 0.544-4.15c4.55-10.5 10.8-23.4 21.8-26.4 6.77-1.84 19.9 4.37 19.3 8.44-1.63 11.1 9.71 22.1 9.71 22.1l22.1 25.3-6 9.46-27.5 2.24z" fill="#1c0024"/>
  <path d="m333 101c-5.86 3.51 0.0379 14 2.93 18.6 24.8 36.1 10.4 28.4 20.4 39.2 5.19 5.67 9.15 12.1 19.4 12.4 2.3 0.0665 25.8-3.49 37.7-5.15 19.8 1.09 28 2.64 39.5-26.6 1.37-14.5-4.48-16.4-6.55-19.9-1.7-2.95-7.6-10.4-28.6-8.27l0.0508-0.0293c-13.4 2.94-27.4-2.16-41.9-3.88-16-1.5-26.9-5.25-43-6.47z" fill="#8e38cd"/>
  <path d="m296 261c-28.3 2.64-47.7 43.7-65.3 55-8.94 11.3-3.4 20-0.74 28.1 0.1 0.5 38.1 23.5 50.4 26 7.82 1.61 47.5-37.8 57.8-65.2 3.23-10.1 3.51-16.6 0.836-19.6-30-26.7-26.6-25.8-43-24.3z" fill="#8087cf"/>
  <path d="m57.6 348c2.3-4.47 21.8-5.86 26.1-8.8 1.11-0.759 16 0.859 23.9 1.87 9.81 1.25 21.3-0.696 29.2 5.17 12 8.87 15.8 24.3 20.5 39.9 1.22 4.02-22.8 13.8-33.5 21.7-11.7 8.58-10.9 19.3-33.5 27.7-5.85 2.18-38.5-16.5-48.1-36.6-2.49-5.21 6.56-33.7 15.4-50.9z" fill="#38aac3"/>
  <path d="m358 393c25.8-14.6 39.5-21.1 41-19.5l51.2 51.6c0.032 0.26 0.0323 0.422 1e-3 0.487-0.693 1.43-1.53 2.13-2.51 2.09-21.7-0.86-33.3-1.46-34.7-1.8-31.8-7.6-36-0.94-48.1-12.2-5.32-4.95-15.1-16-6.89-20.7z" fill="#c7c716"/>
  <path d="m340 318c1.33-0.121 0.106-1.3 3.18 2.43 1.41 1.72 2.76 17.8 4.05 48.4 0.589 14 0.586 21.5-9e-3 22.3-0.274 0.375-11 0.481-32.2 0.319-9.74-0.0747-16.3-2.06-19.8-5.96-1.59-1.79-2.43-2.84-2.52-3.13-0.0427-0.136 0.337-3.97 1.14-11.5 0.369-3.46 7.04-8.15 26.5-31.2 8.95-10.6 9.94-20.8 19.6-21.7z" fill="#8eaaa9"/>
  <path d="m138 411c11.1-4.13 19.9-8.09 22.8 19.3 2.89 27.4 8.25 29.5-3.37 41.2-7.44 7.44-14.4 3.78-21.7 1.36-7.34-2.42-7-5.93-19-17.5-7.68-7.39-10.1-15.9-7.37-25.5 1.77-6.13 11.3-12.4 28.7-18.9z" fill="#38c798"/>
  <path d="m179 288c-8.21-0.222-15.3 4.99-21.1 15.6-10.2 18.4-17.9 34.1-13.1 40.1 8.31 10.3 13.9 34.9 24.9 38.2 15.4 3.18 39.3 0.201 43.6-9.67 11.3-13.5 8.12-35.7 6.47-51.2-0.446-4.18-6.14-12.3-22.3-24.9-6.71-5.24-12.9-7.94-18.5-8.09z" fill="#559c8f"/>
  <path d="m263 77.2c9.11 15.3 6.38 34 14.6 49.1 3.73 6.51 20.1 17.3 28.9 19.5 5.33 1.35 20.3 8.84 30.5 4.02 6.01-2.84 6.15-12.2-9.16-35.6-6.87-14.7-5.17-21.6-5.26-33.5-6.46-15.7-10.9-29.9-23.7-33.3-24.2-6.44-39.8 23.1-35.8 29.8z" fill="#8e2a8a"/>
  <path d="m371 327q26.9 6.88 29.4 11.5 3.3 6.25-0.684 15.2-5.38 12.1-22.6 21.9-23.2 13.1-24.4-15.3-1.61-38.4 18.4-33.3z" fill="#aaaa6e"/>
  <path d="m163 396c4.49-7.67 10.3-10.8 17.4-9.3 17.2 3.55 26.7 6.52 28.6 8.9 4.5 5.76 6.53 12.1 6.08 19-1.08 16.8-0.233 71.1-7.25 70.7-17-0.849-34.3 1.06-37.6-6.2 5.03-17.3-9.03-80-7.13-83.2z" fill="#55c74f"/>
  <path d="m405 356c2.84-6.41 15.3-9.72 37.3-9.94 18.4-0.181 25.5 16.3 12.5 39.4-4.99 22.9-11.1 26.2-30.5 6.63-16.2-16.4-22.6-28.4-19.2-36.1z" fill="#c7aa89"/>
  <path d="m336 399q11.3 0.086 19.1 14.2 2.52 4.54 1.39 17.8-0.362 4.26-28.7 32.6-9.08 9.08-15.6 10-2.08 0.295-20.9-15.2-6.03-4.97 5.71-46.4 3.77-13.3 38.9-13z" fill="#8ec7ba"/>
 </g>
</svg>
