<?xml version="1.0" encoding="UTF-8"?>
<svg width="512px" height="512px" contentScriptType="text/ecmascript" contentStyleType="text/css" version="1.1" viewBox="0 0 512 512" xmlns="http://www.w3.org/2000/svg">
 <g class="voronoi" stroke-width=".5">
  <path d="m458-37.1 39.9 3.59 31.6 25.6 4.85 5.94-17.3 17.4-55.1-29.8z" fill="#e3e3c9"/>
  <path d="m27.5 423c16.6 2.08 61.6 13.9 63.4 21.1 1.55 6.29-29.7 35.2-29.7 35.2s-12.9 9.04-18.8 6.11c-11.3-5.61-12.6-35.8-12.6-35.8s-11.1-27.7-2.3-26.6z" fill="#00c73a"/>
  <path d="m314 21.2-8.26 9.51c-15.8 18.2-27.7 25.8-39.9 38-6 6-7.35 5.73-6.28 9.87 1.03 3.95 3.29 1.37 9.12 2.99 4.15 1.4 46.1 14.7 48.4 13.1l11.5 4.43c0.532 1.96 1.41 3.96 2.65 6.01 0.567 0.931 4.27 3.82 6.95 4.19 14.1 1.99 20-1.68 41.2-11.1 5.59-2.48 2.26-20 5.69-47.9 0.909-7.39 0.969-12.3 0.18-14.9-0.209-0.665-2.59-2.44-12-1.11-0.517 0.0731-5.8-0.786-7.1 0.162l-42.2-14z" fill="#971390"/>
  <path d="m458 426c18.6-2.87 53.6-3.94 53.6-3.94l18.6-2.48 2.17 0.445 0.978 25.5-21.8 22.3s-6.12 7.92-8.79 7.96c-15.9 0.24-12.7 1.27-43.8-2.94-11.2-1.52-4.61-39.1-4.61-39.1s1.48-7.35 3.68-7.69z" fill="#e3c7ec"/>
  <path d="m318 481c11.4 2.3 21.4 6.26 32 10.4 8.1 3.15-14.5 20.6-14.5 20.6l-13.1 14.8-14.4 1.9 0.707-16.7s-1.98-20.5 3.5-28c1.7-2.34 2.7-3.6 5.8-2.98z" fill="#8ee3e0"/>
  <path d="m445-14.3 30.2 14 0.43 0.334s22.5 11.3 33.4 23c4.58 4.9 0.602 19.1-5.03 26.1-5.93 7.39-16.5 10.8-24.6 9.56-11.6-1.79-14.1-18.9-19.3-29.5-4.56-9.27-10.2-29.3-10.2-29.3z" fill="#e3006f"/>
  <path d="m24.1 450c2.97 0.492 7.68 27.5 12.8 37.6 3.44 6.74-4.51 21.4-11.5 18.5-9.4-3.85-24.2-15.2-24.6-26.9-0.453-12.2 18-30 23.3-29.1z" fill="#00e3d1"/>
  <path d="m458 478c12.2-2.93 22.9 0.0477 37.7 0.929 6.12 0.365 16.6 11.6 16.6 11.6l17.3 14 4.85 5.94-17.3 17.4-28.7-15.5s-18.5-6.95-24.5-15c-4.07-5.5-13.6-17.6-6.07-19.4z" fill="#e3e3c9"/>
  <path d="m533 148 16.4 59.2-1.36 0.59-14-1.31-22.2-14.1s-12.2-4.42-12.5-12.6c-0.326-8.58 12.5-16 12.5-16z" fill="#005528"/>
  <path d="m-12.9 332 12.9 3.52s8.28 1.37 12 3.27c15.3 7.91 30.9 22.6 39.8 32.8 5.29 6.09-27.5 4.15-27.5 4.15l-17.2-2.61-7.06-14.6z" fill="#00aa73"/>
  <path d="m466 348c1.75-6.52 13-12.3 16.8-11.2 13 3.63 29 35.1 29 35.1l14.3 22.1 5.66 18.3-60.2 9.24s-10.4 2.31-13.5-0.7c-3.06-2.97 4.3-29.5 4.3-29.5s2.5-38.9 3.71-43.4z" fill="#e3aac9"/>
  <path d="m152 468c11.9-0.0508 6.9 14 28.4 21.9 7.32 2.67-13.2 22.2-13.2 22.2l-9.94 11.9-28.6-3.55 1.37-8.35s1.36-21.7 6.65-30.6c3.66-6.18 8.16-13.4 15.3-13.4z" fill="#38e3df"/>
  <path d="m393 543 7.56-20.8 16.7-10.6s6.72-5.68 11-4.76c2.75 0.592 4.73 4.76 4.73 4.76l27.3 41.5-0.753 28.4-48.8-24.7z" fill="#c700b4"/>
  <path d="m493 63.8c2.05 8.19 13.5 21.1 13.5 21.1l5.85 4.14 12.5 9.69 6.92 22.9-51-4.39s-22.9-2.03-26.6-10.9c-5.46-13.1 16.2-39.3 16.2-39.3s20.6-11.5 22.7-3.3z" fill="#e31caf"/>
  <path d="m505 336c2.84-3.42 7.12-1.06 7.12-1.06l12 3.27 32.6 24.3-4.04 26.2-33.4-16.2-7.06-14.6s-13.4-14.4-7.12-21.9z" fill="#00aa73"/>
  <path d="m178 440c5.77-3.85 40.8 11.5 40.8 11.5s15.7 6.7 14.5 13.1c-2.44 12.1-5.57 14.7-4.78 27.4 0.956 15.3-47.8-4.47-47.8-4.47s-22.5-15.1-21.8-25.9c0.825-12.3 12.3-17 19.1-21.6z" fill="#55e345"/>
  <path d="m451 501c8.23-7.46 24.6 10.9 24.6 10.9l0.43 0.334 34.6 26.9-11.8 16.3-19 15.6-19.3-29.5-10.2-29.3s-3.12-7.79 0.625-11.2z" fill="#e3006f"/>
  <path d="m361-16.4 23.1 4.88 13.1 13.8s-3.66 20.2-11.2 25.7c-5.17 3.77-12.7 2.51-19.1 1.93-14.3-1.31-34.9-8.54-38.6-12.4-5.96-6.15 15.7-17.5 15.7-17.5z" fill="#aa0016"/>
  <path d="m461 121c13.7-8.12 50.5 9.03 50.5 9.03l15 4.11-26 27.6s-14.6 20.2-25.6 20.8c-5 0.258-25-7.31-23.4-16.5 0 0 2.65-17.2 4.45-25.7 1.38-6.48-1.31-15.6 4.85-19.3z" fill="#e3388e"/>
  <path d="m358 440c10.1 1.49 19.1 33.3 19.1 33.3s6.3 12.8 2.36 16.8c-6.52 6.77-28-2.9-28-2.9s-35.7-6.69-29.5-13.8c3.23-3.7 27.3-34.8 36.1-33.5z" fill="#aae3a5"/>
  <path d="m197 500c8.59-2.29 18.8-3.32 24.7 4.05 1.66 2.05 1.56 8.12 1.56 8.12l-0.196 6.79-13.3 39.9-7.78-2.98-37.4-30.4 15.6-13.3s10.3-10.4 16.7-12.2z" fill="#550029"/>
  <path d="m428-7.05-11.1 7.05s-14.9 8.72-19 13.9c-4.63 5.76-5.26 17.6-5.26 17.6l-2.9 17.1c-1.73 3.95-0.114 19.6-0.914 26.1-1.52 12.3 2.46 21.5 11.9 27.6 5.09 3.26 26.4 4.3 43.9 2.57 4.84-7 20.6-32.8 23.4-43.5 0.224-0.843-7.65-26.3-14.9-37.7-4.08-6.45-12.2-10.6-15.7-16.7-1.42-2.46-4.84-7.01-4.84-7.01z" fill="#c700b4"/>
  <path d="m4.45 316c0.353-2.5 5.02-5.68 5.02-5.68 5.98-8.37 22.3-15 31.1-14.3 14.9 1.9 17.4 18.8 13 26.4-5.99 10.3-10.9 23.2-21.7 24.1-8.78 0.739-20.7-16.4-20.7-16.4-1.66-5.03-7.04-9.98-6.71-14.1z" fill="#008e5d"/>
  <path d="m-54.2 475 39.9 3.59 31.6 25.6 4.85 5.94-17.3 17.4-55.1-29.8z" fill="#e3e3c9"/>
  <path d="m412 431c3.49-3.52 33.1-1.65 37.3 2.31 3.94 3.71 3.13 24 1.16 35.8-1.12 6.69 7.65 20.6 3.52 26.4-2.98 4.15-27.8 6.46-27.8 6.46s-15.3 8.37-23.1 6.48c-6.29-1.53-14.2-13.2-14.2-13.2s-10.9-18.8-6.53-27c6.83-12.7 20.1-27.5 29.7-37.1z" fill="#c7e30d"/>
  <path d="m-32.7 343 10.8-5.21 21.9 33.9s9.21 13.6 10.5 22.2c0.939 6.22 2.85 13.5-1.32 18.1-2.58 2.84-9.2 3.19-9.2 3.19l-40.3 6.18-12.9 1.37 13.5-62.4z" fill="#e3aac9"/>
  <path d="m85.5 459c4.69-4.33 9.26-10.6 15.9-10.6 8.71-0.061 13.5 9.74 20.3 15.2 4.96 3.97 15.7 8.94 14.1 15.1-2.99 11.5-14.8 33.5-14.8 33.5l-7.9 15.5-20.3-15.5s-26.2-15.4-26.8-28.5c-0.462-10.5 11.7-17.6 19.4-24.7z" fill="#1ce39d"/>
  <path d="m363 496c6.57-2.24 11.9-2.03 18.7 1.8 4.63 2.58 13.4 14.1 13.4 14.1l2.15 2.25-11.2 25.7-19.1 1.93-41.4-12 18.5-17.8s11.5-13.4 18.9-15.9z" fill="#aa0016"/>
  <path d="m502 61.6c1.09-6.72 10.2-11.8 10.2-11.8l10.4-5.52 33.8 35.2-7.42 29.5-1.82 1.62-11.2-7.47-23.7-24.9s-11.5-8.08-10.2-16.7z" fill="#001c34"/>
  <path d="m-52.4 429 52.4-6.99s14-3.54 19.3-0.276c2.37 1.45 1.58 2.92 2.08 5.66 1.08 5.93 0.346 18.1 0.346 18.1l-27.4 28-46.2-7.54-1.61-33.9z" fill="#e3c7ec"/>
  <path d="m240 466c14.2-2.94 24.2-10.3 37-9.65 6.2 0.311 18.1 11.6 23.4 20.5 5.99 10.1 0.782 35.2 0.782 35.2l0.202 9.07-3.41 10-57.4-17.8-11.1-12s-0.852-33.1 10.5-35.4z" fill="#71e3d0"/>
  <path d="m29.9 512 0.149-0.189 2.32-2.94s11.4-17.9 20.7-20c4.01-0.899 11.7 3.96 11.7 3.96l38.6 44.3-6 9.46-27.5 2.24z" fill="#1c0024"/>
  <path d="m319 103q2.17 0.729 6.1 7.18 0.136 0.224-50.6 37.4-1.76 1.29-23.2-16.9-0.744-0.631 5.12-47.1 0.204-1.61 62.6 19.4z" fill="#711cea"/>
  <path d="m357 186q3.58-2.98 14.4-2.13 10.7 0.842 26 28.8 15.1 27.6 8.35 37.6-6.62 9.86-11.2 11.1-4.54 1.18-32.7-15.9-27.8-16.9-18.1-36.8 9.62-19.6 13.3-22.6z" fill="#aa5580"/>
  <path d="m193 256q2.06-8.31 18.5-10.3 27-3.24 30.2-0.709 5.2 4.18 11.8 18.1 10.9 22.9 5.77 25.3-8.54 3.93-26.9-0.152-30.3-6.73-34.2-14.4-6.37-12.7-5.12-17.7z" fill="#557163"/>
  <path d="m288 377q3.59-6.44 19-13.1 25.6-11 34.4 9.66 14.6 34.5 14.4 35.3-0.413 1.45-22.6 0.224-37-2.04-40.9-10.7-6.61-14.4-6.5-15.6 0.188-2.02 2.34-5.89z" fill="#8eaa62"/>
  <path d="m141 404c25.5-1.17 21.5 9.86 28.1 24 4.21 9.08-2.98 19.4-14.6 31.1-7.44 7.44-12.9 11.6-16.4 12.4-2.24 0.53-9.36-4.98-21.4-16.5-7.68-7.39-8.92-20.1-3.72-38.1 3.33-11.5 12.7-15.8 28-12.9z" fill="#38c798"/>
  <path d="m361 108q21.2-9.42 31.5-2.83 11.6 7.41 7.55 33.1-4.51 28.9-10.9 33.3-7.18 4.89-17.3 4.09-11.4-0.898-20-28.4-9.68-30.9 9.2-39.3z" fill="#aa3878"/>
  <path d="m191 190q6.46-0.7 26.6 5.83 16.4 5.33 17.6 25.7 0.951 16.6-23 19.5-19.5 2.34-23.9-7.14-3.58-7.74-4.47-27.1-0.729-15.8 7.19-16.7z" fill="#55558b"/>
  <path d="m331 233c-1.35 0.0252-2.75 0.452-4.17 1.28-0.211 0.122-4.01 6.15-6.1 9.17-6.59 9.52-11.8 16.4-20.3 28.2-6.34 5.01-12.4 10.8-16.6 17.7-2.02 3.32-4.8 6.19-3.92 11 7.8 42.3 13.1 62.9 15.9 61.7 24.5-10.6 37.4-16.6 38.5-18.1 10.3-13.3 6.61-11.3 13.9-21.4 7.25-10.1 17.4-26.2 29.1-39.7 4.71-5.45 16.7-14.5 12.4-17.7-13.2-9.95-20-9.86-54.8-31-1.28-0.777-2.6-1.15-3.95-1.13z" fill="#8e8e31"/>
  <path d="m121 341c6.18-7.72 11.9-11.2 17.3-10.5 24 3.12 37.1 5.65 39.4 7.59 10.2 8.7 15.3 13.5 15.3 14.4-0.04 4.17-0.468 7.57-1.28 10.2-3.67 11.8-2.09 21.5-5.57 23.7-15.7 9.72-21.7 14.9-26.3 14-20.6-3.89-30.5 3.57-40.5-5.66-6.98-6.42-7.16-24.3-6.29-27.8 3.93-15.6 6.59-24.3 7.96-26z" fill="#38aa36"/>
  <path d="m398 373q52.3 52.7 52.3 52.8 0.049 0.39 2e-3 0.487-1.04 2.15-2.51 2.09-32.6-1.29-34.7-1.8-47.7-11.4-47.7-11.5-1.32-2.37-1.29-2.47 0.633-2.22 1.97-3.93 29.6-38 32-35.6z" fill="#c7c716"/>
  <path d="m298 137q30.9-22.7 34.1-21.2 4.54 2.08 12.1 26.1 10.8 34.4 7.81 36.9-4.25 3.54-32.8-4.57-40.9-11.6-41.7-15.6-1.11-5.73 20.5-21.5z" fill="#8e386b"/>
  <path d="m171 189c-2.52 0.0152-5.86 0.387-10 1.12-31.3 3.01-46.2 52.8-47.7 61-1.48 11.6-0.459 11.7 1.45 17 1.86 5.22 3.1 4.91 9.39 13.7 0.162 0.227 19.5-6.58 58-20.4 0.992-0.356 2.56-4.87 4.71-13.5 0.0525-0.212 0.684-8.61-4.24-19.8 0.842-1.11-1.3-15.6-2.45-21.9s-3.47-15.6-4.07-16.1c-0.861-0.7-2.55-1.04-5.06-1.03z" fill="#3863ae"/>
  <path d="m416 248q2.07-3.08 31.1-10.6 5.33-1.38 14.5 24.4 1.68 4.72-20.3 26.7-4.04 4.04-20.4-3.31-3-1.35-14.1-17.5-2.03-2.96 9.23-19.7z" fill="#c771ce"/>
  <path d="m259 297q8.72-4.02 10.6-3.58 3.3 0.757 8.05 26.5 8.29 44.9 6.2 48.7-3.65 6.55-23-6.22-33.8-22.3-24-37.1 17.1-25.9 22.1-28.2z" fill="#718ecf"/>
  <path d="m65.5 323c18.9 3.82 45.7 20.5 45.3 22.2-4.39 17.4-7.92 26.2-10.6 26.5-27.9 2.88-42.2 3.57-43.1 2.07-8.85-15.6-27.4-22.3-18.6-29.1 12.6-9.75 16.2-23.9 27-21.7z" fill="#1caa20"/>
  <path d="m363 420q0.224-2.63 42.6 7.51 7.48 1.79-22.3 31.6-5.27 5.27-19.1-19.8-2.44-4.43-1.17-19.3z" fill="#aac7cf"/>
  <path d="m273 179q3.69-11.7 23.7-6 49.4 14 43.8 25.4-13.8 28.1-15.1 28.8-3.27 1.9-13.2-3.3-24.5-12.8-29.1-20.7-11.5-19.5-10-24.2z" fill="#8e554f"/>
  <path d="m429 294q9 4.04 28.9 24.5 17.3 17.7 14.7 20.3-2.26 2.26-34 2.57-27.5 0.272-23.5-27.7 3.52-24.3 13.9-19.7z" fill="#c78e87"/>
  <path d="m202 353q7e-3 -0.754 20.9-8.34 2.29-0.83 50.2 30.8 5.24 3.46 4.98 6.38-0.03 0.319-29.4 8.82-3.21 0.931-42.5-27.6-4.3-3.13-4.24-10z" fill="#71aadb"/>
  <path d="m14.7 401c-0.556-7.78-8.5-22.6-2.31-23.3 24.3-2.52 64.8 2.52 92.7 3.19 6.44 0.155 9 6.32 9.65 16.8 0.644 10.4-7.97 35.4-8.59 43-0.0879 1.08-14-1.47-23.1-4.74-35.9-12.8-17.6-6.5-26.5-9.39-13.6-4.43-32.4-0.881-41.3-12.2-2.75-3.52-0.271-8.94-0.59-13.4z" fill="#1cc7b1"/>
  <path d="m246 135q0.749-0.175 9.91 7.6 13 11 13.8 15.1 1.1 5.71-1.04 12.5-3.04 9.65-14.4 16.1-16.1 9.22-31.2 4.32-21.4-6.96-3.26-27 25.8-28.5 26.3-28.6z" fill="#71386b"/>
  <path d="m235 295q13.9 3.08-5.37 32.2-7.66 11.6-24.3 17.6-6.61 2.4-20-9.02-5.33-4.54 9.07-36 5.73-12.5 40.6-4.8z" fill="#558eb0"/>
  <path d="m342 415q14.4 0.792 15.4 2.67 0.335 0.602-0.792 13.9-0.362 4.26-28.7 32.6-9.08 9.08-15.6 10-2.08 0.295-20.9-15.2-6.03-4.97 2.86-36.3 2.85-10.1 47.6-7.6z" fill="#8ec7ba"/>
  <path d="m153 276c21.6-7.75 33.9-8.53 37-2.35 3.72 7.43 2.53 17.8-3.56 31.1-7.33 16 1.26 31.8-31 21.4-42.1 3.23-28.1-13.4-32-24.3-1.96-13.6 11.6-19.5 29.6-25.9z" fill="#388e75"/>
  <path d="m398 358c0.231-4.25 2.37-7.46 6.41-9.62 3.37-1.8 15.8-2.81 37.4-3.02 28.8-3.12 21.4 8.57 14.3 61.5-4.99 22.9-9.35 10.4-33.6-16.2-16.6-16.7-24.7-27.6-24.5-32.7z" fill="#c7aa31"/>
  <path d="m258 394q20.8-6.02 24.6 2.29 6.76 14.7 2.51 29.7-7.5 26.5-21.8 31.2-25.3 8.34-32-0.165-11.9-15-11.4-22.5 0.85-13.2 10.1-21.8 16.3-15.2 28.1-18.6z" fill="#71c75f"/>
  <path d="m395 178q6.82-4.64 31.7-5.54 25.1-0.912 32.2 7.14 7.11 8.14 2.63 26.8-4.53 18.9-6.5 20.9-2 2-19.1 6.41-17.3 4.46-32.4-23.2-15.2-27.9-8.5-32.5z" fill="#c7557e"/>
  <path d="m293 220q27.4 14.3 26.5 16.2-3.48 7.37-9.87 15.5-25 31.6-26.8 32.2-7.3 2.34-8.36 2.1-4.14-0.948-7.72-8.44-14-29.3-7.21-35.8 26.5-25.4 33.5-21.7z" fill="#71713b"/>
  <path d="m49.7 286c5.47-5.47 14.2-8.78 26.2-9.92 22.1-2.1 19.7-16.5 29.7-12.5 12.1 4.94 13.8 27.3 15 36.1 2.32 16.2 2.15 25.9-0.51 29.2-4.89 6.11-12.5 7.31-22.9 3.58-19-6.85-31.3-14-36.8-21.5-10.2-13.7-13.7-22-10.8-25z" fill="#1c8ec7"/>
  <path d="m334 355c-3.35-6.37 17.9-31.8 21.1-29.8 22.2 13.8 37.2 26.3 37.1 27.5-0.444 8.19-1.95 13.9-4.5 17.2-18.1 23.2-28.1 32.5-30 27.9-13.7-32.2-14-24.4-23.7-42.8z" fill="#aaaa29"/>
  <path d="m170 399q20.3-12.6 27.6-2.71 17.5 23.9 17.1 30-0.943 14.7-11.5 14.1-25.4-1.27-30.2-11.5-11.4-24.7-3.04-29.9z" fill="#55c74f"/>
  <path d="m428 110q21.7-2.16 24.4 2.25 3.1 5.19 1.04 26.9-2.43 25.5-25.4 26.4-27 0.981-23.1-24.1 4.6-29.5 23.1-31.4z" fill="#c73876"/>
  <path d="m262 188q4.47-2.55 18.1 20.4 2.64 4.45-25.2 31.2-5.4 5.18-12.4-0.436-1.36-1.09-3.13-32-0.344-5.99 22.7-19.2z" fill="#7155cc"/>
  <path d="m387 276q3.99-4.78 11.9-6.83 1.29-0.336 12.6 16.1 1.85 2.7-4.64 47.6-1.07 7.38-10.6 12.5-1.57 0.839-34.2-19.5-5.35-3.35-5.94-6.02-0.097-0.439 5.7-12.7 0.952-2.01 25.2-31.1z" fill="#aa8e46"/>
  <path d="m194 379q5.29-17.1 14.6-10.3 34.3 24.9 28.8 30-20.1 18.7-25.4 11.5-19.5-26.6-18-31.2z" fill="#55aa3d"/>
 </g>
</svg>
