<?xml version="1.0" encoding="UTF-8"?>
<svg width="512px" height="512px" contentScriptType="text/ecmascript" contentStyleType="text/css" version="1.1" viewBox="0 0 512 512" xmlns="http://www.w3.org/2000/svg">
 <g class="voronoi" stroke-width=".5">
  <path d="m458-37.1 39.9 3.59 31.6 25.6 4.85 5.94-17.3 17.4-55.1-29.8z" fill="#e3e3c9"/>
  <path d="m445-14.3 30.2 14 0.43 0.334 34.6 26.9s-7.21 11.4-11.8 16.3c-5.62 5.96-10.9 16.8-19 15.6-11.6-1.79-14.1-18.9-19.3-29.5-4.56-9.27-10.2-29.3-10.2-29.3z" fill="#e3006f"/>
  <path d="m533 148 16.4 59.2-1.36 0.59-14-1.31-22.2-14.1s-12.1-4.42-12.4-12.6c-0.326-8.58 12.4-16 12.4-16z" fill="#005528"/>
  <path d="m471 70.8c4.74-3.55 9.83-7.34 16.9-5.37 10.6 2.96 24.2 23.6 24.2 23.6l12.5 9.69 6.92 22.9-51-4.39s-19.2-2.73-23.3-10.1c-3.32-5.98 3-20.3 3-20.3s5.62-12.1 10.8-16z" fill="#e31caf"/>
  <path d="m361-16.4-35.5 34.2 0.582 0.17c-5.24 6.19 2.46 63.7 2.58 76.1 0.0307 3.28 0.767 6.11 2.21 8.48 0.382 0.627 13.9-4.96 40.5-16.7 7.03-3.12 11.9-15.9 14.7-38.5-0.558-6.2-1.38-13.1-0.0293-19.5 1.86-8.72 11.3-15.5 10.9-24.4-0.0529-1.31-1.89-3.46-1.89-3.46l-11-11.5z" fill="#aa0016"/>
  <path d="m498 128c4.55-0.174 13.9 1.83 13.9 1.83l15 4.11-26 27.6s-14.6 20.2-25.6 20.8c-5 0.258-9.92-3.98-12.6-8.24-7.35-11.8-13.7-30.6-5.04-41.5 8.37-10.6 26.3-4 40.2-4.54z" fill="#e3388e"/>
  <path d="m428-7-27.8 17.7c-10.1 17.7-8.02 36.1-10.5 57.1-1.2 10 2.76 20.2 11.9 30.7 4.9 5.65 16 7.61 33.2 5.9 8.52-0.833 17.8-24.3 24.7-34.7 5.09-7.63 0.324-28.1 0.324-28.1z" fill="#c700b4"/>
  <path d="m501 61.8c1.09-6.72 10.6-12 10.6-12l10.4-5.52 33.8 35.2-7.42 29.5-1.82 1.62-11.2-7.47-23.7-24.9s-12-7.92-10.6-16.5z" fill="#001c34"/>
  <path d="m332 110q0.06-1.63 35.2-17.2 15.3-6.77 30 10.1 6.38 7.34-6.2 33.1-5.46 11.2-35.3 7.55-13-1.58-20.5-21.3-3.29-8.55-3.15-12.3z" fill="#aa38ac"/>
  <path d="m428 111q21.5-2.13 24.1 2.28 3.1 5.19 1.04 26.9-2.43 25.5-23.8 26.3-25.1 0.912-30.9-7.19-6.8-9.52 1.49-26.5 9.75-20 28-21.8z" fill="#c73876"/>
  <path d="m-13.2 126 28.2 7.71-26 27.6-25.6 20.8-12.6-8.24-3.62-33.7z" fill="#e3388e"/>
  <path d="m27.5 423c-8.88-0.721 2.3 26.6 2.3 26.6s-14.3 7.77-17 17.3c-2.76 9.77-3.58 34.2 11.2 27.8 14.8-6.37 18.1-11.3 33.3-16.4 12.8-4.25 29.9-16.6 23.9-30.7-4.53-10.6-40.7-23.6-53.7-24.6z" fill="#00d59e"/>
  <path d="m479 426c10.8-2.22 32.8-3.92 32.8-3.92l18.6-2.48 2.17 0.445 0.978 25.5-21.8 22.3s-5.73 3.85-8.26 4.73c-13.5 4.66-29.1 6.8-39.8-4.61-5.16-5.52-12.5-15.3-5.93-24.5 4.16-5.85 14.1-16 21.2-17.4z" fill="#e3c7ec"/>
  <path d="m358 452c-13.1-3.29-19.1 10.2-28.1 16.2-7.07 4.72-12.8 7.51-16.8 15.1-4.31 8.28-4.69 28.4-4.69 28.4l-0.707 16.7 14.4-1.89 13.1-14.8 22.7-20.7c2.31-2.11 14.5 1.86 20.9-3.28 5.33-4.28-1.5-14.2-1.5-14.2s-8.83-18.9-19.3-21.5z" fill="#8ee3e0"/>
  <path d="m18.6 10.9c-7.15 0.59 0.0675 14.5-2.83 20.9-3.31 7.31-15.8 18.1-15.8 18.1l-18 9.57 41.8 43.7 11.2 7.47 1.82-1.62s8.1-29.2 7.7-46.9c-0.194-9.33-5.02-27.5-5.02-27.5s-9.38-24.7-20.9-23.7z" fill="#001c34"/>
  <path d="m-32 187 32 13.5s13.1 8.2 15 13.2c3.7 9.57-13.2 21-13.2 21l-42.8-5.79-1.28-33.1z" fill="#e355c7"/>
  <path d="m470 488c5.6-7.2 18.2-2.53 27.3-1.7 4.89 0.449 14.3 3.58 14.3 3.58l17.3 14 4.85 5.94-17.3 17.4-28.7-15.5s-12.5-7.7-16-13.8c-1.69-2.94-3.96-7.32-1.88-9.99z" fill="#e3e3c9"/>
  <path d="m122 16.8c-5.37 2.31-9.9 7.58-11.6 13.2-5.08 16.9 7.78 37.2 7.3 52.6-0.633 17.5 7.48 28.6 24.3 33.1 19.2 5.13 79.3 14.6 82.7-0.399 1.83-19.8-27.8-55.1-36-73.5-6.57-14.7-42-23.9-42-23.9s-17.1-4.18-24.7-0.928z" fill="#380e9d"/>
  <path d="m-41.1 70.8 11-5.22 42.6 33.1 6.92 22.9-51-4.39-23.3-10.1 3-20.3z" fill="#e31caf"/>
  <path d="m15.5 336-15.5-0.633-12.9-3.52 12.9 26.5s6.32 10.8 10.8 13.7c14 9.06 43.7 8.59 43.7 8.59 2.11 1.2 32.5-3.06 40.9-14.9 4.89-6.84 3.14-4.18 0.471-25.2-20.9-21.2-53.4-8.54-80.5-4.62z" fill="#00aa73"/>
  <path d="m485 341c13 3.63 27.4 31.5 27.4 31.5l14.3 22.1 5.66 18.3-20 3.06-26.4 4.52s-18.3 0.607-21.2-2.61c-14.2-15.8 7.98-56.7 7.98-56.7 2.8-5.92 6-21.6 12.2-20.1z" fill="#e3aac9"/>
  <path d="m153 479c7.81 0.317 5.96 3.97 10.2 10.6 4.09 6.37 4.43 22.3 4.43 22.3l-9.94 11.9-28.6-3.55 1.37-8.35s3.91-22.2 9.73-30.8c1.89-2.8 9.44-2.21 12.8-2.07z" fill="#38e3df"/>
  <path d="m393 543 7.56-20.8 27.8-17.7 31.9 48.6-0.753 28.4-48.8-24.7z" fill="#c700b4"/>
  <path d="m-51.9 233 28.5 6.35 24.1 34-4.08 27.9-25.6-18.4-20.7-34.8z" fill="#e37192"/>
  <path d="m501 339c1.12-4.14 11-3.81 11-3.81l12 3.27 32.6 24.3-4.04 26.2-33.4-16.2-7.06-14.6s-12.8-12.5-11-19.2z" fill="#00aa73"/>
  <path d="m187 445s23.3 0.345 31.7 7.13c7.03 5.64 11.5 24.5 11.5 24.5s-7.71 16.9-15.6 19.6c-11 3.8-23.7-2.68-34-8.15-9.58-5.09-20.6-9.34-19.9-20.2 0.825-12.3 26.3-23 26.3-23z" fill="#55e345"/>
  <path d="m445 498c0.805-4.68 2.76-11.9 8.9-11.1 10.7 1.28 21.8 25.4 21.8 25.4l34.6 26.9-11.8 16.3-19 15.6-19.3-29.5s-6.78-19.5-10.2-29.3c-1.66-4.77-5.83-9.34-4.98-14.3z" fill="#e3006f"/>
  <path d="m86.9-50 14.6-13.7 19.3 17.6 5.01 36.9-4.68 9.17s-1.28 16.6-7.65 18c-8.88 2.02-20.5-18-20.5-18l-12.5-9.53z" fill="#1ce39d"/>
  <path d="m49.8 115c-6.64-0.799-10.5 1.72-16.1 4.75l-11.8 12.1-22 32.1-20.6 15.4 42.8 27.2s7.99 3.22 12.3 1.44c1.72-0.704 5.26-4.39 5.26-4.39l47.8-30.5c2.26-1.45 6.68-2.9 10.2-8.69s3.74-10.1 5.98-26.5c1.96-14.4-8.44-21.9-31.2-22.5-9.98-0.282-17.5-0.416-22.7-0.398z" fill="#005528"/>
  <path d="m196 502c8.56-2.28 19.2-5.52 25.2 1.85 1.66 2.05 1.66 8.12 1.66 8.12l-0.196 6.79-13.3 39.9-7.78-2.98-37.4-30.4 15.6-13.3s9.75-8.26 16.2-9.98z" fill="#550029"/>
  <path d="m144-36 38.5 18.1-15 17.9s-5.14 10-9.94 11.9c-8.93 3.52-22.8 4.14-28.6-3.55-1.69-2.26 1.37-8.35 1.37-8.35l5.04-30.8z" fill="#38e3df"/>
  <path d="m-5.02 315 5.02-5.68s4.79-4.57 7.4-6.31c7.52-5.01 19.1-7.18 27.5-4.71 8.29 2.44 13 4.95 12.3 16.2-0.383 5.85-5.15 10.6-8.7 13.1-11 7.96-36.8 1.44-36.8 1.44l-1.68-3.53z" fill="#008ebf"/>
  <path d="m-54.2 475 39.9 3.59 31.6 25.6 4.85 5.94-17.3 17.4-55.1-29.8z" fill="#e3e3c9"/>
  <path d="m363 420c-3.57 1.52-1.59 15.6 0.439 19.6 6.57 11.9 16.7 22.1 18.3 28.6l6.53 27s7.83 12.1 14.2 13.2c12.1 2.16 34-14.2 34-14.2l6.21-6.11s7.1-12.1 8.5-18.9c2.34-11.2-1.25-31.9-11.9-34.4-7.4-1.78-14.3-0.808-21.4-1.95-18.5-3-50.7-14.6-54.8-12.9z" fill="#b9d56e"/>
  <path d="m29.9 0.189 0.149-0.189 2.32-2.94 20.7-20 11.7 3.96 16.6 19c6.91 10 31.4 24.5 16.1 34.8-7.88 4.76-19.7 16.4-30.6 13.6-19.6-4.98-37-48.2-37-48.2z" fill="#1c0024"/>
  <path d="m-32.7 343 10.8-5.21 36.2 56 5.66 18.3-60.2 9.24-12.9 1.37 13.5-62.4z" fill="#e3aac9"/>
  <path d="m82.7 464c3.26-4.35 13.6-9.01 19-8.79 7.29 0.3 15 4.74 19.1 10.8 6.96 10.3 5.72 24.2 3.63 36.4-0.576 3.38-3.31 9.68-3.31 9.68l-7.9 15.5-20.3-15.5s-9.5-9.02-11.4-13.9c-5.07-12.7-6.08-24.5 1.23-34.2z" fill="#1ce39d"/>
  <path d="m363 496c7.56-2.18 20.9 4.44 20.9 4.44l13.1 13.8-11.2 25.7-19.1 1.93-41.4-12 18.5-17.8s11.6-13.9 19.2-16.1z" fill="#aa0016"/>
  <path d="m-54.2-37.1 39.9 3.59 31.6 25.6 4.85 5.94-1.93 1.95s-6.91 11.9-12.9 14c-2.35 0.814-7.36-1.17-7.36-1.17l-50.2-27.1z" fill="#e3e3c9"/>
  <path d="m13.6 232s-6.58 30.4-2 43.1c2.96 8.26 14.6 13.6 14.6 13.6s19.7 10.2 29 16.3c10.8 7.08 20.2 19.5 30.8 23.4 6.72 2.42 25.4-17.8 24.9-31.6-0.667-18.7 3.89-55.9-2.87-64.5-0.5-0.484-16.4-5.94-47.7-16.4-16.2-3.16-40.8-15.3-46.8 16z" fill="#137b5b"/>
  <path d="m-52.4 429 52.4-6.99s15.1-2.3 19.2 2.72c4.52 5.57 0.3 17.8-1.43 21.5l-17.8 21.5-5.6 5.73-46.2-7.54-1.61-33.9z" fill="#e3c7ec"/>
  <path d="m238 476c7.52-8.64 19.2-15.9 30.6-15.6 10.4 0.265 21.7 6.61 27 15.5 5.99 10.1 5.49 35.7 5.49 35.7l0.202 9.07-3.41 10-57.4-17.8-1.23-1.32s-5.63-6.94-6.64-11.7c-1.82-8.61-0.425-17.3 5.35-23.9z" fill="#71e3d0"/>
  <path d="m29.9 512 0.149-0.189 2.32-2.94s11.4-17.9 20.7-20c4.01-0.899 11.7 3.96 11.7 3.96l38.6 44.3-6 9.46-27.5 2.24z" fill="#1c0024"/>
  <path d="m58.8 54c8.61-2.42 45.2-10.1 48.7-4.53 3.53 5.73 5 16.7 4.41 33-0.601 16.7-1.97 21.4-9.8 26.8-7.18 4.95-17.8 2.22-26.2-0.313-8.94-2.71-26.2 6.04-23.5-15.3 1.37-13.8-6.38-35.5 6.35-39.7z" fill="#1c1c7e"/>
  <path d="m176 173q1.03-1.9 40.4 3.14 12.7 1.63 19.9 10.3 2.31 2.81 3.16 25.6 0.274 7.35-5.49 13.1-1.86 1.85-42.7 3-13.2 0.369-18.4-4.87-1.68-1.69-0.436-34 0.402-10.4 3.61-16.3z" fill="#5555ba"/>
  <path d="m345 310c4.67 3.17 3.14 6.16 5.78 15.9 2.65 9.8 0.0967 16.9-7.67 21.2-7.8 4.35-18.5 6.85-32.2 7.49-13.7 0.643-17.3 5.03-22-0.563-4.66-5.5 0.0933-8.16 3-21.4 2.92-13.3 12.1-21.6 27.8-22 12.2-0.276 18.5-5.03 25.3-0.627z" fill="#8e8e7f"/>
  <path d="m165 358c-8.96 0.21-19.3 6.03-41.9 22.3-6.97 5.02-6.19 7.7-3.6 13 12.6 13.8 46.9 23.5 54.7 37.9 2.6 5.5 12.4 8.67 29.3 9.52 7.05 0.333 11.2-8.4 12.3-26.2 0.467-7.4-4.9-14-16.1-19.9-2.48-1.28-7.78-11.2-14.1-18.8-2.58-11.4-9.17-17.9-20.6-17.8z" fill="#47b94a"/>
  <path d="m386 366q5.57-0.749 8.14 1.84 57 57.4 57 57.5 0.048 0.39 2e-3 0.487-1.04 2.15-2.51 2.09-32.6-1.29-34.7-1.8-47.7-11.4-47.7-11.4-0.149-0.268 0.701-2.35 18.9-46.2 19.1-46.3z" fill="#c7c716"/>
  <path d="m296 214c1.09 2.51-14.4 4.4-46.4 5.69-2.86 0.115-9.09-19-5.32-27.5 4.84-11 15.1-8.56 30.7-18.8 11.4-7.48 17.8 33.3 21 40.6z" fill="#7155df"/>
  <path d="m392 286c8.95 5.59 12.1 14.3 14.7 40.9 1.06 10.5-3.31 19.3-13.1 26.6-3.85 2.85-7.16 4.46-9.95 4.83-1.1 0.147-6.8-3.95-17.1-12.3-4.05-3.29-31.6-49.8-15.2-64.6 12.5-6.67 33.6 0.278 40.6 4.66z" fill="#aa8eb1"/>
  <path d="m238 311c-8.1-24.2-55.8-13.6-59.6-4.48 2.95 19.8 1.82 38.4 7.37 54.8 5.49 16 11.3 25.6 17.5 28.9 9.65 5.06 15.9 6.55 18.8 4.47 4.55-3.25 8.56-9 12-17.3 5.41-12.9 5.23-14.1 6.07-21.5 1.69-14.9-2.4-38.7-2.16-44.8z" fill="#559c53"/>
  <path d="m100 172c3.25-2.38 7.45-3.11 12.6-2.2 34.4 6.17 42.1-0.415 51.4 14.8 6.8 11.1-3.46 37.6-7.53 38.4-27.3 5.56-41 8.21-41.3 7.96-1.76-1.7-3.21-4.97-4.36-9.8-7.67-32.4-11.3-48.8-10.8-49.2z" fill="#38552a"/>
  <path d="m254 288c0.05-0.036 6.87 1 20.5 3.12 0.104 0.016 5.36 6.83 15.8 20.5 0.08 0.105 1.59 30.7-8.55 39.6-5.45 4.79 1.07 0.576-21.7 1.83-11.4 0.627-12-9.78-14.7-16.7-5.01-12.7-2.56-5.99-1.11-41 0.0113-0.269 3.3-2.72 9.87-7.35z" fill="#718ef0"/>
  <path d="m194 231c-5.04 0.0576-44.7 0.524-58.3 3.29-20.5 7.57-21.9 38.3-13.6 54.7 3.9 7.51 8.1 12.1 31.1 12.5 13.4 0.26 20.9-0.919 22.4-3.54 14.3-8.85 30.2-4.54 43.3-5.8 14.5-1.48 23.7-3.65 27.8-6.52 2.52-1.8 0.314-12.8-6.62-32.9-3.52-30-30.7-20.7-46.1-21.7z" fill="#477182"/>
  <path d="m355 348c-8.66 1.74-17.5 7.21-23.9 8.86-2.57 0.665-19.2 1.89-22.4 2.19-29.9 2.8-8.62 49.8-7.33 49.7 21.2-2.78 21.3-3.86 37.8-2.09 13.9 1.49 21.9 1.2 24.8-5.87 10.2-25.1 13.8-38.9 10.6-41.5-9.08-7.4-15.7-12.1-19.6-11.3z" fill="#8e8ed6"/>
  <path d="m150 423c10.7 3.59 13.8 7.36 16.7 15 2.93 7.64-0.951 9.35-12.6 20.9-7.47 7.47-12.9 11.6-16.4 12.4-2.24 0.531-9.37-4.97-21.4-16.5-7.67-7.4-8.91-20.1-3.74-38 3.32-11.5-0.0117-13.5 16.6-7.91z" fill="#38c798"/>
  <path d="m193 133c-13.1 1.1-12.9 7.87-14 22.9-0.467 6.13 25.6 11.5 49.4 16.8 2.26 0.505 10.1 5.27 10.8 6.16 3.2 3.97 10.3 3.1 21.1-2.67 11.6-6.17 12.9-5.07 14.3-10.9 3.18-13.3-18.8-41.6-32.5-44.7-15.5 7.5-32.4 9.64-49.1 12.5z" fill="#633827"/>
  <path d="m90.2 179c4.82-0.14 7.25 2.32 11.6 20.8 4.44 18.7-3.67 24.7-24.3 17.8-20.9-6.96-21-9.31-9.51-20.8 11.6-11.6 17.4-17.7 22.2-17.8z" fill="#1c557e"/>
  <path d="m299 416q1.68-2.11 24.5-3.93 7.33-0.584 27.2 4.03 6.37 1.48 6.49 1.69 0.038 0.068-1.09 13.4-0.362 4.26-28.7 32.6-9.08 9.08-15.6 10-2.08 0.295-20.9-15.2-6.03-4.97 0.619-28.4 2.13-7.53 7.38-14.1z" fill="#8ec7ba"/>
  <path d="m331 248c9.07 8.85 3.37 0.444 9.23 36.9 1.77 11.1-9.33 17.6-33.3 19.7-7.27 0.633-14.9-4.3-23-14.8-2.44-3.19 6.09-18.7 25.6-46.6 5.04-5.08 16.2-0.315 21.5 4.81z" fill="#8e71bc"/>
  <path d="m112 319q5.93-10.8 39.6-10.1 21 0.404 23.6 16.9 1.68 10.3-0.243 15-1.2 2.93-36.8 24.9-22.2 13.7-27.8 8.47-3.5-3.23-6.2-24.5-1.68-13.3 7.85-30.6z" fill="#388e9a"/>
  <path d="m405 353c6.19-4.58 19.4-6.96 39.6-7.16 16.9-0.166 15.9 11 9.9 38.5-4.99 22.9-11.9 26-33.5 4.16-18.1-18.2-23.4-30-16-35.5z" fill="#c7aa89"/>
  <path d="m276 359c-10.9 0.0213-28.4 3.75-32.4 12.5-15 31-22.5 25.5-24.6 56.6-0.6 9.13 3.07 18.7 11 28.7 4.47 5.67 15.1 5.72 32 0.164 20.3-14.8 34.4-42.4 29.8-64.7-4.3-20.5-6.76-31.1-7.39-31.8-0.9-0.999-3.71-1.5-8.44-1.5z" fill="#71b9b8"/>
  <path d="m500 319c11.5 11.8 0.633 12-1.1 13.8-1.51 1.51-38.5 7.86-58.3 8.06-17.2 0.171-28 4.04-30.1-15.8-2.63-26.7-2.95-48.3 17.7-39 24.6 13 30.1 22.9 71.8 32.9z" fill="#c78e87"/>
  <path d="m36.7 403q21.4-21.4 29.9-22.3 33.4-3.46 35.3-1.75 7.26 6.71 7.81 8.79 2.17 8.16-0.426 17.1-10.2 35.2-10.6 35.3-1.56 0.465-15.3-4.44-53.8-19.3-53.9-19.4-0.348-0.552 0.063-2.04 1.61-5.86 7.07-11.3z" fill="#1cc73b"/>
  <path d="m115 115q2.21-1.55 20.7 3.41 35.5 9.5 36.2 11.1 1.44 2.99 0.65 14.1-1.5 21.3-2.96 23.9-2.78 5.12-23.1 1.47-39-6.99-36.8-22.8 4.14-30.3 5.3-31.1z" fill="#38385b"/>
  <path d="m241 229q5.31-5.29 21.2-5.92 36.5-1.46 41.2 0.802 11 5.2-0.586 21.7-26.6 38-32.8 37.1-14.3-2.23-19.5-17.1-11.8-34.3-9.52-36.5z" fill="#717152"/>
 </g>
</svg>
