<?xml version="1.0" encoding="UTF-8"?>
<svg width="512px" height="512px" contentScriptType="text/ecmascript" contentStyleType="text/css" version="1.1" viewBox="0 0 512 512" xmlns="http://www.w3.org/2000/svg">
 <g class="voronoi" stroke-width=".5">
  <path d="m458-37.1 39.9 3.59 31.6 25.6 4.85 5.94-17.3 17.4-55.1-29.8z" fill="#e3e3c9"/>
  <path d="m361-16.4-35.5 34.2c-28.7 35.2-13.6 65.9 3.6 72.2 11.5 3.55 19.4-15.3 28.9-21.8 9.51-6.48 26.9-7.77 28-17.2 0.986-15.8 5.33-34.4 11.2-48.8l-13.1-13.8z" fill="#aa0016"/>
  <path d="m-13.2 126 13.2 3.6s4.9 1.36 6.31 6.37c1.98 7.04-6.31 13.7-6.31 13.7l-10.9 11.6-25.6 20.8-12.6-8.24-3.62-33.7z" fill="#e3388e"/>
  <path d="m27.9 427c22.4-2.28 49.7 2.24 56.2 23 4.6 14.6-16.5 10.7-30 18-15.9 8.69-37.1 33.3-46.9 18-7.76-12.1 10.6-23.9 14.4-36.3 2.69-8.78-2.85-21.8 6.28-22.7z" fill="#00c7e4"/>
  <path d="m460 429 71-9.47 2.17 0.445 0.978 25.5-21.8 22.3s-6.11 3.09-8.65 3.92c-14.8 4.88-43.2-5.73-43.2-5.73l-1.61-33.9z" fill="#e3c7ec"/>
  <path d="m320 479c11-0.298 23.8 3.26 26.7 15.3 2.07 8.44-11.7 17.5-11.7 17.5l-13.1 14.8-14.4 1.9 0.707-16.7s0.0833-20.3 5.31-28c2.17-3.2 3.28-4.62 6.44-4.7z" fill="#8ee3e0"/>
  <path d="m4.93 27.5c0.0781-7.17 6.66-15.1 13.7-16.6 13-2.79 25.8 4.63 33.1 15.8 5.6 8.59 9.63 24.6 1.38 30.7-10.2 7.53-22.8-3.45-33.1-10.8-6.57-4.72-15.1-11-15-19.1z" fill="#00009c"/>
  <path d="m445-14.3 30.2 14 0.43 0.334s32.5 12.4 34.6 26.9c0.941 6.64-5.66 13.6-11.8 16.3-5.68 2.45-18.4-2.4-18.4-2.4s-12-8.13-16.5-13.7c-6.27-7.9-13.6-27-13.6-27z" fill="#e3006f"/>
  <path d="m-32 187 32 13.5s12.5 7.48 14.4 12.5c3.7 9.57-12.6 21.7-12.6 21.7l-42.8-5.79-1.28-33.1z" fill="#e355c7"/>
  <path d="m465 483c9.04-9.85 32.4-4.73 32.4-4.73l31.6 25.6 4.85 5.94-17.3 17.4-28.7-15.5s-22.4-5.14-26.5-14.3c-2.01-4.53-1.65-8.77 3.56-14.4z" fill="#e3e3c9"/>
  <path d="m122 16.8c-5.37 2.31-25.1 18-25.1 18-14.7 12.4-21.5 13.8-33.3 25.3-8.12 8.12-10.2 7.96-13.1 19.9-2.83 11.6 3.7 27.8 26.4 28.5 8.98 0.254 17.9 1.32 26.8 2.94 7.84 1.44 13.4 2.53 23.1 5.98 4.85 1.7 3.24 3.75 14.9 3.9 13.3 0.175 19.8 3.41 25.2-3.08 17.9-21.4 6.65-62.7-4.78-83.6-7.28-12.8 0.062-12.4-15.4-16.8-7.91-2.26-17.1-4.18-24.7-0.928z" fill="#2f1393"/>
  <path d="m-41.1 70.8 11-5.22 42.6 33.1s7.44 9.21 2.41 15.4c-4.09 5.03-14.9 5.82-14.9 5.82l-31.6-2.72-23.3-10.1 3-20.3z" fill="#e31caf"/>
  <path d="m533 148 16.4 59.2-1.36 0.59-14-1.31-22.2-14.1s-8.62-4.19-8.93-12.3c-0.326-8.58 8.93-16.2 8.93-16.2z" fill="#005528"/>
  <path d="m-12.9 332 24.8 6.79s27.4 11.8 32.6 24.3c3.35 8.19-4.43 19.7-12.3 23.8-11 5.75-25.2-13.8-25.2-13.8l-7.06-14.6z" fill="#00aa73"/>
  <path d="m479 349c6.19-0.84 7.9 6.02 12 8.83 6.98 4.81 21.4 13.8 21.4 13.8l14.3 22.1 5.66 18.3-20 3.06s-27.8 7.74-40.4 2.84c-4.79-1.86-6.63-5.44-9.52-8.66-14.2-15.8 2.85-29.1 10.3-49 1.51-4.02 0.0647-10.4 6.24-11.3z" fill="#e3aac9"/>
  <path d="m141 479c14.9-0.512 57.1 2.83 47.1 8.83-6.68 4.02-20.8 24.2-20.8 24.2l-9.94 11.9-28.6-3.55 1.37-8.35s-0.581-13.4 1.61-19.5c1.83-5.13 5.87-13.3 9.25-13.5z" fill="#38e3df"/>
  <path d="m393 543 7.56-20.8 16.7-10.6s7.11-9.33 11.4-8.41c2.75 0.592 4.34 8.41 4.34 8.41l27.3 41.5-0.753 28.4-48.8-24.7z" fill="#c700b4"/>
  <path d="m-18 59.4 18-9.57s8-3.51 11.9-2.89c25.8 7.21 53.7 58.3 23.4 56.8l-11.6-0.564-23.7-24.9z" fill="#001c34"/>
  <path d="m452 59.7c1.39-5.67 7.64-11.8 13.4-14.9 17-9.23 46.2 44.3 46.2 44.3l12.5 9.69 6.92 22.9-19.4-1.67s-21-2.15-31.6-1.37c-6.5 0.481-13.2 6.03-19.1 3.17-10.8-5.26-10.8-25.8-12.1-32.6-0.785-5.93 1.94-24.6 3.15-29.6z" fill="#e31caf"/>
  <path d="m-51.9 233 28.5 6.35 24.1 34-4.08 27.9-25.6-18.4-20.7-34.8z" fill="#e37192"/>
  <path d="m500 344c0.548-5.03 12.2-9.02 12.2-9.02l12 3.27 32.6 24.3-4.04 26.2-33.4-16.2-7.06-14.6s-12.9-7.84-12.2-14z" fill="#00aa73"/>
  <path d="m213 492s2.44 1.1 17.1 9.99c4.03 2.45 9.62 10.3 9.62 10.3l1.23 1.32 57.4 17.8 3.41-10-0.201-9.07s3.02-25.2-2.97-35.3c-5.29-8.93-15.7-11.9-24.8-15.5-27.4-10.7-35.5-11-64.3-4.9-43.8-2.48-21.3 34.1 3.48 35.4z" fill="#71e3d0"/>
  <path d="m452 506c6.73-2.1 23.9 5.97 23.9 5.97l0.43 0.334 34.6 26.9-11.8 16.3-19 15.6-19.3-29.5-10.2-29.3s-1.56-5.38 1.4-6.3z" fill="#e3006f"/>
  <path d="m86.9-50 14.6-13.7 19.3 17.6 5.01 36.9-4.68 9.17s-6.22 11.1-11.7 11.6c-6.69 0.567-16.5-11.6-16.5-11.6l-12.5-9.53z" fill="#1ce39d"/>
  <path d="m26.3 115c-6.62 2.8-8.94 13.5-10.1 19l0.102 0.0801c-0.8 3.93 9.46 7.91 12.8 13 10.2 15.6 6.55 38.3 18.2 52.8 10.9 7.3 19.5 13.5 30.7 17.3 20 6.69 31.9 5.86 35.8-2.47 3.81-8.19 5.91-13.8 6.3-16.8 0.393-3-1.87-8.13-6.78-15.4-4.01-5.96-39.1-26.4-43.4-30.8l-33.2-33.7c-2.9-2.94-6.62-3.98-10.5-2.98z" fill="#0055b6"/>
  <path d="m499 126 28.2 7.71-26 27.6s-14.6 20.1-25.6 20.8c-8.53 0.531-19.4-9.16-21.7-13.6-6.36-12.2 0.362-24.1 10.5-36 9.08-10.7 34.6-6.48 34.6-6.48z" fill="#e3388e"/>
  <path d="m372 427c-14.9 7.27-46.5 42.6-31 53.2l10.8 7.36 36.9 6.08c3.11 5.59 7.66 12.5 14.2 13.7 11.9-7.34 29.8-8.65 40.5-19.5 4.82-4.93 8.5-18.9 8.5-18.9s-0.417-16-8.41-24.3c-6.77-6.99-21.2-11.5-21.2-11.5-0.055-0.0247-0.111-0.0478-0.172-0.0625-17.4 2.37-31.9-9.08-50-6.15z" fill="#b4da5d"/>
  <path d="m201 496c4.57-0.764 13.5 4.97 13.5 4.97l8.59 10.9-0.196 6.79-13.3 39.9-7.78-2.98-37.4-30.4 15.6-13.3s14.3-14.8 20.9-15.9z" fill="#550029"/>
  <path d="m144-36 38.5 18.1-15 17.9s-5.14 10-9.94 11.9c-8.93 3.52-20.2 4.56-25.9-3.13-1.69-2.26-1.28-8.77-1.28-8.77l5.04-30.8z" fill="#38e3df"/>
  <path d="m396 27.6c-3.21-6.66 3.84-17 3.84-17l27.8-17.7 4.63 7.05s29.9 28.3 22.7 43.3c-10.8 11-34.8-2.16-46.9-6.48 0 0-9.74-4.17-12.2-9.2z" fill="#c700b4"/>
  <path d="m74.6 277c-1.73-0.0473-3.54 0.0196-5.43 0.199-8.22 0.781-23.8-1.92-29.9 2.82-9.77 7.57-24.1 12.4-33 22.5l-11.3 12.7 5.03 10.6 1.68 3.53 90.7 2.35c8.53 3 14.5 3.35 18 1 1.9-1.3-1.77-14-11-38-4.41-11.4-12.7-17.3-24.8-17.7z" fill="#008ebf"/>
  <path d="m-54.2 475 39.9 3.59 14.3 11.6s21.2 8.4 29.9 4.92c5.24-2.08-7.72 15.1-7.72 15.1l-17.3 17.4-55.1-29.8z" fill="#e3e3c9"/>
  <path d="m29.9 0.189 0.149-0.189 2.32-2.94 20.7-20 11.7 3.96 16.6 19s11.4 7.54 12.3 18.7c0.284 3.72 0.176 7.35-3.44 11.5-4.26 4.9-3.48 5.74-12.2 2.75-17.1-5.89-48.1-32.8-48.1-32.8z" fill="#1c0024"/>
  <path d="m21 149c6.6-4.78 17.7 41 15.2 58.1-2.95 3.64-14-1.31-14-1.31l-42.8-27.2 20.6-15.4z" fill="#005528"/>
  <path d="m-32.7 343 10.8-5.21 21.9 33.9s9.61 11.6 16.6 17c5.21 3.99 22 4.14 19.6 11.5-3.89 11.8-36.3 15.1-36.3 15.1l-40.3 6.18-12.9 1.37 13.5-62.4z" fill="#e3aac9"/>
  <path d="m86.9 462 14.6-13.7 19.3 17.6 5.01 36.9-12.6 24.7-32.7-25z" fill="#1ce39d"/>
  <path d="m362 500c7.43-1.9 14.5-1.74 21.4 2.09 4.63 2.58 11.9 10.3 11.9 10.3l2.15 2.25-11.2 25.7-19.1 1.93-41.4-12 18.5-17.8s10.2-10.5 17.8-12.4z" fill="#aa0016"/>
  <path d="m-54.2-37.1 39.9 3.59 31.6 25.6 4.85 5.94-17.3 17.4-55.1-29.8z" fill="#e3e3c9"/>
  <path d="m502 59.5c1.7-10.6 20.8-15.2 20.8-15.2l33.8 35.2-7.42 29.5-1.82 1.62-11.2-7.47-23.7-24.9s-11.8-10.1-10.5-18.7z" fill="#001c34"/>
  <path d="m13.6 232c4.02-6.65 7.68-18.7 16.2-16.8 8.66 1.99 14.2 24.2 14.2 24.2s5.9 18 3.25 25c-3.42 8.98-13.1 15-22.1 16-6.92 0.718-17.7-13.8-20.9-19.9-6.28-12 4.31-19.9 9.48-28.4z" fill="#007170"/>
  <path d="m-52.4 429 52.4-6.99c6.87-0.0632 7.08 4.14 13.9 5.54s6.97 8.35 3.92 16.3c-3.73 9.68-17.8 23.9-17.8 23.9l-5.6 5.73-46.2-7.54-1.61-33.9z" fill="#e3c7ec"/>
  <path d="m29.9 512 0.149-0.189s-0.0122-2.87 0.544-4.15c4.55-10.5 10.8-23.4 21.8-26.4 6.77-1.84 19.9 4.37 19.3 8.44-1.63 11.1 9.71 22.1 9.71 22.1l22.1 25.3-6 9.46-27.5 2.24z" fill="#1c0024"/>
  <path d="m162 183c-5.26 0.234-35.3 8.76-36.2 12.4-1.05 4.14 0.118 8.52 3.3 10.1 17.8 8.63 37.7 28.5 47.2 37.2 4.23 7.77 10.5 9.17 18.7 4.2 20.8-12.6 31.6-20.8 32.3-24.7 1.48-7.75 1.3-13.6-0.525-17.4-9.14-15-49-22.5-64.8-21.8z" fill="#394a74"/>
  <path d="m311 256c-7.36 0.9-12.5 2.44-15.3 4.61-18.4 14.1-27.6 21.6-27.7 22.4-0.491 5.38-0.456 8.31 0.105 8.81 5.72 7.47 9.64 52.4 30.5 62.5 4.27 2.08 34.9-36.6 39.3-49.8 3.23-10.1 3.51-16.6 0.836-19.6-17.4-19.4-26.6-29.1-27.7-29z" fill="#8e80d2"/>
  <path d="m57.6 348c2.3-4.47 21.8-5.86 26.1-8.8 1.11-0.759 16 0.859 23.9 1.87 9.81 1.25 21.3-0.696 29.2 5.17 12 8.87 15.8 24.3 20.5 39.9 1.22 4.02-22.8 13.8-33.5 21.7-11.7 8.58-10.9 19.3-33.5 27.7-5.85 2.18-38.5-16.5-48.1-36.6-2.49-5.21 6.56-33.7 15.4-50.9z" fill="#38aac3"/>
  <path d="m355 396q1.25-1.71 2.99-2.69 38.7-21.9 41-19.5 51.2 51.6 51.2 51.6 0.048 0.39 1e-3 0.487-1.04 2.15-2.51 2.09-32.6-1.29-34.7-1.8-47.7-11.4-48.1-12.2-9.92-17.9-9.86-17.9z" fill="#c7c716"/>
  <g>
   <path d="m125 207c-0.895-0.255-4.99 8.04-12.2 23.6-0.157 0.355 0.207 3.32 1.08 8.81l-6.61 21.2c-7.65 9.93-7.47 18.3-2.85 30.3 9.7 25.1 16.6 37.7 20.7 37.6 8.58-0.133 16.1-6.07 22.6-17.8 11.2-20.3 19.4-25.3 21.8-32 1.06-1.19 6.83-26.8 4.86-28.9-15.3-16.3-30.9-36.8-49.4-42.8z" fill="#388046"/>
   <path d="m262 296c-0.2-0.2-10.8 6.2-31.6 19.2-2.71 23.4-23.3 53.9-17.8 75.8 5.61 7.15 10.9 9.63 16.1 8.66 14.7-2.75 27.7-7.95 50.2-14.8 6.14-1.88 10.2-15.3 11.3-25.7-18.7-22.7-16.4-43.8-28.2-63.1z" fill="#719cb9"/>
   <path d="m44.7 112c-5.55 10.5 18 17.2 22.7 27.4 10.8 18.7 34.6 25.4 49.4 39.1 4.93 7.31 13.9 8.87 26.9 4.67 13.3-4.27 11.4-14.6 10.4-31-3.47-16.7 6.22-27.2-8.25-25.9-6.5-3.31-48.9-10.8-71.2-11.4-11 1.25-25.4-11.1-29.9-2.84z" fill="#2a3829"/>
  </g>
  <path d="m176 270q-0.063-0.508 4.11-6.81 1.03-1.56 38.7-24.3 9.3-5.61 34.2 32.1 6.14 9.32 5.46 16.8-0.169 1.84-26.7 18.4-6.55 4.09-45.8-26.6-9.69-7.58-9.95-9.63z" fill="#5571c4"/>
  <path d="m340 318c1.33-0.121 0.106-1.3 3.18 2.43 1.41 1.72 2.76 17.8 4.05 48.4 0.589 14 0.586 21.5-9e-3 22.3-0.274 0.375-11 0.481-32.2 0.319-9.74-0.0747-16.3-2.06-19.8-5.96-1.59-1.79-2.43-2.84-2.52-3.13-0.0427-0.136 0.337-3.97 1.14-11.5 0.369-3.46 7.04-8.15 26.5-31.2 8.95-10.6 9.94-20.8 19.6-21.7z" fill="#8eaaa9"/>
  <path d="m412 44.1c-5.31 0.396-12.2 11.2-22 16.8-24.1 13.9-51.5 38.8-61.9 38.5-5.56 4.3-7.54 11.9-5.19 20.1 24.8 36.1 18.2 36.7 35.8 42.3 9.34 2.97 17.1 7.2 28.5-7.36 13.5-17.1 25.4-46.2 44.4-48.1 13.6-1.4 17.7-38.4 10.5-46.8-12-14.1-16.5-16.2-30-15.4z" fill="#b92ad4"/>
  <path d="m134 407c-16.8 12.9-23.9 20.8-25.7 26.9-2.73 9.6 0.859 13.9 8.54 21.3 12 11.6 11.7 15.1 19 17.5 7.3 2.42 26.8 6.15 34.2-1.29 12.4-12.2 25.4-23.8 39.8-23.4 7.02 0.4 4.29-16.8 5.37-33.6 0.45-6.9-1.58-13.2-6.08-19-1.9-2.38-11.4-5.35-28.6-8.9-16.5 1.23-32.2 12.8-46.5 20.4z" fill="#47c7b6"/>
  <path d="m429 114c19.2-8.92 17.8-12.5 21.3 3.55 2.07 3.46 4.43 7.38 3.06 21.8-1.62 17-12.4 25.9-32.2 26.6-23.4 0.848-34.5 7.29-27.8-7.73 8.12-18 22.3-42.7 35.7-44.3z" fill="#c73876"/>
  <path d="m42.4 212c0.201-0.2 5.66-3.15 8.61-2.63 3.65 0.652 2.76 2.66 8.87 6.73 30.3 10.1 45.7 16.3 46.1 18.7 1.21 7.24 0.419 12.7-2.37 16.3-8.5 11.1-15.6 16.9-21.4 17.4-17.6 1.67-27.5-2.36-29.7-12.1-6.8-29.6-10.2-44.4-10.1-44.5z" fill="#1c7145"/>
  <path d="m179 288c-8.21-0.222-15.3 4.99-21.1 15.6-10.2 18.4-17.9 34.1-13.1 40.1 8.31 10.3 13.9 34.9 24.9 38.2 15.4 3.18 31.3 0.366 35.6-9.5 11.3-13.5 16.1-35.9 14.5-51.4-0.446-4.18-6.14-12.3-22.3-24.9-6.71-5.24-12.9-7.94-18.5-8.09z" fill="#559c8f"/>
  <path d="m235 218q1.03-5.43 29.9-7.53 13-0.943 25.2 28.8 5.49 13.4-16.5 30.2-9.88 7.58-31.3-24.9-9.62-14.6-7.32-26.7z" fill="#7171ab"/>
  <path d="m371 327q26.9 6.88 29.4 11.5 3.3 6.25-0.684 15.2-5.38 12.1-22.6 21.9-23.2 13.1-24.4-15.3-1.61-38.4 18.4-33.3z" fill="#aaaa6e"/>
  <path d="m163 129c0.244-8.35 16.9-8.59 18.6-7.69 28.5 15.4 30.8 23 30.9 23.6 2.44 11.3 13.9 10.8 15.3 18.7 1.46 8.11-6.61 23.5-8.01 23.4-23.7-1.7-33.9-6.16-34.4-6.45-8.41-4.87-21.3 1.58-25.7-4.45-5.58-10.6 2.93-34.1 3.31-47.1z" fill="#553819"/>
  <path d="m405 356c2.84-6.41 15.3-9.72 37.3-9.94 18.4-0.181 25.5 16.3 12.5 39.4-4.99 22.9-11.1 26.2-30.5 6.63-16.2-16.4-22.6-28.4-19.2-36.1z" fill="#c7aa89"/>
  <path d="m245 400c27.2-7.35 41.7-9.99 43.5-7.93 3.22 3.63 2.96 12-0.777 25.2-6.6 23.3-10.1 27.1-19.7 30.3-16.9 5.56-35.3 5.63-39.8-0.0385-7.92-10-8.41-10-7.86-18.6 0.973-15.1 9.16-24.8 24.6-28.9z" fill="#71c75f"/>
  <path d="m336 399q11.3 0.086 19.1 14.2 2.52 4.54 1.39 17.8-0.362 4.26-28.7 32.6-9.08 9.08-15.6 10-2.08 0.295-20.9-15.2-6.03-4.97 5.71-46.4 3.77-13.3 38.9-13z" fill="#8ec7ba"/>
 </g>
</svg>
