<?xml version="1.0" encoding="UTF-8"?>
<svg width="512px" height="512px" contentScriptType="text/ecmascript" contentStyleType="text/css" version="1.1" viewBox="0 0 512 512" xmlns="http://www.w3.org/2000/svg">
 <g class="voronoi" stroke-width=".5">
  <path d="m458-37.1 39.9 3.59 31.6 25.6 4.85 5.94-17.3 17.4-55.1-29.8z" fill="#e3e3c9"/>
  <path d="m-13.2 126 13.2 3.6s6.78 0.779 8.19 5.78c1.98 7.04-8.19 14.3-8.19 14.3l-10.9 11.6-25.6 20.8-12.6-8.24-3.62-33.7z" fill="#e3388e"/>
  <path d="m30.7 424c8.92-1.63 47.7 11.9 63.4 21.1 7.3 4.29-32.9 34.4-32.9 34.4l-9.71 3.23-21.7-32.9s-7.88-24.2 0.886-25.8z" fill="#00c73c"/>
  <path d="m460 429 71-9.47 2.17 0.445 0.978 25.5-27.4 28-46.2-7.54-1.61-33.9z" fill="#e3c7ec"/>
  <path d="m327 473c10.6 1.59 16.1 13 25.5 19.6 7.12 4.98-17.3 19.5-17.3 19.5l-13.1 14.8-14.4 1.9 0.707-16.7s-1.51-25.4 3.26-33.4c1.62-2.72 9.89-6.5 15.3-5.7z" fill="#8ee3e0"/>
  <path d="m445-14.3 30.2 14 0.43 0.334s29.7 13.1 34.6 26.9c2.58 7.36-5.42 22.8-5.42 22.8s-17.3 10.3-25.4 9.07c-11.6-1.79-19.3-29.5-19.3-29.5l-10.2-29.3z" fill="#e3006f"/>
  <path d="m-32 187 32 13.5s13.9 5.69 15.8 10.7c3.7 9.57-14.1 23.5-14.1 23.5l-42.8-5.79-1.28-33.1z" fill="#e355c7"/>
  <path d="m33.1 462 7.76 30.8-24.3 5.18-9.74-28.9z" fill="#00e358"/>
  <path d="m462 475c9.04-9.85 23.3-0.312 34.2 4.17 5.67 2.33 15.4 10.9 15.4 10.9l17.3 14 4.85 5.94-17.3 17.4-28.7-15.5s-21.1-9.28-26.1-18c-3.78-6.55-4.96-13.3 0.252-19z" fill="#e3e3c9"/>
  <path d="m111 30 11.6-13.2 24.7 0.928s17.9 1.77 25.3 16.1c4.78 9.2 19.6 33.9 13.8 38.8-9.31 7.89-23.9-5.61-36.2-7.7-11.8-2.01-26.8 3.53-35.3-4.72-6.64-6.44-3.83-30.2-3.83-30.2z" fill="#3800b4"/>
  <path d="m-41.1 70.8 11-5.22 42.6 33.1s17.5 15 12.5 21.2c-4.09 5.03-24.9 0.0455-24.9 0.0455l-31.6-2.72-23.3-10.1 3-20.3z" fill="#e31caf"/>
  <path d="m533 148 16.4 59.2-1.36 0.59-14-1.31-22.2-14.1s-29.2-7.19-25.5-14.5c1.04-2.06 25.5-14.1 25.5-14.1z" fill="#005528"/>
  <path d="m-12.9 332 12.9 3.52s7.86 2.69 12 3.27c10.2 1.45 28.2-3.76 35.1 3.43 11.7 12.1-4.27 53.9-18.9 60.6-10.5 4.75-21.1-29.7-21.1-29.7l-7.06-14.6z" fill="#00aa73"/>
  <path d="m466 345c3.44-5.98 17-4.39 20.4-3.13 12 4.43 25.3 30.1 25.3 30.1l14.3 22.1 5.66 18.3-60.2 9.24s-17.4 1.18-20.3-2.02c-7.08-7.79 12.6-12.6 13.8-27.5 0.907-11.2-1.74-42.2 1.05-47z" fill="#e3aac9"/>
  <path d="m154 467c8.46 2.72 4.96 11.6 8.02 25.4 1.68 7.61 5.13 19.6 5.13 19.6l-9.94 11.9-28.6-3.55 6.41-39.1s11.4-16.7 19-14.3z" fill="#38e3df"/>
  <path d="m393 543 7.56-20.8 16.7-10.6 4.9-7.64c5.51-8.59 9.3 5.29 10.8 7.64l27.3 41.5-0.753 28.4-48.8-24.7z" fill="#c700b4"/>
  <path d="m-18 59.4 18-9.57s7.35-3.04 10.4-5.52c5.54-4.51 13.7-16.5 13.7-16.5s37.1 27.4 28.4 41.9c-7.26 12.2-17.6 40.9-17.6 40.9l-11.2-7.47-23.7-24.9z" fill="#001c34"/>
  <path d="m471 70.8c3.07-2.65 5.68-2.65 8.61-2.2 12.6 1.98 32.5 20.4 32.5 20.4l12.5 9.69 6.92 22.9-19.4-1.67s-18-1.69-26.8-3.72c-9.59-2.21-25-2.92-30.2-11.3-3.6-5.82 2.48-12.5 5.12-18.2 2.7-5.83 5.89-11.8 10.8-16z" fill="#e31caf"/>
  <path d="m-51.9 233 28.5 6.35 24.1 34-4.08 27.9-25.6-18.4-20.7-34.8z" fill="#e37192"/>
  <path d="m504 337c2.84-3.42 7.53-1.59 7.53-1.59l12 3.27 32.6 24.3-4.04 26.2-33.4-16.2-7.06-14.6s-13.8-13.9-7.53-21.4z" fill="#00aa73"/>
  <path d="m187 445 31.7 7.13s13.7 15.7 11.5 24.5c-2.16 8.82-21.7 16.5-21.7 16.5s-28.5 15.5-31.6 15.5c-11.5 0.0829-11.9-21.7-15.8-40.7-2.16-10.7 25.8-22.9 25.8-22.9z" fill="#55e345"/>
  <path d="m449 498c8.23-7.46 26.5 13.3 26.5 13.3l0.43 0.334 34.6 26.9-11.8 16.3-19 15.6-19.3-29.5-10.2-29.3s-4.94-10.2-1.19-13.6z" fill="#e3006f"/>
  <path d="m86.9-50 14.6-13.7 19.3 17.6 5.01 36.9-4.68 9.17s-4.14 12.4-9.79 13.7c-8.29 1.88-18.4-13.7-18.4-13.7l-12.5-9.53z" fill="#1ce39d"/>
  <path d="m361-16.4 23.1 4.88 13.1 13.8s-2.31 18.2-9.85 23.7c-5.17 3.77-20.4 3.93-20.4 3.93s-26.8 2.48-30.2-11.5c-2.06-8.31 7.31-18.4 7.31-18.4z" fill="#aa0016"/>
  <path d="m4.75 152c2.47-6.73 30.6-38.1 33.9-33.6 14.6 20.4 40.8 47.1 40.8 47.1l0.229 4.79s-20.4 24.3-34.6 29.7c-2.25 0.849-7.07-1.41-7.07-1.41s-6.59-18.7-8.99-28.3c-3.14-12.6-28.7-6.11-24.3-18.3z" fill="#0038dc"/>
  <path d="m499 126c8.67 1.75 13.2 3.6 13.2 3.6l15 4.11-26 27.6s-17.9 20.1-28.9 20.7c-5 0.258-18.2-6.36-20.9-15.2-2.66-8.78 9.52-30.4 8.46-45.9-0.755-11 30.4 3.39 39.1 5.13z" fill="#e3388e"/>
  <path d="m353 442c7.14-9.51 21.6 17.3 25.7 29.8 2.34 7.07 10.3 19.4 3.26 21.9-5.84 2.05-17.3 1.76-23-0.42-12.1-4.7-21.6-18.8-26.8-22.5-11-7.88 12.3-17.4 20.7-28.7z" fill="#aae37a"/>
  <path d="m199 500c9.16-2.47 14.3-11.2 21.1-6.47 5.5 3.86 2.53 18.3 2.53 18.3l-0.196 6.79-13.3 39.9-7.78-2.98-37.4-30.4 15.6-13.3s12.9-10.1 19.3-11.8z" fill="#550029"/>
  <path d="m144-36 38.5 18.1-15 17.9s-6.85 9.17-11.9 11c-7.56 2.7-18.3 6.31-24-1.38-1.69-2.26-1.18-9.61-1.18-9.61l5.04-30.8z" fill="#38e3df"/>
  <path d="m393 31.5c-2.34-7.01 7.56-20.8 7.56-20.8l27.8-17.7 31.9 48.6s7.38 23.6-0.753 28.4c-15.6 9.33-16.5-4.74-31.5-13.7-7.07-4.22-32.5-17-35.1-24.8z" fill="#c700b4"/>
  <path d="m-5.02 315 11.3-12.7s26.2-13.6 35.1-11.7c11 2.35 15.4 26 15.4 26s6.05 12.4-2.69 16.1c-13.5 5.69-52.3-3.6-52.3-3.6l-1.68-3.53z" fill="#008ebf"/>
  <path d="m469 273 33 39.7s7.77 7.13 7.39 11.7c-0.459 5.53-5.86 10.5-11.1 12.4-6.67 2.46-14.9-1.3-21.2-4.6-15.1-7.91-34.5-36-34.5-36z" fill="#e38e16"/>
  <path d="m-54.2 475 39.9 3.59 31.6 25.6 4.85 5.94-17.3 17.4-55.1-29.8z" fill="#e3e3c9"/>
  <path d="m417 433 33.9 1.52 0.463 34.4s6.58 16.1 2.13 22c-3.45 4.54-11.4 1.37-16.8 2.98-11.8 3.46-21.9 16.4-34 14.2-6.37-1.14-14.2-13.2-14.2-13.2l-6.53-27z" fill="#c7e30d"/>
  <path d="m29.9 0.189 0.149-0.189 2.32-2.94 20.7-20 11.7 3.96 16.6 19s16.4 16.9 26.5 24.3c3.01 2.21-9.25 11.3-9.25 11.3s-28.5 18.1-41.9 13c-17.2-6.65-26.8-48.4-26.8-48.4z" fill="#1c0024"/>
  <path d="m13.9 166c19.4 6.63 23.6 40.8 23.6 40.8l-1.36 0.59-14-1.31-42.8-27.2 20.6-15.4s5.57-0.33 13.9 2.52z" fill="#005528"/>
  <path d="m-32.7 343 10.8-5.21 36.2 56 5.66 18.3-60.2 9.24-12.9 1.37 13.5-62.4z" fill="#e3aac9"/>
  <path d="m87 465c5.44-4.56 10.7-15.4 17.8-14.7 7.37 0.732 11.8 8.33 16.9 13.5 3.83 3.93 9.85 4.68 9.96 13.1 0.117 8.67-10.5 35-10.5 35l-7.9 15.5-20.3-15.5s-26.7-15.6-26.5-27.9c0.175-8.74 12.9-12.5 20.6-19z" fill="#1ce39d"/>
  <path d="m362 498c7.56-2.17 15.3-1.06 22.2 2.77 4.63 2.58 11 11.5 11 11.5l2.15 2.25-11.2 25.7-19.1 1.93-41.4-12 18.5-17.8s10.3-12.1 17.9-14.3z" fill="#aa0016"/>
  <path d="m-54.2-37.1 39.9 3.59 31.6 25.6 4.85 5.94-1.93 1.95s17.1 16.3 10.9 22c-7.39 6.8-31.2-9.21-31.2-9.21l-50.2-27.1z" fill="#e3e3c9"/>
  <path d="m499 61.4c1.09-6.72 13.3-11.5 13.3-11.5l10.4-5.52 33.8 35.2-7.42 29.5-1.82 1.62-11.2-7.47-23.7-24.9s-14.7-8.33-13.3-16.9z" fill="#001c34"/>
  <path d="m13.6 232c4.2-7.63 6.28-21.5 14.8-19.5 8.66 1.99 15.6 26.9 15.6 26.9s6.68 22.8 9.82 32c3.5 10.3-12.2 12.6-22.2 16.9-6.9 2.95-24.2 14.2-27.1 5.9-4.57-12.7-0.92-43.8 9.18-62.2z" fill="#007170"/>
  <path d="m-52.4 429 52.4-6.99s16.5-0.891 22.1 3.51c2.83 2.21 0.845 1.77 1.41 6.07 0.605 4.62 2.8 15.6-1.47 22.5-4.58 7.37-22 13.7-22 13.7l-5.6 5.73-46.2-7.54-1.61-33.9z" fill="#e3c7ec"/>
  <path d="m238 476s20.6-12.2 39.2-20.6c8.94-4.05 23.1 21 23.1 21l0.782 35.2 0.202 9.07-3.41 10-57.4-17.8-1.23-1.32s-15.1-11.1-14.9-19.3c0.13-7.09 13.6-16.3 13.6-16.3z" fill="#71e3d0"/>
  <path d="m29.9 512 0.149-0.189 2.32-2.94 20.7-20 11.7 3.96 38.6 44.3-6 9.46-27.5 2.24z" fill="#1c0024"/>
  <path d="m319 103q2.17 0.729 6.1 7.18 0.136 0.224-50.6 37.4-1.76 1.29-23.2-16.9-0.744-0.631 5.12-47.1 0.204-1.61 62.6 19.4z" fill="#711cea"/>
  <path d="m42.1 115c0.635-0.635 24.1-3.06 36.1-2.39 11.7 0.658 33 4.31 34.7 6.24 1.94 2.21 0.624 10.1-3.94 23.8-5.21 15.6-11 23.4-17.3 23.6-7.24 0.21-17-7.58-29.3-23.4-14.1-18-20.8-27.3-20.3-27.9z" fill="#1c38c4"/>
  <path d="m357 186q3.58-2.98 14.4-2.13 10.7 0.842 26 28.8 15.1 27.6 8.35 37.6-6.62 9.86-11.2 11.1-4.54 1.18-32.7-15.9-27.8-16.9-18.1-36.8 9.62-19.6 13.3-22.6z" fill="#aa5580"/>
  <path d="m193 256q2.06-8.31 18.5-10.3 27-3.24 30.2-0.709 5.2 4.18 11.8 18.1 10.9 22.9 5.77 25.3-8.54 3.93-26.9-0.152-30.3-6.73-34.2-14.4-6.37-12.7-5.12-17.7z" fill="#557163"/>
  <path d="m288 377q3.59-6.44 19-13.1 25.6-11 34.4 9.66 14.6 34.5 14.4 35.3-0.413 1.45-22.6 0.224-37-2.04-40.9-10.7-6.61-14.4-6.5-15.6 0.188-2.02 2.34-5.89z" fill="#8eaa62"/>
  <path d="m141 404c9.82 1.85 18 9.87 24.6 24 4.21 9.08 0.505 19.4-11.1 31-7.44 7.44-12.9 11.6-16.4 12.4-2.24 0.53-9.36-4.98-21.4-16.5-7.68-7.39-6.94-34.9-1.74-52.9 3.33-11.5 10.7-1 26 1.89z" fill="#38c798"/>
  <path d="m63.9 60.2c8.29-8.29 16.7-13.6 25.1-16 8.61-2.42 14.6-0.829 18.1 4.78 3.53 5.73 4.98 17.1 4.37 34.3-0.63 17.5-12.1 25.9-34.3 25.3-22.7-0.642-37.9 5.93-35.1-5.68 2.89-11.9 13.7-34.5 21.8-42.6z" fill="#1c1c2a"/>
  <path d="m191 190q6.46-0.7 26.6 5.83 16.4 5.33 17.6 25.7 0.951 16.6-23 19.5-19.5 2.34-23.9-7.14-3.58-7.74-4.47-27.1-0.729-15.8 7.19-16.7z" fill="#5555c9"/>
  <path d="m287 291q0.933-0.299 56 27.1 6.24 3.11 6.85 5.91 0.07 0.317-15.4 20.3-1.75 2.26-38.5 18.1-4.17 1.8-15.9-61.7-1.33-7.19 6.91-9.83z" fill="#8e8eda"/>
  <path d="m121 341q9.27-11.6 17.3-10.5 36 4.69 39.4 7.59 15.3 13.1 15.3 14.4-0.06 6.25-1.28 10.2-5.5 17.8-10.7 21-23.5 14.6-30.4 13.3-30.9-5.83-32.3-9.29-6.55-15.5-5.24-20.7 5.9-23.4 7.96-26z" fill="#38aa6e"/>
  <path d="m398 373q52.3 52.7 52.3 52.8 0.049 0.39 2e-3 0.487-1.04 2.15-2.51 2.09-32.6-1.29-34.7-1.8-47.7-11.4-47.7-11.5-1.32-2.37-1.29-2.47 0.633-2.22 1.97-3.93 29.6-38 32-35.6z" fill="#c7c716"/>
  <path d="m298 137q30.9-22.7 34.1-21.2 4.54 2.08 12.1 26.1 10.8 34.4 7.81 36.9-4.25 3.54-32.8-4.57-40.9-11.6-41.7-15.6-1.11-5.73 20.5-21.5z" fill="#8e3828"/>
  <path d="m161 190q12.5-2.19 15.1-0.091 0.903 0.735 2.1 26.8 0.42 9.12-46 22.8-16.2 4.77-18.9-6.46-0.926-3.93 8.58-28.3 3.32-8.51 39.1-14.8z" fill="#385561"/>
  <path d="m416 248q2.07-3.08 31.1-10.6 5.33-1.38 14.5 24.4 1.68 4.72-20.3 26.7-4.04 4.04-20.4-3.31-3-1.35-14.1-17.5-2.03-2.96 9.23-19.7z" fill="#c771ce"/>
  <path d="m259 297q8.72-4.02 10.6-3.58 3.3 0.757 8.05 26.5 8.29 44.9 6.2 48.7-3.65 6.55-23-6.22-33.8-22.3-24-37.1 17.1-25.9 22.1-28.2z" fill="#718e60"/>
  <path d="m65 323c22.5 14.9 39.7 6.7 45.8 22.6 3.41 8.89-7.92 26.2-10.6 26.5-27.9 2.88-44.1 10.6-47.2 6.85-3.14-3.78 2.11-19.8 3.29-28.5 1.18-8.68 6.09-28.4 8.66-27.5z" fill="#1caa8e"/>
  <path d="m363 420q0.224-2.63 42.6 7.51 7.48 1.79-22.3 31.6-5.27 5.27-19.1-19.8-2.44-4.43-1.17-19.3z" fill="#aac7cf"/>
  <path d="m191 71c8.04-9.64 47.9 1.03 52.1 3.75 4.6 2.99 6.94 4.58 7.02 4.78 0.018 0.0413-1.64 13.2-4.96 39.6-0.721 5.71-1.43 8.64-2.13 8.8-0.151 0.0353-17.5-3.22-52.1-9.78-7.49-1.42-8.71-13.3-3.66-35.8 1.09-4.86-0.332-7.94 3.69-11.3z" fill="#551c46"/>
  <path d="m273 179q3.69-11.7 23.7-6 49.4 14 43.8 25.4-13.8 28.1-15.1 28.8-3.27 1.9-13.2-3.3-24.5-12.8-29.1-20.7-11.5-19.5-10-24.2z" fill="#8e554f"/>
  <path d="m118 248c40.7-12 61.1-17.8 61.3-17.5 5.17 11.2 7.73 16.9 7.67 17.1-2.15 8.67-3.72 13.2-4.71 13.5-38.5 13.8-55.7 25.5-61.3 21.4-8.33-6.02-11-8.8-11.8-15.2-0.825-7.07 7.83-19.1 8.88-19.4z" fill="#38719a"/>
  <path d="m429 294q9 4.04 28.9 24.5 17.3 17.7 14.7 20.3-2.26 2.26-34 2.57-27.5 0.272-23.5-27.7 3.52-24.3 13.9-19.7z" fill="#c78e87"/>
  <path d="m202 353q7e-3 -0.754 20.9-8.34 2.29-0.83 50.2 30.8 5.24 3.46 4.98 6.38-0.03 0.319-29.4 8.82-3.21 0.931-42.5-27.6-4.3-3.13-4.24-10z" fill="#71aadb"/>
  <path d="m36.2 403c14.3-14.3 24.5-21.7 30.7-22.4 24.3-2.52 41.1-9.31 42.2-6.74 4.26 10.1 1.43 24.9-0.305 30.9-6.8 23.5 3.14 30.6-2.73 36.5s-14-2.33-23.1-5.6c-35.9-12.8-53.8-19.3-53.9-19.4-0.232-0.368-0.211-1.05 0.063-2.04 1.07-3.91 3.43-7.68 7.07-11.3z" fill="#1cc78c"/>
  <path d="m415 53.6q40.4 25 38.1 33.6-4.26 16-18.3 17.4-26.2 2.6-33.8-2.29-14.2-9.11-11.9-27.6 4.24-34.5 25.9-21.1z" fill="#c71c5b"/>
  <path d="m246 135q0.749-0.175 9.91 7.6 13 11 13.8 15.1 1.1 5.71-1.04 12.5-3.04 9.65-14.4 16.1-16.1 9.22-31.2 4.32-21.4-6.96-3.26-27 25.8-28.5 26.3-28.6z" fill="#71386b"/>
  <path d="m91.9 172q10.2-0.298 19.1 10.9 9.01 11.3 2.63 27.6-6.45 16.5-36.4 6.55-30.3-10.1-13-27.3 17.5-17.5 27.6-17.7z" fill="#1c557e"/>
  <path d="m322 243q4.07-8.62 4.38-8.8 4.29-2.48 8.13-0.151 52.2 31.7 50.2 34-26.3 31.6-28.9 27.7-34.2-52.2-33.9-52.8z" fill="#aa711c"/>
  <path d="m235 295q13.9 3.08-5.37 32.2-7.66 11.6-24.3 17.6-6.61 2.4-20-9.02-5.33-4.54 9.07-36 5.73-12.5 40.6-4.8z" fill="#558eb0"/>
  <path d="m342 415q14.4 0.792 15.4 2.67 0.335 0.602-0.792 13.9-0.362 4.26-28.7 32.6-9.08 9.08-15.6 10-2.08 0.295-20.9-15.2-6.03-4.97 2.86-36.3 2.85-10.1 47.6-7.6z" fill="#8ec7ba"/>
  <path d="m371 36.4c9.42-4.02 10.9-4.36 14.5-1s2.61 10.6 2.04 16c-1.68 15.7-10.2 42-15.8 44.5-21.2 9.38-32.3 13.8-33.3 13.3-4.07-1.87-6.38-3.26-6.95-4.2-2.14-3.52-3.23-6.92-3.26-10.2-0.115-12.4 2.56-21.4 8.04-26.8 20.7-20.7 25.4-27.6 34.8-31.6z" fill="#aa1c80"/>
  <path d="m176 124q1.48-1.56 48.4 7.35 16.1 3.06-16.6 39.2-11.2 12.4-21.9 13.6-3.67 0.398-6.27-1.71-0.891-0.724-6.14-40.3-1.8-13.6 2.5-18.1z" fill="#5538b7"/>
  <path d="m334 267q23.4 35.8 21 40.9-4.31 9.08-26.5-1.96-39.2-19.5-27.8-33.8 20-25.3 33.3-5.1z" fill="#8e715f"/>
  <path d="m153 276q32.3-11.6 37-2.35 5.58 11.1-3.56 31.1-11 24-31 21.4-24-3.13-26.4-20.1-2.93-20.4 24-30.1z" fill="#388e75"/>
  <path d="m398 358q0.346-6.38 6.41-9.62 5.06-2.7 37.4-3.02 27-0.267 18 41-7.49 34.4-37.3 4.37-24.9-25.1-24.5-32.7z" fill="#c7aa89"/>
  <path d="m258 394c13.8-4.01 22-3.25 24.6 2.29 4.5 9.79 5.34 19.7 2.51 29.7-5 17.6-0.96 24.1-10.5 27.2-15.3 8.97-36.2 21.2-40.7 15.5-7.92-10-14.3-29.2-14-34.2 0.567-8.82 3.93-16.1 10.1-21.8 10.9-10.1 20.2-16.3 28.1-18.6z" fill="#71c75f"/>
  <path d="m304 45.1q18.2 31 18.2 36.2 0.171 18.4-13.9 13.7-50.4-17-50.5-17.1-0.119-0.274 8.88-9.27 32.2-32.2 37.3-23.5z" fill="#8e1c98"/>
  <path d="m161 128q5.46 0.582 11.6 47.2 0.864 6.51-41.5 13.9-5.92 1.04-21.6-18.7-2.2-2.76 10.7-41.2 1.8-5.37 40.8-1.21z" fill="#3838d6"/>
  <path d="m395 178q6.82-4.64 31.7-5.54 25.1-0.912 32.2 7.14 7.11 8.14 2.63 26.8-4.53 18.9-6.5 20.9-2 2-19.1 6.41-17.3 4.46-32.4-23.2-15.2-27.9-8.5-32.5z" fill="#c7557e"/>
  <path d="m293 220q27.4 14.3 26.5 16.2-3.48 7.37-9.87 15.5-25 31.6-26.8 32.2-7.3 2.34-8.36 2.1-4.14-0.948-7.72-8.44-14-29.3-7.21-35.8 26.5-25.4 33.5-21.7z" fill="#71713b"/>
  <path d="m53.2 287c5.47-5.47 1.5-14.8 13.5-15.9 22.1-2.1 37-3.38 39.3-0.185 4.18 5.86 17.5 17.3 18.8 26.1 2.32 16.2-1.96 28.1-4.62 31.4-4.89 6.11-12.5 7.31-22.9 3.58-19-6.85-31.3-14-36.8-21.5-10.2-13.7-10.2-20.6-7.25-23.6z" fill="#1c8eba"/>
  <path d="m340 347q15-19.5 19.7-16.6 33.2 20.8 33.1 22.5-0.666 12.3-4.5 17.2-27.1 34.8-30 27.9-20.5-48.3-18.4-51.1z" fill="#aaaa29"/>
  <path d="m170 399q20.3-12.6 27.6-2.71 17.5 23.9 17.1 30-0.943 14.7-11.5 14.1-25.4-1.27-30.2-11.5-11.4-24.7-3.04-29.9z" fill="#55c74f"/>
  <path d="m151 70c19.7 4.93 29.1 13.4 25.8 27.9-2.87 12.8-5.33 20.2-7.38 22.4-1.8 1.91-10.6 2.02-26.4 0.335-13.9-1.48-21.8-3.32-23.7-5.52-1.7-1.94-2.22-12.1-1.56-30.5 0.584-16.2 10.9-20.3 33.2-14.6z" fill="#381c86"/>
  <path d="m428 110q21.7-2.16 24.4 2.25 3.1 5.19 1.04 26.9-2.43 25.5-25.4 26.4-27 0.981-23.1-24.1 4.6-29.5 23.1-31.4z" fill="#c73876"/>
  <path d="m262 188q4.47-2.55 18.1 20.4 2.64 4.45-25.2 31.2-5.4 5.18-12.4-0.436-1.36-1.09-3.13-32-0.344-5.99 22.7-19.2z" fill="#7155cc"/>
  <path d="m42.6 212q0.301-0.3 0.855-0.441 1.69-0.43 16.6 4.52 45.3 15.1 46.2 18.8 2.69 11.4 2.28 16.3-1.25 15-13.9 16.2-38.5 3.66-41.9-10.9-10.2-44.4-10.1-44.5z" fill="#1c7145"/>
  <path d="m387 276q3.99-4.78 11.9-6.83 1.29-0.336 12.6 16.1 1.85 2.7-4.64 47.6-1.07 7.38-10.6 12.5-1.57 0.839-34.2-19.5-5.35-3.35-5.94-6.02-0.097-0.439 5.7-12.7 0.952-2.01 25.2-31.1z" fill="#aa8ed1"/>
  <path d="m194 379q5.29-17.1 14.6-10.3 34.3 24.9 28.8 30-20.1 18.7-25.4 11.5-19.5-26.6-18-31.2z" fill="#55aa3d"/>
 </g>
</svg>
