<?xml version="1.0" encoding="UTF-8"?>
<svg width="512px" height="512px" contentScriptType="text/ecmascript" contentStyleType="text/css" version="1.1" viewBox="0 0 512 512" xmlns="http://www.w3.org/2000/svg">
 <g class="voronoi" stroke-width=".5">
  <path d="m458-37.1 39.9 3.59 31.6 25.6 4.85 5.94-17.3 17.4-55.1-29.8z" fill="#e3e3c9"/>
  <path d="m361-16.4-35.5 34.2-19.7 3.72c-9.63 11.4 10.1 24.6 19.3 53.6-0.581 2.81 3.95 11.6 3.98 14.9 0.024 2.63 13.4 5.64 40.2 9.03 7.08 0.895 12.6-15.1 16.7-48 0.986-15.8 5.33-34.4 11.2-48.8l-13.1-13.8z" fill="#aa0016"/>
  <path d="m-13.2 126 13.2 3.6s4.9 1.36 6.31 6.37c1.98 7.04-6.31 13.7-6.31 13.7l-10.9 11.6-25.6 20.8-12.6-8.24-3.62-33.7z" fill="#e3388e"/>
  <path d="m23.5 10.3c-10.8 0.19-11.5 5.79-11.5 11.8l-0.047 12.7c-0.068 5.5-2.03 7.59-9.48 14.1-1.42 0.525-2.41 0.955-2.41 0.955l-18 9.57 18 18.9 23.7 24.9 11.2 7.47c4.85 3.23 15.4-27.2 16.8-32 4.81-14.5 9.64-42.6 8.07-45.8-6.39-9.77-25.1-22.8-36.3-22.5z" fill="#001c34"/>
  <path d="m445-14.3 30.2 14 0.43 0.334s32.5 12.4 34.6 26.9c0.941 6.64-5.66 13.6-11.8 16.3-5.68 2.45-18.4-2.4-18.4-2.4s-12-8.13-16.5-13.7c-6.27-7.9-13.6-27-13.6-27z" fill="#e3006f"/>
  <path d="m122 16.8c-5.37 2.31-24.5 18.9-24.5 18.9-14.7 12.4-22.1 12.9-33.9 24.4-8.12 8.12-5.34 19.1-8.24 31-2.83 11.6-1.16 16.7 21.5 17.4 31.8 3.89 35.2 3.01 49.9 8.92 4.85 1.7 3.24 3.75 14.9 3.9 13.3 0.175 21.7-0.851 25.2-3.08 3.97-2.53 7.3-9.76 9.98-21.7 1.69-18.2 2.79-79.6-16-80.1-12.2 1.8-27.9-3.34-38.9 0.406z" fill="#2f1393"/>
  <path d="m-41.1 70.8 11-5.22 42.6 33.1s7.44 9.21 2.41 15.4c-4.09 5.03-14.9 5.82-14.9 5.82l-31.6-2.72-23.3-10.1 3-20.3z" fill="#e31caf"/>
  <path d="m533 148 16.4 59.2-1.36 0.59-14-1.31-22.2-14.1s-8.62-4.19-8.93-12.3c-0.326-8.58 8.93-16.2 8.93-16.2z" fill="#005528"/>
  <path d="m449 72.4c1.39-5.67-0.0355-13.4 5.77-16.5 17-9.23 57.4 33.2 57.4 33.2l12.5 9.69 6.92 22.9-19.4-1.67s-21-2.15-31.6-1.37c-6.5 0.481-13.2 6.03-19.1 3.17-10.8-5.26-13.6-25.9-14.9-32.7-1.08-5.49 1.08-11.2 2.41-16.6z" fill="#e31caf"/>
  <path d="m86.9-50 14.6-13.7 19.3 17.6 5.01 36.9-4.68 9.17s-6.22 11.1-11.7 11.6c-6.69 0.567-16.5-11.6-16.5-11.6l-12.5-9.53z" fill="#1ce39d"/>
  <path d="m26.3 115c-6.62 2.8-15.7 7.25-15.4 12.9 0.401 7.45 14.4 13.8 18.2 19.2 10.2 15.6 12.5 40.8 21.2 51.9 1.29 1.7 8.44-8.78 10-10.3 6.2-4.21 18.7-17.7 33.3-22.4 9.14-2.98 13.5-7.7 18.3-22.3 4.21-12.8 4.94-20.8 2.21-23.9-2.4-2.73-15.6-7.11-39.5-5.11-13.1 1.1-38.6-3.85-48.3 0.0625z" fill="#1c5514"/>
  <path d="m499 126 28.2 7.71-26 27.6s-12.3 23.8-29.7 48.9c-8.53 0.531-5.43-28.8-6.64-43.4-0.939-11.4-10.6-22.4-0.448-34.3 9.08-10.7 34.6-6.48 34.6-6.48z" fill="#e3388e"/>
  <path d="m144-36 38.5 18.1-15 17.9s-5.14 10-9.94 11.9c-8.93 3.52-20.2 4.56-25.9-3.13-1.69-2.26-1.28-8.77-1.28-8.77l5.04-30.8z" fill="#38e3df"/>
  <path d="m396 27.6c-3.21-6.66 3.84-17 3.84-17l27.8-17.7 4.63 7.05s29.9 28.3 22.7 43.3c-10.8 11-2.38 28-14.5 23.7-11.2-13.2-36.2-25.9-44.5-39.3z" fill="#c700b4"/>
  <path d="m29.9 0.189 0.149-0.189 2.32-2.94 20.7-20 11.7 3.96 16.6 19s11.4 7.54 12.3 18.7c0.284 3.72 0.176 7.35-3.44 11.5-4.26 4.9-3.48 5.74-12.2 2.75-17.1-5.89-48.1-32.8-48.1-32.8z" fill="#1c0024"/>
  <path d="m18.2 150c6.6-4.78 30.5 41.6 18 57.2-2.95 3.64-14-1.31-14-1.31l-42.8-27.2 20.6-15.4z" fill="#005528"/>
  <path d="m-54.2-37.1 39.9 3.59 31.6 25.6 4.85 5.94-17.3 17.4-55.1-29.8z" fill="#e3e3c9"/>
  <path d="m494 59.4 28.4-15.1 33.8 35.2-7.42 29.5-1.82 1.62-11.2-7.47-23.7-24.9z" fill="#001c34"/>
  <path d="m337 108c0.719 53.6 11.6 46.5-0.229 88.1-1.81 20.2 28.9 42.8 47.9 61.8 7.7-1.96 8.9-0.71 11.9-3.56 3.75-3.56 6.1-12.5 5.21-14.6-14.6-28.1-25.7-47.3-22.5-75.2 3.31-33.5 4.87-50.3 4.67-50.6-3.07-4.05-5.63-6.2-7.67-6.46-31.8-4.02-39.5-16.5-39.3 0.515z" fill="#aa47e5"/>
  <path d="m209 192q12.6 0.907 18 12.4 2.74 5.77 0.525 17.4-1.12 5.86-32.3 24.7-15.7 9.49-21.7-11.9-3.02-10.8 5.95-33.1 4.52-11.2 29.5-9.43z" fill="#5555a5"/>
  <path d="m303 189c8.61 2.11 20.6-4.37 27.3 1.83 4.54 4.22 5.23 12.8 2.62 18.4-6.12 13.2-15.6 41.6-16.5 41.7-7.6 0.933-17.7-1.62-18.9-4.59-13-14.6-5.15-60.3 5.4-57.4z" fill="#8e5524"/>
  <path d="m418 111-19.1 0.665c-17.9 1.8-10.4 11.5-10.6 30.8-0.0902 9.81-2.67 24-3.35 33.5-1.08 15.2 6.89 22.3 11.5 33.4 8.67 20.8 20.2 29.3 34.6 25.6 14.3-3.68 22.1-6.19 23.4-7.52 1.31-1.33 3.48-8.3 6.5-20.9 2.64-11 2.5-20.6-2.51-32.5 0.915-2.58-5.66-31.8-5.37-34.9 1.37-14.5-4.48-16.4-6.55-19.9-10.9-8.91-16.1-9.49-28.6-8.27z" fill="#c74716"/>
  <path d="m296 30.5c-11.7 4.29-36.4 39.9-33.7 46.7 3.34 25 34.3 50 33.8 73.3 9.83 11.5-1.41 25.8 7.41 32.7 7.2 5.58 17.2 4.04 27.3-0.777 5.94-2.81 7.45-61.9-5.9-88.5-1.13-2.25-3.12-7.13-3.18-13.2-4.62-10.3-19-49.9-25.7-50.2z" fill="#8e2a29"/>
  <path d="m142 127c12.3 0.163 19 8.6 20.1 25.3 1.02 16.4 10.1 23.9-3.14 28.2-13 4.2-56.4-2.77-50.9-15.2 6.56-14.8 7.02-23.6 11.6-37.4 6.5-11.3 15.8-1.23 22.4-0.881z" fill="#383880"/>
  <path d="m163 126c-0.23-6.23 16.5-5.02 18.2-4.12 13.6 8.04 43.4 30.3 46.2 42.3 1.46 8.11-6.61 23.5-8.01 23.4-23.7-1.7-35.8-2.7-36.3-2.99-8.41-4.87-12.7-8.24-12.8-10.1 1.06-6.18-6.6-28.3-7.34-48.5z" fill="#553819"/>
  <path d="m132 185c7.83 0.218 19.5-2.05 29.2-1.13 5.64 0.536 13.8-1.12 16.6 3.84 5.24 9.47-2.56 10.8-10.6 30.7-0.987 2.44-17.8 11.7-41.8 0.0941-2.94-7.09-1.39-33.7 6.62-33.5z" fill="#3855d9"/>
  <path d="m406 44.3c26.9 16.6 34.3 34.2 32.8 39.9-2.84 10.7 2.36 19.9-11.2 21.3-25.3 2.51-38.5 3.02-39.7 1.51-2.13-2.8-2.3-11.5-0.517-26 3.32-27 4.11-45.6 18.6-36.7z" fill="#c71c5c"/>
  <path d="m94.2 172c7.93-0.232 14.3 3.27 19.2 10.5 4.91 7.27 7.17 12.4 6.78 15.4-0.393 3.01-2.49 8.61-6.3 16.8-3.85 8.33-15.8 9.16-35.8 2.47-20.3-6.73-24.6-15.9-13.1-27.4 8.18-6.78 19.7-17.3 29.2-17.8z" fill="#1c55cf"/>
  <path d="m337 214c2.05-2.81 15.6 25.8 41.9 42.9-11.2 18.3-42.5 17.6-56.7 1.78-3.25-8.63 12.1-41 14.8-44.7z" fill="#aa71c8"/>
 </g>
</svg>
