<?xml version="1.0" encoding="UTF-8"?>
<svg width="512px" height="512px" contentScriptType="text/ecmascript" contentStyleType="text/css" version="1.1" viewBox="0 0 512 512" xmlns="http://www.w3.org/2000/svg">
 <g class="voronoi" stroke-width=".5">
  <path d="m458-37.1 39.9 3.59 31.6 25.6 4.85 5.94-17.3 17.4-55.1-29.8z" fill="#e3e3c9"/>
  <path d="m-13.2 126 13.2 3.6s19.4 1.3 15 4.11c-2.46 1.57-15 16-15 16l-10.9 11.6-25.6 20.8-12.6-8.24-3.62-33.7z" fill="#e3388e"/>
  <path d="m4.93 27.5c-5.52-8.15 9.62-22 18.6-22.9 12.1-1.19 30.8 24 30.8 24s11.2 21 4.48 27.3c-9.76 9.09-9.6 19.1-14.9 14.6-13.8-11.9-27.4-25.8-39.1-42.9z" fill="#00003b"/>
  <path d="m445-14.3 30.2 14 0.43 0.334s33.4 12.3 34.6 26.9c1.34 16.9-7.54 22.6-7.54 22.6s-20.5 11.6-28.5 9.02c-11.2-3.55-9.93-19.3-14.1-29.3-3.94-9.55-10.2-29.3-10.2-29.3z" fill="#e3006f"/>
  <path d="m105 22.4c2.84-5.45 11.5-4.75 17.6-5.58 8.15-1.11 24.7 0.928 24.7 0.928s12.1-1.7 16.8 1.43c14.1 9.47 28.1 47.6 11.2 45.9-20.2-2.04-39.6-6.7-39.6-6.7l-24.5-16.7s-9.14-13.3-6.04-19.3z" fill="#3800b4"/>
  <path d="m-41.1 70.8 11-5.22 42.6 33.1s14.6 13.4 9.61 19.6c-4.09 5.03-22.1 1.66-22.1 1.66l-31.6-2.72-23.3-10.1 3-20.3z" fill="#e31caf"/>
  <path d="m533 148 16.4 59.2-1.36 0.59-14-1.31-22.2-14.1s-15.6-6.71-20.6-13.1c-0.969-1.23 20.6-15.4 20.6-15.4z" fill="#005528"/>
  <path d="m-18 59.4 18-9.57s6.93-6.78 10.2-3.86c13.6 12.3 28.8 18.2 34 33.6 2.7 8.01-0.296 20.1-2.86 25.2-2.57 5.06-3.5 5.65-6.38 5.87-4.47 0.349-11.2-7.47-11.2-7.47l-23.7-24.9z" fill="#001c34"/>
  <path d="m461 76.5c3.78-5.46 13.5-9.87 17.5-9.43 12.7 1.38 33 21.9 33 21.9l12.5 9.69 6.92 22.9-19.4-1.67s-11.4 0.44-21.6-2.16c-8.2-2.08-32.1-3.41-38.3-13.3-3.61-5.81 2.39-7.66 4.18-13.9 0.95-3.31 3.25-11.2 5.21-14z" fill="#e31caf"/>
  <path d="m86.9-50 14.6-13.7 19.3 17.6 5.01 36.9-4.68 9.17s-2.25 14.2-7.9 15.5c-8.29 1.88-20.3-15.5-20.3-15.5l-12.5-9.53z" fill="#1ce39d"/>
  <path d="m361-16.4 23.1 4.88 13.1 13.8s-3.66 20.2-11.2 25.7c-5.17 3.77-12.7 5.36-19.1 4.78-11-1.01-31.5 11.2-31.9-12.2-0.146-8.56 9.04-20.6 9.04-20.6z" fill="#aa0016"/>
  <path d="m41.1 121c-0.836-0.858-4.89-2.53-7.31-1.85-5.42 1.54-11.8 12.1-11.8 12.1s-5.99 14-10.4 20.2c-3.23 4.49-11.6 11.9-11.6 11.9l-20.6 15.4 20.6 13.1s15 9.07 22.2 14.1c2.45 1.71 4.12 5.3 7.1 5.47 3.26 0.182 8.38-5.08 8.38-5.08l37.6-28.6s2.16-4.75 2.37-7.3c0.183-2.24 0.369-4.89-1.01-6.66-13.2-17-20.3-27.2-35.6-42.9z" fill="#005528"/>
  <path d="m499 126c4.48 0.838 13.2 3.6 13.2 3.6l15 4.11-26 27.6s-9.61 14.4-20.6 15c-5 0.258-15 1.9-17.5-2.45-8.61-15-7.08-40.2-3.21-55.9 1.6-6.5 26.4 5.68 39.1 8.06z" fill="#e3388e"/>
  <path d="m144-36 38.5 18.1-15 17.9s-4.78 11.8-9.94 11.9c-11.9 0.309-22.8 7.73-28.5 0.0431-1.69-2.26 1.29-11.9 1.29-11.9l5.04-30.8z" fill="#38e3df"/>
  <path d="m393 31.5c-2.05-7.1 7.56-20.8 7.56-20.8l27.8-17.7 4.63 7.05s21.7 26 27.3 41.5c3.19 8.91 11.2 23.4 3.04 28.2-15.6 9.33-36.1-14.4-52.5-24.5-6.41-3.91-15.7-6.59-17.8-13.8z" fill="#c700b4"/>
  <path d="m29.9 0.189 0.149-0.189 2.32-2.94 20.7-20 11.7 3.96 16.6 19s18.7 16.8 19.6 28c0.284 3.72-0.296 4.84-3.49 6.77-7.88 4.76-29.8 21.6-30.7 12.5-2.18-20.7-36.8-47-36.8-47z" fill="#1c0024"/>
  <path d="m-54.2-37.1 39.9 3.59 31.6 25.6 4.85 5.94-17.3 17.4-55.1-29.8z" fill="#e3e3c9"/>
  <path d="m486 58.9c3.45-0.883 25.6-9.05 25.6-9.05l10.4-5.52 33.8 35.2-7.42 29.5-1.82 1.62-11.2-7.47-23.7-24.9s-34-17.3-25.6-19.4z" fill="#001c34"/>
  <path d="m288 45.1c-15 8.46-20.3 18.2-27.7 29.5-4.95 7.59-9.37 14.7-10.7 25-3.91 31 1.38 30.7 1.88 31.1 14.3 12.1 13.3 17.8 21.5 14.9 18.7-6.69 34.3-21.3 52.3-35.4 5.3-4.16 2.3-13.3 1.93-20.1-0.133-2.44-6.95-17.2-6.98-20.9-0.0319-3.43-8.72-19.3-16.7-24.2s-10.8-2.04-15.5 0.0389z" fill="#801c68"/>
  <path d="m44.6 109c6.56-9.7 14 3.19 34.9 3.78 23.9 0.677 31.8 3.62 33.5 5.55 1.94 2.21 0.624 10.1-3.94 23.8-5.21 15.6-11 23.4-17.3 23.6-7.24 0.21-17-7.58-29.3-23.4-14.1-18-24.8-22.9-17.8-33.3z" fill="#1c3843"/>
  <path d="m357 186c2.39-1.99 7.2-2.7 14.4-2.13 7.15 0.561 15.8 10.2 26 28.8 10 18.4 4.59 21.5-1.91 28.4-7.77 8.25-20.7 12.2-33.7 4.32-18.5-11.3-20.3-31.8-13.8-45.1 6.42-13.1 6.59-12.3 9.01-14.3z" fill="#aa5580"/>
  <path d="m63.9 60.2c8.29-8.29 26.6-18.9 35-21.2 8.61-2.42 19.7 14.4 23.2 20 3.53 5.73-8.19 16.9-8.81 34-0.63 17.5-13.9 16.2-36.1 15.6-22.7-0.642-32.6-6.76-29.8-18.4 2.89-11.9 8.4-21.8 16.5-30z" fill="#1c1cc9"/>
  <path d="m167 189c-10.6 0.248-16 6.66-19.4 13.8-6.34 16.2-9.2 25.6-8.58 28.2 1.76 7.49 10.1 5.03 18.9 6.46 8.78 1.44 23.4-0.246 33.4-0.191 4.1 3.16 11 4.17 20.6 3.01 15.9-1.91 23.6-8.4 23-19.5-0.776-13.5 3-21.9-7.94-25.4-13.4-4.36-13.4-9.78-21.2-11.2-12.8-2.35-31.2 4.84-38.7 4.77z" fill="#4755a1"/>
  <path d="m298 137q30.9-22.7 34.1-21.2 4.54 2.08 12.1 26.1 10.8 34.4 7.81 36.9-4.25 3.54-32.8-4.57-40.9-11.6-41.7-15.6-1.11-5.73 20.5-21.5z" fill="#8e386b"/>
  <path d="m273 179c2.46-7.8 10.4-9.8 23.7-6 32.9 9.35 54.5 9.89 50.8 17.5-9.19 18.7-3 35.5-10.4 39.8-2.18 1.26-18.3-2.84-24.9-6.31-16.3-8.54-26-15.4-29.1-20.7-7.69-13-11-21.1-10-24.2z" fill="#8e55ac"/>
  <path d="m415 53.6q40.4 25 38.1 33.6-4.26 16-18.3 17.4-26.2 2.6-33.8-2.29-14.2-9.11-11.9-27.6 4.24-34.5 25.9-21.1z" fill="#c71c5c"/>
  <path d="m246 135q0.749-0.175 9.91 7.6 13 11 13.8 15.1 1.1 5.71-1.04 12.5-3.04 9.65-14.4 16.1-16.1 9.22-31.2 4.32-21.4-6.96-3.26-27 25.8-28.5 26.3-28.6z" fill="#71386b"/>
  <path d="m371 36.4c9.43-1.33 14-5.22 18.6-1 4.77 4.43 5.91 13.4 0.393 19.5-8.8 25.5-3.36 39.3-18.2 41-13.5 1.49-20.5-22.6-24.3-32.8-3.8-10.2-12-13.8-1.89-24.2 23.9-3.95 23-2.1 25.5-2.45z" fill="#aa1c9f"/>
  <path d="m162 66.9c19.7 4.93 18.7 3.27 15.5 17.8-22 19.6-16 38-34.5 36-13.9-1.48-21.2 1.76-31.5-9.86-1.71-1.93 5.75-14.9 10.1-31.7 0.584-16.2 18.1-17.9 40.5-12.3z" fill="#381c86"/>
  <path d="m428 110c14.5-1.44 22.6-0.689 24.4 2.25 2.07 3.46 2.41 12.4 1.04 26.9-1.62 17 9.55 28.2-5.77 28.7-18 0.654-49-30.6-46.4-47.3 3.07-19.7 14.4-9.34 26.8-10.6z" fill="#c73876"/>
  <path d="m262 188c2.98-1.7 13.8 12 18.1 20.4s52 20.2 6.43 28.8c-3.6 3.46-39.4 5.73-44.1 1.98-0.904-0.726-1.95-11.4-3.13-32-0.229-3.99 7.34-10.4 22.7-19.2z" fill="#71554b"/>
 </g>
</svg>
