<?xml version="1.0" encoding="UTF-8"?>
<svg width="512px" height="512px" contentScriptType="text/ecmascript" contentStyleType="text/css" version="1.1" viewBox="0 0 512 512" xmlns="http://www.w3.org/2000/svg">
 <g class="voronoi" stroke-width=".5">
  <path d="m65 190c-11.5 11.5-7.17 20.7 13.1 27.4 16.4 5.49 25.9-0.145 32.9 1.28 25.5 5.16 38.4 5.32 51.3-6.08 6.57-5.8 9.19-17.2 6.31-25.5-2.47-7.09-7.67-14.7-17.8-13.8-18.1 1.71-32.4 5.09-44.6 2.15-18-4.33-32 5.41-41.2 14.6z" fill="#2a5583"/>
  <path d="m458-37.1 39.9 3.59 31.6 25.6 4.85 5.94-17.3 17.4-55.1-29.8z" fill="#e3e3c9"/>
  <path d="m361-16.4-35.5 34.2-19.7 3.72c-12.5 11.5-26.2 41.5-23.7 53.7 2.44 9.63 13.7 15.4 22.9 19.1 9.19 3.63 27.4 3.45 29.6 1.76 16.5 1.3 19.7 1.04 34.7 2.95 7.08 0.895 12.6-15.1 16.7-48 0.986-15.8 5.33-34.4 11.2-48.8l-13.1-13.8z" fill="#aa0016"/>
  <path d="m-13.2 126 13.2 3.6s4.9 1.36 6.31 6.37c1.98 7.04-6.31 13.7-6.31 13.7l-10.9 11.6-25.6 20.8-12.6-8.24-3.62-33.7z" fill="#e3388e"/>
  <path d="m39.4 408c8.15 20 36.9 22.6 43.3 35.8 4.6 14.6-15.1 17-28.6 24.3-15.9 8.69-37.1 33.3-46.9 18-7.76-12.1 10.6-23.9 14.4-36.3 2.69-8.78-4.95-32.9 4.18-33.8z" fill="#00c7e4"/>
  <path d="m460 429 71-9.47 2.17 0.445 0.978 25.5-21.8 22.3s-6.11 3.09-8.65 3.92c-14.8 4.88-43.2-5.73-43.2-5.73l-1.61-33.9z" fill="#e3c7ec"/>
  <path d="m320 479c11-0.298 23.8 3.26 26.7 15.3 2.07 8.44-11.7 17.5-11.7 17.5l-13.1 14.8-14.4 1.9 0.707-16.7s0.0833-20.3 5.31-28c2.17-3.2 3.28-4.62 6.44-4.7z" fill="#8ee3e0"/>
  <path d="m4.93 27.5c0.0781-7.17 6.66-15.1 13.7-16.6 13-2.79 25.8 4.63 33.1 15.8 5.6 8.59 9.63 24.6 1.38 30.7-10.2 7.53-22.8-3.45-33.1-10.8-6.57-4.72-15.1-11-15-19.1z" fill="#00009c"/>
  <path d="m445-14.3 30.2 14 0.43 0.334s32.5 12.4 34.6 26.9c0.941 6.64-5.66 13.6-11.8 16.3-5.68 2.45-18.4-2.4-18.4-2.4s-12-8.13-16.5-13.7c-6.27-7.9-13.6-27-13.6-27z" fill="#e3006f"/>
  <path d="m465 483c9.04-9.85 32.4-4.73 32.4-4.73l31.6 25.6 4.85 5.94-17.3 17.4-28.7-15.5s-22.4-5.14-26.5-14.3c-2.01-4.53-1.65-8.77 3.56-14.4z" fill="#e3e3c9"/>
  <path d="m122 16.8c-5.37 2.31-11.6 13.2-11.6 13.2-14.7 12.4-35 18.6-46.8 30.1-8.12 8.12-13.6 18.1-16.5 30-2.83 11.6 7.1 17.7 29.8 18.4 8.98 0.254 15.7-2.4 21.6-3.68 17.6-3.79 18.6 9.15 28.3 12.6 4.85 1.7 3.24 3.75 14.9 3.9 13.3 0.175 21.7-0.851 25.2-3.08 3.97-2.53 7.3-9.76 9.98-21.7 1.69-18.2 28.1-45.5 11.8-54.8 0 0-26.5-19.5-42-23.9-7.91-2.26-17.1-4.18-24.7-0.928z" fill="#2f1393"/>
  <path d="m-41.1 70.8 11-5.22 42.6 33.1s7.44 9.21 2.41 15.4c-4.09 5.03-14.9 5.82-14.9 5.82l-31.6-2.72-23.3-10.1 3-20.3z" fill="#e31caf"/>
  <path d="m533 148 16.4 59.2-1.36 0.59-14-1.31-22.2-14.1s-8.62-4.19-8.93-12.3c-0.326-8.58 8.93-16.2 8.93-16.2z" fill="#005528"/>
  <path d="m-12.9 332 24.8 6.79s27.4 11.8 32.6 24.3c3.35 8.19-4.43 19.7-12.3 23.8-11 5.75-25.2-13.8-25.2-13.8l-7.06-14.6z" fill="#00aa73"/>
  <path d="m479 349c6.19-0.84 7.9 6.02 12 8.83 6.98 4.81 21.4 13.8 21.4 13.8l14.3 22.1 5.66 18.3-20 3.06s-27.8 7.74-40.4 2.84c-4.79-1.86-6.63-5.44-9.52-8.66-14.2-15.8 2.85-29.1 10.3-49 1.51-4.02 0.0647-10.4 6.24-11.3z" fill="#e3aac9"/>
  <path d="m141 479c14.9-0.512 52.5 11.4 42.5 17.4-6.68 4.02-16.2 15.6-16.2 15.6l-9.94 11.9-28.6-3.55 1.37-8.35s-0.581-13.4 1.61-19.5c1.83-5.13 5.87-13.3 9.25-13.5z" fill="#38e3df"/>
  <path d="m393 543 7.56-20.8 16.7-10.6s7.11-9.33 11.4-8.41c2.75 0.592 4.34 8.41 4.34 8.41l27.3 41.5-0.753 28.4-48.8-24.7z" fill="#c700b4"/>
  <path d="m-18 59.4 18-9.57s8-3.51 11.9-2.89c25.8 7.21 45.6 43.5 23 63.7l-11.2-7.47-23.7-24.9z" fill="#001c34"/>
  <path d="m449 72.4c1.39-5.67-0.0355-13.4 5.77-16.5 17-9.23 57.4 33.2 57.4 33.2l12.5 9.69 6.92 22.9-19.4-1.67s-21-2.15-31.6-1.37c-6.5 0.481-13.2 6.03-19.1 3.17-10.8-5.26-13.6-25.9-14.9-32.7-1.08-5.49 1.08-11.2 2.41-16.6z" fill="#e31caf"/>
  <path d="m500 344c0.548-5.03 12.2-9.02 12.2-9.02l12 3.27 32.6 24.3-4.04 26.2-33.4-16.2-7.06-14.6s-12.9-7.84-12.2-14z" fill="#00aa73"/>
  <path d="m185 460c-12.1 2.58-16.2 4.22-18.8 13.5-2.88 10.5 15.3 9.91 15.3 9.91s33.8 9.21 48.5 18.1c4.03 2.45 9.62 10.3 9.62 10.3l1.23 1.32 57.4 17.8 3.41-10-0.201-9.07s3.02-25.2-2.97-35.3c-5.29-8.93-15.7-11.9-24.8-15.5-27.4-10.7-59.9-7.26-88.7-1.12z" fill="#71e3d0"/>
  <path d="m452 506c6.73-2.1 23.9 5.97 23.9 5.97l0.43 0.334 34.6 26.9-11.8 16.3-19 15.6-19.3-29.5-10.2-29.3s-1.56-5.38 1.4-6.3z" fill="#e3006f"/>
  <path d="m86.9-50 14.6-13.7 19.3 17.6 5.01 36.9-4.68 9.17s-6.22 11.1-11.7 11.6c-6.69 0.567-16.5-11.6-16.5-11.6l-12.5-9.53z" fill="#1ce39d"/>
  <path d="m16.2 134c1.16-5.52 3.48-16.2 10.1-19 3.34-1.42 10.5 2.98 10.5 2.98l36 45.8s-1.62 14.3-12.5 24.9c-1.56 1.52-8.71 12-10 10.3-8.66-11.1-11-36.3-21.2-51.9-3.34-5.09-13.6-9.07-12.8-13z" fill="#0038dc"/>
  <path d="m499 126 28.2 7.71-26 27.6s-14.6 20.1-25.6 20.8c-8.53 0.531-11.3-9.27-13.5-15.9-3.53-10.7-7.82-21.8 2.31-33.7 9.08-10.7 34.6-6.48 34.6-6.48z" fill="#e3388e"/>
  <path d="m372 427c-14.9 7.27-46.5 42.6-31 53.2l10.8 7.36 36.9 6.08c3.11 5.59 7.66 12.5 14.2 13.7 11.9-7.34 29.8-8.65 40.5-19.5 4.82-4.93 8.5-18.9 8.5-18.9s-0.417-16-8.41-24.3c-6.77-6.99-21.2-11.5-21.2-11.5-0.055-0.0247-0.111-0.0478-0.172-0.0625-17.4 2.37-31.9-9.08-50-6.15z" fill="#b4da5d"/>
  <path d="m201 496c4.57-0.764 13.5 4.97 13.5 4.97l8.59 10.9-0.196 6.79-13.3 39.9-7.78-2.98-37.4-30.4 15.6-13.3s14.3-14.8 20.9-15.9z" fill="#550029"/>
  <path d="m144-36 38.5 18.1-15 17.9s-5.14 10-9.94 11.9c-8.93 3.52-20.2 4.56-25.9-3.13-1.69-2.26-1.28-8.77-1.28-8.77l5.04-30.8z" fill="#38e3df"/>
  <path d="m428-7.1-27.8 17.7c-11.9 22.6-9.77 46.9-12.5 70.4-1.78 14.5-1.61 23.2 0.518 26 1.2 1.51 14.4 1 39.7-1.51 12.8-1.32 19.3-45.2 22.4-59.1 1.87-0.686 3.57-1.71 5.02-3.19 7.2-15-22.7-43.3-22.7-43.3z" fill="#c700b4"/>
  <path d="m-54.2 475 39.9 3.59 14.3 11.6s21.2 8.4 29.9 4.92c5.24-2.08-7.72 15.1-7.72 15.1l-17.3 17.4-55.1-29.8z" fill="#e3e3c9"/>
  <path d="m29.9 0.189 0.149-0.189 2.32-2.94 20.7-20 11.7 3.96 16.6 19s11.4 7.54 12.3 18.7c0.284 3.72 0.176 7.35-3.44 11.5-4.26 4.9-3.48 5.74-12.2 2.75-17.1-5.89-48.1-32.8-48.1-32.8z" fill="#1c0024"/>
  <path d="m18.2 150c6.6-4.78 30.5 41.6 18 57.2-2.95 3.64-14-1.31-14-1.31l-42.8-27.2 20.6-15.4z" fill="#005528"/>
  <path d="m-32.7 343 10.8-5.21 21.9 33.9s9.61 11.6 16.6 17c5.21 3.99 22 4.14 19.6 11.5-3.89 11.8-36.3 15.1-36.3 15.1l-40.3 6.18-12.9 1.37 13.5-62.4z" fill="#e3aac9"/>
  <path d="m73.6 469c3.12-5.9 21.2-20.2 27.9-20.2 8.71-0.062 15.3 9.89 19.3 17.6 5.77 11 5.01 36.9 5.01 36.9l-12.6 24.7-32.7-25s-13.3-21.9-6.88-34z" fill="#1ce39d"/>
  <path d="m362 500c7.43-1.9 14.5-1.74 21.4 2.09 4.63 2.58 11.9 10.3 11.9 10.3l2.15 2.25-11.2 25.7-19.1 1.93-41.4-12 18.5-17.8s10.2-10.5 17.8-12.4z" fill="#aa0016"/>
  <path d="m-54.2-37.1 39.9 3.59 31.6 25.6 4.85 5.94-17.3 17.4-55.1-29.8z" fill="#e3e3c9"/>
  <path d="m494 59.4 28.4-15.1 33.8 35.2-7.42 29.5-1.82 1.62-11.2-7.47-23.7-24.9z" fill="#001c34"/>
  <path d="m-52.4 429 52.4-6.99c6.87-0.0632 7.08 4.14 13.9 5.54s6.97 8.35 3.92 16.3c-3.73 9.68-17.8 23.9-17.8 23.9l-5.6 5.73-46.2-7.54-1.61-33.9z" fill="#e3c7ec"/>
  <path d="m29.9 512 0.149-0.189s-0.0122-2.87 0.544-4.15c4.55-10.5 10-24.2 20.4-30.9 4.87-3.17 17.8-6.92 17.2-2.85-1.63 11.1 13.3 37.9 13.3 37.9l22.1 25.3-6 9.46-27.5 2.24z" fill="#1c0024"/>
  <path d="m294 99.8c4.06-5.68 32 3.5 34.6 1.48 0.169-0.13 16.2 1.81 48 5.83 2.04 0.257 4.6 2.41 7.67 6.46 0.197 0.26-1.36 17.1-4.67 50.6-0.213 2.15-1.28 4.39-3.21 6.73-0.124 0.151-6.86 3.32-10.2 2.38-20.2-5.66-12.4-14.9-45.1-44-24.5-21.9-49.6 1.96-27.1-29.5z" fill="#aa38e4"/>
  <path d="m57.6 348c2.3-4.47 21.8-5.86 26.1-8.8 1.11-0.759 16 0.859 23.9 1.87 9.81 1.25 21.3-0.696 29.2 5.17 12 8.87 15.8 24.3 20.5 39.9 1.22 4.02-22.8 13.8-33.5 21.7-11.7 8.58-10.9 19.3-33.5 27.7-5.85 2.18-38.5-16.5-48.1-36.6-2.49-5.21 6.56-33.7 15.4-50.9z" fill="#38aac3"/>
  <path d="m352 399c0.166-2.82 5.14-5.01 6.3-5.66 25.8-14.6 39.5-21.1 41-19.5 0 0 51.4 42.1 51.2 51.6-0.0297 1.2-1.49 2.59-2.51 2.58-21.7-0.86-33.3-1.46-34.7-1.8-31.8-7.6-47.8-11.7-48.1-12.2-3.1-6.09-13.6-8.37-13.2-15z" fill="#c7c716"/>
  <path d="m285 206q24.6-17.3 26.7-16.7 18.9 4.81 18.7 8.15-1.06 29-2.8 31.4-15.1 20.7-16.4 20.9-11.4 1.4-13.2-3.06-15.9-38.7-13.1-40.7z" fill="#8e5524"/>
  <path d="m204 315c-24 0.525-65.1 18.2-59.1 28.8 8.31 10.3 13.9 34.9 24.9 38.2 17.2-0.649 45.5 19.9 59 18.1 37.5-10.1 56.3-10.3 57.3-15.7s-9.37-4.28-13.8-7.06c-23.9-14.7-34.3-35.2-52.3-56.1-3.77-5.5-11.3-6.28-15.9-6.22z" fill="#63a378"/>
  <path d="m50.8 115c-5.4 0.0103-8.26 0.175-8.58 0.492 8.36 13.3 12.3 17.7 20.3 27.9 12.3 15.8 18.9 18.9 31.1 23.3 15.8 5.71 30.3 8.76 50.4 2.5 13.3-4.27 19.1-0.0492 18.1-16.4-1.07-16.7-7.77-25.1-20.1-25.3-19.5 2.54-23.3-15.7-36.8-17.5-10.3-1.38-6.68 6.14-30.6 5.46-10.5-0.297-18.4-0.44-23.8-0.43z" fill="#2a3825"/>
  <path d="m376 180c9.34 5.17 9.04 19.7 25.5 59.4 0.887 2.13-0.957 11.7-5.21 14.6-5.35 3.69-13.4 1.74-19.5-0.39-16-5.57-34.1-19.3-40.6-30.8-6.5-11.4-0.554-6.6 0.193-27.1 0 0 27.1-22.6 39.6-15.8z" fill="#aa55e6"/>
  <path d="m340 318c1.33-0.121 0.106-1.3 3.18 2.43 1.41 1.72 2.76 17.8 4.05 48.4 0.589 14 3.78 16.7-1.45 21.7-7.39 7.12-9.56 1.06-30.8 0.9-9.74-0.0747-13.8 2.31-17.3-1.59-1.59-1.79-4.9-7.21-4.99-7.5-0.0427-0.136 2.01-7.18 3.75-10.4 6.31-11.8 4.43-9.21 23.9-32.3 8.95-10.6 9.94-20.8 19.6-21.7z" fill="#8eaaa9"/>
  <path d="m138 411c11.1-4.13 20.2 1.36 27.2 16.5 4.49 9.68 3.86 32.3-7.76 44-7.44 7.44-14.4 3.78-21.7 1.36-7.34-2.42-7-5.93-19-17.5-7.68-7.39-10.1-15.9-7.37-25.5 1.77-6.13 11.3-12.4 28.7-18.9z" fill="#38c798"/>
  <path d="m425 111c-19.8-0.676-34.9 22-39.4 35.3-5.55 16.4 1.76 44.8 10.7 63.5 8.67 20.8 20.2 29.3 34.6 25.6 14.3-3.68 22.1-6.18 23.4-7.52 1.32-1.33 3.48-8.3 6.5-20.9 2.71-11.3-2.87-31.5-4.75-44.6-1.91-13.3-7.67-39.4-9.68-42.8-1.49-2.58-6.19-8.58-21.4-8.63z" fill="#c7471c"/>
  <path d="m371 327q26.9 6.88 29.4 11.5 3.3 6.25-0.684 15.2-5.38 12.1-22.6 21.9-23.2 13.1-24.4-15.3-1.61-38.4 18.4-33.3z" fill="#aaaa6e"/>
  <path d="m163 396c4.49-7.67 9.1-9.13 16.2-7.63 17.2 3.55 27.5 9.95 29.4 12.3 4.5 5.76 6.89 6.99 6.44 13.9-1.08 16.8 1.65 34-5.37 33.6-17-0.849-28.6 9.87-31.9 2.61-8.13-17.5-16.6-51.7-14.7-54.9z" fill="#55c74f"/>
  <path d="m405 356c2.84-6.41 15.3-9.72 37.3-9.94 18.4-0.181 25.5 16.3 12.5 39.4-4.99 22.9-11.1 26.2-30.5 6.63-16.2-16.4-22.6-28.4-19.2-36.1z" fill="#c7aa89"/>
  <path d="m245 400c27.2-7.35 41.7-9.99 43.5-7.93 3.22 3.63 2.96 12-0.777 25.2-6.6 23.3-10.1 27.1-19.7 30.3-16.9 5.56-35.3 5.63-39.8-0.0385-7.92-10-8.41-10-7.86-18.6 0.973-15.1 9.16-24.8 24.6-28.9z" fill="#71c75f"/>
  <path d="m338 152c16.4 23.9 15.1 26.1 8.85 29-10.1 4.82-17.9 6.55-23.2 5.2-8.73-2.22-15-6.59-18.7-13.1-6.17-10.7-5.4-13.7-8.46-22.3s-14.5-24-9.75-29.4c13.2-0.769 39.6 13.6 51.3 30.6z" fill="#8e3863"/>
  <path d="m239 307c20.8-13 14.2-11.2 22.6-11.1 21.8 0.226 67.7 14.3 58 30-10.9 17.6-27.4 53.6-47 45.5-16.1-11.5-45.1-53.3-33.5-64.4z" fill="#718e19"/>
  <path d="m330 234q3.07-4.21 42.6 21.4 8.84 5.71-19.9 26.5-6.42 4.64-31-22.9-5.49-6.14 8.25-25z" fill="#aa71c8"/>
  <path d="m336 399q11.3 0.086 19.1 14.2 2.52 4.54 1.39 17.8-0.362 4.26-28.7 32.6-9.08 9.08-15.6 10-2.08 0.295-20.9-15.2-6.03-4.97 5.71-46.4 3.77-13.3 38.9-13z" fill="#8ec7ba"/>
 </g>
</svg>
