<?xml version="1.0" encoding="UTF-8"?>
<svg width="512px" height="512px" contentScriptType="text/ecmascript" contentStyleType="text/css" version="1.1" viewBox="0 0 512 512" xmlns="http://www.w3.org/2000/svg">
 <g class="voronoi" stroke-width=".5">
  <path d="m458-37.1 39.9 3.59 31.6 25.6 4.85 5.94-17.3 17.4-55.1-29.8z" fill="#e3e3c9"/>
  <path d="m303 25.7c0.205-1.73 3.17-4.14 3.17-4.14l11.2 0.316s31.1 4.65 42.4 12.4c6.16 4.2-28.9 32-28.9 32s-6.54 6.33-12.1-4.98c-1.91-3.87-17.3-22.7-15.7-35.6z" fill="#8e00cf"/>
  <path d="m-13.2 126 13.2 3.6s7.55 0.676 8.96 5.68c1.98 7.04-8.96 14.4-8.96 14.4l-10.9 11.6-25.6 20.8-12.6-8.24-3.62-33.7z" fill="#e3388e"/>
  <path d="m30.9 423c18.3 3.29 60 21 60 21s-6.68 22.6-19.4 31.2c-2.82 1.92-11.9 3.88-15.1 2.76-12.4-4.3-27.7-35.5-27.7-35.5s-4.28-20.6 2.17-19.5z" fill="#00c7e4"/>
  <path d="m460 429 71-9.47 2.17 0.445 0.978 25.5-27.4 28-46.2-7.54-1.61-33.9z" fill="#e3c7ec"/>
  <path d="m318 479c10.1-0.544 19.2 6.58 27.6 12.7 7 5.14-10.2 20.1-10.2 20.1l-13.1 14.8-14.4 1.9 0.707-16.7 1.18-28s4.98-4.72 8.15-4.89z" fill="#8ee3e0"/>
  <path d="m111 542 11.6-13.2 24.7 0.928 42 23.9-2.14 22.8-51.6-6.19-24.5-16.7z" fill="#3800b4"/>
  <path d="m18.6 10.9c-6.96 1.71-13.6 9.44-13.7 16.6-0.0879 8.08 11 12.1 15 19.1 9.29 16.1 20.7 51.8 20.7 51.8 3.21 8.05 17.1 9.59 36.6 10.1 22.2 0.629 33.6-7.8 34.3-25.3 0.617-17.1-0.839-28.5-4.37-34.3-2.6-4.22-6.67-6.17-12.2-5.84-4.5 0.271-49.4-38.8-76.2-32.2z" fill="#1c1c7e"/>
  <path d="m445-14.3 30.2 14 0.43 0.334s23.9 6.21 30.1 19.4c2.75 5.8 5.89 22 2.26 27.3-6.2 9.04-19.8 17-29.7 14-11.2-3.43-18.3-31.4-18.3-31.4l-10.2-29.3z" fill="#e3006f"/>
  <path d="m22.9 455c12.2 0.726 22.2 17.4 21.5 29.6-0.522 8.89-9.2 19.9-18.1 19.6-12.1-0.287-23.5-15.7-23.2-27.8 0.241-9.76 10.1-22.1 19.9-21.5z" fill="#00e358"/>
  <path d="m457 475c9.04-9.85 40.5 3.47 40.5 3.47l31.6 25.6 4.85 5.94-17.3 17.4-55.1-29.8s-9.83-17-4.62-22.7z" fill="#e3e3c9"/>
  <path d="m303 538 3.17-4.14 11.2 0.316 40.1 9.42-26.6 35-25.7-27.8z" fill="#8e00cf"/>
  <path d="m111 30s6.21-10.9 11.6-13.2c7.56-3.25 24.7 0.928 24.7 0.928s34.6 9.64 42 23.9c3.53 6.78 3.81 18-2.14 22.8-13.5 10.9-51.6-6.19-51.6-6.19s-19.9-7.95-24.5-16.7c-1.83-3.43-0.053-11.7-0.053-11.7z" fill="#3800b4"/>
  <path d="m-41.1 70.8 11-5.22 42.6 33.1s11.4 12.7 6.37 18.9c-4.09 5.03-18.8 2.31-18.8 2.31l-31.6-2.72-23.3-10.1 3-20.3z" fill="#e31caf"/>
  <path d="m533 148 16.4 59.2-1.36 0.59-14-1.31-22.2-14.1s-11-5.51-11.3-13.7c-0.326-8.58 11.3-14.9 11.3-14.9z" fill="#005528"/>
  <path d="m-12.9 332 24.8 6.79s43.4 21 41.8 40.3c-0.94 11.1-14.6 17.8-27.7 18.9-10.4 0.855-19-24.9-19-24.9l-7.06-14.6z" fill="#00aa73"/>
  <path d="m479 343s8.53-8.51 10.8-5.21c7.15 10.6 21.9 33.9 21.9 33.9l14.3 22.1 5.66 18.3-60.2 9.24s-12.4 4.7-15.5 1.72c-4.05-3.87 3.59-17.1 3.59-17.1z" fill="#e3aac9"/>
  <path d="m144 476c12.3 8.72 54.8 21.3 40.5 24.4-7.62 1.64-17 11.6-17 11.6l-9.94 11.9-28.6-3.55 6.41-39.1s5.92-7.2 8.68-5.25z" fill="#38e3df"/>
  <path d="m393 543 7.56-20.8 16.7-10.6s4.88-6.03 9.17-5.11c2.75 0.592 6.57 5.11 6.57 5.11l27.3 41.5-0.753 28.4-48.8-24.7z" fill="#c700b4"/>
  <path d="m-18 59.4 18-9.57s8.71-4.82 12.4-3.51c16 5.67 15.1 29.2 20.8 44.3 2.22 5.87 3.49 18.4 3.49 18.4s-6 9.17-9.96 7.75c-4.37-1.57-4.66-14.8-8.98-21.1-4.68-6.84-17.8-17.4-17.8-17.4z" fill="#001c34"/>
  <path d="m471 70.8c6.6-4.1 22.3-7.08 23.1-3.12 1.75 8.12 18 21.3 18 21.3l12.5 9.69 6.92 22.9-51-4.39s-19.2-2.73-23.3-10.1c-3.32-5.98 0.53-13.9 3-20.3 2.32-5.99 5.3-12.6 10.8-16z" fill="#e31caf"/>
  <path d="m503 338c2.84-3.42 8.92-3.04 8.92-3.04l12 3.27 32.6 24.3-4.04 26.2-33.4-16.2-7.06-14.6s-15.2-12.4-8.92-20z" fill="#00aa73"/>
  <path d="m176 441c14-4.85 43 11 43 11s16.9 8.45 17.3 16.4c0.489 10.8-13.5 21.6-21.4 24.3-11 3.8-34-4.69-34-4.69s-30.7-7.7-26.4-17.3c4.73-10.4 11.6-26.3 21.5-29.7z" fill="#55e345"/>
  <path d="m4.93 539 13.7-16.6 35.8 17.7 1.38 30.7-35.8-12.8z" fill="#00009c"/>
  <path d="m449 500c8.23-7.46 26.8 11.9 26.8 11.9l0.43 0.334 34.6 26.9-11.8 16.3-19 15.6-19.3-29.5-10.2-29.3s-5.32-8.84-1.58-12.2z" fill="#e3006f"/>
  <path d="m86.9-50 14.6-13.7 19.3 17.6 5.01 36.9-4.68 9.17s-3.74 11.1-9.38 12.3c-8.29 1.88-18.8-12.3-18.8-12.3l-12.5-9.53z" fill="#1ce39d"/>
  <path d="m361-16.4 23.1 4.88 13.1 13.8s-3.66 20.2-11.2 25.7c-5.17 3.77-19.1 1.93-19.1 1.93s-26.5-0.0979-29.9-14c-2.06-8.31 7.02-15.8 7.02-15.8z" fill="#aa0016"/>
  <path d="m22 132s5.05-9.95 10.7-10.1c9.4-0.176 21.5 17.4 21.5 17.4s13.9 16.3 18.6 24.4c6.55 11.3-12.1 23.1-21 32.7-2.96 3.2-10.7 11.5-12 7.33-4.83-15.8-17.2-61-17.2-61z" fill="#0038dc"/>
  <path d="m492 125c4.55-0.174 20.2 4.67 20.2 4.67l15 4.11-15 16s-15.7 17.2-15.7 22.9c0.0135 11-9.81 8.98-20.8 9.54-5 0.258-21.1-12.2-20.3-17.1 2.2-14-1.07-33.7 4.49-43.5 5.88-10.4 18.2 4.05 32.1 3.52z" fill="#e3388e"/>
  <path d="m356 444c11.6-3.92 20.9 30.1 20.9 30.1s5.88 16.2 0.542 20.5c-7.03 5.64-26.2-6.56-26.2-6.56s-30.2-5.97-24.3-13.6c7.48-9.61 18-26.7 29.1-30.5z" fill="#aae33b"/>
  <path d="m196 501c8.11-2.45 18-6.05 23.9 1.32 1.66 2.05 2.51 9.99 2.51 9.99l-0.196 6.79-13.3 39.9-7.78-2.98-37.4-30.4 15.6-13.3s10.1-9.37 16.5-11.3z" fill="#550029"/>
  <path d="m144-36 38.5 18.1-24.9 29.8-28.6-3.55 6.41-39.1z" fill="#38e3df"/>
  <path d="m393 31.5c-2.28-7.03 7.56-20.8 7.56-20.8l27.8-17.7 31.9 48.6s7.38 23.6-0.753 28.4c-15.6 9.33-9.98-0.857-25.4-10.6-6.34-4.01-36.1-12.1-41.2-27.9z" fill="#c700b4"/>
  <path d="m-54.2 475 39.9 3.59 31.6 25.6 4.85 5.94-17.3 17.4-55.1-29.8z" fill="#e3e3c9"/>
  <path d="m417 433s27-6.19 34.8 1.93c7.99 8.25-0.49 34-0.49 34l-8.5 18.9s-3.79 4.5-6.21 6.11c-10.2 6.79-34 14.2-34 14.2l-14.2-13.2-6.53-27z" fill="#c7e30d"/>
  <path d="m271 528 25 13.2-25.7 28.3-39.7 0.677-6.04-37.5z" fill="#710098"/>
  <path d="m29.9 0.189 0.149-0.189 2.32-2.94 20.7-20 11.7 3.96 16.6 19s21.2 14.1 22.1 25.3c0.284 3.72-2.41 8.42-6 9.46-6.09 1.76-17.2-8.13-17.2-8.13z" fill="#1c0024"/>
  <path d="m21.2 148 16.4 59.2-1.36 0.59-14-1.31-42.8-27.2 20.6-15.4z" fill="#005528"/>
  <path d="m-32.7 343 10.8-5.21 36.2 56s9.05 12.9 5.66 18.3c-3.57 5.71-20 3.06-20 3.06l-40.3 6.18-12.9 1.37 13.5-62.4z" fill="#e3aac9"/>
  <path d="m86.9 462c3.12-5.89 7.9-13.7 14.6-13.7 8.71-0.061 19.3 17.6 19.3 17.6s11.4 14.1 11.5 22.6c0.122 8.68-11.2 23.5-11.2 23.5l-7.9 15.5-20.3-15.5s-15.8-12-17.8-16.9c-5.07-12.7 5.36-21.1 11.8-33.1z" fill="#1ce39d"/>
  <path d="m363 499c7.56-2.17 21.2 1.72 21.2 1.72l13.1 13.8-11.2 25.7-19.1 1.93-41.4-12 18.5-17.8s11.3-11.1 18.8-13.2z" fill="#aa0016"/>
  <path d="m-54.2-37.1 39.9 3.59 31.6 25.6 4.85 5.94-17.3 17.4-55.1-29.8z" fill="#e3e3c9"/>
  <path d="m417-78.8 33.9 1.52 0.463 34.4-8.5 18.9-6.21 6.11-34 14.2-14.2-13.2-6.53-27z" fill="#c7e30d"/>
  <path d="m502 60.5c1.09-6.72 10.1-10.6 10.1-10.6l10.4-5.52 33.8 35.2-7.42 29.5-1.82 1.62-11.2-7.47-23.7-24.9s-11.5-9.25-10.1-17.8z" fill="#001c34"/>
  <path d="m-52.4 429 52.4-6.99s15-1.6 20.5 1.42c3.62 1.99 2.7 3.26 3.31 7.35 0.724 4.89 0.994 6.75-2.06 14.7-3.73 9.68-21.8 22.3-21.8 22.3l-5.6 5.73-46.2-7.54-1.61-33.9z" fill="#e3c7ec"/>
  <path d="m238 476c8.73-9.39 22.5-15 35.3-15.2 8.37-0.118 18.1 0.328 23.4 9.26 5.99 10.1 4.42 41.5 4.42 41.5l0.202 9.07-3.41 10-57.4-17.8-1.23-1.32s-7.89-8.38-8.89-13.1c-1.82-8.61 1.62-16 7.61-22.5z" fill="#71e3d0"/>
  <path d="m29.9 512 0.149-0.189 2.32-2.94 20.7-20 11.7 3.96 38.6 44.3-6 9.46-27.5 2.24z" fill="#1c0024"/>
  <path d="m45.4 116c4.33-8.7 8.11-2.61 29.1-2.01 23.9 0.677 36.7 1.98 38.4 3.92 1.94 2.21 0.624 10.1-3.94 23.8-5.21 15.6-11 23.4-17.3 23.6-7.24 0.21-17-7.58-29.3-23.4-14.1-18-21.5-16.7-16.9-25.9z" fill="#1c3877"/>
  <path d="m193 256q2.06-8.31 18.5-10.3 27-3.24 30.2-0.709 5.2 4.18 11.8 18.1 10.9 22.9 5.77 25.3-8.54 3.93-26.9-0.152-30.3-6.73-34.2-14.4-6.37-12.7-5.12-17.7z" fill="#557163"/>
  <path d="m288 377q3.59-6.44 19-13.1 25.6-11 34.4 9.66 14.6 34.5 14.4 35.3-0.413 1.45-22.6 0.224-37-2.04-40.9-10.7-6.61-14.4-6.5-15.6 0.188-2.02 2.34-5.89z" fill="#8eaa62"/>
  <path d="m141 404q14.7 2.78 24.6 24 6.32 13.6-11.1 31-11.2 11.2-16.4 12.4-3.36 0.795-21.4-16.5-11.5-11.1-3.72-38.1 4.99-17.3 28-12.9z" fill="#38c798"/>
  <path d="m361 108q21.2-9.42 31.5-2.83 11.6 7.41 7.55 33.1-4.51 28.9-10.9 33.3-7.18 4.89-17.3 4.09-11.4-0.898-20-28.4-9.68-30.9 9.2-39.3z" fill="#aa3878"/>
  <path d="m191 190q6.46-0.7 26.6 5.83 16.4 5.33 17.6 25.7 0.951 16.6-23 19.5-19.5 2.34-23.9-7.14-3.58-7.74-4.47-27.1-0.729-15.8 7.19-16.7z" fill="#55558b"/>
  <path d="m287 291q0.933-0.299 56 27.1 6.24 3.11 6.85 5.91 0.07 0.317-15.4 20.3-1.75 2.26-38.5 18.1-4.17 1.8-15.9-61.7-1.33-7.19 6.91-9.83z" fill="#8e8eda"/>
  <path d="m121 341q9.27-11.6 17.3-10.5 36 4.69 39.4 7.59 15.3 13.1 15.3 14.4-0.06 6.25-1.28 10.2-5.5 17.8-10.7 21-23.5 14.6-30.4 13.3-30.9-5.83-32.3-9.29-6.55-15.5-5.24-20.7 5.9-23.4 7.96-26z" fill="#38aa36"/>
  <path d="m398 373q52.3 52.7 52.3 52.8 0.049 0.39 2e-3 0.487-1.04 2.15-2.51 2.09-32.6-1.29-34.7-1.8-47.7-11.4-47.7-11.5-1.32-2.37-1.29-2.47 0.633-2.22 1.97-3.93 29.6-38 32-35.6z" fill="#c7c716"/>
  <path d="m171 189c-2.52 0.0152-5.86 0.387-10 1.12-23.8 4.17-36.9 9.1-39.1 14.8-6.34 16.2-9.2 25.6-8.58 28.2 0.75 10.4 2.05 25.5 1.4 35-0.028 0.333 3.1 4.91 9.39 13.7 0.162 0.227 19.5-6.58 58-20.4 0.992-0.356 2.56-4.87 4.71-13.5-3.14-11.2-8.36-21.2-8.66-31.1-0.801-17.4-1.5-26.3-2.11-26.8-0.861-0.7-2.55-1.04-5.06-1.03z" fill="#3863b5"/>
  <path d="m259 297q8.72-4.02 10.6-3.58 3.3 0.757 8.05 26.5 8.29 44.9 6.2 48.7-3.65 6.55-23-6.22-33.8-22.3-24-37.1 17.1-25.9 22.1-28.2z" fill="#718e60"/>
  <path d="m71.2 329q40.2 14.5 39.6 17-6.58 26.1-10.6 26.5-41.8 4.32-43.1 2.07-13.3-23.5-11.2-25.5 21.4-21.4 25.3-20z" fill="#1caa20"/>
  <path d="m363 420q0.224-2.63 42.6 7.51 7.48 1.79-22.3 31.6-5.27 5.27-19.1-19.8-2.44-4.43-1.17-19.3z" fill="#aac7cf"/>
  <path d="m429 294q9 4.04 28.9 24.5 17.3 17.7 14.7 20.3-2.26 2.26-34 2.57-27.5 0.272-23.5-27.7 3.52-24.3 13.9-19.7z" fill="#c78e87"/>
  <path d="m202 353q7e-3 -0.754 20.9-8.34 2.29-0.83 50.2 30.8 5.24 3.46 4.98 6.38-0.03 0.319-29.4 8.82-3.21 0.931-42.5-27.6-4.3-3.13-4.24-10z" fill="#71aadb"/>
  <path d="m36.2 403c9.56-8.32 24.5-21.7 30.7-22.4 24.3-2.52 37-2.49 38.1 0.078 4.26 10.1 5.52 18.1 3.79 24.1-6.8 23.5 1.59 29.8-9.17 35.9-5.05 2.86-7.55-1.72-16.7-4.99-35.9-12.8-53.8-19.3-53.9-19.4-0.232-0.368 0.0856-5.36 0.36-6.35 1.07-3.91 4.32-4.87 6.77-7.01z" fill="#1cc73b"/>
  <path d="m415 53.6q40.4 25 38.1 33.6-4.26 16-18.3 17.4-26.2 2.6-33.8-2.29-14.2-9.11-11.9-27.6 4.24-34.5 25.9-21.1z" fill="#c71c5c"/>
  <path d="m246 135c4.15-0.36 3.8 2.42 9.91 7.6 8.66 7.36 13.3 12.4 13.8 15.1 0.735 3.8 0.388 7.97-1.04 12.5-2.03 6.43-6.84 11.8-14.4 16.1-10.8 6.15-21.2 7.59-31.2 4.32-14.3-4.64-15.4-13.7-3.26-27 17.2-19 13.4-27.5 26.3-28.6z" fill="#71386b"/>
  <path d="m322 243q4.07-8.62 4.38-8.8 4.29-2.48 8.13-0.151 52.2 31.7 50.2 34-26.3 31.6-28.9 27.7-34.2-52.2-33.9-52.8z" fill="#aa711c"/>
  <path d="m235 295q13.9 3.08-5.37 32.2-7.66 11.6-24.3 17.6-6.61 2.4-20-9.02-5.33-4.54 9.07-36 5.73-12.5 40.6-4.8z" fill="#558eb0"/>
  <path d="m342 415q14.4 0.792 15.4 2.67 0.335 0.602-0.792 13.9-0.362 4.26-28.7 32.6-9.08 9.08-15.6 10-2.08 0.295-20.9-15.2-6.03-4.97 2.86-36.3 2.85-10.1 47.6-7.6z" fill="#8ec7ba"/>
  <path d="m371 36.4q14.1-2 14.5-1 1.18 3.77-0.179 14.9-5.15 41.9-13.5 45.6-31.7 14.1-33.3 13.3-6.1-2.8-6.95-4.2-3.22-5.28-3.26-10.2-0.173-18.6 8.04-26.8 31-31 34.8-31.6z" fill="#aa1c3c"/>
  <path d="m334 267q23.4 35.8 21 40.9-4.31 9.08-26.5-1.96-39.2-19.5-27.8-33.8 20-25.3 33.3-5.1z" fill="#8e715f"/>
  <path d="m153 276q32.3-11.6 37-2.35 5.58 11.1-3.56 31.1-11 24-31 21.4-24-3.13-26.4-20.1-2.93-20.4 24-30.1z" fill="#388e75"/>
  <path d="m398 358c0.231-4.25 2.37-7.46 6.41-9.62 3.37-1.8 15.8-2.81 37.4-3.02 49.5-6.49 28.7 7.64 22.7 35.1-15 58-22.2 30.2-42 10.2-16.6-16.7-24.7-27.6-24.5-32.7z" fill="#c7aa89"/>
  <path d="m258 394q20.8-6.02 24.6 2.29 6.76 14.7 2.51 29.7-7.5 26.5-21.8 31.2-25.3 8.34-32-0.165-11.9-15-11.4-22.5 0.85-13.2 10.1-21.8 16.3-15.2 28.1-18.6z" fill="#71c75f"/>
  <path d="m293 220q27.4 14.3 26.5 16.2-3.48 7.37-9.87 15.5-25 31.6-26.8 32.2-7.3 2.34-8.36 2.1-4.14-0.948-7.72-8.44-14-29.3-7.21-35.8 26.5-25.4 33.5-21.7z" fill="#71713b"/>
  <path d="m49.7 286q8.21-8.21 26.2-9.92 33.1-3.15 36.6 1.63 6.26 8.8 8.16 22 3.48 24.2-0.51 29.2-7.34 9.17-22.9 3.58-28.5-10.3-36.8-21.5-15.2-20.6-10.8-25z" fill="#1c8e5d"/>
  <path d="m340 347q15-19.5 19.7-16.6 33.2 20.8 33.1 22.5-0.666 12.3-4.5 17.2-27.1 34.8-30 27.9-20.5-48.3-18.4-51.1z" fill="#aaaa29"/>
  <path d="m170 399q20.3-12.6 27.6-2.71 17.5 23.9 17.1 30-0.943 14.7-11.5 14.1-25.4-1.27-30.2-11.5-11.4-24.7-3.04-29.9z" fill="#55c74f"/>
  <path d="m152 68.8q29.5 7.39 24.6 29.2-4.3 19.2-7.38 22.4-2.7 2.86-26.4 0.335-20.8-2.22-23.7-5.52-2.55-2.91-1.56-30.5 0.876-24.3 34.4-15.9z" fill="#381c86"/>
  <path d="m428 110q21.7-2.16 24.4 2.25 3.1 5.19 1.04 26.9-2.43 25.5-25.4 26.4-27 0.981-23.1-24.1 4.6-29.5 23.1-31.4z" fill="#c73876"/>
  <path d="m262 188q4.47-2.55 18.1 20.4 2.64 4.45-25.2 31.2-5.4 5.18-12.4-0.436-1.36-1.09-3.13-32-0.344-5.99 22.7-19.2z" fill="#7155cc"/>
  <path d="m387 276q3.99-4.78 11.9-6.83 1.29-0.336 12.6 16.1 1.85 2.7-4.64 47.6-1.07 7.38-10.6 12.5-1.57 0.839-34.2-19.5-5.35-3.35-5.94-6.02-0.097-0.439 5.7-12.7 0.952-2.01 25.2-31.1z" fill="#aa8ed1"/>
  <path d="m194 379q5.29-17.1 14.6-10.3 34.3 24.9 28.8 30-20.1 18.7-25.4 11.5-19.5-26.6-18-31.2z" fill="#55aa3d"/>
 </g>
</svg>
