<?xml version="1.0" encoding="UTF-8"?>
<svg width="512px" height="512px" contentScriptType="text/ecmascript" contentStyleType="text/css" version="1.1" viewBox="0 0 512 512" xmlns="http://www.w3.org/2000/svg">
 <g class="voronoi" stroke-width=".5">
  <path d="m27.5 423c-8.88-0.721 2.3 26.6 2.3 26.6s-14.3 7.77-17 17.3c-2.76 9.77-3.58 34.2 11.2 27.8 14.8-6.37 18.1-11.3 33.3-16.4 12.8-4.25 29.9-16.6 23.9-30.7-4.53-10.6-40.7-23.6-53.7-24.6z" fill="#00d59e"/>
  <path d="m15.5 336-15.5-0.633-12.9-3.52 12.9 26.5s6.32 10.8 10.8 13.7c14 9.06 43.7 8.59 43.7 8.59 2.11 1.2 32.5-3.06 40.9-14.9 4.89-6.84 3.14-4.18 0.471-25.2-20.9-21.2-53.4-8.54-80.5-4.62z" fill="#00aa73"/>
  <path d="m153 479c7.81 0.317 5.96 3.97 10.2 10.6 4.09 6.37 4.43 22.3 4.43 22.3l-9.94 11.9-28.6-3.55 1.37-8.35s3.91-22.2 9.73-30.8c1.89-2.8 9.44-2.21 12.8-2.07z" fill="#38e3df"/>
  <path d="m187 445s23.3 0.345 31.7 7.13c7.03 5.64 11.5 24.5 11.5 24.5s-7.71 16.9-15.6 19.6c-11 3.8-23.7-2.68-34-8.15-9.58-5.09-20.6-9.34-19.9-20.2 0.825-12.3 26.3-23 26.3-23z" fill="#55e345"/>
  <path d="m196 502c8.56-2.28 19.2-5.52 25.2 1.85 1.66 2.05 1.66 8.12 1.66 8.12l-0.196 6.79-13.3 39.9-7.78-2.98-37.4-30.4 15.6-13.3s9.75-8.26 16.2-9.98z" fill="#550029"/>
  <path d="m-5.02 315 5.02-5.68s4.79-4.57 7.4-6.31c7.52-5.01 19.1-7.18 27.5-4.71 8.29 2.44 13 4.95 12.3 16.2-0.383 5.85-5.15 10.6-8.7 13.1-11 7.96-36.8 1.44-36.8 1.44l-1.68-3.53z" fill="#008ebf"/>
  <path d="m-54.2 475 39.9 3.59 31.6 25.6 4.85 5.94-17.3 17.4-55.1-29.8z" fill="#e3e3c9"/>
  <path d="m-32.7 343 10.8-5.21 36.2 56 5.66 18.3-60.2 9.24-12.9 1.37 13.5-62.4z" fill="#e3aac9"/>
  <path d="m82.7 464c3.26-4.35 13.6-9.01 19-8.79 7.29 0.3 15 4.74 19.1 10.8 6.96 10.3 5.72 24.2 3.63 36.4-0.576 3.38-3.31 9.68-3.31 9.68l-7.9 15.5-20.3-15.5s-9.5-9.02-11.4-13.9c-5.07-12.7-6.08-24.5 1.23-34.2z" fill="#1ce39d"/>
  <path d="m-52.4 429 52.4-6.99s15.1-2.3 19.2 2.72c4.52 5.57 0.3 17.8-1.43 21.5l-17.8 21.5-5.6 5.73-46.2-7.54-1.61-33.9z" fill="#e3c7ec"/>
  <path d="m29.9 512 0.149-0.189 2.32-2.94s11.4-17.9 20.7-20c4.01-0.899 11.7 3.96 11.7 3.96l38.6 44.3-6 9.46-27.5 2.24z" fill="#1c0024"/>
  <path d="m123 380q51.8-31.9 53.2-27.7 12.1 35.2 9.18 37.4-24.8 18.1-29.1 16.7-36.6-12.3-36.9-13.4-2.43-9.17 3.64-12.9z" fill="#38aa24"/>
  <path d="m143 408q16 5.38 23.9 22.5 5.1 11-12.3 28.4-11.2 11.2-16.4 12.4-3.36 0.796-21.4-16.5-11.5-11.1-3.74-38 4.98-17.2 29.9-8.85z" fill="#38c798"/>
  <path d="m112 319q5.93-10.8 39.6-10.1 21 0.404 23.6 16.9 1.68 10.3-0.243 15-1.2 2.93-36.8 24.9-22.2 13.7-27.8 8.47-3.5-3.23-6.2-24.5-1.68-13.3 7.85-30.6z" fill="#388e9a"/>
  <path d="m36.7 403q21.4-21.4 29.9-22.3 33.4-3.46 35.3-1.75 7.26 6.71 7.81 8.79 2.17 8.16-0.426 17.1-10.2 35.2-10.6 35.3-1.56 0.465-15.3-4.44-53.8-19.3-53.9-19.4-0.348-0.552 0.063-2.04 1.61-5.86 7.07-11.3z" fill="#1cc73b"/>
  <path d="m173 405q19.6-14.3 26.6-10.7 16.8 8.8 16.1 19.9-1.72 26.7-12.3 26.2-25.4-1.27-29.3-9.52-9.24-19.9-1.12-25.9z" fill="#55c74f"/>
 </g>
</svg>
