<?xml version="1.0" encoding="UTF-8"?>
<svg width="512px" height="512px" contentScriptType="text/ecmascript" contentStyleType="text/css" version="1.1" viewBox="0 0 512 512" xmlns="http://www.w3.org/2000/svg">
 <g class="voronoi" stroke-width=".5">
  <path d="m32 416c22.4-2.28 28.6 17.3 52.1 33.6 4.6 14.6-16.5 10.7-30 18-15.9 8.69-37.1 33.3-46.9 18-7.76-12.1 10.6-23.9 14.4-36.3 5.15-11.1 1.61-32 10.4-33.3z" fill="#00c7e4"/>
  <path d="m-12.9 332 24.8 6.79s27.4 11.8 32.6 24.3c3.35 8.19-4.43 19.7-12.3 23.8-11 5.75-25.2-13.8-25.2-13.8l-7.06-14.6z" fill="#00aa73"/>
  <path d="m141 479c14.9-0.512 49.7 13.7 39.7 19.7-6.68 4.02-13.4 13.3-13.4 13.3l-9.94 11.9-28.6-3.55 1.37-8.35s-0.581-13.4 1.61-19.5c1.83-5.13 5.87-13.3 9.25-13.5z" fill="#38e3df"/>
  <path d="m183 432c-12.1 2.58-14 32.3-16.6 41.6-2.88 10.5 14.4 12.7 14.4 12.7s21.3 18.2 30.5 12.2c17.4-11.3 15.5-46.3 2.16-62.2-6.59-7.83-24-5.59-30.4-4.21z" fill="#71e355"/>
  <path d="m-54.2 475 39.9 3.59 14.3 11.6s21.2 8.4 29.9 4.92c5.24-2.08-7.72 15.1-7.72 15.1l-17.3 17.4-55.1-29.8z" fill="#e3e3c9"/>
  <path d="m-32.7 343 10.8-5.21 21.9 33.9s9.61 11.6 16.6 17c5.21 3.99 22 4.14 19.6 11.5-3.89 11.8-36.3 15.1-36.3 15.1l-40.3 6.18-12.9 1.37 13.5-62.4z" fill="#e3aac9"/>
  <path d="m86.9 462c3.12-5.9 7.93-13.7 14.6-13.7 8.71-0.062 15.3 9.89 19.3 17.6 5.77 11 5.01 36.9 5.01 36.9l-12.6 24.7-32.7-25s-0.0039-28.4 6.39-40.5z" fill="#1ce39d"/>
  <path d="m-52.4 429 52.4-6.99c6.87-0.0632 7.08 4.14 13.9 5.54s6.97 8.35 3.92 16.3c-3.73 9.68-17.8 23.9-17.8 23.9l-5.6 5.73-46.2-7.54-1.61-33.9z" fill="#e3c7ec"/>
  <path d="m29.9 512 0.149-0.189s-0.0122-2.87 0.544-4.15c4.55-10.5 9.01-27.6 20-30.6 6.77-1.84 19.5-4.13 18.9-0.064-1.63 11.1 11.9 34.8 11.9 34.8l22.1 25.3-6 9.46-27.5 2.24z" fill="#1c0024"/>
  <path d="m57.6 348c2.3-4.47 21.8-5.86 26.1-8.8 1.11-0.759 16 0.859 23.9 1.87 9.81 1.25 21.3-0.696 29.2 5.17 12 8.87 35.2 34.3 28.5 53.3-4.73 13.5-28.7 8.94-39.4 16.8-11.7 8.58-13 10.7-35.6 19.1-5.85 2.18-38.5-16.5-48.1-36.6 1.29-17.7 8.02-36.2 15.4-50.9z" fill="#38aa23"/>
  <path d="m146 414c11.1-4.13 11.8-1.19 18.8 14 4.49 9.68 3.86 32.3-7.76 44-7.44 7.44-14.4 3.78-21.7 1.36-7.34-2.42-7-5.93-19-17.5-7.68-7.39-10.7-9.49-8-19.1 7.86-10.9 28.9-19.4 37.6-22.7z" fill="#38c798"/>
 </g>
</svg>
