<?xml version="1.0" encoding="UTF-8"?>
<svg width="512px" height="512px" contentScriptType="text/ecmascript" contentStyleType="text/css" version="1.1" viewBox="0 0 512 512" xmlns="http://www.w3.org/2000/svg">
 <g class="voronoi" stroke-width=".5">
  <path d="m94.7 379c-6.35-0.013-15.6 0.61-27.8 1.87-6.2 0.641-16.4 8.1-30.7 22.4-11.2 12.3-5.47 28.2-6.42 46.3l21.7 32.9 9.71-3.23c11.7-6.53 24.4-34.5 37.1-38.8 0.265-0.0793 3.8-11.9 10.6-35.4 1.73-5.99 0.468-14-3.79-24.1-0.542-1.28-3.99-1.93-10.3-1.95z" fill="#0ec7bd"/>
  <path d="m23.5 459c12.1 0.624 22.2 14.5 22.1 25.9-0.0466 9.59-18.9 21.7-18.9 21.7s-26.1-13.8-25.9-26.1c0.153-10.4 11.5-22.1 22.7-21.5z" fill="#00e358"/>
  <path d="m-12.9 332 24.8 6.79s30.1 10.6 35.2 23.2c3.35 8.19 1.13 23.3-6.71 27.4-11 5.75-15.5 7.52-24.2-1.24-3.81-3.82-16.3-29.6-16.3-29.6z" fill="#00aa73"/>
  <path d="m144 476s29.5 2.64 32.6 16.5c1.68 7.61-9.13 19.5-9.13 19.5l-9.94 11.9-28.6-3.55 6.41-39.1z" fill="#38e3df"/>
  <path d="m176 443c14.5 2.02 33.1-5.17 40.8 2.48 2.54 2.54 6.04 11.4 4.1 16.9-4.2 11.9-30 22.9-30 22.9s-6.49 2.39-15.5-0.32c-8.59-2.58-19-19-19-19s9.92-24.2 19.6-22.8z" fill="#55e345"/>
  <path d="m4.41 315c0.353-2.5 5.02-5.68 5.02-5.68 5.56-8.02 14.2-11.6 22.5-16.3 8.04-4.6 27.9 16.9 29.9 28 1.64 9.35-9.84 16.6-18.1 20.3-4.91 2.21-11.1 1.73-16.2 0.029-8.01-2.67-20.3-15.2-20.3-15.2s-3.36-7.27-2.82-11.1z" fill="#008ebf"/>
  <path d="m-54.2 475 39.9 3.59 31.6 25.6 4.85 5.94-17.3 17.4-55.1-29.8z" fill="#e3e3c9"/>
  <path d="m-32.7 343 10.8-5.21 21.9 33.9s8.92 12.1 14.3 19.1c3.67 4.8 15.6 11.1 12.2 16.5-3.57 5.71-26.4 7.88-26.4 7.88l-40.3 6.18-12.9 1.37 13.5-62.4z" fill="#e3aac9"/>
  <path d="m87.2 458c4.04-4.13 7.59-9.78 14.3-9.83 8.71-0.061 19.3 17.6 19.3 17.6s11.7 12.8 9.61 25.1c-0.576 3.38-9.28 21-9.28 21l-7.9 15.5-20.3-15.5s-22.9-20-24.8-24.9c-5.07-12.7 11-20.8 19.1-29z" fill="#1ce39d"/>
  <path d="m-52.4 429 71-9.47 2.17 0.445s4.03 17.6 0.978 25.5c-3.73 9.68-21.8 22.3-21.8 22.3l-5.6 5.73-46.2-7.54-1.61-33.9z" fill="#e3c7ec"/>
  <path d="m29.9 512 0.149-0.189 2.32-2.94s11.4-17.9 20.7-20c4.01-0.899 8.26 1.67 11.7 3.96 6.99 4.68 16.6 19 16.6 19l22.1 25.3-6 9.46-27.5 2.24z" fill="#1c0024"/>
  <path d="m192 250c1.37-5.54 1.9-12.1 12.8-13.5 18-2.16 34.9 7.4 37 9.09 3.47 2.78 7.41 8.8 11.8 18.1 7.3 15.3 9.22 23.7 5.77 25.3-5.69 2.62-14.7 2.57-26.9-0.152-20.2-4.49-31.6-9.3-34.2-14.4-4.25-8.47-7.15-21-6.32-24.4z" fill="#557163"/>
  <path d="m141 404q14.7 2.78 24.6 24 6.32 13.6-11.1 31-11.2 11.2-16.4 12.4-3.36 0.795-21.4-16.5-11.5-11.1-3.72-38.1 4.99-17.3 28-12.9z" fill="#38c72f"/>
  <path d="m121 341q9.27-11.6 17.3-10.5 36 4.69 39.4 7.59 15.3 13.1 15.3 14.4-0.06 6.25-1.28 10.2-5.5 17.8-10.7 21-23.5 14.6-30.4 13.3-30.9-5.83-32.3-9.29-6.55-15.5-5.24-20.7 5.9-23.4 7.96-26z" fill="#38aa71"/>
  <path d="m259 297q8.72-4.02 10.6-3.58 3.3 0.757 8.05 26.5 8.29 44.9 6.2 48.7-3.65 6.55-23-6.22-33.8-22.3-24-37.1 17.1-25.9 22.1-28.2z" fill="#718e60"/>
  <path d="m71.2 329q40.2 14.5 39.6 17-6.58 26.1-10.6 26.5-41.8 4.32-43.1 2.07-13.3-23.5-11.2-25.5 21.4-21.4 25.3-20z" fill="#1caa20"/>
  <path d="m119 260c0.542-11.9 63.4-22 63.6-21.7 5.17 11.2 4.56 5.73 4.82 9.17 0.356 4.77-3.72 13.2-4.71 13.5-38.5 13.8-57.9 20.7-58 20.4-6.29-8.83-3.23-3.23-6.25-8.14z" fill="#38717c"/>
  <path d="m202 353q7e-3 -0.754 20.9-8.34 2.29-0.83 50.2 30.8 5.24 3.46 4.98 6.38-0.03 0.319-29.4 8.82-3.21 0.931-42.5-27.6-4.3-3.13-4.24-10z" fill="#71aa43"/>
  <path d="m235 295q13.9 3.08-5.37 32.2-7.66 11.6-24.3 17.6-6.61 2.4-20-9.02-5.33-4.54 9.07-36 5.73-12.5 40.6-4.8z" fill="#558eb0"/>
  <path d="m153 276q32.3-11.6 37-2.35 5.58 11.1-3.56 31.1-11 24-31 21.4-24-3.13-26.4-20.1-2.93-20.4 24-30.1z" fill="#388e75"/>
  <path d="m258 394c13.8-4.01 22-3.25 24.6 2.29 4.5 9.79 5.34 19.7 2.51 29.7-5 17.6-17.3 22.7-26.9 25.9-16.9 5.56-28.8 6.19-33.3 0.515-7.92-10-5.42-12.9-5.1-17.9 0.567-8.82 3.93-16.1 10.1-21.8 10.9-10.1 20.2-16.3 28.1-18.6z" fill="#71c75f"/>
  <path d="m49.7 286q8.21-8.21 26.2-9.92 33.1-3.15 36.6 1.63 6.26 8.8 8.16 22 3.48 24.2-0.51 29.2-7.34 9.17-22.9 3.58-28.5-10.3-36.8-21.5-15.2-20.6-10.8-25z" fill="#1c8e95"/>
  <path d="m170 399q20.3-12.6 27.6-2.71 17.5 23.9 17.1 30-0.943 14.7-11.5 14.1-25.4-1.27-30.2-11.5-11.4-24.7-3.04-29.9z" fill="#55c794"/>
  <path d="m194 379q5.29-17.1 14.6-10.3 34.3 24.9 28.8 30-20.1 18.7-25.4 11.5-19.5-26.6-18-31.2z" fill="#55aa3d"/>
 </g>
</svg>
