<?xml version="1.0" encoding="UTF-8"?>
<svg width="512px" height="512px" contentScriptType="text/ecmascript" contentStyleType="text/css" version="1.1" viewBox="0 0 512 512" xmlns="http://www.w3.org/2000/svg">
 <g class="voronoi" stroke-width=".5">
  <path d="m458-37.1 39.9 3.59 31.6 25.6 4.85 5.94-17.3 17.4-55.1-29.8z" fill="#e3e3c9"/>
  <path d="m300 26.4c0.415-1.69 4.21-4.08 5.78-4.83 3.36-1.6 7.48-0.274 11.2 0.316 14.3 2.29 36.3-0.297 41.5 12.4 4.14 10.1-19.1 24.5-28 32-9.66 8.11-25.7-27.8-25.7-27.8s-5.84-7.89-4.81-12.1z" fill="#8e00b0"/>
  <path d="m-13.2 126 13.2 3.6s8.3-0.397 9.7 4.61c1.98 7.04-9.7 15.5-9.7 15.5l-10.9 11.6-25.6 20.8-12.6-8.24-3.62-33.7z" fill="#e3388e"/>
  <path d="m94.7 379c-6.35-0.013-15.6 0.61-27.8 1.87-6.2 0.641-16.4 8.1-30.7 22.4-3.64 3.64-5.99 7.41-7.07 11.3 0.411 10.9-6.94 26.4 0.643 35 9.77 11.1 18.2 24.1 17.6 34-0.184 3.41 13.8-4.35 13.8-4.35 11.7-5.26 24.2-27.4 39.5-38.4 9.99-7.19 4.28-12.3 11.1-35.8 1.73-5.99-2.49-14-6.75-24.1-0.542-1.28-3.99-1.93-10.3-1.95z" fill="#0ec76b"/>
  <path d="m4.93 27.5s10.2-21.7 17.2-23.2c13-2.79 21.4 16.3 32.3 24.3 7.79 5.75 26 9.17 2.57 27.3-14 10.8-30.4-11.1-53.8-15-4.43-0.73 1.74-13.4 1.74-13.4z" fill="#00009c"/>
  <path d="m445-14.3 30.2 14 0.43 0.334s32.5 12.4 34.6 26.9c0.941 6.64-1.26 16.1-6.29 21.7-5.91 6.59-18.8 15.4-27.2 12.8-11.2-3.47-11.8-21.1-16.6-32.2-4.07-9.49-10.2-29.3-10.2-29.3z" fill="#e3006f"/>
  <path d="m23.8 454c13.6 3.04 18.5 18.4 20.7 35 0.844 6.17-11.5 17.2-19.1 13.7-7.81-3.54-24-18-21.3-27.8 1.96-7.16 12.4-22.6 19.7-20.9z" fill="#00e358"/>
  <path d="m318-32.9 34.7 13.3-17.3 19.5s-7.34 11.6-13.1 14.8c-3.46 1.94-8.15 5.31-11.7 2.05-4.12-3.77-1.94-16.9-1.94-16.9l1.18-28z" fill="#8ee3e0"/>
  <path d="m111 30s6.21-10.9 11.6-13.2c7.56-3.25 16.8-1.33 24.7 0.928 15.5 4.42 42.1 18.9 52.6 31.7 4.84 5.92-3.86 14.7-9.81 19.5-13.5 10.9-54.4-10.6-54.4-10.6s-19.9-7.95-24.5-16.7c-1.83-3.43-0.053-11.7-0.053-11.7z" fill="#38003d"/>
  <path d="m-41.1 70.8 11-5.22 42.6 33.1s12.5 11.7 7.48 17.9c-4.09 5.03-19.9 3.3-19.9 3.3l-31.6-2.72-23.3-10.1 3-20.3z" fill="#e31caf"/>
  <path d="m533 148 16.4 59.2-1.36 0.59-14-1.31-22.2-14.1s-14.3-4.8-14.6-12.9c-0.326-8.58 14.6-15.6 14.6-15.6z" fill="#005528"/>
  <path d="m-12.9 332 12.9 3.52s20.8 2.68 29.1 8.48c11.1 7.81 16.4 13.9 24 32.9 3.8 9.39-13.1 17.9-20.9 22-11 5.75-25.2-25.9-25.2-25.9l-7.06-14.6z" fill="#00aa73"/>
  <path d="m171 445c-5.24 5.15-12.3 15.1-16.1 18.4 0 0-19 11-20.3 19.7-1.38 9.9-4.55 28.8-4.55 28.8l-1.37 8.35 28.6 3.55 9.95-11.9c4.34-6.94 8.15-16.3 15.7-19.6 18.9-16.7 31.1-31 8.27-46.9-9.38-6.07-10.4-12.8-20.3-0.416z" fill="#38e3df"/>
  <path d="m195-13 28 5.11-0.229 7.92s0.199 4.56-0.196 6.79c-2.44 13.8-0.613 33.9-13.3 39.9-2.51 1.19-7.78-2.98-7.78-2.98s-25.4-13.7-34.1-27.6c-3.63-5.8 12.4-16 12.4-16z" fill="#550029"/>
  <path d="m-18 59.4 18-9.57s8.3-4.69 12-3.48c13.8 4.47 20.4 10.5 35.1 19.7 8.57 5.39-10.4 42.9-10.4 42.9l-1.82 1.62-11.2-7.47-23.7-24.9z" fill="#001c34"/>
  <path d="m460 86.8c0.939-6.35 5.89-11.8 10.8-16 3.07-2.65 6.95-5.66 11-5.22 12.7 1.38 30.2 23.4 30.2 23.4l12.5 9.69 6.92 22.9-19.4-1.67s-21.4-0.126-31.6-2.72c-8.2-2.08-23.7-14-23.7-14" fill="#e31caf"/>
  <path d="m86.9-50 14.6-13.7 19.3 17.6 5.01 36.9-4.68 9.17s-2.9 9.81-8.55 11.1c-8.29 1.88-19.6-11.1-19.6-11.1l-12.5-9.53z" fill="#1ce39d"/>
  <path d="m361-16.4 23.1 4.88 13.1 13.8s-3.66 20.2-11.2 25.7c-5.17 3.77-12.7 2.54-19.1 1.93-12.8-1.22-17.3-6.79-37-11.1-8.37-1.81 14.1-18.8 14.1-18.8z" fill="#aa0016"/>
  <path d="m499 126c4.55-0.174 13.2 3.6 13.2 3.6l15 4.11-15 16s-7.05 7.98-10.9 11.6c-8.04 7.48-4.38 19-15.3 19.6-5 0.258-24.6-10.5-25.8-18.4-3.42-21.5-3.38-22-1.26-42.2 1.3-12.4 26.2 6.27 40.2 5.73z" fill="#e3388e"/>
  <path d="m144-36 38.5 18.1-15 17.9s-5.16 9.94-9.94 11.9c-8.38 3.43-21.3 5.02-27-2.66-1.69-2.26-0.191-9.23-0.191-9.23l5.04-30.8z" fill="#38e3df"/>
  <path d="m393 31.5c-1.84-5.99 0.706-12.3 5.33-18 4.14-5.15 19-13.4 19-13.4l11.1-7.05 31.9 48.6s7.35 23.5-0.753 28.4c-13.5 8.16-27.1-11.1-42.5-20.9-6.34-4.01-17.8 2.87-24.1-17.6z" fill="#c700b4"/>
  <path d="m-54.2 475 39.9 3.59 31.6 25.6 4.85 5.94-17.3 17.4-55.1-29.8z" fill="#e3e3c9"/>
  <path d="m238-35.6 35.3-15.2 27 15.5 0.782 35.2 0.202 9.07s0.0451 10.8-3.41 10c-16.7-3.65-57.4-17.8-57.4-17.8l-11.1-12z" fill="#71e3d0"/>
  <path d="m29.9 0.189 0.149-0.189 2.32-2.94 20.7-20 11.7 3.96 16.6 19s16.1 13.3 28.7 20.6c3.23 1.88-16 17.1-21.6 19-5.9 2.04-18.5-2.66-18.5-2.66z" fill="#1c0024"/>
  <path d="m-32.7 343 10.8-5.21 21.9 33.9s9.21 15 14.3 22.1c4.09 5.74 16.4 11.2 13 16.7-3.57 5.71-27.3 4.7-27.3 4.7l-40.3 6.18-12.9 1.37 13.5-62.4z" fill="#e3aac9"/>
  <path d="m84.9 461c4.48-4.93 9.91-12.5 16.6-12.6 8.71-0.061 19.3 17.6 19.3 17.6s11 14.7 11 23.3c0.0166 8.4-10.7 22.8-10.7 22.8l-7.9 15.5-20.3-15.5s-24.2-13.9-24.8-25.9c-0.531-10.2 9.9-17.8 16.8-25.3z" fill="#1ce39d"/>
  <path d="m-54.2-37.1 39.9 3.59 31.6 25.6 4.85 5.94-17.3 17.4-55.1-29.8z" fill="#e3e3c9"/>
  <path d="m271 15.1c8.91 3.09 30.9 7.69 24.3 14.5-16.1 16.7-20.8 36.5-39 39.3-13.2 2.06-39.7-5.87-35.5-18.4 2.81-8.42-1.18-25 5.42-42.3 4.99-13 30.7 1.96 44.8 6.86z" fill="#710098"/>
  <path d="m500 61.2c1.09-6.72 12.1-11.3 12.1-11.3l10.4-5.52 33.8 35.2-7.42 29.5-1.82 1.62-11.2-7.47-23.7-24.9s-13.5-8.53-12.1-17.1z" fill="#001c34"/>
  <path d="m-52.4 429 52.4-6.99s11.2-1.71 18.6-2.48c2.63-0.272 5.05 2.75 5.98 5.23 2.44 6.52 0.222 12.8-2.83 20.7-3.73 9.68-21.8 22.3-21.8 22.3l-5.6 5.73-46.2-7.54-1.61-33.9z" fill="#e3c7ec"/>
  <path d="m29.9 512 0.149-0.189 2.32-2.94s13.9-14.3 20.7-20c1.89-1.6 3.84-3.89 7.25-1.61 6.99 4.68 21 24.6 21 24.6l22.1 25.3-6 9.46-27.5 2.24z" fill="#1c0024"/>
  <path d="m319 103q2.17 0.729 6.1 7.18 0.136 0.224-50.6 37.4-1.76 1.29-23.2-16.9-0.744-0.631 5.12-47.1 0.204-1.61 62.6 19.4z" fill="#711cea"/>
  <path d="m50.7 114c-5.4 0.0103-8.26 0.175-8.58 0.492-0.557 0.557 6.19 9.85 20.2 27.9 12.2 15.6 17.2 19.6 27.7 27.1 12.3 8.73 36.9 20.7 40.6 20.1 28.2-4.94 39.1 0.456 41.5-13.9 2.64-15.6-8.01-46.8-11.6-47.2-8.71-5.07-31.6-7.56-47.6-10.1-12.7-1.99-14.5-3.24-38.4-3.92-10.5-0.297-18.4-0.44-23.8-0.43z" fill="#2a3831"/>
  <path d="m146 402c18.6 0.884 20.7 9.7 27.3 23.9 4.21 9.08-6.72 21.4-18.3 33-7.44 7.44-12.9 11.6-16.4 12.4-2.24 0.53-9.36-4.98-21.4-16.5-7.68-7.39-8.92-20.1-3.72-38.1 3.33-11.5 2.05-22.1 32.6-14.7z" fill="#38c798"/>
  <path d="m63.9 60.2q12.4-12.4 25.1-16 12.9-3.63 18.1 4.78 5.29 8.59 4.37 34.3-0.945 26.2-34.3 25.3-34-0.963-29.8-18.4 4.34-17.8 16.5-30z" fill="#1c1cbe"/>
  <path d="m361 108c15.2-2.81 20.7-11.4 27.5-6.99 7.71 4.94 14.2 20.1 11.6 37.3-3.01 19.3-6.64 30.4-10.9 33.3-4.79 3.26-10.6 4.62-17.3 4.09-7.62-0.599-14.3-10.1-20-28.4-6.46-20.6-23.7-33.2 9.2-39.3z" fill="#aa3878"/>
  <path d="m121 341q9.27-11.6 17.3-10.5 36 4.69 39.4 7.59 15.3 13.1 15.3 14.4-0.06 6.25-1.28 10.2-5.5 17.8-10.7 21-23.5 14.6-30.4 13.3-30.9-5.83-32.3-9.29-6.55-15.5-5.24-20.7 5.9-23.4 7.96-26z" fill="#38aa36"/>
  <path d="m40.5 122c-1.92-1.41-4.36-3.03-6.69-2.51-5.5 1.23-14.3 7.11-17.2 11.9-3.81 6.26-0.114 10.5-1.51 17.6-1.26 6.46-15 14.6-15 14.6l-20.6 15.4 42.8 27.2c20.9 1.99 16.3-2.24 22.9-6.75 12.5-8.61 37.4-24.6 27.7-36.2-12.4-14.8-18.2-31-32.3-41.4z" fill="#005528"/>
  <path d="m332 115c-3.07 0.0328-14.3 7.13-33.6 21.3-14.4 10.5-25.9 14.5-24.4 18.1 0.964 2.4-1.93 17.4-3.98 22.8-3.11 8.17 5.87 12.6 13.6 25.6 3.12 5.28 25.7 3.32 37.5-0.818 12.4-4.35 26.8-11.6 31.3-23.9 4.36-11.8-0.627-13.9-7.81-36.9-5.01-16-9.03-24.7-12.1-26.1-0.132-0.0606-0.3-0.0901-0.504-0.0879z" fill="#8e475d"/>
  <path d="m161 190c8.34-1.46 6.83-0.691 15.1-0.091s33.4-12.2 34.2 5.21c0.28 6.08-21.6 20.6-52.6 29.7-10.8 3.18-42.9 3.48-44.1-3.83s7.1-11.6 10.8-20.4c3.71-8.84 12.7-6.38 36.5-10.6z" fill="#3855b6"/>
  <path d="m259 297q8.72-4.02 10.6-3.58 3.3 0.757 8.05 26.5 8.29 44.9 6.2 48.7-3.65 6.55-23-6.22-33.8-22.3-24-37.1 17.1-25.9 22.1-28.2z" fill="#718e60"/>
  <path d="m71.2 329c30.9-0.862 46.7 5.81 46.3 7.48-4.39 17.4-14.6 35.7-17.3 36-27.9 2.88-42.2 3.57-43.1 2.07-8.85-15.6-20.3-32.4-19-33.7 14.3-14.3 30.5-12.8 33-11.8z" fill="#1caaa8"/>
  <path d="m206 58.5c2.39-2.39 3.51-5.66 5.39-4.32 12.1 8.61 11 6.74 32.2 20.6 4.6 2.99 5.86 2.2 7.02 4.78 5.47 12.1-1.64 13.2-4.96 39.6-0.721 5.71 0.406 7.16-2.13 8.8-14.8 9.58-17.5-3.22-52.1-9.78-7.49-1.42-8.71-13.3-3.66-35.8 1.09-4.86 7.15-12.8 18.2-23.8z" fill="#551c55"/>
  <path d="m202 353q7e-3 -0.754 20.9-8.34 2.29-0.83 50.2 30.8 5.24 3.46 4.98 6.38-0.03 0.319-29.4 8.82-3.21 0.931-42.5-27.6-4.3-3.13-4.24-10z" fill="#71aadb"/>
  <path d="m415 53.6q40.4 25 38.1 33.6-4.26 16-18.3 17.4-26.2 2.6-33.8-2.29-14.2-9.11-11.9-27.6 4.24-34.5 25.9-21.1z" fill="#c71c5c"/>
  <path d="m238 138c5.87-2.08 11.8 5e-3 17.9 5.19 8.66 7.36 13.3 12.4 13.8 15.1 0.735 3.8 0.388 7.97-1.04 12.5-2.03 6.43-6.84 11.8-14.4 16.1-10.8 6.15-21.2 7.59-31.2 4.32-14.3-4.64-15.4-13.7-3.26-27 17.2-19 8.22-22.6 18.2-26.2z" fill="#71386b"/>
  <path d="m83.2 174c6.83-0.199 24.1 14.7 34.9 17.7 6.01 7.55-0.129 7.55-4.38 18.4-4.3 11-16.4 13.2-36.4 6.55-20.2-6.72-24.5-15.8-13-27.3 11.6-11.6 12.1-15.2 18.9-15.4z" fill="#1c557e"/>
  <path d="m235 295q13.9 3.08-5.37 32.2-7.66 11.6-24.3 17.6-6.61 2.4-20-9.02-5.33-4.54 9.07-36 5.73-12.5 40.6-4.8z" fill="#558eb0"/>
  <path d="m371 36.4q14.1-2 14.5-1 1.18 3.77-0.179 14.9-5.15 41.9-13.5 45.6-31.7 14.1-33.3 13.3-6.1-2.8-6.95-4.2-3.22-5.28-3.26-10.2-0.173-18.6 8.04-26.8 31-31 34.8-31.6z" fill="#aa1c5d"/>
  <path d="m176 124q1.48-1.56 48.4 7.35 16.1 3.06-16.6 39.2-11.2 12.4-21.9 13.6-3.67 0.398-6.27-1.71-0.891-0.724-6.14-40.3-1.8-13.6 2.5-18.1z" fill="#5538b7"/>
  <path d="m300 39.4c12.1 20.7 21.7 38.5 21.7 41.9 0.114 12.3-4.52 16.8-13.9 13.7-33.6-11.3-35.1-6.69-50.5-17.1-3.55-2.39 11-6.97 17-13 21.5-21.5 22.3-31.3 25.7-25.6z" fill="#8e1c3e"/>
  <path d="m170 399c13.5-8.41 22.7-9.31 27.6-2.71 11.7 15.9 17.4 25.9 17.1 30-0.629 9.77 1.74 22.2-5.28 21.9-17-0.849-29.2-16.8-32.3-23.6-7.63-16.4-12.7-22-7.09-25.5z" fill="#55c7a2"/>
  <path d="m152 70.1c19.7 4.93 28.2 13.4 24.9 27.9-2.87 12.8-5.33 20.2-7.38 22.4-1.8 1.91-9.94-0.256-25.7-1.94-13.9-1.48-32.4-5.27-34.3-7.47-10.3-8.27 7.76-7.89 8.42-26.3 0.584-16.2-7.09-30.7 34.1-14.6z" fill="#381c31"/>
  <path d="m428 110q21.7-2.16 24.4 2.25 3.1 5.19 1.04 26.9-2.43 25.5-25.4 26.4-27 0.981-23.1-24.1 4.6-29.5 23.1-31.4z" fill="#c73876"/>
  <path d="m194 379q5.29-17.1 14.6-10.3 34.3 24.9 28.8 30-20.1 18.7-25.4 11.5-19.5-26.6-18-31.2z" fill="#55aa8a"/>
 </g>
</svg>
