<?xml version="1.0" encoding="UTF-8"?>
<svg width="512px" height="512px" contentScriptType="text/ecmascript" contentStyleType="text/css" version="1.1" viewBox="0 0 512 512" xmlns="http://www.w3.org/2000/svg">
 <g class="voronoi" stroke-width=".5">
  <path d="m458-37.1 39.9 3.59 31.6 25.6 4.85 5.94-17.3 17.4-55.1-29.8z" fill="#e3e3c9"/>
  <path d="m361-16.4-35.5 34.2c-26.3 38.6-11.9 53.8 3.6 72.2 8.85 10.5 13.4 5.64 40.2 9.03 7.08 0.895 12.6-15.1 16.7-48 0.986-15.8 5.33-34.4 11.2-48.8l-13.1-13.8z" fill="#aa0016"/>
  <path d="m526 232 19.8-17.1 10.5 24.5 2.16 38.9-19.9 10.4-20.3-16.8z" fill="#007170"/>
  <path d="m27.8 417c22.4-2.62 43.2 15.4 66.7 29.2 6.34 3.74-26.9 14.2-40.4 21.5-15.9 8.69-37.1 33.3-46.9 18-7.76-12.1 10.6-23.9 14.4-36.3 5.15-11.1-2.65-31.4 6.22-32.4z" fill="#00c7e4"/>
  <path d="m460 429 71-9.47 2.17 0.445 0.978 25.5-21.8 22.3s-6.11 3.09-8.65 3.92c-14.8 4.88-43.2-5.73-43.2-5.73l-1.61-33.9z" fill="#e3c7ec"/>
  <path d="m445-14.3 30.2 14 0.43 0.334s32.5 12.4 34.6 26.9c0.941 6.64-5.66 13.6-11.8 16.3-5.68 2.45-18.4-2.4-18.4-2.4s-12-8.13-16.5-13.7c-6.27-7.9-13.6-27-13.6-27z" fill="#e3006f"/>
  <path d="m507 315 11.3-12.7 25.7-8.73 24.8 23-13 25.3-42-12.8-1.68-3.53z" fill="#008ebf"/>
  <path d="m465 483c9.04-9.85 32.4-4.73 32.4-4.73l31.6 25.6 4.85 5.94-17.3 17.4-28.7-15.5s-22.4-5.14-26.5-14.3c-2.01-4.53-1.65-8.77 3.56-14.4z" fill="#e3e3c9"/>
  <path d="m533 148 16.4 59.2-1.36 0.59-14-1.31-22.2-14.1s-8.62-4.19-8.93-12.3c-0.326-8.58 8.93-16.2 8.93-16.2z" fill="#005528"/>
  <path d="m-12.9 332 24.8 6.79s25.7-1.53 32.6 24.3c3.35 8.19-4.43 19.7-12.3 23.8-11 5.75-25.2-13.8-25.2-13.8l-7.06-14.6z" fill="#00aa73"/>
  <path d="m479 349c6.19-0.84 7.9 6.02 12 8.83 6.98 4.81 21.4 13.8 21.4 13.8l14.3 22.1 5.66 18.3-20 3.06s-27.8 7.74-40.4 2.84c-4.79-1.86-6.63-5.44-9.52-8.66-14.2-15.8 2.85-29.1 10.3-49 1.51-4.02 0.0647-10.4 6.24-11.3z" fill="#e3aac9"/>
  <path d="m141 479c14.9-0.512 52.5 11.4 42.5 17.4-6.68 4.02-16.2 15.6-16.2 15.6l-9.94 11.9-28.6-3.55 1.37-8.35s-0.581-13.4 1.61-19.5c1.83-5.13 5.87-13.3 9.25-13.5z" fill="#38e3df"/>
  <path d="m393 543 7.56-20.8 16.7-10.6s7.11-9.33 11.4-8.41c2.75 0.592 4.34 8.41 4.34 8.41l27.3 41.5-0.753 28.4-48.8-24.7z" fill="#c700b4"/>
  <path d="m463 44.9c17-9.23 48.9 44.2 48.9 44.2l12.5 9.69 6.92 22.9-19.4-1.67s-21-2.15-31.6-1.37c-6.5 0.481-13.2 6.03-19.1 3.17-10.8-5.26-13.6-25.9-14.9-32.7-0.785-5.93-11.3-28.6-9.46-33.7" fill="#e31caf"/>
  <path d="m500 344c0.548-5.03 12.2-9.02 12.2-9.02l12 3.27 32.6 24.3-4.04 26.2-33.4-16.2-7.06-14.6s-12.9-7.84-12.2-14z" fill="#00aa73"/>
  <path d="m452 506c6.73-2.1 23.9 5.97 23.9 5.97l0.43 0.334 34.6 26.9-11.8 16.3-19 15.6-19.3-29.5-10.2-29.3s-1.56-5.38 1.4-6.3z" fill="#e3006f"/>
  <path d="m499 126 28.2 7.71-26 27.6s-14.6 20.1-25.6 20.8c-8.53 0.531-19.4-9.16-21.7-13.6-6.36-12.2 0.362-24.1 10.5-36 9.08-10.7 34.6-6.48 34.6-6.48z" fill="#e3388e"/>
  <path d="m352 414c-14.9 7.27-13.8 43.9-11.3 66 0.749 6.4 1.2 16.8 7.56 17.8 8.21 1.36 40.1-4.36 40.1-4.36 6.36-0.692 7.66 12.5 14.2 13.7 11.9-7.34 29.8-8.65 40.5-19.5 4.82-4.93 8.5-18.9 8.5-18.9s-0.417-16-8.41-24.3c-6.77-6.99-13.6-8.95-21.2-11.5-13.4-4.46-29.8-0.803-41.8-6.2z" fill="#b4da5d"/>
  <path d="m396 27.6c-3.21-6.66 3.84-17 3.84-17l27.8-17.7 4.63 7.05s29.9 28.3 22.7 43.3c-10.8 11-34.8-2.16-46.9-6.48 0 0-9.74-4.17-12.2-9.2z" fill="#c700b4"/>
  <path d="m446 237c-0.284 1.8e-4 -0.566 0.0357-0.844 0.107-24.2 6.25-36.7 10-37.4 11.2-3.88 6.77-5.32 11.3-4.3 13.6 5.37 17.5 5.31 11 5.37 23.8 0.062 14 2.07 8.13-0.804 21.3-3.27 15.7-4.02 25.2-2.23 28.6 2.05 3.88 12.5 5.73 31.2 5.55 21.6-0.214 33.3-0.934 34.7-2.58 3.56-4.34 13-6.44 18.7-8.78l6.77-6.49c4.7-22.5-32.2-41.3-36.2-60.6 0.125-0.611 0.125-1.13-0.0215-1.54-5.7-16.1-10.7-24.1-15-24.1z" fill="#d08479"/>
  <path d="m-54.2 475 39.9 3.59 14.3 11.6s17.1 4.64 29.9 4.92c5.65 0.126-7.72 15.1-7.72 15.1l-17.3 17.4-55.1-29.8z" fill="#e3e3c9"/>
  <path d="m497 194c5.23 0.918 14.7 6.18 14.7 6.18l14.7 6.21-13 27.9-1.76-0.238s-14.4-0.951-20-4.89c-6.7-4.7-17.8-14.8-13.6-20.4 4.73-6.45 9.87-16.3 18.9-14.8z" fill="#e355c7"/>
  <path d="m-32.7 343 10.8-5.21 21.9 33.9s9.61 11.6 16.6 17c5.21 3.99 22 4.14 19.6 11.5-3.89 11.8-36.3 15.1-36.3 15.1l-40.3 6.18-12.9 1.37 13.5-62.4z" fill="#e3aac9"/>
  <path d="m75 471c3.12-5.9 16-18.6 27.7-18.4 8.71 0.133 18.1 13.2 18.1 13.2l5.01 36.9-12.6 24.7-32.7-25s-11.9-19.4-5.55-31.4z" fill="#1ce39d"/>
  <path d="m362 500c7.43-1.9 14.5-1.74 21.4 2.09 4.63 2.58 11.9 10.3 11.9 10.3l2.15 2.25-11.2 25.7-19.1 1.93-41.4-12 18.5-17.8s10.2-10.5 17.8-12.4z" fill="#aa0016"/>
  <path d="m494 59.4 28.4-15.1 33.8 35.2-7.42 29.5-1.82 1.62-11.2-7.47-23.7-24.9z" fill="#001c34"/>
  <path d="m460 233c3.44-4.56 10.8-4.61 17-2.25 16.8 6.42 34.9 41.6 34.9 41.6l0.733 1.03-0.733 5s-2.16 15.8-9.24 18.9c-9.68 4.11-19.7-14.4-19.7-14.4s-16.2-22.1-20.7-34.8c-1.69-4.77-5.23-11-2.19-15z" fill="#e37192"/>
  <path d="m-52.4 429 52.4-6.99c6.87-0.0632 7.08 4.14 13.9 5.54s6.97 8.35 3.92 16.3c-3.73 9.68-17.8 23.9-17.8 23.9l-5.6 5.73-46.2-7.54-1.61-33.9z" fill="#e3c7ec"/>
  <path d="m29.9 512 0.149-0.189s-0.0122-2.87 0.544-4.15c3.82-18.7 41.6-36.9 41.1-18-1.63 11.1 9.71 22.1 9.71 22.1l22.1 25.3-6 9.46-27.5 2.24z" fill="#1c0024"/>
  <path d="m328 101c-2.63 2.02-4.02 3.27-4.17 3.74h0.0293c-2.37 7.35-1.31 9.65-1.17 14.5 1.06 36.5-1.12 94 15.1 109 30.7 19.8 46.2 29.6 46.6 29.5 7.7-1.96 11.7-3.15 11.9-3.56 4.36-7.6 6.1-12.5 5.21-14.6-9.61-23.2-16.4-39.4-20.6-49-0.947-10.2-2.06-24.8-1.92-26.3 3.31-33.5 4.87-50.3 4.67-50.6-3.07-4.05-5.63-6.2-7.67-6.46-31.8-4.02-47.8-5.96-48-5.83z" fill="#aa47e5"/>
  <path d="m57.6 348c2.3-4.47 21.8-5.86 26.1-8.8 1.11-0.759 36.3-29 44.2-28 5.17 9.06 5.8 24.2 10.5 35.6 5.37 12.9 15.4 21.3 20.1 36.9 1.22 4.02-24 16.2-34.7 24.1-11.7 8.58-10.9 19.3-33.5 27.7-5.85 2.18-38.5-16.5-48.1-36.6 1.29-17.7 8.02-36.2 15.4-50.9z" fill="#38aac3"/>
  <path d="m442 346c-11.2 1.76-36.5 0.429-38 13-7.46 5.7-25.8 22.7-46.3 34.3-7.46 3.97 1.57 15.7 6.89 20.7 12.1 11.3 31.7 9.73 48.1 12.2 11.5 1.73 24.5 7.25 34.7 1.8 2.69-1.44 4.04-4.88 4.7-7.86 1.48-6.7-2.19-13.2-2.12-20.5 0.0376-3.7 1.75-8.51 4.54-14.2 11.7-23.8 5.9-39.6-12.5-39.4z" fill="#c7b912"/>
  <path d="m150 399c11.1-4.13 8.05 12.9 15.1 28 4.49 9.68 3.86 32.3-7.76 44-7.44 7.44-14.4 3.78-21.7 1.36-7.34-2.42-7-5.93-19-17.5-7.68-7.39-10.1-15.9-7.37-25.5 9.88-13.3 29.1-21.8 40.8-30.4z" fill="#38c798"/>
  <path d="m399 42.1c-8.06 0.602-9.09 17-11.8 38.9-0.189 21.3 3.01 41.6 0.967 61.5-1.6 16.4 9.2 24.1 32.6 23.3 19.8-0.7 30.6-9.6 32.2-26.6-0.996-16.7-11.2-36.3-14.3-55-5.06-30.3-16.2-43.5-39.6-42.1z" fill="#c72a31"/>
  <path d="m348 298c-6.12 22.2 4.03 42.9 5.13 62.4 0.8 18.9 8.93 24 24.4 15.3 11.5-6.53 19-13.8 22.6-21.9 2.42-5.43 1.35-30-0.521-37.5 4.98-9.16 7.33-33 3.8-41.6-11.9-19.4-49 5.45-55.4 23.3z" fill="#aa9c39"/>
  <path d="m179 288c-8.21-0.222-34.2 9.23-40.6 23.5-4.52 9.98 1.62 26.2 6.42 32.2 8.31 10.3 13.9 34.9 24.9 38.2 15.4 3.18 39.3 0.201 43.6-9.67 11.3-13.5 8.12-35.7 6.47-51.2-0.446-4.18-6.14-12.3-22.3-24.9-6.71-5.24-12.9-7.94-18.5-8.09z" fill="#559c8f"/>
  <path d="m390 168c6.96-6.96 7.62 5.6 29.1 4.82 21.7-0.787 34.9 1.5 39.6 6.87 4.74 5.43 5.62 14.4 2.63 26.8-3.02 12.6-5.19 19.6-6.5 20.9-1.33 1.33-9.13 3.84-23.4 7.52-14.4 3.72-25.9-4.81-34.6-25.6-0.875-5.58-16.7-31.4-6.85-41.3z" fill="#c7557e"/>
  <path d="m163 396c4.49-7.67 10.3-10.8 17.4-9.3 17.2 3.55 26.7 6.52 28.6 8.9 4.5 5.76 6.53 12.1 6.08 19-1.08 16.8-22 70.8-29 70.4-17-0.849-13.9-0.411-15.6-11.9s0.554-43.5-0.319-47.1z" fill="#55c74f"/>
  <path d="m330 234q3.07-4.21 42.6 21.4 8.84 5.71-19.9 26.5-6.42 4.64-31-22.9-5.49-6.14 8.25-25z" fill="#aa71c8"/>
 </g>
</svg>
