<?xml version="1.0" encoding="UTF-8"?>
<svg width="512px" height="512px" contentScriptType="text/ecmascript" contentStyleType="text/css" version="1.1" viewBox="0 0 512 512" xmlns="http://www.w3.org/2000/svg">
 <g class="voronoi" stroke-width=".5">
  <path d="m66.6 381c-5.67 0.6-15.6 8.03-29.9 22.3l-0.082-0.0391c-4.46 5.24-8.45 12-9.84 20.1s-2.2 15.1-5.1 23.5c-2.63 7.64-6.17 10.8-8.87 20.3-2.76 9.77-3.58 34.2 11.2 27.8 14.8-6.37 18.1-11.3 33.3-16.4 10.6-3.52 21.3-13.2 25.1-23.6 3.51-9.69 21.5-31 26.9-49.9 1.73-5.96 1.87-11.7 0.428-17.1-0.367-1.39-2.97-4.32-7.81-8.79-11.6-1.48-25.6 0.755-35.3 1.75z" fill="#0eced9"/>
  <path d="m15.5 336-15.5-0.633-12.9-3.52 12.9 26.5s6.32 10.8 10.8 13.7c14 9.06 43.7 8.59 43.7 8.59 2.11 1.2 32.5-3.06 40.9-14.9 4.89-6.84 10.8-6.7 0.471-25.2-14.5-26-53.4-8.54-80.5-4.62z" fill="#00aa73"/>
  <path d="m153 479c7.79 0.604 17.5 7.26 21.7 13.9 4.09 6.37-7.09 19-7.09 19l-9.94 11.9-28.6-3.55 1.37-8.35s-4.3-25.4 3.02-32.7c4.48-4.5 13.3-0.647 19.5-0.164z" fill="#38e3df"/>
  <path d="m187 445c6.83 0.688 12-3.7 20.4 3.08 6.26 6.21-1.91 21.6-8.45 27.5-6.54 5.91-8.03 18-18.3 12.5-9.58-5.09-20.6-9.34-19.9-20.2 0.825-12.3 6.09-19.2 14.2-23.5 3.58-1.9 8.11 0.208 12.1 0.614z" fill="#55e345"/>
  <path d="m-54.2 475 39.9 3.59 31.6 25.6 4.85 5.94-17.3 17.4-55.1-29.8z" fill="#e3e3c9"/>
  <path d="m-32.7 343 10.8-5.21 36.2 56 5.66 18.3-60.2 9.24-12.9 1.37 13.5-62.4z" fill="#e3aac9"/>
  <path d="m82.7 464c3.26-4.35 13.6-9.01 19-8.79 7.29 0.3 15 4.74 19.1 10.8 6.96 10.3 5.72 24.2 3.63 36.4-0.576 3.38-3.31 9.68-3.31 9.68l-7.9 15.5-20.3-15.5s-9.5-9.02-11.4-13.9c-5.07-12.7-6.08-24.5 1.23-34.2z" fill="#1ce39d"/>
  <path d="m-52.4 429 52.4-6.99s15.1-2.3 19.2 2.72c4.52 5.57 0.3 17.8-1.43 21.5l-17.8 21.5-5.6 5.73-46.2-7.54-1.61-33.9z" fill="#e3c7ec"/>
  <path d="m29.9 512 0.149-0.189 2.32-2.94s11.4-17.9 20.7-20c4.01-0.899 11.7 3.96 11.7 3.96l38.6 44.3-6 9.46-27.5 2.24z" fill="#1c0024"/>
  <path d="m123 380c34.5-21.3 44.4-19.9 59.4-13.1 15 6.77 4.96 21.3 3.01 22.8-16.5 12.1-26.2 17.6-29.1 16.7-24.4-8.2-36.7-12.7-36.9-13.4-1.62-6.11-0.407-10.4 3.64-12.9z" fill="#38aa24"/>
  <path d="m143 408q16 5.38 23.9 22.5 5.1 11-12.3 28.4-11.2 11.2-16.4 12.4-3.36 0.796-21.4-16.5-11.5-11.1-3.74-38 4.98-17.2 29.9-8.85z" fill="#38c798"/>
  <path d="m119 310c7.42-3.52 10.2-1.89 32.7-1.42 14 0.269 21.9 5.9 23.6 16.9 1.12 6.87 13.1 21.7 7.53 30.6-8.09 12.8-20.8-5.36-44.6 9.29-14.8 9.13-24.1 12-27.8 8.47-2.33-2.15-4.4-10.3-6.2-24.5-1.12-8.87-20.8-22.5-8.87-28.1z" fill="#388e9a"/>
  <path d="m173 405q19.6-14.3 26.6-10.7 16.8 8.8 16.1 19.9-1.72 26.7-12.3 26.2-25.4-1.27-29.3-9.52-9.24-19.9-1.12-25.9z" fill="#55c7d1"/>
  <path d="m458-37.1 39.9 3.59 31.6 25.6 4.85 5.94-17.3 17.4-55.1-29.8z" fill="#e3e3c9"/>
  <path d="m-13.2 126 28.2 7.71-26 27.6-25.6 20.8-12.6-8.24-3.62-33.7z" fill="#e3388e"/>
  <path d="m479 426c10.8-2.22 32.8-3.92 32.8-3.92l18.6-2.48 2.17 0.445 0.978 25.5-21.8 22.3s-5.73 3.85-8.26 4.73c-13.5 4.66-29.1 6.8-39.8-4.61-5.16-5.52-12.5-15.3-5.93-24.5 4.16-5.85 14.1-16 21.2-17.4z" fill="#e3c7ec"/>
  <path d="m18.6 10.9c-7.15 0.59-13.7 16.6-13.7 16.6l-4.93 22.4-18 9.57 41.8 43.7 11.2 7.47 1.82-1.62s19.4-32 19-49.7c-0.194-9.33-11.1-25.7-11.1-25.7s-14.6-23.7-26.1-22.7z" fill="#001c34"/>
  <path d="m445-14.3 30.2 14 0.43 0.334 34.6 26.9s-7.21 11.4-11.8 16.3c-5.62 5.96-10.9 16.8-19 15.6-11.6-1.79-14.1-18.9-19.3-29.5-4.56-9.27-10.2-29.3-10.2-29.3z" fill="#e3006f"/>
  <path d="m507 315 11.3-12.7 25.7-8.73 24.8 23-13 25.3-42-12.8-1.68-3.53z" fill="#008ebf"/>
  <path d="m470 488c5.6-7.2 18.2-2.53 27.3-1.7 4.89 0.449 14.3 3.58 14.3 3.58l17.3 14 4.85 5.94-17.3 17.4-28.7-15.5s-12.5-7.7-16-13.8c-1.69-2.94-3.96-7.32-1.88-9.99z" fill="#e3e3c9"/>
  <path d="m318-32.9 34.7 13.3-17.3 19.5s-12.9 18.1-22.7 22c-2.1 0.841-7.22 2.17-6.79-0.0588 1.65-8.66 2.72-21.9 2.72-21.9l1.18-28z" fill="#8ee3e0"/>
  <path d="m122 16.8c-5.37 2.31-9.9 7.58-11.6 13.2-5.08 16.9 7.78 37.2 7.3 52.6-0.633 17.5 7.48 28.6 24.3 33.1 19.2 5.13 30.4 0.192 33.8-14.8 1.83-19.8 21.1-40.7 12.9-59.1-6.57-14.7-42-23.9-42-23.9s-17.1-4.18-24.7-0.928z" fill="#380e9d"/>
  <path d="m-41.1 70.8 11-5.22 42.6 33.1 6.92 22.9-51-4.39-23.3-10.1 3-20.3z" fill="#e31caf"/>
  <path d="m533 148 16.4 59.2-1.36 0.59-14-1.31-22.2-14.1s-12.1-4.42-12.4-12.6c-0.326-8.58 12.4-16 12.4-16z" fill="#005528"/>
  <path d="m485 341c13 3.63 27.4 31.5 27.4 31.5l14.3 22.1 5.66 18.3-20 3.06-26.4 4.52s-18.3 0.607-21.2-2.61c-14.2-15.8 7.98-56.7 7.98-56.7 2.8-5.92 6-21.6 12.2-20.1z" fill="#e3aac9"/>
  <path d="m393 543 7.56-20.8 27.8-17.7 31.9 48.6-0.753 28.4-48.8-24.7z" fill="#c700b4"/>
  <path d="m195-13 28 5.11-0.229 7.92-0.196 6.79s-0.287 34.6-13.3 39.9c-9.27 3.75-39.5-26.4-41.9-31.7-2.86-6.21 12.3-15 12.3-15z" fill="#550029"/>
  <path d="m471 70.8c4.74-3.55 9.83-7.34 16.9-5.37 10.6 2.96 24.2 23.6 24.2 23.6l12.5 9.69 6.92 22.9-51-4.39s-19.2-2.73-23.3-10.1c-3.32-5.98 3-20.3 3-20.3s5.62-12.1 10.8-16z" fill="#e31caf"/>
  <path d="m501 339c1.12-4.14 11-3.81 11-3.81l12 3.27 32.6 24.3-4.04 26.2-33.4-16.2-7.06-14.6s-12.8-12.5-11-19.2z" fill="#00aa73"/>
  <path d="m445 498c0.805-4.68 2.76-11.9 8.9-11.1 10.7 1.28 21.8 25.4 21.8 25.4l34.6 26.9-11.8 16.3-19 15.6-19.3-29.5s-6.78-19.5-10.2-29.3c-1.66-4.77-5.83-9.34-4.98-14.3z" fill="#e3006f"/>
  <path d="m86.9-50 14.6-13.7 19.3 17.6 5.01 36.9-4.68 9.17s-1.28 16.6-7.65 18c-8.88 2.02-20.5-18-20.5-18l-12.5-9.53z" fill="#1ce39d"/>
  <path d="m361-16.4-35.5 34.2 0.582 0.17c-5.24 6.19 0.919 46.1 1.04 58.5 0.0307 3.28-4.85 27.9 3.75 26.1 17-3.58 13.9-4.96 40.5-16.7 7.03-3.12 11.9-15.9 14.7-38.5-0.558-6.2-1.38-13.1-0.0293-19.5 1.86-8.72 11.3-15.5 10.9-24.4-0.0529-1.31-1.89-3.46-1.89-3.46l-11-11.5z" fill="#aa0016"/>
  <path d="m49.8 115c-5.15 0.0175-7.88 0.185-8.2 0.502 0 0-5.92 2-7.88 4.25-3.55 4.07-2.82 10.6-5.71 15.2-7.2 11.4-28.1 29-28.1 29l-20.6 15.4 42.8 27.2c22.7 14.4 36.9-9.93 39.1-13.5 12.4-19.7 18.8-16.2 36.4-28.6 1.75-1.28 3.74-10.1 5.98-26.5 1.96-14.4-8.44-21.9-31.2-22.5-9.98-0.282-17.5-0.416-22.7-0.398z" fill="#005528"/>
  <path d="m498 128c4.55-0.174 13.9 1.83 13.9 1.83l15 4.11-26 27.6s-14.6 20.2-25.6 20.8c-5 0.258-9.92-3.98-12.6-8.24-7.35-11.8-13.7-30.6-5.04-41.5 8.37-10.6 26.3-4 40.2-4.54z" fill="#e3388e"/>
  <path d="m144-36 38.5 18.1-15 17.9s-5.14 10-9.94 11.9c-8.93 3.52-22.8 4.14-28.6-3.55-1.69-2.26 1.37-8.35 1.37-8.35l5.04-30.8z" fill="#38e3df"/>
  <path d="m393 31.5c-2.05-7.1 7.56-20.8 7.56-20.8l27.8-17.7 31.9 48.6s7.38 23.6-0.753 28.4c-15.6 9.33-33.4-14.9-48.8-24.7-6.34-4.01-15.7-6.59-17.8-13.8z" fill="#c700b4"/>
  <path d="m459 238c-3.71 3.44-3.61 7.91-4.22 12.9-2.05 17-8.87 28.8-5.06 43.8 4.2 16.5 14.9 28.6 30 34 4.25 1.51 11.4 1.45 11.4 1.45l6.77-6.49s7.89-14.3 10.4-22.1c2.33-7.34 4.15-22.8 4.15-22.8l0.732-5-0.732-1.03s-12.5-24.3-24.3-30.8c-8.78-4.87-22.1-10.6-29.2-3.99z" fill="#e37192"/>
  <path d="m378 426c-9.33-0.533-8.43 13-6.4 17 6.57 11.9 8.92 18.4 10.5 24.9l6.53 27s7.83 12.1 14.2 13.2c12.1 2.16 34-14.2 34-14.2l6.21-6.11s7.1-12.1 8.5-18.9c2.34-11.2-1.25-31.9-11.9-34.4-7.4-1.78-14.3-0.808-21.4-1.95-19.4-4.99-30.9-6.01-40.3-6.55z" fill="#b9d514"/>
  <path d="m238-35.6 35.3-15.2 27 15.5 0.782 35.2s0.0764 7.32-2.49 9.18c-6.58 4.78-24.4-1.19-24.4-1.19s-17.6 1.83-25.6-1.02c-3.66-1.3-9.35-6.97-9.35-6.97l-9.91-10.7z" fill="#71e3d0"/>
  <path d="m29.9 0.189 0.149-0.189 2.32-2.94 20.7-20 11.7 3.96 16.6 19c6.91 10 31.4 24.5 16.1 34.8-7.88 4.76-19.7 16.4-30.6 13.6-19.6-4.98-37-48.2-37-48.2z" fill="#1c0024"/>
  <path d="m480 194c11.5-1.77 31.6 7.13 31.6 7.13l14.7 6.21-13 27.9-1.76-0.238s-31.2 4.16-41-5.55c-4.89-4.86-4.8-13.8-2.93-20.5 1.75-6.24 7.94-14.3 12.4-15z" fill="#e355c7"/>
  <path d="m363 496c7.56-2.18 20.9 4.44 20.9 4.44l13.1 13.8-11.2 25.7-19.1 1.93-41.4-12 18.5-17.8s11.6-13.9 19.2-16.1z" fill="#aa0016"/>
  <path d="m-54.2-37.1 39.9 3.59 31.6 25.6 4.85 5.94-1.93 1.95s-6.91 11.9-12.9 14c-2.35 0.814-7.36-1.17-7.36-1.17l-50.2-27.1z" fill="#e3e3c9"/>
  <path d="m271 16.4c-12.7-2.8-27.9-4.94-38.8 1.97-12 7.6-9.64 28.2-20.3 37.6-9.31 3.39-22.6 17.8-25 27.6-9.72 20.4 10.3 18.1 17.8 18.9 35.3-2.91 34.9 0.425 39.9-12.6 4.9-12.7 50.8-37.9 51.5-60.3-0.577-9.42-15.8-11.2-25-13.2z" fill="#630eb1"/>
  <path d="m501 61.8c1.09-6.72 10.6-12 10.6-12l10.4-5.52 33.8 35.2-7.42 29.5-1.82 1.62-11.2-7.47-23.7-24.9s-12-7.92-10.6-16.5z" fill="#001c34"/>
  <path d="m68.4 65.1c8.29-8.29 12.6-18 21-20.4 8.61-2.42 14.6-0.829 18.1 4.78 3.53 5.73 5 16.7 4.41 33-0.601 16.7 3.91 20.3-2.56 26.2-8.21 7.52-12.3 0.894-33.4 0.296-21.6-0.611-26.3-3.73-23.5-15.3 2.89-11.9 7.88-20.5 16-28.6z" fill="#1c1c40"/>
  <path d="m332 110q0.06-1.63 35.2-17.2 15.3-6.77 30 10.1 6.38 7.34-6.2 33.1-5.46 11.2-35.3 7.55-13-1.58-20.5-21.3-3.29-8.55-3.15-12.3z" fill="#aa3819"/>
  <path d="m176 173q1.03-1.9 40.4 3.14 12.7 1.63 19.9 10.3 2.31 2.81 3.16 25.6 0.274 7.35-5.49 13.1-1.86 1.85-42.7 3-13.2 0.369-18.4-4.87-1.68-1.69-0.436-34 0.402-10.4 3.61-16.3z" fill="#5555ba"/>
  <path d="m320 311q23.5-2.05 25.3-0.768 1.82 1.29 5.78 15.9 3.98 14.7-7.67 21.2-11.7 6.53-32.2 7.49-20.6 0.964-22-0.563-1.36-1.54 3-21.4 4.38-19.9 27.8-22z" fill="#8e8e7f"/>
  <path d="m454 416c1.27 0.96-4.85 11.7-5.83 11.7-21.7-0.86-33.3-1.46-34.7-1.8 0 0-44-5.27-47.7-11.4-3.87-6.38 17.7-62.1 29.4-48.3 17.7 20.9 34.7 38.1 58.9 49.8z" fill="#c7c7b9"/>
  <path d="m428 111q21.5-2.13 24.1 2.28 3.1 5.19 1.04 26.9-2.43 25.5-23.8 26.3-25.1 0.912-30.9-7.19-6.8-9.52 1.49-26.5 9.75-20 28-21.8z" fill="#c738b0"/>
  <path d="m296 214c1.09 2.51-14.4 4.4-46.4 5.69-2.86 0.115-4.63-9.05-5.32-27.5-0.0613-1.65 4.98-8.74 26.4-16.2 12.9-4.49 22.1 30.7 25.3 38z" fill="#715530"/>
  <path d="m389 294q14.2-6.98 18.2 32.9 1.59 15.7-13.1 26.6-5.77 4.27-9.95 4.83-1.65 0.221-17.1-12.3-6.08-4.94-11.8-26-2.25-8.31 33.7-26z" fill="#aa8e8e"/>
  <path d="m260 90.6c-12.3-0.2-19.1 14-15.7 23 0.224 0.588 9.2 10.4 9.56 10.6 7.92 4.47 10.3 8.39 12.5 10.8 4.8 5.19 5.7 20.5 14.2 24.6 13.5 6.43 16.3 1.18 44.2-6.89 6.83-1.97 10.9-4.22 12.2-6.75-5.37-13.3-10-33.9-13.2-37.9-13.5-17.7-49.9-17.3-64-17.4z" fill="#8e38f0"/>
  <path d="m132 173c34.4 6.17 32.5 8.25 32.4 11.9-0.953 24.8-3.46 37.6-7.53 38.4-16 1.03-41 17.5-45.7-1.84-7.67-32.4-19.2-39.5-6.9-51.9 6.55-6.6 23.3 2.6 27.7 3.44z" fill="#3855e0"/>
  <path d="m446 237c4.36-1.13-0.653 9.56-1.72 26.7 1.16 27.1-18.2 24.5-31 17.3-2.94-1.32-4-11.2-3.19-29.7 0.149-3.4 12.1-8.16 35.9-14.3z" fill="#c7710a"/>
  <path d="m340 154c-6.45 21.6-4.44 45-3.22 67.4 1.05 19.4 5.85 37.5 9.04 57.5 0.865 5.38 5.22 14.6 11.7 16.8 15.3 5.06 27.8-1.85 45.8-15.3-2.34-35 10.6-85.8-5.66-108 0.0713-0.252-6.19-14.1-12.4-17.9-16.1-1.94-40-17-45.3-0.5z" fill="#aa63a2"/>
  <path d="m355 348c-3.28 0.0634-5.92 3.53-8.72 4.41l-21.9 6.92c-24.4 7.72-21.7-1.36-29.5 3.37-15.1 9.14-7.89 27.7-2.04 40.4 13.2 14.5 36.7 6.17 53.8 4.84 9.29-0.509 15.1-1.45 17.4-7.13 10.1-24.7 14.1-39 10.7-41.4-5.69-4-12.8-11.3-19.7-11.4z" fill="#8eaaf8"/>
  <path d="m412 58.2c26.9 16.6 42.8 23 41.3 28.8-2.84 10.7-8.89 16.5-18.1 17.4-17.2 1.71-28.3-0.253-33.2-5.9-9.14-10.5-13.1-20.7-11.9-30.7 2.28-18.5 7.46-18.5 21.9-9.6z" fill="#c71c5c"/>
  <path d="m269 147c3.77 8.6 5.75 16.6 2.18 23.6-1.91 3.78-6.88 5.16-10.9 6.54-6.7 2.32-17.9 6.64-21.1 2.67-3.05-3.71-5.56-16.1-0.319-31.1 4.9-14-9.04-22.9 2.66-27.3 5.49-2.06 25.1 20.6 27.5 25.5z" fill="#7138a4"/>
  <path d="m83.7 177c4.65-1.28 12.6 5.39 16.9 23.9 4.44 18.7-1.89 24.5-23.9 19.9-21.6-4.47-25.2-11.9-13.7-23.4 9.03-10.7 9.36-17.2 20.7-20.4z" fill="#1c5520"/>
  <path d="m309 413c4.62-1.38-0.845 0.0735 14.4-1.14 13.6 1.15 28.4-5.64 33.7 5.72 5.74 24 23.3 52.7 4.41 70.6-6.05 6.05-21.7 21.7-26 22.3-1.39 0.197-11.5-42.7-24.1-53.1-9.66-10.7-16.6-8.21-13.6-31.4 1.71-13.3 6.62-11.6 11.2-13z" fill="#8ec7ba"/>
  <path d="m205 106c17-1.41 19.5-4.47 26.4-0.614 5.67 3.19 2.57 40.1-0.542 49-7.03 20.1-6.5 18-17.1 16.6-24.1-3.09-35.9-7.93-35.4-14.5 1.06-15-5.9-49.3 7.23-50.4z" fill="#553880"/>
  <path d="m331 230c12.3 5.58 3.37 18.4 9.23 54.9 1.77 11.1-9.33 17.6-33.3 19.7-7.27 0.633-14.9-4.3-23-14.8-2.44-3.19 6.09-18.7 25.6-46.6 5.04-5.08 9.2-18.8 21.5-13.2z" fill="#8e71bc"/>
  <path d="m405 353c6.19-4.58 19.4-6.96 39.6-7.16 16.9-0.166 15.9 11 9.9 38.5-4.99 22.9-11.9 26-33.5 4.16-18.1-18.2-23.4-30-16-35.5z" fill="#c7aa35"/>
  <path d="m302 163c21.4-6.18 31.3-0.48 29.8 17.1-2.37 28.1-4.98 42.2-7.84 42.5-4.56 0.487-8.86-0.23-12.9-2.15-6.45-3.06-12.2-10.5-17.3-22.3-14-29.9-17-27.8 8.24-35.2z" fill="#8e5520"/>
  <path d="m424 292c8.8 3.95 19.8 12.8 33.1 26.4 11.5 11.8 16.4 18.6 14.7 20.3-1.51 1.51-12.2 2.36-32 2.55-17.2 0.171-26.8-9.66-28.9-29.5-2.63-26.7-7.55-29 13.1-19.8z" fill="#c78e87"/>
  <path d="m316 30.8c5.44 23.8 5.95 47 5.99 50.5 0.114 12.3-3.11 15-12.5 11.9-33.6-11.3-48.9-4.04-50.1-10.6-1.25-6.37 6.25-7.63 12.2-13.6 21.5-21.5 41.1-43.9 44.4-38.1z" fill="#8e1c3e"/>
  <path d="m115 115c5.69-4.06 8.37 0.103 20.7 3.41 23.7 6.33 28.5 1.13 36.2 11.1 2.88 3.72 1.18 6.69 0.65 14.1-1 14.2 2.88 18.4-2.96 23.9-5.62 5.29-9.55 3.9-23.1 1.47-26-4.66-38.3-12.3-36.8-22.8 1.35-11.8-3.27-25.1 5.31-31.2z" fill="#383890"/>
  <path d="m428 173c15.6-0.565 25.7 1.84 30.4 7.2 4.74 5.43 5.62 14.4 2.63 26.8-3.02 12.6-5.19 19.5-6.5 20.9-1.33 1.33-9 3.8-23 7.41-8.1 2.29-11.2 1.27-15.7-1.48-6.61-5.4-7.35-16.9-2.6-33.8 4.8-17-0.533-26.5 14.9-27.1z" fill="#c7558c"/>
  <path d="m241 229q5.31-5.29 21.2-5.92 36.5-1.46 41.2 0.802 11 5.2-0.586 21.7-26.6 38-32.8 37.1-14.3-2.23-19.5-17.1-11.8-34.3-9.52-36.5z" fill="#717152"/>
 </g>
</svg>
