<?xml version="1.0" encoding="UTF-8"?>
<svg width="512px" height="512px" contentScriptType="text/ecmascript" contentStyleType="text/css" version="1.1" viewBox="0 0 512 512" xmlns="http://www.w3.org/2000/svg">
 <g class="voronoi" stroke-width=".5">
  <path d="m458-37.1 39.9 3.59 31.6 25.6 4.85 5.94-17.3 17.4-55.1-29.8z" fill="#e3e3c9"/>
  <path d="m361-16.4-35.5 34.2-19.7 3.72c-6.92 1.31-2.06 10.6-0.969 16.9l25.1 42.4c-0.581 2.81-0.863 5.86-0.832 9.16 0.024 2.63 13.4 5.64 40.2 9.03 7.08 0.895 12.6-15.1 16.7-48 0.986-15.8 5.33-34.4 11.2-48.8l-13.1-13.8z" fill="#aa0016"/>
  <path d="m-13.2 126 13.2 3.6s4.9 1.36 6.31 6.37c1.98 7.04-6.31 13.7-6.31 13.7l-10.9 11.6-25.6 20.8-12.6-8.24-3.62-33.7z" fill="#e3388e"/>
  <path d="m526 232 19.8-17.1 10.5 24.5 2.16 38.9-19.9 10.4-20.3-16.8z" fill="#007170"/>
  <path d="m84.7 339c-9.48 0.865-20.4 2.28-27.1 8.98-11.4 11.3-9.29 31.1-15.6 45.5-4.41 10.1-15.7 46-20.4 56.2-3.8 12.4-22.2 24.2-14.4 36.3 9.8 15.3 43.7-7.95 59.6-16.6 11.8-6.38 22-27.5 32.8-38.1 10.9-10.8 14.4-16.2 24.2-23.4 10.7-7.9 27.4-12.9 30.1-25.8 2.73-12.9-5.08-26.9-17.1-35.8-14.5-3.3-34.6-8.81-52.1-7.22z" fill="#e3c715"/>
  <path d="m460 429 71-9.47 2.17 0.445 0.978 25.5-21.8 22.3s-6.11 3.09-8.65 3.92c-14.8 4.88-31.3 5.91-43.7-3.74-9.87-7.69-15.9-19.6-11.2-31.3 1.68-4.2 11.2-7.69 11.2-7.69z" fill="#e3c7ec"/>
  <path d="m320 479c11-0.298 23.8 3.26 26.7 15.3 2.07 8.44-11.7 17.5-11.7 17.5l-13.1 14.8-14.4 1.9 0.707-16.7s0.0833-20.3 5.31-28c2.17-3.2 3.28-4.62 6.44-4.7z" fill="#8ee3e0"/>
  <path d="m53.1-22.9-20.7 20-2.32 2.94-0.148 0.189 0.0293-0.0195c-15.5 13.4-22.7 7.59-25 27.3h0.0801c-0.1 8.1 8.43 14.4 15 19.1 10.3 7.35 24.6 20.1 34.8 12.6 10.4-13.3 33-18.8 40.1-27 3.62-4.15-0.904-9.72-1.19-13.4-0.9-11.2-12.3-18.7-12.3-18.7l-16.6-19z" fill="#1c0024"/>
  <path d="m445-14.3 30.2 14 0.43 0.334s32.5 12.4 34.6 26.9c0.941 6.64-5.66 13.6-11.8 16.3-5.68 2.45-18.4-2.4-18.4-2.4s-12-8.13-16.5-13.7c-6.27-7.9-13.6-27-13.6-27z" fill="#e3006f"/>
  <path d="m507 315 11.3-12.7 25.7-8.73 24.8 23-13 25.3-42-12.8-1.68-3.53z" fill="#008ebf"/>
  <path d="m454 475c12.2 0.195 43.1 2.79 43.1 2.79l31.6 25.6 4.85 5.94-17.3 17.4-28.7-15.5s-31.8-5.83-35.9-15c-1.56-7 7e-3 -14.9 2.4-21.2z" fill="#e3e3c9"/>
  <path d="m318-32.9 34.7 13.3-30.4 34.4s-7.41 2.33-11-0.928c-4.12-3.77-2.68-13.9-2.68-13.9l1.18-28z" fill="#8ee3e0"/>
  <path d="m122 16.8c-5.37 2.31-11.6 13.2-11.6 13.2-14.7 12.4-35 18.6-46.8 30.1-8.12 8.12-13.6 18.1-16.5 30-2.83 11.6 7.1 17.7 29.8 18.4 8.98 0.254 15.7-2.4 21.6-3.68 17.6-3.79 18.6 9.15 28.3 12.6 4.85 1.7 3.24 3.75 14.9 3.9 13.3 0.175 21.7-0.851 25.2-3.08 3.97-2.53 7.3-9.76 9.98-21.7 1.69-18.2 28.1-45.5 11.8-54.8 0 0-26.5-19.5-42-23.9-7.91-2.26-17.1-4.18-24.7-0.928z" fill="#2f1393"/>
  <path d="m-41.1 70.8 11-5.22 42.6 33.1s7.44 9.21 2.41 15.4c-4.09 5.03-14.9 5.82-14.9 5.82l-31.6-2.72-23.3-10.1 3-20.3z" fill="#e31caf"/>
  <path d="m533 148 16.4 59.2-1.36 0.59-14-1.31-22.2-14.1s-8.62-4.19-8.93-12.3c-0.326-8.58 8.93-16.2 8.93-16.2z" fill="#005528"/>
  <path d="m-12.9 332 24.8 6.79s32.8-5.53 38 6.97c3.35 8.19-9.86 37-17.7 41.1-11 5.75-25.2-13.8-25.2-13.8l-7.06-14.6z" fill="#00aa73"/>
  <path d="m410 348c-3.6 9.74 16.6 28.9 23.9 38 9.81 9.9 12.7 13.6 18.2 21.1 3.72 5.08 7.46 15.7 9.92 16.1 15.6 2.43 32.1-3.06 50.4-7.98l20-3.06-5.66-18.3-14.3-22.1s-14.4-8.99-21.4-13.8c-9.12-8.64-10.5-9.03-22.3-8.98-8.18 1.2-55.5-7.59-58.9-0.943z" fill="#e3aac9"/>
  <path d="m186 467c12.1 10.9-18.3 45.2-18.3 45.2l-9.94 11.9-28.6-3.55 1.37-8.35s6.41-16.5 12.6-22.5c11.6-11.3 30.9-33.5 42.9-22.7z" fill="#38e3df"/>
  <path d="m393 543 7.56-20.8 16.7-10.6s7.11-9.33 11.4-8.41c2.75 0.592 4.34 8.41 4.34 8.41l27.3 41.5-0.753 28.4-48.8-24.7z" fill="#c700b4"/>
  <path d="m195-13 28 5.11-0.229 7.92-0.196 6.79s3.58 28.6-9.08 34.5c-2.51 1.19-12 2.35-12 2.35s-31.8-10.1-32-26.1c-0.0844-6.84 10.2-17.5 10.2-17.5z" fill="#550029"/>
  <path d="m-18 59.4 18-9.57s8-3.51 11.9-2.89c25.8 7.21 45.6 43.5 23 63.7l-11.2-7.47-23.7-24.9z" fill="#001c34"/>
  <path d="m449 72.4c1.39-5.67-0.0355-13.4 5.77-16.5 17-9.23 57.4 33.2 57.4 33.2l12.5 9.69 6.92 22.9-19.4-1.67s-21-2.15-31.6-1.37c-6.5 0.481-13.2 6.03-19.1 3.17-10.8-5.26-13.6-25.9-14.9-32.7-1.08-5.49 1.08-11.2 2.41-16.6z" fill="#e31caf"/>
  <path d="m500 344c0.548-5.03 12.2-9.02 12.2-9.02l12 3.27 32.6 24.3-4.04 26.2-33.4-16.2-7.06-14.6s-12.9-7.84-12.2-14z" fill="#00aa73"/>
  <path d="m452 506c6.73-2.1 23.9 5.97 23.9 5.97l0.43 0.334 34.6 26.9-11.8 16.3-19 15.6-19.3-29.5-10.2-29.3s-1.56-5.38 1.4-6.3z" fill="#e3006f"/>
  <path d="m86.9-50 14.6-13.7 19.3 17.6 5.01 36.9-4.68 9.17s-6.22 11.1-11.7 11.6c-6.69 0.567-16.5-11.6-16.5-11.6l-12.5-9.53z" fill="#1ce39d"/>
  <path d="m16.4 129c-2.99 10.2-16.4 33.9-16.4 33.9l-20.6 15.4 42.8 27.2s21.4-5.72 25.7-7.45c5.38-2.13 6.59-3.72 12.4-9.76 10.9-10.6 21-15 15.7-22.6-13-18.5-39.2-48.1-39.2-48.1-15.1-10.2-18.1 3.56-20.4 11.4z" fill="#005528"/>
  <path d="m499 126 28.2 7.71-26 27.6s-14.6 20.1-25.6 20.8c-8.53 0.531-19.4-9.16-21.7-13.6-6.36-12.2 0.362-24.1 10.5-36 9.08-10.7 34.6-6.48 34.6-6.48z" fill="#e3388e"/>
  <path d="m372 427c-14.9 7.27-46.5 42.6-31 53.2l10.8 7.36 36.9 6.08c3.11 5.59 7.66 12.5 14.2 13.7 11.9-7.34 33.4-2.8 44.1-13.7 4.82-4.93 4.87-24.7 4.87-24.7s-7.32-25.9-15.3-34.2c-6.77-6.99-35.3-6.14-35.3-6.14-8.96-1.14-8.55-4.48-29.2-1.7z" fill="#b4da5d"/>
  <path d="m144-36 38.5 18.1-15 17.9s-5.14 10-9.94 11.9c-8.93 3.52-20.2 4.56-25.9-3.13-1.69-2.26-1.28-8.77-1.28-8.77l5.04-30.8z" fill="#38e3df"/>
  <path d="m396 27.6c-3.21-6.66 3.84-17 3.84-17l27.8-17.7 4.63 7.05s29.9 28.3 22.7 43.3c-10.8 11-34.8-2.16-46.9-6.48 0 0-9.74-4.17-12.2-9.2z" fill="#c700b4"/>
  <path d="m446 237c-0.284 1.8e-4 -0.566 0.0357-0.844 0.107-24.2 6.25-36.7 10-37.4 11.2-3.88 6.77-5.32 11.3-4.3 13.6 5.37 17.5 5.31 11 5.37 23.8 0.062 14 2.07 8.13-0.804 21.3-3.27 15.7-4.02 25.2-2.23 28.6 2.05 3.88 12.5 5.73 31.2 5.55 21.6-0.214 33.3-0.934 34.7-2.58 3.56-4.34 13-6.44 18.7-8.78l6.77-6.49c4.7-22.5-32.2-41.3-36.2-60.6 0.125-0.611 0.125-1.13-0.0215-1.54-5.7-16.1-10.7-24.1-15-24.1z" fill="#d08479"/>
  <path d="m-54.2 475 39.9 3.59 14.3 11.6s21.2 8.4 29.9 4.92c5.24-2.08-7.72 15.1-7.72 15.1l-17.3 17.4-55.1-29.8z" fill="#e3e3c9"/>
  <path d="m238-35.6 35.3-15.2 27 15.5 0.782 35.2s0.57 6.81-1.12 9.32c-2.85 4.24-9.84 3.62-13 5.22-17.8 9.1-46.5-13.2-46.5-13.2l-11.1-12z" fill="#71e3d0"/>
  <path d="m497 194c5.23 0.918 14.7 6.18 14.7 6.18l14.7 6.21-13 27.9-1.76-0.238s-14.4-0.951-20-4.89c-6.7-4.7-17.8-14.8-13.6-20.4 4.73-6.45 9.87-16.3 18.9-14.8z" fill="#e355c7"/>
  <path d="m-32.7 343 10.8-5.21 21.9 33.9s9.61 11.6 16.6 17c5.21 3.99 13.3 4.33 10.9 11.7-3.89 11.8-27.6 14.9-27.6 14.9l-40.3 6.18-12.9 1.37 13.5-62.4z" fill="#e3aac9"/>
  <path d="m158 395c-28.3 7.28-49 31.8-63.9 55.9-9.38 15.1-13.8 51.4-13.8 51.4l32.7 25 12.6-24.7c9.17-11.3 38.1-36.8 47.6-46.2 11.6-11.7-3.27-28.2-7.76-37.9-5.47-11.8 0.506-23.4-7.48-23.4z" fill="#1ce39d"/>
  <path d="m362 500c7.43-1.9 14.5-1.74 21.4 2.09 4.63 2.58 11.9 10.3 11.9 10.3l2.15 2.25-11.2 25.7-19.1 1.93-41.4-12 18.5-17.8s10.2-10.5 17.8-12.4z" fill="#aa0016"/>
  <path d="m-54.2-37.1 39.9 3.59 31.6 25.6 4.85 5.94-17.3 17.4-55.1-29.8z" fill="#e3e3c9"/>
  <path d="m269 19.4c9.26 1.81 24.6 3.68 26.9 13 2.95 12.4-27.1 23.1-27.1 23.1s-20.2 18.7-29.8 9.56c-10.9-10.3-18.1-41.6-10.1-51.4 9.44-11.5 24.8 2.81 40.1 5.81z" fill="#710098"/>
  <path d="m494 59.4 28.4-15.1 33.8 35.2-7.42 29.5-1.82 1.62-11.2-7.47-23.7-24.9z" fill="#001c34"/>
  <path d="m460 233c3.44-4.56 10.8-4.61 17-2.25 16.8 6.42 34.9 41.6 34.9 41.6l0.733 1.03-0.733 5s-2.16 15.8-9.24 18.9c-9.68 4.11-19.7-14.4-19.7-14.4s-16.2-22.1-20.7-34.8c-1.69-4.77-5.23-11-2.19-15z" fill="#e37192"/>
  <path d="m-52.4 429 52.4-6.99c6.87-0.0632 21.8-13 28.6-11.6s-7.76 25.5-10.8 33.5c-3.73 9.68-17.8 23.9-17.8 23.9l-5.6 5.73-46.2-7.54-1.61-33.9z" fill="#e3c7ec"/>
  <path d="m29.9 512 0.149-0.189s-0.0122-2.87 0.544-4.15c4.55-10.5 10.8-23.4 21.8-26.4 6.77-1.84 19.9 4.37 19.3 8.44-1.63 11.1 9.71 22.1 9.71 22.1l22.1 25.3-6 9.46-27.5 2.24z" fill="#1c0024"/>
  <path d="m328 101c-5.37 3.39-6.82 9.58-6.18 15.6-12.1 7.12-23.6 20.6-25.5 33.6-0.533 4.2 6.67 9.16 12.8 19.8 3.73 6.51 15 18.1 23.8 20.3 18.8-8.37 24.1-15.6 42.8-19.8 1.93-2.34 3-4.58 3.21-6.73 3.31-33.5 4.87-50.3 4.67-50.6-3.07-4.05-5.63-6.2-7.67-6.46-31.8-4.02-47.8-5.96-48-5.83z" fill="#9c3820"/>
  <path d="m209 192q12.6 0.907 18 12.4 2.74 5.77 0.525 17.4-1.12 5.86-32.3 24.7-15.7 9.49-21.7-11.9-3.02-10.8 5.95-33.1 4.52-11.2 29.5-9.43z" fill="#5555a5"/>
  <path d="m311 256c-5.03 1.33-11.3 1.7-15.3 4.69-18.4 14.1-27.6 21.6-27.7 22.4-0.251 2.75-3.91 6.8-3.88 8.27-2.04 2.28-3.41 4.76-15.9 12.6-1.21 0.8-13.7 4.82-14 9.31-0.217 4.57-2.07 11.8 3.18 16.5 7.83 6.98 24.1 44.5 45.2 44 6.2-0.154 5.79-4.94 12.7-13.6 5.26-6.64 38.6-43.3 42.6-55.5 3.23-10.1 3.51-16.6 0.836-19.6-17.4-19.4-26.6-29.1-27.7-29z" fill="#8087d2"/>
  <path d="m207 54.8c-7.16 5.31-16.8 18.5-19 26.9-4.71 20.9-4.38 32.9 0.996 35.8 20.1 10.8 37.1 30.6 44.2 36 2.33 4.81 5.59 7 9.8 6.56 31.5-3.29 47.3-5.83 47.6-7.62 2.88-10.5 2.22-12.6 5.23-18.2 4.63-8.08 20.2-17.1 16.4-24.2-9.28-17-45.5-19.7-53.3-21.9-7.29-3.4-12.7-11.9-15.2-13.5-21.2-13.8-27-27-36.7-19.8z" fill="#6825d5"/>
  <path d="m290 159c-37.2 3.89-43.3-1.01-57.4 12.6-4.53 4.38-7.56 12.3-4.68 18.3 5.42 11.4 2.94 7.19 2.92 19.9-0.0186 12 3.25 22.2 11.4 34.8 14.3 21.7 14 22.7 25.7 24.7 15.6 2.68 20.6-16.9 43.2-19.5 0.871-0.101 2.72-11.6 12.8-25.4 1.16-1.6 5.71-7.59 6.41-26.9 0.123-2.06-5.28-4.55-16.1-7.45-7.48-10.4-14.5-22.7-24.3-31.1z" fill="#7b5e11"/>
  <path d="m163 182c-11.7-2.13-21.3 5.98-30.5 8.3-13.1 2.98-8.42 9.35-15.9 25.4-4.21 9.06-4.86 5.82-3.29 15.2 1.61 9.59 31.7 25.9 53.3 34.3 2.99 1.16 5.59-4.02 6.51-7.1 3.8-12.8-2.86-19-6.52-39.4-0.605-3.38 15.2-20.9 10.7-30.8-2.13-4.68-11.2-5.65-14.3-5.74z" fill="#3863ca"/>
  <path d="m42.2 115q0.953-0.952 32.4-0.062 35.9 1.02 39.5 5.11 4.1 4.67-2.21 23.9-7.2 21.9-18.3 22.3-12.7 0.368-31.1-23.3-21.1-27-20.3-27.9z" fill="#1c3877"/>
  <path d="m372 181c-3.7-1.84-11.4 1.8-12.2 2.23-4.85 2.57-23.2 9.77-23.4 12.8 0.475 14-2.63 28.1-8.98 40.8-6.94 13.9-9.62 18.3-5.96 22.4 16.4 18.4 26.7 26 31 22.9 14.5-10.6 28.7-20.6 43.8-27.9 4.36-7.6 6.1-12.5 5.21-14.6-16.5-39.7-9.91-48.9-29.5-58.6z" fill="#aa63e4"/>
  <path d="m176 270q-0.063-0.508 4.11-6.81 1.03-1.56 38.7-24.3 9.3-5.61 34.2 32.1 6.14 9.32 5.46 16.8-0.169 1.84-26.7 18.4-6.55 4.09-45.8-26.6-9.69-7.58-9.95-9.63z" fill="#5571c4"/>
  <path d="m366 326c-27.3-7.35-14.7 11.5-13.7 33.9 0.854 8.68 2.3 28.1 2.28 35.7-0.0147 6.83 2.08 15.5 7.54 20.2 13.1 11.1 18.6 2.43 50.4 10 1.4 0.34 13 0.939 34.7 1.8 0.98 0.04 9.38-6.89 7.39-10.8-11.3-21.8-34.5-30.6-49-63.8-2.08-4.78-3.78-11.3-5.67-14.9-13-6.54-21.4-8.73-33.9-12.1z" fill="#b9b913"/>
  <path d="m340 318c1.33-0.121 0.106-1.3 3.18 2.43 1.41 1.72 2.76 17.8 4.05 48.4 0.589 14 7.18 19.4 1.12 25.2-8.01 7.74-12.1-2.47-33.3-2.63-9.74-0.0747-16.3-2.06-19.8-5.96-1.59-1.79-2.43-2.84-2.52-3.13-0.0427-0.136 0.337-3.97 1.14-11.5 0.369-3.46 7.04-8.15 26.5-31.2 8.95-10.6 9.94-20.8 19.6-21.7z" fill="#8eaaa9"/>
  <path d="m418 111c21-2.09 26.9 5.32 28.6 8.27 2.07 3.46 7.92 5.44 6.55 19.9-1.62 17-12.4 25.9-32.2 26.6-23.4 0.848-34.2-6.91-32.6-23.3 1.9-19.2 11.8-29.7 29.7-31.5z" fill="#c73876"/>
  <path d="m370 276q15.1-10.9 22.1-12.7 5.25-1.33 10.9 11.3 4.22 9.55-1.01 34.6-3.94 18.9-30.7 12-20.1-5.15-24-9.81-2.89-3.51 0.297-13.5 2.4-7.49 22.5-22z" fill="#aa8e8f"/>
  <path d="m304 45.5c12.1 20.7 18.2 32.4 18.2 35.2 0.0913 9.85-0.168 15-0.779 15.5-2.19 1.69-7.67 1.05-16.4-1.9-31.4-10.6-36.8-2.88-42.3-17.1-1.08-2.82-2.01-2.14 3.99-8.14 21.5-21.5 33.9-29.3 37.3-23.5z" fill="#8e1c3e"/>
  <path d="m142 127q18.5 0.245 20.1 25.3 1.53 24.6-18.4 31-19.5 6.3-26.9-4.67-7.25-10.8-0.431-31.5 6.69-20.4 25.6-20.1z" fill="#383880"/>
  <path d="m385 176q1.55-1.88 33.8-3.05 32.6-1.18 39.6 6.87 7.11 8.14 2.63 26.8-4.53 18.9-6.5 20.9-2 2-23.4 7.52-21.6 5.58-34.6-25.6-13.1-31.5-11.6-33.4z" fill="#c7557e"/>
  <path d="m168 127c2.54-3.98 11.4-6.28 13.1-5.38 28.5 15.4 30.8 23 30.9 23.6 2.44 11.3 13.9 10.8 15.3 18.7 1.46 8.11-6.61 23.5-8.01 23.4-23.7-1.7-35.8-2.7-36.3-2.99-8.41-4.87-11.1-4.95-12.8-10.1-4.74-13.9-10.7-33.9-2.19-47.2z" fill="#553819"/>
  <path d="m406 44.3c26.9 16.6 34.3 34.2 32.8 39.9-2.84 10.7 2.36 19.9-11.2 21.3-25.3 2.51-38.5 3.02-39.7 1.51-2.13-2.8-2.3-11.5-0.517-26 3.32-27 4.11-45.6 18.6-36.7z" fill="#c71c5c"/>
  <path d="m94.2 172q11.9-0.348 19.2 10.5 7.37 10.9 6.78 15.4-0.589 4.52-6.3 16.8-5.78 12.5-35.8 2.47-30.4-10.1-13.1-27.4 17.5-17.5 29.3-17.8z" fill="#1c55cf"/>
  <path d="m336 399c7.83 1.25 13.9 4.79 19.1 14.2 1.68 3.03 2.14 8.96 1.39 17.8-0.241 2.84-14.4 14.9-28.4 36.1-6.05 6.05-11.5 5.92-15.9 6.53-1.39 0.197-8.35-4.87-20.9-15.2-4.02-3.31 2.24-17.9 5.71-46.4 2.9-23.9 25.5-15.2 39-13z" fill="#8ec7ba"/>
 </g>
</svg>
