<?xml version="1.0" encoding="UTF-8"?>
<svg width="512px" height="512px" contentScriptType="text/ecmascript" contentStyleType="text/css" version="1.1" viewBox="0 0 512 512" xmlns="http://www.w3.org/2000/svg">
 <g class="voronoi" stroke-width=".5">
  <path d="m-13.2 126 13.2 3.6s4.9 1.36 6.31 6.37c1.98 7.04-6.31 13.7-6.31 13.7l-10.9 11.6-25.6 20.8-12.6-8.24-3.62-33.7z" fill="#e3388e"/>
  <path d="m34.2 412c3.4-2.07 34.9 10.5 41.4 31.2 4.6 14.6-8.06 17.7-21.6 25-15.9 8.69-37.1 33.3-46.9 18-7.76-12.1 10.6-23.9 14.4-36.3 2.69-8.78-4.11-27.8 3.73-32.5z" fill="#00c7e4"/>
  <path d="m4.93 27.5c0.0781-7.17 6.66-15.1 13.7-16.6 13-2.79 25.8 4.63 33.1 15.8 5.6 8.59 9.63 24.6 1.38 30.7-10.2 7.53-22.8-3.45-33.1-10.8-6.57-4.72-15.1-11-15-19.1z" fill="#00009c"/>
  <path d="m122 16.8c-5.37 2.31-11.6 13.2-11.6 13.2-14.7 12.4-35 18.6-46.8 30.1-8.12 8.12-13.6 18.1-16.5 30-2.83 11.6 7.1 17.7 29.8 18.4 8.98 0.254 15.7-2.4 21.6-3.68 17.6-3.79 18.6 9.15 28.3 12.6 4.85 1.7 3.24 3.75 14.9 3.9 13.3 0.175 21.7-0.851 25.2-3.08 3.97-2.53 7.3-9.76 9.98-21.7 1.69-18.2 28.1-45.5 11.8-54.8 0 0-26.5-19.5-42-23.9-7.91-2.26-17.1-4.18-24.7-0.928z" fill="#2f1393"/>
  <path d="m-41.1 70.8 11-5.22 42.6 33.1s7.44 9.21 2.41 15.4c-4.09 5.03-14.9 5.82-14.9 5.82l-31.6-2.72-23.3-10.1 3-20.3z" fill="#e31caf"/>
  <path d="m-12.9 332 24.8 6.79s27.4 11.8 32.6 24.3c3.35 8.19-4.43 19.7-12.3 23.8-11 5.75-25.2-13.8-25.2-13.8l-7.06-14.6z" fill="#00aa73"/>
  <path d="m141 479c14.9-0.512 31.4-3.29 37.2 7.98 4.15 8.09-10.9 25-10.9 25l-9.94 11.9-28.6-3.55 1.37-8.35c0.65-6.38-2.45-28.9 2.36-33.8 4.42-2.92 8.51 0.785 8.51 0.785z" fill="#38e3df"/>
  <path d="m-18 59.4 18-9.57s8-3.51 11.9-2.89c25.8 7.21 45.6 43.5 23 63.7l-11.2-7.47-23.7-24.9z" fill="#001c34"/>
  <path d="m86.9-50 14.6-13.7 19.3 17.6 5.01 36.9-4.68 9.17s-6.22 11.1-11.7 11.6c-6.69 0.567-16.5-11.6-16.5-11.6l-12.5-9.53z" fill="#1ce39d"/>
  <path d="m27.7 115c-7.47 1.73-10.1 12.6-11.5 19.3 1.85 7.22 9.04 7.64 12.9 13.1 10.2 15.6 12.5 40.8 21.2 51.9 9.94 7.24 17.6 14.7 27.8 18.2 20 6.69 31.9 5.86 35.8-2.47 3.81-8.19 5.91-13.8 6.3-16.8 0.393-3-1.87-8.13-6.78-15.4-3.34-4.96-7.39-8.16-12.2-9.61l-64.4-54.9s-5.48-3.37-9.09-3.26z" fill="#0e4750"/>
  <path d="m144-36 38.5 18.1-15 17.9s-5.14 10-9.94 11.9c-8.93 3.52-20.2 4.56-25.9-3.13-1.69-2.26-1.28-8.77-1.28-8.77l5.04-30.8z" fill="#38e3df"/>
  <path d="m-54.2 475 39.9 3.59 14.3 11.6s21.2 8.4 29.9 4.92c5.24-2.08-7.72 15.1-7.72 15.1l-17.3 17.4-55.1-29.8z" fill="#e3e3c9"/>
  <path d="m29.9 0.189 0.149-0.189 2.32-2.94 20.7-20 11.7 3.96 16.6 19s11.4 7.54 12.3 18.7c0.284 3.72 0.176 7.35-3.44 11.5-4.26 4.9-3.48 5.74-12.2 2.75-17.1-5.89-48.1-32.8-48.1-32.8z" fill="#1c0024"/>
  <path d="m18.2 150c6.6-4.78 30.5 41.6 18 57.2-2.95 3.64-14-1.31-14-1.31l-42.8-27.2 20.6-15.4z" fill="#005528"/>
  <path d="m-32.7 343 10.8-5.21 21.9 33.9s9.61 11.6 16.6 17c5.21 3.99 22 4.14 19.6 11.5-3.89 11.8-36.3 15.1-36.3 15.1l-40.3 6.18-12.9 1.37 13.5-62.4z" fill="#e3aac9"/>
  <path d="m71 473c3.73-12.5 11.1-31.9 24.2-31.5 8.7 0.262 20.3 13.9 25.7 24.4 5.66 11 5.01 36.9 5.01 36.9l-12.6 24.7-32.7-25s-12.5-19.6-9.56-29.5z" fill="#1ce39d"/>
  <path d="m-54.2-37.1 39.9 3.59 31.6 25.6 4.85 5.94-17.3 17.4-55.1-29.8z" fill="#e3e3c9"/>
  <path d="m-52.4 429 52.4-6.99c6.87-0.0632 7.08 4.14 13.9 5.54s6.97 8.35 3.92 16.3c-3.73 9.68-17.8 23.9-17.8 23.9l-5.6 5.73-46.2-7.54-1.61-33.9z" fill="#e3c7ec"/>
  <path d="m29.9 512 0.149-0.189s-0.0122-2.87 0.544-4.15c4.55-10.5 10.8-23.4 21.8-26.4 6.77-1.84 19.9 4.37 19.3 8.44-1.63 11.1 9.71 22.1 9.71 22.1l22.1 25.3-6 9.46-27.5 2.24z" fill="#1c0024"/>
  <path d="m57.6 348c2.3-4.47 21.8-5.86 26.1-8.8 1.11-0.759 16 0.859 23.9 1.87 9.81 1.25 21.3-0.696 29.2 5.17 12 8.87 15.8 24.3 20.5 39.9 1.22 4.02-22.8 13.8-33.5 21.7-11.7 8.58-10.9 19.3-33.5 27.7-5.85 2.18-38.5-16.5-48.1-36.6-2.49-5.21 6.56-33.7 15.4-50.9z" fill="#38aac3"/>
  <path d="m43.5 108c5.12-7.04 17.8 6.21 38.7 6.8 23.9 0.68 27-5.36 29.4-2.63 2.73 3.11 4.41 19.2 0.205 32-4.8 14.6-8.87 13.5-16.3 13.8-8.47 0.245-16.2-3.54-28.5-19.3-4.71-10.2-31.2-20.2-23.6-30.6z" fill="#1c3877"/>
  <path d="m154 396c11.1-4.13 4.33 16.6 11.3 31.8 4.49 9.68 17.7 33.2 6.11 44.9-7.44 7.44-28.3 2.85-35.6 0.425-7.34-2.42-7-5.93-19-17.5-7.68-7.39-10.1-15.9-7.37-25.5 1.77-6.13 8.82-12.8 24.8-22.3z" fill="#38c798"/>
  <path d="m164 124-31.7 0.407c-14.9-6.99-12.4 12.3-15.9 22.6-4.55 13.8-4.4 24.3 0.432 31.5 4.93 7.31 13.9 8.87 26.9 4.67 8.97-1.19 32.5-2.41 39.3 1.03 19.6 2.9 33.2-8.75 33.1-20.9-1.4-7.9-1.68-6.91-4.12-18.2-0.1-0.6-1.35-10.3-30.9-23.6-5.69-2.56-11.9 2.41-17.1 2.55z" fill="#473810"/>
  <path d="m125 198c4.63-11 11.7 0.151 35.1-7.4 2.87-0.927 30.7-3.51 38.7 1.09 19.7 5.2-17.8 25-31.5 27.6-13.1 2.43-13.5-2.16-37.5-13.8-3.55-2.92-5.9-4.75-4.75-7.47z" fill="#3855d9"/>
 </g>
</svg>
