<?xml version="1.0" encoding="UTF-8"?>
<svg width="512px" height="512px" contentScriptType="text/ecmascript" contentStyleType="text/css" version="1.1" viewBox="0 0 512 512" xmlns="http://www.w3.org/2000/svg">
 <g class="voronoi" stroke-width=".5">
  <path d="m-13.2 126 28.2 7.71-26 27.6-25.6 20.8-12.6-8.24-3.62-33.7z" fill="#e3388e"/>
  <path d="m18.6 10.9c-7.15 0.59-13.7 16.6-13.7 16.6l-4.93 22.4-18 9.57 41.8 43.7 11.2 7.47c14.8 9.84 20.5-35.1 20.8-51.3-0.194-9.33-11.1-25.7-11.1-25.7s-14.6-23.7-26.1-22.7z" fill="#001c34"/>
  <path d="m129 15.7c-8.75-0.148-16.2 6.68-18.7 14.3-0.687 6.48-14.4 9.26-21 14.7-7.52 6.22-12.7 12.1-21 20.4l0.0488-0.0234c-8.12 8.1-9.71 16.6-12.6 28.5-2.8 11.6-1.5 14.8 20.1 15.4 23.9-3.4 46.1 1.24 66.1 6.72 19.2 5.13 30.4 0.193 33.8-14.8 1.83-19.8 21.1-40.7 12.9-59.1-6.57-14.7-42-23.9-42-23.9s-9.62-2.35-17.6-2.16z" fill="#380eaf"/>
  <path d="m-41.1 70.8 11-5.22 42.6 33.1 6.92 22.9-51-4.39-23.3-10.1 3-20.3z" fill="#e31caf"/>
  <path d="m195-13 28 5.11-0.229 7.92-0.196 6.79s-0.287 34.6-13.3 39.9c-9.27 3.75-39.5-26.4-41.9-31.7-2.86-6.21 12.3-15 12.3-15z" fill="#550029"/>
  <path d="m86.9-50 14.6-13.7 19.3 17.6 5.01 36.9-4.68 9.17s-1.28 16.6-7.65 18c-8.88 2.02-20.5-18-20.5-18l-12.5-9.53z" fill="#1ce39d"/>
  <path d="m41.6 116c-8.32 3.31-13.6 10.1-19.7 16.3l-22 32.1-20.6 15.4 42.8 27.2c18 3.35 38.5 5.64 55.4 11 20.6 6.9 28.7 0.901 24.3-17.8-9.16-31.6-1.58-37.3 1.82-61.9 1.96-14.4-8.44-21.9-31.2-22.5-10.3 1.44-20.9-2.25-30.8 0.0898z" fill="#0e552c"/>
  <path d="m144-36 38.5 18.1-15 17.9s-5.14 10-9.94 11.9c-8.93 3.52-22.8 4.14-28.6-3.55-1.69-2.26 1.37-8.35 1.37-8.35l5.04-30.8z" fill="#38e3df"/>
  <path d="m29.9 0.189 0.149-0.189 2.32-2.94 20.7-20 11.7 3.96 16.6 19c6.91 10 31.4 24.5 16.1 34.8-7.88 4.76-19.7 16.4-30.6 13.6-19.6-4.98-37-48.2-37-48.2z" fill="#1c0080"/>
  <path d="m-54.2-37.1 39.9 3.59 31.6 25.6 4.85 5.94-1.93 1.95s-6.91 11.9-12.9 14c-2.35 0.814-7.36-1.17-7.36-1.17l-50.2-27.1z" fill="#e3e3c9"/>
  <path d="m117 115c-9.1 5.82-6.59 25.4-7.43 31.5-8.74 33.2-6.39 42.7-2.01 61.2 8.08 14.8 48.1-3.81 56.2-12.2 14.8-25.3 6.95-28.3 8.65-51.6 0.527-7.41 0.31-12.1-0.65-14.1-0.467-1.07-12.5-4.77-36.2-11.1-9.24-2.48-13.3-7.18-18.6-3.78z" fill="#384744"/>
  <path d="m27.5 423c-8.88-0.721 2.3 26.6 2.3 26.6s-14.3 7.77-17 17.3c-2.76 9.77-3.58 34.2 11.2 27.8 14.8-6.37 18.1-11.3 33.3-16.4 12.8-4.25 29.9-16.6 23.9-30.7-4.53-10.6-40.7-23.6-53.7-24.6z" fill="#00d59e"/>
  <path d="m15.5 336-15.5-0.633-12.9-3.52 12.9 26.5s6.32 10.8 10.8 13.7c14 9.06 43.7 8.59 43.7 8.59 2.11 1.2 32.5-3.06 40.9-14.9 4.89-6.84 3.14-4.18 0.471-25.2-20.9-21.2-53.4-8.54-80.5-4.62z" fill="#00aa73"/>
  <path d="m153 479c7.81 0.317 5.96 3.97 10.2 10.6 4.09 6.37 4.43 22.3 4.43 22.3l-9.94 11.9-28.6-3.55 1.37-8.35s3.91-22.2 9.73-30.8c1.89-2.8 9.44-2.21 12.8-2.07z" fill="#38e3df"/>
  <path d="m187 445s23.3 0.345 31.7 7.13c7.03 5.64 11.5 24.5 11.5 24.5s-7.71 16.9-15.6 19.6c-11 3.8-23.7-2.68-34-8.15-9.58-5.09-20.6-9.34-19.9-20.2 0.825-12.3 26.3-23 26.3-23z" fill="#55e345"/>
  <path d="m196 502c8.56-2.28 19.2-5.52 25.2 1.85 1.66 2.05 1.66 8.12 1.66 8.12l-0.196 6.79-13.3 39.9-7.78-2.98-37.4-30.4 15.6-13.3s9.75-8.26 16.2-9.98z" fill="#550029"/>
  <path d="m-54.2 475 39.9 3.59 31.6 25.6 4.85 5.94-17.3 17.4-55.1-29.8z" fill="#e3e3c9"/>
  <path d="m-32.7 343 10.8-5.21 36.2 56 5.66 18.3-60.2 9.24-12.9 1.37 13.5-62.4z" fill="#e3aac9"/>
  <path d="m82.7 464c3.26-4.35 13.6-9.01 19-8.79 7.29 0.3 15 4.74 19.1 10.8 6.96 10.3 5.72 24.2 3.63 36.4-0.576 3.38-3.31 9.68-3.31 9.68l-7.9 15.5-20.3-15.5s-9.5-9.02-11.4-13.9c-5.07-12.7-6.08-24.5 1.23-34.2z" fill="#1ce39d"/>
  <path d="m-52.4 429 52.4-6.99s15.1-2.3 19.2 2.72c4.52 5.57 0.3 17.8-1.43 21.5l-17.8 21.5-5.6 5.73-46.2-7.54-1.61-33.9z" fill="#e3c7ec"/>
  <path d="m29.9 512 0.149-0.189 2.32-2.94s11.4-17.9 20.7-20c4.01-0.899 11.7 3.96 11.7 3.96l38.6 44.3-6 9.46-27.5 2.24z" fill="#1c0024"/>
  <path d="m123 380q51.8-31.9 53.2-27.7 12.1 35.2 9.18 37.4-24.8 18.1-29.1 16.7-36.6-12.3-36.9-13.4-2.43-9.17 3.64-12.9z" fill="#38aac0"/>
  <path d="m143 408q16 5.38 23.9 22.5 5.1 11-12.3 28.4-11.2 11.2-16.4 12.4-3.36 0.796-21.4-16.5-11.5-11.1-3.74-38 4.98-17.2 29.9-8.85z" fill="#38c7b9"/>
  <path d="m175 326c1.12 6.87 1.04 11.9-0.243 15-0.8 1.95-13.1 10.3-36.8 24.9-14.8 9.13-24.1 12-27.8 8.47-2.33-2.15-4.4-10.3-6.2-24.5-1.12-8.87-4.29-23.9 7.36-30 22.1-11.6 58.8-11.8 63.7 6.17z" fill="#388e9a"/>
  <path d="m36.7 403q21.4-21.4 29.9-22.3 33.4-3.46 35.3-1.75 7.26 6.71 7.81 8.79 2.17 8.16-0.426 17.1-10.2 35.2-10.6 35.3-1.56 0.465-15.3-4.44-53.8-19.3-53.9-19.4-0.348-0.552 0.063-2.04 1.61-5.86 7.07-11.3z" fill="#1cc7c6"/>
  <path d="m173 405q19.6-14.3 26.6-10.7 16.8 8.8 16.1 19.9-1.72 26.7-12.3 26.2-25.4-1.27-29.3-9.52-9.24-19.9-1.12-25.9z" fill="#55c74f"/>
  <path d="m458-37.1 39.9 3.59 31.6 25.6 4.85 5.94-17.3 17.4-55.1-29.8z" fill="#e3e3c9"/>
  <path d="m479 426c10.8-2.22 32.8-3.92 32.8-3.92l18.6-2.48 2.17 0.445 0.978 25.5-21.8 22.3s-5.73 3.85-8.26 4.73c-13.5 4.66-29.1 6.8-39.8-4.61-5.16-5.52-12.5-15.3-5.93-24.5 4.16-5.85 14.1-16 21.2-17.4z" fill="#e3c7ec"/>
  <path d="m445-14.3 30.2 14 0.43 0.334 34.6 26.9s-7.21 11.4-11.8 16.3c-5.62 5.96-10.9 16.8-19 15.6-11.6-1.79-14.1-18.9-19.3-29.5-4.56-9.27-10.2-29.3-10.2-29.3z" fill="#e3006f"/>
  <path d="m507 315 11.3-12.7 25.7-8.73 24.8 23-13 25.3-42-12.8-1.68-3.53z" fill="#008ebf"/>
  <path d="m470 488c5.6-7.2 18.2-2.53 27.3-1.7 4.89 0.449 14.3 3.58 14.3 3.58l17.3 14 4.85 5.94-17.3 17.4-28.7-15.5s-12.5-7.7-16-13.8c-1.69-2.94-3.96-7.32-1.88-9.99z" fill="#e3e3c9"/>
  <path d="m533 148 16.4 59.2-1.36 0.59-14-1.31-22.2-14.1s-12.1-4.42-12.4-12.6c-0.326-8.58 12.4-16 12.4-16z" fill="#005528"/>
  <path d="m485 341c13 3.63 27.4 31.5 27.4 31.5l14.3 22.1 5.66 18.3-20 3.06-26.4 4.52s-18.3 0.607-21.2-2.61c-14.2-15.8 7.98-56.7 7.98-56.7 2.8-5.92 6-21.6 12.2-20.1z" fill="#e3aac9"/>
  <path d="m393 543 7.56-20.8 27.8-17.7 31.9 48.6-0.753 28.4-48.8-24.7z" fill="#c700b4"/>
  <path d="m471 70.8c4.74-3.55 9.83-7.34 16.9-5.37 10.6 2.96 24.2 23.6 24.2 23.6l12.5 9.69 6.92 22.9-51-4.39s-19.2-2.73-23.3-10.1c-3.32-5.98 3-20.3 3-20.3s5.62-12.1 10.8-16z" fill="#e31caf"/>
  <path d="m501 339c1.12-4.14 11-3.81 11-3.81l12 3.27 32.6 24.3-4.04 26.2-33.4-16.2-7.06-14.6s-12.8-12.5-11-19.2z" fill="#00aa73"/>
  <path d="m445 498c0.805-4.68 2.76-11.9 8.9-11.1 10.7 1.28 21.8 25.4 21.8 25.4l34.6 26.9-11.8 16.3-19 15.6-19.3-29.5s-6.78-19.5-10.2-29.3c-1.66-4.77-5.83-9.34-4.98-14.3z" fill="#e3006f"/>
  <path d="m361-16.4-35.5 34.2c-20.2 29.7-20.6 57.5-2.83 75.5 12.2 11 22.1 4.27 48.7-7.47 7.03-3.12 11.9-15.9 14.7-38.5-0.558-6.2-1.38-13.1-0.0293-19.5 1.86-8.72 11.3-15.5 10.9-24.4-0.0529-1.31-1.89-3.46-1.89-3.46l-11-11.5z" fill="#aa0016"/>
  <path d="m498 128c4.55-0.174 13.9 1.83 13.9 1.83l15 4.11-26 27.6s-14.6 20.2-25.6 20.8c-5 0.258-9.92-3.98-12.6-8.24-7.35-11.8-13.7-30.6-5.04-41.5 8.37-10.6 26.3-4 40.2-4.54z" fill="#e3388e"/>
  <path d="m393 31.5c-2.05-7.1 7.56-20.8 7.56-20.8l27.8-17.7 31.9 48.6s7.38 23.6-0.753 28.4c-15.6 9.33-33.4-14.9-48.8-24.7-6.34-4.01-15.7-6.59-17.8-13.8z" fill="#c700b4"/>
  <path d="m459 238c-3.71 3.44-3.61 7.91-4.22 12.9-2.05 17-8.87 28.8-5.06 43.8 4.2 16.5 14.9 28.6 30 34 4.25 1.51 11.4 1.45 11.4 1.45l6.77-6.49s7.89-14.3 10.4-22.1c2.33-7.34 4.15-22.8 4.15-22.8l0.732-5-0.732-1.03s-12.5-24.3-24.3-30.8c-8.78-4.87-22.1-10.6-29.2-3.99z" fill="#e37192"/>
  <path d="m363 420c-3.57 1.52-4.97 12.2-5.59 18.7-0.829 8.72-0.333 20.2 2.64 26.1l9.95 20.1s26.1 22.4 32.5 23.5c12.1 2.16 34-14.2 34-14.2l6.21-6.11s7.1-12.1 8.5-18.9c2.34-11.2-1.25-31.9-11.9-34.4-7.4-1.78-14.3-0.808-21.4-1.95-18.5-3-50.7-14.6-54.8-12.9z" fill="#b9d51e"/>
  <path d="m480 194c11.5-1.77 31.6 7.13 31.6 7.13l14.7 6.21-13 27.9-1.76-0.238s-31.2 4.16-41-5.55c-4.89-4.86-4.8-13.8-2.93-20.5 1.75-6.24 7.94-14.3 12.4-15z" fill="#e355c7"/>
  <path d="m363 496c7.56-2.18 20.9 4.44 20.9 4.44l13.1 13.8-11.2 25.7-19.1 1.93-41.4-12 18.5-17.8s11.6-13.9 19.2-16.1z" fill="#aa0016"/>
  <path d="m501 61.8c1.09-6.72 10.6-12 10.6-12l10.4-5.52 33.8 35.2-7.42 29.5-1.82 1.62-11.2-7.47-23.7-24.9s-12-7.92-10.6-16.5z" fill="#001c34"/>
  <path d="m332 110c5.45-11.9 11.8-6.82 35.2-17.2 10.2-4.51 20.2-1.15 30 10.1 4.25 4.89 2.19 15.9-6.2 33.1-3.64 7.47-15.4 9.98-35.3 7.55-8.67-1.05-15.5-8.15-20.5-21.3-2.32-5.35-4.96-8.41-3.2-12.2z" fill="#aa384e"/>
  <path d="m386 366c3.71-0.499 6.43 0.114 8.14 1.84 38 38.3 57 57.4 57 57.5 0.032 0.26 0.0327 0.422 2e-3 0.487-0.693 1.43-1.53 2.13-2.51 2.09-21.7-0.86-33.3-1.46-34.7-1.8 0 0-36.7-1.01-43.8-14.7-2.43-4.68 3.94-13.8 4.5-15.2 5.48-10.7 11.3-30.1 11.4-30.2z" fill="#c7c7c6"/>
  <path d="m428 111q21.5-2.13 24.1 2.28 3.1 5.19 1.04 26.9-2.43 25.5-23.8 26.3-25.1 0.912-30.9-7.19-6.8-9.52 1.49-26.5 9.75-20 28-21.8z" fill="#c73876"/>
  <path d="m389 294q14.2-6.98 18.2 32.9 1.59 15.7-13.1 26.6-5.77 4.27-9.95 4.83-1.65 0.221-17.1-12.3-6.08-4.94-11.8-26-2.25-8.31 33.7-26z" fill="#aa8eb1"/>
  <path d="m446 237c4.36-1.13-0.653 9.56-1.72 26.7 1.16 27.1-18.2 24.5-31 17.3-2.94-1.32-4-11.2-3.19-29.7 0.149-3.4 12.1-8.16 35.9-14.3z" fill="#c771ce"/>
  <path d="m343 149c-0.213-0.026-2.23 2.92-2.74 4.64-6.45 21.6-4.44 45-3.22 67.4 1.05 19.4 5.85 37.5 9.04 57.5 0.865 5.38 5.22 14.6 11.7 16.8 15.3 5.06 27.8-1.85 45.8-15.3-2.34-35 10.6-85.8-5.66-108 0.0713-0.252-6.19-14.1-12.4-17.9-12.2-7.4-14.2-1.86-42.6-5.3z" fill="#aa63e5"/>
  <path d="m412 58.2c26.9 16.6 42.8 23 41.3 28.8-2.84 10.7-8.89 16.5-18.1 17.4-17.2 1.71-28.3-0.253-33.2-5.9-9.14-10.5-13.1-20.7-11.9-30.7 2.28-18.5 7.46-18.5 21.9-9.6z" fill="#c71ca0"/>
  <path d="m405 353c6.19-4.58 19.4-6.96 39.6-7.16 16.9-0.166 15.9 11 9.9 38.5-4.99 22.9-11.9 26-33.5 4.16-18.1-18.2-23.4-30-16-35.5z" fill="#c7aa89"/>
  <path d="m409 285c4.61-3.13 5.28 1.96 15.4 6.51 8.8 3.95 19.8 12.8 33.1 26.4 11.5 11.8 16.4 18.6 14.7 20.3-1.51 1.51-12.2 2.36-32 2.55-17.2 0.171-26.8-9.66-28.9-29.5-0.0611-5.68-4.97-24.1-2.3-26.3z" fill="#c78e87"/>
  <path d="m428 173c15.6-0.565 25.7 1.84 30.4 7.2 4.74 5.43 5.62 14.4 2.63 26.8-3.02 12.6-5.19 19.5-6.5 20.9-1.33 1.33-9 3.8-23 7.41-14.1 3.65-13.8 2.09-20.3-3.26-6.61-5.4-2.79-15.1 1.96-32 4.8-17-0.533-26.5 14.9-27.1z" fill="#c7557e"/>
  <path d="m353 348q5.14-2.86 21.9 10.8 4.73 3.84-10.6 41.5-4.34 10.6-24.8 5.87-5.77-1.34-4.95-37.8 0.229-10.3 18.5-20.4z" fill="#aaaa42"/>
 </g>
</svg>
