<?xml version="1.0" encoding="UTF-8"?>
<svg width="512px" height="512px" contentScriptType="text/ecmascript" contentStyleType="text/css" version="1.1" viewBox="0 0 512 512" xmlns="http://www.w3.org/2000/svg">
 <g class="voronoi" stroke-width=".5">
  <path d="m458-37.1 39.9 3.59 31.6 25.6 4.85 5.94-17.3 17.4-55.1-29.8z" fill="#e3e3c9"/>
  <path d="m361-16.4-35.5 34.2-19.7 3.72c-6.92 1.31-2.06 10.6-0.969 16.9l25.1 42.4c-0.581 2.81-0.863 5.86-0.832 9.16 0.024 2.63 13.4 5.64 40.2 9.03 7.08 0.895 12.6-15.1 16.7-48 0.986-15.8 5.33-34.4 11.2-48.8l-13.1-13.8z" fill="#aa0016"/>
  <path d="m-13.2 126 13.2 3.6s4.9 1.36 6.31 6.37c1.98 7.04-6.31 13.7-6.31 13.7l-10.9 11.6-25.6 20.8-12.6-8.24-3.62-33.7z" fill="#e3388e"/>
  <path d="m526 232 19.8-17.1 10.5 24.5 2.16 38.9-19.9 10.4-20.3-16.8z" fill="#007170"/>
  <path d="m42.6 411c2.43 3.68 20 14.6 37.5 31.9 4.6 14.6-12.5 17.7-26 25-15.9 8.69-37.1 33.3-46.9 18-7.76-12.1 10.6-23.9 14.4-36.3 2.69-8.78 0.271-24.3 4.77-30 4.5-5.67 13.8-12.3 16.3-8.65z" fill="#00c7e4"/>
  <path d="m460 429 71-9.47 2.17 0.445 0.978 25.5-21.8 22.3s-6.11 3.09-8.65 3.92c-14.8 4.88-43.2-5.73-43.2-5.73l-1.61-33.9z" fill="#e3c7ec"/>
  <path d="m4.93 27.5c0.0781-7.17 6.66-15.1 13.7-16.6 13-2.79 25.8 4.63 33.1 15.8 5.6 8.59 9.63 24.6 1.38 30.7-10.2 7.53-22.8-3.45-33.1-10.8-6.57-4.72-15.1-11-15-19.1z" fill="#00009c"/>
  <path d="m445-14.3 30.2 14 0.43 0.334s32.5 12.4 34.6 26.9c0.941 6.64-5.66 13.6-11.8 16.3-5.68 2.45-18.4-2.4-18.4-2.4s-12-8.13-16.5-13.7c-6.27-7.9-13.6-27-13.6-27z" fill="#e3006f"/>
  <path d="m507 315 11.3-12.7 25.7-8.73 24.8 23-13 25.3-42-12.8-1.68-3.53z" fill="#008ebf"/>
  <path d="m465 483c9.04-9.85 32.4-4.73 32.4-4.73l31.6 25.6 4.85 5.94-17.3 17.4-28.7-15.5s-22.4-5.14-26.5-14.3c-2.01-4.53-1.65-8.77 3.56-14.4z" fill="#e3e3c9"/>
  <path d="m122 16.8c-5.37 2.31-11.6 13.2-11.6 13.2-14.7 12.4-35 18.6-46.8 30.1-8.12 8.12-13.6 18.1-16.5 30-2.83 11.6 7.1 17.7 29.8 18.4 8.98 0.254 18.4 2.42 27.5 4.08 7.53 1.37 12.7 1.39 22.4 4.84 4.85 1.7 3.24 3.75 14.9 3.9 13.3 0.175 20 3.61 25.2-3.08 19.8-25.5 4.93-84.1-12.6-95.9-7.91-2.26-24.7-8.64-32.3-5.39z" fill="#2f1393"/>
  <path d="m-41.1 70.8 11-5.22 42.6 33.1s7.44 9.21 2.41 15.4c-4.09 5.03-14.9 5.82-14.9 5.82l-31.6-2.72-23.3-10.1 3-20.3z" fill="#e31caf"/>
  <path d="m533 148 16.4 59.2-1.36 0.59-14-1.31-22.2-14.1s-8.62-4.19-8.93-12.3c-0.326-8.58 8.93-16.2 8.93-16.2z" fill="#005528"/>
  <path d="m-12.9 332 24.8 6.79s27.4 11.8 32.6 24.3c3.35 8.19-4.43 19.7-12.3 23.8-11 5.75-25.2-13.8-25.2-13.8l-7.06-14.6z" fill="#00aa73"/>
  <path d="m478 346c14.1-11.6 12.8 3.35 16.9 6.16 6.98 4.81 17.6 19.5 17.6 19.5l14.3 22.1 5.66 18.3-20 3.06s-27.8 7.74-40.4 2.84c-4.79-1.86-6.63-5.44-9.52-8.66-14.2-15.8-2.26-31.2 5.19-51.1 3.4-5.34 6.58-9.18 10.3-12.2z" fill="#e3aac9"/>
  <path d="m138 411c-8.72 3.3-20.8 7.91-28.6 18.9-2.73 9.6-0.309 18.1 7.37 25.5 8.58 8.27 13.2 27.3 14.5 39.1 0.701 6.75-1.06 17.6-1.06 17.6l-1.37 8.35 28.6 3.55 9.94-11.9s3.95-2.9 3.63-23.4c-0.29-19-1.43-53.5-5.74-61.1-6.93-12.3-14.4-21.2-27.2-16.5z" fill="#38e3df"/>
  <path d="m393 543 7.56-20.8 16.7-10.6s7.11-9.33 11.4-8.41c2.75 0.592 4.34 8.41 4.34 8.41l27.3 41.5-0.753 28.4-48.8-24.7z" fill="#c700b4"/>
  <path d="m-18 59.4 18-9.57s8-3.51 11.9-2.89c25.8 7.21 45.6 43.5 23 63.7l-11.2-7.47-23.7-24.9z" fill="#001c34"/>
  <path d="m449 72.4c1.39-5.67-0.0355-13.4 5.77-16.5 17-9.23 57.4 33.2 57.4 33.2l12.5 9.69 6.92 22.9-19.4-1.67s-21-2.15-31.6-1.37c-6.5 0.481-13.2 6.03-19.1 3.17-10.8-5.26-13.6-25.9-14.9-32.7-1.08-5.49 1.08-11.2 2.41-16.6z" fill="#e31caf"/>
  <path d="m500 344c0.548-5.03 12.2-9.02 12.2-9.02l12 3.27 32.6 24.3-4.04 26.2-33.4-16.2-7.06-14.6s-12.9-7.84-12.2-14z" fill="#00aa73"/>
  <path d="m452 506c6.73-2.1 23.9 5.97 23.9 5.97l0.43 0.334 34.6 26.9-11.8 16.3-19 15.6-19.3-29.5-10.2-29.3s-1.56-5.38 1.4-6.3z" fill="#e3006f"/>
  <path d="m86.9-50 14.6-13.7 19.3 17.6 5.01 36.9-4.68 9.17s-6.22 11.1-11.7 11.6c-6.69 0.567-16.5-11.6-16.5-11.6l-12.5-9.53z" fill="#1ce39d"/>
  <path d="m16.2 134c1.16-5.52 3.48-16.2 10.1-19 3.34-1.42 10.5 2.98 10.5 2.98l36 45.8s-1.62 14.3-12.5 24.9c-1.56 1.52-8.71 12-10 10.3-8.66-11.1-11-36.3-21.2-51.9-3.34-5.09-13.6-9.07-12.8-13z" fill="#0038dc"/>
  <path d="m499 126 28.2 7.71-26 27.6s-14.6 20.1-25.6 20.8c-8.53 0.531-19.4-9.16-21.7-13.6-6.36-12.2 0.362-24.1 10.5-36 9.08-10.7 34.6-6.48 34.6-6.48z" fill="#e3388e"/>
  <path d="m372 427c-14.9 7.27-46.5 42.6-31 53.2l10.8 7.36 36.9 6.08c3.11 5.59 7.66 12.5 14.2 13.7 11.9-7.34 29.8-8.65 40.5-19.5 4.82-4.93 8.5-18.9 8.5-18.9s-0.417-16-8.41-24.3c-6.77-6.99-21.2-11.5-21.2-11.5-0.055-0.0247-0.111-0.0478-0.172-0.0625-17.4 2.37-31.9-9.08-50-6.15z" fill="#b4da5d"/>
  <path d="m144-36 38.5 18.1-15 17.9s-4.98 13.8-9.78 15.7c-8.93 3.52-20.4 0.788-26.1-6.9-1.69-2.26-1.28-8.77-1.28-8.77l5.04-30.8z" fill="#38e3df"/>
  <path d="m396 27.6c-3.21-6.66 3.84-17 3.84-17l27.8-17.7 4.63 7.05s29.9 28.3 22.7 43.3c-10.8 11-34.8-2.16-46.9-6.48 0 0-9.74-4.17-12.2-9.2z" fill="#c700b4"/>
  <path d="m446 237c-0.284 1.8e-4 -0.566 0.0357-0.844 0.107-24.2 6.25-36.7 10-37.4 11.2-3.88 6.77-5.32 11.3-4.3 13.6 5.37 17.5 5.31 11 5.37 23.8 0.062 14 2.07 8.13-0.804 21.3-3.27 15.7-4.02 25.2-2.23 28.6 2.05 3.88 12.5 5.73 31.2 5.55 21.6-0.214 33.3-0.934 34.7-2.58 3.56-4.34 13-6.44 18.7-8.78l6.77-6.49c4.7-22.5-32.2-41.3-36.2-60.6 0.125-0.611 0.125-1.13-0.0215-1.54-5.7-16.1-10.7-24.1-15-24.1z" fill="#d08479"/>
  <path d="m-54.2 475 39.9 3.59 14.3 11.6s21.2 8.4 29.9 4.92c5.24-2.08-7.72 15.1-7.72 15.1l-17.3 17.4-55.1-29.8z" fill="#e3e3c9"/>
  <path d="m29.9 0.189 0.149-0.189 2.32-2.94 20.7-20 11.7 3.96 16.6 19s11.4 7.54 12.3 18.7c0.284 3.72 0.176 7.35-3.44 11.5-4.26 4.9-3.48 5.74-12.2 2.75-17.1-5.89-48.1-32.8-48.1-32.8z" fill="#1c0024"/>
  <path d="m18.2 150c6.6-4.78 30.5 41.6 18 57.2-2.95 3.64-14-1.31-14-1.31l-42.8-27.2 20.6-15.4z" fill="#005528"/>
  <path d="m497 194c5.23 0.918 14.7 6.18 14.7 6.18l14.7 6.21-13 27.9-1.76-0.238s-14.4-0.951-20-4.89c-6.7-4.7-17.8-14.8-13.6-20.4 4.73-6.45 9.87-16.3 18.9-14.8z" fill="#e355c7"/>
  <path d="m-32.7 343 10.8-5.21 21.9 33.9s9.61 11.6 16.6 17c5.21 3.99 22 4.14 19.6 11.5-3.89 11.8-36.3 15.1-36.3 15.1l-40.3 6.18-12.9 1.37 13.5-62.4z" fill="#e3aac9"/>
  <path d="m70.6 470c3.12-5.9 18.4-22.2 30.9-21.3 8.69 0.59 20.4 19.9 24 35 1.26 5.22 0.29 19.5 0.29 19.5l-12.6 24.7-32.7-25s-16.3-20.8-9.95-32.9z" fill="#1ce39d"/>
  <path d="m362 500c7.43-1.9 14.5-1.74 21.4 2.09 4.63 2.58 11.9 10.3 11.9 10.3l2.15 2.25-11.2 25.7-19.1 1.93-41.4-12 18.5-17.8s10.2-10.5 17.8-12.4z" fill="#aa0016"/>
  <path d="m-54.2-37.1 39.9 3.59 31.6 25.6 4.85 5.94-17.3 17.4-55.1-29.8z" fill="#e3e3c9"/>
  <path d="m494 59.4 28.4-15.1 33.8 35.2-7.42 29.5-1.82 1.62-11.2-7.47-23.7-24.9z" fill="#001c34"/>
  <path d="m460 233c3.44-4.56 10.8-4.61 17-2.25 16.8 6.42 34.9 41.6 34.9 41.6l0.733 1.03-0.733 5s-2.16 15.8-9.24 18.9c-9.68 4.11-19.7-14.4-19.7-14.4s-16.2-22.1-20.7-34.8c-1.69-4.77-5.23-11-2.19-15z" fill="#e37192"/>
  <path d="m-52.4 429 52.4-6.99c6.87-0.0632 7.08 4.14 13.9 5.54s6.97 8.35 3.92 16.3c-3.73 9.68-17.8 23.9-17.8 23.9l-5.6 5.73-46.2-7.54-1.61-33.9z" fill="#e3c7ec"/>
  <path d="m29.9 512 0.149-0.189s-0.0122-2.87 0.544-4.15c4.55-10.5 10.8-23.4 21.8-26.4 6.77-1.84 19.9 4.37 19.3 8.44-1.63 11.1 9.71 22.1 9.71 22.1l22.1 25.3-6 9.46-27.5 2.24z" fill="#1c0024"/>
  <path d="m328 101c-3.99 2.5-4.54 4.48-5.49 8.58-6.55 5.23-13 16.8-17.7 22.2-4.34 5.86-7.63 12.5-8.46 18.5-0.533 4.2 2.29 11.6 8.46 22.3 3.73 6.51 9.97 10.9 18.7 13.1 4.98 1.26 24.2-3.69 35.2-8.81 4.63 0.0977 12.2-5.15 17-6.23 1.93-2.34 3-4.58 3.21-6.73 3.31-33.5 4.87-50.3 4.67-50.6-3.07-4.05-5.63-6.2-7.67-6.46-31.8-4.02-47.8-5.96-48-5.83z" fill="#9c381f"/>
  <path d="m57.6 348c2.3-4.47 21.8-5.86 26.1-8.8 1.11-0.759 16 0.859 23.9 1.87 9.81 1.25 21.3-0.696 29.2 5.17 12 8.87 28.8 36.7 19.9 53.5-5.29 9.99-22.2 0.181-32.9 8.08-11.7 8.58-10.9 19.3-33.5 27.7-5.85 2.18-38.5-16.5-48.1-36.6-2.49-5.21 6.56-33.7 15.4-50.9z" fill="#38aac3"/>
  <path d="m442 346c-22 0.22-34.5 3.53-37.3 9.94-2.9 5.61-7.81 10.1-10.7 14.5-2.03 3.05-13.2 9.8-36.3 22.9-1.16 0.654-4.43 9.04-3.92 10.4 3.41 8.82 6.45 7.91 10.8 10.3 14.5 8.01 16.3 4.6 48.1 12.2 1.4 0.34 13 0.939 34.7 1.8 4.72-2 4.96-17.8 4.89-22.8-0.301-37.1 20.1-55.2-10.3-59.2z" fill="#c0aac9"/>
  <path d="m42.2 115q0.953-0.952 32.4-0.062 35.9 1.02 39.5 5.11 4.1 4.67-2.21 23.9-7.2 21.9-18.3 22.3-12.7 0.368-31.1-23.3-21.1-27-20.3-27.9z" fill="#1c3877"/>
  <path d="m376 180c-4.43-3.24-15.4 2.61-16.2 3.01-3.2 2.74-17.1 6.67-26 7.94-7.09 1-18.9-2.69-21.5-0.317-11.5 10.5-2.48 48.6 9.24 68.4 6.54 11.1 26.7 26 31 22.9 15.3-11.1 28.4-21.4 33-24.6 5.81-4.15 8.09-0.678 10.8-3.28 3.74-3.56 6.1-12.5 5.21-14.6-16.5-39.7-17-53.2-25.5-59.4z" fill="#aa63d7"/>
  <path d="m418 111c21-2.09 26.9 5.32 28.6 8.27 2.07 3.46 7.92 5.44 6.55 19.9-1.62 17-12.4 25.9-32.2 26.6-23.4 0.848-34.2-6.91-32.6-23.3 1.9-19.2 11.8-29.7 29.7-31.5z" fill="#c73876"/>
  <path d="m370 276q15.1-10.9 22.1-12.7 5.25-1.33 10.9 11.3 4.22 9.55-1.01 34.6-3.94 18.9-30.7 12-20.1-5.15-24-9.81-2.89-3.51 0.297-13.5 2.4-7.49 22.5-22z" fill="#aa8e8f"/>
  <path d="m158 304c-10.2 18.4-17.9 34.1-13.1 40.1 8.31 10.3 13.9 34.9 24.9 38.2 15.4 3.18 39.3 0.201 43.6-9.67 11.3-13.5 8.12-35.7 6.47-51.2-0.446-4.18-6.14-12.3-22.3-24.9-13.6-3.98-34.7 0.727-39.6 7.47z" fill="#559c8f"/>
  <path d="m168 127c-5.25 1.47-16.2 2.53-16.2 2.53l-24.1-4.98c-14.6 2.57-7.89 12.5-11.4 22.6-4.55 13.8-4.09 22 0.432 31.5 1.24 2.6 5.9 2.7 6.65 5.54l3.56 13.5c-0.693 5.31-0.656 6.02 2.29 7.45 24 11.6 36.5 16.2 37.5 13.8 5.95-14.7 29.1-26.9 40.3-32.5 3.74 0.278 7.54 0.561 12.2 0.893 1.4 0.1 9.47-15.3 8.01-23.4-1.4-7.9-12.9-7.4-15.3-18.7-0.1-0.6-1.7-9.57-30.9-23.6-4.24-2.04-8.55 4.11-13.1 5.38z" fill="#424229"/>
  <path d="m385 176q1.55-1.88 33.8-3.05 32.6-1.18 39.6 6.87 7.11 8.14 2.63 26.8-4.53 18.9-6.5 20.9-2 2-23.4 7.52-21.6 5.58-34.6-25.6-13.1-31.5-11.6-33.4z" fill="#c7557e"/>
  <path d="m371 327q26.9 6.88 29.4 11.5 3.3 6.25-0.684 15.2-5.38 12.1-22.6 21.9-23.2 13.1-24.4-15.3-1.61-38.4 18.4-33.3z" fill="#aaaa6e"/>
  <path d="m163 396c-1.79-8.71 10.3-10.8 17.4-9.3 17.2 3.55 26.7 6.52 28.6 8.9 4.5 5.76 6.53 12.1 6.08 19-1.08 16.8 10.5 60.4-7.55 80.3-6.28 6.92-24.2 12.6-27.5 5.32-8.13-17.5-6.58-53.4-7.32-57.1z" fill="#55c74f"/>
  <path d="m406 44.3c26.9 16.6 34.3 34.2 32.8 39.9-2.84 10.7 2.36 19.9-11.2 21.3-25.3 2.51-38.5 3.02-39.7 1.51-2.13-2.8-2.3-11.5-0.517-26 3.32-27 4.11-45.6 18.6-36.7z" fill="#c71c5c"/>
  <path d="m94.2 172q11.9-0.348 19.2 10.5 7.37 10.9 6.78 15.4-0.589 4.52-6.3 16.8-5.78 12.5-35.8 2.47-30.4-10.1-13.1-27.4 17.5-17.5 29.3-17.8z" fill="#1c55cf"/>
 </g>
</svg>
