<?xml version="1.0" encoding="UTF-8"?>
<svg width="512px" height="512px" contentScriptType="text/ecmascript" contentStyleType="text/css" version="1.1" viewBox="0 0 512 512" xmlns="http://www.w3.org/2000/svg">
 <g class="voronoi" stroke-width=".5">
  <path d="m458-37.1 39.9 3.59 31.6 25.6 4.85 5.94-17.3 17.4-55.1-29.8z" fill="#e3e3c9"/>
  <path d="m445-14.3 30.2 14 0.43 0.334 34.6 26.9s-7.21 11.4-11.8 16.3c-5.62 5.96-10.9 16.8-19 15.6-11.6-1.79-14.1-18.9-19.3-29.5-4.56-9.27-10.2-29.3-10.2-29.3z" fill="#e3006f"/>
  <path d="m318-32.9 34.7 13.3-17.3 19.5s-12.9 18.1-22.7 22c-2.1 0.841-7.22 2.17-6.79-0.0588 1.65-8.66 2.72-21.9 2.72-21.9l1.18-28z" fill="#8ee3e0"/>
  <path d="m533 148 16.4 59.2-1.36 0.59-14-1.31-22.2-14.1s-12.1-4.42-12.4-12.6c-0.326-8.58 12.4-16 12.4-16z" fill="#005528"/>
  <path d="m471 70.8c4.74-3.55 9.83-7.34 16.9-5.37 10.6 2.96 24.2 23.6 24.2 23.6l12.5 9.69 6.92 22.9-51-4.39s-19.2-2.73-23.3-10.1c-3.32-5.98 3-20.3 3-20.3s5.62-12.1 10.8-16z" fill="#e31caf"/>
  <path d="m361-16.4-35.5 34.2 0.582 0.17c-5.24 6.19-14 23.7-13.9 36.1 0.0307 3.28 8.06 22.9 9.5 25.2 0.382 0.627 15.8 6.35 49 3.27 7.66-0.709 12.6-12.6 15.4-35.2-0.558-6.2-1.38-13.1-0.0293-19.5 1.86-8.72 11.3-15.5 10.9-24.4-0.0529-1.31-1.89-3.46-1.89-3.46l-11-11.5z" fill="#aa0016"/>
  <path d="m498 128c4.55-0.174 13.9 1.83 13.9 1.83l15 4.11-26 27.6s-14.6 20.2-25.6 20.8c-5 0.258-9.92-3.98-12.6-8.24-7.35-11.8-13.7-30.6-5.04-41.5 8.37-10.6 26.3-4 40.2-4.54z" fill="#e3388e"/>
  <path d="m393 31.5c-2.05-7.1 7.56-20.8 7.56-20.8l27.8-17.7 31.9 48.6s7.38 23.6-0.753 28.4c-15.6 9.33-33.4-14.9-48.8-24.7-6.34-4.01-15.7-6.59-17.8-13.8z" fill="#c700b4"/>
  <path d="m501 61.8c1.09-6.72 10.6-12 10.6-12l10.4-5.52 33.8 35.2-7.42 29.5-1.82 1.62-11.2-7.47-23.7-24.9s-12-7.92-10.6-16.5z" fill="#001c34"/>
  <path d="m323 93.8c8.16-13.9 21.5-6.54 48.1-5.38 11.1 0.488 7.51 7.83 17.3 19.1 4.25 4.89 5.38 13 3.05 28.5-1.24 8.21-15.4 9.98-35.3 7.55-8.67-1.05-15.5-8.15-20.5-21.3-2.19-5.7-3.25-6.8-4.82-9.85-1.67-3.25-11.2-12.8-7.83-18.6z" fill="#aa38e1"/>
  <path d="m428 111c14.3-1.42 22.4-0.66 24.1 2.28 2.07 3.46 2.41 12.4 1.04 26.9-1.62 17-9.55 25.8-23.8 26.3-16.7 0.608-27-1.79-30.9-7.19-4.53-6.35-6.93-33.2-1.4-44.5 6.5-13.3 18.7-2.57 30.9-3.77z" fill="#c73834"/>
  <path d="m412 58.2c26.9 16.6 42.8 23 41.3 28.8-2.84 10.7-8.89 16.5-18.1 17.4-17.2 1.71-28.3-0.253-33.2-5.9-9.14-10.5-13.1-20.7-11.9-30.7 2.28-18.5 7.46-18.5 21.9-9.6z" fill="#c71cb1"/>
  <path d="m27.5 423c-8.88-0.721 2.3 26.6 2.3 26.6s-14.3 7.77-17 17.3c-2.76 9.77-3.58 34.2 11.2 27.8 14.8-6.37 18.1-11.3 33.3-16.4 12.8-4.25 29.9-16.6 23.9-30.7-4.53-10.6-40.7-23.6-53.7-24.6z" fill="#00d59e"/>
  <path d="m15.5 336-15.5-0.633-12.9-3.52 12.9 26.5s6.32 10.8 10.8 13.7c14 9.06 6.81 2.68 21.1 15.7 1.8 1.63 55.1-10.1 63.5-22 4.89-6.84 10.8-6.7 0.471-25.2-14.5-26-53.4-8.54-80.5-4.62z" fill="#00aa73"/>
  <path d="m153 479c7.81 0.317 5.96 3.97 10.2 10.6 4.09 6.37 4.43 22.3 4.43 22.3l-9.94 11.9-28.6-3.55 1.37-8.35s3.91-22.2 9.73-30.8c1.89-2.8 9.44-2.21 12.8-2.07z" fill="#38e3df"/>
  <path d="m-54.2 475 39.9 3.59 31.6 25.6 4.85 5.94-17.3 17.4-55.1-29.8z" fill="#e3e3c9"/>
  <path d="m-32.7 343 10.8-5.21 36.2 56 5.66 18.3-60.2 9.24-12.9 1.37 13.5-62.4z" fill="#e3aac9"/>
  <path d="m82.7 464c3.26-4.35 13.6-9.01 19-8.79 7.29 0.3 15 4.74 19.1 10.8 6.96 10.3 5.72 24.2 3.63 36.4-0.576 3.38-3.31 9.68-3.31 9.68l-7.9 15.5-20.3-15.5s-9.5-9.02-11.4-13.9c-5.07-12.7-6.08-24.5 1.23-34.2z" fill="#1ce39d"/>
  <path d="m-52.4 429 52.4-6.99s15.1-2.3 19.2 2.72c4.52 5.57 0.3 17.8-1.43 21.5l-17.8 21.5-5.6 5.73-46.2-7.54-1.61-33.9z" fill="#e3c7ec"/>
  <path d="m29.9 512 0.149-0.189 2.32-2.94s11.4-17.9 20.7-20c4.01-0.899 11.7 3.96 11.7 3.96l38.6 44.3-6 9.46-27.5 2.24z" fill="#1c0024"/>
  <path d="m123 380c34.5-21.3 37.4-29.9 54.8-20.9 9.32 4.86 11.7 20.9 7.62 30.6-4.38 10.3-26.2 17.6-29.1 16.7-24.4-8.2-36.7-12.7-36.9-13.4-1.62-6.11-0.407-10.4 3.64-12.9z" fill="#38aacb"/>
  <path d="m143 408c10.7 3.59 18.6 11.1 23.9 22.5 3.4 7.33 22.4 21.9 10.8 33.5-7.47 7.47-36 6.45-39.5 7.25-2.24 0.531-9.37-4.97-21.4-16.5-7.67-7.4-8.91-20.1-3.74-38 3.32-11.5 13.3-14.4 29.9-8.85z" fill="#38c75a"/>
  <path d="m112 319q5.93-10.8 39.6-10.1 21 0.404 23.6 16.9 1.68 10.3-0.243 15-1.2 2.93-36.8 24.9-22.2 13.7-27.8 8.47-3.5-3.23-6.2-24.5-1.68-13.3 7.85-30.6z" fill="#388eba"/>
  <path d="m36.7 403c14.3-14.3 24.4-19.2 30.1-19.8 22.3-2.32 23.6-5.15 34.7-1.73 3.29 1.02 7.87 4.86 8.24 6.24 1.45 5.44 1.3 11.1-0.426 17.1-6.8 23.5-0.0248 24.8-8.69 31.2-4.6 3.43-8.05 2.93-17.2-0.34-35.9-12.9-53.8-19.3-53.9-19.4-0.232-0.368-0.211-1.05 0.063-2.04 1.07-3.91 3.43-7.67 7.07-11.3z" fill="#1cc7b3"/>
  <path d="m173 405q19.6-14.3 26.6-10.7 16.8 8.8 16.1 19.9-1.72 26.7-12.3 26.2-25.4-1.27-29.3-9.52-9.24-19.9-1.12-25.9z" fill="#55c768"/>
 </g>
</svg>
