<?xml version="1.0" encoding="UTF-8"?>
<svg width="512px" height="512px" contentScriptType="text/ecmascript" contentStyleType="text/css" version="1.1" viewBox="0 0 512 512" xmlns="http://www.w3.org/2000/svg">
 <g class="voronoi" stroke-width=".5">
  <path d="m458-37.1 39.9 3.59 31.6 25.6 4.85 5.94-17.3 17.4-55.1-29.8z" fill="#e3e3c9"/>
  <path d="m361-16.4-35.5 34.2-19.7 3.72c-6.92 1.31-2.06 10.6-0.969 16.9l25.1 42.4c-0.581 2.81-0.863 5.86-0.832 9.16 0.024 2.63 13.4 5.64 40.2 9.03 7.08 0.895 12.6-15.1 16.7-48 0.986-15.8 5.33-34.4 11.2-48.8l-13.1-13.8z" fill="#aa0016"/>
  <path d="m41.1 411c16.6 11.6 36.5 18.1 43 38.8 4.6 14.6-16.5 10.7-30 18-15.9 8.69-37.1 33.3-46.9 18-7.76-12.1 10.6-23.9 14.4-36.3 2.69-8.78-4.98-30.2 4.15-31.1z" fill="#00c7e4"/>
  <path d="m445-14.3 30.2 14 0.43 0.334s32.5 12.4 34.6 26.9c0.941 6.64-5.66 13.6-11.8 16.3-5.68 2.45-18.4-2.4-18.4-2.4s-12-8.13-16.5-13.7c-6.27-7.9-13.6-27-13.6-27z" fill="#e3006f"/>
  <path d="m533 148 16.4 59.2-1.36 0.59-14-1.31-22.2-14.1s-8.62-4.19-8.93-12.3c-0.326-8.58 8.93-16.2 8.93-16.2z" fill="#005528"/>
  <path d="m-12.9 332 24.8 6.79s27.4 11.8 32.6 24.3c3.35 8.19-4.43 19.7-12.3 23.8-11 5.75-25.2-13.8-25.2-13.8l-7.06-14.6z" fill="#00aa73"/>
  <path d="m141 479c14.9-0.512 52.5 11.4 42.5 17.4-6.68 4.02-16.2 15.6-16.2 15.6l-9.94 11.9-28.6-3.55 1.37-8.35s-0.581-13.4 1.61-19.5c1.83-5.13 5.87-13.3 9.25-13.5z" fill="#38e3df"/>
  <path d="m449 72.4c1.39-5.67-0.0355-13.4 5.77-16.5 17-9.23 57.4 33.2 57.4 33.2l12.5 9.69 6.92 22.9-19.4-1.67s-21-2.15-31.6-1.37c-6.5 0.481-13.2 6.03-19.1 3.17-10.8-5.26-13.6-25.9-14.9-32.7-1.08-5.49 1.08-11.2 2.41-16.6z" fill="#e31caf"/>
  <path d="m499 126 28.2 7.71-26 27.6s-14.6 20.1-25.6 20.8c-8.53 0.531-19.4-9.16-21.7-13.6-6.36-12.2 0.362-24.1 10.5-36 9.08-10.7 34.6-6.48 34.6-6.48z" fill="#e3388e"/>
  <path d="m396 27.6c-3.21-6.66 3.84-17 3.84-17l27.8-17.7 4.63 7.05s29.9 28.3 22.7 43.3c-10.8 11-34.8-2.16-46.9-6.48 0 0-9.74-4.17-12.2-9.2z" fill="#c700b4"/>
  <path d="m-54.2 475 39.9 3.59 14.3 11.6s21.2 8.4 29.9 4.92c5.24-2.08-7.72 15.1-7.72 15.1l-17.3 17.4-55.1-29.8z" fill="#e3e3c9"/>
  <path d="m-32.7 343 10.8-5.21 21.9 33.9s9.61 11.6 16.6 17c5.21 3.99 22 4.14 19.6 11.5-3.89 11.8-36.3 15.1-36.3 15.1l-40.3 6.18-12.9 1.37 13.5-62.4z" fill="#e3aac9"/>
  <path d="m75.3 469c3.12-5.9 19.5-20.3 26.2-20.4 8.71-0.062 21.6 17.4 25.8 30 2.94 8.79-1.48 24.5-1.48 24.5l-12.6 24.7-32.7-25s-11.6-21.8-5.21-33.8z" fill="#1ce39d"/>
  <path d="m494 59.4 28.4-15.1 33.8 35.2-7.42 29.5-1.82 1.62-11.2-7.47-23.7-24.9z" fill="#001c34"/>
  <path d="m-52.4 429 52.4-6.99c6.87-0.0632 7.08 4.14 13.9 5.54s6.97 8.35 3.92 16.3c-3.73 9.68-17.8 23.9-17.8 23.9l-5.6 5.73-46.2-7.54-1.61-33.9z" fill="#e3c7ec"/>
  <path d="m29.9 512 0.149-0.189s-0.0122-2.87 0.544-4.15c4.55-10.5 16.2-33 27.2-36 6.77-1.84 14.5 14 13.9 18-1.63 11.1 9.71 22.1 9.71 22.1l22.1 25.3-6 9.46-27.5 2.24z" fill="#1c0024"/>
  <path d="m324 105q0.228-0.706 4.17-3.74 0.253-0.195 48 5.83 3.06 0.386 7.67 6.46 0.296 0.39-4.67 50.6-0.319 3.22-3.21 6.73-0.186 0.226-15 2.62-0.952 0.153-38.1-54-2.38-3.47 1.17-14.5z" fill="#aa38e4"/>
  <path d="m57.6 348c2.3-4.47 21.8-5.86 26.1-8.8 1.11-0.759 16 0.859 23.9 1.87 9.81 1.25 21.3-0.696 29.2 5.17 12 8.87 15.8 24.3 20.5 39.9 1.22 4.02-22.8 13.8-33.5 21.7-11.7 8.58-2.19 44.1-33.5 27.7-5.53-2.9-38.5-16.5-48.1-36.6-2.49-5.21 6.56-33.7 15.4-50.9z" fill="#38aac3"/>
  <path d="m165 428c4.49 9.68 3.86 32.3-7.76 44-7.44 7.44-14.4 3.78-21.7 1.36-7.34-2.42-7-5.93-19-17.5-7.68-7.39 2.56-28 5.29-37.6 1.77-6.13 15.7-12.7 33.1-19.2 14.6-1.78 6.07 20.6 10.1 29z" fill="#38c798"/>
  <path d="m418 111c21-2.09 26.9 5.32 28.6 8.27 2.07 3.46 7.92 5.44 6.55 19.9-1.62 17-12.4 25.9-32.2 26.6-23.4 0.848-34.2-6.91-32.6-23.3 1.9-19.2 11.8-29.7 29.7-31.5z" fill="#c73876"/>
  <path d="m406 44.3c26.9 16.6 34.3 34.2 32.8 39.9-2.84 10.7 2.36 19.9-11.2 21.3-25.3 2.51-38.5 3.02-39.7 1.51-2.13-2.8-2.3-11.5-0.517-26 3.32-27 4.11-45.6 18.6-36.7z" fill="#c71c5c"/>
 </g>
</svg>
