<?xml version="1.0" encoding="UTF-8"?>
<svg width="512px" height="512px" contentScriptType="text/ecmascript" contentStyleType="text/css" version="1.1" viewBox="0 0 512 512" xmlns="http://www.w3.org/2000/svg">
 <g class="voronoi" stroke-width=".5">
  <path d="m-13.2 126 28.2 7.71-26 27.6-25.6 20.8-12.6-8.24-3.62-33.7z" fill="#e3388e"/>
  <path d="m18.6 10.9c-7.15 0.59-13.7 16.6-13.7 16.6l-4.93 22.4-18 9.57 41.8 43.7 11.2 7.47 1.82-1.62s19.4-32 19-49.7c-0.194-9.33-11.1-25.7-11.1-25.7s-14.6-23.7-26.1-22.7z" fill="#001c34"/>
  <path d="m122 16.8c-5.37 2.31-9.9 7.58-11.6 13.2-5.08 16.9 7.78 37.2 7.3 52.6-0.633 17.5-10.5 39 6.69 41.6 14 2.13 71.7-63.5 64.3-82.4-6.57-14.7-42-23.9-42-23.9s-17.1-4.18-24.7-0.928z" fill="#380e40"/>
  <path d="m-41.1 70.8 11-5.22 42.6 33.1 6.92 22.9-51-4.39-23.3-10.1 3-20.3z" fill="#e31caf"/>
  <path d="m195-13 28 5.11-0.229 7.92-0.196 6.79s-9.91 22.2-22.9 27.5c-9.27 3.75-29.9-14-32.3-19.3-2.86-6.21 12.3-15 12.3-15z" fill="#550029"/>
  <path d="m86.9-50 14.6-13.7 19.3 17.6 5.01 36.9-4.68 9.17s-1.28 16.6-7.65 18c-8.88 2.02-20.5-18-20.5-18l-12.5-9.53z" fill="#1ce39d"/>
  <path d="m41.6 116c-8.32 3.31-13.6 10.1-19.7 16.3l-22 32.1-20.6 15.4 42.8 27.2c31.2 3.65 85.7-5.41 91.8-37.8 5.53-29.3 12.6-25.1 4.34-32.1-17.3-14.5-23.1-20.7-45.8-21.3-10.3 1.44-20.9-2.25-30.8 0.0898z" fill="#0e552c"/>
  <path d="m144-36 38.5 18.1-15 17.9s-5.14 10-9.94 11.9c-8.93 3.52-22.8 4.14-28.6-3.55-1.69-2.26 1.37-8.35 1.37-8.35l5.04-30.8z" fill="#38e3df"/>
  <path d="m29.9 0.189 0.149-0.189 2.32-2.94 20.7-20 11.7 3.96 16.6 19c6.91 10 31.4 24.5 16.1 34.8-7.88 4.76-19.7 16.4-30.6 13.6-19.6-4.98-37-48.2-37-48.2z" fill="#1c0080"/>
  <path d="m-54.2-37.1 39.9 3.59 31.6 25.6 4.85 5.94-1.93 1.95s-6.91 11.9-12.9 14c-2.35 0.814-7.36-1.17-7.36-1.17l-50.2-27.1z" fill="#e3e3c9"/>
  <path d="m68.4 65.1c8.29-8.29 12.6-18 21-20.4 8.61-2.42 14.6-0.829 18.1 4.78 3.53 5.73 5 16.7 4.41 33-0.601 16.7 2.88 26.9-6.51 33-8.41 5.5-12-3.59-29.5-6.51-21.3-3.58-26.3-3.73-23.5-15.3 2.89-11.9 7.88-20.5 16-28.6z" fill="#1c1cc6"/>
  <path d="m458-37.1 39.9 3.59 31.6 25.6 4.85 5.94-17.3 17.4-55.1-29.8z" fill="#e3e3c9"/>
  <path d="m445-14.3 30.2 14 0.43 0.334 34.6 26.9s-7.21 11.4-11.8 16.3c-5.62 5.96-10.9 16.8-19 15.6-11.6-1.79-14.1-18.9-19.3-29.5-4.56-9.27-10.2-29.3-10.2-29.3z" fill="#e3006f"/>
  <path d="m318-32.9 34.7 13.3-17.3 19.5s-12.9 18.1-22.7 22c-2.1 0.841-7.22 2.17-6.79-0.0588 1.65-8.66 2.72-21.9 2.72-21.9l1.18-28z" fill="#8ee3e0"/>
  <path d="m533 148 16.4 59.2-1.36 0.59-14-1.31-22.2-14.1s-12.1-4.42-12.4-12.6c-0.326-8.58 12.4-16 12.4-16z" fill="#005528"/>
  <path d="m471 70.8c4.74-3.55 9.83-7.34 16.9-5.37 10.6 2.96 24.2 23.6 24.2 23.6l12.5 9.69 6.92 22.9-51-4.39s-14.4-3.75-18.5-11.1c-3.32-5.98-1.82-19.3-1.82-19.3s5.62-12.1 10.8-16z" fill="#e31caf"/>
  <path d="m361-16.4-35.5 34.2 0.582 0.17c-5.24 6.19 2.46 63.7 2.58 76.1 0.0307 3.28 0.767 6.11 2.21 8.48 23.4-21.2 52.1-32.5 55.2-55.2-0.558-6.2-1.38-13.1-0.0293-19.5 1.86-8.72 11.3-15.5 10.9-24.4-0.0529-1.31-1.89-3.46-1.89-3.46l-11-11.5z" fill="#aa0016"/>
  <path d="m498 128c4.55-0.174 13.9 1.83 13.9 1.83l15 4.11-26 27.6s-14.6 20.2-25.6 20.8c-5 0.258-9.92-3.98-12.6-8.24-7.35-11.8-2.61-34.7 6.05-45.6 8.37-10.6 15.9-5.43 29.1-0.485z" fill="#e3388e"/>
  <path d="m393 31.5c-2.05-7.1 7.56-20.8 7.56-20.8l27.8-17.7 31.9 48.6s7.38 23.6-0.753 28.4c-15.6 9.33-33.4-14.9-48.8-24.7-6.34-4.01-15.7-6.59-17.8-13.8z" fill="#c700b4"/>
  <path d="m501 61.8c1.09-6.72 10.6-12 10.6-12l10.4-5.52 33.8 35.2-7.42 29.5-1.82 1.62-11.2-7.47-23.7-24.9s-12-7.92-10.6-16.5z" fill="#001c34"/>
  <path d="m27.5 423c-8.88-0.721 2.3 26.6 2.3 26.6s-14.3 7.77-17 17.3c-2.76 9.77-3.58 34.2 11.2 27.8 14.8-6.37 18.1-11.3 33.3-16.4 12.8-4.25 29.9-16.6 23.9-30.7-4.53-10.6-40.7-23.6-53.7-24.6z" fill="#00d59e"/>
  <path d="m399 52.4c-3.9-0.0413-1.72 5.87-7.63 10.2-20.9 15.5-58.9 46.3-58.9 47.4 0.586 4.59 1.89 8.81 3.2 12.2 11.2 24.7 51.2 33.1 63.2 37 10.1 3.03 14.2 7.8 30.9 7.19 14.2-0.533 22.2-9.3 23.8-26.3 1.22-12.9 1.16-18.2 0.43-26.4-0.187-2.11 0.962-17.4-1.93-27.8-2.79-10.1-2.05-5.26-29-21.9-5.87-3.62-20.9-11.7-24.1-11.7z" fill="#bd2f7f"/>
  <path d="m15.5 336-15.5-0.633-12.9-3.52 12.9 26.5s6.32 10.8 10.8 13.7c14 9.06 43.7 8.59 43.7 8.59 2.11 1.2 34.2-5.58 40.9-14.9s10.8-6.7 0.471-25.2c-14.5-26-53.4-8.54-80.5-4.62z" fill="#00aa73"/>
  <path d="m153 479c7.81 0.317 5.96 3.97 10.2 10.6 4.09 6.37 4.43 22.3 4.43 22.3l-9.94 11.9-28.6-3.55 1.37-8.35s3.91-22.2 9.73-30.8c1.89-2.8 9.44-2.21 12.8-2.07z" fill="#38e3df"/>
  <path d="m187 445s23.3 0.345 31.7 7.13c7.03 5.64 11.5 24.5 11.5 24.5s-7.71 16.9-15.6 19.6c-11 3.8-23.7-2.68-34-8.15-9.58-5.09-20.6-9.34-19.9-20.2 0.825-12.3 26.3-23 26.3-23z" fill="#55e3b4"/>
  <path d="m196 502c8.56-2.28 19.2-5.52 25.2 1.85 1.66 2.05 1.66 8.12 1.66 8.12l-0.196 6.79-13.3 39.9-7.78-2.98-37.4-30.4 15.6-13.3s9.75-8.26 16.2-9.98z" fill="#550029"/>
  <path d="m-54.2 475 39.9 3.59 31.6 25.6 4.85 5.94-17.3 17.4-55.1-29.8z" fill="#e3e3c9"/>
  <path d="m-32.7 343 10.8-5.21 36.2 56 5.66 18.3-60.2 9.24-12.9 1.37 13.5-62.4z" fill="#e3aac9"/>
  <path d="m82.7 464c3.26-4.35 13.6-9.01 19-8.79 7.29 0.3 15 4.74 19.1 10.8 6.96 10.3 5.72 24.2 3.63 36.4-0.576 3.38-3.31 9.68-3.31 9.68l-7.9 15.5-20.3-15.5s-9.5-9.02-11.4-13.9c-5.07-12.7-6.08-24.5 1.23-34.2z" fill="#1ce39d"/>
  <path d="m-52.4 429 52.4-6.99s15.1-2.3 19.2 2.72c4.52 5.57 0.3 17.8-1.43 21.5l-17.8 21.5-5.6 5.73-46.2-7.54-1.61-33.9z" fill="#e3c7ec"/>
  <path d="m29.9 512 0.149-0.189 2.32-2.94s11.4-17.9 20.7-20c4.01-0.899 11.7 3.96 11.7 3.96l38.6 44.3-6 9.46-27.5 2.24z" fill="#1c0024"/>
  <path d="m123 380c34.5-21.3 40.5-28.5 57.6-18 7.99 4.89 8.75 19.2 4.76 27.7-4.76 10.1-18 15.7-29.1 16.7-13 1.13-30.9-1.76-36.9-13.4-2.04-3.98-0.407-10.4 3.64-12.9z" fill="#38aac6"/>
  <path d="m143 408q16 5.38 23.9 22.5 5.1 11-12.3 28.4-11.2 11.2-16.4 12.4-3.36 0.796-21.4-16.5-11.5-11.1-3.74-38 4.98-17.2 29.9-8.85z" fill="#38c736"/>
  <path d="m175 340c5.21 13.9-13.1 10.3-36.8 24.9-14.8 9.13-24.1 12-27.8 8.47-2.33-2.15-4.4-10.3-6.2-24.5-5.81-35 62.4-31.1 70.8-8.87z" fill="#388e64"/>
  <path d="m36.7 403q21.4-21.4 29.9-22.3 33.4-3.46 35.3-1.75 7.26 6.71 7.81 8.79 2.17 8.16-0.426 17.1-10.2 35.2-10.6 35.3-1.56 0.465-15.3-4.44-53.8-19.3-53.9-19.4-0.348-0.552 0.063-2.04 1.61-5.86 7.07-11.3z" fill="#1cc782"/>
  <path d="m173 405q19.6-14.3 26.6-10.7 16.8 8.8 16.1 19.9-1.72 26.7-12.3 26.2-25.4-1.27-29.3-9.52-9.24-19.9-1.12-25.9z" fill="#55c77b"/>
 </g>
</svg>
