<?xml version="1.0" encoding="UTF-8"?>
<svg width="512px" height="512px" contentScriptType="text/ecmascript" contentStyleType="text/css" version="1.1" viewBox="0 0 512 512" xmlns="http://www.w3.org/2000/svg">
 <g class="voronoi" stroke-width=".5">
  <path d="m479 426c10.8-2.22 32.8-3.92 32.8-3.92l18.6-2.48 2.17 0.445 0.978 25.5-21.8 22.3s-5.73 3.85-8.26 4.73c-13.5 4.66-29.1 6.8-39.8-4.61-5.16-5.52-12.5-15.3-5.93-24.5 4.16-5.85 14.1-16 21.2-17.4z" fill="#e3c7ec"/>
  <path d="m339 418c-7.07 4.72-22.2 57.7-26.2 65.3-4.31 8.28-4.69 28.4-4.69 28.4l-0.707 16.7 14.4-1.89 13.1-14.8 22.7-20.7c2.31-2.11 14.5 1.86 20.9-3.28 5.33-4.28-1.5-14.2-1.5-14.2s-9.25-15-15.4-23.9c-7.43-10.8 1.46-35.3-22.7-31.7z" fill="#8ee3e0"/>
  <path d="m507 315 11.3-12.7 25.7-8.73 24.8 23-13 25.3-42-12.8-1.68-3.53z" fill="#008ebf"/>
  <path d="m470 488c5.6-7.2 18.2-2.53 27.3-1.7 4.89 0.449 14.3 3.58 14.3 3.58l17.3 14 4.85 5.94-17.3 17.4-28.7-15.5s-12.5-7.7-16-13.8c-1.69-2.94-3.96-7.32-1.88-9.99z" fill="#e3e3c9"/>
  <path d="m485 341c13 3.63 27.4 31.5 27.4 31.5l14.3 22.1 5.66 18.3-20 3.06-26.4 4.52s-18.3 0.607-21.2-2.61c-14.2-15.8 7.98-56.7 7.98-56.7 2.8-5.92 6-21.6 12.2-20.1z" fill="#e3aac9"/>
  <path d="m393 543 7.56-20.8 27.8-17.7 31.9 48.6-0.753 28.4-48.8-24.7z" fill="#c700b4"/>
  <path d="m501 339c1.12-4.14 11-3.81 11-3.81l12 3.27 32.6 24.3-4.04 26.2-33.4-16.2-7.06-14.6s-12.8-12.5-11-19.2z" fill="#00aa73"/>
  <path d="m445 498c0.805-4.68 2.76-11.9 8.9-11.1 10.7 1.28 21.8 25.4 21.8 25.4l34.6 26.9-11.8 16.3-19 15.6-19.3-29.5s-6.78-19.5-10.2-29.3c-1.66-4.77-5.83-9.34-4.98-14.3z" fill="#e3006f"/>
  <path d="m363 420c-3.57 1.52-1.59 15.6 0.439 19.6 6.57 11.9 16.7 22.1 18.3 28.6l6.53 27s7.83 12.1 14.2 13.2c12.1 2.16 34-14.2 34-14.2l6.21-6.11s7.1-12.1 8.5-18.9c2.34-11.2-1.25-31.9-11.9-34.4-7.4-1.78-14.3-0.808-21.4-1.95-18.5-3-50.7-14.6-54.8-12.9z" fill="#b9d56e"/>
  <path d="m363 496c7.56-2.18 20.9 4.44 20.9 4.44l13.1 13.8-11.2 25.7-19.1 1.93-41.4-12 18.5-17.8s11.6-13.9 19.2-16.1z" fill="#aa0016"/>
  <path d="m386 366c3.71-0.499 6.43 0.114 8.14 1.84 38 38.3 55.9 43.2 57 57.5 0.0932 1.2-1.49 2.59-2.51 2.58-21.7-0.86-33.3-1.46-34.7-1.8 0 0-33.1-1.7-39.7-14.1-7.43-14 4.74-30.1 11.8-45.9z" fill="#c7c716"/>
  <path d="m389 294q14.2-6.98 18.2 32.9 1.59 15.7-13.1 26.6-5.77 4.27-9.95 4.83-1.65 0.221-17.1-12.3-6.08-4.94-11.8-26-2.25-8.31 33.7-26z" fill="#aa8eb1"/>
  <path d="m405 353c6.19-4.58 19.4-6.96 39.6-7.16 16.9-0.166 15.9 11 9.9 38.5-4.99 22.9-11.9 26-33.5 4.16-18.1-18.2-23.4-30-16-35.5z" fill="#c7aa89"/>
  <path d="m455 286c14.3 4.98 27.7 12.3 41 25.9 11.5 11.8 2.7 22 0.97 23.7-1.51 1.51-36.5 5.19-56.3 5.38-17.2 0.171-26.8-9.66-28.9-29.5-1.75-17.3-8.16-22-2.37-26.2s31.4-4.29 45.6 0.685z" fill="#c78e87"/>
  <path d="m353 348q5.14-2.86 21.9 10.8 4.73 3.84-10.6 41.5-4.34 10.6-24.8 5.87-5.77-1.34-4.95-37.8 0.229-10.3 18.5-20.4z" fill="#aaaabf"/>
 </g>
</svg>
