<?xml version="1.0" encoding="UTF-8"?>
<svg width="512px" height="512px" contentScriptType="text/ecmascript" contentStyleType="text/css" version="1.1" viewBox="0 0 512 512" xmlns="http://www.w3.org/2000/svg">
 <g class="voronoi" stroke-width=".5">
  <path d="m366 326c-10.1 0.197-14.7 11.5-13.7 33.9 0.8 18.9 8.93 24 24.4 15.3 6.52-3.71 11.4-7.73 17.9-7.5 12.6 0.443 29.2 10.1 33.8 17 19.4 19.6 21.1 23.2 26.1 0.32 13-23.1 18.6-30.6 11.3-43.8-9.85-17.7-41.5-13.4-58-18.1-14-4.02-28.7 2.69-41.6 2.86z" fill="#b9aa61"/>
  <path d="m460 429 71-9.47 2.17 0.445 0.978 25.5-21.8 22.3s-6.11 3.09-8.65 3.92c-14.8 4.88-43.2-5.73-43.2-5.73l-1.61-33.9z" fill="#e3c7ec"/>
  <path d="m465 483c9.04-9.85 32.4-4.73 32.4-4.73l31.6 25.6 4.85 5.94-17.3 17.4-28.7-15.5s-22.4-5.14-26.5-14.3c-2.01-4.53-1.65-8.77 3.56-14.4z" fill="#e3e3c9"/>
  <path d="m479 349c6.19-0.84 7.9 6.02 12 8.83 6.98 4.81 21.4 13.8 21.4 13.8l14.3 22.1 5.66 18.3-20 3.06s-27.8 7.74-40.4 2.84c-4.79-1.86-6.63-5.44-9.52-8.66-14.2-15.8 2.85-29.1 10.3-49 1.51-4.02 0.0647-10.4 6.24-11.3z" fill="#e3aac9"/>
  <path d="m393 543 7.56-20.8 16.7-10.6s7.11-9.33 11.4-8.41c2.75 0.592 4.34 8.41 4.34 8.41l27.3 41.5-0.753 28.4-48.8-24.7z" fill="#c700b4"/>
  <path d="m500 344c0.548-5.03 12.2-9.02 12.2-9.02l12 3.27 32.6 24.3-4.04 26.2-33.4-16.2-7.06-14.6s-12.9-7.84-12.2-14z" fill="#00aa73"/>
  <path d="m452 506c6.73-2.1 23.9 5.97 23.9 5.97l0.43 0.334 34.6 26.9-11.8 16.3-19 15.6-19.3-29.5-10.2-29.3s-1.56-5.38 1.4-6.3z" fill="#e3006f"/>
  <path d="m372 427c-15.9 4.75-46.5 42.6-31 53.2l10.8 7.36 36.9 6.08c6.31 1.04 7.89 15.8 14.2 13.7 13.3-4.42 29.8-8.65 40.5-19.5 4.82-4.93 8.5-18.9 8.5-18.9s-0.417-16-8.41-24.3c-6.77-6.99-4.75-15.3-21.2-11.5-18.8 4.39-36-10.4-50.3-6.14z" fill="#b4da5d"/>
  <path d="m362 500c7.43-1.9 14.5-1.74 21.4 2.09 4.63 2.58 11.9 10.3 11.9 10.3l2.15 2.25-11.2 25.7-19.1 1.93-41.4-12 18.5-17.8s10.2-10.5 17.8-12.4z" fill="#aa0016"/>
  <path d="m367 387c25.8-14.6 20.6-15.2 31.9-12.9 23.7 4.86 45.3 39.3 51.2 51.6 5.35 11.2-31.3 1.94-37.2 0.777-31.8-7.6-47.8-11.7-48.1-12.2-2.44-8.23-5.96-22.5 2.25-27.2z" fill="#c7c716"/>
  <path d="m345 358c7.53 0.0573 6.18 26 11.4 35.4 1.68 3.03 4.7 25.9 0.211 37.6-2.49 6.49 4.85-3.48-14 15.4-6.05 6.05-5.6 28.3-16.6 28.5-18.3 0.355-27-28.3-29.5-46.5-2.2-15.7 2.64-19.1 13.5-45.7 5.7-13.9 26.8-24.7 35-24.7z" fill="#8ec7ba"/>
 </g>
</svg>
