<?xml version="1.0" encoding="UTF-8"?>
<svg width="512px" height="512px" contentScriptType="text/ecmascript" contentStyleType="text/css" version="1.1" viewBox="0 0 512 512" xmlns="http://www.w3.org/2000/svg">
 <g class="voronoi" stroke-width=".5">
  <path d="m458-37.1 39.9 3.59 31.6 25.6 4.85 5.94-17.3 17.4-55.1-29.8z" fill="#e3e3c9"/>
  <path d="m361-16.4-35.5 34.2c-15.5 15.5-16.5 15.1-24.9 22.5-24.5 19.2-34.3 50.6-16.6 51.6 12.4 4.49 41.4 4.11 53.1 4.71 10.7 0.546 16.2 0.347 32.2 2.37 7.08 0.895 12.6-15.1 16.7-48 0.986-15.8 5.33-34.4 11.2-48.8l-13.1-13.8z" fill="#aa0016"/>
  <path d="m460 429 71-9.47 2.17 0.445 0.978 25.5-21.8 22.3s-6.11 3.09-8.65 3.92c-14.8 4.88-43.2-5.73-43.2-5.73l-1.61-33.9z" fill="#e3c7ec"/>
  <path d="m445-14.3 30.2 14 0.43 0.334s32.5 12.4 34.6 26.9c0.941 6.64-5.66 13.6-11.8 16.3-5.68 2.45-18.4-2.4-18.4-2.4s-12-8.13-16.5-13.7c-6.27-7.9-13.6-27-13.6-27z" fill="#e3006f"/>
  <path d="m465 483c9.04-9.85 32.4-4.73 32.4-4.73l31.6 25.6 4.85 5.94-17.3 17.4-28.7-15.5s-22.4-5.14-26.5-14.3c-2.01-4.53-1.65-8.77 3.56-14.4z" fill="#e3e3c9"/>
  <path d="m533 148 16.4 59.2-1.36 0.59-14-1.31-22.2-14.1s-8.62-4.19-8.93-12.3c-0.326-8.58 8.93-16.2 8.93-16.2z" fill="#005528"/>
  <path d="m479 349c6.19-0.84 7.9 6.02 12 8.83 6.98 4.81 21.4 13.8 21.4 13.8l14.3 22.1 5.66 18.3-20 3.06s-27.8 7.74-40.4 2.84c-4.79-1.86-6.63-5.44-9.52-8.66-14.2-15.8 2.85-29.1 10.3-49 1.51-4.02 0.0647-10.4 6.24-11.3z" fill="#e3aac9"/>
  <path d="m393 543 7.56-20.8 16.7-10.6s7.11-9.33 11.4-8.41c2.75 0.592 4.34 8.41 4.34 8.41l27.3 41.5-0.753 28.4-48.8-24.7z" fill="#c700b4"/>
  <path d="m449 72.4c1.39-5.67-0.0355-13.4 5.77-16.5 17-9.23 57.4 33.2 57.4 33.2l12.5 9.69 6.92 22.9-19.4-1.67s-21-2.15-31.6-1.37c-6.5 0.481-13.2 6.03-19.1 3.17-10.8-5.26-13.6-25.9-14.9-32.7-1.08-5.49 1.08-11.2 2.41-16.6z" fill="#e31caf"/>
  <path d="m500 344c0.548-5.03 12.2-9.02 12.2-9.02l12 3.27 32.6 24.3-4.04 26.2-33.4-16.2-7.06-14.6s-12.9-7.84-12.2-14z" fill="#00aa73"/>
  <path d="m452 506c6.73-2.1 23.9 5.97 23.9 5.97l0.43 0.334 34.6 26.9-11.8 16.3-19 15.6-19.3-29.5-10.2-29.3s-1.56-5.38 1.4-6.3z" fill="#e3006f"/>
  <path d="m499 126 28.2 7.71-26 27.6s-14.6 20.1-25.6 20.8c-8.53 0.531-19.4-9.16-21.7-13.6-6.36-12.2 0.362-24.1 10.5-36 9.08-10.7 34.6-6.48 34.6-6.48z" fill="#e3388e"/>
  <path d="m341 480 10.8 7.36 33 9.61c3.11 5.59 11.6 8.97 18.1 10.2 11.9-7.34 29.8-8.65 40.5-19.5 4.82-4.93 8.5-18.9 8.5-18.9s-0.417-16-8.41-24.3c-6.77-6.99-21.2-11.5-21.2-11.5-22.1 3.37-46-17.1-61.1-7.58-19.4 12.2-36.6 41.7-20.2 54.6z" fill="#b4da5d"/>
  <path d="m396 27.6c-3.21-6.66 3.84-17 3.84-17l27.8-17.7 4.63 7.05s29.9 28.3 22.7 43.3c-10.8 11-34.8-2.16-46.9-6.48 0 0-9.74-4.17-12.2-9.2z" fill="#c700b4"/>
  <path d="m362 500c7.43-1.9 14.5-1.74 21.4 2.09 4.63 2.58 11.9 10.3 11.9 10.3l2.15 2.25-11.2 25.7-19.1 1.93-41.4-12 18.5-17.8s10.2-10.5 17.8-12.4z" fill="#aa0016"/>
  <path d="m494 59.4 28.4-15.1 33.8 35.2-7.42 29.5-1.82 1.62-11.2-7.47-23.7-24.9z" fill="#001c34"/>
  <path d="m282 95.9c-0.272-4.45 44 7.33 46.7 5.31 0.169-0.13 16.2 1.81 48 5.83 2.04 0.257 4.6 2.41 7.67 6.46 0.197 0.26-1.36 17.1-4.67 50.6-0.213 2.15-1.28 4.39-3.21 6.73-0.124 0.151-5.12 1.02-15 2.62-0.635 0.102-16.4-21.2-27.4-28.4-14.9-9.76-39.5-4.27-50.2-18.6-6.09-8.2-1.87-30.6-1.87-30.6z" fill="#aa38e4"/>
  <path d="m358 393c8.64-9.91 25.9 4.57 38.8 7.26 18 3.75 53.8 12.3 53.8 12.3-0.689 2.78 2.01 15.1-2.86 15.1-21.7-0.86-33.3-1.46-34.7-1.8-31.8-7.6-47.8-11.7-48.1-12.2-2.47-6.73-11.7-15.2-6.89-20.7z" fill="#c7c716"/>
  <path d="m399 42.1c-8.06 0.602-9.09 17-11.8 38.9-3.95 20.3 2.32 44.6 0.967 61.5-1.6 16.4 9.2 24.1 32.6 23.3 19.8-0.7 30.6-9.6 32.2-26.6 1.37-14.5-8.82-37.9-9.86-41.8-8.87-33.3 20.9-45.2-11.6-48.6l-14.7-4.52c-2.72-1.67-16-2.37-17.9-2.23z" fill="#c72a3c"/>
  <path d="m366 326c-10.1 0.197-14.7 11.5-13.7 33.9 0.603 14.3 1.66 20.6 9.97 24.2 8.26 3.53 32.7 11.6 46 13.1 15.8 1.77 46.8 27.6 46.1-12-0.233-13.8 22-37.9 3.58-37.7-28.5 5.85-70.4-21.6-91.9-21.3z" fill="#b9aa2b"/>
  <path d="m340 159c16.5 23.8 13.3 18.6 7.09 21.5-10.1 4.82-17.9 6.55-23.2 5.2-8.73-2.22-13-8.06-18.7-13.1-8.05-7.11-26.8-14.5-21.6-23.9 9.3-16.7 45.7-5.13 56.4 10.3z" fill="#8e3863"/>
 </g>
</svg>
