<?xml version="1.0" encoding="UTF-8"?>
<svg width="512px" height="512px" contentScriptType="text/ecmascript" contentStyleType="text/css" version="1.1" viewBox="0 0 512 512" xmlns="http://www.w3.org/2000/svg">
 <g class="voronoi" stroke-width=".5">
  <path d="m458-37.1 39.9 3.59 31.6 25.6 4.85 5.94-17.3 17.4-55.1-29.8z" fill="#e3e3c9"/>
  <path d="m361-16.4-35.5 34.2-19.7 3.72c-6.92 1.31-2.06 10.6-0.969 16.9l25.1 42.4c-0.581 2.81-0.863 5.86-0.832 9.16 0.024 2.63 13.4 5.64 40.2 9.03 7.08 0.895 12.6-15.1 16.7-48 0.986-15.8 5.33-34.4 11.2-48.8l-13.1-13.8z" fill="#aa0016"/>
  <path d="m-13.2 126 13.2 3.6s4.9 1.36 6.31 6.37c1.98 7.04-6.31 13.7-6.31 13.7l-10.9 11.6-25.6 20.8-12.6-8.24-3.62-33.7z" fill="#e3388e"/>
  <path d="m460 429 71-9.47 2.17 0.445 0.978 25.5-21.8 22.3s-6.11 3.09-8.65 3.92c-14.8 4.88-43.2-5.73-43.2-5.73l-1.61-33.9z" fill="#e3c7ec"/>
  <path d="m4.93 27.5c0.0781-7.17 6.66-15.1 13.7-16.6 13-2.79 25.8 4.63 33.1 15.8 5.6 8.59 9.63 24.6 1.38 30.7-10.2 7.53-22.8-3.45-33.1-10.8-6.57-4.72-15.1-11-15-19.1z" fill="#00009c"/>
  <path d="m445-14.3 30.2 14 0.43 0.334s32.5 12.4 34.6 26.9c0.941 6.64-5.66 13.6-11.8 16.3-5.68 2.45-18.4-2.4-18.4-2.4s-12-8.13-16.5-13.7c-6.27-7.9-13.6-27-13.6-27z" fill="#e3006f"/>
  <path d="m465 483c9.04-9.85 32.4-4.73 32.4-4.73l31.6 25.6 4.85 5.94-17.3 17.4-28.7-15.5s-22.4-5.14-26.5-14.3c-2.01-4.53-1.65-8.77 3.56-14.4z" fill="#e3e3c9"/>
  <path d="m122 16.8c-5.37 2.31-11.6 13.2-11.6 13.2-14.7 12.4-35 18.6-46.8 30.1-8.12 8.12-13.6 18.1-16.5 30-2.83 11.6 7.1 17.7 29.8 18.4 8.98 0.254 15.7-2.4 21.6-3.68 17.6-3.79 18.6 9.15 28.3 12.6 4.85 1.7 3.24 3.75 14.9 3.9 13.3 0.175 21.7-0.851 25.2-3.08 3.97-2.53 7.3-9.76 9.98-21.7 1.69-18.2 28.1-45.5 11.8-54.8 0 0-26.5-19.5-42-23.9-7.91-2.26-17.1-4.18-24.7-0.928z" fill="#2f1393"/>
  <path d="m-41.1 70.8 11-5.22 42.6 33.1s7.44 9.21 2.41 15.4c-4.09 5.03-14.9 5.82-14.9 5.82l-31.6-2.72-23.3-10.1 3-20.3z" fill="#e31caf"/>
  <path d="m533 148 16.4 59.2-1.36 0.59-14-1.31-22.2-14.1s-8.62-4.19-8.93-12.3c-0.326-8.58 8.93-16.2 8.93-16.2z" fill="#005528"/>
  <path d="m479 349c6.19-0.84 7.9 6.02 12 8.83 6.98 4.81 21.4 13.8 21.4 13.8l14.3 22.1 5.66 18.3-20 3.06s-27.8 7.74-40.4 2.84c-4.79-1.86-6.63-5.44-9.52-8.66-14.2-15.8 2.85-29.1 10.3-49 1.51-4.02 0.0647-10.4 6.24-11.3z" fill="#e3aac9"/>
  <path d="m393 543 7.56-20.8 16.7-10.6s7.11-9.33 11.4-8.41c2.75 0.592 4.34 8.41 4.34 8.41l27.3 41.5-0.753 28.4-48.8-24.7z" fill="#c700b4"/>
  <path d="m-18 59.4 18-9.57s8-3.51 11.9-2.89c25.8 7.21 45.6 43.5 23 63.7l-11.2-7.47-23.7-24.9z" fill="#001c34"/>
  <path d="m449 72.4c1.39-5.67-0.0355-13.4 5.77-16.5 17-9.23 57.4 33.2 57.4 33.2l12.5 9.69 6.92 22.9-19.4-1.67s-21-2.15-31.6-1.37c-6.5 0.481-13.2 6.03-19.1 3.17-10.8-5.26-13.6-25.9-14.9-32.7-1.08-5.49 1.08-11.2 2.41-16.6z" fill="#e31caf"/>
  <path d="m500 344c0.548-5.03 12.2-9.02 12.2-9.02l12 3.27 32.6 24.3-4.04 26.2-33.4-16.2-7.06-14.6s-12.9-7.84-12.2-14z" fill="#00aa73"/>
  <path d="m452 506c6.73-2.1 23.9 5.97 23.9 5.97l0.43 0.334 34.6 26.9-11.8 16.3-19 15.6-19.3-29.5-10.2-29.3s-1.56-5.38 1.4-6.3z" fill="#e3006f"/>
  <path d="m86.9-50 14.6-13.7 19.3 17.6 5.01 36.9-4.68 9.17s-6.22 11.1-11.7 11.6c-6.69 0.567-16.5-11.6-16.5-11.6l-12.5-9.53z" fill="#1ce39d"/>
  <path d="m26.3 115c-6.62 2.8-8.94 13.5-10.1 19l0.102 0.0801c-0.8 3.93 9.46 7.91 12.8 13 10.2 15.6 12.5 40.8 21.2 51.9 1.29 1.7 10.4 10.4 16.5 8.89 16.6-14.7 38.9-45.8 45.1-63.9 4.21-12.8 4.94-20.8 2.21-23.9-2.4-2.73-15.6-4.43-39.5-5.11-21-0.593-31.8-0.572-32.4 0.0625l-0.0098 0.0488c-0.0193 0.0217-0.0076 0.0787-0.0078 0.123-5.36 0.2-10.9-2.2-15.9-0.172z" fill="#0e3868"/>
  <path d="m499 126 28.2 7.71-26 27.6s-14.6 20.1-25.6 20.8c-8.53 0.531-10.3-14.2-12.6-18.7-1.27-14.8-1.7-17.5 1.35-30.9 9.08-10.7 34.6-6.48 34.6-6.48z" fill="#e3388e"/>
  <path d="m372 427c-14.9 7.27-46.5 42.6-31 53.2l10.8 7.36 36.9 6.08c3.11 5.59 7.66 12.5 14.2 13.7 11.9-7.34 29.8-8.65 40.5-19.5 4.82-4.93 8.5-18.9 8.5-18.9s-0.417-16-8.41-24.3c-6.77-6.99-21.2-11.5-21.2-11.5-0.055-0.0247-0.111-0.0478-0.172-0.0625-17.4 2.37-31.9-9.08-50-6.15z" fill="#b4da5d"/>
  <path d="m144-36 38.5 18.1-15 17.9s-5.14 10-9.94 11.9c-8.93 3.52-20.2 4.56-25.9-3.13-1.69-2.26-1.28-8.77-1.28-8.77l5.04-30.8z" fill="#38e3df"/>
  <path d="m396 27.6c-3.21-6.66 3.84-17 3.84-17l27.8-17.7 4.63 7.05s29.9 28.3 22.7 43.3c-10.8 11-34.8-2.16-46.9-6.48 0 0-9.74-4.17-12.2-9.2z" fill="#c700b4"/>
  <path d="m29.9 0.189 0.149-0.189 2.32-2.94 20.7-20 11.7 3.96 16.6 19s11.4 7.54 12.3 18.7c0.284 3.72 0.176 7.35-3.44 11.5-4.26 4.9-3.48 5.74-12.2 2.75-17.1-5.89-48.1-32.8-48.1-32.8z" fill="#1c0024"/>
  <path d="m18.2 150c6.6-4.78 30.5 41.6 18 57.2-2.95 3.64-14-1.31-14-1.31l-42.8-27.2 20.6-15.4z" fill="#005528"/>
  <path d="m362 500c7.43-1.9 14.5-1.74 21.4 2.09 4.63 2.58 11.9 10.3 11.9 10.3l2.15 2.25-11.2 25.7-19.1 1.93-41.4-12 18.5-17.8s10.2-10.5 17.8-12.4z" fill="#aa0016"/>
  <path d="m-54.2-37.1 39.9 3.59 31.6 25.6 4.85 5.94-17.3 17.4-55.1-29.8z" fill="#e3e3c9"/>
  <path d="m494 59.4 28.4-15.1 33.8 35.2-7.42 29.5-1.82 1.62-11.2-7.47-23.7-24.9z" fill="#001c34"/>
  <path d="m324 105q0.228-0.706 4.17-3.74 0.253-0.195 48 5.83 3.06 0.386 7.67 6.46 0.296 0.39-4.67 50.6-0.319 3.22-3.21 6.73-0.186 0.226-15 2.62-0.952 0.153-38.1-54-2.38-3.47 1.17-14.5z" fill="#aa38e4"/>
  <path d="m311 256c-7.36 0.9-12.5 2.44-15.3 4.61-18.4 14.1-27.6 21.6-27.7 22.4-0.491 5.38-0.456 8.31 0.105 8.81 5.72 7.47 9.64 52.4 30.5 62.5 4.27 2.08 34.9-36.6 39.3-49.8 3.23-10.1 3.51-16.6 0.836-19.6-17.4-19.4-26.6-29.1-27.7-29z" fill="#8e80d2"/>
  <path d="m83.7 339c5.68-5.62 16 0.859 23.9 1.87 9.81 1.25 21.3-0.696 29.2 5.17 12 8.87 15.8 24.3 20.5 39.9 1.22 4.02-22.8 13.8-33.5 21.7-11.7 8.58-10.9 19.3-33.5 27.7-14.7-8.66-29.5-73.7-6.6-96.3z" fill="#38aac3"/>
  <path d="m358 393c25.8-14.6 51.8 3.01 53.4 4.61l38.8 27.5c0.032 0.26 0.0323 0.422 1e-3 0.487-0.693 1.43-1.53 2.13-2.51 2.09-21.7-0.86-33.3-1.46-34.7-1.8-31.8-7.6-42.1 2.11-54-12-4.5-5.33-9.22-16.2-1.02-20.9z" fill="#c7c716"/>
  <g>
   <path d="m311 189c-1.99 0.294-7.44 9.05-22.3 13.9-18.5 6-55.2 0.903-61.5 21.7-2.38 7.85 10.5 13.3 14.8 19.7 14.3 21.7 24.7 30 31.3 24.9 11.2-8.54 25.5-13.3 30.1-19 11.1-5.25 12.4-16 16.9-25 4.45-8.84 9.1-8.68 9.81-28-5.18-5.73-14.1-6.92-19.1-8.15z" fill="#806331"/>
   <path d="m228 361c-18 18.5-10.9 16.5-12.4 25.9-2.35 13.9 2.99 30.3 4.8 42.1 7.02 45.9 58.2-2.76 65.2-27.1 3.92-15 6.07-12.9-7.53-21.8-2.43-1.49-41.4-27.9-50-19.1z" fill="#71b931"/>
   <path d="m376 180c-9.33-3.86-15.4 2.61-16.2 3.01-3.2 2.74-22.4 9.2-23.4 12.8-0.747 20.5-11.8 29.6-18 44.4-1.55 3.73-8.58 6.47-4.75 11.1 16.4 18.4 34.5 33.7 38.8 30.7 12.8-9.24 29.1-19 36.8-25.6 4.45-1.2 6.78-1.96 6.96-2.27 4.36-7.6 6.1-12.5 5.21-14.6-13.2-13.7-7.87-52.1-25.5-59.4z" fill="#aa6360"/>
   <path d="m219 239c-15.2-1.47-38 23.3-38.7 24.3-2.78 4.2-3.85 7.14-1.04 10.8 3.48 4.52 3.37 2.84 6.9 5.61 13 10.2 25.2 15.2 30.9 21.9 4.73 5.6 5.44 17.7 8.11 26.5 1.58 5.23 1.38 11.3 4.67 15.7 12.6 16.6 17.8 11.7 52.9 33.5 2.03 1.3 7.59-11.3 7.62-17.7 0.0924-19.5-13.2-14.7-22.6-53.9-0.686-2.14-5.53-18.7-9.45-23-0.706-3.6-2.4-7.47-5.13-11.6-5.45-6.45-18.6-30.6-34.2-32.1z" fill="#638010"/>
   <path d="m138 411c11.1-4.13 20.2 1.36 27.2 16.5 4.49 9.68 3.86 32.3-7.76 44-7.44 7.44-14.4 3.78-21.7 1.36-7.34-2.42-7-5.93-19-17.5-7.68-7.39-10.1-15.9-7.37-25.5 1.77-6.13 11.3-12.4 28.7-18.9z" fill="#38c7f1"/>
   <path d="m418 111c-10.4 0.881-32.4-4.37-29.9 14.3 6.02 45.3-6.55 49.5 8.45 84.2 8.67 20.8 9.05 26.1 20.5 30 12.4 4.27 28.2-2.65 37.5-12 5.14-5.18 3.48-8.3 6.5-20.9 2.99-12.4 2.25-26-0.385-32.7-3.09-7.87-2.72-20.5-1.3-34.2 1.37-14.5-8.2-20.2-10.3-23.6-10.9-8.91-18.5-6.32-31.1-5.09z" fill="#c74726"/>
  </g>
  <path d="m271 151c18.6-1.91 27.5 18.4 33.9 33.9 4.24 10.2-17.2 12.8-27.1 16.3-13.2 4.74-14 4.11-41.7 6.12-14 1.02-10.6-12.4-11.1-20-0.495-7.9-5.45-12.8 8.84-22 21.8-14.1 15.6-12.1 37.1-14.3z" fill="#7155f0"/>
  <path d="m42.4 212c0.201-0.2 5.66-3.15 8.61-2.63 3.65 0.652 2.76 2.66 8.87 6.73 30.3 10.1 45.7 16.3 46.1 18.7 1.21 7.24 0.419 12.7-2.37 16.3-8.5 11.1-15.6 16.9-21.4 17.4-17.6 1.67-27.5-2.36-29.7-12.1-6.8-29.6-10.2-44.4-10.1-44.5z" fill="#1c7145"/>
  <path d="m179 288c-8.21-0.222-15.3 4.99-21.1 15.6-10.2 18.4-17.9 34.1-13.1 40.1 8.31 10.3 13.9 34.9 24.9 38.2 15.4 3.18 39.3 0.201 43.6-9.67 11.3-13.5 8.12-35.7 6.47-51.2-0.446-4.18-6.14-12.3-22.3-24.9-6.71-5.24-12.9-7.94-18.5-8.09z" fill="#559c8f"/>
  <path d="m304 45.5c12.1 20.7 18.2 32.4 18.2 35.2 0.0913 9.85-0.168 15-0.779 15.5-2.19 1.69-7.67 1.05-16.4-1.9-31.4-10.6-36.8-2.88-42.3-17.1-1.08-2.82-2.01-2.14 3.99-8.14 21.5-21.5 33.9-29.3 37.3-23.5z" fill="#8e1c3e"/>
  <g>
   <path d="m142 127c-14.6 2.57-22.1 10-25.6 20.1-13.2 25.3-12.5 31.9-31.4 49.2-11.5 11.5-7.17 20.7 13.1 27.4 20 6.69 31.9 5.86 35.8-2.47 3.67-15.5 16-30.3 20.1-43.7 6.13-5.54 8.84-14 8.13-25.3-1.07-16.7-7.77-25.1-20.1-25.3z" fill="#1f3818"/>
   <path d="m369 327c-12.3-0.164-22.7 21.7-21.7 45.7 0.8 18.9 34.5 8.99 51.7 13.4 9.04 2.31 22.5 9.62 31.6 12 14.8 13 20.1 8.13 24.6-12.2 12.7-22.6 6.19-38.9-11.3-39.4-22.7-4.36-52.5-17.8-74.8-19.4z" fill="#b9aad0"/>
   <path d="m163 396c4.49-7.67 10.3-10.8 17.4-9.3 17.2 3.55 26.7 6.52 28.6 8.9 4.5 5.76 6.53 12.1 6.08 19-1.08 16.8 1.65 34-5.37 33.6-17-0.849-28.6 9.87-31.9 2.61-8.13-17.5-16.6-51.7-14.7-54.9z" fill="#55c7a7"/>
  </g>
  <path d="m305 132q11.7-13.3 26.6 8.52 24.6 35.8 15.3 40.2-15.2 7.23-23.2 5.2-13.1-3.33-18.7-13.1-9.26-16-8.46-22.3 1.33-10.4 8.44-18.5z" fill="#8e3863"/>
  <path d="m406 44.3c26.9 16.6 34.3 34.2 32.8 39.9-2.84 10.7 2.36 19.9-11.2 21.3-25.3 2.51-38.5 3.02-39.7 1.51-2.13-2.8-2.3-11.5-0.517-26 3.32-27 4.11-45.6 18.6-36.7z" fill="#c71c5c"/>
 </g>
</svg>
