<?xml version="1.0" encoding="UTF-8" standalone="no"?>
<svg
   width="512px"
   height="512px"
   contentScriptType="text/ecmascript"
   contentStyleType="text/css"
   version="1.1"
   viewBox="0 0 512 512"
   id="svg178"
   sodipodi:docname="B01.svg"
   inkscape:version="1.2.2 (b0a8486541, 2022-12-01)"
   xmlns:inkscape="http://www.inkscape.org/namespaces/inkscape"
   xmlns:sodipodi="http://sodipodi.sourceforge.net/DTD/sodipodi-0.dtd"
   xmlns="http://www.w3.org/2000/svg"
   xmlns:svg="http://www.w3.org/2000/svg">
  <defs
     id="defs182" />
  <sodipodi:namedview
     id="namedview180"
     pagecolor="#ffffff"
     bordercolor="#000000"
     borderopacity="0.25"
     inkscape:showpageshadow="2"
     inkscape:pageopacity="0.0"
     inkscape:pagecheckerboard="0"
     inkscape:deskcolor="#d1d1d1"
     showgrid="false"
     inkscape:zoom="1.84375"
     inkscape:cx="283.38983"
     inkscape:cy="247.05085"
     inkscape:window-width="2490"
     inkscape:window-height="1376"
     inkscape:window-x="1990"
     inkscape:window-y="27"
     inkscape:window-maximized="1"
     inkscape:current-layer="svg178" />
  <g
     class="voronoi"
     stroke-width=".5"
     id="g176">
    <path
       d="m458-37.1 39.9 3.59 31.6 25.6 4.85 5.94-17.3 17.4-55.1-29.8z"
       fill="#e3e3c9"
       id="path2" />
    <path
       d="m361-16.4-35.5 34.2-19.7 3.72c-6.92 1.31-2.06 10.6-0.969 16.9l25.1 42.4c-0.581 2.81-0.863 5.86-0.832 9.16 0.024 2.63 13.4 5.64 40.2 9.03 7.08 0.895 12.6-15.1 16.7-48 0.986-15.8 5.33-34.4 11.2-48.8l-13.1-13.8z"
       fill="#aa0016"
       id="path4" />
    <path
       d="m-13.2 126 13.2 3.6s4.9 1.36 6.31 6.37c1.98 7.04-6.31 13.7-6.31 13.7l-10.9 11.6-25.6 20.8-12.6-8.24-3.62-33.7z"
       fill="#e3388e"
       id="path6" />
    <path
       d="m460 429 71-9.47 2.17 0.445 0.978 25.5-21.8 22.3s-6.11 3.09-8.65 3.92c-14.8 4.88-43.2-5.73-43.2-5.73l-1.61-33.9z"
       fill="#e3c7ec"
       id="path12" />
    <path
       d="m4.93 27.5c0.0781-7.17 6.66-15.1 13.7-16.6 13-2.79 25.8 4.63 33.1 15.8 5.6 8.59 9.63 24.6 1.38 30.7-10.2 7.53-22.8-3.45-33.1-10.8-6.57-4.72-15.1-11-15-19.1z"
       fill="#00009c"
       id="path16" />
    <path
       d="m445-14.3 30.2 14 0.43 0.334s32.5 12.4 34.6 26.9c0.941 6.64-5.66 13.6-11.8 16.3-5.68 2.45-18.4-2.4-18.4-2.4s-12-8.13-16.5-13.7c-6.27-7.9-13.6-27-13.6-27z"
       fill="#e3006f"
       id="path18" />
    <path
       d="m465 483c9.04-9.85 32.4-4.73 32.4-4.73l31.6 25.6 4.85 5.94-17.3 17.4-28.7-15.5s-22.4-5.14-26.5-14.3c-2.01-4.53-1.65-8.77 3.56-14.4z"
       fill="#e3e3c9"
       id="path24" />
    <path
       d="m122 16.8c-5.37 2.31-11.6 13.2-11.6 13.2-14.7 12.4-35 18.6-46.8 30.1-8.12 8.12-13.6 18.1-16.5 30-2.83 11.6 7.1 17.7 29.8 18.4 8.98 0.254 15.7-2.4 21.6-3.68 17.6-3.79 18.6 9.15 28.3 12.6 4.85 1.7 3.24 3.75 14.9 3.9 13.3 0.175 21.7-0.851 25.2-3.08 3.97-2.53 7.3-9.76 9.98-21.7 1.69-18.2 28.1-45.5 11.8-54.8 0 0-26.5-19.5-42-23.9-7.91-2.26-17.1-4.18-24.7-0.928z"
       fill="#2f1393"
       id="path28" />
    <path
       d="m-41.1 70.8 11-5.22 42.6 33.1s7.44 9.21 2.41 15.4c-4.09 5.03-14.9 5.82-14.9 5.82l-31.6-2.72-23.3-10.1 3-20.3z"
       fill="#e31caf"
       id="path30" />
    <path
       d="m533 148 16.4 59.2-1.36 0.59-14-1.31-22.2-14.1s-8.62-4.19-8.93-12.3c-0.326-8.58 8.93-16.2 8.93-16.2z"
       fill="#005528"
       id="path32" />
    <path
       d="m479 349c6.19-0.84 7.9 6.02 12 8.83 6.98 4.81 21.4 13.8 21.4 13.8l14.3 22.1 5.66 18.3-20 3.06s-27.8 7.74-40.4 2.84c-4.79-1.86-6.63-5.44-9.52-8.66-14.2-15.8 2.85-29.1 10.3-49 1.51-4.02 0.0647-10.4 6.24-11.3z"
       fill="#e3aac9"
       id="path36" />
    <path
       d="m393 543 7.56-20.8 16.7-10.6s7.11-9.33 11.4-8.41c2.75 0.592 4.34 8.41 4.34 8.41l27.3 41.5-0.753 28.4-48.8-24.7z"
       fill="#c700b4"
       id="path40" />
    <path
       d="m-18 59.4 18-9.57s8-3.51 11.9-2.89c25.8 7.21 45.6 43.5 23 63.7l-11.2-7.47-23.7-24.9z"
       fill="#001c34"
       id="path44" />
    <path
       d="m449 72.4c1.39-5.67-0.0355-13.4 5.77-16.5 17-9.23 57.4 33.2 57.4 33.2l12.5 9.69 6.92 22.9-19.4-1.67s-21-2.15-31.6-1.37c-6.5 0.481-13.2 6.03-19.1 3.17-10.8-5.26-13.6-25.9-14.9-32.7-1.08-5.49 1.08-11.2 2.41-16.6z"
       fill="#e31caf"
       id="path46" />
    <path
       d="m500 344c0.548-5.03 12.2-9.02 12.2-9.02l12 3.27 32.6 24.3-4.04 26.2-33.4-16.2-7.06-14.6s-12.9-7.84-12.2-14z"
       fill="#00aa73"
       id="path50" />
    <path
       d="m452 506c6.73-2.1 23.9 5.97 23.9 5.97l0.43 0.334 34.6 26.9-11.8 16.3-19 15.6-19.3-29.5-10.2-29.3s-1.56-5.38 1.4-6.3z"
       fill="#e3006f"
       id="path54" />
    <path
       d="m86.9-50 14.6-13.7 19.3 17.6 5.01 36.9-4.68 9.17s-6.22 11.1-11.7 11.6c-6.69 0.567-16.5-11.6-16.5-11.6l-12.5-9.53z"
       fill="#1ce39d"
       id="path56" />
    <path
       id="path58"
       d="m 26.300781,115 c -6.619993,2.8 -8.941563,13.48001 -10.101562,19 l 0.101562,0.0801 c -0.799999,3.92999 9.458832,7.91 12.798828,13 10.19999,15.59998 12.541181,40.8004 21.201172,51.90039 1.289999,1.7 10.449347,10.3737 16.529297,8.89453 16.603836,-14.70569 38.932972,-45.76901 45.060542,-63.92773 4.20667,-12.81999 4.94232,-20.78511 2.20899,-23.89844 -2.4,-2.72667 -15.566691,-4.43133 -39.500001,-5.11133 C 53.634964,114.34417 42.834551,114.36533 42.199219,115 l -0.0098,0.0488 c -0.01926,0.0217 -0.0076,0.0787 -0.0078,0.12305 -5.35912,0.20037 -10.887646,-2.19959 -15.88086,-0.17188 z"
       sodipodi:nodetypes="ccccccccccccc"
       style="fill:#0e3868;fill-opacity:1" />
    <path
       d="m 499,126 28.2,7.71 -26,27.6 c 0,0 -14.6,20.1 -25.6,20.8 -8.53,0.531 -10.2511,-14.2103 -12.5511,-18.6503 -1.26574,-14.78314 -1.70352,-17.54857 1.3511,-30.9497 9.08,-10.7 34.6,-6.48 34.6,-6.48 z"
       fill="#e3388e"
       id="path60"
       sodipodi:nodetypes="cccccccc" />
    <path
       d="m372 427c-14.9 7.27-46.5 42.6-31 53.2l10.8 7.36 36.9 6.08c3.11 5.59 7.66 12.5 14.2 13.7 11.9-7.34 29.8-8.65 40.5-19.5 4.82-4.93 8.5-18.9 8.5-18.9s-0.417-16-8.41-24.3c-6.77-6.99-21.2-11.5-21.2-11.5-0.055-0.0247-0.111-0.0478-0.172-0.0625-17.4 2.37-31.9-9.08-50-6.15z"
       fill="#b4da5d"
       id="path62" />
    <path
       d="m144-36 38.5 18.1-15 17.9s-5.14 10-9.94 11.9c-8.93 3.52-20.2 4.56-25.9-3.13-1.69-2.26-1.28-8.77-1.28-8.77l5.04-30.8z"
       fill="#38e3df"
       id="path66" />
    <path
       d="m396 27.6c-3.21-6.66 3.84-17 3.84-17l27.8-17.7 4.63 7.05s29.9 28.3 22.7 43.3c-10.8 11-34.8-2.16-46.9-6.48 0 0-9.74-4.17-12.2-9.2z"
       fill="#c700b4"
       id="path68" />
    <path
       d="m29.9 0.189 0.149-0.189 2.32-2.94 20.7-20 11.7 3.96 16.6 19s11.4 7.54 12.3 18.7c0.284 3.72 0.176 7.35-3.44 11.5-4.26 4.9-3.48 5.74-12.2 2.75-17.1-5.89-48.1-32.8-48.1-32.8z"
       fill="#1c0024"
       id="path78" />
    <path
       d="m18.2 150c6.6-4.78 30.5 41.6 18 57.2-2.95 3.64-14-1.31-14-1.31l-42.8-27.2 20.6-15.4z"
       fill="#005528"
       id="path80" />
    <path
       d="m362 500c7.43-1.9 14.5-1.74 21.4 2.09 4.63 2.58 11.9 10.3 11.9 10.3l2.15 2.25-11.2 25.7-19.1 1.93-41.4-12 18.5-17.8s10.2-10.5 17.8-12.4z"
       fill="#aa0016"
       id="path88" />
    <path
       d="m-54.2-37.1 39.9 3.59 31.6 25.6 4.85 5.94-17.3 17.4-55.1-29.8z"
       fill="#e3e3c9"
       id="path90" />
    <path
       d="m494 59.4 28.4-15.1 33.8 35.2-7.42 29.5-1.82 1.62-11.2-7.47-23.7-24.9z"
       fill="#001c34"
       id="path94" />
    <path
       d="m324 105q0.228-0.706 4.17-3.74 0.253-0.195 48 5.83 3.06 0.386 7.67 6.46 0.296 0.39-4.67 50.6-0.319 3.22-3.21 6.73-0.186 0.226-15 2.62-0.952 0.153-38.1-54-2.38-3.47 1.17-14.5z"
       fill="#aa38e4"
       id="path104" />
    <path
       d="m311 256c-7.36 0.9-12.5 2.44-15.3 4.61-18.4 14.1-27.6 21.6-27.7 22.4-0.491 5.38-0.456 8.31 0.105 8.81 5.72 7.47 9.64 52.4 30.5 62.5 4.27 2.08 34.9-36.6 39.3-49.8 3.23-10.1 3.51-16.6 0.836-19.6-17.4-19.4-26.6-29.1-27.7-29z"
       fill="#8e80d2"
       id="path108" />
    <path
       d="m 83.7,339.2 c 5.677792,-5.62308 16,0.859 23.9,1.87 9.81,1.25 21.3,-0.696 29.2,5.17 12,8.87 15.8,24.3 20.5,39.9 1.22,4.02 -22.8,13.8 -33.5,21.7 -11.7,8.58 -10.9,19.3 -33.5,27.7 -14.667403,-8.65716 -29.47071,-73.68968 -6.6,-96.34 z"
       fill="#38aac3"
       id="path110"
       sodipodi:nodetypes="accccca" />
    <path
       d="m 357.99,393.31 c 25.8,-14.6 51.82119,3.0112 53.35452,4.6112 L 450.19,425.41 c 0.032,0.26 0.0323,0.42233 10e-4,0.487 -0.69333,1.43333 -1.53,2.13 -2.51,2.09 -21.73333,-0.86 -33.3,-1.46 -34.7,-1.8 -31.8,-7.6 -42.08962,2.10821 -53.96963,-11.97883 C 354.51511,408.87661 349.7876,398.02073 357.99,393.31 Z"
       fill="#c7c716"
       id="path112"
       sodipodi:nodetypes="ccccccac" />
    <path
       id="path116"
       d="m 311.34961,189.29492 c -1.9878,0.2941 -7.44185,9.0531 -22.30859,13.88672 -18.45604,6.00061 -55.19763,0.90293 -61.49748,21.70898 -2.37614,7.84752 10.51104,13.29302 14.75724,19.67969 14.27999,21.65331 24.71217,29.95372 31.29883,24.90039 11.18268,-8.54338 25.5073,-13.2862 30.05469,-19.01953 11.07542,-5.25232 12.41626,-15.99654 16.93945,-24.98437 4.44808,-8.83859 9.09997,-8.68427 9.80664,-28.01758 -5.18245,-5.72644 -14.12143,-6.92392 -19.05078,-8.1543 z"
       sodipodi:nodetypes="csacccacc"
       style="fill:#806331;fill-opacity:1" />
    <path
       id="path120"
       d="m 228.0095,360.86559 c -17.96427,18.4737 -10.85266,16.47801 -12.44667,25.933 -2.34988,13.93852 2.98847,30.27425 4.80045,42.13305 7.01696,45.92358 58.16905,-2.75901 65.16381,-27.08235 C 289.44612,386.85215 291.59299,388.98233 278,380 c -2.42519,-1.49402 -41.42441,-27.94343 -49.9905,-19.13441 z"
       sodipodi:nodetypes="sasccs"
       style="fill:#71b931;fill-opacity:1" />
    <path
       id="path124"
       d="M 376.19922,179.99023 C 366.87153,176.12696 360.83333,182.60467 360,183 c -3.19556,2.741 -22.38448,9.19972 -23.35933,12.75002 -0.74666,20.46665 -11.84597,29.62313 -17.96679,44.35352 -1.54942,3.72884 -8.57542,6.47183 -4.74805,11.14453 16.38664,18.35998 34.49344,33.74567 38.77344,30.65234 12.77162,-9.23876 29.08564,-19.0126 36.83203,-25.64258 4.44967,-1.19951 6.78145,-1.9579 6.95898,-2.26758 4.36,-7.59999 6.09566,-12.46628 5.20899,-14.59961 -13.19507,-13.66131 -7.87066,-52.09881 -25.50005,-59.40041 z"
       sodipodi:nodetypes="sccacccccs"
       style="fill:#aa6360;fill-opacity:1" />
    <path
       id="path126"
       d="m 218.81055,238.89062 c -15.16139,-1.46831 -38.01451,23.25883 -38.70117,24.29883 -2.782,4.20133 -3.85063,7.1357 -1.03779,10.78979 3.48057,4.52154 3.37385,2.83995 6.89911,5.6106 12.99997,10.16482 25.22597,15.17094 30.92188,21.9043 4.73382,5.59603 5.43902,17.66022 8.10742,26.50586 1.5768,5.22703 1.37579,11.34527 4.66992,15.69922 12.59312,16.64473 17.80043,11.70002 52.90039,33.5 2.03,1.3 7.58869,-11.27613 7.61914,-17.69922 0.0924,-19.48195 -13.20962,-14.70043 -22.59961,-53.90039 -0.68578,-2.14428 -5.52904,-18.67261 -9.44531,-22.99023 -0.70616,-3.60165 -2.40176,-7.47067 -5.13476,-11.61915 -5.45047,-6.45178 -18.63741,-30.59252 -34.19922,-32.09961 z"
       style="fill:#638010;fill-opacity:1"
       sodipodi:nodetypes="acscsaacaccca" />
    <path
       d="m138 411c11.1-4.13 20.2 1.36 27.2 16.5 4.49 9.68 3.86 32.3-7.76 44-7.44 7.44-14.4 3.78-21.7 1.36-7.34-2.42-7-5.93-19-17.5-7.68-7.39-10.1-15.9-7.37-25.5 1.77-6.13 11.3-12.4 28.7-18.9z"
       fill="#38c798"
       id="path130"
       style="fill:#38c7f1;fill-opacity:1" />
    <path
       id="path132"
       d="m 418,111 c -10.42793,0.88087 -32.39721,-4.36615 -29.91992,14.28516 6.01695,45.30105 -6.55414,49.51722 8.44922,84.15429 8.66666,20.78665 9.05323,26.08796 20.51762,30.03249 12.4005,4.26661 28.2427,-2.64624 37.48238,-11.95241 5.14048,-5.17747 3.48,-8.3004 6.5,-20.90039 2.98666,-12.43999 2.24901,-26.01657 -0.38522,-32.72306 -3.08967,-7.86603 -2.71916,-20.50378 -1.2956,-34.16004 1.37,-14.45998 -8.20203,-20.18139 -10.27203,-23.64139 C 438.15111,107.18475 430.53614,109.77518 418,111 Z"
       sodipodi:nodetypes="cscaacsccc"
       style="fill:#c74726;fill-opacity:1" />
    <path
       d="M 271.27309,150.60858 C 289.89715,148.6959 298.81456,169.04962 305.2,184.5 c 4.23587,10.24921 -17.17106,12.77466 -27.1,16.3319 -13.22563,4.73834 -14.024,4.10543 -41.7,6.1181 -14.01181,1.01897 -10.6175,-12.37071 -11.09423,-19.97098 -0.49536,-7.89719 -5.45005,-12.76496 8.84423,-22.02902 21.82232,-14.14295 15.64115,-12.13523 37.12309,-14.34142 z"
       fill="#7155f0"
       id="path134"
       sodipodi:nodetypes="ssasass" />
    <path
       d="m42.4 212c0.201-0.2 5.66-3.15 8.61-2.63 3.65 0.652 2.76 2.66 8.87 6.73 30.3 10.1 45.7 16.3 46.1 18.7 1.21 7.24 0.419 12.7-2.37 16.3-8.5 11.1-15.6 16.9-21.4 17.4-17.6 1.67-27.5-2.36-29.7-12.1-6.8-29.6-10.2-44.4-10.1-44.5z"
       fill="#1c7145"
       id="path136" />
    <path
       d="m179 288c-8.21-0.222-15.3 4.99-21.1 15.6-10.2 18.4-17.9 34.1-13.1 40.1 8.31 10.3 13.9 34.9 24.9 38.2 15.4 3.18 39.3 0.201 43.6-9.67 11.3-13.5 8.12-35.7 6.47-51.2-0.446-4.18-6.14-12.3-22.3-24.9-6.71-5.24-12.9-7.94-18.5-8.09z"
       fill="#559c8f"
       id="path140" />
    <path
       d="m304 45.5c12.1 20.7 18.2 32.4 18.2 35.2 0.0913 9.85-0.168 15-0.779 15.5-2.19 1.69-7.67 1.05-16.4-1.9-31.4-10.6-36.8-2.88-42.3-17.1-1.08-2.82-2.01-2.14 3.99-8.14 21.5-21.5 33.9-29.3 37.3-23.5z"
       fill="#8e1c3e"
       id="path142" />
    <path
       id="path144"
       d="m 142,127 c -14.59564,2.57439 -22.12795,10.00895 -25.63086,20.13086 -13.20631,25.2801 -12.50084,31.87369 -31.43164,49.20508 -11.533322,11.53332 -7.167037,20.66705 13.099609,27.40039 20.013311,6.68665 31.947441,5.86457 35.800781,-2.46875 3.66736,-15.46454 16.00233,-30.34766 20.12891,-43.66211 6.12571,-5.53897 8.8376,-13.97284 8.13281,-25.30469 C 161.03294,135.59746 154.33332,127.16333 142,127 Z"
       sodipodi:nodetypes="cccccccc"
       style="fill:#1f3818;fill-opacity:1" />
    <path
       id="path150"
       d="m 368.63477,326.66797 c -12.29559,-0.16433 -22.69375,21.68362 -21.6875,45.68359 0.79999,18.93331 34.46305,8.98802 51.71484,13.4043 9.03684,2.31334 22.47471,9.62143 31.56836,11.95312 14.7925,12.97116 20.12953,8.13151 24.57031,-12.24804 12.72227,-22.6065 6.18675,-38.86385 -11.34375,-39.37891 -22.66191,-4.35888 -52.53043,-17.81688 -74.82226,-19.41406 z"
       sodipodi:nodetypes="ccscccc"
       style="fill:#b9aad0;fill-opacity:1" />
    <path
       d="m163 396c4.49-7.67 10.3-10.8 17.4-9.3 17.2 3.55 26.7 6.52 28.6 8.9 4.5 5.76 6.53 12.1 6.08 19-1.08 16.8 1.65 34-5.37 33.6-17-0.849-28.6 9.87-31.9 2.61-8.13-17.5-16.6-51.7-14.7-54.9z"
       fill="#55c74f"
       id="path152"
       style="fill:#55c7a7;fill-opacity:1" />
    <path
       d="m305 132q11.7-13.3 26.6 8.52 24.6 35.8 15.3 40.2-15.2 7.23-23.2 5.2-13.1-3.33-18.7-13.1-9.26-16-8.46-22.3 1.33-10.4 8.44-18.5z"
       fill="#8e3863"
       id="path162" />
    <path
       d="m406 44.3c26.9 16.6 34.3 34.2 32.8 39.9-2.84 10.7 2.36 19.9-11.2 21.3-25.3 2.51-38.5 3.02-39.7 1.51-2.13-2.8-2.3-11.5-0.517-26 3.32-27 4.11-45.6 18.6-36.7z"
       fill="#c71c5c"
       id="path168" />
  </g>
</svg>
