<?xml version="1.0" encoding="UTF-8"?>
<svg width="512px" height="512px" contentScriptType="text/ecmascript" contentStyleType="text/css" version="1.1" viewBox="0 0 512 512" xmlns="http://www.w3.org/2000/svg">
 <g class="voronoi" stroke-width=".5">
  <path d="m27.9 427c22.4-2.28 71.4 2.6 75.4 15.7 4.6 14.6-35.7 18-49.2 25.3-15.9 8.69-37.1 33.3-46.9 18-7.76-12.1 10.6-23.9 14.4-36.3 2.69-8.78-2.85-21.8 6.28-22.7z" fill="#00c7e4"/>
  <path d="m460 429 71-9.47 2.17 0.445 0.978 25.5-21.8 22.3s-6.11 3.09-8.65 3.92c-14.8 4.88-43.2-5.73-43.2-5.73s-15.3-19.3-13.1-29.2c1.3-6.01 12.6-7.72 12.6-7.72z" fill="#e3c7ec"/>
  <path d="m465 483c9.04-9.85 32.4-4.73 32.4-4.73l31.6 25.6 4.85 5.94-17.3 17.4-28.7-15.5s-22.4-5.14-26.5-14.3c-2.01-4.53-1.65-8.77 3.56-14.4z" fill="#e3e3c9"/>
  <path d="m-12.9 332 24.8 6.79s27.4 11.8 32.6 24.3c3.35 8.19-4.43 19.7-12.3 23.8-11 5.75-25.2-13.8-25.2-13.8l-7.06-14.6z" fill="#00aa73"/>
  <path d="m479 349c6.19-0.84 7.9 6.02 12 8.83 6.98 4.81 21.4 13.8 21.4 13.8l14.3 22.1 5.66 18.3-20 3.06s-27.8 7.74-40.4 2.84c-4.79-1.86-6.63-5.44-9.52-8.66-14.2-15.8 2.85-29.1 10.3-49 1.51-4.02 0.0647-10.4 6.24-11.3z" fill="#e3aac9"/>
  <path d="m141 479c14.9-0.512 52.5 11.4 42.5 17.4-6.68 4.02-16.2 15.6-16.2 15.6l-9.94 11.9-28.6-3.55 1.37-8.35s-0.581-13.4 1.61-19.5c1.83-5.13 5.87-13.3 9.25-13.5z" fill="#38e3df"/>
  <path d="m393 543 7.56-20.8 16.7-10.6s7.11-9.33 11.4-8.41c2.75 0.592 4.34 8.41 4.34 8.41l27.3 41.5-0.753 28.4-48.8-24.7z" fill="#c700b4"/>
  <path d="m500 344c0.548-5.03 12.2-9.02 12.2-9.02l12 3.27 32.6 24.3-4.04 26.2-33.4-16.2-7.06-14.6s-12.9-7.84-12.2-14z" fill="#00aa73"/>
  <path d="m452 506c6.73-2.1 23.9 5.97 23.9 5.97l0.43 0.334 34.6 26.9-11.8 16.3-19 15.6-19.3-29.5-10.2-29.3s-1.56-5.38 1.4-6.3z" fill="#e3006f"/>
  <path d="m372 427c-14.9 7.27-54.3 49.4-42.9 64.4 9.29 12.2 17.3 1.82 25.1 1.27 7.56-0.533 22.7 1.55 22.7 1.55 3.11 5.59 19.5 12 26.1 13.2 11.9-7.34 29.8-8.65 40.5-19.5 4.82-4.93 8.5-18.9 8.5-18.9s-0.417-16-8.41-24.3c-6.77-6.99-21.2-11.5-21.2-11.5-18.8 4.39-35.5-7.75-50.3-6.14z" fill="#b4da5d"/>
  <path d="m-54.2 475 39.9 3.59 14.3 11.6s21.2 8.4 29.9 4.92c5.24-2.08-7.72 15.1-7.72 15.1l-17.3 17.4-55.1-29.8z" fill="#e3e3c9"/>
  <path d="m-32.7 343 10.8-5.21 21.9 33.9s9.61 11.6 16.6 17c5.21 3.99 29.6 19.4 27.2 26.7-3.89 11.8-43.9-0.132-43.9-0.132l-40.3 6.18-12.9 1.37 13.5-62.4z" fill="#e3aac9"/>
  <path d="m75.4 471c3.12-5.9 16-13 26.3-13.2 7.58-0.182 18.8 5.56 23 11 7.61 9.8 1.16 33.7 1.16 33.7l-12.6 24.7-32.7-25s-11.6-19.1-5.16-31.1z" fill="#1ce39d"/>
  <path d="m362 500c7.43-1.9 14.5-1.74 21.4 2.09 4.63 2.58 11.9 10.3 11.9 10.3l2.15 2.25-11.2 25.7-19.1 1.93-41.4-12 18.5-17.8s10.2-10.5 17.8-12.4z" fill="#aa0016"/>
  <path d="m-52.4 429 52.4-6.99c6.87-0.0632 7.08 4.14 13.9 5.54s6.97 8.35 3.92 16.3c-3.73 9.68-17.8 23.9-17.8 23.9l-5.6 5.73-46.2-7.54-1.61-33.9z" fill="#e3c7ec"/>
  <path d="m29.9 512 0.149-0.189s-0.0122-2.87 0.544-4.15c4.55-10.5 10.8-23.4 21.8-26.4 6.77-1.84 19.9 4.37 19.3 8.44-1.63 11.1 9.71 22.1 9.71 22.1l22.1 25.3-6 9.46-27.5 2.24z" fill="#1c0024"/>
  <path d="m57.6 348c2.3-4.47 21.8-5.86 26.1-8.8 1.11-0.759 16 0.859 23.9 1.87 9.81 1.25 21.3-0.696 29.2 5.17 12 8.87 15.8 24.3 20.5 39.9 1.22 4.02-22.8 13.8-33.5 21.7-11.7 8.58-10.9 11.2-33.5 19.6-5.85 2.18-38.5-8.41-48.1-28.5-2.49-5.21 6.56-33.7 15.4-50.9z" fill="#38aac3"/>
  <path d="m358 393c25.8-14.6 22.3-16.1 34.6-14.3 19.3 5.14 39.7 25.1 59.2 41 2.3 1.88-3.12 7.96-4.1 7.92-21.7-0.86-23.2-0.0679-34.7-1.8-16.4-2.47-47.8-11.7-48.1-12.2-2.44-8.23-15.1-16-6.89-20.7z" fill="#c7c716"/>
  <path d="m320 340c-19.5 23-26.1 27.7-26.5 31.2-5.39 14.1-1 28 3.16 41.1 6.06 19.1 17.9 65.4 30.8 51.6 18.9-18.9 28.5-29.8 28.7-32.6 0.753-8.84 0.289-14.8-1.39-17.8-3.7-6.69-4.64-17.8-7.57-23.7 0.256-2.94 0.16-9.84-0.297-20.7-1.29-30.6-2.64-36.8-4.05-38.6-7.58-10.8-20.5 6.53-22.8 9.38z" fill="#8eb9b1"/>
  <path d="m165 391c-9.48 5.95-13.9 12.2-22 19.3-10 1.91-30.8 12.7-33.3 20-2.73 9.6-0.309 18.1 7.37 25.5 12 11.6 11.7 15.1 19 17.5 7.3 2.42 38.5 13.1 46 5.64 1.71-1.72 2.64-3.84 3-6.21 8.88-5.85 29.4-42.3 30.4-57.7 0.45-6.9 1.22-26-8.33-28.1-15.7-3.46-30.5 3.77-42 4.12z" fill="#47c725"/>
  <path d="m179 288c-8.21-0.222-15.3 4.99-21.1 15.6-10.2 18.4-17.9 34.1-13.1 40.1 8.31 10.3 13.9 34.9 24.9 38.2 15.4 3.18 39.3 0.201 43.6-9.67 11.3-13.5 8.12-35.7 6.47-51.2-0.446-4.18-6.14-12.3-22.3-24.9-6.71-5.24-12.9-7.94-18.5-8.09z" fill="#559c8f"/>
  <path d="m371 327q26.9 6.88 29.4 11.5 3.3 6.25-0.684 15.2-5.38 12.1-22.6 21.9-23.2 13.1-24.4-15.3-1.61-38.4 18.4-33.3z" fill="#aaaa6e"/>
  <path d="m405 356c2.84-6.41 15.3-9.72 37.3-9.94 18.4-0.181 25.5 16.3 12.5 39.4-4.99 22.9-11.1 26.2-30.5 6.63-16.2-16.4-22.6-28.4-19.2-36.1z" fill="#c7aa89"/>
 </g>
</svg>
