<?xml version="1.0" encoding="UTF-8"?>
<svg width="512px" height="512px" contentScriptType="text/ecmascript" contentStyleType="text/css" version="1.1" viewBox="0 0 512 512" xmlns="http://www.w3.org/2000/svg">
 <g class="voronoi" stroke-width=".5">
  <path d="m458-37.1 39.9 3.59 31.6 25.6 4.85 5.94-17.3 17.4-55.1-29.8z" fill="#e3e3c9"/>
  <path d="m361-16.4-35.5 34.2-19.7 3.72c-6.92 1.31-2.06 10.6-0.969 16.9l25.1 42.4c-0.581 2.81-0.863 5.86-0.832 9.16 0.024 2.63 13.4 5.64 40.2 9.03 7.08 0.895 12.6-15.1 16.7-48 0.986-15.8 5.33-34.4 11.2-48.8l-13.1-13.8z" fill="#aa0016"/>
  <path d="m-13.2 126 13.2 3.6s4.9 1.36 6.31 6.37c1.98 7.04-6.31 13.7-6.31 13.7l-10.9 11.6-25.6 20.8-12.6-8.24-3.62-33.7z" fill="#e3388e"/>
  <path d="m39.3 415c20.7 12.5 45.8 19.7 48.3 26.5 4.6 14.6-20 19-33.5 26.3-15.9 8.69-37.1 33.3-46.9 18-7.76-12.1 10.6-23.9 14.4-36.3 2.69-8.78-4.8-33.4 4.33-34.3z" fill="#00c7e4"/>
  <path d="m460 429 71-9.47 2.17 0.445 0.978 25.5-21.8 22.3s-6.11 3.09-8.65 3.92c-14.8 4.88-43.2-5.73-43.2-5.73l-1.61-33.9z" fill="#e3c7ec"/>
  <path d="m4.93 27.5c0.0781-7.17 6.66-15.1 13.7-16.6 13-2.79 25.8 4.63 33.1 15.8 5.6 8.59 9.63 24.6 1.38 30.7-10.2 7.53-22.8-3.45-33.1-10.8-6.57-4.72-15.1-11-15-19.1z" fill="#00009c"/>
  <path d="m445-14.3 30.2 14 0.43 0.334s32.5 12.4 34.6 26.9c0.941 6.64-5.66 13.6-11.8 16.3-5.68 2.45-18.4-2.4-18.4-2.4s-12-8.13-16.5-13.7c-6.27-7.9-13.6-27-13.6-27z" fill="#e3006f"/>
  <path d="m465 483c9.04-9.85 32.4-4.73 32.4-4.73l31.6 25.6 4.85 5.94-17.3 17.4-28.7-15.5s-22.4-5.14-26.5-14.3c-2.01-4.53-1.65-8.77 3.56-14.4z" fill="#e3e3c9"/>
  <path d="m318-32.9 34.7 13.3-30.4 34.4s-7.41 2.33-11-0.928c-4.12-3.77-2.68-13.9-2.68-13.9l1.18-28z" fill="#8ee3e0"/>
  <path d="m122 16.8c-5.37 2.31-11.6 13.2-11.6 13.2-14.7 12.4-35 18.6-46.8 30.1-8.12 8.12-13.6 18.1-16.5 30-2.83 11.6 7.1 17.7 29.8 18.4 8.98 0.254 15.7-2.4 21.6-3.68 17.6-3.79 18.6 9.15 28.3 12.6 4.85 1.7 3.24 3.75 14.9 3.9 13.3 0.175 21.7-0.851 25.2-3.08 3.97-2.53 7.3-9.76 9.98-21.7 1.69-18.2 28.1-45.5 11.8-54.8 0 0-26.5-19.5-42-23.9-7.91-2.26-17.1-4.18-24.7-0.928z" fill="#2f1393"/>
  <path d="m-41.1 70.8 11-5.22 42.6 33.1s7.44 9.21 2.41 15.4c-4.09 5.03-14.9 5.82-14.9 5.82l-31.6-2.72-23.3-10.1 3-20.3z" fill="#e31caf"/>
  <path d="m533 148 16.4 59.2-1.36 0.59-14-1.31-22.2-14.1s-8.62-4.19-8.93-12.3c-0.326-8.58 8.93-16.2 8.93-16.2z" fill="#005528"/>
  <path d="m-12.9 332 24.8 6.79s27.4 11.8 32.6 24.3c3.35 8.19-4.43 19.7-12.3 23.8-11 5.75-25.2-13.8-25.2-13.8l-7.06-14.6z" fill="#00aa73"/>
  <path d="m495 349c6.98 4.81 17.1 22.8 17.1 22.8l14.3 22.1 5.66 18.3-20 3.06s-27.8 7.74-40.4 2.84c-4.79-1.86-6.63-5.44-9.52-8.66-14.2-15.8 3.41-27.2 3.6-49 1.53-9.23 18.1-18.5 29.3-11.5z" fill="#e3aac9"/>
  <path d="m141 479c14.9-0.512 52.5 11.4 42.5 17.4-6.68 4.02-16.2 15.6-16.2 15.6l-9.94 11.9-28.6-3.55 1.37-8.35s-0.581-13.4 1.61-19.5c1.83-5.13 5.87-13.3 9.25-13.5z" fill="#38e3df"/>
  <path d="m393 543 7.56-20.8 16.7-10.6s7.11-9.33 11.4-8.41c2.75 0.592 4.34 8.41 4.34 8.41l27.3 41.5-0.753 28.4-48.8-24.7z" fill="#c700b4"/>
  <path d="m195-13 28 5.11-0.229 7.92-0.196 6.79s3.58 28.6-9.08 34.5c-2.51 1.19-12 2.35-12 2.35s-31.8-10.1-32-26.1c-0.0844-6.84 10.2-17.5 10.2-17.5z" fill="#550029"/>
  <path d="m-18 59.4 18-9.57s8-3.51 11.9-2.89c25.8 7.21 45.6 43.5 23 63.7l-11.2-7.47-23.7-24.9z" fill="#001c34"/>
  <path d="m449 72.4c1.39-5.67-0.0355-13.4 5.77-16.5 17-9.23 57.4 33.2 57.4 33.2l12.5 9.69 6.92 22.9-19.4-1.67s-21-2.15-31.6-1.37c-6.5 0.481-13.2 6.03-19.1 3.17-10.8-5.26-13.6-25.9-14.9-32.7-1.08-5.49 1.08-11.2 2.41-16.6z" fill="#e31caf"/>
  <path d="m500 344c0.548-5.03 12.2-9.02 12.2-9.02l12 3.27 32.6 24.3-4.04 26.2-33.4-16.2-7.06-14.6s-12.9-7.84-12.2-14z" fill="#00aa73"/>
  <path d="m452 506c6.73-2.1 23.9 5.97 23.9 5.97l0.43 0.334 34.6 26.9-11.8 16.3-19 15.6-19.3-29.5-10.2-29.3s-1.56-5.38 1.4-6.3z" fill="#e3006f"/>
  <path d="m86.9-50 14.6-13.7 19.3 17.6 5.01 36.9-4.68 9.17s-6.22 11.1-11.7 11.6c-6.69 0.567-16.5-11.6-16.5-11.6l-12.5-9.53z" fill="#1ce39d"/>
  <path d="m16.2 134c1.16-5.52 3.48-16.2 10.1-19 3.34-1.42 10.5 2.98 10.5 2.98l36 45.8s-1.62 14.3-12.5 24.9c-1.56 1.52-8.71 12-10 10.3-8.66-11.1-11-36.3-21.2-51.9-3.34-5.09-13.6-9.07-12.8-13z" fill="#0038dc"/>
  <path d="m499 126 28.2 7.71-26 27.6s-14.6 20.1-25.6 20.8c-8.53 0.531-19.4-9.16-21.7-13.6-6.36-12.2 0.362-24.1 10.5-36 9.08-10.7 34.6-6.48 34.6-6.48z" fill="#e3388e"/>
  <path d="m372 427c-15.4 2.76-40.5 38-42.5 65-0.589 7.57 17.9 1.45 25.5 1.32 12.5-0.203 27.2-0.743 30.4 5 3.11 5.59 11.2 11.1 17.5 9.02 13.3-4.42 29.8-8.65 40.5-19.5 4.82-4.93 8.5-18.9 8.5-18.9s8.53-26.9 0.536-35.2c-30.6 0.159-53-11.6-80.4-6.72z" fill="#b4da5d"/>
  <path d="m144-36 38.5 18.1-15 17.9s-5.14 10-9.94 11.9c-8.93 3.52-20.2 4.56-25.9-3.13-1.69-2.26-1.28-8.77-1.28-8.77l5.04-30.8z" fill="#38e3df"/>
  <path d="m396 27.6c-3.21-6.66 3.84-17 3.84-17l27.8-17.7 4.63 7.05s29.9 28.3 22.7 43.3c-10.8 11-34.8-2.16-46.9-6.48 0 0-9.74-4.17-12.2-9.2z" fill="#c700b4"/>
  <path d="m-54.2 475 39.9 3.59 14.3 11.6s21.2 8.4 29.9 4.92c5.24-2.08-7.72 15.1-7.72 15.1l-17.3 17.4-55.1-29.8z" fill="#e3e3c9"/>
  <path d="m238-35.6 35.3-15.2 27 15.5 0.782 35.2s0.57 6.81-1.12 9.32c-2.85 4.24-9.84 3.62-13 5.22-17.8 9.1-46.5-13.2-46.5-13.2l-11.1-12z" fill="#71e3d0"/>
  <path d="m29.9 0.189 0.149-0.189 2.32-2.94 20.7-20 11.7 3.96 16.6 19s11.4 7.54 12.3 18.7c0.284 3.72 0.176 7.35-3.44 11.5-4.26 4.9-3.48 5.74-12.2 2.75-17.1-5.89-48.1-32.8-48.1-32.8z" fill="#1c0024"/>
  <path d="m18.2 150c6.6-4.78 30.5 41.6 18 57.2-2.95 3.64-14-1.31-14-1.31l-42.8-27.2 20.6-15.4z" fill="#005528"/>
  <path d="m419 173c-21.5 0.78-24-4.93-34.5-0.297-10.2 4.49-27 13.7-22.4 24.8 11.3 23.7 56.7 28.2 71.6 29 15 0.834 17.3-0.0817 30.3-0.725 3.92-0.193 25.2 1.56 27.8 3.35 5.6 3.94 20 4.89 20 4.89l1.76 0.236 13-27.9-14.7-6.21c-18.4-9.9-32.5-9.71-53.3-20.4-14.3-7.97-25.6-7.37-39.6-6.87z" fill="#e355c7"/>
  <path d="m-32.7 343 10.8-5.21 21.9 33.9s9.61 11.6 16.6 17c5.21 3.99 22 4.14 19.6 11.5-3.89 11.8-36.3 15.1-36.3 15.1l-40.3 6.18-12.9 1.37 13.5-62.4z" fill="#e3aac9"/>
  <path d="m76.3 473c3.75-11.3 12.6-22.7 24.4-23 8.7-0.191 20.1 15.5 20.1 15.5l5.01 36.9-12.6 24.7-32.7-25s-7.32-19.8-4.23-29.1z" fill="#1ce39d"/>
  <path d="m362 500c7.43-1.9 14.5-1.74 21.4 2.09 4.63 2.58 11.9 10.3 11.9 10.3l2.15 2.25-11.2 25.7-19.1 1.93-41.4-12 18.5-17.8s10.2-10.5 17.8-12.4z" fill="#aa0016"/>
  <path d="m-54.2-37.1 39.9 3.59 31.6 25.6 4.85 5.94-17.3 17.4-55.1-29.8z" fill="#e3e3c9"/>
  <path d="m269 19.4c9.26 1.81 24.6 3.68 26.9 13 2.95 12.4-27.1 23.1-27.1 23.1s-20.2 18.7-29.8 9.56c-10.9-10.3-18.1-41.6-10.1-51.4 9.44-11.5 24.8 2.81 40.1 5.81z" fill="#710098"/>
  <path d="m494 59.4 28.4-15.1 33.8 35.2-7.42 29.5-1.82 1.62-11.2-7.47-23.7-24.9z" fill="#001c34"/>
  <path d="m-52.4 429 52.4-6.99c6.87-0.0632 7.08 4.14 13.9 5.54s6.97 8.35 3.92 16.3c-3.73 9.68-17.8 23.9-17.8 23.9l-5.6 5.73-46.2-7.54-1.61-33.9z" fill="#e3c7ec"/>
  <path d="m29.9 512 0.149-0.189s-0.0122-2.87 0.544-4.15c4.55-10.5 9.64-28.7 20.6-31.7 6.77-1.84 19.8-7.72 19.2-3.65-1.63 11.1 11 39.5 11 39.5l22.1 25.3-6 9.46-27.5 2.24z" fill="#1c0024"/>
  <path d="m328 101c-5.21 3.27-6.3 8.59-6.26 14.5-6.31 3.23-12.5 11.2-16.9 16.3-3.93 4.57-6.9 11.3-8.46 18.5-0.533 4.2 2.29 11.6 8.46 22.3 3.73 6.51 9.97 10.9 18.7 13.1 18.7-5.99 33.6-10.9 52.3-15 1.93-2.34 3-4.58 3.21-6.73 3.31-33.5 4.87-50.3 4.67-50.6-3.07-4.05-5.63-6.2-7.67-6.46-31.8-4.02-47.8-5.96-48-5.83z" fill="#9c3838"/>
  <path d="m57.6 348c2.3-4.47 21.8-5.86 26.1-8.8 1.11-0.759 16 0.859 23.9 1.87 9.81 1.25 21.3-0.696 29.2 5.17 12 8.87 15.8 24.3 20.5 39.9 1.22 4.02-22.8 13.8-33.5 21.7-11.7 8.58-10.3 9.68-32.9 18.1-5.85 2.18-39.1-6.88-48.7-27-2.49-5.21 6.56-33.7 15.4-50.9z" fill="#38aac3"/>
  <path d="m354 402c-0.401-1.35 2.46-7.66 3.62-8.31 25.8-14.6 29.6-29.5 41-19.5 14.5 16.5 40.6 33.6 51.2 52.1 0.793 1.38-1.53 2.13-2.51 2.09-21.7-0.86-33.3-1.46-34.7-1.8-31.8-7.6-47.8-11.7-48.1-12.2-3.1-6.09-8.57-5.82-10.5-12.4z" fill="#c7c716"/>
  <path d="m207 54.8c-7.16 5.31-16.8 18.5-19 26.9-4.71 20.9-4.38 32.9 0.996 35.8 20.1 10.8 37.1 30.6 44.2 36 2.33 4.81 5.59 7 9.8 6.56 31.5-3.29 47.3-5.83 47.6-7.62 2.88-10.5 2.22-12.6 5.23-18.2 4.63-8.08 20.2-17.1 16.4-24.2-9.28-17-45.5-19.7-53.3-21.9-7.29-3.4-12.7-11.9-15.2-13.5-21.2-13.8-27-27-36.7-19.8z" fill="#6825d5"/>
  <path d="m42.2 115q0.953-0.952 32.4-0.062 35.9 1.02 39.5 5.11 4.1 4.67-2.21 23.9-7.2 21.9-18.3 22.3-12.7 0.368-31.1-23.3-21.1-27-20.3-27.9z" fill="#1c3877"/>
  <path d="m341 318c-10.9-2.47-14.5 14.4-20.4 21.9-19.5 23-26.1 27.7-26.5 31.2-1.02 6.07-7.01 17.9-3.58 21.8 3.5 3.9 13 1.11 22.7 1.19 21.2 0.162 31.9 5.64 36.3 1.17 11.5-11.8 42.6-27.1 50.4-41.3 2.66-5.97 2.88-11 0.684-15.2-1.67-3.08-11.5-6.91-29.4-11.5-9.62-4.11-21-7.18-30.2-9.27z" fill="#9caa58"/>
  <path d="m138 411c11.1-4.13 20.2 1.36 27.2 16.5 4.49 9.68 3.86 32.3-7.76 44-7.44 7.44-14.4 3.78-21.7 1.36-7.34-2.42-7-5.93-19-17.5-7.68-7.39-25.2-11.6-22.5-21.2 1.77-6.13 26.4-16.7 43.8-23.2z" fill="#38c798"/>
  <path d="m418 111c21-2.09 26.9 5.32 28.6 8.27 2.07 3.46 7.92 5.44 6.55 19.9-1.62 17-12.4 25.9-32.2 26.6-23.4 0.848-34.2-6.91-32.6-23.3 1.9-19.2 11.8-29.7 29.7-31.5z" fill="#c73876"/>
  <path d="m279 162c19.2-1.86 16 5.69 25.9 22.7 5.76 9.93-8.97 6.55-27.1 19.3-0.124 0.0873-14 1.14-41.7 3.15-0.19 0.014-7.82-10.8-8.41-17.1-0.624-6.65 0.465-14.8 5.35-19.3 19.5-13.3 32.6-7.46 46-8.76z" fill="#715536"/>
  <path d="m179 288c-8.21-0.222-15.3 4.99-21.1 15.6-10.2 18.4-17.9 34.1-13.1 40.1 8.31 10.3 13.9 34.9 24.9 38.2 15.4 3.18 39.3 0.201 43.6-9.67 11.3-13.5 8.12-35.7 6.47-51.2-0.446-4.18-6.14-12.3-22.3-24.9-6.71-5.24-12.9-7.94-18.5-8.09z" fill="#559c8f"/>
  <path d="m304 45.5c12.1 20.7 18.2 32.4 18.2 35.2 0.0913 9.85-0.168 15-0.779 15.5-2.19 1.69-7.67 1.05-16.4-1.9-31.4-10.6-36.8-2.88-42.3-17.1-1.08-2.82-2.01-2.14 3.99-8.14 21.5-21.5 33.9-29.3 37.3-23.5z" fill="#8e1c3e"/>
  <path d="m142 127c-25.7-5.19-22.1 10-25.6 20.1-4.55 13.8-4.4 24.3 0.432 31.5 4.98 4.74 5.43 11.6 7.16 18.4-0.693 5.31-3.31 15.7-0.368 17.1 24 11.6 41.2-5.27 42.2-7.71 4.03-22.8-2.47-34-3.68-54.1-1.07-16.7-7.77-25.1-20.1-25.3z" fill="#38473b"/>
  <path d="m158 402c3.76-8.05 15.8-16.7 22.9-15.2 17.2 3.55 26.7 6.52 28.6 8.9 4.5 5.76 6.53 12.1 6.08 19-1.08 16.8-29 65.4-36 65-17-0.849-0.334-23.8-2.84-37.8 0.386-10.2-21.3-34.4-18.7-40z" fill="#55c74f"/>
  <path d="m168 127c7.05-4.49 11.4-6.28 13.1-5.38 28.5 15.4 21.6 14.6 30.9 23.6 5.79 5.6 13.9 10.8 15.3 18.7 1.46 8.11-3 31-13.9 40-7.67 6.33-29 4.55-29.5 4.26-8.41-4.87-12.7-8.24-12.8-10.1-1.94-31.3-3.6-70.8-3.18-71.1z" fill="#553819"/>
  <path d="m405 356c2.84-6.41 15.3-9.72 37.3-9.94 18.4-0.181 25.5 16.3 12.5 39.4-4.99 22.9-11.1 26.2-30.5 6.63-16.2-16.4-22.6-28.4-19.2-36.1z" fill="#c7aa89"/>
  <path d="m406 44.3c26.9 16.6 34.3 34.2 32.8 39.9-2.84 10.7 2.36 19.9-11.2 21.3-25.3 2.51-38.5 3.02-39.7 1.51-2.13-2.8-2.3-11.5-0.517-26 3.32-27 4.11-45.6 18.6-36.7z" fill="#c71c5c"/>
  <path d="m94.2 172q11.9-0.348 19.2 10.5 7.37 10.9 6.78 15.4-0.589 4.52-6.3 16.8-5.78 12.5-35.8 2.47-30.4-10.1-13.1-27.4 17.5-17.5 29.3-17.8z" fill="#1c55cf"/>
  <path d="m336 399c7.53 0.0573 13.9 4.79 19.1 14.2 1.68 3.03 2.14 8.96 1.39 17.8-0.241 2.84-14.8 14.7-25.7 35.3-6.05 6.05-14.3 6.68-18.6 7.3-26.5-15.3-21-40.8-15.2-61.6 2.51-8.87 15.5-13.2 38.9-13z" fill="#8ec7ba"/>
 </g>
</svg>
