<?xml version="1.0" encoding="UTF-8"?>
<svg width="512px" height="512px" contentScriptType="text/ecmascript" contentStyleType="text/css" version="1.1" viewBox="0 0 512 512" xmlns="http://www.w3.org/2000/svg">
 <g class="voronoi" stroke-width=".5">
  <path d="m-13.2 126 13.2 3.6s4.9 1.36 6.31 6.37c1.98 7.04-6.31 13.7-6.31 13.7l-10.9 11.6-25.6 20.8-12.6-8.24-3.62-33.7z" fill="#e3388e"/>
  <path d="m38 411c1.6-0.675 39.6 18.7 46.1 39.5 4.6 14.6-16.5 10.7-30 18-15.9 8.69-37.1 33.3-46.9 18-7.76-12.1 10.6-23.9 14.4-36.3 2.69-8.78-5.31-30 3.14-33.6z" fill="#00c7e4"/>
  <path d="m460 429 71-9.47 2.17 0.445 0.978 25.5-21.8 22.3s-6.11 3.09-8.65 3.92c-14.8 4.88-43.2-5.73-43.2-5.73l-1.61-33.9z" fill="#e3c7ec"/>
  <path d="m4.93 27.5c0.0781-7.17 6.66-15.1 13.7-16.6 13-2.79 25.8 4.63 33.1 15.8 5.6 8.59 9.63 24.6 1.38 30.7-10.2 7.53-22.8-3.45-33.1-10.8-6.57-4.72-15.1-11-15-19.1z" fill="#00009c"/>
  <path d="m465 483c9.04-9.85 32.4-4.73 32.4-4.73l31.6 25.6 4.85 5.94-17.3 17.4-28.7-15.5s-22.4-5.14-26.5-14.3c-2.01-4.53-1.65-8.77 3.56-14.4z" fill="#e3e3c9"/>
  <path d="m122 16.8c-5.37 2.31-11.6 13.2-11.6 13.2-14.7 12.4-35 18.6-46.8 30.1-8.12 8.12-13.6 18.1-16.5 30-2.83 11.6 7.1 17.7 29.8 18.4 8.98 0.254 15.7-2.4 21.6-3.68 17.6-3.79 18.6 9.15 28.3 12.6 4.85 1.7 3.24 3.75 14.9 3.9 13.3 0.175 21.7-0.851 25.2-3.08 3.97-2.53 7.3-9.76 9.98-21.7 1.69-18.2 28.1-45.5 11.8-54.8 0 0-26.5-19.5-42-23.9-7.91-2.26-17.1-4.18-24.7-0.928z" fill="#2f1393"/>
  <path d="m-41.1 70.8 11-5.22 42.6 33.1s7.44 9.21 2.41 15.4c-4.09 5.03-14.9 5.82-14.9 5.82l-31.6-2.72-23.3-10.1 3-20.3z" fill="#e31caf"/>
  <path d="m-12.9 332 24.8 6.79s27.4 11.8 32.6 24.3c3.35 8.19-4.43 19.7-12.3 23.8-11 5.75-25.2-13.8-25.2-13.8l-7.06-14.6z" fill="#00aa73"/>
  <path d="m479 349c6.19-0.84 7.9 6.02 12 8.83 6.98 4.81 21.4 13.8 21.4 13.8l14.3 22.1 5.66 18.3-20 3.06s-27.8 7.74-40.4 2.84c-4.79-1.86-6.63-5.44-9.52-8.66-14.2-15.8 2.85-29.1 10.3-49 1.51-4.02 0.0647-10.4 6.24-11.3z" fill="#e3aac9"/>
  <path d="m141 479c14.9-0.512 52.5 11.4 42.5 17.4-6.68 4.02-16.2 15.6-16.2 15.6l-9.94 11.9-28.6-3.55 1.37-8.35s-0.581-13.4 1.61-19.5c1.83-5.13 5.87-13.3 9.25-13.5z" fill="#38e3df"/>
  <path d="m393 543 7.56-20.8 16.7-10.6s7.11-9.33 11.4-8.41c2.75 0.592 4.34 8.41 4.34 8.41l27.3 41.5-0.753 28.4-48.8-24.7z" fill="#c700b4"/>
  <path d="m-18 59.4 18-9.57s8-3.51 11.9-2.89c25.8 7.21 45.6 43.5 23 63.7l-11.2-7.47-23.7-24.9z" fill="#001c34"/>
  <path d="m500 344c0.548-5.03 12.2-9.02 12.2-9.02l12 3.27 32.6 24.3-4.04 26.2-33.4-16.2-7.06-14.6s-12.9-7.84-12.2-14z" fill="#00aa73"/>
  <path d="m452 506c6.73-2.1 23.9 5.97 23.9 5.97l0.43 0.334 34.6 26.9-11.8 16.3-19 15.6-19.3-29.5-10.2-29.3s-1.56-5.38 1.4-6.3z" fill="#e3006f"/>
  <path d="m86.9-50 14.6-13.7 19.3 17.6 5.01 36.9-4.68 9.17s-6.22 11.1-11.7 11.6c-6.69 0.567-16.5-11.6-16.5-11.6l-12.5-9.53z" fill="#1ce39d"/>
  <path d="m26.3 115c-6.62 2.8-16.9 5.62-18.1 11.1l6.03 14c-0.8 3.93 11.5 1.84 14.8 6.93 10.2 15.6 12.5 40.8 21.2 51.9 0.558 0.736 4.65 3.4 9.21 6.07 2.09 4.66 8.27 8.7 18.6 12.1 20 6.69 31.9 5.86 35.8-2.47 3.81-8.19 5.91-13.8 6.3-16.8 0.393-3-1.87-8.13-6.78-15.4-4.82-7.16-13.3-5.15-19-10.5l-57.6-54c-3.91-1.34-6.62-3.98-10.5-2.98z" fill="#0e47d5"/>
  <path d="m372 427c-14.9 7.27-46.5 42.6-31 53.2l10.8 7.36 36.9 6.08c3.11 5.59 7.66 12.5 14.2 13.7 11.9-7.34 29.8-8.65 40.5-19.5 4.82-4.93 8.5-18.9 8.5-18.9s-0.417-16-8.41-24.3c-6.77-6.99-21.2-11.5-21.2-11.5-0.055-0.0247-0.111-0.0478-0.172-0.0625-17.4 2.37-31.9-9.08-50-6.15z" fill="#b4da5d"/>
  <path d="m144-36 38.5 18.1-15 17.9s-5.14 10-9.94 11.9c-8.93 3.52-20.2 4.56-25.9-3.13-1.69-2.26-1.28-8.77-1.28-8.77l5.04-30.8z" fill="#38e3df"/>
  <path d="m-54.2 475 39.9 3.59 14.3 11.6s21.2 8.4 29.9 4.92c5.24-2.08-7.72 15.1-7.72 15.1l-17.3 17.4-55.1-29.8z" fill="#e3e3c9"/>
  <path d="m29.9 0.189 0.149-0.189 2.32-2.94 20.7-20 11.7 3.96 16.6 19s11.4 7.54 12.3 18.7c0.284 3.72 0.176 7.35-3.44 11.5-4.26 4.9-3.48 5.74-12.2 2.75-17.1-5.89-48.1-32.8-48.1-32.8z" fill="#1c0024"/>
  <path d="m18.2 150c6.6-4.78 30.5 41.6 18 57.2-2.95 3.64-14-1.31-14-1.31l-42.8-27.2 20.6-15.4z" fill="#005528"/>
  <path d="m-32.7 343 10.8-5.21 21.9 33.9s9.61 11.6 16.6 17c5.21 3.99 22 4.14 19.6 11.5-3.89 11.8-36.3 15.1-36.3 15.1l-40.3 6.18-12.9 1.37 13.5-62.4z" fill="#e3aac9"/>
  <path d="m86.9 462s7.93-13.7 14.6-13.7c8.71-0.062 15.3 9.89 19.3 17.6 5.77 11 5.01 36.9 5.01 36.9l-12.6 24.7-32.7-25z" fill="#1ce39d"/>
  <path d="m362 500c7.43-1.9 14.5-1.74 21.4 2.09 4.63 2.58 11.9 10.3 11.9 10.3l2.15 2.25-11.2 25.7-19.1 1.93-41.4-12 18.5-17.8s10.2-10.5 17.8-12.4z" fill="#aa0016"/>
  <path d="m-54.2-37.1 39.9 3.59 31.6 25.6 4.85 5.94-17.3 17.4-55.1-29.8z" fill="#e3e3c9"/>
  <path d="m-52.4 429 52.4-6.99c6.87-0.0632 7.08 4.14 13.9 5.54s6.97 8.35 3.92 16.3c-3.73 9.68-17.8 23.9-17.8 23.9l-5.6 5.73-46.2-7.54-1.61-33.9z" fill="#e3c7ec"/>
  <path d="m29.9 512 0.149-0.189s-0.0122-2.87 0.544-4.15c4.55-10.5 10.8-23.4 21.8-26.4 6.77-1.84 19.9 4.37 19.3 8.44-1.63 11.1 9.71 22.1 9.71 22.1l22.1 25.3-6 9.46-27.5 2.24z" fill="#1c0024"/>
  <path d="m209 192q12.6 0.907 18 12.4 2.74 5.77 0.525 17.4-1.12 5.86-32.3 24.7-15.7 9.49-21.7-11.9-3.02-10.8 5.95-33.1 4.52-11.2 29.5-9.43z" fill="#5555a5"/>
  <path d="m57.6 348c2.3-4.47 21.8-5.86 26.1-8.8 1.11-0.759 16 0.859 23.9 1.87 9.81 1.25 21.3-0.696 29.2 5.17 12 8.87 15.8 24.3 20.5 39.9 1.22 4.02-22.8 13.8-33.5 21.7-11.7 8.58-10.9 19.3-33.5 27.7-5.85 2.18-38.5-16.5-48.1-36.6-2.49-5.21 6.56-33.7 15.4-50.9z" fill="#38aac3"/>
  <path d="m442 346c-22 0.22-34.5 3.53-37.3 9.94-0.443 1.73-1.17 4.11-2.48 5.73-11.5 14.1-24.8 20.4-44.5 31.6-7.46 3.97 4.87 17 6.89 20.7 0.267 0.533 16.3 4.6 48.1 12.2 1.4 0.34 13 0.939 34.7 1.8 11-8.39 4.48-30.5 7.12-42.5 13-23.1 5.9-39.6-12.5-39.4z" fill="#c7b91b"/>
  <path d="m135 213c-13.3-6.35-8.72 4.15-19.6 12.6-7.05 5.43-31.3-1.95-55.1-9.87-6.11-4.07-16.5-2.88-20.2-3.53-26.7 8.33 28.8 42.7 32.3 44.1 23 9.15 65.1 20.3 94.7 8.89 3-1.15 5.75-3.98 6.51-7.1 2.57-10.6-1.72-23.1-8.63-31.6-16.6-14-16.4-6.99-30-13.5z" fill="#2a7124"/>
  <path d="m43.3 109c5.68-8.99 10.4 5.44 31.3 6.04 23.9 0.68 30.4-7.49 32.8-4.77 2.73 3.11 8.74 21 4.53 33.8-4.8 14.6 1.51 23.2-5.89 23.5-8.47 0.245-27.9-12.2-40.2-27.9-3.93-9.19-29.3-19.9-22.5-30.6z" fill="#1c3877"/>
  <path d="m165 394-32.2 19.9c-17.4 6.5-21.3 10.3-23 16.4-2.73 9.6-0.309 18.1 7.37 25.5 12 11.6 11.7 15.1 19 17.5 7.3 2.42 19.3 3.15 28.8 5.41 8.74 2.08 19.4 12.9 25.9 7.47 5.63-0.674 7.44-38.1 19.2-37.5 7.02 0.4 4.29-16.8 5.37-33.6 0.45-6.9-1.58-13.2-6.08-19-1.9-2.38-11.4-5.35-28.6-8.9-6.4-1.37-12.9 2.87-15.8 6.87z" fill="#47c72b"/>
  <path d="m179 288c-8.21-0.222-15.3 4.99-21.1 15.6-10.2 18.4-17.9 34.1-13.1 40.1 8.31 10.3 13.9 34.9 24.9 38.2 15.4 3.18 39.3 0.201 43.6-9.67 11.3-13.5 8.12-35.7 6.47-51.2-0.446-4.18-6.14-12.3-22.3-24.9-6.71-5.24-12.9-7.94-18.5-8.09z" fill="#559c8f"/>
  <path d="m168 127c-10.5 1.34-21.4 0.364-31 0.232-12.6-0.2-16.2 6.3-20.6 19.9-4.55 13.8-4.4 24.3 0.432 31.5 4.93 7.31 13.9 8.87 26.9 4.67 7.5-2.41 11.2-7.77 32.9-2.94 1.78 1.19 3.89 2.5 6.42 3.97 0.5 0.29 12.6 1.29 36.3 2.99 1.4 0.1 9.47-15.3 8.01-23.4-1.4-7.9-12.9-7.4-15.3-18.7-0.1-0.6-2.4-8.2-30.9-23.6-4.67-0.544-10.4 3.65-13.1 5.38z" fill="#473825"/>
  <path d="m371 327q26.9 6.88 29.4 11.5 3.3 6.25-0.684 15.2-5.38 12.1-22.6 21.9-23.2 13.1-24.4-15.3-1.61-38.4 18.4-33.3z" fill="#aaaa6e"/>
  <path d="m126 195c0.0853-0.654 6.31-2.3 29.7-9.85 2.87-0.927 13.8-1.54 21.7 3.06 0.973 0.564-2.56 10.8-10.6 30.7-0.987 2.44-13.5-2.16-37.5-13.8-2.95-1.43-4.07-4.79-3.38-10.1z" fill="#3855d9"/>
 </g>
</svg>
