<?xml version="1.0" encoding="UTF-8"?>
<svg width="512px" height="512px" contentScriptType="text/ecmascript" contentStyleType="text/css" version="1.1" viewBox="0 0 512 512" xmlns="http://www.w3.org/2000/svg">
 <g class="voronoi" stroke-width=".5">
  <path d="m458-37.1 39.9 3.59 31.6 25.6 4.85 5.94-17.3 17.4-55.1-29.8z" fill="#e3e3c9"/>
  <path d="m361-16.4-35.5 34.2-19.7 3.72c-6.92 1.31-2.06 10.6-0.969 16.9l25.1 42.4c-0.581 2.81-0.863 5.86-0.832 9.16 0.024 2.63 13.4 5.64 40.2 9.03 7.08 0.895 12.6-15.1 16.7-48 0.986-15.8 5.33-34.4 11.2-48.8l-13.1-13.8z" fill="#aa0016"/>
  <path d="m43.9 409c9.36 6.84 23 16.5 35.6 31 12.6 14.4-11.9 20.6-25.4 27.9-15.9 8.69-37.1 33.3-46.9 18-7.76-12.1 10.6-23.9 14.4-36.3 2.69-8.78-6.42-28.5 2.71-29.4 0 0 10.3-18 19.6-11.1z" fill="#00c7e4"/>
  <path d="m460 429 71-9.47 2.17 0.445 0.978 25.5-21.8 22.3s-6.11 3.09-8.65 3.92c-14.8 4.88-43.2-5.73-43.2-5.73l-1.61-33.9z" fill="#e3c7ec"/>
  <path d="m445-14.3 30.2 14 0.43 0.334s32.5 12.4 34.6 26.9c0.941 6.64-5.66 13.6-11.8 16.3-5.68 2.45-18.4-2.4-18.4-2.4s-12-8.13-16.5-13.7c-6.27-7.9-13.6-27-13.6-27z" fill="#e3006f"/>
  <path d="m465 483c9.04-9.85 32.4-4.73 32.4-4.73l31.6 25.6 4.85 5.94-17.3 17.4-28.7-15.5s-22.4-5.14-26.5-14.3c-2.01-4.53-1.65-8.77 3.56-14.4z" fill="#e3e3c9"/>
  <path d="m318-32.9 34.7 13.3-30.4 34.4s-7.41 2.33-11-0.928c-4.12-3.77-2.68-13.9-2.68-13.9l1.18-28z" fill="#8ee3e0"/>
  <path d="m533 148 16.4 59.2-1.36 0.59-14-1.31-22.2-14.1s-8.62-4.19-8.93-12.3c-0.326-8.58 8.93-16.2 8.93-16.2z" fill="#005528"/>
  <path d="m-12.9 332 24.8 6.79s27.4 11.8 32.6 24.3c3.35 8.19-4.43 19.7-12.3 23.8-11 5.75-25.2-13.8-25.2-13.8l-7.06-14.6z" fill="#00aa73"/>
  <path d="m479 349c6.19-0.84 7.9 6.02 12 8.83 6.98 4.81 21.4 13.8 21.4 13.8l14.3 22.1 5.66 18.3-20 3.06s-27.8 7.74-40.4 2.84c-4.79-1.86-6.63-5.44-9.52-8.66-14.2-15.8 2.85-29.1 10.3-49 1.51-4.02 0.0647-10.4 6.24-11.3z" fill="#e3aac9"/>
  <path d="m141 479c14.9-0.512 52.5 11.4 42.5 17.4-6.68 4.02-16.2 15.6-16.2 15.6l-9.94 11.9-28.6-3.55 1.37-8.35s-0.581-13.4 1.61-19.5c1.83-5.13 5.87-13.3 9.25-13.5z" fill="#38e3df"/>
  <path d="m393 543 7.56-20.8 16.7-10.6s7.11-9.33 11.4-8.41c2.75 0.592 4.34 8.41 4.34 8.41l27.3 41.5-0.753 28.4-48.8-24.7z" fill="#c700b4"/>
  <path d="m449 72.4c1.39-5.67-0.0355-13.4 5.77-16.5 17-9.23 57.4 33.2 57.4 33.2l12.5 9.69 6.92 22.9-19.4-1.67s-21-2.15-31.6-1.37c-6.5 0.481-13.2 6.03-19.1 3.17-10.8-5.26-13.6-25.9-14.9-32.7-1.08-5.49 1.08-11.2 2.41-16.6z" fill="#e31caf"/>
  <path d="m500 344c0.548-5.03 12.2-9.02 12.2-9.02l12 3.27 32.6 24.3-4.04 26.2-33.4-16.2-7.06-14.6s-12.9-7.84-12.2-14z" fill="#00aa73"/>
  <path d="m452 506c6.73-2.1 23.9 5.97 23.9 5.97l0.43 0.334 34.6 26.9-11.8 16.3-19 15.6-19.3-29.5-10.2-29.3s-1.56-5.38 1.4-6.3z" fill="#e3006f"/>
  <path d="m499 126 28.2 7.71-26 27.6s-14.6 20.1-25.6 20.8c-8.53 0.531-22.8-10.2-25.1-14.6-6.36-12.2-8.4-27 1.74-38.9 9.08-10.7 46.8-2.55 46.8-2.55z" fill="#e3388e"/>
  <path d="m372 427c-14.9 7.27-46.5 42.6-31 53.2l10.8 7.36 36.9 6.08c3.11 5.59 7.66 12.5 14.2 13.7 11.9-7.34 29.8-8.65 40.5-19.5 4.82-4.93 8.5-18.9 8.5-18.9s-0.417-16-8.41-24.3c-6.77-6.99-21.2-11.5-21.2-11.5-0.055-0.0247-0.111-0.0478-0.172-0.0625-17.4 2.37-31.9-9.08-50-6.15z" fill="#b4da5d"/>
  <path d="m396 27.6c-3.21-6.66 3.84-17 3.84-17l27.8-17.7 4.63 7.05s29.9 28.3 22.7 43.3c-10.8 11-34.8-2.16-46.9-6.48 0 0-9.74-4.17-12.2-9.2z" fill="#c700b4"/>
  <path d="m-54.2 475 39.9 3.59 14.3 11.6s21.2 8.4 29.9 4.92c5.24-2.08-7.72 15.1-7.72 15.1l-17.3 17.4-55.1-29.8z" fill="#e3e3c9"/>
  <path d="m-32.7 343 10.8-5.21 21.9 33.9s9.61 11.6 16.6 17c5.21 3.99 22 4.14 19.6 11.5-3.89 11.8-36.3 15.1-36.3 15.1l-40.3 6.18-12.9 1.37 13.5-62.4z" fill="#e3aac9"/>
  <path d="m74.2 476c3.49-12.5 14.3-27.3 27.3-27.7 8.7-0.229 19.3 17.6 19.3 17.6l5.01 36.9-12.6 24.7-32.7-25s-8.75-17.8-6.3-26.5z" fill="#1ce39d"/>
  <path d="m362 500c7.43-1.9 14.5-1.74 21.4 2.09 4.63 2.58 11.9 10.3 11.9 10.3l2.15 2.25-11.2 25.7-19.1 1.93-41.4-12 18.5-17.8s10.2-10.5 17.8-12.4z" fill="#aa0016"/>
  <path d="m494 59.4 28.4-15.1 33.8 35.2-7.42 29.5-1.82 1.62-11.2-7.47-23.7-24.9z" fill="#001c34"/>
  <path d="m-52.4 429 52.4-6.99c6.87-0.0632 7.08 4.14 13.9 5.54s6.97 8.35 3.92 16.3c-3.73 9.68-17.8 23.9-17.8 23.9l-5.6 5.73-46.2-7.54-1.61-33.9z" fill="#e3c7ec"/>
  <path d="m29.9 512 0.149-0.189s-0.0122-2.87 0.544-4.15c4.55-10.5 10.8-23.4 21.8-26.4 6.77-1.84 19.9 4.37 19.3 8.44-1.63 11.1 9.71 22.1 9.71 22.1l22.1 25.3-6 9.46-27.5 2.24z" fill="#1c0024"/>
  <path d="m328 101c-2.63 2.02-4.02 3.27-4.17 3.74-0.225 0.885-20.9-4.42-21.1-3.6-6.6 3.36 7.55 24.4 2.11 30.6-4.34 5.86-7.63 12.5-8.46 18.5-0.533 4.2 2.29 11.6 8.46 22.3 3.73 6.51 9.97 10.9 18.7 13.1 4.73 1.2 24.7-7.85 36.4-13.3 0.487 0.595 0.793 0.916 0.875 0.902 9.88-1.6 14.9-2.47 15-2.62 1.93-2.34 3-4.58 3.21-6.73 3.31-33.5 4.87-50.3 4.67-50.6-3.07-4.05-5.63-6.2-7.67-6.46-31.8-4.02-47.8-5.96-48-5.83z" fill="#9c3846"/>
  <path d="m57.6 348c2.3-4.47 21.8-5.86 26.1-8.8 1.11-0.759 16 0.859 23.9 1.87 9.81 1.25 21.3-0.696 29.2 5.17 12 8.87 15.8 24.3 20.5 39.9 1.22 4.02-22.8 13.8-33.5 21.7-11.7 8.58-17 10.9-30.5 31.9-3.37 5.26-34.6-26-51.1-40.8-2.49-5.21 6.56-33.7 15.4-50.9z" fill="#38aac3"/>
  <g>
   <path d="m442 346c-12 2-38.2-0.107-38.1 14.5-7.76 5.57-26 21.3-46.2 32.8-7.46 3.97 4.87 17 6.89 20.7 0.267 0.533 16.3 4.6 48.1 12.2 1.4 0.34 13 0.939 34.7 1.8 4.06 0.0495 3.17-18.8 3.06-29.3 1.54-3.21 2.83-7.64 4.05-13.3 13-23.1 5.9-39.6-12.5-39.4z" fill="#c7b9c1"/>
   <path d="m427 173c-2.45 2e-3 -5.03 0.0521-7.75 0.15-7.56 2.69-35.9-3.42-33.7 6-3-0.409-5.97-0.0769-8.92 1.04-15 2.43-26.3 4.84-39.6 15.8-0.747 20.5-0.297 31.2 1.35 32.3 30.7 19.8 46.2 29.6 46.6 29.5 7.7-1.96 11.7-3.15 11.9-3.56 3.11-5.43 17.6-13.4 25.3-18.3 2.95 0.407 6.05 0.196 9.3-0.643 14.3-3.68 22.1-6.19 23.4-7.52 1.31-1.33 3.48-8.3 6.5-20.9 2.99-12.4 2.11-21.4-2.63-26.8-4.08-4.7-14.7-7.04-31.8-7.02z" fill="#b955ce"/>
   <path d="m320 340c-13.9 18.7-26.1 20.7-27.6 42.7 4.9 7.23 15.8 8.99 22.3 9.09 11-2.19 36.9 10.4 37-1.11 13.5-7.4 44.3-29 47.6-36.6 2.66-5.97 2.88-11 0.684-15.2-1.67-3.08-11.9-11.7-29.9-16.3l-26.8-0.287c-18.8-7.32-19.3 12.2-23.4 17.7z" fill="#9caa34"/>
  </g>
  <path d="m138 411c11.1-4.13 20.2 1.36 27.2 16.5 4.49 9.68 3.86 32.3-7.76 44-7.44 7.44-14.4 3.78-21.7 1.36-7.34-2.42-7-5.93-19-17.5-7.68-7.39-10.1-15.9-7.37-25.5 1.77-6.13 11.3-12.4 28.7-18.9z" fill="#38c798"/>
  <path d="m418 111c21-2.09 26.9 5.32 28.6 8.27 2.07 3.46-1.41 8.03-2.78 22.5-1.62 17-3.07 23.3-22.9 24-50.7 9.36-34.2-6.91-32.6-23.3 1.9-19.2-7.38-30.2 10.5-32z" fill="#c73876"/>
  <path d="m109 258c-6.47 8.65-7.64 19.5-4.6 32.9 9.7 25.1 19.2 38.2 23.3 38.1 9.3 2.2 12.8 9.1 17.1 14.7 8.31 10.3 13.9 34.9 24.9 38.2 15.4 3.18 39.3 0.201 43.6-9.67 11.3-13.5 8.12-35.7 6.47-51.2-0.446-4.18-6.14-12.3-22.3-24.9-6.28-4.9-12.1-7.55-17.4-8-7.7-7.77-21.5-20.4-29.5-23.4-7.46-1.77-35.1-14.7-41.6-6.69z" fill="#4795d7"/>
  <path d="m304 45.5c12.1 20.7 18.2 32.4 18.2 35.2 0.0913 9.85-0.168 15-0.779 15.5-2.19 1.69-7.67 1.05-16.4-1.9-31.4-10.6-36.8-2.88-42.3-17.1-1.08-2.82-2.01-2.14 3.99-8.14 21.5-21.5 33.9-29.3 37.3-23.5z" fill="#8e1c3e"/>
  <path d="m163 396c4.49-7.67 10.3-10.8 17.4-9.3 17.2 3.55 26.7 6.52 28.6 8.9 4.5 5.76 6.53 12.1 6.08 19-1.08 16.8 1.65 34-5.37 33.6-17-0.849-28.6 9.87-31.9 2.61-8.13-17.5-16.6-51.7-14.7-54.9z" fill="#55c74f"/>
  <path d="m419 44.7c26.9 16.6 27.3 9.95 25.8 15.7-2.84 10.7-3.6 43.7-17.2 45.1-25.3 2.51-38.5 3.02-39.7 1.51-2.13-2.8-2.3-11.5-0.517-26 3.32-27-1.53-53.4 13-44.5z" fill="#c71c5c"/>
 </g>
</svg>
