<?xml version="1.0" encoding="UTF-8"?>
<svg width="512px" height="512px" contentScriptType="text/ecmascript" contentStyleType="text/css" version="1.1" viewBox="0 0 512 512" xmlns="http://www.w3.org/2000/svg">
 <g class="voronoi" stroke-width=".5">
  <path d="m458-37.1 39.9 3.59 31.6 25.6 4.85 5.94-17.3 17.4-55.1-29.8z" fill="#e3e3c9"/>
  <path d="m361-16.4-35.5 34.2-19.7 3.72c-6.92 1.31-2.06 10.6-0.969 16.9l25.1 42.4c-0.581 2.81-0.863 5.86-0.832 9.16 0.024 2.63 13.4 5.64 40.2 9.03 7.08 0.895 12.6-15.1 16.7-48 0.986-15.8 5.33-34.4 11.2-48.8l-13.1-13.8z" fill="#aa0016"/>
  <path d="m-13.2 126 13.2 3.6s4.9 1.36 6.31 6.37c1.98 7.04-6.31 13.7-6.31 13.7l-10.9 11.6-25.6 20.8-12.6-8.24-3.62-33.7z" fill="#e3388e"/>
  <path d="m42 415c12.5 17 35.6 14.6 42.1 35.3 4.6 14.6-16.5 10.7-30 18-15.9 8.69-37.1 33.3-46.9 18-7.76-12.1 10.6-23.9 14.4-36.3 2.69-8.78-5.12-31.1 4.01-32z" fill="#00c7e4"/>
  <path d="m460 429 71-9.47 2.17 0.445 0.978 25.5-21.8 22.3s-6.11 3.09-8.65 3.92c-16.9-8.02-38.9 15.5-47 6.89-4.7-5.01-0.105-13 0.268-19.5 0.58-10.1 3.06-30.1 3.06-30.1z" fill="#e3c7ec"/>
  <path d="m18.6 10.9c-7.04 1.5-13.6 9.43-13.7 16.6 1.48 8.58 8.96 14.7 15.1 19.1 6.75 4.82 11.4 6.53 20 17.9 3.86 5.1 8.75 18.9 7.12 25.6-2.83 11.6 7.1 17.7 29.8 18.4 21.9 4.64 35.2 3.01 49.9 8.92 4.85 1.7 3.24 3.75 14.9 3.9 13.3 0.175 21.7-0.851 25.2-3.08 3.97-2.53 7.3-9.76 9.98-21.7 1.69-18.2 28.1-45.5 11.8-54.8 0 0-26.5-19.5-42-23.9-7.91-2.26-19.9-7.91-27.5-4.65l-14.9 1.34c-5.82 0.524-16.4-1.32-16.4-1.32-26.9 18.8-46.5-4.85-69.2-2.31z" fill="#180a97"/>
  <path d="m445-14.3 30.2 14 0.43 0.334s32.5 12.4 34.6 26.9c0.941 6.64-5.66 13.6-11.8 16.3-5.68 2.45-18.4-2.4-18.4-2.4s-12-8.13-16.5-13.7c-6.27-7.9-13.6-27-13.6-27z" fill="#e3006f"/>
  <path d="m481 478c9.04-9.85 15.9-0.172 15.9-0.172l31.6 25.6 4.85 5.94-17.3 17.4-28.7-15.5s-22.4-5.14-26.5-14.3c-2.01-4.53-4.69-5.1 0.522-10.7z" fill="#e3e3c9"/>
  <path d="m-41.1 70.8 11-5.22 42.6 33.1s7.44 9.21 2.41 15.4c-4.09 5.03-14.9 5.82-14.9 5.82l-31.6-2.72-23.3-10.1 3-20.3z" fill="#e31caf"/>
  <path d="m533 148 16.4 59.2-1.36 0.59-14-1.31-22.2-14.1s-8.62-4.19-8.93-12.3c-0.326-8.58 8.93-16.2 8.93-16.2z" fill="#005528"/>
  <path d="m-12.9 332 12.8 26.5 7.06 14.6c6.02 9.37 33.4 19 35.5 27.1 9.6 20.1 41.9 37.5 47.8 35.3 22.6-8.4 9.32-7.85 21-16.4 10.7-7.9 36.6-10.4 42.1-25.9 5.52-15.7-4.64-38.1-16.6-46.9-7.9-5.87-19.4-3.92-29.2-5.17-32-2.38-62.8-5.02-95.7-2.28z" fill="#00aa73"/>
  <path d="m479 349c6.19-0.84 7.9 6.02 12 8.83 6.98 4.81 21.4 13.8 21.4 13.8l14.3 22.1 5.66 18.3-20 3.06c-15.4 2.79-45.5 17.5-57.7 5.77-14.2-15.8 10.7-40.7 18.1-60.6 1.51-4.02 0.0647-10.4 6.24-11.3z" fill="#e3aac9"/>
  <path d="m152 480c14.9-0.512 41.3 10.6 31.3 16.6-6.68 4.02-16.2 15.6-16.2 15.6l-9.94 11.9-28.6-3.55 1.37-8.35s-1.25-13.4-1.55-20.1c-0.25-5.58-3.59-16.5-0.208-16.7z" fill="#38e3df"/>
  <path d="m393 543 7.56-20.8 16.7-10.6s6.34-5.57 10.6-4.65c2.75 0.592 5.11 4.65 5.11 4.65l27.3 41.5-0.753 28.4-48.8-24.7z" fill="#c700b4"/>
  <path d="m-18 59.4 18-9.57s8-3.51 11.9-2.89c25.8 7.21 45.6 43.5 23 63.7l-11.2-7.47-23.7-24.9z" fill="#001c34"/>
  <path d="m449 72.4c1.39-5.67-0.0355-13.4 5.77-16.5 17-9.23 57.4 33.2 57.4 33.2l12.5 9.69 6.92 22.9-19.4-1.67s-21-2.15-31.6-1.37c-6.5 0.481-13.2 6.03-19.1 3.17-10.8-5.26-13.6-25.9-14.9-32.7-1.08-5.49 1.08-11.2 2.41-16.6z" fill="#e31caf"/>
  <path d="m500 344c0.548-5.03 12.2-9.02 12.2-9.02l12 3.27 32.6 24.3-4.04 26.2-33.4-16.2-7.06-14.6s-12.9-7.84-12.2-14z" fill="#00aa73"/>
  <path d="m452 506c6.73-2.1 23.9 5.97 23.9 5.97l0.43 0.334 34.6 26.9-11.8 16.3-19 15.6-19.3-29.5-10.2-29.3s-1.56-5.38 1.4-6.3z" fill="#e3006f"/>
  <path d="m86.9-50 14.6-13.7 19.3 17.6 5.01 36.9-4.68 9.17s-6.22 11.1-11.7 11.6c-6.69 0.567-16.5-11.6-16.5-11.6l-12.5-9.53z" fill="#1ce39d"/>
  <path d="m27.7 115c-5.62 1.45-12.4 16.6-11.1 21.1l-16.6 27.5-20.6 15.4 42.8 27.2s8.04 0.716 15.4-2.97c0.381 0.583 12.3-4.46 12.7-3.94 1.29 1.7 8.44-8.78 10-10.3 10.9-10.6 21-19.1 21-19.1l-44.5-51.6s-5.48-3.37-9.09-3.26z" fill="#005528"/>
  <path d="m499 126 28.2 7.71-26 27.6s-14.6 20.1-25.6 20.8c-8.53 0.531-19.4-9.16-21.7-13.6-6.36-12.2 0.362-24.1 10.5-36 9.08-10.7 34.6-6.48 34.6-6.48z" fill="#e3388e"/>
  <path d="m372 427c-14.9 7.27-46.5 42.6-31 53.2l10.8 7.36 36.9 6.08c3.11 5.59 7.66 12.5 14.2 13.7 11.9-7.34 36.5 2.55 47.2-8.3 4.82-4.93 1.78-30.1 1.78-30.1s-0.417-16-8.41-24.3c-6.77-6.99-21.2-11.5-21.2-11.5-15.4 1.27-35.9-7.78-50.3-6.14z" fill="#b4da5d"/>
  <path d="m144-36 38.5 18.1-15 17.9s-5.14 10-9.94 11.9c-8.93 3.52-20.2 4.56-25.9-3.13-1.69-2.26-1.28-8.77-1.28-8.77l5.04-30.8z" fill="#38e3df"/>
  <path d="m396 27.6c-3.21-6.66 3.84-17 3.84-17l27.8-17.7 4.63 7.05s29.9 28.3 22.7 43.3c-10.8 11-34.8-2.16-46.9-6.48 0 0-9.74-4.17-12.2-9.2z" fill="#c700b4"/>
  <path d="m-54.2 475 39.9 3.59 14.3 11.6s21.2 8.4 29.9 4.92c5.24-2.08-7.72 15.1-7.72 15.1l-17.3 17.4-55.1-29.8z" fill="#e3e3c9"/>
  <path d="m29.9 0.189 0.149-0.189 2.32-2.94 20.7-20 11.7 3.96 16.6 19s5.53 8.09 2.98 10.8c-12.6 13.6-40.3 1.44-54.4-10.7z" fill="#1c0024"/>
  <path d="m-32.7 343 10.8-5.21 21.9 33.9s9.61 11.6 16.6 17c5.21 3.99 22 4.14 19.6 11.5-3.89 11.8-36.3 15.1-36.3 15.1l-40.3 6.18-12.9 1.37 13.5-62.4z" fill="#e3aac9"/>
  <path d="m77.1 475c3.67-11.5 12.4-26 24.4-26.6 8.7-0.383 19.3 17.6 19.3 17.6l5.01 36.9-12.6 24.7-32.7-25s-6.26-18.8-3.43-27.6z" fill="#1ce39d"/>
  <path d="m362 500c7.43-1.9 14.5-1.74 21.4 2.09 4.63 2.58 11.9 10.3 11.9 10.3l2.15 2.25-11.2 25.7-19.1 1.93-41.4-12 18.5-17.8s10.2-10.5 17.8-12.4z" fill="#aa0016"/>
  <path d="m-54.2-37.1 39.9 3.59 31.6 25.6 4.85 5.94-17.3 17.4-55.1-29.8z" fill="#e3e3c9"/>
  <path d="m494 59.4 28.4-15.1 33.8 35.2-7.42 29.5-1.82 1.62-11.2-7.47-23.7-24.9z" fill="#001c34"/>
  <path d="m-52.4 429 52.4-6.99c6.87-0.0632 7.08 4.14 13.9 5.54s6.97 8.35 3.92 16.3c-3.73 9.68-17.8 23.9-17.8 23.9l-5.6 5.73-46.2-7.54-1.61-33.9z" fill="#e3c7ec"/>
  <path d="m29.9 512 0.149-0.189s-0.0122-2.87 0.544-4.15c4.55-10.5 12.9-32.1 23.9-35.1 6.77-1.84 16.3-3.6 15.7 0.466-1.63 11.1 11.1 38.8 11.1 38.8l22.1 25.3-6 9.46-27.5 2.24z" fill="#1c0024"/>
  <path d="m324 105q0.228-0.706 4.17-3.74 0.253-0.195 48 5.83 3.06 0.386 7.67 6.46 0.296 0.39-4.67 50.6-0.319 3.22-3.21 6.73-0.186 0.226-15 2.62-0.952 0.153-38.1-54-2.38-3.47 1.17-14.5z" fill="#aa38e4"/>
  <path d="m162 179c-3.94-1.18-34.2 12.7-36.4 16-0.301 1.77-0.347 4.07 0.0293 5.74l-2.6 9.34c-0.216 0.776-3.19 4.45-10.6 20.5-0.215 0.463-7.24 12.8 2.04 14.7l49 9.84c10.1 2.03 26.5-2.7 30-7.85 6.42-4.26 32-19.3 33.7-25.5 1.48-7.75 1.3-13.6-0.525-17.4-3.6-7.66-9.6-11.8-18-12.4-6.01 0.0366-12.6-0.265-18 1.01-9.42-4.42-19-12.2-23.2-12.4zm16.1 24.8c-0.0161 0.0418-0.0329 0.0853-0.0488 0.127-0.0323-4e-3 -0.0653-7e-3 -0.0977-0.0117 0.0492-0.0371 0.0972-0.0785 0.146-0.115z" fill="#425e56"/>
  <path d="m351 389c27.6-8.34 46.2-17 47.7-15.4l51.2 51.6c0.032 0.26 0.0323 0.422 1e-3 0.487-0.693 1.43-1.53 2.13-2.51 2.09-21.7-0.86-33.3-1.46-34.7-1.8-31.8-7.6-49.6-3.53-49.9-4.06-2.44-8.23-20-28.2-11.8-32.9z" fill="#c7c716"/>
  <path d="m379 180c-4.17-10.3-22.5 4.63-31.7 9.29-12.5 0.871-28.5 1.99-35.8 0.15-1.4-0.4-4.63-5.53-15.2 11.5-7.37 11.9-1.9 37.6 1.51 45.9 1.2 2.97 5.6 3.99 13.2 3.06 19.8 10.3 58.5 0.159 73.4 7.8 7.7-1.96 11.7-3.15 11.9-3.56 4.36-7.6 6.1-12.5 5.21-14.6-16.5-39.7-10.7-31.7-11.3-31.6z" fill="#9c55cf"/>
  <path d="m42.2 115q0.953-0.952 32.4-0.062 35.9 1.02 39.5 5.11 4.1 4.67-2.21 23.9-7.2 21.9-18.3 22.3-12.7 0.368-31.1-23.3-21.1-27-20.3-27.9z" fill="#1c3877"/>
  <path d="m320 340c-19.5 23-26.1 27.7-26.5 31.2-0.803 7.53-1.18 11.4-1.14 11.5 0.09 0.29 0.93 1.34 2.52 3.13 3.5 3.9 10.1 5.89 19.8 5.96 16.8 0.128 37.8-8.53 46-12.3 3.96 1.49 9.33 0.325 16.1-3.51 11.5-6.53 19-13.8 22.6-21.9 2.66-5.97 2.88-11 0.684-15.2-7.62-5.83-30.1-9.42-42.2-8.16-9.86 1.02-14.1-8.86-15-9.91-7.62-7.96-18.5 14.4-22.8 19.2z" fill="#9caa46"/>
  <path d="m138 411c11.1-4.13 20.2 1.36 27.2 16.5 4.49 9.68 3.86 32.3-7.76 44-7.44 7.44-14.4 3.78-21.7 1.36-7.34-2.42-7-5.93-19-17.5-7.68-7.39-10.1-15.9-7.37-25.5 1.77-6.13 11.3-12.4 28.7-18.9z" fill="#38c798"/>
  <path d="m418 111c21-2.09 26.9 5.32 28.6 8.27 2.07 3.46 7.92 5.44 6.55 19.9-1.62 17-12.4 25.9-32.2 26.6-23.4 0.848-34.2-6.91-32.6-23.3 1.9-19.2 11.8-29.7 29.7-31.5z" fill="#c73876"/>
  <path d="m179 288c-8.21-0.222-15.3 4.99-21.1 15.6-10.2 18.4-17.9 34.1-13.1 40.1 8.31 10.3 13.9 34.9 24.9 38.2 15.4 3.18 39.3 0.201 43.6-9.67 11.3-13.5 8.12-35.7 6.47-51.2-0.446-4.18-6.14-12.3-22.3-24.9-6.71-5.24-12.9-7.94-18.5-8.09z" fill="#559c8f"/>
  <path d="m304 45.5c12.1 20.7 18.2 32.4 18.2 35.2 0.0913 9.85-0.168 15-0.779 15.5-2.19 1.69-7.67 1.05-16.4-1.9-31.4-10.6-36.8-2.88-42.3-17.1-1.08-2.82-2.01-2.14 3.99-8.14 21.5-21.5 33.9-29.3 37.3-23.5z" fill="#8e1c3e"/>
  <path d="m157 123c12.3 0.163 3.58 12.1 4.65 28.8 1.02 16.4 6.61 17.8-6.68 22.1-13 4.2-33.7 11.6-38.6 4.24-4.83-7.2-4.98-17.7-0.431-31.5 4.46-13.6-1.74-25.1 10.9-24.9z" fill="#383880"/>
  <path d="m385 176q1.55-1.88 33.8-3.05 32.6-1.18 39.6 6.87 7.11 8.14 2.63 26.8-4.53 18.9-6.5 20.9-2 2-23.4 7.52-21.6 5.58-34.6-25.6-13.1-31.5-11.6-33.4z" fill="#c7557e"/>
  <path d="m158 404c-4.15-7.86 15-19 22.1-17.5 17.2 3.55 26.7 6.52 28.6 8.9 4.5 5.76 6.53 12.1 6.08 19-1.08 16.8-4.69 55.5-25.7 66.7-6.52 3.46-18.3 2.29-21.6-4.97 13.4-20.1-1.42-50.1 0.48-53.3z" fill="#55c74f"/>
  <path d="m168 127c7.05-4.49 11.4-6.28 13.1-5.38 28.5 15.4 30.8 23 30.9 23.6 2.44 11.3 13.9 10.8 15.3 18.7 1.46 8.11-6.61 23.5-8.01 23.4-23.7-1.7-20 6.16-27.6 1.8-8.41-4.87-21.4-13-21.5-14.9-3.94-17.6-4.55-16.7-4.84-25.3-0.253-7.36 2.65-21.9 2.65-21.9z" fill="#553819"/>
  <path d="m405 356c2.84-6.41 15.3-9.72 37.3-9.94 18.4-0.181 25.5 16.3 12.5 39.4-4.99 22.9-11.1 26.2-30.5 6.63-16.2-16.4-22.6-28.4-19.2-36.1z" fill="#c7aa89"/>
  <path d="m305 132q11.7-13.3 26.6 8.52 24.6 35.8 15.3 40.2-15.2 7.23-23.2 5.2-13.1-3.33-18.7-13.1-9.26-16-8.46-22.3 1.33-10.4 8.44-18.5z" fill="#8e3863"/>
  <path d="m406 44.3c26.9 16.6 34.3 34.2 32.8 39.9-2.84 10.7 2.36 19.9-11.2 21.3-25.3 2.51-38.5 3.02-39.7 1.51-2.13-2.8-2.3-11.5-0.517-26 3.32-27 4.11-45.6 18.6-36.7z" fill="#c71c5c"/>
  <path d="m94.2 172q11.9-0.348 19.2 10.5 7.37 10.9 6.78 15.4-0.589 4.52-6.3 16.8-5.78 12.5-35.8 2.47-30.4-10.1-13.1-27.4 17.5-17.5 29.3-17.8z" fill="#1c55cf"/>
  <path d="m336 399q11.3 0.086 19.1 14.2 2.52 4.54 1.39 17.8-0.362 4.26-28.7 32.6-9.08 9.08-15.6 10-2.08 0.295-20.9-15.2-6.03-4.97 5.71-46.4 3.77-13.3 38.9-13z" fill="#8ec7ba"/>
 </g>
</svg>
