<?xml version="1.0" encoding="UTF-8"?>
<svg width="512px" height="512px" contentScriptType="text/ecmascript" contentStyleType="text/css" version="1.1" viewBox="0 0 512 512" xmlns="http://www.w3.org/2000/svg">
 <g class="voronoi" stroke-width=".5">
  <path d="m458-37.1 39.9 3.59 31.6 25.6 4.85 5.94-17.3 17.4-55.1-29.8z" fill="#e3e3c9"/>
  <path d="m-13.2 126 28.2 7.71-26 27.6-25.6 20.8-12.6-8.24-3.62-33.7z" fill="#e3388e"/>
  <path d="m27.5 423 63.4 21.1-29.7 35.2-9.71 3.23-21.7-32.9z" fill="#00c7e4"/>
  <path d="m460 429 71-9.47 2.17 0.445 0.978 25.5-27.4 28-46.2-7.54-1.61-33.9z" fill="#e3c7ec"/>
  <path d="m4.93 27.5 13.7-16.6 35.8 17.7 1.38 30.7-35.8-12.8z" fill="#00009c"/>
  <path d="m445-14.3 30.2 14 0.43 0.334 34.6 26.9-11.8 16.3-19 15.6-19.3-29.5-10.2-29.3z" fill="#e3006f"/>
  <path d="m33.1 462 7.76 30.8-24.3 5.18-9.74-28.9z" fill="#00e358"/>
  <path d="m458 475 39.9 3.59 31.6 25.6 4.85 5.94-17.3 17.4-55.1-29.8z" fill="#e3e3c9"/>
  <path d="m111 30 11.6-13.2 24.7 0.928 42 23.9-2.14 22.8-51.6-6.19-24.5-16.7z" fill="#3800b4"/>
  <path d="m-41.1 70.8 11-5.22 42.6 33.1 6.92 22.9-51-4.39-23.3-10.1 3-20.3z" fill="#e31caf"/>
  <path d="m533 148 16.4 59.2-1.36 0.59-14-1.31-42.8-27.2 20.6-15.4z" fill="#005528"/>
  <path d="m-12.9 332 24.8 6.79 32.6 24.3-4.04 26.2-33.4-16.2-7.06-14.6z" fill="#00aa73"/>
  <path d="m479 343 10.8-5.21 36.2 56 5.66 18.3-60.2 9.24-12.9 1.37 13.5-62.4z" fill="#e3aac9"/>
  <path d="m144 476 38.5 18.1-24.9 29.8-28.6-3.55 6.41-39.1z" fill="#38e3df"/>
  <path d="m393 543 7.56-20.8 27.8-17.7 31.9 48.6-0.753 28.4-48.8-24.7z" fill="#c700b4"/>
  <path d="m-18 59.4 28.4-15.1 33.8 35.2-7.42 29.5-1.82 1.62-11.2-7.47-23.7-24.9z" fill="#001c34"/>
  <path d="m471 70.8 11-5.22 42.6 33.1 6.92 22.9-51-4.39-23.3-10.1 3-20.3z" fill="#e31caf"/>
  <path d="m499 332 24.8 6.79 32.6 24.3-4.04 26.2-33.4-16.2-7.06-14.6z" fill="#00aa73"/>
  <path d="m445 498 30.2 14 0.43 0.334 34.6 26.9-11.8 16.3-19 15.6-19.3-29.5-10.2-29.3z" fill="#e3006f"/>
  <path d="m86.9-50 14.6-13.7 19.3 17.6 5.01 36.9-12.6 24.7-32.7-25z" fill="#1ce39d"/>
  <path d="m361-16.4 23.1 4.88 13.1 13.8-11.2 25.7-19.1 1.93-41.4-12 18.5-17.8z" fill="#aa0016"/>
  <path d="m22 132 11.8-12.1 3-1.97 36 45.8-27.7 36.2-5.32 3.8-17.2-61z" fill="#0038dc"/>
  <path d="m499 126 28.2 7.71-26 27.6-25.6 20.8-12.6-8.24-3.62-33.7z" fill="#e3388e"/>
  <path d="m363 445 14.3 29 0.542 20.5-26.2-6.56-21.7-19.2z" fill="#aae33b"/>
  <path d="m144-36 38.5 18.1-24.9 29.8-28.6-3.55 6.41-39.1z" fill="#38e3df"/>
  <path d="m-66.9-14.3 30.2 14 35 27.2-11.8 16.3-19 15.6-19.3-29.5z" fill="#e3006f"/>
  <path d="m393 31.5 7.56-20.8 27.8-17.7 31.9 48.6-0.753 28.4-48.8-24.7z" fill="#c700b4"/>
  <path d="m-54.2 475 39.9 3.59 31.6 25.6 4.85 5.94-17.3 17.4-55.1-29.8z" fill="#e3e3c9"/>
  <path d="m417 433 33.9 1.52 0.463 34.4-8.5 18.9-6.21 6.11-34 14.2-14.2-13.2-6.53-27z" fill="#c7e30d"/>
  <path d="m29.9 0.189 0.149-0.189 2.32-2.94 20.7-20 11.7 3.96 38.6 44.3-6 9.46-27.5 2.24z" fill="#1c0024"/>
  <path d="m21.2 148 16.4 59.2-1.36 0.59-14-1.31-42.8-27.2 20.6-15.4z" fill="#005528"/>
  <path d="m-32.7 343 10.8-5.21 36.2 56 5.66 18.3-60.2 9.24-12.9 1.37 13.5-62.4z" fill="#e3aac9"/>
  <path d="m86.9 462 14.6-13.7 19.3 17.6 5.01 36.9-12.6 24.7-32.7-25z" fill="#1ce39d"/>
  <path d="m361 496 23.1 4.88 13.1 13.8-11.2 25.7-19.1 1.93-41.4-12 18.5-17.8z" fill="#aa0016"/>
  <path d="m-54.2-37.1 39.9 3.59 31.6 25.6 4.85 5.94-17.3 17.4-55.1-29.8z" fill="#e3e3c9"/>
  <path d="m417-78.8 33.9 1.52 0.463 34.4-8.5 18.9-6.21 6.11-34 14.2-14.2-13.2-6.53-27z" fill="#c7e30d"/>
  <path d="m494 59.4 28.4-15.1 33.8 35.2-7.42 29.5-1.82 1.62-11.2-7.47-23.7-24.9z" fill="#001c34"/>
  <path d="m-52.4 429 71-9.47 2.17 0.445 0.978 25.5-27.4 28-46.2-7.54-1.61-33.9z" fill="#e3c7ec"/>
  <path d="m29.9 512 0.149-0.189 2.32-2.94 20.7-20 11.7 3.96 38.6 44.3-6 9.46-27.5 2.24z" fill="#1c0024"/>
  <path d="m64.2 60.7q12.4-12.4 25.1-16 12.9-3.63 18.1 4.78 5.29 8.59 4.44 32.1-0.865 24-3.48 26.1-2.68 2.17-33.5 1.3-31.4-0.89-27.2-18.3 4.34-17.8 16.5-30z" fill="#1c1c7e"/>
  <path d="m375 120q3.81-1.32 32.5 40.1 5.89 8.5-9.7 27.1-3.2 3.82-40.5-0.718-7.65-0.93-2.04-50 1.15-10.1 19.7-16.5z" fill="#aa38cb"/>
  <path d="m198 180q10.3-1.87 6.61 27.8-1.22 9.69-31.7 16-9.93 2.07-7.46-28.2 0.806-9.89 32.5-15.6z" fill="#5555b9"/>
  <path d="m312 281c-1.25 1.09-1.93 2.39-2.05 3.9l-10.6 13.1c-4.09 5.05-6.14 54.3-10.5 77.1-2.94 16.8 5.14 13.7 11.9 19.9 17.4 8.57 40 28 62.3 21.8 9.8 1.99 32.1 5.12 52.1 9.93 1.2 0.287 12.7 0.861 34.4 1.72 6.18-3.18 6.33-25.5 7.57-33 7.5-9.75 10.6-49.6 13.3-57.7 1.73-1.73-3.17-8.5-14.7-20.3-13.3-13.6-25.5-23-36.7-28-12.9-5.8-19.8-8.05-20.7-6.75l-31-2.05c-13.3-3.46-43.2-9.6-55.4 0.455z" fill="#aea267"/>
  <path d="m182 341c-5.26-0.0796-10.6 6.83-19.8 12.6-12.1 1.83-24.2 8.8-34.4 12.2-7.37 2.36-11.6 4.63-12.6 6.82 0.276 7.1-1.32 20.6-0.395 26.2 0.733 4.47 13.7 1.27 34.2 9.2 7.97 2.42 21.8 17 25.2 23.9 2.07 4.33 11.6 6.92 28.5 7.77 7.01 0.333 11.2-10.3 12.6-32 2.53-10.2 3.95-22.6 8-30.5 0.933-1.8-10.2-11.9-33.5-30.2-1.58-1.25-5.42-5.95-7.81-5.98zm-8.27 44.6c0.0304 0.0575 0.0613 0.116 0.0918 0.174-0.0272 8e-3 -0.0547 0.017-0.082 0.0254-2e-3 -0.0653-8e-3 -0.134-0.01-0.199z" fill="#4bb448"/>
  <path d="m257 82.6q0.125-0.99 62.5 20 2.16 0.729 7.36 9.25 0.18 0.296-41.6 27.6-1.45 0.95-30.8-27.4-1.02-0.985 2.58-29.5z" fill="#711cea"/>
  <path d="m41.3 115q0.952-0.953 30-0.13 33.2 0.938 32.6 24.3-0.673 26.7-11.5 27-12.3 0.359-30.8-23.3-21.1-27-20.3-27.9z" fill="#1c3877"/>
  <path d="m348 192q0.664-0.716 27.2 2.51 18.4 2.24 30.1 27.4 8.08 17.4-2.06 29.5-7.04 8.4-37.9-13.2-21.4-15-21.7-16.3-0.221-0.922 1.96-17.4 1.52-11.4 2.47-12.5z" fill="#aa5594"/>
  <path d="m163 232q1.53-1.7 23.3-6.23 18.6-3.88 28.5 2.76 8.45 5.68 10.3 29.1 1.55 20.1-9.16 23.7-9.16 3.1-33.7-24.1-21-23.3-19.2-25.3z" fill="#557188"/>
  <path d="m145 413q17.3 6.67 23.6 20.2 4.02 8.67-13.4 26.1-11.2 11.2-16.4 12.4-3.36 0.795-21.4-16.5-11.5-11.1-4.2-36.4 4.69-16.2 31.8-5.79z" fill="#38c798"/>
  <path d="m206 58.3q3.58-3.58 5.39-4.32 0.392-0.161 32.2 20.6 6.9 4.49 7.02 4.78 0.027 0.062-3.04 24.3-0.663 5.25-27.4 27.6-5.8 4.84-33.8-12-6.06-3.64 1.48-37.2 1.63-7.27 18.2-23.8z" fill="#551cc9"/>
  <path d="m330 117c-13.4 8.22-34.9 20.5-42.3 28.7-2.14 9.96-3.66 17.4-4.56 22.5-4.23 6.19-12.2 21.4-12.7 26.2-2.67 12.6 13.4 32 12.6 42 0.67 10.7-4.22 39 10.3 50.2 3.1-0.22 5.42-1 6.96-2.34 11.6-10.1 18.2-16.7 19.8-19.9 12.2-24.2 18.3-36.3 18.3-36.5-5.18-13.6 2.3-32 6.54-43.5 4.43-38.7 10.4-57.6 3.14-61-12.5-5.8-16.8-6.31-18-6.38z" fill="#8e55c5"/>
  <path d="m119 270q-0.319-0.962 5.41-17.5 2.28-6.59 23.6-13.8 8.48-2.86 41.1 33.3 12.9 14.4-2.81 32-6.26 7.02-49.4-20.6-17.1-11-17.9-13.4z" fill="#3871b0"/>
  <path d="m36.3 404q21.4-21.4 31.4-22.5 39.3-4.07 40.1 0.41 2.91 17.6 0.478 26-9.57 33.1-9.97 33.2-1.56 0.466-15.3-4.44-53.8-19.3-53.9-19.4-0.347-0.551 0.063-2.04 1.61-5.86 7.07-11.3z" fill="#1cc73b"/>
  <path d="m131 172q19.5-3.09 25.2 5.22 6.08 8.78 4.48 28.3-1.68 20.6-3.3 22.4-1.71 1.89-16.2 6.79-15.3 5.17-18.6 0.648-3.45-4.78-6.64-31.9-3.37-28.6 15-31.5z" fill="#38557c"/>
  <path d="m417 247q2.66-3.18 30.3-10.3 5.06-1.31 14.2 24.4 1.67 4.72-20.3 26.7-4.04 4.04-34.6-9.7-5.61-2.52-4.25-12.1 0.25-1.75 14.8-19.1z" fill="#c771ce"/>
  <path d="m70.7 328q29.6 10.7 30.5 13.1 9.3 25.3 9.11 25.7-2.03 4.32-6.35 4.76-45 4.66-46.3 2.41-13.3-23.5-11.2-25.5 21.4-21.4 24.3-20.4z" fill="#1caa20"/>
  <path d="m362 428q0.107-1.26 7.49-7.44 1.3-1.09 36.9 7.44 6.3 1.51-23.5 31.3-5.27 5.27-19.1-19.8-2.44-4.43-1.84-11.5z" fill="#aac7cf"/>
  <path d="m153 68.3q29.5 7.39 24.6 29.1-4.29 19.1-7.41 20.7-2.74 1.37-29.2-5.06-23.3-5.65-22.4-30.9 0.8-22.2 34.3-13.8z" fill="#381c86"/>
  <path d="m384 115q0.924-0.925 30.4-3.85 34.6-3.44 37.3 0.973 3.1 5.19 1.04 26.9-2.43 25.5-17.3 26.1-17.5 0.637-33.4-22.3-18.7-27-17.9-27.8z" fill="#c73876"/>
  <path d="m219 171q2.31-2.76 32.6 9.41 13.1 5.26 11.6 18.7-0.654 5.81-25.4 22.7-10.7 7.29-23.5-1.3-5.54-3.72-2.07-31.2 1.5-11.9 6.85-18.3z" fill="#7155ac"/>
  <path d="m232 281c-4.16-0.108-10.7 7-18.5 9.63-2.87 1-10 7.93-21.5 20.8l-0.0391-0.0605c-3.19 3.6-5.36 10.7-6.52 21.2-0.333 2.93 10.6 13.1 32.8 30.6 6.16 4.84 9.83 7.12 11 6.83 6.52 0.314 52.3 14.4 52.8 12.8 6.58-23.2 9.06-53.4 8.05-73.2-0.58-10.9-2.27-16.7-5.08-17.6-1.53-0.48-8.13-9.3-17-7.6-23.9 3.43-19.5-2.86-36-3.36z" fill="#689741"/>
  <path d="m43 212q0.3-0.3 0.855-0.441 1.69-0.43 18.2 5.08 50.3 16.8 52 19.1 5.05 7.01 3.07 12.7-6.03 17.4-19.5 18.7-41.2 3.91-44.5-10.7-10.2-44.4-10.1-44.5z" fill="#1c7145"/>
  <path d="m415 53.4q40.4 25 38.1 33.6-4.26 16-26.6 18.3-41.7 4.14-38.7-20.1 5.55-45.1 27.2-31.7z" fill="#c71c5c"/>
  <path d="m229 133q21.2-17.7 31.8-7.52 19.8 19.1 17.5 29.8-4.3 20-6.84 22-4.77 3.71-19.9-2.36-28.3-11.4-30.2-18.7-3.7-13.7 7.65-23.2z" fill="#71385c"/>
  <path d="m93.2 171q11.7-0.339 12.9 0.628 1.23 0.977 4.49 28.7 3.3 28-29.9 16.9-33.6-11.2-16.4-28.5 17.5-17.5 29-17.8z" fill="#1c557e"/>
  <path d="m396 264c0.185 0.129-0.259 3.96-1.33 11.5-6e-3 0.04-0.956 1.45-2.85 4.23-0.0107 0.0153-22.8-3.65-68.3-11-0.243-0.0393 6.52-13.7 20.3-40.9 0.0732-0.145 17.4 11.9 52.1 36.2z" fill="#aa71f1"/>
  <path d="m342 423q14.1 5.01 13.6 11.3-0.172 2.03-28.5 30.3-9.08 9.08-15.6 10-2.08 0.295-20.9-15.2-6.03-4.97 4.09-40.7 3.25-11.5 47.3 4.16z" fill="#8ec7ba"/>
  <path d="m372 37.2q14.1-2 14.5-1 1.18 3.77-0.6 18.3-6.74 54.9-7.1 55.2-1.35 1.35-6.03 2.98-17.7 6.15-22 4.17-16.2-7.48-17.3-9.32-4.25-6.98-4.3-11.9-0.173-18.6 8.04-26.8 31-31 34.8-31.6z" fill="#aa1c3c"/>
  <path d="m175 123q1.49-0.742 26.9 14.5 8.64 5.18 12.9 20.9 1.44 5.34-4.28 12.2-1.94 2.32-33.3 8-10.7 1.93-19.5-10.8-3-4.33 8.92-32.9 4.05-9.69 8.42-11.9z" fill="#5538b8"/>
  <path d="m160 305q19.2 12.3 17.6 26-0.707 6.42-17.3 16.9-7.74 4.88-32.3 12.8-11.5 3.68-18.4-15.2-3.24-8.81 5.3-48.3 3.98-18.4 45.1 7.86z" fill="#388ea9"/>
  <path d="m226 388q4.99-9.78 5.8-9.98 1.43-0.349 18 3.16 29.2 6.19 30.2 6.52 1.78 0.58 4.68 3.08 5.13 4.42 5.87 7.19 1.31 4.9-3.52 21.9-8.53 30.1-22.9 34.8-25.3 8.34-32-0.164-11.9-15-10.8-31.7 1.89-29.4 4.72-34.9z" fill="#71c75f"/>
  <path d="m113 113q1.99-1.61 33.1 5.94 18.7 4.53 8.68 28.4-5.99 14.3-29.7 18.1-14.2 2.26-15.7 1.04-0.917-0.729-0.127-32 0.474-18.8 3.78-21.5z" fill="#38389c"/>
  <path d="m410 184q9.44-11.3 25.6-11.9 16.3-0.592 23.3 7.46 7.11 8.14 2.63 26.8-4.53 18.9-6.5 20.9-2 2-18.2 6.18-16.4 4.24-26.2-16.9-9.92-21.4-0.574-32.5z" fill="#c7557e"/>
  <path d="m259 214c3.71-2.53 9.05 1.41 16 11.8 1.29 1.93 3.24 10.8 5.23 41.6-5.06 19.5-37.2 9.42-47 6.08-2.85-0.987-1.78-7.77-3.68-32.2-0.353-4.55 9.45-13.6 29.4-27.2z" fill="#7171ce"/>
  <path d="m48.9 285q8.21-8.21 27.5-10 35.4-3.37 35.8-2.18 0.728 2.19-3.69 22.6-8.12 37.5-19.5 33.4-21-7.56-29.3-18.7-15.2-20.6-10.8-25z" fill="#1c8e5d"/>
 </g>
</svg>
