<?xml version="1.0" encoding="UTF-8"?>
<svg width="512px" height="512px" contentScriptType="text/ecmascript" contentStyleType="text/css" version="1.1" viewBox="0 0 512 512" xmlns="http://www.w3.org/2000/svg">
 <g class="voronoi" stroke-width=".5">
  <path d="m458-37.1 39.9 3.59 31.6 25.6 4.85 5.94-17.3 17.4-55.1-29.8z" fill="#e3e3c9"/>
  <path d="m-13.2 126 28.2 7.71-26 27.6-25.6 20.8-12.6-8.24-3.62-33.7z" fill="#e3388e"/>
  <path d="m28.7 427c6.27-10.1 55 11.6 55.5 19.7 0.695 11-14.8 22.5-14.8 22.5s-12.2 13.2-15.4 12.1c-12.4-4.3-20.6-33.8-20.6-33.8s-9.3-12.9-4.61-20.5z" fill="#00c7e4"/>
  <path d="m460 429 71-9.47 2.17 0.445 0.978 25.5-27.4 28s-38.5-2.69-48.9-14.3c-7.53-8.44 1.04-27.1 1.04-27.1z" fill="#e3c7ec"/>
  <path d="m4.93 27.5c0.165-7.22 7.13-15 14.2-16.4 12.9-2.48 26.8 7.66 34.1 18.8 5.6 8.59 10.2 23.3 2.53 29.4-21.7 17.2-25.5-5.38-35.8-12.8-6.57-4.72-15.2-11-15-19.1z" fill="#00009c"/>
  <path d="m445-14.3 30.2 14 0.43 0.334 34.6 26.9-11.8 16.3s-10.9 16.8-19 15.6c-11.6-1.79-19.3-29.5-19.3-29.5l-10.2-29.3z" fill="#e3006f"/>
  <path d="m33.1 462c9.15 5.35 13.4 21.8 7.76 30.8-4.37 7.02-24.3 5.18-24.3 5.18l-9.74-28.9s18.4-11.7 26.2-7.15z" fill="#00e358"/>
  <path d="m458 475c9.04-9.85 39.9 3.59 39.9 3.59l31.6 25.6 4.85 5.94-17.3 17.4-55.1-29.8s-9.23-17.1-4.02-22.8z" fill="#e3e3c9"/>
  <path d="m111 30s6.21-10.9 11.6-13.2c7.56-3.25 16.8-1.33 24.7 0.928 15.5 4.42 42 23.9 42 23.9s3.81 18-2.14 22.8c-13.5 10.9-48.5-5.81-69.2-4.31-9.86 0.716-6.9-18.6-6.9-18.6z" fill="#3800b4"/>
  <path d="m-41.1 70.8 11-5.22 42.6 33.1 6.92 22.9-51-4.39-23.3-10.1 3-20.3z" fill="#e31caf"/>
  <path d="m533 148 16.4 59.2-1.36 0.59-14-1.31-42.8-27.2 20.6-15.4z" fill="#005528"/>
  <path d="m-12.9 332 24.8 6.79s41.5 22 46.6 34.5c3.35 8.19-21.5 24.4-29.5 25.5-12.3 1.68-22-25.7-22-25.7l-7.06-14.6z" fill="#00aa73"/>
  <path d="m479 343c2.72-2.92 10.8-5.21 10.8-5.21l36.2 56 5.66 18.3-60.2 9.24-12.9 1.37 13.5-62.4s2.66-12.8 6.91-17.4z" fill="#e3aac9"/>
  <path d="m147 483s22.5-0.964 25.9 11c2.16 7.49-5.42 18.4-5.42 18.4l-9.94 11.9-28.6-3.55 1.37-8.35s-3.1-22.6 2.73-31.2c1.89-2.8 13.9 1.77 13.9 1.77z" fill="#38e3df"/>
  <path d="m393 543 7.56-20.8 27.8-17.7 31.9 48.6-0.753 28.4-48.8-24.7z" fill="#c700b4"/>
  <path d="m-18 59.4 28.4-15.1s29.6 19.5 33.8 35.2c2.59 9.79-1.35 21.4-7.42 29.5-1.26 1.68-4.62 3.13-5.43 3.19-4.47 0.315-4.96-6.11-7.58-9.03-7.64-8.53-23.7-24.9-23.7-24.9z" fill="#001c34"/>
  <path d="m471 70.8s3.38-2.72 7.41-2.28c12.7 1.38 33.7 20.5 33.7 20.5l12.5 9.69 6.92 22.9-51-4.39s-19.2-2.73-23.3-10.1c-3.32-5.98 3-20.3 3-20.3z" fill="#e31caf"/>
  <path d="m508 337c2.84-3.42 4-1.74 4-1.74l12 3.27 32.6 24.3-4.04 26.2-33.4-16.2-7.06-14.6s-10.3-13.7-4-21.3z" fill="#00aa73"/>
  <path d="m445 498 30.2 14 0.43 0.334 34.6 26.9-11.8 16.3-19 15.6-19.3-29.5-10.2-29.3z" fill="#e3006f"/>
  <path d="m86.9-50 14.6-13.7 19.3 17.6 5.01 36.9-4.68 9.17s-5.26 10.3-10.9 11.6c-8.29 1.88-17.2-11.6-17.2-11.6l-12.5-9.53z" fill="#1ce39d"/>
  <path d="m361-16.4 23.1 4.88 13.1 13.8-11.2 25.7-19.1 1.93s-29.7-6.72-31-13.1c-1.76-8.38 8.14-16.8 8.14-16.8z" fill="#aa0016"/>
  <path d="m36.8 118-3 1.97-11.8 12.1-12.6 25.1-30 22.4 42.8 27.2 14 1.31 1.36-0.59-0.453-1.64 8-5.84 27.7-36.2-36-45.8z" fill="#005528"/>
  <path d="m464 121c13.2-5.95 48.2 8.34 48.2 8.34l15 4.11-26 27.6-25.6 20.8s-9.77-4.08-12.6-8.24c-5.68-8.45-6.33-19.8-5.84-30 0.376-7.85 0.794-19.9 6.7-22.6z" fill="#e3388e"/>
  <path d="m358 444c10.4 2.71 19.2 30.1 19.2 30.1s9.27 13.9 3.94 18.1c-7.03 5.64-29.6-4.19-29.6-4.19s-30.2-8.62-24-16c9.07-10.7 22.9-30 30.4-28.1z" fill="#aae33b"/>
  <path d="m144-36 38.5 18.1-24.9 29.8-28.6-3.55 6.41-39.1z" fill="#38e3df"/>
  <path d="m393 31.5 7.56-20.8 27.8-17.7 31.9 48.6s7.38 23.6-0.753 28.4c-15.6 9.33-48.8-24.7-48.8-24.7z" fill="#c700b4"/>
  <path d="m-54.2 475 39.9 3.59 31.6 25.6 4.85 5.94-17.3 17.4-55.1-29.8z" fill="#e3e3c9"/>
  <path d="m417 433s24.7-6.74 31.5 2.3c3.46 4.62 4.76 22.6 2.86 33.7-1.16 6.8-8.5 18.9-8.5 18.9l-6.21 6.11-34 14.2-14.2-13.2s-9.04-18.1-6.53-27c4.48-15.9 35.1-34.9 35.1-34.9z" fill="#c7e30d"/>
  <path d="m29.9 0.189 0.149-0.189 2.32-2.94 20.7-20 11.7 3.96 16.6 19s21.2 14.1 22.1 25.3c0.284 3.72-2.8 7.53-6 9.46-7.88 4.76-18.8 5.23-27.5 2.24-17.1-5.89-40-36.8-40-36.8z" fill="#1c0024"/>
  <path d="m-32.7 343 10.8-5.21 36.2 56 5.66 18.3-60.2 9.24-12.9 1.37 13.5-62.4z" fill="#e3aac9"/>
  <path d="m70.2 479c3.12-5.89 16.8-30.1 31.3-30.3 8.71-0.121 19.3 17.6 19.3 17.6l5.01 36.9-12.6 24.7-32.7-25s-16.7-11.9-10.3-24z" fill="#1ce39d"/>
  <path d="m361 496 23.1 4.88 13.1 13.8-11.2 25.7-19.1 1.93-41.4-12 18.5-17.8z" fill="#aa0016"/>
  <path d="m-54.2-37.1 39.9 3.59 31.6 25.6 4.85 5.94-17.3 17.4-55.1-29.8z" fill="#e3e3c9"/>
  <path d="m500 61.3c1.09-6.72 12.3-11.5 12.3-11.5l10.4-5.52 33.8 35.2-7.42 29.5-1.82 1.62-11.2-7.47-23.7-24.9s-13.7-8.38-12.3-17z" fill="#001c34"/>
  <path d="m-52.4 429 52.4-6.99c6.87-0.0632 14-3.44 20.8-2.04 6.82 1.4 4.03 17.6 0.978 25.5-3.73 9.68-21.8 22.3-21.8 22.3l-5.6 5.73-46.2-7.54-1.61-33.9z" fill="#e3c7ec"/>
  <path d="m29.9 512 0.149-0.189 2.32-2.94 20.7-20 11.7 3.96 38.6 44.3-6 9.46-27.5 2.24z" fill="#1c0024"/>
  <path d="m63.9 60.2q12.4-12.4 25.1-16 12.9-3.63 18.1 4.78 5.29 8.59 4.37 34.3-0.945 26.2-34.3 25.3-34-0.963-29.8-18.4 4.34-17.8 16.5-30z" fill="#1c1c7e"/>
  <path d="m209 192c8.4 0.605 14.4 4.72 18 12.4 1.83 3.85 2 9.65 0.525 17.4-0.743 3.91-11.5 12.1-32.3 24.7-10.5 6.33-12.1 12.2-16.1-2.14-2.01-7.2 1.25-28.7 7.23-43.6 3.01-7.49 5.97-9.93 22.7-8.73z" fill="#5555a5"/>
  <path d="m355 396q1.25-1.71 2.99-2.69 38.7-21.9 41-19.5 51.2 51.6 51.2 51.6 0.048 0.39 1e-3 0.487-1.04 2.15-2.51 2.09-32.6-1.29-34.7-1.8-47.7-11.4-48.1-12.2-9.92-17.9-9.86-17.9z" fill="#c7c716"/>
  <path d="m206 58.3q3.58-3.58 5.39-4.32 0.392-0.161 32.2 20.6 6.9 4.49 7.02 4.78 0.027 0.062-3.1 24.8-0.678 5.37-17.7 28.3-3.69 4.97-40.9-15.1-8.06-4.34-0.997-35.8 1.53-6.81 18.1-23.3z" fill="#551cc9"/>
  <path d="m285 206c16.4-11.5 25.3-17.1 26.7-16.7 12.6 3.2 18.8 5.92 18.7 8.15-0.707 19.4-1.64 29.8-2.8 31.4-6.23 10.4-26.7 23.2-32.8 10.6-10.6-25.8-11.8-32.2-9.89-33.5z" fill="#8e5524"/>
  <path d="m163 182c-5.57 0.992-27.5 3.7-37.1 12.5-1.57 1.45-2.53 5.14-2.55 5.9-1.7 4.04-4.19 16.6-10.6 30.4-0.207 0.446-1.03 10.8 2.04 14.7 11.5 14.6 33.8 24.5 51.9 20.3 3.13-0.727 3.13-2 6.51-7.1 0.0906-0.136 1.32-15.4 2.69-36.2 1.4-21.2 9-24.8 2.79-34.6-3-4.72-12.7-6.43-15.7-5.88z" fill="#386376"/>
  <path d="m426 293c7.7 3.46 22.4 13.9 33.2 21.3 9.01 6.24 28.1 17.9 26.4 19.6-1.51 1.51-26.5 7.33-48.1 7.55-18.8 0.185-29.2-1.66-31.2-5.55-1.78-3.37-1.04-12.9 2.23-28.6 2.84-13.6 8.7-18.4 17.6-14.4z" fill="#c78e87"/>
  <path d="m35.9 404c14.3-14.3 23.4-21.6 27.4-22 15.8-1.63 24.9 0.123 27.3 5.27 9.64 20.2 14 31.9 13.1 35.1-3.62 12.5-0.023 15.8-5.83 18.9-4.66 2.51-10.2-2.8-15.3-4.44-18.2-5.9-53.8-19.3-53.9-19.4-0.232-0.368-0.211-1.05 0.063-2.04 1.08-3.91 3.43-7.68 7.07-11.3z" fill="#1cc73b"/>
  <path d="m42.2 115q0.953-0.952 32.4-0.062 35.9 1.02 39.5 5.11 4.1 4.67-2.21 23.9-7.2 21.9-18.3 22.3-12.7 0.368-31.1-23.3-21.1-27-20.3-27.9z" fill="#1c3877"/>
  <path d="m176 270q-0.063-0.508 4.11-6.81 1.03-1.56 38.7-24.3 9.3-5.61 34.2 32.1 6.14 9.32 5.46 16.8-0.169 1.84-26.7 18.4-6.55 4.09-45.8-26.6-9.69-7.58-9.95-9.63z" fill="#5571c4"/>
  <path d="m338 315q0.485-0.132 5.1 5.47 2.12 2.57 4.05 48.4 0.884 21.1-9e-3 22.3-0.411 0.562-32.2 0.319-14.6-0.112-19.8-5.96-2.38-2.69-2.52-3.13-0.064-0.204 1.14-11.5 0.554-5.19 29.7-39.7 13.4-15.9 14.5-16.2z" fill="#8eaaa9"/>
  <path d="m116 392c11.1-4.13 42.5 20 49.5 35.1 4.49 9.68 22.1 44.6 10.5 56.2-19.4 5.84-48.9-18.8-58.9-28.4-7.68-7.39-10.1-15.9-7.37-25.5 1.77-6.13-11-31.1 6.31-37.5z" fill="#38c798"/>
  <path d="m152 68.8q29.5 7.39 24.9 27.7-4.02 17.9-9.98 21.7-5.24 3.34-25.2 3.08-17.5-0.231-21.6-4.9-3.6-4.1-2.61-31.7 0.876-24.3 34.4-15.9z" fill="#381c86"/>
  <path d="m343 30.1c-4.11 0.0507-8.72 0.412-13.8 1.23-7.42 16.5 14.7 64.5 28.9 77.9 17.1 16.1 47.8 44.5 66.5 45.5 18.7 0.963 31.7 18.7 28-15.2 1.38-14.5 1.03-23.4-1.04-26.9-3.8-11.3-2.12-16 0.389-25.2 1.53-5.74-24.5-24.9-38.1-33.6s-27.6-14.1-42.4-18.6c-9.22-2.81-10.6-5.34-28.4-5.12z" fill="#bd255a"/>
  <path d="m290 159q0.383-0.04 15.2 25.5 0.102 0.175-27.1 19.3-0.186 0.131-41.7 3.15-0.285 0.021-8.41-17.1-0.056-0.117 6.16-24.9 0.043-0.17 55.9-6.01z" fill="#7155f0"/>
  <path d="m370 276q15.1-10.9 22.1-12.7 5.25-1.33 10.9 11.3 4.22 9.55-1.01 34.6-3.94 18.9-30.7 12-20.1-5.15-24-9.81-2.89-3.51 0.297-13.5 2.4-7.49 22.5-22z" fill="#aa8e8f"/>
  <path d="m142 127q18.5 0.245 20.1 25.3 1.53 24.6-18.4 31-19.5 6.3-26.9-4.67-7.25-10.8-0.431-31.5 6.69-20.4 25.6-20.1z" fill="#383880"/>
  <path d="m235 218q1.03-5.43 29.9-7.53 13-0.943 25.2 28.8 5.49 13.4-16.5 30.2-9.88 7.58-31.3-24.9-9.62-14.6-7.32-26.7z" fill="#7171ab"/>
  <path d="m371 327q26.9 6.88 29.4 11.5 3.3 6.25-0.684 15.2-5.38 12.1-22.6 21.9-23.2 13.1-24.4-15.3-1.61-38.4 18.4-33.3z" fill="#aaaa6e"/>
  <path d="m168 127q10.6-6.74 13.1-5.38 42.7 23 42.9 24 3.66 16.9 3.32 18.3-5.91 23.5-8.01 23.4-35.5-2.56-36.3-2.99-12.6-7.31-12.8-10.1-2.92-46.9-2.29-47.3z" fill="#553819"/>
  <path d="m405 356q4.26-9.61 37.3-9.94 27.6-0.272 18.6 41-7.49 34.4-36.7 5.01-24.3-24.5-19.2-36.1z" fill="#c7aa89"/>
  <path d="m363 420q0.224-2.63 42.6 7.51 7.48 1.79-22.3 31.6-5.27 5.27-19.1-19.8-2.44-4.43-1.17-19.3z" fill="#aac7cf"/>
  <path d="m332 232c-4.64 4.13-10.7 11.9-14 14.1-8.57 5.54-20.7 13.3-23 15.1-18.4 14.1-27.6 21.6-27.7 22.4-0.266 2.92-8.46 13.2-9.55 14.2-7.37 6.72-12 8.5-27.3 18.1-1.21 0.754-3.01 4.87-5.41 12.4-0.139 0.433 1.41 11.3 4.66 15.7 11 15 27.9 32.4 46.4 30.9 10.3-0.822 15.1-13.1 22.7-21 6.86-7.12 20.1-22.2 28.9-34.1 3.44-4.64 8.91-13 9.4-14.6 3.66-8.88 8.42-17.8 15.3-22.6 19.2-13.9 25.8-22.7 19.9-26.5-6.21-2.99-35.2-28.6-40.4-24z" fill="#8e80a1"/>
  <path d="m285 135q6.65 3.72 4.85 17.8-0.342 2.68-47.6 7.62-9 0.941-12.3-14.1-0.622-2.87 16.8-26.3 3.32-4.47 38.2 15z" fill="#7138cd"/>
  <path d="m94.2 172q11.9-0.348 19.2 10.5 7.37 10.9 6.78 15.4-0.589 4.52-6.3 16.8-5.78 12.5-35.8 2.47-30.4-10.1-13.1-27.4 17.5-17.5 29.3-17.8z" fill="#1c557e"/>
  <path d="m336 399q11.3 0.086 19.1 14.2 2.52 4.54 1.39 17.8-0.362 4.26-28.7 32.6-9.08 9.08-15.6 10-2.08 0.295-20.9-15.2-6.03-4.97 5.71-46.4 3.77-13.3 38.9-13z" fill="#8ec7ba"/>
 </g>
</svg>
