<?xml version="1.0" encoding="UTF-8"?>
<svg width="512px" height="512px" contentScriptType="text/ecmascript" contentStyleType="text/css" version="1.1" viewBox="0 0 512 512" xmlns="http://www.w3.org/2000/svg">
 <g class="voronoi" stroke-width=".5">
  <path d="m458-37.1 39.9 3.59 31.6 25.6 4.85 5.94-17.3 17.4-55.1-29.8z" fill="#e3e3c9"/>
  <path d="m361-16.4-17 16.4c-17.8 17.9-26 8.99-26.6 31.8l-0.447 18.5c-0.458 19 7.15 12.7 7.24 28.9 0.0307 3.28-2.16 19 4.55 23.1 12.6 7.6 16.3-2.69 42.2-12.5 6.87-2.6 15.3-13.9 18.4-38.9 0.812-6.61-1.15-11.3-1.25-13.9-0.264-7.26 12.4-31.3 9.07-34.7l-13.1-13.8z" fill="#aa0016"/>
  <path d="m-13.2 126 13.2 3.6s6.82 0.799 8.23 5.8c1.98 7.04-8.23 14.3-8.23 14.3l-10.9 11.6-25.6 20.8-12.6-8.24-3.62-33.7z" fill="#e3388e"/>
  <path d="m27.2 426c-6.48 6.12 2.66 23.8 2.66 23.8l21.7 32.9c5.25 4.4 25 16.8 28.9 19.8l32.7 25 12.6-24.7s0.753-25.9-5.01-36.9c-4.04-7.72-19.3-17.6-19.3-17.6l-62.2-23.4s-9.22-1.56-12.1 1.16z" fill="#1ce39d"/>
  <path d="m460 429 71-9.47 2.17 0.445 0.978 25.5-27.4 28s-34.1 0.784-44.5-10.9c-7.53-8.44-3.38-30.6-3.38-30.6z" fill="#e3c7ec"/>
  <path d="m53.1-23-20.7 20-2.32 2.94-0.15 0.189c-1.68 4.3-24.5 15-24.9 27.3-0.297 8.08 15 19.1 15 19.1s14.3 22.4 26.8 20.1c9.11-1.68 22-20.9 30.2-25.4 7.27-4.02 16 0.686 20.7-4.72 1.63-1.87 1.37-5.38 1.08-9.1-0.85-11.2-17.3-27.4-17.3-27.4l-16.6-19z" fill="#1c0024"/>
  <path d="m445-14.3 30.2 14 0.43 0.334s32.5 12.4 34.6 26.9c0.941 6.64-15.8 31.8-15.8 31.8s-10.6 2.38-15-0.0038c-10.3-5.58-19.3-29.5-19.3-29.5l-10.2-29.3z" fill="#e3006f"/>
  <path d="m23.4 454c5.33 1.22 27.5 25.6 21.9 34.6-4.37 7.02-28.7 9.41-28.7 9.41s-17.3-14.1-12.5-23c4.26-8 10-23.1 19.3-21z" fill="#00e358"/>
  <path d="m460 476c9.04-9.85 37.5 2.24 37.5 2.24l31.6 25.6 4.85 5.94-17.3 17.4-55.1-29.8s-6.84-15.7-1.62-21.4z" fill="#e3e3c9"/>
  <path d="m101 24.2c2.05-5.48 14.6-8.34 20-10.7 7.56-3.25 26 4.22 26 4.22s9.59 2.66 13.3 5.78c12.4 10.5 27.7 25.3 19.1 39.1-9.15 14.7-44-4.3-44-4.3s-17.9-9.38-24.5-16.7c-4.5-4.92-11.1-13.8-9.73-17.5z" fill="#3800b4"/>
  <path d="m-41.1 70.8 11-5.22 42.6 33.1s8.15 11.6 3.13 17.8c-4.09 5.03-15.6 3.4-15.6 3.4l-31.6-2.72-23.3-10.1 3-20.3z" fill="#e31caf"/>
  <path d="m533 148 16.4 59.2-1.36 0.59-14-1.31-22.2-14.1s-10.2-4.15-10.5-12.3c-0.326-8.58 10.5-16.2 10.5-16.2z" fill="#005528"/>
  <path d="m-12.9 332 24.8 6.79s34.2 20 36.3 37.1c0.641 5.13-7.23 17.7-12.2 19.3-11.8 3.62-29-22.1-29-22.1l-7.06-14.6z" fill="#00aa73"/>
  <path d="m479 343c2.29-1.89 4.92-2.72 8.76-1.65 13 3.63 23.9 30.4 23.9 30.4l14.3 22.1 5.66 18.3-60.2 9.24s-7.75 0.364-10.6-2.85c-14.2-15.8 11.3-58.1 11.3-58.1s2.1-13.4 6.91-17.4z" fill="#e3aac9"/>
  <path d="m144 476s28.1 2.26 31.2 16.1c1.68 7.61-7.7 19.9-7.7 19.9l-9.94 11.9-28.6-3.55 6.41-39.1z" fill="#38e3df"/>
  <path d="m393 543 7.56-20.8 16.7-10.6s6.32-4.42 10.6-3.5c2.75 0.592 5.14 3.5 5.14 3.5l27.3 41.5-0.753 28.4-48.8-24.7z" fill="#c700b4"/>
  <path d="m-18 59.4 18-9.57s6.83-3.06 10.7-2.75c4.07 0.315 24.5 16.3 30 31.6 3.33 9.27 7.67 22.9 1.26 30.3-1.57 1.83-7.04 1.62-7.04 1.62s-7.76-4.58-11.2-7.47c-8.77-7.36-23.7-24.9-23.7-24.9z" fill="#001c34"/>
  <path d="m466 74.8c3.5-3.57 9.36-7.19 13.4-6.75 12.7 1.38 32.8 20.9 32.8 20.9l12.5 9.69 6.92 22.9-51-4.39s-19.2-2.73-23.3-10.1c-3.32-5.98 3-20.3 3-20.3s2.63-8.79 5.72-11.9z" fill="#e31caf"/>
  <path d="m505 336c2.84-3.42 7.21-0.599 7.21-0.599l12 3.27 32.6 24.3-4.04 26.2-33.4-16.2-7.06-14.6s-13.5-14.9-7.21-22.4z" fill="#00aa73"/>
  <path d="m194 388c-11.9-0.587-21.1 5.45-27.5 12.7-2.02 10 1.78 28.7-0.338 35.2 0 0-6.37 21.6-9.66 29.8-3.37 8.32 10.6 16.3 21.4 16.3 9.77 0.0517 14.8-9.73 20.4-17.2 6.75-9.03 11.7-29.6 11.7-29.6 2.71-4.2 4.4-11.6 5.07-22 0.475-7.39-1.81-14.7-6.85-21.9-1.57-2.23-6.35-3.3-14.4-3.2z" fill="#38c72e"/>
  <path d="m450 503c8.23-7.46 24.9 8.31 24.9 8.31l0.43 0.334 34.6 26.9-11.8 16.3-19 15.6-19.3-29.5-10.2-29.3s-3.42-5.25 0.326-8.64z" fill="#e3006f"/>
  <path d="m86.9-50 14.6-13.7 19.3 17.6 5.01 36.9-4.68 9.17s-2.85 9.15-8.5 10.4c-8.29 1.88-19.7-10.4-19.7-10.4l-12.5-9.53z" fill="#1ce39d"/>
  <path d="m33.8 120c-3.35-1.79-7.41-3.78-8.34-3.02-4.35 3.59-5.85 5.95-8.47 10.9-4.79 9.15-2.8 22-9.66 29.8-1.83 2.08-7.29 6.29-7.29 6.29l-20.6 15.4 20.6 13.1s13.8 11.6 22.2 14.1c3.65 1.11 11.4 0.259 11.4 0.259 5.03 0.114 7.12-4.02 11.5-7.01 0 0 34.4-22.6 27.7-36.2-3.08-6.21-21.9-34.5-39-43.7z" fill="#005528"/>
  <path d="m499 126 28.2 7.71-26 27.6s-5.02 20.8-16 21.6c-9.26 0.728-30.2-6.2-33.7-14.8-3.64-8.98 7.06-24.1 10.5-43.3 1.96-11 36.9 1.25 36.9 1.25z" fill="#e3388e"/>
  <path d="m540 423 63.4 21.1-29.7 35.2-9.71 3.23-21.7-32.9z" fill="#00c7e4"/>
  <path d="m131 9.63-0.264-9.63 5.04-30.8 8.68-5.25 38.5 18.1-15 17.9s-9.71 10.9-14.5 12.7" fill="#38e3df"/>
  <path d="m-66.9-14.3 30.2 14 35 27.2-11.8 16.3-19 15.6-19.3-29.5z" fill="#e3006f"/>
  <path d="m393 31.5c-2.05-7.1 7.56-20.8 7.56-20.8l27.8-17.7 31.9 48.6s6.37 20.9-1.77 25.8c-15.6 9.33-47.7-22.1-47.7-22.1s-15.7-6.59-17.8-13.8z" fill="#c700b4"/>
  <path d="m-54.2 475 39.9 3.59 31.6 25.6 4.85 5.94-17.3 17.4-55.1-29.8z" fill="#e3e3c9"/>
  <path d="m417 433c10.5-4.08 26-6.6 33.9 1.52 7.99 8.25 0.463 34.4 0.463 34.4s6.93 17.9 1.68 23.9c-3.6 4.12-9.63 4.77-15 6.02-12 2.8-23.3 11.4-35.4 9.24-6.37-1.14-14.2-13.2-14.2-13.2s-9.04-18.1-6.53-27c4.48-15.9 19.7-28.9 35.1-34.9z" fill="#c7e39e"/>
  <path d="m-32.7 343 10.8-5.21 36.2 56 5.66 18.3-60.2 9.24-12.9 1.37 13.5-62.4z" fill="#e3aac9"/>
  <path d="m366 497c7.56-2.17 17.7 3.66 17.7 3.66l13.1 13.8-11.2 25.7-19.1 1.93-41.4-12 18.5-17.8s14.8-13 22.4-15.2z" fill="#aa0016"/>
  <path d="m-54.2-37.1 39.9 3.59 31.6 25.6 4.85 5.94-17.3 17.4-55.1-29.8z" fill="#e3e3c9"/>
  <path d="m500 60.9c1.09-6.72 12.1-11.1 12.1-11.1l10.4-5.52 33.8 35.2-7.42 29.5-1.82 1.62-11.2-7.47-23.7-24.9s-13.5-8.79-12.1-17.4z" fill="#001c34"/>
  <path d="m-52.4 429 71-9.47 2.17 0.445s2.63 14.3-0.426 22.3c-3.73 9.68-20.3 25.5-20.3 25.5l-5.6 5.73-46.2-7.54-1.61-33.9z" fill="#e3c7ec"/>
  <path d="m29.9 512 0.149-0.189 2.32-2.94s7.41-15.5 16.9-16.8c3.41-0.452 9.43-0.541 12.8 1.75 6.99 4.68 19.2 18 19.2 18l22.1 25.3-6 9.46-27.5 2.24z" fill="#1c0024"/>
  <path d="m47.1 112c1.52-6.45 27 0.0936 41.6-0.772 9.44-0.56 23.6 5.89 26.7 9.48 3.6 4.1 3.62 12.1 0.068 24-4.05 13.6-10.5 20.5-19.3 20.8-10 0.293-21.2-7.46-33.6-23.3-14.1-18-18.1-19.2-15.5-30.2z" fill="#1c3877"/>
  <path d="m326 168q9.7-9.73 33.2-4.24 24.8 5.78 26.2 7.4 1.51 1.7 2.32 28.4 0.854 28.1-8.27 27.9-9.61-0.217-35.5-24.6-27.2-25.7-18-34.9z" fill="#aa5536"/>
  <path d="m188 214c-21.4 2.94-19.1 10.3-56.8 31.3-2.05 1.14 7.52 10.7 28.7 28.6 1.09 0.926 35.2 2.97 53.9-5.78 3.36-0.308 6.85-1.56 10.5-3.78 19.5-12 28.7-20.1 27.4-24.2-2.72-8.99-8.85-14.5-18.4-16.5-14 1.11-35.7-10.2-45.3-9.52z" fill="#4771ab"/>
  <path d="m293 350c19.9-14.5 31-21.5 33.3-20.9 30.5 6.95 45.3 7.84 41.8 10.2-45.6 30.2-47.4 37.8-70.3 42.2-3.89 0.752-6.31-8.13-6.66-9.84-4.48-22.3 0.315-20.5 1.84-21.6z" fill="#8eaa1d"/>
  <path d="m141 410c11-0.533 15-3.04 21.2 10.2 3.93 8.48 1.44 27.2-10.2 38.9-7.44 7.44-9.76 11.7-13.3 12.6-2.24 0.53-9.36-4.98-21.4-16.5-7.68-7.39-9.6-17.7-5.75-31.1 2.47-8.53 12.3-13.2 29.4-14z" fill="#38c798"/>
  <path d="m310 181q3.06-1.94 38.7 31.7 17.4 16.4-12.4 25.9-14.5 4.64-26.7-34.6-5.94-19.1 0.343-23.1z" fill="#8e55a7"/>
  <path d="m243 343q21.7-4.16 31 2.43 9.63 6.88 13.2 24.5 3.7 18.4-30.1 23.2-35.3 5.07-40.6-2.39-5.46-7.78 0.031-25.4 5.74-18.4 26.6-22.4z" fill="#71aa7d"/>
  <path d="m36.1 404c14.3-14.3 24-21.7 29.3-22.2 20.5-2.12 31.6-1.17 33.2 2.85 6.32 15.8 8.84 25.9 7.56 30.3-5.04 17.4 3.51 22.5-4.3 27.4-5.56 3.51-9.77-2.32-18.9-5.59-35.9-12.8-53.8-19.3-53.9-19.4-0.232-0.367-0.211-1.05 0.063-2.04 1.07-3.91 3.43-7.68 7.07-11.3z" fill="#1cc73b"/>
  <path d="m88.9 44.2c-8.57 1.75-16.8 7.7-25.1 16-8.12 8.12-13.6 18.1-16.5 30-2.83 11.6 7.26 21.2 29.8 18.4 22.7-2.81 43.3 15.7 61.3 14 8.78-0.915 16.9-4 24.3-9.26 8.41-5.98 13.6-13.4 15.6-22.2 2.25-10-6.46-17.5-26.1-22.4-4.59-1.15-1.51 1.18-12.4-2.06s-39.1-24.8-50.8-22.4z" fill="#2a1c29"/>
  <path d="m427 111c14.8-1.47 23.1-0.737 24.9 2.21 2.07 3.46 2.41 12.4 1.04 26.9-1.62 17-11.2 25.8-28.6 26.5-20.6 0.747-27 8.85-32.9 1.12-5.93-7.73 1.81-11.2 7.21-27 6.35-18.5 15.8-28.4 28.4-29.7z" fill="#c73876"/>
  <path d="m316 122c-5.46-0.0481-12.9 0.823-22.4 2.61-15.4 6.33-28.7 22.2-41.8 34.7-12.1 11.5-14 10.8-33.7 37-8.12 10.8-1.54 18.5 19.8 23.1 24.1 1.58 40.7-32 61-39.3 2.13-0.0747 5.61-1.64 10.4-4.69 1.41-0.891 6.99-6.23 16.8-16 2.85-2.86 3.2-13.7 1.06-32.6-0.353-3.1-4.04-4.68-11.1-4.74z" fill="#804748"/>
  <path d="m383 286q8.4 0.39 1.46 42.7-1.09 6.67-7.02 5.97-0.934-0.111-43.5-9.81-6.7-1.53-4.58-35.9 0.334-5.42 53.6-2.94z" fill="#aa8ed2"/>
  <path d="m156 327q2.96-2.17 31.8 0.436 9.97 0.901 23.4 13 4.66 4.19-3.69 30.9-2.89 9.24-24.2 11.1-7.37 0.633-28.5-36.4-7.32-12.8 1.23-19.1z" fill="#55aab7"/>
  <path d="m240 296q19.9 5.02 21.9 23.2 1.59 14.7-22 19.2-19 3.63-29-5.4-8.09-7.27-1.2-27.2 5.55-16 30.3-9.8z" fill="#718e8b"/>
  <path d="m40 310c25.2 9.06 68.1 32.6 67.5 34.3-7.13 18.4-11.8 27.8-14.1 28-23.5 2.43-35.6 2.89-36.5 1.39-8.85-15.6-45.7-42-44.3-43.4 14.3-14.3 25-21.2 27.4-20.3z" fill="#1caa20"/>
  <path d="m298 187c-7.85 0.273-13.6 8.61-17.2 13-17.6 21.4-22.3 16.8-25.3 29.4-2.8 12 8.85 28.5 9.25 35.8 0.954 17.4 1.41 36.5 1.84 40.4 1.92 17.7 4.09 27.4 6.52 29.1 10.1 7.24 17.3 9.35 21.4 6.34 17.3-12.6 26.1-21.4 26.4-26.6 1.32-21.4 1.32-33.1 0.01-35-3.92-5.77-3.43-24.1-4.54-33.9 0.334-3.59 0.0127-6.97-0.979-10.2-10-32.3-15.9-48.4-17.5-48.4z" fill="#8e803b"/>
  <path d="m112 256c-5.47 8.75-33 19.4-41.6 20.5-8.7 0.827-24.9 13.8-22.7 21.2 2.22 7.44 32.2 28.6 47.2 34.1 9.28 3.34 27.4 0.307 30.7-1.5 11.2-1.93 17.8-3.57 19.6-4.93 5.76-4.23 8.96-9.56 9.59-16 1.9-19.4 0.0748-31.5-5.48-36.2-16.8-14.2-25.8-21.4-27.2-21.7-4.1-0.704-8.25 1.95-10.2 4.45z" fill="#2a8e51"/>
  <path d="m332 114q0.439-3.74 10.4-7.52 39.3-14.9 43.4-10.9 16.2 15.7 12.6 26.1-14.1 41.1-23.8 38.8-38.5-8.98-39.4-16.4-3.32-29.2-3.21-30.1z" fill="#aa383b"/>
  <path d="m113 346q1.02-2.63 5.01-6.34 0.379-0.352 21.9-4 2.04-0.347 28.1 45.1 2.47 4.32-10.4 19.2-1.23 1.41-39.7 3.28-3.65 0.177-14.5-27-1.03-2.58 9.67-30.3z" fill="#38aa29"/>
  <path d="m415 53.5q40.4 25 38.1 33.6-4.26 16-18.6 17.5-26.8 2.66-33.8-4.22-13.2-12.8-11.1-29.4 3.79-30.8 25.5-17.4z" fill="#c71c5c"/>
  <path d="m346 242c16.6-5.29 27.6-7.88 33.1-7.76 7 0.158 12.1 2.08 15.2 5.78 4 4.72 5.32 11.3 3.94 19.7-1.75 10.8-3.17 16.9-4.24 18.4-1.37 1.89-11.1 2.42-29.1 1.58-23-1.07-30.7 3.34-33.7-1.06-3.81-5.62-5.49-18.6-3.59-23 2.42-5.57 5.48-9.56 18.5-13.7z" fill="#aa7171"/>
  <path d="m164 280c11.6-6.72 24.7 2.66 39.3-0.36 5.9-1.22 13.1 4.39 8.39 14.2-4.67 9.82-8 23.5-18.1 28.4-10.2 4.86-33.8-3.4-33.7-3.84 2.49-25.4-3-34.2 4.21-38.4z" fill="#558e10"/>
  <path d="m423 174c19.1-0.695 50.8 8.09 55.5 13.5 4.74 5.43-7.99 14.3-12.1 21.4-3.82 6.66-10.3 18.6-11.6 19.9-1.33 1.33-9.59 3.96-24.8 7.88-15.4 3.96-24.8 3.85-28.4-0.329-3.59-4.23-5.66-15.4-6.21-33.6-0.558-18.4-10.6-30.6 27.5-28.6z" fill="#c7557e"/>
  <path d="m254 252c7.06 8.71 7.46 16.3 7.66 25 0.156 6.84 3.67 22.1-5.12 19.9-21-5.29-40.6-12.7-41.2-14.4-1.38-4.1 2.15-8.74 10.6-13.9 20.1-12.4 25.1-20.2 28-16.5z" fill="#717150"/>
 </g>
</svg>
