<?xml version="1.0" encoding="UTF-8"?>
<svg width="512px" height="512px" contentScriptType="text/ecmascript" contentStyleType="text/css" version="1.1" viewBox="0 0 512 512" xmlns="http://www.w3.org/2000/svg">
 <g class="voronoi" stroke-width=".5">
  <path d="m138 297c-2.67-0.0958-5.19 0.704-7.59 2.4-6.05 15.9-15.8 35.9-16.9 47.6-0.287 16.7-0.0442 25.6 0.729 26.8 4.21 6.23 7.87 9.56 11 9.98 17 2.3 25.9 3.27 26.8 2.9 4.86-1.99 9.01-4.72 12.5-8.19 15.2-15.3 27.8-25.3 31.4-30.2 2.31-3.12 13.7-5.33 10.3-8.11-31.3-26-18.8-13.9-59.8-40.2-2.94-1.89-5.74-2.88-8.41-2.97z" fill="#389cb9"/>
  <path d="m458-37.1 39.9 3.59 31.6 25.6 4.85 5.94-17.3 17.4-55.1-29.8z" fill="#e3e3c9"/>
  <path d="m361-16.4-34.6 33.4c-11 5.06-25.3 14.9-20.6 21.1l7.99 10.7s6.37 25.2 12.7 20.1c10.8-8.7 35.6-25.4 42.9-30.5 0 0 15.8-9.84 16.7-10.5 7.55-5.5 11.2-25.7 11.2-25.7l-13.1-13.8z" fill="#aa0016"/>
  <path d="m-13.2 126 13.2 3.6s7.72 1.42 9.13 6.42c1.98 7.04-9.13 13.6-9.13 13.6l-10.9 11.6-25.6 20.8-12.6-8.24-3.62-33.7z" fill="#e3388e"/>
  <path d="m102 378c-6.46 0.043-17.8 0.9-34 2.57-6.59 0.682-17 8.17-31.3 22.4-3.64 3.64-7.22 7.27-7.07 11.3 0.396 10.2 0.679 23.7 0.57 35.1 1e-6 0 10.4 26.2 21.7 32.9 4.41 2.63 12.5 3.22 15.3 1.31 9.7-4.89 27.3-43.7 31.5-43.5 0.265-0.0787 4.43-14.1 12.5-41.9 2.05-7.1 1.09-13.6-2.87-19.5-0.379-0.561-2.51-0.829-6.38-0.803z" fill="#0ec7d1"/>
  <path d="m460 429 71-9.47 2.17 0.445 0.978 25.5-27.4 28-46.2-7.54-1.61-33.9z" fill="#e3c7ec"/>
  <path d="m25.9 9.01c-6.25-5.07-16.1 13.6-18.8 21.2l-7.05 19.7-18 9.57 41.8 43.7s6.31 5.44 10.6 4.3c4.61-1.21 7.01-9.61 7.01-9.61 3.81-6.63 14.6-33.2 14.4-38.6 0 0 8.15-11.5 6.47-18.3-3.93-15.9-36.4-32-36.4-32z" fill="#001c34"/>
  <path d="m445-14.3 30.2 14 0.43 0.334 34.6 26.9-11.8 16.3s-11.1 14.9-19.2 13.6c-11.6-1.79-19.1-27.5-19.1-27.5l-10.2-29.3z" fill="#e3006f"/>
  <path d="m24.7 454c9.15 5.35 21.6 28.3 16.3 38.3-3.93 7.28-17.1 9.27-24.3 5.18-8.83-5.03-9.74-28.9-9.74-28.9s9.92-19.2 17.7-14.6z" fill="#00e358"/>
  <path d="m463 478c9.04-9.85 34.8 0.875 34.8 0.875l31.6 25.6 4.85 5.94-17.3 17.4-55.1-29.8s-4.1-14.4 1.12-20.1z" fill="#e3e3c9"/>
  <path d="m122 16.8c-5.37 2.31-11.6 13.2-11.6 13.2l0.0527 11.7 7.88 38.9c-0.194 1.18-0.321 2.42-0.369 3.74-0.661 18.3 5.73 29.4 19.2 33.3 15.3 4.37 24.8 5.95 28.5 4.72 4.2-1.39 7.85-8.99 11-22.8 0.865-3.85 1.03-7.38 0.5-10.6 0 0 8.64-40 2.25-54.9-6.37-14.8-32.7-16.2-32.7-16.2s-17.1-4.18-24.7-0.928z" fill="#380e9d"/>
  <path d="m-41.1 70.8 11-5.22 42.6 33.1s14.9 11.3 9.85 17.5c-4.09 5.03-22.3 3.74-22.3 3.74l-31.6-2.72-23.3-10.1 3-20.3z" fill="#e31caf"/>
  <path d="m533 148 16.4 59.2-1.36 0.59-14-1.31-22.2-14.1s-15-5.1-15.3-13.2c-0.326-8.58 15.3-15.3 15.3-15.3z" fill="#005528"/>
  <path d="m-12.9 332 12.9 3.52s26 6.47 29.7 8.35c14.9 7.63 16.4 13.9 21.5 26.4 3.35 8.19-2.9 14.9-10.7 19-11 5.75-33.4-16.2-33.4-16.2l-7.06-14.6z" fill="#00aa73"/>
  <path d="m478 348c2.44-1.42 6.22-4.19 10.1-3.11 13 3.63 24.3 27.5 24.3 27.5l14.3 22.1 5.66 18.3-60.2 9.24s-18.1-0.764-16.7-4.88c4.87-15.3 17.4-56.1 17.4-56.1s-0.149-9.96 5.24-13.1z" fill="#e3aac9"/>
  <path d="m201 350c-0.741 0.361-18.3 21.5-37.5 41.2-1.85-0.103-3.42 0.106-4.71 0.633-0.647 0.265-6.28 11.7-5.19 15l-17.9 74.6-5.04 30.8-1.37 8.35 28.6 3.55 9.95-11.9 41.6-74c3.09-2.69 4.89-7.99 5.4-15.9 1.34-23.1 1.45-26.6 3.7-45.3-1.56-21-7.23-31.9-17.5-26.9z" fill="#38e3df"/>
  <path d="m-66.9 498 30.2 14 35 27.2-11.8 16.3-19 15.6-19.3-29.5z" fill="#e3006f"/>
  <path d="m393 543 7.56-20.8 16.7-10.6s6.12-5.97 10.4-5.04c2.75 0.592 5.33 5.04 5.33 5.04l27.3 41.5-0.753 28.4-48.8-24.7z" fill="#c700b4"/>
  <path d="m471 70.8c6.2-3.63 18.5-4.48 21.5-1.75 7.29 6.65 19.7 20 19.7 20l12.5 9.69 6.92 22.9-51-4.39s-19.2-2.73-23.3-10.1c-3.32-5.98 3-20.3 3-20.3s5.22-12.7 10.8-16z" fill="#e31caf"/>
  <path d="m506 338c2.84-3.42 6.25-2.76 6.25-2.76l12 3.27 32.6 24.3-4.04 26.2-33.4-16.2-7.06-14.6s-12.5-12.7-6.25-20.2z" fill="#00aa73"/>
  <path d="m450 500c8.23-7.46 25.2 11.7 25.2 11.7l0.43 0.334 34.6 26.9-11.8 16.3-19 15.6-19.3-29.5-10.2-29.3s-3.68-8.65 0.0629-12z" fill="#e3006f"/>
  <path d="m86.9-50 14.6-13.7 19.3 17.6 5.01 36.9-4.68 9.17s-4.43 9.85-10.1 11.1c-8.29 1.88-18.1-11.1-18.1-11.1l-12.5-9.53z" fill="#1ce39d"/>
  <path d="m49.8 114c-9.52-0.305-7.75 1.57-16 5.23 0 0-7.88 4.93-9.84 10.2-1.25 3.38-1.29 12.7-1.29 12.7s8.4 45.8 17.2 61c2.9 5.02 14.3-9.81 14.3-9.81 11.7-9.82 19.4-21.4 34.3-27.5 4.95-0.144 9.8-9.12 14.5-26.9 4.16-15.6-5.67-23.8-29.5-24.4-10.4-0.295-18.3-0.437-23.7-0.426z" fill="#0e381f"/>
  <path d="m414 111c-19.6 1.95-22-1.81-27.9 5.59-5.55 6.9-2 8.23 0.484 26.6 7.91 21.4 1.18 10.8 3.62 31.3-0.329 0.581 0.661 6.47 2.97 17.7 2.28 11.1 7.62 21.3 16 30.8 8.3 9.36 17.5 12.7 27.7 10.1 10.1-2.6 12.9-1.57 17.1-5.9 5.07-5.23 3.49-8.27 6.51-20.9 2.45-10.2 15.2-24.6 21.1-29.4 0 0 13.3-10.1 19.4-15.8 3.89-3.62 10.9-11.6 10.9-11.6l15-16-28.2-7.71c-32.8-0.636-59-17.3-84.8-14.8z" fill="#e3388e"/>
  <path d="m360 446c10.4 2.61 17.2 28.1 17.2 28.1s5.88 16.2 0.542 20.5c-7.03 5.64-17.5-3.4-26.1-0.844-10.3 3.07-32.8 4.48-32.5-5.17 0.491-12.6 27.6-45.9 40.8-42.6z" fill="#aae33b"/>
  <path d="m144-36 38.5 18.1-24.9 29.8-28.6-3.55 6.41-39.1z" fill="#38e3df"/>
  <path d="m393 33.4c-2.05-7.1 7.29-22.8 7.29-22.8l27.8-17.7 31.9 48.6s13.1 22.2 4.93 27c-15.6 9.33-37.1-13.8-54.4-23.3-6.19-3.38-15.4-4.64-17.5-11.9z" fill="#c700b4"/>
  <path d="m-54.2 475 39.9 3.59 31.6 25.6 4.85 5.94-17.3 17.4-55.1-29.8z" fill="#e3e3c9"/>
  <path d="m500 60.9c1.09-6.72 12.1-11.1 12.1-11.1l10.4-5.52 33.8 35.2-7.42 29.5-1.82 1.62-11.2-7.47-23.7-24.9s-13.5-8.79-12.1-17.4z" fill="#001c34"/>
  <path d="m417 433c10.5-4.08 38.3-1.98 36.9 9.24-1.52 12-2.57 26.7-2.57 26.7s4.77 12.3 2.56 17.9c-2.37 6.05-12.2 9.58-15.1 12.3-9.2 8.31-24.1 12.1-36.1 8.95-6.26-1.62-10.9-7.65-14.2-13.2-4.67-7.99-10.3-18.7-4.35-25.8 10.9-12.9 17.5-30.2 32.9-36.1z" fill="#c7e30d"/>
  <path d="m29.9 0.189 0.149-0.189 2.32-2.94 20.7-20 11.7 3.96 16.6 19s17.4 15.2 18.2 26.4c0.284 3.72-8.1 9.41-10.3 11.3-7.04 5.92-19.4-0.668-19.4-0.668z" fill="#1c0024"/>
  <path d="m18.1 143c4.29 11.2 3.26 21.7 6.21 32.3 3.07 11 12.7 24.4 9.66 31.5-1.85 4.3-11.8-0.518-11.8-0.518l-42.8-27.2 20.6-15.4s15.1-28.3 18.1-20.6z" fill="#005528"/>
  <path d="m-32.7 343 10.8-5.21 36.2 56 5.66 18.3-60.2 9.24-12.9 1.37 13.5-62.4z" fill="#e3aac9"/>
  <path d="m86.9 462c3.12-5.89 7.9-13.7 14.6-13.7 8.71-0.061 19.3 17.6 19.3 17.6s7.55 22.5 5.47 34.7c-0.576 3.38-5.14 11.4-5.14 11.4l-7.9 15.5-20.3-15.5s-11.1-6.82-13-11.7c-5.07-12.7 0.619-26.3 7.02-38.4z" fill="#1ce39d"/>
  <path d="m360 500c7.56-2.17 16.8-2.42 24.1 0.872 4.84 2.18 11 11.5 11 11.5l2.15 2.25-11.2 25.7-19.1 1.93-41.4-12 18.5-17.8s8.42-10.2 16-12.4z" fill="#aa0016"/>
  <path d="m-54.2-37.1 39.9 3.59 31.6 25.6 4.85 5.94-17.3 17.4-55.1-29.8z" fill="#e3e3c9"/>
  <path d="m-52.4 429 71-9.47 2.17 0.445s5.19 12.7 2.13 20.7c-3.73 9.68-22.9 27.1-22.9 27.1l-5.6 5.73-46.2-7.54-1.61-33.9z" fill="#e3c7ec"/>
  <path d="m29.9 512 0.149-0.189 2.32-2.94 20.7-20 11.7 3.96 38.6 44.3-6 9.46-27.5 2.24z" fill="#1c0024"/>
  <path d="m66.7 49.8c3.12-11.3 14.3-2.7 22.7-5.08 8.61-2.42 14.6-0.829 18.1 4.78 3.53 5.73 4.98 17.1 4.37 34.2-0.628 17.4 5.28 20.2-1.11 26.2-8.12 7.59-11.2-0.209-33.3-0.835-22.6-0.639-30.9-5.64-28.1-17.2 2.89-11.9 14.4-31.4 17.4-42z" fill="#1c1c7e"/>
  <path d="m332 111c-8.09 3.2-5.59 7.03-15 21.3-0.179 0.271-4.12 1.63 9.99 33.1 1.25 2.8 7.49 38 7.36 42.2-0.525 17.6-0.378 27.8 0.439 30.5 1.57 5.19 8.32 3.62 20.2-4.74 22.9-16 33.5-27.9 32-35.5-2.38-7.35-3.9-34.3-1.67-41.2 0.012-0.022-5.2-31.7-11.8-37.2-10.8-9.07-28.3-13.8-41.5-8.59z" fill="#aa471f"/>
  <path d="m368 350c-42.5 24.7-61.2 36.1-61.9 42.5-0.771 6.75 13.8 5.73 18.8 7.91 32.2 14 36 12.9 36.3 12.7 13.2-0.151 42.2 10.5 54 13.3 1.35 0.322 12.9 0.913 34.6 1.77 0.979 0.0387 1.81-0.658 2.51-2.09 0.0313-0.064-0.436-9.23-3.74-11.6-21.8-15.5-31.3-19.6-37.5-26.2-4.53-4.78-24.2-41.8-24.4-42-4.6-5.75-15.2 1.67-18.6 3.66z" fill="#b9b934"/>
  <path d="m300 43.3c-5.73 0.141-17 8.6-33.8 25.4-12.8 11.3-23.8 45-13.6 58.2 13.1 17.1 15.4 18.9 26.3 19.7 11.9 0.843 31.1-16.8 31.5-17.3 9.31-14.1 13.9-21.2 13.9-21.3-5.48-10.3-2.53-18.1-2.56-26.7-0.032-3.43-6.11-15.5-18.2-36.2-0.74-1.26-1.91-1.88-3.52-1.84z" fill="#801c22"/>
  <path d="m359 337q14.4 6.7-36.5 36.3-22.8 13.3-23.3 12.7-0.225-0.266-0.434-0.686-0.094-0.188 0.447-5.69 0.242-2.46 19.1-40.6 8.41-17 40.7-2.05z" fill="#8eaaab"/>
  <path d="m139 393c19.1-2.82 3.83 38.3-5.9e-4 56.9-1.64 7.94-6.14 21.5-9.64 22.3-2.24 0.531-0.39-6.6-12.4-18.1-20.9-17.9-8.44-21.7-2.28-43.1 3.95-13.7 12-19.7 24.3-18z" fill="#38c798"/>
  <path d="m298 142c8.75-4.67 12.4 0.92 22.5 19.7 6.99 13 5.68 22.3 2.79 25.2-2.01 2.01-2.84 1.85-20.8-0.726-12.4-1.79-19.8-3.81-22-6.06-1.52-1.56-2.12-7.39-1.79-17.5 0.23-7 6.65-13.9 19.3-20.6z" fill="#8e3894"/>
  <path d="m137 187q3.32-1.93 31.5 5.92 8.94 2.49 12.9 9.46 1.24 2.21-28.8 23.4-9.51 6.71-24.2-9.63-4.64-5.18-2.58-18.8 0.653-4.3 11.1-10.4z" fill="#3855bb"/>
  <path d="m448 237q4.71-1.22 13.8 24.5 1.67 4.72-20.3 26.7-4.04 4.04-31.2-8.16-4.98-2.24 9.39-31.2 2.64-5.31 28.3-11.9z" fill="#c771ce"/>
  <path d="m70.9 328q36.7 13.2 36.7 15.8-0.464 27.1-4.73 27.5-44.4 4.6-45.7 2.35-13.3-23.5-11.2-25.5 21.4-21.4 25-20.2z" fill="#1caa20"/>
  <path d="m362 422q0.194-2.28 2.92-3.66 0.482-0.242 40.3 9.29 7.03 1.68-22.8 31.5-5.27 5.27-19.1-19.8-2.44-4.43-1.34-17.3z" fill="#aac7cf"/>
  <path d="m386 35.6c0.789 2.51 0.589 8.6-0.6 18.3-4.5 36.6-6.86 55-7.1 55.2-0.905 0.905-4.54 0.919-10.9 0.04-24-3.32-36.3-5.28-36.6-5.86-1.35-2.22-2.04-4.97-2.07-8.25-0.115-12.4 2.56-21.4 8.04-26.8 21.9-12.5 27.3-28.2 49.2-32.6z" fill="#aa1c3c"/>
  <path d="m172 126q2.18-0.723 23.3 14.1 4.77 3.35-11.6 41-3.69 8.52-34 0.08-6.86-1.91 9.04-42.8 3.6-9.24 13.2-12.4z" fill="#5538c7"/>
  <path d="m285 192c0.525 6.02-0.292 11.3-1.37 15.2-1.48 5.39-7.71 18.1-5.45 27 3.38 13.3 6.87 14.3 26.4 31.6 6.3 5.57 13.9 4.74 22.9-2.48 2.89-2.32 4.62-5.93 5.19-10.8 0.886-5.96-4.64-20.2-3.51-25.2 0.659-22.2-1.66-33.6-6.96-34.4-2.25-0.234-37.3-6-37.2-0.994z" fill="#8e6337"/>
  <path d="m394 354q-0.563-7.62 40.5-8.03 34.3-0.339 25.3 40.9-7.49 34.4-38.9 2.71-26.2-26.5-26.9-35.6z" fill="#c7aa89"/>
  <path d="m415 53.4q40.4 25 38.1 33.6-4.26 16-26.6 18.3-41.7 4.14-38.7-20.1 5.55-45.1 27.2-31.7z" fill="#c71c5c"/>
  <path d="m89.9 172q7.99-0.232 19.7 9.76 11.8 10.1 10.5 19-1.37 9-12.4 15.8-11.1 6.83-35.6-1.32-24.8-8.25-7.52-25.5 17.5-17.5 25.4-17.7z" fill="#1c557e"/>
  <path d="m396 219q20.9 23.6 18.1 29.2-14.2 28.6-15.3 29.3-5.48 3.78-14.5 0.362-45.8-17.3-45.6-18.9 0.947-8.09 9.56-14.1 43.6-30.6 47.7-25.9z" fill="#aa7132"/>
  <path d="m343 415q13.5 5.89 12.6 17.4-0.314 3.69-28.6 32-9.08 9.08-15.6 10-2.08 0.295-20.9-15.2-6.03-4.97 6.33-48.6 3.97-14 46.2 4.36z" fill="#8ec7ba"/>
  <path d="m115 117c8.55-4.81 9.52 2.62 28.3 7.99 9.94 2.84 10.7 15.2 2.16 37-4.49 11.6-9.75 19.1-15.8 22.6-3.18 1.85-9.9-1.6-20.2-10.4-5.42-4.63-5.23-17.9 0.595-39.8 3.08-11.6-0.432-14.5 4.84-17.5z" fill="#3838a2"/>
  <path d="m49.3 286q8.21-8.21 19.2-9.26 20.3-1.93 32.1 6.51 21.7 15.5 20.3 22.4-2.69 12.7-6.08 19.2-6.22 11.9-20.4 6.77-26.1-9.39-34.4-20.6-15.2-20.6-10.8-25z" fill="#1c8e5d"/>
 </g>
</svg>
