<?xml version="1.0" encoding="UTF-8"?>
<svg width="512px" height="512px" contentScriptType="text/ecmascript" contentStyleType="text/css" version="1.1" viewBox="0 0 512 512" xmlns="http://www.w3.org/2000/svg">
 <g class="voronoi" stroke-width=".5">
  <path d="m42 427c-24.3-9.27-15.1 14.1-12.2 22.5 4.31 12.4 21.7 32.9 21.7 32.9 6.33 5.27 30 12.9 28.9 19.8l32.7 25 7.9-15.5s3.92-12.3 4.37-15.7c1.61-12.3-1.73-18.8-7.49-29.8-4.04-7.72-16.5-18.2-16.5-18.2-15.4-14.1-38.6-13.1-59.4-21z" fill="#1ce39d"/>
  <path d="m242 128c-8.85 5.07-37.7 4.92-52.8 4.57-13.5-0.313-4.41 10.2-0.011 28.5 2.63 10.9 11.5 19.7 26.7 26.4 8.04 3.55 33.1-5.13 42.9-11.9 8.33-0.426 13.5-1.88 15.4-4.37 3.9-5.09 16.6-11.8 22-15.3 6.34-4.23 23.9-14.5 21.8-20.2-2.68-5.96-9.77-8.54-21.3-7.75-6.14 0.421-20.1 2.68-23.7 2.41-8.43 1.13-22.2-7.4-31-2.37z" fill="#80389f"/>
  <path d="m458-37.1 39.9 3.59 31.6 25.6 4.85 5.94-17.3 17.4-55.1-29.8z" fill="#e3e3c9"/>
  <path d="m307 29.6c3.54-5.28 8.35-7.98 14.7-8.06 2.85-0.0371 8.39 1.64 8.39 1.64s30.1 4.47 31.6 9.65c1.34 4.77-31.8 41.2-35.6 38.9-6.2-3.73-17.3-21.2-20.7-33.3-0.823-2.89-0.703-5.26 1.7-8.85z" fill="#8e00cf"/>
  <path d="m-13.2 126 13.2 3.6s9.37 0.842 10.8 5.85c1.98 7.04-10.8 14.2-10.8 14.2l-10.9 11.6-25.6 20.8-12.6-8.24-3.62-33.7z" fill="#e3388e"/>
  <path d="m460 429 71-9.47 2.17 0.445 0.978 25.5-27.4 28-46.2-7.54-1.61-33.9z" fill="#e3c7ec"/>
  <path d="m4.93 27.5c0.178-9.32 11.5-24 18.1-21.3 13.2 5.37 33.4 19.8 40.7 30.9 5.6 8.59-8.64 28.5-15.8 31.8-11.5 5.41-19.6-13.9-28-22.4-5.7-5.74-15.2-11-15-19.1z" fill="#00009c"/>
  <path d="m445-14.3 30.2 14 0.43 0.334 34.6 26.9s0.761 11.9-2.78 17.6c-3.59 5.77-10.4 18-18.5 16.7-11.6-1.79-28.8-32-28.8-32l-10.2-29.3z" fill="#e3006f"/>
  <path d="m25.1 454c9.15 5.35 23.4 26.7 15.8 38.1-16.3 24.2-19.5 8.39-26.7 4.3-8.83-5.03-10.3-18.9-7.28-28 2.46-7.34 10.4-19 18.2-14.4z" fill="#00e358"/>
  <path d="m458 475 39.9 3.59 31.6 25.6 4.85 5.94-17.3 17.4-55.1-29.8z" fill="#e3e3c9"/>
  <path d="m111 30s2.46-11 7.84-13.3c7.56-3.25 28.4 1.02 28.4 1.02s45.9 18 53.4 32.3c3.53 6.78-7.53 9.72-13.5 14.5-13.5 10.9-35.3-0.118-51.6-6.19-9.26-3.47-19.9-7.95-24.5-16.7-1.83-3.43-0.053-11.7-0.053-11.7z" fill="#3800b4"/>
  <path d="m-41.1 70.8 11-5.22 42.6 33.1s15.8 11.3 10.8 17.5c-4.09 5.03-23.2 3.74-23.2 3.74l-31.6-2.72-23.3-10.1 3-20.3z" fill="#e31caf"/>
  <path d="m533 148 16.4 59.2-1.36 0.59-14-1.31-22.2-14.1s-13.5-3.94-13.8-12.1c-0.326-8.58 13.8-16.5 13.8-16.5z" fill="#005528"/>
  <path d="m-12.9 332 12.9 3.52s35.5 5.97 41.8 16.8c5.09 8.82 4.46 7.09 11.3 25.4 3 8.05-12.7 16.5-20.5 20.7-11 5.75-25.5-25.3-25.5-25.3l-7.06-14.6z" fill="#00aa73"/>
  <path d="m475 348c2.11-0.742 6.3-2.47 10.1-1.4 13 3.63 26.9 25.4 26.9 25.4l14.3 22.1 5.66 18.3-60.2 9.24-12.9 1.37s9.13-41.6 13.5-62.4c0.893-4.22-3.27-10.6 2.62-12.7z" fill="#e3aac9"/>
  <path d="m144 476c11.7-0.863 16.9 5.89 32.6 13.7 6.98 3.47-9.11 22.4-9.11 22.4l-9.94 11.9-28.6-3.55 1.37-8.35s5.39-20.1-2.7-31.9c-3.2-4.65 13-3.86 16.4-4.11z" fill="#38e3df"/>
  <path d="m393 543 7.56-20.8 27.8-17.7 31.9 48.6-0.753 28.4-48.8-24.7z" fill="#c700b4"/>
  <path d="m-18 59.4 18-9.57s8.39-3.11 11.9-1.29c10.4 5.43 22.6 16.2 29.8 31.6 4.29 9.17 3.07 17.3-1.07 24.8-1.5 2.74-4.45 5.78-7.1 6.04-4.46 0.441-6.3-4.98-9.74-7.86-8.77-7.36-23.7-24.9-23.7-24.9z" fill="#001c34"/>
  <path d="m471 70.8c3.07-2.65 6.95-5.66 11-5.22 12.7 1.38 30.2 23.4 30.2 23.4l12.5 9.69 6.92 22.9-19.4-1.67s-22.7-2.55-32.9-5.15c-8.2-2.08-17.9-0.302-22-7.7-3.32-5.98 3-20.3 3-20.3s5.89-11.8 10.8-16z" fill="#e31caf"/>
  <path d="m505 337c2.84-3.42 7.38-2.01 7.38-2.01l12 3.27 32.6 24.3-4.04 26.2-33.4-16.2-7.06-14.6s-13.7-13.4-7.38-21z" fill="#00aa73"/>
  <path d="m207 384c-3.65-0.692-13.8 6.04-30.1 18.4-7.48 5.64-7.68 12.9-6.68 22.2 1.7 15.7-26.3 40.5-18.5 45.9l14.5 9.92s22.8 9.68 34.1 6.72c17.7-4.64 55-28.7 55-28.7 2.59-0.632 5.37-1.43 8.34-2.41 9.55-3.15 16.1-11 19.6-23.5 2.01-7.09-2.86-18.4-14.6-33.9-6.65-8.8-13-13.4-19.1-13.9-22.6 6.37-26.5 2.44-42.5-0.602z" fill="#5ed01f"/>
  <path d="m445 498 30.2 14 0.43 0.334 34.6 26.9-11.8 16.3-19 15.6-19.3-29.5-10.2-29.3z" fill="#e3006f"/>
  <path d="m86.9-50 14.6-13.7 19.3 17.6 5.01 36.9-4.68 9.17s-4.39 9.73-10 11c-8.29 1.88-18.1-11-18.1-11l-12.5-9.53z" fill="#1ce39d"/>
  <path d="m361-16.4 23.1 4.88 13.1 13.8-11.2 25.7-19.1 1.93-41.4-12 18.5-17.8z" fill="#aa0016"/>
  <path d="m40.7 115c-8.93 2.32-22 7.39-24.2 13.4-1.81 4.9 6.19 14.4 6.19 14.4s12.3 37.4 23.1 55.7c6.25 10.6 13.7-10.8 23.8-17.8 8.74-6.09 26.3-16.5 26.3-16.5 7.27-4.22 11.3-16.8 12.8-19.8 6.7-12.6 8.57-20.7 5.59-24-2.61-2.97-15.9-4.8-39.8-5.47-21.5-1.96-22.9-2.78-33.8 0.0556z" fill="#0e38a9"/>
  <path d="m499 126 28.2 7.71-26 27.6s-15.8 18.1-26.8 18c-9.44-0.0774-21.7-10.6-20.4-15.5 4.05-15.6 0.348-30.4 5.1-45 2.49-7.69 39.9 7.17 39.9 7.17z" fill="#e3388e"/>
  <path d="m358 445c7.1 1.43 19.1 28.4 19.1 28.4s10.1 15.4 4.77 19.7c-7.03 5.64-30.5-5.74-30.5-5.74s-32.6-6.75-26.3-14.1c10.8-12.6 23.4-30.2 33-28.3z" fill="#aae33b"/>
  <path d="m144-36 38.5 18.1-15 17.9s-8.46 9.62-13.3 11.5c-8.93 3.52-17.9 4.8-22.9-2-1.69-2.26-0.968-9.51-0.968-9.51l5.04-30.8z" fill="#38e3df"/>
  <path d="m391 33.9c-2.05-7.1 9.53-23.3 9.53-23.3l27.8-17.7 31.9 48.6s12.5 23.2 4.34 28c-15.6 9.33-32.9-11.9-50.4-20.9-6.76-3.46-21.1-7.58-23.2-14.8z" fill="#c700b4"/>
  <path d="m447 237c-4.84 0.922-35.5 7.96-37.3 10.8-0.941 4.88-0.708 8.85 0.699 11.9 7.67 16.8 12.3 25.5 13.9 26.2 1.91 0.857 3.69 1.08 5.29 2.1 18.7 11.8 48.4 45.2 48.4 45.2s7.34 8.77 12.4 8.68c6.53-0.127 13.2-5.78 15.6-11.9 2.23-5.69-3.18-18.1-3.18-18.1-6.99-17.5-27.7-31.8-40.9-50.9-5.7-16.1-10.8-24.9-14.9-24.1z" fill="#d58025"/>
  <path d="m-54.2 475 39.9 3.59 31.6 25.6s3.7 1.95 3.58 4.51c-0.0443 0.914-0.657 3.38-0.657 3.38l-15.4 15.5-55.1-29.8z" fill="#e3e3c9"/>
  <path d="m363 420c-0.843 9.94-0.452 16.4 1.17 19.3 6.01 10.9 13.1 22 16.2 29.2 3.34 7.91 6.49 17.6 8.62 26.4 0 0 7.93 11.1 14.3 12.2 12.1 2.16 33.9-13.2 33.9-13.2l6.21-6.11 8.5-18.9s7.53-26.2-0.463-34.4c-7.81-8.06-33.6-1.5-33.6-1.5-23.3-0.451-39.6-17.3-54.8-13z" fill="#b9d51e"/>
  <path d="m29.9 0.189 0.149-0.189 2.32-2.94 20.7-20 11.7 3.96 16.6 19s18.6 15.8 19.4 27c0.284 3.72-3.35 7.8-3.35 7.8s-9.68 6.33-18.4 3.34c-17.1-5.89-49.2-37.9-49.2-37.9z" fill="#1c0024"/>
  <path d="m19.4 147c8.98 14.8 12.8 29.8 16 45.6 0.997 5.01 4.54 11.7 0.867 15.3-3.37 3.25-14-1.31-14-1.31l-42.8-27.2 20.6-15.4s14.8-24.5 19.4-17z" fill="#005528"/>
  <path d="m-32.7 343 10.8-5.21 36.2 56s4.16 8.42 0.775 13.8c-3.57 5.71-15.1 7.52-15.1 7.52l-40.3 6.18-12.9 1.37 13.5-62.4z" fill="#e3aac9"/>
  <path d="m364 497c7.56-2.17 19.6 3.13 19.6 3.13l13.1 13.8-11.2 25.7-19.1 1.93-41.4-12 18.5-17.8s12.9-12.5 20.4-14.6z" fill="#aa0016"/>
  <path d="m-54.2-37.1 39.9 3.59 31.6 25.6 4.85 5.94-17.3 17.4-55.1-29.8z" fill="#e3e3c9"/>
  <path d="m501 61.3c1.09-6.72 10.9-11.4 10.9-11.4l10.4-5.52 33.8 35.2-7.42 29.5-1.82 1.62-11.2-7.47-23.7-24.9s-12.3-8.43-10.9-17z" fill="#001c34"/>
  <path d="m-52.4 429 71-9.47s6.89 1.27 5.85 3.24c-3.65 6.88 0.168 11.6-2.89 19.5-3.73 9.68-21.6 25.5-21.6 25.5l-5.6 5.73-46.2-7.54-1.61-33.9z" fill="#e3c7ec"/>
  <path d="m29.9 512 0.149-0.189 2.32-2.94s5.38-12.9 14.8-15c4.01-0.899 7.25-1.05 12.7 1.22 7.76 3.24 21.5 16.7 21.5 16.7l22.1 25.3-6 9.46-27.5 2.24z" fill="#1c0024"/>
  <path d="m63.9 60.2q12.4-12.4 25.1-16 12.9-3.63 18.1 4.78 5.29 8.59 4.37 34.3-0.945 26.2-34.3 25.3-34-0.963-29.8-18.4 4.34-17.8 16.5-30z" fill="#1c1c7e"/>
  <path d="m325 95.6q2.44-2.87 38.3-0.037 16.2 1.28 22.1 12 2.64 4.84-7.11 33.1-4.42 12.8-22.2 16.6-8.04 1.7-23.4-11-6.95-5.75-11.7-16.3-2.15-4.77-1.61-20.7 0.245-7.24 5.63-13.6z" fill="#aa38aa"/>
  <path d="m155 345c-6.83 0.225-14.4 2.97-22.8 8.24-8.76 5.52-15.9 10.2-15.7 15.1 1.04 24.6-14.8 67.7 0.676 86.3 12 11.5 12.5 18.2 21.4 16.5 6.38-1.23 2.44-9.38 9.88-16.8 11.6-11.6 17.9-30.2 14.6-37.4-3.12-6.74 2.72-13.1 5.45-17.9 4.63-2.04 9.45-4.92 14.5-8.7 10.7-8.06 12.8-17.1 6.39-27.1-10-10.5-21.1-18.7-34.4-18.3z" fill="#38b9b8"/>
  <path d="m409 383q42.5 42.8 42.5 42.9 0.048 0.39 2e-3 0.487-1.04 2.15-2.51 2.09-32.6-1.29-34.7-1.8-47.7-11.4-48-11.9-6.04-10.9-4.03-11.9 44.8-21.8 46.7-19.9z" fill="#c7c716"/>
  <path d="m205 58.9c2.39-2.39 4.18-3.83 5.39-4.32 0.261-0.108 11 6.74 32.2 20.6 4.6 2.99 3.74 2.62 4.5 4.63 3.76 9.91 1.22 10.7-1.44 31.8-0.575 4.56-3.21 9.49-7.92 14.8-1.02 1.15-16.3 1.38-45.9 0.688-6.42-0.149-10.8-1.26-13.3-3.32-0.525-0.447 2.14-13.7 8-39.8 1.27-5.65 7.41-14 18.4-25z" fill="#551cc9"/>
  <path d="m313 150q8.47-4.43 25.5 9.61 5.31 4.39-14.1 44.6-6.06 12.6-38.7-17-10.2-9.24-2.21-19.7 2.5-3.27 29.6-17.4z" fill="#8e55bb"/>
  <path d="m430 295q7.29 3.27 27.2 23.7 17.3 17.7 14.7 20.3-2.26 2.26-33 2.56-26.7 0.265-31.9-4.07-4.48-3.77 5.76-26.5 8.89-19.8 17.3-16z" fill="#c78e87"/>
  <path d="m36.3 403c14.3-14.3 24.7-21.8 31.4-22.5 26-2.69 39.4-2.73 40-0.117 2.56 10.3 2.98 18.4 1.25 24.4-6.8 23.5 4.75 28.2-5.07 34.4-6.86 4.29-15.4-4.95-23.2-7.33-17.1-5.29-51.5-15.4-51.5-15.5-0.232-0.368-0.211-1.05 0.063-2.04 1.08-3.91 3.43-7.68 7.07-11.3z" fill="#1cc73b"/>
  <path d="m152 69.1q29.5 7.39 23.8 32.7-5 22.3-13.7 23.7-7.66 1.28-23.3-1.21-13.8-2.2-18.2-7.27-3.92-4.46-2.92-32.1 0.875-24.3 34.4-15.9z" fill="#381c86"/>
  <path d="m397 46.5c-7.82 0.472-6.43 12.4-8.37 28.1 0.165 23.4 6.85 37.5-0.889 61.5-4.34 12.6-3.8 21.1 1.63 25.6 4.62 3.8 16.6 5.35 36.1 4.64 16.5-0.6 24.1 7.84 27.2-26.4 1.16-12.2 1.64-19.3-0.365-28.5 1.39-2.14-0.355-21.4 0.385-24.2 1.53-5.74-11.2-16.9-38.1-33.6-8.54-5.21-14-7.36-17.5-7.14z" fill="#c72a69"/>
  <path d="m42.7 212c-3.98 3.88 1.4 6.42 3.64 16.3l1.33 57.1c0.0981 4.21 0.608 11.3 10.8 25 5.52 7.45 27.4 19.3 29.5 7.47 5.65-32.5 17.5-52.6 30-76.7 1.68-3.28-16.3-11.2-54.1-23.8-5.04 0.0251-15.9-10.4-21.1-5.32z" fill="#1c80cf"/>
  <path d="m327 236c-4.55 17.2 9.95 10.6 28.4 45.3 1.17 2.19 2.54 3.52 2.79 5.11 1.14 7.24-7.69 27.5 0.275 36.8 8.4 9.85 35.8 11.3 38.3 6.44 6.68-12.9 11.5-11 19.7-40.5 2.99-10.7-12.9-30.8-11.8-35.8 0.147-0.76-2.15-8.5-4.21-10.8-29.6-6.31-37.1-7.89-62-12.7 0 0-10.4 1.99-11.5 6.21z" fill="#aa801d"/>
  <path d="m170 131q1.95-0.327 5.85 2.99 0.527 0.448 9.82 39 1.26 5.21-32 34.9-4.49 4.01-15.8 7.72-1.53 0.501-2.91-3.4-0.187-0.528 18.1-69.5 2.47-9.31 16.9-11.7z" fill="#3855d6"/>
  <path d="m70 328q23.9 8.61 25.5 10.6 16.7 21 16.3 22-4.05 10.6-8.34 11.1-44.7 4.62-46 2.37-13.3-23.5-11.2-25.5 21.4-21.4 23.7-20.6z" fill="#1caa20"/>
  <path d="m132 130c-6.9 0.137-11.2 1.73-12.8 4.77-8.46 15.9-16.6 34.4-25.5 38.7-8.98 4.32-24.2 13.4-28.1 17.3-11.5 11.5-4.64 21.5 20.6 29.9 24.9 8.3 26 16.6 38.4 11.7 2.41-0.96 1.95-2.78 3.86-6.77 1.1-2.86 1.86-12.4 2.5-15.2 9.56-42.5 19.8-78.5 16.4-79-6.04-0.962-11.1-1.4-15.3-1.32z" fill="#2a4721"/>
  <path d="m331 405q11.9-5.88 18.4-0.936 2.06 1.59 6.84 10.2 1.53 2.76 0.407 16-0.362 4.26-28.7 32.6-9.08 9.08-15.6 10-2.08 0.295-20.9-15.2-6.03-4.97 0.279-27.2 2.02-7.14 39.2-25.5z" fill="#8ec7ba"/>
  <path d="m372 35q14.1-2 14.5-1 1.18 3.77-0.174 14.8-5.14 41.8-16 40.9-41.2-3.26-41.2-5.7-0.086-9.23 8.12-17.4 31-31 34.8-31.6z" fill="#aa1c3c"/>
  <path d="m125 250c25.7 6.6 23.5 75.8 23.5 75.9-0.434 6.72-0.853 10.2-1.26 10.5-20.5 12.9-30.9 19.2-31.1 18.9-11.9-15.1-17.9-23-17.9-23.7-2.99-20.3 11.9-75.1 26.7-81.6z" fill="#388e11"/>
  <path d="m444 346q26.2-0.258 17.2 41-7.49 34.4-31.7 10-20.2-20.4-18.4-36.9 1.53-13.8 32.9-14.1z" fill="#c7aa89"/>
  <path d="m311 100c1.27 0.426 1.65 8.12 1.14 23.1-0.018 0.519-26.8 5.02-40.1 3.53-6.93-0.774-16.2-0.458-19.9-6.39-6.47-10.5-0.195-30.7 5.59-36.5 3.46-3.46 16.8 3.97 53.3 16.2z" fill="#711cea"/>
  <path d="m350 166c16.3-3.45 19.4-10.8 28.6-7.13 6.52 2.59 11 15.5 11.4 17.7 5.45 39.6 6.87 59.2 4.26 58.7-46.2-9.05-55.5-9.95-55.5-9.98-1.05-0.617-13.5-2.43-13.6-14.5-3e-3 -1.08 11.3-21.6 12.2-23.4 3.37-13.9 11.7-21.2 12.7-21.4z" fill="#aa5519"/>
  <path d="m307 339q25.9 7.5 27.3 16.4 6.05 38-3.26 42.6-39.8 19.6-45.1 12.7-22.4-29.6-15.3-37.9 30.3-35.5 36.3-33.7z" fill="#8eaa38"/>
  <path d="m304 45.3c12.1 20.7 18.2 31.9 18.2 33.6 0.056 6.08-0.486 9.79-1.62 11.1-4.08 4.8-10.2 5.82-18.5 3.04-29.5-9.93-24.8-4.67-40.5-16.1-2.59-1.89-0.917-2.17 5.08-8.17 21.5-21.5 33.9-29.3 37.3-23.5z" fill="#8e1c3e"/>
  <path d="m424 174c18.1-0.656 29.4 1.7 34.1 7.07 4.74 5.43 5.62 14.4 2.63 26.8-3.02 12.6-5.19 19.5-6.51 20.9-1.33 1.33-9.1 3.83-23.3 7.5-14.4 3.71-22.1 4.9-23.3 3.57-1.19-1.34-3.22-12.4-6.09-33.3-2.89-21.1-22.8-43.5 22.5-32.6z" fill="#c7557e"/>
  <path d="m346 340q10.7-8.51 25.3-6.4 24.8 3.59 28.4 6.59 6.06 5.1 4.82 16.3-2.12 19.1-19.4 27.5-29.5 14.3-32.6 11.9-5.33-4.11-8.09-21.5-4.7-29.5 1.61-34.5z" fill="#aaaa61"/>
 </g>
</svg>
