<?xml version="1.0" encoding="UTF-8"?>
<svg width="512px" height="512px" contentScriptType="text/ecmascript" contentStyleType="text/css" version="1.1" viewBox="0 0 512 512" xmlns="http://www.w3.org/2000/svg">
 <g class="voronoi" stroke-width=".5">
  <path d="m458-37.1 39.9 3.59 31.6 25.6 4.85 5.94-17.3 17.4-55.1-29.8z" fill="#e3e3c9"/>
  <path d="m303 25.7 3.17-4.14 11.2 0.316s38.2 6.43 40.3 13.1c2.46 8.05-16.4 27.8-31 28.5-12.6 0.605-21.4-25.1-21.4-25.1z" fill="#8e00cf"/>
  <path d="m-13.2 126 28.2 7.71-26 27.6-25.6 20.8-12.6-8.24-3.62-33.7z" fill="#e3388e"/>
  <path d="m30 407c14-19 53.6-19.8 66.6 0.483 13.3 20.9-35.3 71.5-35.3 71.5s-16.8-1.04-20.1-2.15c-12.4-4.3-11.3-27.5-11.3-27.5s-5.14-35.1 0.141-42.3z" fill="#00c7e4"/>
  <path d="m460 429 71-9.47 2.17 0.445 0.978 25.5-27.4 28s-29.4 0.672-39.8-11c-7.53-8.44-8.03-30.5-8.03-30.5z" fill="#e3c7ec"/>
  <path d="m445-14.3 30.2 14 0.43 0.334 34.6 26.9-11.8 16.3-19 15.6-19.3-29.5-10.2-29.3z" fill="#e3006f"/>
  <path d="m458 475c9.04-9.85 39.9 3.59 39.9 3.59l31.6 25.6 4.85 5.94-17.3 17.4-55.1-29.8s-9.23-17.1-4.02-22.8z" fill="#e3e3c9"/>
  <path d="m111 30 11.6-13.2 24.7 0.928s22.3 5.17 29.8 19.5c3.53 6.78 12.5 18.2 6.46 25.8-10.7 13.6-47.9-4.68-47.9-4.68s-19.9-7.95-24.5-16.7c-1.83-3.43-0.053-11.7-0.053-11.7z" fill="#3800b4"/>
  <path d="m-41.1 70.8 11-5.22 42.6 33.1s9.12 10.1 4.1 16.2c-4.09 5.03-16.6 4.97-16.6 4.97l-31.6-2.72-23.3-10.1 3-20.3z" fill="#e31caf"/>
  <path d="m533 148 16.4 59.2-1.36 0.59-14-1.31-22.2-14.1s-11.4-5.33-11.7-13.5c-0.326-8.58 11.7-15.1 11.7-15.1z" fill="#005528"/>
  <path d="m-12.9 332 24.8 6.79 32.6 24.3s3.79 22.1-4.04 26.2c-11 5.75-33.4-16.2-33.4-16.2l-7.06-14.6z" fill="#00aa73"/>
  <path d="m475 350c2.72-2.92 7.4-9.45 11.2-8.37 13 3.63 26.3 30.5 26.3 30.5l14.3 22.1 5.66 18.3-60.2 9.24s-6.89-0.72-9.78-3.94c-10.9-12.2 2.92-21.9 7.22-42.7 0.742-3.6 1.08-20.6 5.32-25.2z" fill="#e3aac9"/>
  <path d="m148 475c14.1-0.741 15.2 9.58 18.3 23.4 1.68 7.61 0.834 14.1 0.834 14.1l-9.94 11.9-28.6-3.55 1.37-8.35 8.98-28.4s5.69-8.85 9.06-9.03z" fill="#38e3df"/>
  <path d="m393 543 7.56-20.8 27.8-17.7 31.9 48.6-0.753 28.4-48.8-24.7z" fill="#c700b4"/>
  <path d="m-18 59.4 18-9.57s23.2-15.1 35.8-13.3c6.3 0.907 16.4 5.17 15.3 11.4-2.94 16.5-5.2 31.9-9.92 47.3-1.61 5.28-0.975 13.7-6.25 15.3-4.29 1.32-11.2-7.47-11.2-7.47l-23.7-24.9z" fill="#001c34"/>
  <path d="m471 70.8c3.07-2.65 11-5.22 11-5.22l42.6 33.1 6.92 22.9-19.4-1.67s-37.1 8.57-47.4 5.97c-8.2-2.08-3.38-11.4-7.49-18.8-3.32-5.98 0.53-13.9 3-20.3 2.32-5.99 5.89-11.8 10.8-16z" fill="#e31caf"/>
  <path d="m505 338c2.84-3.42 7.24-2.93 7.24-2.93l12 3.27 32.6 24.3-4.04 26.2-33.4-16.2-7.06-14.6s-13.5-12.5-7.24-20.1z" fill="#00aa73"/>
  <path d="m187 445c10.6-2.08 23.3 0.345 31.7 7.13 7.03 5.64 12.6 15.5 11.5 24.5-0.969 8.31-7.71 16.9-15.6 19.6-11 3.8-34-8.15-34-8.15s-24.7-11.2-24-22c0.825-12.3 18.3-18.8 30.4-21.1z" fill="#55e345"/>
  <path d="m445 498 30.2 14 0.43 0.334 34.6 26.9-11.8 16.3-19 15.6-19.3-29.5-10.2-29.3z" fill="#e3006f"/>
  <path d="m86.9-50 14.6-13.7 19.3 17.6 5.01 36.9-4.68 9.17s-4.98 9.72-10.6 11c-8.29 1.88-17.5-11-17.5-11l-12.5-9.53z" fill="#1ce39d"/>
  <path d="m361-16.4 23.1 4.88 13.1 13.8s-3.66 20.2-11.2 25.7c-5.17 3.77-12.7 2.51-19.1 1.93-14.3-1.31-27.5 0.167-30.9-13.8-2.06-8.31 8.01-16.1 8.01-16.1z" fill="#aa0016"/>
  <path d="m69.4 127c-8.08-9.04-24-11-35.6-7.4-5.39 1.65-9.83 6.84-11.8 12.1-0.816 2.2 1.2 4.81 0.428 7.03-3.68 10.6-22.4 25-22.4 25l-20.6 15.4 20.6 13.1s13.9 11.3 22.2 14.1c4.43 1.52 14 1.31 14 1.31 5.22 0.489 4.63-5 8.9-8.06 0 0 23.5-21.6 27.7-36.2 3.37-11.7 4.73-27.4-3.41-36.5z" fill="#005528"/>
  <path d="m499 126c4.55-0.174 13.2 3.6 13.2 3.6l15 4.11-26 27.6s-14.6 20.2-25.6 20.8c-5 0.258-12.6-8.24-12.6-8.24s-9.63-24.1-3.62-33.7c7.43-11.8 25.5-13.6 39.5-14.1z" fill="#e3388e"/>
  <path d="m363 445c10.4 2.61 14.3 29 14.3 29s6.86 12.4 1.53 16.7c-7.03 5.64-27.2-2.71-27.2-2.71s-15.6-8.03-15.1-17.7c0.708-13.5 13.4-28.5 26.5-25.2z" fill="#aae33b"/>
  <path d="m144-36 38.5 18.1-15 17.9s-9.3 10.4-14.1 12.3c-8.93 3.52-17.5 5.23-22.3-1.46-1.65-2.29-0.772-10.8-0.772-10.8l5.04-30.8z" fill="#38e3df"/>
  <path d="m-66.9-14.3 30.2 14 35 27.2-11.8 16.3-19 15.6-19.3-29.5z" fill="#e3006f"/>
  <path d="m393 31.5c-0.249-7.39 7.56-20.8 7.56-20.8l27.8-17.7 31.9 48.6s7.38 23.6-0.753 28.4c-15.6 9.33-40.5-4.56-55.9-14.3-6.34-4.01-10.4-15.4-10.7-24.2z" fill="#c700b4"/>
  <path d="m482 263c17.1 1.33 20.3 49.7 20.3 49.7s-2.59 7.92-4.94 11.3c-1.79 2.56-4.05 4.96-6.77 6.49-3.93 2.21-13.1 3.47-13.1 3.47s-25.6-19.5-24.6-36.6c1.05-17.1 17.4-35.3 29.1-34.4z" fill="#e38e16"/>
  <path d="m-54.2 475 39.9 3.59 31.6 25.6 4.85 5.94-17.3 17.4-55.1-29.8z" fill="#e3e3c9"/>
  <path d="m417 433c10.5-4.08 26-6.6 33.9 1.52 7.99 8.25 2.8 23.2 0.463 34.4-1.4 6.75-8.5 18.9-8.5 18.9l-6.21 6.11s-21.9 16.4-34 14.2c-6.37-1.14-14.2-13.2-14.2-13.2s-9.04-18.1-6.53-27c4.48-15.9 19.7-28.9 35.1-34.9z" fill="#c7e30d"/>
  <path d="m29.9 0.189 0.149-0.189 2.32-2.94 20.7-20 11.7 3.96 38.6 44.3-6 9.46s-18.8 5.23-27.5 2.24c-17.1-5.89-40-36.8-40-36.8z" fill="#1c0024"/>
  <path d="m-32.7 343 10.8-5.21 36.2 56s6.65 9.41 3.26 14.8c-3.57 5.71-17.6 6.53-17.6 6.53l-40.3 6.18-12.9 1.37 13.5-62.4z" fill="#e3aac9"/>
  <path d="m145 410c-1.93-0.0159-28.6 5.2-30.7 5.81-10.7 15.4-26.2 34.7-42.2 63.2-6.4 12.1 8.46 23.7 8.46 23.7l32.7 25 12.6-24.7s8.43-19.2 13.1-31.6c1.3-3.44 8.79-5.18 15.9-12.2 11.6-11.6 15.3-22.1 11-31.4-5.48-11.8-12.4-17.8-20.8-17.8z" fill="#1ce39d"/>
  <path d="m361 496 23.1 4.88 13.1 13.8-11.2 25.7-19.1 1.93-41.4-12 18.5-17.8z" fill="#aa0016"/>
  <path d="m-54.2-37.1 39.9 3.59 31.6 25.6 4.85 5.94-17.3 17.4-55.1-29.8z" fill="#e3e3c9"/>
  <path d="m271 16.4c9.26 1.81 23.4 3.93 25 13.2 2.19 12.6-25.7 28.3-25.7 28.3s-29.6 9.17-39.7 0.677c-9.72-8.14-13.8-27.5-6.04-37.5 9.49-12.3 31.2-7.61 46.4-4.62z" fill="#710098"/>
  <path d="m494 59.4 28.4-15.1 33.8 35.2-7.42 29.5-1.82 1.62-11.2-7.47-23.7-24.9z" fill="#001c34"/>
  <path d="m-52.4 429 71-9.47 2.17 0.445s4.03 17.6 0.978 25.5c-3.73 9.68-21.8 22.3-21.8 22.3l-5.6 5.73-46.2-7.54-1.61-33.9z" fill="#e3c7ec"/>
  <path d="m29.9 512 0.149-0.189 2.32-2.94 20.7-20 11.7 3.96 38.6 44.3-6 9.46-27.5 2.24z" fill="#1c0024"/>
  <path d="m210 53.3c-8.18 2.6-21.2 19-23.3 26.9-2.05 9.13-1.12 16.4-2.78 21.1-3.23 9.08-10.2 20.4-13.8 25.4-0.825 13 4.27 23.8 12 32.7 1.02 1.16 5.76 3.48 14.2 6.96 2.16 0.885 24.5-2.68 32.2-11 10.6-11.4 2.32-29.7 4.62-46.3 3.3-23.8 10.6-34.1 6.48-36.8-19.5-12.7-23.6-20.9-29.7-18.9z" fill="#552a1c"/>
  <path d="m248 158c-6.12-3e-3 -16.7 3.17-31.6 9.52-7.16 3.04-8.09 13.2-2.8 30.4 2.21 7.22 11.5 17.8 30.7 21.1 11.6 1.97 27.2 4.06 35.1 6.4 13.7 4.06 36.4 5.46 45.6 5.89 14.6 0.663 20.2-6.42 16.8-21.3-1.9-8.27-10.4-18.6-25.4-30.9-12.6-11.4-29.4-6.99-43.5-15.6-10.2-2.69-15.9-5.23-24.7-5.57z" fill="#805557"/>
  <path d="m152 234c-7.84 0.0405-9.59-3.37-22.8-5.85-2.73-0.514-7.99-1.07-12 4.95-4.01 6.03 0.147 20.3 0.174 30.4 0.0289 10.9-7.49 24.8-0.0137 32.8 7.47 7.97 13.2 4.44 32.7 2.12 3.8-0.45 21-11.5 32.4-15 13.9-4.25 31.2 1.41 43.2-6.91 12.8-8.9 12.5-12.6 22.9-40.7 1.75-4.73-8.43-11.3-30.6-19.6-18.9 4.38-43.2 17.6-65.9 17.7z" fill="#4771b9"/>
  <path d="m405 297q9.56-8.65 21.4-3.36 10.3 4.6 30.2 25 17.3 17.7 14.7 20.3-2.26 2.26-34.9 2.58-28.4 0.281-29.6-1.35-1.06-1.42-7.27-18.5-5.39-14.8 5.62-24.8z" fill="#c78e87"/>
  <path d="m152 68.8q29.5 7.39 25.4 25.5-3.58 15.9-9.48 24.1-5.19 7.17-25.9 4.51-18.2-2.34-22.1-6.76-3.41-3.88-2.41-31.5 0.875-24.3 34.4-15.9z" fill="#381c86"/>
  <path d="m414 112c-19.6 1.95-25.7-3.81-31.6 5.1-4.64 7.01 0.78 9.39 6.04 24.5 3.42 9.81 11.6 43.7 16.5 60.2 0.142 17.5 2.98 27.9 8.53 31.4 5.54 3.48 13.6 3.87 24 1.17 10.4-2.68 13.2-1.58 17.6-6.01 5.08-5.22 5.76-13.6 6.51-20.9 0.917-8.94-0.871-19.8-2.63-26.8-3.5-13.9-7.55-27.8-6.67-40.8 1.38-14.5 1.03-23.4-1.04-26.9-11.5-5.11-25.6-2.12-37.3-0.973z" fill="#c74723"/>
  <path d="m35.2 223c3.63 13.7 6.85 42.5 13.3 63 2.75 8.65 0.61 11.3 10.8 25 5.52 7.45 15.3 13.7 29.5 18.8 7.68 2.77 14.7-1.72 21-13.5 3.17-5.91-11-33.8-0.135-54.2 1-1.89-6.04-18.9-5.12-21.1 2.42-5.78-12.4-14-44.4-24.7-10.7-3.59-23-10.7-24.9 6.57z" fill="#1c8051"/>
  <path d="m356 306q4.65-4.91 27.5 0.558 3.94 0.942 13.8 28.1 1.7 4.68-57.8 17-10.3 2.12-10.5-14.3-0.039-2.84 26.9-31.3z" fill="#aa8ed0"/>
  <path d="m224 344c-6.15-3.9-8.57-3.06-21.8-0.939-11.9 1.9-20.2 7.75-24.9 17.6-2.64 5.5-4.15 9.88-3.14 14.8 6.6 32.5 33.3 51.1 57 81.5 4.49 5.67 15.2 5.72 32 0.164 9.55-3.15 12.3-4.98 15-14.6 1.54-5.43 2.86-17.1-2.9-25.9-3.26-4.98-20.3-18-28.2-28.8-9.71-13.3-9.06-35-23-43.8z" fill="#63b95f"/>
  <path d="m63.9 60.2q12.4-12.4 25.1-16 12.9-3.63 18.1 4.78 5.29 8.59 4.37 34.3-0.945 26.2-34.3 25.3-34-0.963-29.8-18.4 4.34-17.8 16.5-30z" fill="#1c1c7e"/>
  <path d="m335 134q12.8-13.9 30.5-13.9 8.38 0.018 18.3 28.4 4.7 13.5-26 33.8-14.6 9.66-38.4-9.88-11.3-9.28 15.7-38.5z" fill="#aa38a8"/>
  <g>
   <path d="m342 234c-4.12 0.0112-9.82 2.26-21.3 1.74-22.4-1.02-25.2 3.43-25.9 16.5l-2.75 45.8c-0.191 3.19 7.18 12.1 26.6 28.3 4.14 3.44 14.9-4.02 32.3-22.4 3.7-3.91 3.67-16.1-2.55-32.3-4.89-12.7 7.53-24.2 0.164-34.1-2.22-2.69-4.12-3.49-6.59-3.48z" fill="#8e8025"/>
   <path d="m70.2 328c-10.4 1.7-21.9 10.1-24.3 20.4-2.11 9.05 4.64 19 11.2 25.5 16.7 8.84 49.5 39.4 67.2 34.7 20.6-6.04 25.2-5.87 34.3-14.3 4.56-4.23 10.3-10.7 8.44-16.6-2.94-9.54-16.5-10.1-26.2-14.4-7.89-3.51-28.4-17.5-40.7-23.5-12.6-4.56-18.5-13.2-29.9-11.8z" fill="#2aaae5"/>
   <path d="m442 346c-22.2 0.219-34.2 3.96-36.1 11.2-0.271 1.06-24.6 16.6-24.6 16.6-8.98 9.56-18.6 16.2-20.1 27.5-0.653 4.68 1.41 10.1 4.93 13.3 12.3 11 16.2 4.35 48 12 1.43 0.343 29.5 3.82 38.4-5.61 4.19-4.46-0.014-12.4 1.48-18.3 1.39-5.52 5.26-8.29 6.85-15.6 5.98-27.5-0.283-41.2-18.8-41z" fill="#c7b919"/>
   <path d="m281 373c-7.83 19.9-4.17 32.8-2.82 34.9 8.39 11 3.81 41.5 13.2 50.1 11.9 11 19.5 15.4 20.9 15.2 4.33-0.613 10.9-5.98 15.6-10 11-9.43 23.8-18.9 28.7-32.6 1.84-5.14 0.559-14.3-0.576-16.3-3.54-6.37-6.18-10-7.93-10.9-3.51-1.85-9.44-12.9-11.7-20.8-2.48-8.77-4.08-21.9-12.5-23.2-10.7-1.66-39.2 4.45-42.8 13.7z" fill="#8eb9d7"/>
  </g>
  <path d="m321 95.1c1.61-0.0798 14.4 11.8 14.5 20 0.311 17.1-4.27 16.3-28.5 42.6-2.34 2.54-8.85 4.55-19.5 6.04-1.03 0.145-9.15-16.6-8.73-25.7 0.615-13.1 6.13-27.4 16.1-36 6.86-5.85 9.42-6.21 26.1-7.03z" fill="#8e38de"/>
  <path d="m109 157c-2.82 6.37 6.21 18.3 8.81 27.7 2.06 7.39 5.07 20.7 5.37 22.4 1.72 9.68 6.56 15.3 14.5 16.8 7.96 1.5 16.8-7.68 26.4-27.5 9.66-19.8 11.4-22.2 10.7-34.1-0.535-9.1-8.73-18.2-11.2-25-1.45-4-11.6-9.99-30.8-9.68-12.1 0.193-21.3 23.7-23.9 29.4z" fill="#384764"/>
  <path d="m448 237q4.85-1.25 14 24.5 1.67 4.72-20.3 26.7-4.04 4.04-22.7-4.33-3.42-1.54 1.66-34.1 0.93-5.97 27.4-12.8z" fill="#c771ce"/>
  <path d="m249 315q2.11-6.24 29-7.9 8.08-0.499 35.3 22.1 8.17 6.79 8.37 21.6 0.061 4.45 0.062 4.51 0 0.018-0.015 0.021-4e-3 1e-3 -32.2 6.24-9.68 1.87-35.8-12.5-7.84-4.32-10.8-11.2-0.895-2.07 6.12-22.8z" fill="#718ebd"/>
  <path d="m91.4 172q9.24-0.269 16.8 9.95 7.6 10.3 10.2 24.8 2.59 14.6-2.15 18-4.8 3.47-36.5-7.09-32.1-10.7-14.8-27.9 17.5-17.5 26.6-17.7z" fill="#1c557e"/>
  <path d="m351 260q3.65-21.1 12.9-22.2 35.3-4.53 38.8-2.36 13.3 8.33 12 16.3-4.76 30.6-9.02 34.4-16.3 14.8-21.9 13.4-21.3-5.08-23.9-11.1-9.89-23-8.94-28.5z" fill="#aa713c"/>
  <path d="m182 293c10.3-7.07 24.9-6.86 37.3-4.7 7.35 1.29 15.2 1.12 19.9 10.2 2.38 4.56 1.55 12.8-2.49 24.8-2.04 6.03-14.1 10.8-36.1 14.3-11.1 1.77-21.4-5.55-30.9-22-4.78-8.27 5.17-17.8 12.2-22.6z" fill="#558ea5"/>
  <path d="m304 45.2q18.2 31 18.2 33.9 0.094 10.1-5.9 10.4-21.5 1.06-28.8-1.39-26.1-8.77-26.6-9.37-2.04-2.13 6.71-10.9 31.3-31.3 36.4-22.6z" fill="#8e1c3e"/>
  <path d="m372 36.6q14.1-2 14.5-1 1.18 3.77-0.599 18.3-6.74 54.9-7.58 55.7-3.18 3.18-8.62 3.16-20.6-0.045-24.8-4.94-15.8-18.5-15.8-21.2-0.095-10.2 8.12-18.4 31-31 34.8-31.6z" fill="#aa1c3c"/>
 </g>
</svg>
