<?xml version="1.0" encoding="UTF-8"?>
<svg width="512px" height="512px" contentScriptType="text/ecmascript" contentStyleType="text/css" version="1.1" viewBox="0 0 512 512" xmlns="http://www.w3.org/2000/svg">
 <g class="voronoi" stroke-width=".5">
  <path d="m458-37.1 39.9 3.59 31.6 25.6 4.85 5.94-17.3 17.4-55.1-29.8z" fill="#e3e3c9"/>
  <path d="m299 34.4s-5.47 7.16-10.3 11.5-0.846-4.81-19.3 13.6c-6 6-10.2 10.6-8.15 16.3 4.37 12.1 9.16 6.75 35.3 15.6 7.15 0.921 16.2-4.09 23.8-4.03l10.8 0.0977c3.23 0.0292 6.99 4.45 13.3 7.7 2.84 1.47 12.8-1.04 29.9-7.53 4.52-1.72 8.3-14.9 11.3-39.6 1.78-16.8 0.475-14.6-12.7-12.8-30.8 6.49-57.4-19.4-74.1-0.81z" fill="#97136e"/>
  <path d="m-13.2 126 13.2 3.6s7.61 0.472 9.02 5.48c1.98 7.04-9.02 14.6-9.02 14.6l-10.9 11.6-25.6 20.8-12.6-8.24-3.62-33.7z" fill="#e3388e"/>
  <path d="m34.3 426c19.4 4.09 51.5 14.1 52.9 21 1.56 7.66-26 32-26 32s-33.5 20.8-43.7 9.86c-9.37-10.1 7.83-23.3 9.31-37 0.952-8.86-2.12-27.9 7.4-25.9z" fill="#00c7e4"/>
  <path d="m460 429 71-9.47 2.17 0.445 0.978 25.5-27.4 28-46.2-7.54-1.61-33.9z" fill="#e3c7ec"/>
  <path d="m445-14.3 30.2 14 0.43 0.334s31 13 33.1 27.5c0.941 6.64-10.5 27.1-10.5 27.1s-10.7 5.41-18.8 4.16c-11.6-1.79-19.3-29.5-19.3-29.5l-10.2-29.3z" fill="#e3006f"/>
  <path d="m458 475c9.04-9.85 39.9 3.59 39.9 3.59l31.6 25.6 4.85 5.94-17.3 17.4-55.1-29.8s-9.23-17.1-4.02-22.8z" fill="#e3e3c9"/>
  <path d="m-41.1 70.8 11-5.22 42.6 33.1s9.56 8.27 4.54 14.5c-4.09 5.03-17 6.76-17 6.76l-31.6-2.72-23.3-10.1 3-20.3z" fill="#e31caf"/>
  <path d="m533 148 16.4 59.2-1.36 0.59-14-1.31-22.2-14.1s-13.4-3.99-13.7-12.1c-0.326-8.58 13.7-16.4 13.7-16.4z" fill="#005528"/>
  <path d="m-12.9 332 24.8 6.79s23 8.81 24.5 22.3c0.745 6.73 2.71 13.4-5.13 17.5-11 5.75-24.2-5.42-24.2-5.42l-7.06-14.6z" fill="#00aa73"/>
  <path d="m473 350s6.93-6.28 10.8-5.21c13 3.63 28 27.7 28 27.7l14.3 22.1 5.66 18.3-60.2 9.24s-7.59-1.82-9.15-5.85c-4.49-11.6 0.58-17.6 2.9-36.1 0.463-3.7 2.1-27.5 7.72-30.2z" fill="#e3aac9"/>
  <path d="m144 476s34.4-14.8 37.5-1.01c1.68 7.61-14 37-14 37l-9.94 11.9-28.6-3.55 6.41-39.1z" fill="#38e3df"/>
  <path d="m393 543 7.56-20.8 27.8-17.7 31.9 48.6-0.753 28.4-48.8-24.7z" fill="#c700b4"/>
  <path d="m-18 59.4 18-9.57s15-10.1 18.8-10.9c17.7-3.25 50.6-2.16 45.1 12-3.99 10.4-27.2 58-27.2 58l-1.82 1.62-11.2-7.47-23.7-24.9z" fill="#001c34"/>
  <path d="m472 63.7c4.37-1.76 9.3 4.26 13.3 4.7 12.7 1.38 27 20.6 27 20.6l12.5 9.69 6.92 22.9-51-4.39s-19.3-4.09-23.5-11.5c-3.32-5.98 3.18-18.9 3.18-18.9s3.59-19.8 11.6-23z" fill="#e31caf"/>
  <path d="m505 338c2.84-3.42 7.38-2.7 7.38-2.7l12 3.27 32.6 24.3-4.04 26.2-33.4-16.2-7.06-14.6s-13.7-12.8-7.38-20.3z" fill="#00aa73"/>
  <path d="m445 498 30.2 14 0.43 0.334 34.6 26.9-11.8 16.3-19 15.6-19.3-29.5-10.2-29.3z" fill="#e3006f"/>
  <path d="m122 16.8c-5.37 2.31-11.6 13.2-11.6 13.2-12.6 16.8-14.8 8.95-21.7 14.1-7.3 5.48-12.5 9.55-20.8 17.8-8.12 8.12-19.7 27.9-22.6 39.8-2.83 11.6 8.83 6.03 31.5 6.67 15.9-1.15 17-3.54 31.9 1.84 7.79 3.68 7.38 1.24 14.2 9.29 5.09 5.8 14.2 6.36 27.4 1.71 14.9-5.3 23.7-13.8 26.4-25.5-2.28-19.7 30.3-43.6 11.9-54.1 0 0-26.5-19.5-42-23.9-7.91-2.26-17.1-4.18-24.7-0.928z" fill="#2f1393"/>
  <path d="m86.9-50 14.6-13.7 19.3 17.6 5.01 36.9-12.6 24.7-32.7-25z" fill="#1ce39d"/>
  <path d="m361-16.4 23.1 4.88 13.1 13.8-11.2 25.7-19.1 1.93s-26.9 2.89-30.3-11.1c-2.06-8.31 7.45-18.8 7.45-18.8z" fill="#aa0016"/>
  <path d="m57.1 114c-8.2-0.239-16.4 3.72-23.4 5.54-5.6 1.42-7.83 3.63-9.89 7.14-2.7 4.62-0.291 12.5-1.82 16-4.53 10.1-22.1 21.1-22.1 21.1l-20.6 15.4 20.6 13.1s14 8.98 22.3 11.8c11.8 5.86 22.7 1.53 32.7 3.29 8.61 1.64 16.2 8.08 22.6 10.2 20 6.65 32.1 8.85 36.5 6.61 4.3-2.22 4.56-11.5 0.793-27.9-7.61-14.8-6.78-14.5-1.28-28.8 1.61-4.33 3.47-13.4 3.47-13.4 4.05-5.98 6.53-11.2 7.41-15.7 0.806-4.11-1.34-9.07-6.44-14.9-4.47-5.09-18.7-7.97-42.6-8.65-7.87-0.223-12.9-0.939-18.3-0.844z" fill="#005528"/>
  <path d="m441 110c-3.72-0.0691-8.35 0.173-13.9 0.725-12.6 1.25-21.8 10.1-27.7 26.5-5.02 13.9-1.5 17.2-0.76 25.7 1.19 13.8 7.65 26.2 8.31 40.6 1.01 19.4 2.84 30.3 5.49 32.6 2.62 2.3 10 1.87 22.2-1.27 12.1-3.11 18.8-5.34 20.1-6.67 1.32-1.32 3.48-8.27 6.51-20.9 17.6-32.2 28.7-25.4 39.7-46l26-27.6-15-4.11s-17.9-3.96-22.4-3.78c-31.3-11.6-30.3-15.4-48.4-15.8z" fill="#e3388e"/>
  <path d="m376 422c-9.56 2.92-11.5 1.41-14.5 5.67-0.899 1.3-0.156 3.28-0.0469 4.75 0 0-25.8 25.9-24.9 42 0.561 9.64 5.82 8.91 14.4 13.3 11.8 6.09 27.1 2.73 38.9 8.91 4.66 2.44 6.02 9.64 11.6 10.6 12.1 2.16 34.9-13.2 34.9-13.2l6.21-6.11s7.1-12.1 8.5-18.9c2.34-11.2-0.463-34.4-0.463-34.4-0.0683-5.08-29-4.03-43.4-6.59-10.4 0.12-20.9-7.09-31.2-6.09z" fill="#b4da2a"/>
  <path d="m144-36 38.5 18.1-24.9 29.8-28.6-3.55 6.41-39.1z" fill="#38e3df"/>
  <path d="m-66.9-14.3 30.2 14 35 27.2-11.8 16.3-19 15.6-19.3-29.5z" fill="#e3006f"/>
  <path d="m428-7.05-11.1 7.05s-12 8.11-16.1 13.3c-4.63 5.76-8.21 18.2-8.21 18.2-5.2 14.3-1.81 27.1-3.33 39.1-1.34 10.9 2.37 20.8 11.1 29.5 4.71 4.72 16 6.19 33.8 4.42 9.57-0.951 16.5-6.6 18.6-17.5 2.61-13.7 12.1-17.8 10.1-29.8-3.38-16.2-30.3-57.2-30.3-57.2z" fill="#c700b4"/>
  <path d="m-54.2 475 39.9 3.59 31.6 25.6 4.85 5.94-17.3 17.4-55.1-29.8z" fill="#e3e3c9"/>
  <path d="m19.2 24.5c-3.95-8.01 10.8-24.5 10.8-24.5l2.32-2.94 20.7-20 11.7 3.96 38.6 44.3-6 9.46s-18.8 5.23-27.5 2.24c-17.1-5.89-43 3.14-50.7-12.5z" fill="#1c0024"/>
  <path d="m-32.7 343 10.8-5.21 36.2 56s8.62 7.92 5.23 13.3c-3.57 5.71-19.5 8.02-19.5 8.02l-40.3 6.18-12.9 1.37 13.5-62.4z" fill="#e3aac9"/>
  <path d="m86.9 462s7.9-13.7 14.6-13.7c8.71-0.061 19.3 17.6 19.3 17.6l5.01 36.9-12.6 24.7-32.7-25z" fill="#1ce39d"/>
  <path d="m363 499c7.56-2.17 20.8 1.88 20.8 1.88l13.1 13.8-11.2 25.7-19.1 1.93-41.4-12 18.5-17.8s11.7-11.2 19.3-13.4z" fill="#aa0016"/>
  <path d="m-54.2-37.1 39.9 3.59 31.6 25.6 4.85 5.94-1.93 1.95s-4.78 13.5-12 14.5c-1.83 0.271-8.29-1.69-8.29-1.69l-50.2-27.1z" fill="#e3e3c9"/>
  <path d="m417-78.8 33.9 1.52 0.463 34.4-8.5 18.9-6.21 6.11-34 14.2-14.2-13.2-6.53-27z" fill="#c7e30d"/>
  <path d="m500 61.6c1.09-6.72 11.5-11.8 11.5-11.8l10.4-5.52 33.8 35.2-7.42 29.5-1.82 1.62-11.2-7.47-23.7-24.9s-12.9-8.1-11.5-16.7z" fill="#001c34"/>
  <path d="m-52.4 429 71-9.47s3.57 6.4 4.13 9.94c0.817 5.16 1.8 7.7-1.25 15.6-3.73 9.68-21.5 22.6-21.5 22.6l-5.6 5.73-46.2-7.54-1.61-33.9z" fill="#e3c7ec"/>
  <path d="m29.9 512 0.149-0.189 2.32-2.94 20.7-20 11.7 3.96 38.6 44.3-6 9.46-27.5 2.24z" fill="#1c0024"/>
  <path d="m376 93.7q7.07-2.68 22.9 13.2 4.41 4.42-8.41 40-3.58 9.92-29.7 12.4-7.28 0.679-9.51-43.6-0.621-12.3 24.7-22z" fill="#aa38c0"/>
  <g>
   <path d="m132 160c-3.73-0.344-8.95 1e-3 -10.9 2.78-4.23 6.11-4.29 18.1-0.189 35.9 3.39 14.7 10.1 23.7 20 26.8 16.3 3.04 35.2-5.05 49.7-1.37 16.4 4.1 26.7 1.09 30.8-9.03 5.84-14.4 5.83-23.1-0.0391-26.1-9.99-4.55-16.5-3.49-26.3-4.87-9.53-1.34-31.2-5.12-44.6-15.5-9.08-7.06-11.8-8-18.6-8.63z" fill="#4755e3"/>
   <path d="m309 288c-2.73 0.165-19.5 4.04-21.1 9.75-5.24 19.3-19.6 39.1-24 50.6-8.68 8.49-13.3 15.1-13.8 19.9-0.734 6.69 1.94 11.9 8.01 15.6 10.4 3.77 19.4 13.9 26.3 22.8 5.39 7.15 15.2 7.6 29.4 1.35 11.8-5.21 18.9-14.4 21-27.5 1.1-6.66 5.44-18.8 5.77-27.3 1.15-1.07 2.25-2.33 3.3-3.82 1.04-1.48 0.209-12.5-2.51-33-0.744-5.63-6.71-13.4-17.9-23.2-7.21-3.74-8.08-5.23-14.5-5.13z" fill="#84a117"/>
   <path d="m47.3 342c-1.72 3.09-2.52 8.19-1.72 10.5-1.03 9.31-0.677 21.3-12.7 33.3-3.64 3.64-7.06 26.2-3.98 28.9 14.9 12.8 39.1 16.2 53.8 21.4 26.5 12.5 19.3-18.8 32-31.9 3.19-3.15 14.2-13.2 19.9-15 9.35-3.01 16.9-7.53 22.8-13.5 4.45-4.59 6.8-9.6 7.04-15 0.185-4.15-9.78-12.2-29.9-24.2-15.3-9.13-21.2-9.01-31.3-5.74-13.8 4.49-28.7-5.61-41.8-0.848-5.84 2.12-11 6.83-14 12.2z" fill="#25b428"/>
   <path d="m344 362c-0.923 1.31-3 11.7-6.24 31.2-0.76 4.58 5.25 12.7 18 24.3 2.51 2.28 7.17 2.62 14 1.04 9.02 1.88 29.6 5 45.8 8.88 0.969 0.232 12.3 0.777 34 1.64 0.979 0.0387 1.81-0.659 2.51-2.09 0.473-0.98-4.8-11.1-4.8-11.1s-16.9-6.96-49.4-41.3c-1.03-1.09 0.154-3.29-6.08-7.58s-22.1-11.5-34-10.9c-5.01 0.236-11.3 2.39-13.8 5.93z" fill="#b9b9d7"/>
   <path d="m210 55.5c-1.18-0.547-2.16 0.982-4.55 3.37-11 11-17 18.8-18 23.2-4.62 20.5-5.92 21.5-5.12 32.5 0.551 7.52 7.81 6.67 6.74 21.6-0.756 29.3-4.88 28.5 3.05 38.7 10.1 6.34 24.2 5.92 35.1 11.2 4.64 2.35 13.1 1.71 25.4-1.92 16.6-9.73 27-17 35.2-32.4 14.6-27.7 17.9-52.1 16.7-52.5-10.4-9.98-36.5-7.91-46.3-12.9-10.9-5.83-30.5-22.6-48.2-30.8z" fill="#632a08"/>
   <path d="m307 157c-5.9 0.732-6.61 4.16-16.5 6.81-2.63 0.705-17.3 9.64-21.1 23.3 5.63 12.6 9.66 18.7 10.7 31.1-0.127 0.786 4.51 15.8 13.9 45.1 3.38 10.5 9.68 16.1 18.9 16.8 10.4 2.68 15.1 6.24 21.5 12 7.66 6.76 19.1 7.91 34.5 3.46 17.8-5.17 27.9-8.99 30.2-11.5 2.75-2.88 5.18-9.65 7.29-20.3 2.46-12.4 0.525-14.5 0.0293-21.8-1.17-17-5.43-14.1-7.04-50.7-0.669-12.8-3.81-21.2-9.42-25.2-2.75-1.96-12.3-5.65-26.5-0.842-43.1 14.6-37.5-10.5-56.4-8.21z" fill="#9c6329"/>
   <path d="m38.3 244c-2.13 19.8 5.72 28.5 10.3 42.3 2.88 8.61 0.61 11.3 10.8 25 5.52 7.45 13.6 13.1 24.1 16.9 5.74 2.07 11.8 0.0736 18.1-5.98 3.4-3.26 2.27-9.91 6.81-14.2 15-14.3 37.8-28.4 38.6-30.4 5.19-12.8 7.59-20.4 7.2-22.8-2.06-12.8-1.99-15.7-7.4-20.6-6.38-5.75-23.7-6.85-25-6.14-4.17 2.16-25.6-1.74-43.6-4.76-5.4-2.23-11.8-4.57-19.2-7.04-25.5-10.5-18.7 9.27-20.7 27.7z" fill="#257b7e"/>
   <path d="m410 287c-33.5 12.2-35.5 14.1-49.7 17.6-9.26 2.69-12.6 13.5-10.1 32.3 0.967 7.31 11.5 14 31.5 20.2 13.5 3.6 32.2 25.4 41.7 34.9 19.4 19.5 31.5 17.8 36.5-5.14 4.01-18.5 5.24-38.4 12.7-45.7 9.24-9-10.7-18.7-15.4-23.5-13.3-13.6-24.2-22.4-32.9-26.3-6.25-2.8-11.2-5.44-14.3-4.33z" fill="#bd97df"/>
   <path d="m241 193c-10.3 6.46-14.2 12.5-16.2 32.8-1.69 17.4 4.65 19.6 7.1 37.1 2.42 12.7 11.2 20 26.3 21.8 16.5 1.98 26.6 2.09 30.4 0.342 4.07-1.91 3.05-12.4-3.06-31.4-8.13-17.2-8.86-25.7-10.9-38.1-2.12-12.8-1.69-9.98-9.63-22.6-4.57-7.24-17.2-4.09-24 0.146z" fill="#716345"/>
   <path d="m154 282c-3.64 13.6 3.8 24.1 14.2 39.7-0.399 18.3 4.27 34 4.21 35.5-0.343 7.68 2.54 13 8.64 15.9 24.6 11.6 27.1 16.8 41.7 14.9 8.02-1.04 14.9-7.48 20-13.7 5.8-6.98 5.15-18.9 11-24.9 7.04-7.23 18.8-23.4 20.9-31.4 4.34-16.9 0.342-26.1-12-27.6-19.3-2.31-29 3.82-43 0.97-17.9-3.64-20.9-6.49-50.1-22.5-10.4-5.54-13.9 6.66-15.6 13.3z" fill="#5e974f"/>
   <path d="m174 377c-15 7.23-22.3 14.8-36.7 18.9-13.2 4.25-21.3 11.6-24.3 22.2-4.76 16.5-3.3 28.4 4.38 35.8 12 11.5 19.1 17 21.4 16.5 39.6-14.1 92.8-3.88 125-14.3 9.55-3.15 16.2-11.3 19.9-24.5 2.12-7.47-0.611-16.2-8.18-26.3-4.29-5.68-11.1-11.4-20.4-17-9.66-2.6-18.3 1.03-26 2.35-7.53 1.28-16.9 0.894-27.7-1.37-10.5-3.46-16.7-12.3-27.6-12.2z" fill="#55c7c2"/>
  </g>
  <path d="m323 94.4q2.51-1.28 19.2 7.4 3.61 1.87 5.96 48.4 0.506 10-2.76 12.4-0.706 0.511-39.2-12.7-8.31-2.85 2.73-41.3 2.38-8.3 14-14.2z" fill="#8e38c9"/>
  <path d="m447 237q5.64-1.46 14.8 24.3 1.67 4.72-20.3 26.7-4.04 4.04-27.7-6.59-4.34-1.95 1.45-31.1 1.06-5.35 31.8-13.3z" fill="#c771ce"/>
  <path d="m163 231q9.31-6.32 24.4-2.55 26.9 6.72 29.5 9.84 4.72 5.58 7.22 18.7 4.46 23.4 0.565 26.2-6.95 4.96-27.2-6.11-36.1-19.8-37.4-28-2.36-14.6 2.86-18.2z" fill="#55715f"/>
  <path d="m323 410q9.49-4.18 27.4 12.1 5.75 5.22 5.2 11.7-0.176 2.07-28.5 30.4-9.08 9.08-15.6 10-2.08 0.296-20.9-15.2-6.03-4.97 0.619-28.4 2.13-7.53 31.7-20.5z" fill="#8ec7ba"/>
 </g>
</svg>
