<?xml version="1.0" encoding="UTF-8"?>
<svg width="512px" height="512px" contentScriptType="text/ecmascript" contentStyleType="text/css" version="1.1" viewBox="0 0 512 512" xmlns="http://www.w3.org/2000/svg">
 <g class="voronoi" stroke-width=".5">
  <path d="m458-37.1 39.9 3.59 31.6 25.6 4.85 5.94-17.3 17.4-55.1-29.8z" fill="#e3e3c9"/>
  <path d="m314 36.1c0.381-9.5 8.63-12.4 17.8-11.2 0 0 26.7-2.9 24.5 10.7-2.25 14.1-22.5 24.6-35.2 20-6.51-2.37-8.09 2.01-7.22-19.5z" fill="#8e00cf"/>
  <path d="m-13.2 126 13.2 3.6s7.27 1.94 8.68 6.95c1.98 7.04-8.68 13.1-8.68 13.1l-10.9 11.6-25.6 20.8-12.6-8.24-3.62-33.7z" fill="#e3388e"/>
  <path d="m52.7 335c-10.8 21.3-1.01 51.8-16.6 68.5-10.9 11.9-5.22 23.2-6.03 40.7 0 0-15.3 15.8-17.9 26.8-1.6 6.73 0.687 17.6 0.687 17.6 5.61 18.6 36.9 2.02 48.3-9.26l36.3-35.8c29.6-29.2 37.3-28.2 60.1-43.5 8.6-9.89 12.1-16.3 10.4-19.2-17.3-30.3-13.1-35.7-28.1-45.1-45.2-5.99-65.2-19.7-87.4-0.837z" fill="#16c17e"/>
  <path d="m473 428c15.6-5 39.1-5.96 39.1-5.96l18.6-2.48 2.17 0.445 0.978 25.5-27.4 28s-35.8 4.11-46.2-7.54c-7.53-8.44-1.61-33.9-1.61-33.9s13.3-3.72 14.3-4.04z" fill="#e3c7ec"/>
  <path d="m445-14.3 30.2 14 0.43 0.334 34.6 26.9-11.8 16.3s-10.9 16.8-19 15.6c-11.6-1.79-19.3-29.5-19.3-29.5l-10.2-29.3z" fill="#e3006f"/>
  <path d="m469 479c9.04-9.85 29-0.447 29-0.447l31.6 25.6 4.85 5.94-17.3 17.4-28.7-15.5s-33.7-8.59-34.1-22.1c-0.196-6.08 9.42-5.22 14.6-10.9z" fill="#e3e3c9"/>
  <path d="m111 30c0.519-4.46-1.53-10.3 3.15-13.1 8.57-5.08 33.1 0.86 33.1 0.86s24.1-2.36 31.6 11.9c3.53 6.78 9.47 16.2 1.72 25.3-14.1 16.5-42.2 10.7-58.4 4.66-9.26-3.47-6.47-9.21-11.1-17.9-1.83-3.43-0.502-7.8-0.053-11.7z" fill="#3800b4"/>
  <path d="m-41.1 70.8 11-5.22 42.6 33.1 6.92 22.9-51-4.39-23.3-10.1 3-20.3z" fill="#e31caf"/>
  <path d="m533 148 16.4 59.2-1.36 0.59-14-1.31-22.2-14.1s-10.7-5.92-11-14.1c-0.326-8.58 11-14.5 11-14.5z" fill="#005528"/>
  <path d="m-12.9 332 24.8 6.79s20.2 5.57 25.2 14c8.7 14.7 4.77 38.8-9.44 42.7-7.4 2.05-20.7-22.4-20.7-22.4l-7.06-14.6z" fill="#00aa73"/>
  <path d="m484 343c13 3.63 28.2 29.1 28.2 29.1l14.3 22.1 5.66 18.3-60.2 9.24s-9.46-0.856-10.8-4.96c-3.89-11.9 11.4-56 11.4-56-1.8-8.08 5.48-18.8 11.4-17.8z" fill="#e3aac9"/>
  <path d="m147 477c14.1-0.741 25.2 1.76 27.8 14.6 1.6 7.63-7.63 20.9-7.63 20.9l-9.94 11.9-28.6-3.55 1.37-8.35s-1.49-22.7 5.04-30.8c2.68-3.32 8.54-4.51 11.9-4.68z" fill="#38e3df"/>
  <path d="m393 543 7.56-20.8 16.7-10.6s6.82-5.14 11.1-4.22c2.75 0.592 4.63 4.22 4.63 4.22l27.3 41.5-0.753 28.4-48.8-24.7z" fill="#c700b4"/>
  <path d="m-18 59.4 18-9.57s51.5-12.8 68-6.47c13.5 5.16-18 23-23.8 36.2-4.08 9.27-2.18 20.8-7.42 29.5-0.421 0.695-1.82 1.62-1.82 1.62l-11.2-7.47-23.7-24.9z" fill="#001c34"/>
  <path d="m471 70.8s5.8-1.12 9.83-0.676c12.7 1.38 31.3 18.9 31.3 18.9l12.5 9.69 6.92 22.9-19.4-1.67s-16.7 0.892-25 1.42c-8.63 0.543-20.1 6.4-25.9 1.79-9.39-7.5-3.45-30-0.981-36.4 2.32-5.99 10.8-16 10.8-16z" fill="#e31caf"/>
  <path d="m504 337c2.84-3.42 7.54-2.21 7.54-2.21l12 3.27 32.6 24.3-4.04 26.2-33.4-16.2-7.06-14.6s-13.8-13.2-7.54-20.8z" fill="#00aa73"/>
  <path d="m451 504c8.23-7.46 23.9 7.71 23.9 7.71l0.43 0.334 34.6 26.9-11.8 16.3-19 15.6-19.3-29.5-10.2-29.3s-2.38-4.65 1.37-8.05z" fill="#e3006f"/>
  <path d="m86.9-50 14.6-13.7 19.3 17.6 5.01 36.9-4.68 9.17s-3.74 9.05-9.39 10.3c-8.29 1.88-18.8-10.3-18.8-10.3l-12.5-9.53z" fill="#1ce39d"/>
  <path d="m361-16.4 23.1 4.88 13.1 13.8s-4.68 19.8-12.7 24.5c-5.02 2.98-15.9-0.353-15.9-0.353s-24.8 1.51-28.3-12.4c-2.06-8.31 3.72-14 3.72-14z" fill="#aa0016"/>
  <path d="m50.9 114c-9.83 3.07-8.31-0.433-17.1 5.38 0 0-11.9 3.96-13.9 9.25-1.25 3.38 2.76 13.7 2.76 13.7s12.6 48.2 28.1 62.6c9.7 2.43 18.3 8.93 26.3 11.7 19.7 6.55 31.3 2.71 35-11.5 3.64-14.1 1.25-18.4 1.77-27.6 0.614-10.9-3.53-15.8 1.6-32.6 3.55-11.9 3.53-19.9-0.0684-24-3.16-3.59-16.7-5.73-40.6-6.41-10.5-0.297-18.4-0.438-23.8-0.428z" fill="#26388e"/>
  <path d="m495 127c4.55-0.174 17.4 2.27 17.4 2.27l15 4.11-15 16s-7.59 7.47-10.9 11.6c-5.6 6.9-4.25 21.3-15.2 21.9-5 0.258-17.9-2.74-22.9-9.32-6.8-9.03-9.63-24.1-3.62-33.7 7.43-11.8 21.3-12.2 35.3-12.8z" fill="#e3388e"/>
  <path d="m357 446c11.3 1.43 20.2 27.7 20.2 27.7s5.88 16.2 0.542 20.5c-7.03 5.64-17.9-3.17-26.2-6.56-7.23-2.94-20.4-2.12-20.2-11.8 0.207-11.8 14.1-31.4 25.8-29.9z" fill="#aae33b"/>
  <path d="m144-36 38.5 18.1-15 17.9s-8.65 9.61-13.5 11.5c-8.93 3.52-16 4.85-21-1.9-1.69-2.26-2.66-9.6-2.66-9.6l5.04-30.8z" fill="#38e3df"/>
  <path d="m-66.9-14.3 30.2 14 35 27.2-11.8 16.3-19 15.6-19.3-29.5z" fill="#e3006f"/>
  <path d="m393 31.5c-2.05-7.1 7.56-20.8 7.56-20.8l27.8-17.7 31.9 48.6s12.3 19.2 4.12 24.1c-15.6 9.33-53.6-20.4-53.6-20.4s-15.7-6.59-17.8-13.8z" fill="#c700b4"/>
  <path d="m-54.2 475 39.9 3.59 31.6 25.6 4.85 5.94-17.3 17.4-55.1-29.8z" fill="#e3e3c9"/>
  <path d="m386 373c-12.7 4.09-19.7 17.4-22.7 32.8-5.32 26.7-3.06 18.8-0.89 27.8 1.98 8.24 9.22 18.9 12.3 22.3l13.8 38.8 14.2 13.2 34-14.2 6.21-6.11s7.19-10.5 8.65-16.6c3.39-14-0.342-43.3-0.342-43.3-18.3-33.6-59.3-56.7-65.1-54.8z" fill="#bdd029"/>
  <path d="m29.9 0.189 0.149-0.189 2.32-2.94 20.7-20 11.7 3.96 38.6 44.3-6 9.46s-76.8 8.45-88.9 3.44c-13.4-5.59 21.3-38 21.3-38z" fill="#1c0024"/>
  <path d="m23.6 153c8.35 17.5 13.9 54 13.9 54s-0.873 0.512-1.36 0.59c-4.63 0.736-14-1.31-14-1.31l-42.8-27.2 20.6-15.4s19.8-18.6 23.6-10.6z" fill="#005528"/>
  <path d="m-32.7 343 10.8-5.21 36.2 56 5.66 18.3-60.2 9.24-12.9 1.37 13.5-62.4z" fill="#e3aac9"/>
  <path d="m86.9 462s8.29-10.6 15-10.6c8.71-0.061 18.9 14.6 18.9 14.6s7.99 21.5 5.9 33.7c-0.576 3.38-5.58 12.4-5.58 12.4l-7.9 15.5-20.3-15.5s-11.5-8.9-13.5-13.8c-5.07-12.7 7.43-36.3 7.43-36.3z" fill="#1ce39d"/>
  <path d="m361 501c7.56-2.17 15.8-3.54 22.9-0.638 4.9 2.02 11 11.5 11 11.5l2.15 2.25-11.2 25.7-19.1 1.93-41.4-12 18.5-17.8s9.63-8.71 17.2-10.9z" fill="#aa0016"/>
  <path d="m-54.2-37.1 39.9 3.59 31.6 25.6 4.85 5.94-17.3 17.4-55.1-29.8z" fill="#e3e3c9"/>
  <path d="m417-78.8 33.9 1.52 0.463 34.4-8.5 18.9-6.21 6.11-34 14.2-14.2-13.2-6.53-27z" fill="#c7e30d"/>
  <path d="m502 62.4c1.09-6.72 9.54-12.5 9.54-12.5l10.4-5.52 33.8 35.2-7.42 29.5-1.82 1.62-11.2-7.47-23.7-24.9s-10.9-7.32-9.54-15.9z" fill="#001c34"/>
  <path d="m-52.4 429 71-9.47 2.17 0.445 0.978 25.5-27.4 28-46.2-7.54-1.61-33.9z" fill="#e3c7ec"/>
  <path d="m29.9 512 0.149-0.189 2.32-2.94s10.2-13 19.6-15.1c4.01-0.899 9.42-3.22 12.8-0.927 6.99 4.68 16.6 19 16.6 19l22.1 25.3-6 9.46-27.5 2.24z" fill="#1c0024"/>
  <path d="m148 415c11-0.533 12 0.649 18.2 13.9 3.93 8.48 0.0913 18.5-11.5 30.2-7.44 7.44-12.9 11.6-16.4 12.4-2.24 0.53-9.36-4.98-21.4-16.5-7.68-7.39-3.44-7.8 0.412-21.1 2.47-8.53 13.6-18 30.7-18.8z" fill="#38c798"/>
  <path d="m152 68.6q29.5 7.39 26.1 22.4-2.97 13.2-15.6 22.2-11.1 7.88-24.3 9.26-11.6 1.21-17-4.93-4.74-5.4-3.74-33 0.875-24.3 34.4-15.9z" fill="#381c86"/>
  <path d="m384 34.4c-3.97-1.09-8.52-0.357-12.3 1.33-14.3 6.42-14.1 10.9-34.8 31.6-5.47 5.47-8.15 14.4-8.04 26.8 4.51 17.2-4.5 37.1 6.4 49.9 15.6 20.4 37 18.2 57 22.1 10.5 2.03 11.6 1.15 32.2 0.408 17.5-0.635 27-9.46 28.6-26.5 2.22-17.9 0.967-34.9-0.0273-53-0.857-15.6-37.9-36.9-49-37.6-5.83-2.42-12-12.8-20.1-15z" fill="#b92ae0"/>
  <path d="m181 111c-4.5 0.122-12.3 3.1-21.9 11-4.63 3.79-29.1 4.57-32.6 9.72-7.19 24.1-11.8 23.4-9.82 35.5 0.881 5.51 7.35 13.6 9.27 13.9 33.2 5.22 31 10.7 44.7 4.73 7.9-3.44 11-15.5 15.5-20.7 7.96-22 6.03-51.7-5.17-54.2z" fill="#47384e"/>
  <path d="m392 353q0.576-6.19 42-6.6 34.6-0.342 25.6 40.9-7.49 34.4-40.6 0.992-27.7-27.9-27-35.3z" fill="#c7aa89"/>
  <path d="m67.7 60.7c8.29-8.29 12.8-14.2 21.2-16.5 8.61-2.42 14.6-0.829 18.1 4.78 3.53 5.73 4.98 17.1 4.37 34.3-0.63 17.5-12.1 25.9-34.3 25.3-22.7-0.642-32.6-6.76-29.8-18.4 2.89-11.9 12.2-21.3 20.4-29.4z" fill="#1c1c7e"/>
  <path d="m341 408q12.8 2.86 15.8 8.3 0.97 1.75-0.158 15-0.361 4.26-28.7 32.6-9.08 9.08-15.6 10-2.08 0.295-20.9-15.2-6.03-4.97 5.69-46.3 3.76-13.3 43.7-4.38z" fill="#8ec7ba"/>
  <path d="m377 340c3.7 0.439 5.76 1.01 6.18 1.72 1.78 3.02 2.59 5.39 2.43 7.11-0.684 7.34-2.81 13.8-6.37 19.3-15.2 23.5-26.1 34.5-32.8 33-28.5-6.34-38.5 3.93-42.4-10.1-1.48-5.38 2.66-5.48 12-11.7 39.8-26.3 60.1-39.5 60.9-39.4z" fill="#aaaa38"/>
 </g>
</svg>
