<?xml version="1.0" encoding="UTF-8"?>
<svg width="512px" height="512px" contentScriptType="text/ecmascript" contentStyleType="text/css" version="1.1" viewBox="0 0 512 512" xmlns="http://www.w3.org/2000/svg">
 <g class="voronoi" stroke-width=".5">
  <path d="m458-37.1 39.9 3.59 31.6 25.6 4.85 5.94-17.3 17.4-55.1-29.8z" fill="#e3e3c9"/>
  <path d="m315 27.5c3.27-5.98 13.2-2.88 19.4-2.7 0 0 22 1.48 22.2 6.51 0.691 15.1-15.4 33.1-30 33.8-12.6 0.605-19-24.9-19-24.9z" fill="#8e00cf"/>
  <path d="m-13.2 126 13.2 3.6s5.87 2.78 7.28 7.79c1.98 7.04-7.28 12.3-7.28 12.3l-10.9 11.6-25.6 20.8-12.6-8.24-3.62-33.7z" fill="#e3388e"/>
  <path d="m34.7 424c-7.58-0.394-2.67 14.8-5.24 22-3.63 10.1-22.6 23-22.6 23l9.74 28.9c6.02 17.9 29.3-13.2 44.6-18.3 0 0 33.8-20.4 29.7-35.2-6.04-21.4-33.7-19.2-56.2-20.4z" fill="#00d59e"/>
  <path d="m460 429 71-9.47 2.17 0.445 0.978 25.5-27.4 28s-35.6-1.28-46-12.9c-7.53-8.44-1.88-28.5-1.88-28.5z" fill="#e3c7ec"/>
  <path d="m4.93 27.5s9.2-12.1 16.2-13.7c13-2.79 33.2 14.7 33.2 14.7s18.9 15.8 10.6 21.8c-12.4 8.96-41.7 0.199-52-7.2-6.57-4.72-7.99-15.7-7.99-15.7z" fill="#00009c"/>
  <path d="m445-14.3 30.2 14 0.43 0.334s26.9 9.88 29 24.3c0.941 6.64-6.23 18.8-6.23 18.8s-10.9 16.8-19 15.6c-11.6-1.79-19.3-29.5-19.3-29.5l-10.2-29.3z" fill="#e3006f"/>
  <path d="m462 477c9.04-9.85 36.1 1.68 36.1 1.68l31.6 25.6 4.85 5.94-17.3 17.4-55.1-29.8s-5.41-15.2-0.2-20.9z" fill="#e3e3c9"/>
  <path d="m111 30c2.05-5.48 11.6-13.2 11.6-13.2s16.8-1.33 24.7 0.928c15.5 4.42 13.2 5.63 18.2 10.6 10 9.88 10 20.9 3.98 28.2-7.18 8.73-33.9 1.86-33.9 1.86s-19.9-7.95-24.5-16.7c-1.83-3.43-1.42-8.03-0.053-11.7z" fill="#3800b4"/>
  <path d="m-41.1 70.8 11-5.22 42.6 33.1s7.16 10.7 2.13 16.9c-4.09 5.03-14.6 4.34-14.6 4.34l-31.6-2.72-23.3-10.1 3-20.3z" fill="#e31caf"/>
  <path d="m533 148 16.4 59.2-1.36 0.59-14-1.31-22.2-14.1s-12.4-4.97-12.7-13.1c-0.326-8.58 12.7-15.4 12.7-15.4z" fill="#005528"/>
  <path d="m-12.9 332 24.8 6.79s29 11.2 32.6 24.3c3.46 12.9-2.54 35-15.8 36.8-11.4 1.58-21.7-26.8-21.7-26.8l-7.06-14.6z" fill="#00aa73"/>
  <path d="m484 343c13 3.63 27.7 29.3 27.7 29.3l14.3 22.1 5.66 18.3-60.2 9.24-12.9 1.37 13.5-62.4c3.86-7.43 3.99-20 11.9-17.9z" fill="#e3aac9"/>
  <path d="m144 476c14.1-0.741 26.7 2.98 29.8 16.8 1.68 7.61-6.32 19.2-6.32 19.2l-9.94 11.9-28.6-3.55 6.41-39.1s5.3-5.07 8.68-5.25z" fill="#38e3df"/>
  <path d="m393 543 7.56-20.8 16.7-10.6s6.26-5.3 10.6-4.37c2.75 0.592 5.19 4.37 5.19 4.37l27.3 41.5-0.753 28.4-48.8-24.7z" fill="#c700b4"/>
  <path d="m-18 59.4 18-9.57s6.52-1.58 10.4-1.45c13.9 0.438 20.5 6.28 35.5 17.7 8.05 6.15-9.17 42.9-9.17 42.9l-1.82 1.62-11.2-7.47-23.7-24.9z" fill="#001c34"/>
  <path d="m471 70.8s6.18 0.817 10.2 1.26c12.7 1.38 30.9 17 30.9 17l12.5 9.69 6.92 22.9-51-4.39s-12.8-1.99-17-9.39c-3.32-5.98-1.45-12.7 0.0868-19.7 1.39-6.27 7.35-17.3 7.35-17.3z" fill="#e31caf"/>
  <path d="m506 339c2.84-3.42 6.02-3.7 6.02-3.7l12 3.27 32.6 24.3-4.04 26.2-33.4-16.2-7.06-14.6s-12.3-11.8-6.02-19.3z" fill="#00aa73"/>
  <path d="m187 445c10.6-2.08 23.3 0.345 31.7 7.13 7.03 5.64 12.6 15.5 11.5 24.5-0.969 8.31-7.71 16.9-15.6 19.6-11 3.8-34-8.15-34-8.15s-19.4-10.1-18.7-20.9c0.825-12.3 12.9-19.9 25.1-22.2z" fill="#55e345"/>
  <path d="m445 498 30.2 14 0.43 0.334 34.6 26.9-11.8 16.3-19 15.6-19.3-29.5-10.2-29.3z" fill="#e3006f"/>
  <path d="m86.9-50 14.6-13.7 19.3 17.6 5.01 36.9-4.68 9.17s-4.93 9.72-10.6 11c-8.29 1.88-17.6-11-17.6-11l-12.5-9.53z" fill="#1ce39d"/>
  <path d="m361-16.4 23.1 4.88 13.1 13.8s-2.55 16.5-11 20.4c-5.88 2.74-18.9-0.232-18.9-0.232s-28.2 8.24-31.7-5.7c-2.06-8.31 8.35-16.7 8.35-16.7z" fill="#aa0016"/>
  <path d="m51.9 114c-12 1.87-15.7 2.53-29.9 17.1l0.656 10.8s11.8 47.4 26.1 59.8c10.9 9.5 19.9 12.1 32.4 16.4 22 7.32 34.3 9.1 37 5.36 2.67-3.7 4.02-19.4 5.6-29.1 1.83-11.2 4.25-22.5 4.49-33.9 0.137-6.43 1.38-8.94-1.72-19.2-2.71-9-5.99-15.7-9.83-20.1-3.37-3.83-17-6.09-40.9-6.77-10.5-0.297-18.4-0.438-23.8-0.428z" fill="#13420c"/>
  <path d="m499 126 28.2 7.71-26 27.6s-14.6 21.9-25.6 20.8c-4.15-0.404-5.72-5.17-8-9.62-6.32-12.3-11.9-29.7-2.78-40.1 7.58-8.72 34.1-6.3 34.1-6.3z" fill="#e3388e"/>
  <path d="m356 448c10.4 2.61 21.1 26.2 21.1 26.2s5.88 11.1 0.542 15.4c-7.03 5.64-26.2-1.47-26.2-1.47s-26-5.42-20.2-13.1c7.13-9.46 11.6-30.3 24.7-27z" fill="#aae33b"/>
  <path d="m144-36 38.5 18.1-15 17.9s-5.17 9.93-9.94 11.9c-8.03 3.31-20.2 5.25-25.9-2.43-1.69-2.26-1.29-9.46-1.29-9.46l5.04-30.8z" fill="#38e3df"/>
  <path d="m392 27.9c-2.05-7.1 7.81-17.3 7.81-17.3l27.8-17.7 31.9 48.6s7.03 15.4-1.11 20.2c-15.6 9.33-48.4-16.5-48.4-16.5s-16-10.2-18-17.4z" fill="#c700b4"/>
  <path d="m-54.2 475 39.9 3.59 31.6 25.6 4.85 5.94-17.3 17.4-55.1-29.8z" fill="#e3e3c9"/>
  <path d="m422 435c10.5-4.08 19.4-5.75 26.3 1.05 8.2 8.04 3.3 33.2 3.3 33.2l-8.5 18.9-6.21 6.11-34 14.2-14.2-13.2-6.53-27s24.5-27.3 39.8-33.2z" fill="#c7e30d"/>
  <path d="m29.9 0.189 0.149-0.189 2.32-2.94 20.7-20 11.7 3.96 16.6 19s17.1 15.8 18 26.9c0.284 3.72 1.29 5.91-1.91 7.84-7.88 4.76-18.8 5.23-27.5 2.24-17.1-5.89-40-36.8-40-36.8z" fill="#1c0024"/>
  <path d="m10 158c15.6-8.28 34.1 45.9 26.2 49.3 0 0-9.73-1.87-14.2-3.39-8.3-2.84-22-12-22-12l-20.6-13.1 20.6-15.4z" fill="#005528"/>
  <path d="m-32.7 343 10.8-5.21 36.2 56 5.66 18.3-60.2 9.24-12.9 1.37 13.5-62.4z" fill="#e3aac9"/>
  <path d="m146 410c-9.35 0.475-35.9 17.2-38.1 23.4 0 0-11.8 18.6-13.3 20.2-9.88 10.7-18.7 21.9-21.3 26.7-6.4 12.1 6.71 21.9 6.71 21.9l32.7 25 12.6-24.7c3.8-8.03 2.89-17.6 7.57-24.9 5.13-7.99 13.9-11.4 21.3-18.9 11.6-11.6 15.1-22.4 10.6-32.2-5.13-11.1-11.4-16.6-18.8-16.5z" fill="#1ce39d"/>
  <path d="m361 496c7.56-2.17 23.1 4.88 23.1 4.88l13.1 13.8-11.2 25.7-19.1 1.93-41.4-12 18.5-17.8s9.43-14.2 17-16.4z" fill="#aa0016"/>
  <path d="m-54.2-37.1 39.9 3.59 31.6 25.6 4.85 5.94-17.3 17.4-55.1-29.8z" fill="#e3e3c9"/>
  <path d="m417-78.8 33.9 1.52 0.463 34.4-8.5 18.9-6.21 6.11-34 14.2-14.2-13.2-6.53-27z" fill="#c7e30d"/>
  <path d="m498 61.1c1.09-6.72 14.1-11.3 14.1-11.3l10.4-5.52 33.8 35.2-7.42 29.5-1.82 1.62-11.2-7.47-23.7-24.9s-15.5-8.61-14.1-17.2z" fill="#001c34"/>
  <path d="m-52.4 429 71-9.47 2.17 0.445s4.03 17.6 0.978 25.5c-3.73 9.68-21.8 22.3-21.8 22.3l-5.6 5.73-46.2-7.54-1.61-33.9z" fill="#e3c7ec"/>
  <path d="m29.9 512 0.149-0.189 2.32-2.94s11.4-17.9 20.7-20c4.01-0.899 7.2 3.54 10.6 5.83 6.99 4.68 17.6 17.1 17.6 17.1l22.1 25.3-6 9.46-27.5 2.24z" fill="#1c0024"/>
  <path d="m63.9 60.2q12.4-12.4 25.1-16 12.9-3.63 18.1 4.78 5.29 8.59 4.37 34.3-0.945 26.2-34.3 25.3-34-0.963-29.8-18.4 4.34-17.8 16.5-30z" fill="#1c1c7e"/>
  <path d="m368 122c4.19 0.108 9.69 9.63 16.5 28.6 4.49 12.5 1.09 19.2-1.59 25.4-1.77 4.12-0.804 9.15-5.72 9.68-3.25 0.349-14.2-2.97-32.8-9.97-12.3-4.62-11.9-16.4 1.17-35.2 8.62-12.5 16.1-18.6 22.4-18.4z" fill="#aa3897"/>
  <path d="m196 140c-16.4 4.08-32.8 10.1-34.2 17.2 2.33 11.3 32.6 46.8 32.6 46.8 10 9.77 10.1 6.47 18.6 2.89 3.17-1.35 9.99-3.88 13.3-12 3.72-9.02 2.15-49-3.82-51.9-12.3-3.74-21.5-3.13-26.5-2.99z" fill="#554718"/>
   <path d="m269 335c16.3 24.1 3.55 27.9 14.6 51.9 7.54 15.4 14.2 23 20.1 22.6 33.3-2.02 50.2-4.2 50.8-6.52 3.23-13.1 4.26-21.7 3.08-25.7-6.69-22.6-5.56-23.9-11.7-34.3-8.3-14.1-24.2-24.4-32.9-36.5-23.6-41.2-56.6-3.36-44 28.6z" fill="#8e9c0e"/>
  <path d="m126 290c-3.61-1.13-13.8 12.2-30.1 36.3-7.39 20.4 8.61 30.1-0.0371 43-2.99 4.57-1.96 13.1 3.1 25.6 6.99 17.3 16.7 22.6 29.1 16.1 17.1-9.05 27-16.5 29.6-22.4 3.57-8.11 2.88-13.5 3.38-20.3 1.34-18.6-1.73-38-1.19-56-7.82-10.7-26.1-19.9-33.9-22.3z" fill="#389ca0"/>
  <path d="m365 393c-8.7 3.69-6.2 36-1.46 46.6 9.2 16.7 15.6 23.3 19.1 19.8 15.6-15.6 27.9-29.4 32.7-32.5 3.61-2.31 15.1 0.883 32.7 1.58 0.979 0.0387 2.49-1 2.51-2.09 0.108-6.11-25.3-29.2-41.5-39.2-7.67-4.45-17.3-4.97-25.8-3.51-6.73 1.15-8.34 5.18-18.2 9.32z" fill="#b9c7de"/>
  <path d="m373 30.6c9.43-1.33 13.6 4.54 13.8 5.2 0.789 2.51 0.59 8.6-0.599 18.3-4.5 36.6-7.11 55.2-7.84 56-2.77 2.77-5.25 4.12-7.46 4.07-8.33-0.215-14.5-1.41-18.5-3.58-15.2-8.2-22.8-13.8-22.9-16.8-0.106-11.4 2.58-19.8 8.05-25.3 20.7-20.7 32.9-37.4 35.4-37.8z" fill="#aa1c3c"/>
  <path d="m449 346q21.4-0.212 12.4 41-7.49 34.4-30.7 11-19.4-19.5-12.8-37.1 5.47-14.7 31.1-14.9z" fill="#c7aa89"/>
  <path d="m316 176c-8.63 4.56-13.6 9.02-15 13.4-3.51 11.4-4.59 18.9-3.23 22.6 3.55 9.62 1.25 11.9 5.61 14.9 25.5 17.7 80.4 15.8 93.1 0.359 6.94-9.55-11.4-33.2-11.5-33.5-0.623-2.52-1.4-3.67-2.34-3.62-10.3 0.548-20.5-1.11-28.3-4.12-9.81-1.73-28.6-13-38.5-9.97z" fill="#9c550b"/>
  <path d="m400 286c5.83-2.3 4.97-3.04 18.6 3.06 11.8 5.3 24.3 14.8 37.6 28.4 11.5 11.8 16.4 18.6 14.7 20.3-1.51 1.51-10.6 2.34-27.4 2.51-14.6 0.144-28.2-4.24-40.9-13.2-11-7.75-14.7-17.7-11.1-30 3.13-10.6 4.2-9.43 8.55-11.1z" fill="#c78e87"/>
  <path d="m45.2 389c14.3-14.3 13.9-6.57 17.7-6.96 14.8-1.53 23.4 0.733 25.8 6.78 9.6 23.7 15.8 38.9 13.4 39-15.9 0.833-83.6-11.7-56.9-38.8z" fill="#1cc73b"/>
  <path d="m322 105q2.33-0.562 10.9 4.08 20.2 10.9 10.5 24.9-22.8 33-28.2 35.8-12.6 6.63-17.6-3.3-11.8-23.3-1.34-34.7 24.6-26.6 25.6-26.9z" fill="#8e3851"/>
  <path d="m135 165q2.15-2.8 11.3-2.69 4.78 0.056 9.09 3.78 2.26 1.95 26.7 30.9 12.8 15.2 5.48 25.7-3.83 5.53-40.6-1.7-19.2-3.79-17.2-34.5 1.09-16.1 5.2-21.5z" fill="#3855a3"/>
  <path d="m68.6 328q17.7 6.37 18.3 8.78 6.53 25.1 5.85 26.2-7.06 10.8-9.49 11-25.3 2.62-26.6 0.369-13.3-23.5-11.2-25.5 21.4-21.4 23.1-20.8z" fill="#1caa20"/>
  <path d="m406 50.4c-9.46-0.308-15.6 11.3-18.5 34.8-5.18 23.8-9.83 43.5 0.764 59.9 15.2 23.5-0.796 29.9 2.53 46.3 0.35 1.41 4.99 9.61 13.9 24.6 8.84 14.8 18.9 20.8 30.2 17.9 11.2-2.89 17.4-4.99 18.8-6.32 1.32-1.32 3.48-8.27 6.51-20.9 2.99-12.5-1.34-19.7-2.63-26.8-7.03-38.6-7.03-23.9-5.49-40.5 1.85-18 3.62-33.1 2.98-50-0.565-14.9-39.4-38.5-49.1-38.9z" fill="#c73816"/>
  <path d="m183 296q12.5-7.39 28.8-5.05 12.6 1.8 13.9 2.43 0.985 0.487-0.121 29.1-0.851 22-2.1 22.9-0.96 0.686-33.2 3.19-24.8 1.93-24.1-23.5 0.583-19.5 16.8-29.1z" fill="#558e8e"/>
  <path d="m340 414q14.3-0.868 16.5 3.12 0.711 1.28-0.416 14.6-0.362 4.26-28.7 32.6-9.08 9.08-15.6 10-2.08 0.295-20.9-15.2-6.03-4.97 1.99-33.3 2.58-9.08 47-11.8z" fill="#8ec7ba"/>
  <path d="m152 67.6c19.7 4.93 18.8 0.182 21 7.26 3.27 10.8-1.49 10.6-20.5 27-16.7 14.4-27 19.4-30.8 15-3.37-3.84-4.73-15-4.06-33.4 0.584-16.2 12.1-21.5 34.4-15.9z" fill="#381c86"/>
  <path d="m383 277c4.09 2.15 3.42 12.5-2.02 31-1.28 4.36-13.5 19.3-28.5 30.7-3.54 2.69-1.96-7.06-7.86-8.3-1.39-0.292-9.6-4.33-20.1-18.9-2.47-3.44-19.1-9.21 0.397-32.4 4.58-5.47 40.7-11.2 58-2.05z" fill="#aa8ec6"/>
  <path d="m180 352c-21.8 2.94-9.35 23.6-17 42.2-1.8 4.09 1.44 15.1 9.71 32.9 3.43 7.39 13.6 11.5 30.6 12.4 7.02 0.352 11.1-8.32 12.2-26 0.344-5.35 6e-3 -21.1-0.689-29.7 4.21-14.4-0.494-32-11.7-31.5-12.9 1.01-19.2-0.174-23.2-0.299z" fill="#55b9d6"/>
  <path d="m301 43.7c-5.73 0.141-17 8.6-33.8 25.4-6 6-6.1 11.9-4.14 17.7 5.41 15.7-12.2 65.2 38.9 31.3 20.2-14.1 20.9-17.6 20.8-36.8-4.44-10.3-15-37.7-21.7-37.6z" fill="#801c21"/>
  <path d="m188 104q6.67 29.3-11.8 39.5-24.2 13.3-30.3 13.2-7.87-0.092-11.6-12.6-4.94-16.4 18.3-36.4 30.4-26.1 35.5-3.75z" fill="#383870"/>
  <path d="m48.6 285q8.21-8.21 26.5-9.94 33.5-3.19 36.4 1.16 5.28 8-5.18 23.5-19.2 28.5-26.1 26-12.6-4.52-20.8-15.7-15.2-20.6-10.8-25z" fill="#1c8e5d"/>
  <path d="m361 336q21.6-16.4 29.6-10.8 27.6 19.4 24.9 26.6-9.32 25-18.2 25.9-30.7 2.98-33.3-5.98-9.16-31-2.92-35.8z" fill="#aaaa40"/>
 </g>
</svg>
