<?xml version="1.0" encoding="UTF-8"?>
<svg width="512px" height="512px" contentScriptType="text/ecmascript" contentStyleType="text/css" version="1.1" viewBox="0 0 512 512" xmlns="http://www.w3.org/2000/svg">
 <g class="voronoi" stroke-width=".5">
  <path d="m458-37.1 39.9 3.59 31.6 25.6 4.85 5.94-17.3 17.4-55.1-29.8z" fill="#e3e3c9"/>
  <path d="m303 25.7c0.415-1.69 3.17-4.14 3.17-4.14l11.2 0.316s50.6 7.7 70.1 22c17.8 13.1-33.9 42.7-48.6 43.4-12.6 0.605-33.7-48.9-33.7-48.9s-3.23-8.58-2.2-12.8z" fill="#8e00cf"/>
  <path d="m-13.2 126 13.2 3.6s6.49 0.907 7.9 5.91c1.98 7.04-7.9 14.2-7.9 14.2l-10.9 11.6-25.6 20.8-12.6-8.24-3.62-33.7z" fill="#e3388e"/>
  <path d="m36 421c18.5-12.5 49.9-10.7 54.5 8.7 3.54 14.9-29.3 50.1-29.3 50.1s-27.4 18.7-35.1 12.4c-6.91-5.64-2.19-23.1-0.687-34.5 1.66-12.6 1.13-30.2 10.6-36.6z" fill="#00c7e4"/>
  <path d="m460 429 71-9.47 2.17 0.445 0.978 25.5-27.4 28s-67.3-1.44-73.7-25.8c-0.631-15.8 17.3-17.4 26.8-18.6z" fill="#e3c7ec"/>
  <path d="m445-14.3 30.2 14 0.43 0.334 34.6 26.9-11.8 16.3s-10.9 16.8-19 15.6c-11.6-1.79-19.3-29.5-19.3-29.5l-10.2-29.3z" fill="#e3006f"/>
  <path d="m444 476c14.5-4.85 47.2 2.92 47.2 2.92l20.7 11 17.3 14 4.85 5.94-17.3 17.4-55.1-29.8s-31.9-16.8-17.7-21.5z" fill="#e3e3c9"/>
  <path d="m112 37.5c-0.929-7.57 3.26-16.7 9.78-20.7 7.03-4.27 24.7 0.928 24.7 0.928s34.6 9.64 42 23.9c3.53 6.78-2.14 22.8-2.14 22.8s-15.1 28-28.4 35c-11.9 6.31-16.2 28.5-26.5 19.8-16.7-14.1-16.5-57-19.5-81.8z" fill="#3800b4"/>
  <path d="m-41.1 70.8 11-5.22 42.6 33.1s6.57 9.36 1.55 15.5c-4.09 5.03-14 5.67-14 5.67l-31.6-2.72-23.3-10.1 3-20.3z" fill="#e31caf"/>
  <path d="m533 148 16.4 59.2-1.36 0.59-14-1.31-22.2-14.1s-10.9-4.17-11.2-12.3c-0.326-8.58 11.2-16.2 11.2-16.2z" fill="#005528"/>
  <path d="m-12.9 332 24.8 6.79s19.3 10.2 24.4 19.2c5.22 9.17 9.75 44.4 1.19 50.6-10 7.24-30.5-35.5-30.5-35.5l-7.06-14.6z" fill="#00aa73"/>
  <path d="m460 349c3.51-1.9 19.7-8.6 23.5-7.52 13 3.63 28.6 30.6 28.6 30.6l14.3 22.1 5.66 18.3-60.2 9.24s-13.7 1.65-17.5-0.499c-16.8-9.63-25.2-32.6-19.4-51.1 5.14-16.5 9.79-12.9 25-21.1z" fill="#e3aac9"/>
  <path d="m166 456c11.6-0.606 6.37 20.9 9.43 34.7 1.68 7.61-8.07 21.2-8.07 21.2l-9.94 11.9-28.6-3.55 6.41-39.1s27.4-24.9 30.8-25.1z" fill="#38e3df"/>
  <path d="m393 543 7.56-20.8 16.7-10.6s6.68-5.1 11-4.18c2.75 0.592 4.77 4.18 4.77 4.18l27.3 41.5-0.753 28.4-48.8-24.7z" fill="#c700b4"/>
  <path d="m-18 59.4 28.4-15.1s26-13.8 34-4.68c10.3 11.7 4.35 46.7-0.229 54.3-1.58 2.61-3.1 15.2-9.3 16.7-4.36 1.05-11.2-7.47-11.2-7.47l-23.7-24.9z" fill="#001c34"/>
  <path d="m471 70.8c2.22-1.94 3.89-4.37 7.92-3.93 12.7 1.38 33.2 22.2 33.2 22.2l12.5 9.69 6.92 22.9-51-4.39s-19.2-2.73-23.3-10.1c-3.32-5.98 3-20.3 3-20.3s5.93-11.8 10.8-16z" fill="#e31caf"/>
  <path d="m506 338c2.84-3.42 6.4-2.48 6.4-2.48l12 3.27 32.6 24.3-4.04 26.2-33.4-16.2-7.06-14.6s-12.7-13-6.4-20.5z" fill="#00aa73"/>
  <path d="m449 499c8.23-7.46 26.1 12.5 26.1 12.5l0.43 0.334 34.6 26.9-11.8 16.3-19 15.6-19.3-29.5-10.2-29.3s-4.56-9.49-0.818-12.9z" fill="#e3006f"/>
  <path d="m86.9-50 14.6-13.7 19.3 17.6 5.01 36.9-4.68 9.17s-5.05 7.42-10.7 8.7c-8.29 1.88-17.5-8.7-17.5-8.7l-12.5-9.53z" fill="#1ce39d"/>
  <path d="m361-16.4 23.1 4.88 13.1 13.8s-3.66 20.2-11.2 25.7c-5.17 3.77-19.1 1.93-19.1 1.93s-23.9 1.13-27.3-12.8c-2.06-8.31 4.42-17 4.42-17z" fill="#aa0016"/>
  <path d="m499 126 28.2 7.71-26 27.6s-14.6 20.2-25.6 20.8c-5 0.258-12.6-8.24-12.6-8.24s-9.63-24.1-3.62-33.7c7.43-11.8 39.5-14.1 39.5-14.1z" fill="#e3388e"/>
  <path d="m353 447c12.7 1.05 29.4 14 36.3 24.7 4.48 6.95 14.3 17.1 8.77 23.2-6.39 7.01-27.2-4.4-27.2-4.4s-38.3 0.292-38.4-9.36c-0.0347-10.6 6.93-35.3 20.4-34.2z" fill="#aae33b"/>
  <path d="m144-36 38.5 18.1-15 17.9s-8.87 9.73-13.7 11.6c-8.93 3.52-16.8 5.01-21.8-1.7-1.68-2.26-1.67-9.93-1.67-9.93l5.04-30.8z" fill="#38e3df"/>
  <path d="m-66.9-14.3 30.2 14 35 27.2-11.8 16.3-19 15.6-19.3-29.5z" fill="#e3006f"/>
  <path d="m393 31.5s2.93-15.1 7.56-20.8c4.14-5.15 16.7-10.6 16.7-10.6l11.1-7.05 31.9 48.6s5.05 11 1.99 14.9c-12.5 16.4-42.7 8.94-59.7-2.68-9.39-6.43-9.57-22.3-9.57-22.3z" fill="#c700b4"/>
  <path d="m469 273c17.1 1.33 26.2 17.1 33 39.7 2.75 9.23 0.444 28.1-2.41 30.7-5.36 4.1-22.4-9.41-22.4-9.41l-34.6-37.7s14.7-24.2 26.4-23.3z" fill="#e38e16"/>
  <path d="m-54.2 475 39.9 3.59 31.6 25.6 4.85 5.94-17.3 17.4-55.1-29.8z" fill="#e3e3c9"/>
  <path d="m29.9 0.189 0.149-0.189 2.32-2.94 20.7-20 11.7 3.96 16.6 19s21.2 14.1 22.1 25.3c0.284 3.72-6 9.46-6 9.46s-24.8 19.6-37.7 15.3c-18.4-6.14-29.9-49.9-29.9-49.9z" fill="#1c0024"/>
  <path d="m37.2 143c17-1.96 27 8.47 31 25.1 3.95 16.4-32.1 39.2-32.1 39.2l-14-1.31-42.8-27.2 20.6-15.4s28.5-19.3 37.2-20.4z" fill="#005528"/>
  <path d="m-32.7 343 10.8-5.21 36.2 56 5.66 18.3-60.2 9.24-12.9 1.37 13.5-62.4z" fill="#e3aac9"/>
  <path d="m79.8 465c3.12-5.89 15-16.5 21.6-16.5 8.71-0.061 19.3 17.6 19.3 17.6l5.01 36.9-12.6 24.7-32.7-25s-7.01-25.6-0.613-37.7z" fill="#1ce39d"/>
  <path d="m364 498c7.56-2.17 14.1-0.346 20.1 2.74 4.72 2.41 11 11.5 11 11.5l2.15 2.25-11.2 25.7-19.1 1.93-41.4-12 18.5-17.8s12.4-12.1 19.9-14.3z" fill="#aa0016"/>
  <path d="m-54.2-37.1 39.9 3.59 31.6 25.6 4.85 5.94-1.93 1.95s5.95 19.4-1.25 20.5c-1.83 0.271-19-7.63-19-7.63l-50.2-27.1z" fill="#e3e3c9"/>
  <path d="m494 59.4 28.4-15.1 33.8 35.2-7.42 29.5-1.82 1.62-11.2-7.47-23.7-24.9z" fill="#001c34"/>
  <path d="m-52.4 429 71-9.47s4.3 9.34 4.76 14.4c0.353 3.88-1.62 11.6-1.62 11.6l-27.4 28-46.2-7.54-1.61-33.9z" fill="#e3c7ec"/>
  <path d="m29.9 512 0.149-0.189 2.32-2.94s12.3-15.9 21.7-18c4.01-0.899 7.31-0.382 10.7 1.91 6.99 4.68 16.6 19 16.6 19l22.1 25.3-6 9.46-27.5 2.24z" fill="#1c0024"/>
  <path d="m436 69.1c17-1.69 14.2 40.8 16 43.8 2.07 3.46 2.42 12.4 1.04 26.9-1.62 17-7.42 25.7-17.4 26.1-11.7 0.426-34.8 5.11-43.8 0.422-10.6-5.52 0.943-18 5.12-29.6 4.92-13.7 24.6-66.1 39.1-67.5z" fill="#c73876"/>
  <path d="m41.5 212q0.3-0.301 0.855-0.442 1.69-0.43 13.8 3.62 37 12.3 36.4 22.2-1.69 30.2-10.6 31.1-27.1 2.57-30.4-12-10.2-44.4-10.1-44.5z" fill="#1c7145"/>
  <path d="m63.9 60.2q12.4-12.4 25.1-16 12.9-3.63 18.1 4.78 5.29 8.59 4.37 34.3-0.945 26.2-34.3 25.3-34-0.963-29.8-18.4 4.34-17.8 16.5-30z" fill="#1c1c7e"/>
  <path d="m327 103c6.7e-4 -6e-3 0.678-0.922 2.03-2.75 2e-3 -3e-3 38.3-23.3 74.5-24.9 12.1-0.515-1.22 23.7-4.96 34.8-6.62 19.6-11.8 44.9-30.3 54.3-10.5 5.34-24.1 5.94-35-4.21 5.55-36.3-8.14-29.8-6.2-57.3z" fill="#aa38f1"/>
  <path d="m213 141c8.51-5.87 17-15.3 27.3-14.7 11.9 0.701 30.1 8.59 29.2 20.4-1.77 23.7 17.7 59.8 5.77 68.7-31.2 23.3-61.6 10.4-61.7 10.3-0.254-0.106-15-19-18.9-25.6-10.1-17.2-15.8-10.9-16.7-19.4-0.729-6.88 4.41-12.8 9.92-18.2 14.4-14.2 15.9-15.4 24.9-21.6z" fill="#55554c"/>
  <path d="m288 297c0.608-0.788 5.6-1.88 15-3.26 16.4-2.43 73.3-18.7 82.5-11.1 16.2 13.3-4.37 35.4-42.2 47.9-26.2 10.7-41 16.1-44.5 16.3-6.11 0.269-10.5-1.19-13.2-4.37-4.71-5.58-5.99-12.8-3.84-21.6 3.79-15.5 5.85-23.4 6.2-23.9z" fill="#8e8e60"/>
  <path d="m112 358c3.87-9.29 21.8-55.5 25.2-58.6 3.08-2.83 19.8 0.279 35.6 3.19 14.3 2.63 2.39 27.8 2.62 41.8 0.106 6.51-2 6.01-0.588 19.5 1.28 12.2-1.21 22.1-7.48 29.5-5.67 6.75-16.1 10.1-31.2 10-13.7-0.0613-22.3-5.32-25.8-15.8-3.22-9.46-2.69-19.3 1.58-29.6z" fill="#38aa85"/>
  <path d="m374 378c8.95-4.46 28.2 1.11 29.9 2.76 36.4 36.7 47.7 45.4 47.7 45.4 0.032 0.26 0.0323 0.422 1e-3 0.487-0.691 1.43-1.53 2.13-2.5 2.09-21.7-0.86-33.3-1.45-34.6-1.77-29.6-7.09-48.7-7.46-54.2-26.9-2.38-8.33 5.94-18.2 13.7-22.1z" fill="#c7c716"/>
  <path d="m318 103c1.25 0.421 1.74 2.53 1.47 6.32-9e-3 0.132 12.1 32.8 1.23 41.2-12 9.28-30.8-4.55-43.6-12.6-15-9.37-43.2-23.5-35.5-39.4 11-23 40.5-7.7 76.4 4.41z" fill="#711cea"/>
  <path d="m29 125c0.318-16.3 24.5-11.1 45.4-10.5 23.9 0.677 37.3 2.65 40.2 5.91 3.27 3.73 1.04 11.8-6.7 24.1-8.83 14.1-15.4 21.2-19.7 21.4-4.95 0.144-15.8-4.73-28.1-20.5-14.1-18-31.4-3.9-31-20.4z" fill="#1c3877"/>
  <path d="m140 291c-19.5-9.27 24.1-46.2 35-54.6 15.9-12.3 14-19.1 24.1-18.3 3.46 0.258 2.63 2.58 7.26 7.47 6.78 7.16 10.5 12.4 11 15.8 0.837 4.93-0.498 11.6-4 20-5.13 12.3-9.31 19.4-12.5 21.4-4.72 2.91-9.09 13.8-16.2 13.7-19.7-0.277-28.4 2.29-44.7-5.45z" fill="#557169"/>
  <path d="m141 411q16.8 0.075 25.4 18.6 5.5 11.9-11.9 29.3-11.2 11.2-16.4 12.4-3.36 0.795-21.4-16.5-11.5-11.1-5.74-31.1 3.7-12.8 30-12.7z" fill="#38c798"/>
  <path d="m88.7 172q7-0.204 17 13.6 10.1 14 8.8 19.2-1.36 5.23-9.8 11.8-8.54 6.66-33-1.48-24.7-8.23-7.45-25.5 17.5-17.5 24.4-17.7z" fill="#1c557e"/>
  <path d="m312 225c1.91-0.195 32.8-10.1 48.7-6.41 8.02 1.86 14.4 7.44 20.6 13.7 6.21 6.22 15.8 17.7 15.5 23.4-0.766 13.1-1.23 19.8-1.4 20.1-0.379 0.649-6.05 0.884-17 0.707-25.2-0.409-84.6 15-82.3 3.91 5.19-25.6 4.64-54.2 15.9-55.4z" fill="#aa7152"/>
  <path d="m200 292c5.24-3.23 14.7 0.535 28.2 11.3 26.3 20.9 36.4 32.2 30.3 34.1-11.9 3.59-28.9 36.5-49.7 44.1-7.1 2.59-17.3 4.78-22.7-0.585-13.4-13.5-4.67-47-0.97-57.1 7.18-19.5 12.1-30.1 14.8-31.8z" fill="#558e5a"/>
  <path d="m351 385c9.68 1.86 5.08 41.1 4.51 47.8-0.183 2.15-9.71 12.7-28.6 31.5-6.06 6.06-11.2 9.39-15.6 10-1.39 0.197-8.35-4.87-20.9-15.2-4.02-3.31-2.96-15.8 3.18-37.5 1.97-6.95 27.2-42.5 57.3-36.7z" fill="#8ec7ba"/>
  <path d="m188 76.4q0.359-1.6 16.9-18.1 3.58-3.58 5.39-4.32 0.392-0.161 28.4 18 6.06 3.94-12.7 50-4.08 9.98-14 11.1-2.14 0.242-21.4-40.5-4.18-8.83-2.52-16.2z" fill="#551cc9"/>
  <path d="m276 164q0.063-1.1 0.355-1.43 0.852-0.972 4.86-3.15 11.7-6.36 27.3-0.027 45.7 18.5 43.7 27.9-5.77 27.4-5.77 27.4-1e-3 0-11.3 1.32-33.1 3.85-34.3 2.94-3.47-2.64-8.91-15.9-15.9-38.7-15.9-39z" fill="#8e5547"/>
  <path d="m110 220c4.01-3.12 47.6-45.8 62.8-31.2 8.33 7.98 14.3 22.7 12.9 27.1-0.731 2.41-43.6 49.1-55.8 60.4-6.68 6.17-15 5.63-25-1.61-5.46-3.97-7.7-14.6-6.73-31.9 0.53-9.48 4.45-17.1 11.8-22.8z" fill="#3871a1"/>
  <path d="m401 282q0.38-0.649 19 7.73 16.2 7.28 36.1 27.7 17.3 17.7 14.7 20.3-2.26 2.26-39.8 2.63-32.6 0.322-38.8-10.4-5.37-9.3 1.91-29.6 6.32-17.7 6.76-18.4z" fill="#c78e87"/>
  <path d="m264 342q8.34-2.52 9.42-2.55 0.482-0.014 8.16 9.08 3.42 4.05 3.78 28.2 0.16 10.8-43.5 25.1-19.5 6.36-22 1.29-1.11-2.26 17.2-39.1 8.18-16.4 26.9-22z" fill="#71aaab"/>
  <path d="m404 248q0.043-0.025 40.8-10.5 7.47-1.93 16.6 23.8 1.67 4.72-20.3 26.7-4.04 4.04-33.5-9.19-5.4-2.43-4.01-26.3 0.255-4.38 0.487-4.52z" fill="#c771ce"/>
  <path d="m71 329c26.5 9.55 39.4 15.2 38.7 16.9-7.43 17.8-3 53.6-23 64.7-10.4 5.79-34-6.04-34.9-7.54-8.85-15.6-7.42-52.6-6.05-54 14.3-14.3 22.7-21 25.2-20.1z" fill="#1caa20"/>
  <path d="m362 423c0.113-1.33 1.26-2.96 3.43-4.9 0.383-0.342 13.7 2.63 40 8.93 4.64 1.11 24.5 27.5 4.59 47.4-3.51 3.51-37.3-19-46.5-35.7-1.63-2.95-2.12-8.19-1.48-15.7z" fill="#aac7cf"/>
  <path d="m304 45.5q18.2 31 18.2 35.4 0.146 15.7-0.299 16.3-1.59 2.14-13.8-1.96-43.6-14.7-44.7-15.7-3.69-3.62 4.86-12.2 30.6-30.6 35.7-21.9z" fill="#8e1c3e"/>
  <path d="m135 131q1.48 0.299 32.6 34.4 4.58 5.01 4.5 8.13-0.012 0.458-45.2 20.1-6.66 2.9-24.2-21.4-2.59-3.57 19.1-38.2 3.19-5.1 13.3-3.07z" fill="#3838d4"/>
  <path d="m436 173c10.9-0.396 18.7 2.09 23.4 7.46 4.74 5.43 5.62 14.4 2.63 26.8-3.02 12.6-5.19 19.5-6.5 20.9-1.33 1.33-9.98 4.06-26 8.18-16.2 4.17-74.7-20.7-69.9-43.6 4.85-23.1 65.6-19.3 76.4-19.7z" fill="#c7557e"/>
  <path d="m225 244c-0.832-4.9 8.15-9.32 26.9-13.3 27.1-5.7 41.3-8.06 42.6-7.1 1.83 1.39 1.03 10.8-2.42 28.1-4.97 25-4.58 60.9-28.1 67.8-14.7 4.32-22.1-14.9-37.8-26.3-22.6-16.5-0.73-45.8-1.31-49.2z" fill="#71716a"/>
  <path d="m49.4 286q8.21-8.21 20.9-9.42 23.3-2.21 31.4 3.71 15 10.9 16.8 24.2 3.27 24.5-0.155 27.6-6.3 5.8-21.7 0.268-28.2-10.2-36.5-21.3-15.2-20.6-10.8-25z" fill="#1c8e5d"/>
  <path d="m335 340c24.5-10 38-15.1 40.7-15.2 3.9-0.121 7.4 2.51 10.5 7.9 4.59 7.95 29.3 18.1 28.4 22.9-1.34 6.96-21.1 11.8-32.6 15-26.3 7.22-65 17.5-81.3 8.62-24-13 17.8-32.4 34.3-39.2z" fill="#aaaa69"/>
  <path d="m169 402q12.7-15.1 21.5-9.71 21.5 13 22.5 15.1 2.54 5.19 2.02 13.3-1.26 19.7-11.8 19.1-25.4-1.27-29.6-10.2-9.96-21.5-4.72-27.7z" fill="#55c74f"/>
  <path d="m199 123q7.16 15.1-13.6 35.6-9.11 8.98-34-18.2-10.9-11.9 18.4-39.7 12.9-12.2 29.2 22.3z" fill="#5538ac"/>
  <path d="m245 407q40.3-13.2 42.3-7.39 3.48 10.2-0.913 25.7-7.77 27.4-22.1 32.1-25.3 8.34-32-0.164-11.9-15-11.2-25.1 1.14-17.8 24-25.2z" fill="#71c75f"/>
 </g>
</svg>
