<?xml version="1.0" encoding="UTF-8"?>
<svg width="512px" height="512px" contentScriptType="text/ecmascript" contentStyleType="text/css" version="1.1" viewBox="0 0 512 512" xmlns="http://www.w3.org/2000/svg">
 <g class="voronoi" stroke-width=".5">
  <path d="m458-37.1 39.9 3.59 31.6 25.6 4.85 5.94-17.3 17.4-55.1-29.8z" fill="#e3e3c9"/>
  <path d="m317 21.9s33.5 1.55 38.1 14.5c4.96 13.8-16.8 27.3-29.7 27.7-12.6 0.365-20.6-25.6-20.6-25.6-2.95-16.7-4.52-17.1 12.1-16.6z" fill="#8e002a"/>
  <path d="m-13.2 126 13.2 3.6s7.29 3.81 8.7 8.82c1.98 7.04-8.7 11.2-8.7 11.2l-10.9 11.6-25.6 20.8-12.6-8.24-3.62-33.7z" fill="#e3388e"/>
  <path d="m27.5 423c6.04-2.19 56.3 16.1 58.3 26.2 2.98 15.1-24.6 30.1-24.6 30.1l-9.71 3.23-21.7-32.9s-10.7-23.6-2.3-26.6z" fill="#00c71c"/>
  <path d="m460 429 71-9.47 2.17 0.445 0.978 25.5-21.8 22.3s-4.76 3.81-7.33 4.55c-15 4.37-33.5 2.2-43.9-9.46-7.53-8.44-2.27-30.8-2.27-30.8z" fill="#e3c7ec"/>
  <path d="m445-14.3 30.2 14 0.43 0.334s25 12.9 27.1 27.3c0.941 6.64 4.83 15.1 1.1 21.1-4.69 7.5-16.3 11.6-24.4 10.4-11.6-1.79-19.3-29.5-19.3-29.5l-10.2-29.3z" fill="#e3006f"/>
  <path d="m33.1 462c9.15 5.35 13.4 21.8 7.76 30.8-4.37 7.02-17.1 9.27-24.3 5.18-8.83-5.03-14.5-19.9-9.74-28.9 4.26-8 18.4-11.7 26.2-7.15z" fill="#00e358"/>
  <path d="m463 477c4.36-5.25 30.3 3.07 30.3 3.07l18.3 9.69 17.3 14 4.85 5.94-17.3 17.4-28.7-15.5s-19.5-9.28-24.3-18.1c-3.25-5.99-5.49-10.7-0.564-16.6z" fill="#e3e3c9"/>
  <path d="m111 30c2.05-5.48 6.21-10.9 11.6-13.2 7.56-3.25 16.8-1.33 24.7 0.928 16.9 4.87 39.8 33.3 36.6 45.7-13.5 10.9-48.2-5.06-48.2-5.06s-19.9-7.95-24.5-16.7c-1.83-3.43-1.42-8.03-0.053-11.7z" fill="#3800b4"/>
  <path d="m-41.1 70.8 11-5.22 42.6 33.1s6.63 10.2 1.6 16.4c-4.09 5.03-14.1 4.81-14.1 4.81l-31.6-2.72-23.3-10.1 3-20.3z" fill="#e31caf"/>
  <path d="m533 148 16.4 59.2-1.36 0.59-14-1.31-22.2-14.1s-10.6-5.95-10.9-14.1c-0.326-8.58 10.9-14.4 10.9-14.4z" fill="#005528"/>
  <path d="m-12.9 332 24.8 6.79s43.8 13.8 44.5 32.1c0.511 12.5-16.5 22.6-28.4 24.3-10.1 1.44-21-22.1-21-22.1l-7.06-14.6z" fill="#00aa73"/>
  <path d="m479 343s7.57-1.34 11.4-0.262c13 3.63 21.3 29 21.3 29l14.3 22.1 5.66 18.3-20 3.06s-32.3 7.76-45 2.98c-6.26-2.35-6.76-5.62-8.12-12.2-3.23-15.5-4.35-24.3-0.647-35.5 3.61-11 21.1-27.5 21.1-27.5z" fill="#e3aac9"/>
  <path d="m167 457c9.06-1.42 22.4-3.47 25.5 10.4 1.68 7.61-25.1 44.3-25.1 44.3l-9.94 11.9-28.6-3.55 1.37-8.35s4.66-23.4 10-32.3c6.85-11.3 15.3-20.5 26.7-22.3z" fill="#38e3df"/>
  <path d="m393 543 7.56-20.8 16.7-10.6s6.41-5.34 10.7-4.41c2.75 0.592 5.04 4.41 5.04 4.41l27.3 41.5-0.753 28.4-48.8-24.7z" fill="#c700b4"/>
  <path d="m-18 59.4 18-9.57s18.7-5.14 26.3-0.89c10.3 5.71 15.6 13.9 17.8 23.5 2.76 12.1-7.42 36.6-7.42 36.6l-1.82 1.62-11.2-7.47-23.7-24.9z" fill="#001c34"/>
  <path d="m465 71.1c2.77-3.49 7.58-7.09 11.6-6.66 12.7 1.38 35.6 24.6 35.6 24.6l12.5 9.69 6.92 22.9-19.4-1.67s-21.9-0.0101-32.4-2.72c-7.97-2.06-19.8-2.1-23.7-9.32-3.28-6 4.21-21.1 4.21-21.1s1.32-11.4 4.72-15.7z" fill="#e31caf"/>
  <path d="m506 338c2.84-3.42 6.37-3.25 6.37-3.25l12 3.27 32.6 24.3-4.04 26.2-33.4-16.2-7.06-14.6s-12.7-12.2-6.37-19.8z" fill="#00aa73"/>
  <path d="m452 502c8.23-7.46 23.3 9.39 23.3 9.39l0.43 0.334 34.6 26.9-11.8 16.3-19 15.6-19.3-29.5-10.2-29.3s-1.77-6.34 1.97-9.73z" fill="#e3006f"/>
  <path d="m86.9-50 14.6-13.7 19.3 17.6 5.01 36.9-4.68 9.17s-5.51 8.5-11.2 9.78c-8.29 1.88-17-9.78-17-9.78l-12.5-9.53z" fill="#1ce39d"/>
  <path d="m361-16.4 23.1 4.88 13.1 13.8-11.2 25.7-19.1 1.93s-25.5 1.43-28.9-12.5c-2.06-8.31 6.05-17.4 6.05-17.4z" fill="#aa0016"/>
  <path d="m48.9 115c-7.65 5.15-31 1.5-35.1 9.86-1.25 3.38 5.9 12 8.82 18 9.47 19.5 9.38 48.9 28.1 58.6 13.8 7.15 33-13.2 33-13.2 8.51-3.02 9.22-18 12.1-27.6 2.52-8.48 4.35-12.4 4.38-26.2 0.0293-12.1-10.2-18.5-30.8-19.1-9.01-0.255-15.8-0.367-20.5-0.336z" fill="#0e38a9"/>
  <path d="m499 126 28.2 7.71-15 16s-7.42 7.61-10.9 11.6c-6.31 7.16-7.23 21.5-18.2 22.1-5 0.258-17.6-5.12-19.9-9.55-7.85-14.8-11.1-38.2 0.721-50.2 9.35-9.48 35.1 2.38 35.1 2.38z" fill="#e3388e"/>
  <path d="m144-36 38.5 18.1-15 17.9s-7.52 11.7-12.4 13.5c-8.06 3.06-16.9-0.697-23.2-5.46-2.44-1.85-1.64-8.07-1.64-8.07l5.04-30.8z" fill="#38e3df"/>
  <path d="m8.96 20.5s9-13.3 14.5-10.4c4.85 2.55 2.16 17.2 2.16 17.2s1.75 13.2-2.94 15.9c-6.27 3.56-20.3-7.51-20.3-7.51-3.93-1.46 2.79-12.8 6.58-15.1z" fill="#e3006f"/>
  <path d="m395 30.8c-2.05-7.1 3.46-12.2 7.62-17.8 3.94-5.31 14.7-13 14.7-13l11.1-7.05 31.9 48.6s7.38 23.6-0.753 28.4c-15.6 9.33-48.8-24.7-48.8-24.7s-13.8-7.24-15.8-14.5z" fill="#c700b4"/>
  <path d="m-54.2 475 39.9 3.59 31.6 25.6 4.85 5.94-17.3 17.4-55.1-29.8z" fill="#e3e3c9"/>
  <path d="m417 433c10.5-4.08 26-6.6 33.9 1.52 7.99 8.25 0.463 34.4 0.463 34.4s-4.56 13.2-8.5 18.9c-1.66 2.38-6.21 6.11-6.21 6.11s-21.9 16.4-34 14.2c-6.37-1.14-10.9-7.65-14.2-13.2-4.67-7.99-9.04-18.1-6.53-27 4.48-15.9 19.7-28.9 35.1-34.9z" fill="#c7e30d"/>
  <path d="m29.9 0.189 0.149-0.189 2.32-2.94 20.7-20 11.7 3.96 38.6 44.3-6 9.46s-37 28.5-53.9 20.4c-17.7-8.45-13.6-55-13.6-55z" fill="#1c0024"/>
  <path d="m21 155c1.39 12.6 16.8 26.6 16.5 51.7-0.0051 0.494-7.96 0.847-7.96 0.847l-7.4-1.57-42.8-27.2 20.6-15.4s20.1-17.1 21-8.29z" fill="#005528"/>
  <path d="m-32.7 343 10.8-5.21 36.2 56 5.66 18.3-60.2 9.24-12.9 1.37 13.5-62.4z" fill="#e3aac9"/>
  <path d="m86.9 462s7.9-13.7 14.6-13.7c8.71-0.061 24.6 15.1 28.7 27.7 2.85 8.61-4.44 26.9-4.44 26.9l-12.6 24.7-20.3-15.5s-12.1-8.82-14-13.7c-5.07-12.7 8-36.4 8-36.4z" fill="#1ce39d"/>
  <path d="m368 497c7.56-2.17 11.4 0.849 16.3 3.57 4.62 2.6 11 11.5 11 11.5l2.15 2.25-11.2 25.7-19.1 1.93-41.4-12 18.5-17.8s16.2-12.9 23.8-15.1z" fill="#aa0016"/>
  <path d="m-54.2-37.1 39.9 3.59 31.6 25.6 4.85 5.94-17.3 17.4-55.1-29.8z" fill="#e3e3c9"/>
  <path d="m502 61.4c1.09-6.72 10.4-11.5 10.4-11.5l10.4-5.52 33.8 35.2-7.42 29.5-1.82 1.62-11.2-7.47-23.7-24.9s-11.8-8.36-10.4-17z" fill="#001c34"/>
  <path d="m-52.4 429 71-9.47 2.17 0.445 0.978 25.5-27.4 28-46.2-7.54-1.61-33.9z" fill="#e3c7ec"/>
  <path d="m29.9 512 0.149-0.189 2.32-2.94s11.4-17.9 20.7-20c4.01-0.899 11.7 3.96 11.7 3.96l38.6 44.3-6 9.46-27.5 2.24z" fill="#1c0024"/>
  <path d="m153 68.1q29.5 7.39 25.5 25.1-3.5 15.6-12.2 22.3-7.68 5.9-29.4-2.93-19.1-7.77-18.2-31.7 0.761-21.1 34.3-12.7z" fill="#381c86"/>
  <path d="m433 110q17.6-1.75 20.2 2.66 3.1 5.19 1.04 26.9-2.43 25.5-24.7 26.3-26.1 0.949-19.4-24.5 7.86-29.9 22.8-31.4z" fill="#c73876"/>
  <path d="m218 174q10-11.2 30.6-10.3 31.1 1.36 31.5 1.56 0.593 0.296 1.55 3.26 1.44 4.48-5.48 22.3-10.5 26.8-27.4 21.2-25.6-8.53-30.3-17.3-7.05-13.3-0.395-20.7z" fill="#715568"/>
  <path d="m370 300q13 4.57 12.8 7.04-0.061 0.681-33 37.5-9.07 10.1-27.9-12.7-5.19-6.28-0.56-39.4 1.28-9.11 48.6 7.49z" fill="#aa8e29"/>
  <path d="m194 345q18.7-18 21.6-11.1 21.3 49.9 19 51-16.4 7.5-19 6.01-18.6-10.9-20-13.4-9.76-18.3-9.1-19.7 4.84-10.2 7.41-12.7z" fill="#55aa28"/>
  <g>
   <path d="m294 178c11.7-3.05 30.9 19.1 30.9 19.1 1.4 1.99 1.93 3.37 1.57 4.13-16.7 36.2-12.5 43-30.5 51.6-6.72 3.19-16.9 2.04-22.1-3.31-6.86-7.11-3.58-28.8-3.34-29.4 11.4-29.1 7.89-38 23.4-42.1z" fill="#8e55bd"/>
   <path d="m112 232q13.6-13.7 15.1-14 23.1-4.93 24-3.53 13 20.6 13.3 23 3.78 36.3 2.18 37.3-23.4 14.6-24.6 14.9-17.1 4.39-18.4 2.79-18.8-23.5-18.4-25.8 5.82-33.6 6.75-34.6z" fill="#3871e2"/>
   <path d="m217 324q4.83-6.9 13.9 2.85 27.5 29.6 27.4 35.2-0.178 16.9-4.76 17.9-13.9 3.13-19.9-10.9-18.2-42.7-16.6-45z" fill="#71aac0"/>
   <path d="m36.3 404q21.4-21.4 31.2-22.4 38.2-3.96 39.2 0.601 3.92 17.9 1.52 26.2-9.45 32.7-9.85 32.8-1.56 0.465-15.3-4.44-53.8-19.3-53.9-19.4-0.348-0.552 0.063-2.04 1.61-5.86 7.07-11.3z" fill="#1cc7dd"/>
   <path d="m371 36.5c9.43-1.33 14.2-1.67 14.5-1 0.789 2.51 0.731 7.45-0.174 14.8-3.42 27.8-7.37 43.2-11.8 46-16.9 10.7-17.5 14.6-28.2 15.6-4.24 0.384-11.3-2.64-12.1-4.05-3.25-5.33-4.89-9.64-4.92-12.9-0.115-12.4 2.56-21.4 8.04-26.8 20.7-20.7 32.3-31.2 34.8-31.6z" fill="#aa1cbc"/>
  </g>
  <path d="m342 208c8.15-2.68 19.8 0.503 24.8 6.95 4.98 6.44 9.1 18.3 0.436 23.1-32.8 18.2-50 26.8-51.6 25.8-6.08-3.75-7.34-9.49-3.77-17.2 13.5-29.3 14.6-33.5 30.1-38.6z" fill="#8e713c"/>
  <path d="m128 301c11.1-2.84 17.8-2.83 20.3 0.029 24.6 28.7 36.7 43.3 36.4 44-3.34 7.04-6.87 10.6-10.6 10.8-37.3 1.43-35.4 4.38-49.2-4.51-4.98-3.19-9.55-13.1-8.85-15.4 6.94-23 11-34.7 12.1-35z" fill="#388e76"/>
  <path d="m229 395q11.9-5.45 18.6-6.95 11.8-2.65 23.2 4.33 20.2 12.3 15.4 29.3-8.51 30-22.8 34.8-25.3 8.34-32-0.164-11.9-15-10.9-30.6 1.77-27.6 8.53-30.7z" fill="#71c75f"/>
  <path d="m225 302c1.02-5.59 4.15-10.3 9.39-14.2 4.26-3.17 9.96-1.81 14.3 0.201 7.16 3.34 0.54 2.5 15.5 18 12.1 12.6 14 23.8 5.68 33.7-6.79 8.04-16.9 4.83-30.3-9.64-10.9-11.8-15.7-21.1-14.5-28z" fill="#718e8b"/>
  <path d="m64.2 60.6q12.4-12.4 25.1-16 12.9-3.63 18.1 4.78 5.29 8.59 4.49 30.9-0.821 22.8-5.65 26-4.93 3.32-33.5 2.51-29.2-0.827-25-18.2 4.34-17.8 16.5-30z" fill="#1c1c7e"/>
  <path d="m374 104c6.04-3.82 16.1-2.53 30.2 3.89 5.55 2.53 10.2 1.13 3.2 27.6-2.74 10.4-2.31 23.9-11.6 27.6-6.84 2.72-6.83 0.392-20.2-8.96-5.26-3.68-11.9-12.7-19.9-27.1-3.15-5.66 2.94-13.3 18.3-23.1z" fill="#aa38b1"/>
  <path d="m167 190q1.39-2.31 34.4-5.67 4.23-0.429 14.6 19.1 1.33 2.5-6.19 23.3-0.964 2.67-35.4 3.18-4.41 0.066-16.8-19.4-1.58-2.49 9.27-20.6z" fill="#5555d8"/>
  <path d="m272 258c0.985-0.817 10.1 0.521 27.4 4.01 0.968 0.195 5.09 2.54 12.4 7.02 0.407 0.251 1.94 3.79 4.61 10.6 0.149 0.381 4.53 31.2-5.37 40.5-5.72 5.4-8.05 2.09-23.5 1.79-0.866-0.0173-32.8-25.4-32.4-43.5 0.218-8.83-0.735-5.86 16.9-20.5z" fill="#8e8ee6"/>
  <path d="m415 53.6q40.4 25 38.1 33.6-4.26 16-15.6 17.2-21.2 2.1-31.5-2.58-19.2-8.73-16.9-27.2 4.22-34.4 25.9-21z" fill="#c71c5c"/>
  <path d="m269 137q10.7 23.3-21.4 21.9-19.5-0.855-25.2-16.6-3.45-9.58 16.7-30.8 12.3-12.9 29.9 25.5z" fill="#71389b"/>
  <path d="m378 236c3.18-1.76 9.57 1.92 19.2 11 0.798 0.757 2.74 19 0.663 28.1-1.9 8.35-3.91 9.13-11.6 22.9-0.642 1.14-12.2 2.08-49.4-10.9-3.09-1.08-13.4-5.75-13.4-11.7 0.118-12.6 16.3-18.2 54.5-39.5z" fill="#aa71e0"/>
  <path d="m167 283q6.83-4.25 40.7 6.27 12.7 3.95 10.2 17.6-0.93 5.11-5.6 11.8-1.75 2.51-17.2 17.4-5.8 5.59-35.3-28.8-11.1-12.9 7.13-24.2z" fill="#558eb3"/>
  <path d="m329 392q9.87-4.42 12.2-2.8 0.751 0.522 12.3 21.3 3.7 6.66 2.57 19.9-0.362 4.26-28.7 32.6-9.08 9.08-15.6 10-2.08 0.295-20.9-15.2-6.03-4.97 4.06-40.6 3.24-11.4 34-25.2z" fill="#8ec7ba"/>
  <path d="m205 235q5.13-0.077 27.8 37.4 3.45 5.71-8.92 14.9-1.89 1.4-42.3-11.2-6.16-1.91-9.67-35.5-0.534-5.12 33.1-5.63z" fill="#557129"/>
  <path d="m297 330q15.2 0.293 24.3 11.4 14.9 18 15.1 26 0.452 13-15 19.9-25.1 11.3-37.2 3.89-19.6-12-19.5-20.5 0.146-13.9 8.81-24.2 14.1-16.7 23.4-16.5z" fill="#8eaa64"/>
  <path d="m144 411c11.2 3.54 15 19.1 19.8 29.3 3.04 6.55 1.35 4.92-10.3 16.5-7.44 7.44-11.3 13.7-14.8 14.5-2.24 0.53-9.36-4.98-21.4-16.5-7.68-7.39-9.11-19.4-4.3-36.1 3.09-10.7 13.4-13.2 31-7.72z" fill="#38c798"/>
  <path d="m105 118c6.21-4.18 7.3-6.65 11.9-6.98 13.9-1.02 38.9 14.9 38.8 15.7-2.1 17.9 0.735 20-5.3 26.8-11.1 12.5-47.6 33.6-47.6 15.6 0.0593-24.8-1.82-48.4 2.2-51.1z" fill="#383817"/>
  <path d="m254 221q10.8 3.61 13.7 25.3 0.961 7.4-19.8 24.6-7.09 5.88-7.79 6.08-0.24 0.07-19.7-32.1-6.63-11-0.302-28.5 2.16-5.97 34 4.6z" fill="#7171b7"/>
  <path d="m48.9 286q8.21-8.21 23.3-9.64 27.7-2.63 34.8 6.21 13 16.3 8.98 29.6-7.42 24.6-21.7 19.5-26.3-9.46-34.5-20.6-15.2-20.6-10.8-25z" fill="#1c8e9e"/>
  <path d="m401 329q14.6 15.7 6.19 29.9-7.72 13-35.1 18.2-25.2 4.75-26.8 3.63-1.48-1.03-1.86-11.9-0.35-10 21.6-34.5 20.1-22.5 36-5.33z" fill="#aaaa84"/>
 </g>
</svg>
