<?xml version="1.0" encoding="UTF-8"?>
<svg width="512px" height="512px" contentScriptType="text/ecmascript" contentStyleType="text/css" version="1.1" viewBox="0 0 512 512" xmlns="http://www.w3.org/2000/svg">
 <g class="voronoi" stroke-width=".5">
  <path d="m458-37.1 39.9 3.59 31.6 25.6 4.85 5.94-17.3 17.4-55.1-29.8z" fill="#e3e3c9"/>
  <path d="m313 27.5c-4.79 0.275-10.4 0.378-13.9 3.68-2.87 2.72-3.63 11.3-3.63 11.3s1.79 9.99 4 14.5c8.93 18.2 18.5 27.2 36.5 48.7 11.7 3.19 11.6 0.649 35.1-9.98 6.2-2.81 11-18.1 14.4-45.9 0.903-7.35 3.15-8.48 0.756-11.5-3.17-3.96-5.53-1.85-15-2.32-19.5-0.966-38.6-9.54-58.1-8.42z" fill="#9c0ed0"/>
  <path d="m-13.2 126 13.2 3.6s7.78 2.06 9.19 7.07c1.98 7.04-9.19 13-9.19 13l-10.9 11.6-25.6 20.8-12.6-8.24-3.62-33.7z" fill="#e3388e"/>
  <path d="m70.3 382c-2.28-0.0151-4.78 0.118-7.49 0.398-3.68 0.381-12.7 7.71-26.9 22-10 11.8-13.1 36.9-8.51 50.4 5.96 15.1 35.7 31 35.7 31s10.3-0.73 16.8-5.69c9.66-11.6 17-33.8 20.8-46.8 0.399-1.38-3.85-15.7-12.7-42.8-1.84-5.62-7.71-8.46-17.6-8.53z" fill="#0ec7f0"/>
  <path d="m460 429 71-9.47 2.17 0.445 0.978 25.5-27.4 28-46.2-7.54-1.61-33.9z" fill="#e3c7ec"/>
  <path d="m4.93 27.5c-0.0464-7.17 6.66-15.1 13.7-16.6 13-2.79 28.5 6.56 35.8 17.7 5.6 8.59 9.63 24.6 1.38 30.7-10.2 7.53-25.3-6.45-35.6-13.8-6.57-4.72-15.2-10.1-15.2-18z" fill="#00009c"/>
  <path d="m445-14.3 30.2 14 0.43 0.334s28.8 8.88 30.9 23.3c0.941 6.64-8.11 19.8-8.11 19.8s-11.4 15.2-19.5 14c-11.6-1.79-18.8-27.9-18.8-27.9l-10.2-29.3z" fill="#e3006f"/>
  <path d="m460 477c9.04-9.85 37.2 1.44 37.2 1.44l31.6 25.6 4.85 5.94-17.3 17.4-55.1-29.8s-6.53-14.9-1.32-20.6z" fill="#e3e3c9"/>
  <path d="m111 30c2.05-5.48 6.21-10.9 11.6-13.2 7.56-3.25 16.8-1.39 24.7 0.928 7.92 2.33 17.7 5.2 21.3 12.6 4.96 10.1 4.96 26.8-4.09 33.4-7.91 5.78-37 0.532-46.1-3.2-9.14-3.77-2.72-10.2-7.37-18.9-1.83-3.43-1.42-8.03-0.053-11.7z" fill="#3800b4"/>
  <path d="m-41.1 70.8 11-5.22 42.6 33.1s6.21 9.98 1.19 16.2c-4.09 5.03-13.7 5.05-13.7 5.05l-31.6-2.72-23.3-10.1 3-20.3z" fill="#e31caf"/>
  <path d="m533 148 16.4 59.2-1.36 0.59-14-1.31-22.2-14.1s-12-5.16-12.3-13.3c-0.326-8.58 12.3-15.2 12.3-15.2z" fill="#005528"/>
  <path d="m-12.9 332 12.9 3.52s8.32 1.3 12 3.27c15.6 8.46 35.7 22.4 39.7 35.4 3.98 12.9-12.4 23.1-20.3 27.2-11 5.75-24.3-28.3-24.3-28.3l-7.06-14.6z" fill="#00aa73"/>
  <path d="m479 343s6.93-6.28 10.8-5.21c13 3.63 21.9 33.9 21.9 33.9l14.3 22.1 5.66 18.3-60.2 9.24s-12.1-3.69-13.7-10.6c-3.52-15.7 14.4-50.4 14.4-50.4z" fill="#e3aac9"/>
  <path d="m150 476c11.6-0.216 21.6 2.89 24.6 16.7 1.68 7.61-7 19.1-7 19.1l-9.94 11.9-28.6-3.55 1.37-8.35s1.8-21.1 7.62-29.7c1.89-2.8 8.53-6.04 11.9-6.11z" fill="#38e3df"/>
  <path d="m393 543 7.56-20.8 16.7-10.6s4.76-5 9.05-4.08c2.75 0.592 6.69 4.08 6.69 4.08l27.3 41.5-0.753 28.4-48.8-24.7z" fill="#c700b4"/>
  <path d="m-18 59.4 18-9.57s9.35-3.41 13.2-2.79c16.1 2.58 26.8 16.8 30.9 32.5 2.59 9.79-2.73 20.5-2.73 20.5s-3.87 16.8-7.91 17.7c-4.38 0.956-12.4-16.5-16-21-7.17-8.93-17.5-18.4-17.5-18.4z" fill="#001c34"/>
  <path d="m476 65.2c12.7 1.38 35.7 23.8 35.7 23.8l12.5 9.69 6.92 22.9-51-4.39s-19.2-2.73-23.3-10.1c-3.32-5.98 3-20.3 3-20.3 0.807-5.46 12.9-21.8 16.1-21.6z" fill="#e31caf"/>
  <path d="m507 340c2.84-3.42 4.98-4.86 4.98-4.86l12 3.27 32.6 24.3-4.04 26.2-33.4-16.2-7.06-14.6s-11.3-10.6-4.98-18.2z" fill="#00aa73"/>
  <path d="m187 445c10.7-1.87 23.3 0.345 31.7 7.13 7.03 5.64 12.6 15.5 11.5 24.5-0.969 8.31-7.71 16.9-15.6 19.6-11 3.8-34-8.15-34-8.15s-21.8-18.2-20.9-25.7c1.45-12.3 16.7-15.6 27.4-17.4z" fill="#55e345"/>
  <path d="m452 502c8.23-7.46 23.1 10.1 23.1 10.1l0.43 0.334 34.6 26.9-11.8 16.3-19 15.6-19.3-29.5-10.2-29.3s-1.57-7.07 2.18-10.5z" fill="#e3006f"/>
  <path d="m86.9-50 14.6-13.7 19.3 17.6 5.01 36.9-4.68 9.17s-5.99 7.36-11.6 8.64c-8.29 1.88-16.5-8.64-16.5-8.64l-12.5-9.53z" fill="#1ce39d"/>
  <path d="m361-16.4 23.1 4.88 13.1 13.8s-3.66 20.2-11.2 25.7c-5.17 3.77-19.1 1.93-19.1 1.93s-30.9 3.55-34.3-10.4c-2.06-8.31 11.4-19.5 11.4-19.5z" fill="#aa0016"/>
  <path d="m58.7 145s-17.6-22.5-23.8-22.2c-5.63 0.259-9.37 12.5-9.37 12.5-4.54 11.2-15.4 20.5-25.6 28.5l-20.6 15.4 20.6 13.1s14.4 10.5 22.7 13.4c4.43 1.52 13.5 2.06 13.5 2.06 9.82 0.92 14.7-13.1 22.4-19.2 0 0 14.1-9.89 14.2-25.1 0.0077-7.76-14.1-18.5-14.1-18.5z" fill="#005528"/>
  <path d="m499 126 28.2 7.71-26 27.6s-14.6 20.2-25.6 20.8c-5 0.258-12.6-8.24-12.6-8.24s-10.3-37.2 0.896-48.9c8.95-9.38 35 1.03 35 1.03z" fill="#e3388e"/>
  <path d="m144-36 38.5 18.1-15 17.9s-5.14 10-9.94 11.9c-8.93 3.52-19.3 4.43-25.1-3.26-1.69-2.26-2.12-8.64-2.12-8.64l5.04-30.8z" fill="#38e3df"/>
  <path d="m394 28c-2.05-7.1 6.6-17.4 6.6-17.4l27.8-17.7 31.9 48.6s9.03 21.7 0.895 26.6c-15.6 9.33-50.4-22.9-50.4-22.9s-14.7-10-16.8-17.2z" fill="#c700b4"/>
  <path d="m-54.2 475 39.9 3.59 31.6 25.6 4.85 5.94-17.3 17.4-55.1-29.8z" fill="#e3e3c9"/>
  <path d="m417 433c10.5-4.08 16.6-4.89 24.5 3.23 7.99 8.25 9.87 32.7 9.87 32.7s4.13 16.2 0.191 21.9c-1.66 2.38-2.65 7.51-10.9 10.1-8.29 2.56-37.9 7.19-37.9 7.19l-14.2-13.2s-9.04-18.1-6.53-27c4.48-15.9 19.7-28.9 35.1-34.9z" fill="#c7e30d"/>
  <path d="m29.9 0.189 0.149-0.189 2.32-2.94 20.7-20 11.7 3.96 16.6 19s18 16.5 18.9 27.7c0.284 3.72-4.1 7.12-6.22 8.52-6.79 4.46-12.2 0.818-20.9-2.17-17.1-5.89-43.2-33.8-43.2-33.8z" fill="#1c0024"/>
  <path d="m-32.7 343 10.8-5.21 36.2 56s7.81 8.67 4.42 14.1c-3.57 5.71-18.7 7.28-18.7 7.28l-40.3 6.18-12.9 1.37 13.5-62.4z" fill="#e3aac9"/>
  <path d="m93.4 466s3.07-9.22 9.55-10.6c8.53-1.78 17.8 10.1 17.8 10.1l5.01 36.9-12.6 24.7-20.3-15.5s-12.6-10-14.1-15c-3.62-12.3 14.6-30.6 14.6-30.6z" fill="#1ce39d"/>
  <path d="m366 499s11.6-2.01 18.4 1.82c4.63 2.58 11 11.5 11 11.5l2.15 2.25-11.2 25.7-19.1 1.93-41.4-12 18.5-17.8s13.9-15 21.6-13.3z" fill="#aa0016"/>
  <path d="m-54.2-37.1 39.9 3.59 31.6 25.6 4.85 5.94-1.93 1.95s-6.18 11.5-13.4 12.6c-1.83 0.271-6.89 0.29-6.89 0.29l-50.2-27.1z" fill="#e3e3c9"/>
  <path d="m501 62.2c1.09-6.72 11.5-12.3 11.5-12.3l10.4-5.52 33.8 35.2-7.42 29.5-1.82 1.62-11.2-7.47-23.7-24.9s-12.9-7.54-11.5-16.1z" fill="#001c34"/>
  <path d="m-52.4 429 52.4-6.99s14.3-1.94 19.8 1.15c2.67 1.52 2.48 4.84 2.48 4.84s2.57 9.52-0.49 17.5c-3.73 9.68-21.8 22.3-21.8 22.3l-5.6 5.73-46.2-7.54-1.61-33.9z" fill="#e3c7ec"/>
  <path d="m29.9 512 0.149-0.189c-21.7-19.9-34.7-26.4-22-44.1 13.7-15.5 56.8 25.1 56.8 25.1l38.6 44.3-6 9.46-27.5 2.24z" fill="#1c0024"/>
  <path d="m152 68.5q29.5 7.39 24.5 29.5-4.37 19.4-28.4 22.8-21.2 2.96-26.7-3.3-4.83-5.5-3.84-33.1 0.875-24.3 34.4-15.9z" fill="#381c86"/>
  <path d="m429 110c14.3-1.42 22.4-0.663 24.1 2.28 2.07 3.46 2.42 12.4 1.04 26.9-1.62 17-10.1 25.8-25.5 26.4-18.1 0.657-37.9 7.35-22.9-24.2 3.32-19.7 11.1-30.2 23.2-31.4z" fill="#c73876"/>
  <path d="m262 193c-17.9 1.1-40.1 28.5-44.3 30.6-3.46 1.73-12.8 6.22-14.5 12.3-1.85 6.68 2.86 13.9 6.64 19.7 2.28 3.5 5.31 7.07 9.25 8.47 11.9 4.22 12.2 7.05 37.7-2.18 14.9-5.39 19.4-17.6 22.4-32.6 3.61-18.3 3.47-20.2-1.62-28.1-3.18-4.93-9.74-8.52-15.6-8.16z" fill="#716319"/>
  <path d="m401 298c8.95 7.2 14.4 28.4 4.45 34.2-13.9 8-32 7.3-42.7-2.14-7.18-6.35-10.8-20.7-4.94-28.3 8.81-11.4 31.9-12.8 43.2-3.73z" fill="#aa8edc"/>
  <path d="m209 265c-1.5 0.152-12.5 12.8-32.9 37.9-3.79 4.67-7.87 13.5-12.2 26.4-0.0112 0.0331-8e-3 0.0664-0.0137 0.0996-5.61 11.6-7.61 19.7-6.39 30.8 2.12 18.8 10.3 29.9 24.4 33.4 21.8 5.36 34.4 5.41 37.8 0.168 11.8-14.6 2.88-43.1 2.35-64.6-0.404-16.7-0.3-17.6-4.24-49.8-1.48-6.22-4.82-11.4-8.84-14.3z" fill="#559c63"/>
  <path d="m63.9 60.2q12.4-12.4 25.1-16 12.9-3.63 18.1 4.78 5.29 8.59 4.37 34.3-0.945 26.2-34.3 25.3-34-0.963-29.8-18.4 4.34-17.8 16.5-30z" fill="#1c1c7e"/>
  <path d="m381 98c-16.1-1.07-44.2 20.1-44.2 20.1-1.52 7.24-3.62 25.5-4.1 30.5 0.12 14.6 0.0533 19.6-5.15 31.8-0.301 0.657 13.9 32.2 28.5 39.4 8.9 4.4 6.92 2.96 29.8-0.822 0.809-0.134 4.59-24.4 7.45-51.5 5.18-14.9 7.81-38.6 10.2-55.5-14.8-9.43-13.6-13.4-22.4-14z" fill="#aa4721"/>
  <path d="m188 184q3.47-7.2 23.7-10.4 30.9-4.85 35-0.378 6.34 6.85 7.57 9.52 1.88 4.09-15.9 18.2-27.2 21.6-32.5 23.4-8.11 2.86-14.6-1.03-9.93-5.96-8.19-17.3 2.67-17.4 4.94-22.1z" fill="#555567"/>
  <path d="m288 312q2.35-5.48 17.7-11.2 30-11.2 35.3-7.95 10.5 6.26 10.6 19.2 0.248 25.2-3.6 33.8-7.51 16.9-23 7.38-30.2-18.5-32.9-25.2-5.33-13.2-4.13-16z" fill="#8e8e5a"/>
  <path d="m98.8 365q16-20.7 17.5-21.4 2.79-1.41 13.2-1.13 20.6 0.547 22.4 16.2 3.49 30.9 2.78 33-1.41 4.16-16.8 14.5-30.4 20.4-36.1 3.28-11.1-34-3.01-44.4z" fill="#38aa59"/>
  <path d="m287 51.4c-3.73 0.544-17.9 18.2-25.4 28.4-3.87 5.24-9.11 13.1-10.1 16.7-2.11 7.7-1.03 12.8 2.66 17.4 9.26 11.5 26.7 13.8 41.3 15.8 10.9 1.45 24.7 4.16 32.7-3.28 2.73-2.52 2.14-10.7 1.97-11-6.38-9.16-14.1-17.5-14.4-27.8-6.54-10.2-23.8-37-28.8-36.3z" fill="#801c16"/>
  <path d="m42.7 115c4.9-9.63 11.4-0.655 32.4-0.062 23.9 0.677 37.5 2.85 40.7 6.51 3.67 4.18 4.49 10.1 2.45 17.7-2.32 8.66-4.91 15.1-7.76 19.4-3.25 4.89-8.65 7.44-16.2 7.66-8.6 0.25-19.1-7.52-31.4-23.3-14.1-18-25.5-17.6-20.2-27.9z" fill="#1c3877"/>
  <path d="m180 224c-16.7 8.16-38.1 1.9-53.5 11.7-6.5 4.12-10.7 11.4-14.1 18.3-5.97 12.2-15.1 27.3-10.3 39.4 11.4 28.4 20.2 42.7 26.3 42.8 14.5 0.385 22.3 0.201 23.4-0.551 0.326-0.234 0.562-0.615 0.721-1.12 0.367-0.397 5.87-7.89 7.79-13.6 10.7-24.7 31.1-44.4 41.2-56.8 3.09-3.8 1.33-13.2-5.26-28.3-4.85-5.14-11-14.5-16.3-11.9z" fill="#5571db"/>
  <path d="m318 355c14.8 9.09 23.3 17.4 25.6 24.9 2.11 7.11 1.85 9.4-0.606 13-4.87 7.09-5.86 3.74-23.6 10.4-16.9 6.29-28.5 5.54-35-2.25-6.13-7.39-5.88-19.5 0.764-36.4 6.3-16 17.3-19.2 32.9-9.61z" fill="#8eaa82"/>
  <path d="m136 415q17.9-12 28.8 11.6 7.01 15.1-10.4 32.6-11.2 11.2-16.4 12.4-3.36 0.795-21.4-16.5-11.5-11.1-9.72-17.3 1.15-3.98 29.1-22.7z" fill="#38c72d"/>
  <path d="m206 127q35.7 1.39 36.2 15.3 0.82 21.3-19.4 24.4-30.9 4.85-34.6-13.2-5.65-27.5 17.8-26.6z" fill="#553867"/>
  <path d="m282 235q0.851-1.32 43.1 9.61 8.95 2.32 8.65 32.5-0.064 6.39-37.5 20.3-7.93 2.95-21.6-25.6-2.89-6.05 2.2-26.3 1.08-4.28 5.09-10.5z" fill="#8e71ca"/>
  <path d="m226 401q8.3-12.8 20.6-10.5 21.8 3.94 28.6 12.2 12.1 14.5 8.48 27.2-6.34 22.4-20.7 27.1-25.3 8.34-32-0.164-11.9-15-11.1-27.1 1.38-21.4 6.08-28.6z" fill="#71c75f"/>
  <path d="m292 197q30.9-13.2 36.5-3.44 18.9 33.5 16.2 36.9-9.06 11.9-20.6 8.87-39.6-10.2-40-16.6-1.15-21.9 7.9-25.7z" fill="#8e5540"/>
  <path d="m231 343c0.818-7.8 0.552-9.74 3.79-12.8 11.7-11 46.3-12 46.8-10.7 4.84 11.9 6.61 19.5 5.33 22.8-11.7 29.6-18.6 44.1-20.9 43.7-20.5-3.7-31.3-6.85-32.4-9.44-9.94-23.4-3.49-25.8-2.68-33.6z" fill="#71aa23"/>
  <path d="m303 137c5.77-4.33 17-3.3 21.5 2.33 8.52 10.6 3.3 34.4-4.64 40.6-25.6 10.9-38.6 16.2-39 15.9-10.6-8.04-15.9-12.1-16-12.3-1.99-4.33-2.45-7.03-1.38-8.09 25.6-25.5 32.7-33.4 39.5-38.5z" fill="#8e3815"/>
  <path d="m447 237q5.69-1.47 14.8 24.3 1.67 4.72-20.3 26.7-4.04 4.04-28.2-6.83-4.44-1.99 1.64-30.9 1.11-5.3 32.1-13.3z" fill="#c771ce"/>
  <path d="m255 269q12.5 5e-3 24.4 25 4.59 9.6 2.02 15.6-0.984 2.3-37.9 12.5-14.2 3.91-19.2-37.3-1.93-15.8 30.6-15.8z" fill="#718ed9"/>
  <path d="m70.6 329c25.8 9.29 30.3 3.92 33.4 15.8 3.02 11.7-19.6 29.3-21.2 29.5-16.6 1.71-25.3 1.82-26.1 0.317-8.85-15.6-38.5-35.5-27.4-51.4 7.97-11.4 38.9 4.87 41.4 5.76z" fill="#1caac9"/>
  <path d="m415 53.6q40.4 25 38.1 33.6-4.26 16-18.1 17.4-25.9 2.57-33.6-2.4-14.5-9.26-12.2-27.7 4.22-34.3 25.9-20.9z" fill="#c71c5c"/>
  <path d="m248 126c6.48-5.48 9.57-0.599 25.3 3.08 16.7 3.92 18.6 12.3 5.62 25.2-13.8 13.7-22.4 18.7-25.7 15.1-3.6-3.89-5.63-11.5-6.06-22.9-0.467-12.1-4.28-16 0.922-20.4z" fill="#71387b"/>
  <path d="m347 241q6.72-8.8 21.9-11.3 20.4-3.38 29.3 4.74 12 10.9 8.96 25.5-4.13 19.6-7.66 23.3-4.77 4.98-20.6 7.24-21.4 3.05-28.1-0.987-9.09-5.44-8.94-21 0.212-21 5.2-27.5z" fill="#aa716e"/>
  <path d="m334 404q12.6-4.71 20.5 9.46 2.52 4.54 1.4 17.8-0.362 4.26-28.7 32.6-9.08 9.08-15.6 10-2.08 0.295-20.9-15.2-6.03-4.97 1.49-31.5 2.41-8.51 41.7-23.2z" fill="#8ec7ba"/>
  <path d="m400 174c8.36-8.52 18.8-4.83 35.4-5.44 16.8-0.611 18 5.71 22.7 11.1 4.74 5.43 5.62 14.4 2.63 26.8-3.02 12.6-5.19 19.5-6.51 20.9-1.33 1.33-8.08 3.56-20.2 6.7-12.3 3.17-21.9 1.6-28.9-4.72-7.02-6.39-9.78-17.1-8.29-32 1.51-15.1-2.35-17.7 3.14-23.3z" fill="#c7557e"/>
  <path d="m48.7 286c5.47-5.47 12.1-8.58 19.9-9.32 14.3-1.36 24.3 5.09 30 19.4 10.5 26.2 23.7 29.5 14.3 40.1-4.01 4.52-7.7-0.423-17.7-4.01-18.3-6.6-30.2-13.6-35.8-21.1-10.1-13.7-13.7-22-10.8-25z" fill="#1c8e5d"/>
  <path d="m362 348c14.6-6.54 34-8.29 48 0.44 3.2 2-1.05 10-1.57 11.2-7.05 15.6-11.4 11.3-13.5 12.1-27.9 11.1-30 24.7-43.5 17-7.07-4-4.61-22.9-4.08-24 7.05-15.8 7.9-13.7 14.7-16.7z" fill="#aaaa1c"/>
  <path d="m160 398q1.5-4.42 17.3-0.542 38.2 9.38 37.5 19.2-1.52 23.7-12.1 23.2-25.4-1.27-30.7-12.6-12.7-27.4-12.1-29.2z" fill="#55c7ec"/>
 </g>
</svg>
