<?xml version="1.0" encoding="UTF-8"?>
<svg width="512px" height="512px" contentScriptType="text/ecmascript" contentStyleType="text/css" version="1.1" viewBox="0 0 512 512" xmlns="http://www.w3.org/2000/svg">
 <g class="voronoi" stroke-width=".5">
  <path d="m236 223c-5.94-0.045-14.5 3.23-25.7 9.81-12.9 7.56-20.1 14.7-21.6 21.4-0.555 2.38-2.04 5.18-9 13.5-2 2.38-8.13 8.42-9.79 9.31-8.44 4.56-13.6 15.2-15.5 32-1.7 15-0.313 23.4 4.15 25.4 3.98 1.76 14.5 2.03 31.6 0.805 12.4-6 29.5-13.7 33.9-20.3 7.89-15 16.2-14.7 27.4-27.1 11.9-13.1 16.9-24.1 15-32.8-1.62-7.54-3.89-12.7-6.8-15.4-6.67-9.38-11.8-16.4-23.6-16.6z" fill="#5e7b1b"/>
  <path d="m458-37.1 39.9 3.59 31.6 25.6 4.85 5.94-17.3 17.4-55.1-29.8z" fill="#e3e3c9"/>
  <path d="m-13.2 126 13.2 3.6s8.22 1.61 9.63 6.62c1.98 7.04-9.63 13.4-9.63 13.4l-10.9 11.6-25.6 20.8-12.6-8.24-3.62-33.7z" fill="#e3388e"/>
  <path d="m29.9 399c15.3-10.4 35.1 6.96 42.6 23.9 7.84 17.7 12.6 43.4-0.163 57.8-4.65 5.22-14.5 5.43-20.8 2.48-11.9-5.54-13.3-21.1-17.7-33.6-6.15-17.7-19.4-40.2-3.92-50.6z" fill="#00c7e4"/>
  <path d="m484 426 27.7-3.88 18.6-2.48 2.17 0.445 0.978 25.5-21.8 22.3s-5.5 3.94-8.04 4.77c-14.8 4.88-27.5-5.93-42.8-9.7-11-2.72 1.06-21.5 7.09-29.8 5.18-7.16 16-7.08 16-7.08z" fill="#e3c7ec"/>
  <path d="m445-14.3 30.2 14 0.43 0.334s32.5 12.4 34.6 26.9c0.941 6.64-3.04 15.2-7.64 20-5.62 5.96-15.1 13-23.2 11.8-11.6-1.79-19.3-29.5-19.3-29.5l-10.2-29.3z" fill="#e3006f"/>
  <path d="m34.1 464c1.59 10.5 12.5 19.9 6.86 28.9-4.37 7.02-17.1 9.27-24.3 5.18-8.83-5.03-14.5-19.9-9.74-28.9 4.26-8 24.6-21.7 27.1-5.21z" fill="#00e358"/>
  <path d="m458 475c9.04-9.85 39.9 3.59 39.9 3.59l31.6 25.6 4.85 5.94-17.3 17.4-28.7-15.5s-20.4-9.16-26.2-17.3c-4.51-6.25-9.45-14.1-4.24-19.8z" fill="#e3e3c9"/>
  <path d="m111 30c2.05-5.48 6.21-10.9 11.6-13.2 7.56-3.25 16.8-1.33 24.7 0.928 15.5 4.42 34.6 9.64 42 23.9 3.53 6.78 3.81 18-2.14 22.8-13.5 10.9-51.6-6.19-51.6-6.19s-19.9-7.95-24.5-16.7c-1.83-3.43-1.42-8.03-0.053-11.7z" fill="#3800b4"/>
  <path d="m-41.1 70.8 11-5.22 42.6 33.1s8.51 10.6 3.49 16.8c-4.09 5.03-16 4.39-16 4.39l-31.6-2.72-23.3-10.1 3-20.3z" fill="#e31caf"/>
  <path d="m533 148 16.4 59.2-1.36 0.59-14-1.31-22.2-14.1s-12.5-6.27-12.8-14.4c-0.326-8.58 12.8-14.1 12.8-14.1z" fill="#005528"/>
  <path d="m-12.9 332 12.9 3.52s8.24 1.46 12 3.27c12.2 5.94 27.4 11.8 32.6 24.3 3.35 8.19 3.79 22.1-4.04 26.2-11 5.75-24.7-7.48-33.4-16.2-3.81-3.82-7.06-14.6-7.06-14.6z" fill="#00aa73"/>
  <path d="m467 349c2.72-2.92 13.1-6.39 16.9-5.32 13 3.63 27.6 28.8 27.6 28.8l14.3 22.1 5.66 18.3-60.2 9.24s-10 4.59-12.9 1.37c-14.2-15.8 4.02-48.3 4.02-48.3s0.339-21.6 4.59-26.2z" fill="#e3aac9"/>
  <path d="m157 477c10.2 1.89 18.3 4.54 19.9 14.8 1.16 7.71-8.8 20.1-8.8 20.1l-9.94 11.9-28.6-3.55 1.37-8.35s0.107-22 5.93-30.6c1.89-2.8 13.4-5.52 20.2-4.27z" fill="#38e3df"/>
  <path d="m393 543 7.56-20.8 27.8-17.7 31.9 48.6-0.753 28.4-48.8-24.7z" fill="#c700b4"/>
  <path d="m-18 59.4 18-9.57s27.9-19.4 31.6-6.84c5.86 19.9 12 23.7 12.6 36.5-1.35 8.68-1.39 36.3-9.24 31.1l-11.2-7.47-23.7-24.9z" fill="#001c34"/>
  <path d="m471 70.8c4.78-2.26 11.8 1.09 15.8 1.53 12.7 1.38 25.4 16.7 25.4 16.7l12.5 9.69 6.92 22.9-51-4.39s-17.5-5.21-21.6-12.6c-3.32-5.98 1.3-17.8 1.3-17.8s4.95-13.2 10.8-16z" fill="#e31caf"/>
  <path d="m505 339c2.84-3.42 7.31-3.53 7.31-3.53l12 3.27 32.6 24.3-4.04 26.2-33.4-16.2-7.06-14.6s-13.6-11.9-7.31-19.5z" fill="#00aa73"/>
  <path d="m453 503c8.23-7.46 22.8 8.93 22.8 8.93l0.43 0.334 34.6 26.9-11.8 16.3-19 15.6-19.3-29.5-10.2-29.3s-1.32-5.87 2.43-9.26z" fill="#e3006f"/>
  <path d="m86.9-50 14.6-13.7 19.3 17.6 5.01 36.9-4.68 9.17s-5.03 8.89-10.7 10.2c-8.29 1.88-17.5-10.2-17.5-10.2l-12.5-9.53z" fill="#1ce39d"/>
  <path d="m361-16.4 23.1 4.88 13.1 13.8s-3.66 20.2-11.2 25.7c-5.17 3.77-12.7 2.51-19.1 1.93-14.3-1.31-29.4 6.3-32.8-7.64-2.06-8.31 9.9-22.2 9.9-22.2z" fill="#aa0016"/>
  <path d="m51.3 114c-10.1-0.108-7.62 2.04-17.5 5.43 0 0-9.83 6.84-11.8 12.1-1.25 3.38 7.92 31.8 7.92 31.8s6.87 44.9 20.1 34.2c18.1-14.6 47.9-37.2 59-50.8 8.5-11 12.6-10.9 12.5-18.3-0.0622-3.19-2.07-3.56-5.69-7.68-3.17-3.61-16.7-5.76-40.6-6.43-10.5-0.297-18.4-0.44-23.8-0.43z" fill="#0e38da"/>
  <path d="m499 126 28.2 7.71-26 27.6s-14.6 20.2-25.6 20.8c-5 0.258-12.4-3.23-12.6-8.24-0.793-19.5-8.37-35.9-1.31-52.4 4.9-11.5 37.2 4.6 37.2 4.6z" fill="#e3388e"/>
  <path d="m356 444c12.2 0.834 21.5 29.9 21.5 29.9s6.19 12.6 0.857 16.9c-7.03 5.64-26.5-2.95-26.5-2.95s-29.9-14.2-21.7-19.2c11.7-7.21 15-25.4 25.9-24.6z" fill="#aae33b"/>
  <path d="m144-36 38.5 18.1-15 17.9s-7.18 9.43-12 11.3c-8.93 3.52-17.1 5.51-22.5-1.59-1.7-2.25-2.69-9.73-2.69-9.73l5.04-30.8z" fill="#38e3df"/>
  <path d="m393 31.5c-2.05-7.1 7.56-20.8 7.56-20.8l27.8-17.7 4.63 7.05s22.7 25.6 27.3 41.5c2.59 9.11 7.38 23.6-0.753 28.4-15.6 9.33-33.4-14.9-48.8-24.7-6.34-4.01-15.7-6.59-17.8-13.8z" fill="#c700b4"/>
  <path d="m423 279c-7.27-2.72-21.5-0.835-29 5.57-4.02 3.44-7.39 3.31-5.38 14.9 2.32 13.4 5.13 23.3 8.41 29.9 3.78 7.58 15.9 11.3 36.3 11.1 23.5-0.233 27.9-0.446 37.6-2.61 11.9-3.82 18.4-6.26 26.8-14.3l4.94-11.3s-14.4-34.7-31.5-36.1c-23.1 0.413-24.8 0.38-48.1 2.79z" fill="#d58e1f"/>
  <path d="m-54.2 475 39.9 3.59 31.6 25.6 4.85 5.94-17.3 17.4-55.1-29.8z" fill="#e3e3c9"/>
  <path d="m421 437c10.5-4.08 22.1-10.7 30-2.53 7.99 8.25 0.463 34.4 0.463 34.4l-8.5 18.9-6.21 6.11s-21.9 16.4-34 14.2c-6.37-1.14-14.2-13.2-14.2-13.2s-5.17-14-2.65-22.9c4.48-15.9 19.7-28.9 35.1-34.9z" fill="#c7e3e0"/>
  <path d="m29.9 0.189 0.149-0.189 2.32-2.94 20.7-20 11.7 3.96 16.6 19s14.2 11.6 15 22.8c0.284 3.72 3.37 8.71 1.05 12-10.5 14.8-20 44.2-38.3 40.6-26.4-5.15-29.2-75.2-29.2-75.2z" fill="#1c0024"/>
  <path d="m17.6 158c11.2 13.1 11.1 23 15.1 35.1 1.61 4.89 6.94 11.1 3.56 15-3.08 3.54-14-1.31-14-1.31l-42.8-27.2 20.6-15.4s11.9-12.9 17.6-6.19z" fill="#005528"/>
  <path d="m-32.7 343 10.8-5.21 36.2 56s4.43 8.05 1.04 13.5c-3.57 5.71-15.4 7.89-15.4 7.89l-40.3 6.18-12.9 1.37 13.5-62.4z" fill="#e3aac9"/>
  <path d="m86.9 462s7.9-13.7 14.6-13.7c8.71-0.061 15.2 9.92 19.3 17.6 5.76 11 7.1 24.7 5.01 36.9-0.576 3.38-4.68 9.17-4.68 9.17l-7.9 15.5-20.3-15.5s-7.63-8.25-9.57-13.1c-5.07-12.7-5.46-28.5 3.55-36.9z" fill="#1ce39d"/>
  <path d="m365 498c7.56-2.17 19.5 2.95 19.5 2.95l13.1 13.8-11.2 25.7-19.1 1.93-41.4-12 18.5-17.8s13-12.3 20.6-14.5z" fill="#aa0016"/>
  <path d="m-54.2-37.1 39.9 3.59 31.6 25.6 4.85 5.94-1.93 1.95s10.9 24.5 3.71 25.5c-1.83 0.271-24-12.7-24-12.7l-50.2-27.1z" fill="#e3e3c9"/>
  <path d="m271 16.4s31.1 6.03 25 13.2c-8.45 9.97-25.7 33.8-43.9 42.5-8.2 3.89-21.5-13.6-21.5-13.6s-13.8-27.5-6.04-37.5c9.49-12.3 46.4-4.62 46.4-4.62z" fill="#710098"/>
  <path d="m500 61.6c1.09-6.72 11.5-11.7 11.5-11.7l10.4-5.52 33.8 35.2-7.42 29.5-1.82 1.62-11.2-7.47-23.7-24.9s-12.9-8.13-11.5-16.7z" fill="#001c34"/>
  <path d="m-52.4 429 52.4-6.99s14.8-1.73 20.5 0.998c3.62 1.75 3.64 2.92 4.33 6.89 0.907 5.21 0.0259 7.63-3.03 15.6-3.73 9.68-21.8 22.3-21.8 22.3l-5.6 5.73-46.2-7.54-1.61-33.9z" fill="#e3c7ec"/>
  <path d="m29.9 512 0.149-0.189 2.32-2.94 20.7-20 11.7 3.96 38.6 44.3-6 9.46-27.5 2.24z" fill="#1c0024"/>
  <path d="m77.1 70.3c8.29-8.29 17.6-22.9 26-25.3 8.61-2.42 7.05 8.55 8.49 13.7 2.19 7.85 0.363 7.34-0.255 24.5-0.63 17.5-12.1 25.9-34.3 25.3-22.7-0.642-35.7 6.86-32.9-4.74 2.89-11.9 24.7-25.3 32.9-33.4z" fill="#1c1c7e"/>
  <path d="m161 197q10.9-18.4 17.4-19.1 31.4-3.5 34.8 3.46 16.8 33.8 9.71 38-34.6 20.3-39.6 13.7-24.6-32.2-22.3-36z" fill="#553"/>
  <path d="m275 274c-10.1 0.94-16.1 12.3-23.4 19.3-7.89 9.66-25.8 19.6-12.4 23 28.9 8.59 49.7 17.1 55.5 17.6 5e-3 0.0767 0.0137 0.15 0.0273 0.215 0.0627 0.297 11.4 1.92 34.1 4.86 5.93 0.771 6.85-11 2.75-35.5-0.98-5.84-5.84-4.12-14.3-6.21-21.7-5.38-26.3-24.8-42.3-23.3z" fill="#808ecf"/>
  <path d="m108 371q10.5-22.9 14-24.2 24.8-9.3 26.3-8.62 11.1 4.91 12.7 10.7 11 41.6 9.51 43.6-10.9 14.5-16.3 14.2-39.1-1.78-40.2-5.54-7.44-27-5.97-30.2z" fill="#38aaca"/>
  <path d="m397 372c-2.18-1.83-7.83 0.651-30.5 18.5 0 0-7.57 11.4-4.96 16.7-0.269 11.7 0.574 30.1 1.94 32.6 9.2 16.7 6.95 9.8 12.3 10.6 18.8 2.88 43.6-19.4 52.3-22.6 5.04-1.87 21.9-9.16 15.1-14.1-16.4-12.7-30.5-28.4-46.2-41.6z" fill="#b9c718"/>
  <path d="m152 67.9q29.5 7.39 27.7 15.3-1.56 6.93-28.9 24.4-24.1 15.4-29.5 9.22-4.76-5.43-3.77-33 0.875-24.3 34.4-15.9z" fill="#381c86"/>
  <path d="m395 46.1c-6.84-0.0104-4.69 15-7.66 39.2-1.01 23.8 4.86 39.5 12.9 57.3 7.28 15.9 18.2 23.7 32.7 23.1 12.4-0.449 19.3-9.18 21-26.2 1.22-12.8-0.558-27.3-2.41-32.9 0.224-5.02-0.578-12.3 1.2-19-12.3-14.3-41.2-41.2-57.6-41.5z" fill="#c72a1c"/>
  <path d="m217 169q3.05-4.71 33-2.65 39.4 2.71 23.7 26-20.6 30.7-28.4 26.5-10.3-5.54-19-23.1-11.5-23.1-9.22-26.7z" fill="#71556f"/>
  <path d="m93.1 178c-13.4 4.89-20.8 14.4-31.2 21.4-7.64 5.15-16.9 10.1-19.3 18.8-3.62 12.8 6.64 24.6 9.88 38.8 2.23 9.72 10.6 13.9 25.1 12.5 4.76-0.453 13.4-6.23 26-17.3 6.19-9.87 12-19.5 12.6-30.5 0.482-9.87 0.0751-14.6-8.58-28.4-8.55-13.6-10.1-15.3-14.5-15.2z" fill="#1c6383"/>
  <path d="m346 286q3.3-1.9 26.3-3.48 6.12-0.421 11.3 29.2 1.36 7.86-31.3 25.7-8.67 4.74-10.5 2.5-0.494-0.597-6.62-37.1-1.63-9.69 10.8-16.8z" fill="#aa8ec2"/>
 <path d="m198 334c-9.98 6.86-21.6 2.35-26.2 10.5-3.09 5.51-5.07 34 5.71 44.2 10.9 10.3 35.3 4.14 44.8 3.43 25.4-1.92 43.5-1.7 58.1-10.7 10.1-6.37 12.5-29.4 11.5-34.1-0.294-1.41-0.47-12.4-5.17-13.5-18.3-3.93-47.1-16.7-55-16.3-6.05 0.298-24 9.82-33.7 16.4z" fill="#63aacf"/>
 <path d="m256 82.7c-4.25 6.28-0.435 16.4-2.84 23.1-3.06 7.98-15.1 24.5-27.6 36.1-0.155 0.145-6.78 10.3-4.07 14.5 5.77 8.96 21.1 2.96 31.6 4.85 11.1 2 23 11.6 33.3 6.87 9.02-4.17 11.3-13.3 14.3-26.2 2.4-10.4 16-28.6 15.3-33.8-1.44-10.9-58.6-27.4-60-25.4z" fill="#712acf"/>
 <path d="m331 105c-9.97 3.43-14.4 20.7-17.7 26.2-6.47 10.7-13.9 24.1-13.2 31.3 13.9 9.68 16 25.1 26 36 5.84 6.43 6.31 14.6 19.6 17.2 26.1 5.05 39 4.83 38.7-0.658-6.79-24.8-16.9-53.1-28.1-78.5-4.27-9.72 1.54-23.1-14.9-28.2-6.88-2.13-6.99-4.61-10.5-3.41z" fill="#9c4772"/>
  <path d="m324 343q14 1.82 15.6 3.74 0.77 0.93 0.289 30.7-0.234 14.4-27.1 15.1-13 0.335-17.1-4.08-1.96-2.15-1.06-33.8 0.438-15.4 29.3-11.6z" fill="#8eaaa7"/>
  <path d="m185 101c-13.5-9.89-23 2.79-46.8 18-6.99 4.47-10.4 7.56-10.2 9.28-6.93 7.94-22.5 25.1-22.7 40.6-0.184 13.9 9.03 28.3 19.3 36.8 7.37 6.14 9.38 0.865 27.7-7.67 0.487-0.226 5.01-7.54 13.6-21.9 11.1-18.8 10.8-38.2 17.9-57 0.0617-6.06 6.05-14.6 1.16-18.1z" fill="#384727"/>
  <path d="m399 252c0.953-2.35 16-7.27 45.1-14.8 5.34-1.38 33.5 15.7 17.1 23.7l-18.6 9.14c-2.69 2.69-20.3 3.99-44.3 4.33-4.71-2.12-4.47-9.57 0.719-22.4z" fill="#c771ce"/>
  <path d="m207 130c7.91 8.49 11.2 16.4 9.88 23.6-0.926 5.09-2.44 9.26-4.54 12.5-1.47 2.28 1.07 5.19-13.8 6.85-10.4 1.16-20.8 5.71-24.5 0.0663-2.63-3.95 10.4-30.5 14-52.2 7.52-13.1 7.63-2.96 18.9 9.15z" fill="#553893"/>
  <path d="m328 223c-19.4 7.68-34.7 11.9-52.9 18.9-7.08 2.73-3.92 16-0.402 22.8 5.28 10.1 8.24 3.76 28.4 18.9 2.66 2 12.1 8.23 23.3 5.32 1.32-0.342 7.41-4.13 19.1-8.21 2.8-0.972 16.2-2.47 24.1-4.54 4.38-1.14 10.6-1.87 12.9-4.33 1.1-1.17 6.89-10.9 7.9-17.1 1.07-6.61 1.24-11.5-2.22-20-1.65-4.01-27.7-12.3-42.5-13.8-5.92-0.599-15.3 1.03-17.8 1.99z" fill="#9c71eb"/>
  <path d="m97.6 268q17.3-15.3 28.3-6.02 24.4 20.7 22.7 35.4-3.73 32.9-12.5 36.1-19.5 7.32-20.9 5.99-3.12-2.96-10-22.1-15.4-42.6-7.63-49.4z" fill="#388e53"/>
  <path d="m401 355c1.92-5.68 14.9-8.64 38.8-8.88 20-0.197 27 11.5 14.7 37.8-4.99 22.9-10.1 25.5-30.4 5.02-16.9-17.1-25.4-27.2-23.1-34z" fill="#c7aa89"/>
  <path d="m262 394c-9.62 0.732-19.5 2.65-28.7 4.01-13.1 1.96-30.2 1.3-45-1.18-15.1-2.55-14.3 1.76-20.2 9.52 6.12 27.1 39.4 33.7 60.5 45.4 12.7 7.4 27.2 6.87 35.1 4.34 9.55-3.15 19.3-24.4 24-38.9 2.41-7.49 7.06-17.8 1.66-23.5-10.4-4.96-18.3-0.345-27.4 0.348z" fill="#63c757"/>
  <path d="m188 77.4c0.395-1.76 6.1-8.15 17.1-19.2 2.39-2.39 3.09-4.2 5.39-4.32 12.7-0.691 11 6.74 32.2 20.6 4.6 2.99 5.86 2.2 7.02 4.78 3.83 8.48-1.14 9.27-3.46 27.7-0.504 3.99-7.5 12.3-21 24.9-2.92 2.73-12.3-4.37-28-21.3-10.3-13.1-12.4-19.2-9.28-33.1z" fill="#551c15"/>
  <path d="m307 179c4.13 11.4 24.1 23.5 20.8 37.4-1.42 5.95-9.64 7.77-15.2 10.3-12.8 5.74-14 4.08-40.9 10.3-2 0.464-5.52-1.69-10.6-6.46-0.375-0.355-1.35-1.87-2.92-4.55-0.117-0.199 11.1-17.1 33.6-50.6 6.85-9.41 13.4-1.27 15.2 3.62z" fill="#8e55e2"/>
  <path d="m124 222q2.46-4.3 22.9-13.8 7.87-3.66 29.2 24.4 8.24 10.8 5.1 24.3-1.21 5.2-20.6 15.7-7.47 4.03-33-17.6-9.83-8.33-9.98-18.1-0.058-3.77 6.33-14.9z" fill="#3871b2"/>
  <path d="m331 398c6.46-0.166 12.4-0.602 16 2 10 7.12 10.6 19.5 9.72 29.9-0.241 2.84-9.8 13.7-28.7 32.6-6.06 6.06-11.2 9.39-15.6 10-1.39 0.197-20.1-7.19-32.6-17.5-4.02-3.31 9.52-16.2 17.2-43.2 2.46-8.67 13.8-13.3 33.9-13.8z" fill="#8ec7ba"/>
  <path d="m304 45.5c12.1 20.7 18.2 32.6 18.2 35.6 0.101 10.9 3.79 13.4-0.533 16.7-4.32 3.39-6.92-0.343-15.8-3.35-32-10.8-25.9-7.82-42.2-16.8-2.71-1.49-2.86-2.74 3.14-8.74 21.5-21.5 33.9-29.3 37.3-23.5z" fill="#8e1c3e"/>
  <path d="m47.8 286q8.21-8.21 18.4-9.18 18.7-1.78 26.6 20 14.4 40 0.234 34.8-26.1-9.41-34.4-20.6-15.2-20.6-10.8-25z" fill="#1c8e5d"/>
  <path d="m364 337q22.2-12.2 27.1-2.36 5.71 11.4 2.79 20.1-3.4 10.1-20.9 23.8-20.4 16-24.3 14.6-4.51-1.6-4.18-22 0.385-23.8 19.5-34.2z" fill="#aaaa76"/>
 </g>
</svg>
