<?xml version="1.0" encoding="UTF-8"?>
<svg width="512px" height="512px" contentScriptType="text/ecmascript" contentStyleType="text/css" version="1.1" viewBox="0 0 512 512" xmlns="http://www.w3.org/2000/svg">
 <g class="voronoi" stroke-width=".5">
  <path d="m458-37.1 39.9 3.59 31.6 25.6 4.85 5.94-17.3 17.4-55.1-29.8z" fill="#e3e3c9"/>
  <path d="m-13.2 126 13.2 3.6s6.82 1.14 8.23 6.14c1.98 7.04-8.23 13.9-8.23 13.9l-10.9 11.6-25.6 20.8-12.6-8.24-3.62-33.7z" fill="#e3388e"/>
  <path d="m49 438c11.4-7.17 18.5-2.1 41.9 6.73 7.84 2.97-2.22 12.4-7.83 23.9-1.79 3.68-14.4 14.6-18.4 13.8-15.5-3.2-16.8-16-16.8-16s-8.54-22.3 1.22-28.4z" fill="#00c7e4"/>
  <path d="m460 429c17.5-2.17 52.4-6.99 52.4-6.99l18.6-2.48 2.17 0.445 0.978 25.5-21.8 22.3s-3.07 4.88-5.6 5.73c-36.5 12.2-92.1 29.7-110-6.32-4.45-8.77 7.5-28.3 16.3-32.7 14.2-7.2 31.6-3.47 47.3-5.43z" fill="#e3c7ec"/>
  <path d="m445-14.3 30.2 14 0.43 0.334s27 7.02 29.1 21.5c0.941 6.64 5.5 23.2 0.896 28.1-5.62 5.96-11.9 15.8-26.2 9.15-10.7-4.91-19.3-29.5-19.3-29.5l-10.2-29.3z" fill="#e3006f"/>
  <path d="m458 475 39.9 3.59 31.6 25.6 4.85 5.94-17.3 17.4-55.1-29.8z" fill="#e3e3c9"/>
  <path d="m-41.1 70.8 11-5.22 42.6 33.1s18.1 12.6 13.1 18.8c-4.09 5.03-25.5 2.42-25.5 2.42l-31.6-2.72-23.3-10.1 3-20.3z" fill="#e31caf"/>
  <path d="m533 148 16.4 59.2-1.36 0.59-14-1.31-22.2-14.1s-15.9-4.58-16.2-12.7c-0.326-8.58 16.2-15.8 16.2-15.8z" fill="#005528"/>
  <path d="m-12.9 332 12.9 3.52s28.9 5.97 39 14.2c7.27 5.9 9.12 9.83 12.5 23 2.93 11.4-10 20.5-21.6 22.7-10.4 1.94-22.7-22.2-22.7-22.2l-7.06-14.6z" fill="#00aa73"/>
  <path d="m488 345c-13.4-5.41-43.2 3.18-43.2 3.18-20.2-2.71-52.7-6.95-61.8 1.07-2.89 2.67-1.68 11.7-1.68 11.7-7.49 16.4-9.87 40.4 1.06 55.2 6.9 9.36 6.38 4.53 33.1 10.9 29.9 4.76 30.9-1.24 56.6-5.05l60.2-9.24-5.66-18.3-14.3-22.1s-13.1-22.8-24.4-27.4z" fill="#e3aac9"/>
  <path d="m187 445c-12.1 2.37-20.5 13.8-30.4 21.1-6.28 4.69-14.1 8.11-18.3 14.7-5.82 9.06-7.89 31.3-7.89 31.3l-1.37 8.35 28.6 3.55 9.95-11.9 27.4-20.6c17.6-9.12 38.5-9.05 29.5-27.7 0 0-2.27-9.03-5.67-11.7-8.49-6.74-21.1-9.21-31.7-7.13z" fill="#38e3df"/>
  <path d="m393 543 7.56-20.8 16.7-10.6s7.28-5.57 11.6-4.64c2.75 0.592 4.17 4.64 4.17 4.64l27.3 41.5-0.753 28.4-48.8-24.7z" fill="#c700b4"/>
  <path d="m-18 59.4 18-9.57s28.1-19 31.8-6.45c22.8 13.1 16.3 9.97 16.9 22.8-1.35 8.68-10.1 45-17.9 39.8l-15.1-12.4-15.7-15.3z" fill="#001c34"/>
  <path d="m471 70.8c3.07-2.65 2.75-1.62 6.78-1.18 12.7 1.38 34.4 19.4 34.4 19.4l12.5 9.69 6.92 22.9-51-4.39s-19.2-2.73-23.3-10.1c-3.32-5.98 0.53-13.9 3-20.3 2.32-5.99 5.89-11.8 10.8-16z" fill="#e31caf"/>
  <path d="m506 338c2.84-3.42 6.47-2.84 6.47-2.84l12 3.27 32.6 24.3-4.04 26.2-33.4-16.2-7.06-14.6s-12.8-12.6-6.47-20.2z" fill="#00aa73"/>
  <path d="m450 503c8.23-7.46 25.6 8.98 25.6 8.98l0.43 0.334 34.6 26.9-11.8 16.3-19 15.6-19.3-29.5-10.2-29.3s-4.07-5.93-0.325-9.32z" fill="#e3006f"/>
  <path d="m86.9-50 14.6-13.7 19.3 17.6 5.01 36.9-4.68 9.17s-3.84 7.22-9.49 8.5c-8.29 1.88-18.7-8.5-18.7-8.5l-12.5-9.53z" fill="#1ce39d"/>
  <path d="m361-16.4 23.1 4.88 13.1 13.8s-3.66 20.2-11.2 25.7c-5.17 3.77-12.7 2.51-19.1 1.93-14.3-1.31-31 2.77-34.4-11.2-2.06-8.31 11.5-18.7 11.5-18.7z" fill="#aa0016"/>
  <path d="m96.6 43.6c-2.19-0.0273-4.62 0.337-7.31 1.09-8.42 2.37-16.8 7.7-25.1 16-8.12 8.12-13.6 18.1-16.5 30-6.53 14.4-5.29 14.8-14 28.9l-11.8 12.1 0.656 10.8s13 43.2 25.1 57.1c3.85 4.43 8.03-3.6 8.03-3.6 16.1-13.9 27.2-17.3 36.7-30 5.87-7.82 11-9.21 11.5-27 1.54-12.1 3.04-20.9 4.48-31.3 1.2-8.69 2.91-10.1 3.48-26.1 0.565-15.6-0.917-26.3-4.45-32.1-2.37-3.86-5.97-5.81-10.8-5.87z" fill="#132fcf"/>
  <path d="m499 126 28.2 7.71-26 27.6s-14.6 20.2-25.6 20.8c-5 0.258-18.2-24.9-18.2-24.9s-16.1-20.5-2.03-32.8c10.1-8.84 43.5 1.62 43.5 1.62z" fill="#e3388e"/>
  <path d="m305 414c-6.15-0.114-9.69 1.5-10.6 4.84-6.74 23.8-9.65 28.2-4.09 40.7 3.51 7.85 13.2 11.2 20.9 15.2 12.4 6.44 29.7 8.94 39.7 13.5 7.87 3.72 32.9 11 30.8 3.57-3.82-13.8 1.96-20.1 4.38-25.6 8.97-23.9 23.8-37 19.6-38-23.7-5.69-34.3-1.87-35.1-1.14-7.9 0.848-22.2-1.68-28.9-4.07-16.5-5.86-28.7-8.86-36.6-9z" fill="#a1d0df"/>
  <path d="m144-36 38.5 18.1-15 17.9s-9.9 11.3-14.7 13.2c-8.93 3.52-15.1 3.66-19.7-3.02-1.6-2.32-2.71-10.2-2.71-10.2l5.04-30.8z" fill="#38e3df"/>
  <path d="m393 31.5c-2.05-7.1 7.56-20.8 7.56-20.8l27.8-17.7 4.63 7.05s22.7 25.6 27.3 41.5c2.59 9.11 7.38 23.6-0.753 28.4-15.6 9.33-34.5 7.13-49.9-2.61-6.34-4.01-14.5-28.7-16.6-35.9z" fill="#c700b4"/>
  <path d="m469 273c17.1 1.33 26.2 23.9 33 39.7 2.46 5.71 4.56 12.8 2.23 18.5-1.57 3.9-5.66 7.15-9.78 7.96-5.9 1.16-17.3-5.23-17.3-5.23s-29.2-22.4-28.3-39.4c0.622-11.7 8.4-22.4 20.1-21.5z" fill="#e38e16"/>
  <path d="m-54.2 475 39.9 3.59 31.6 25.6 4.85 5.94-17.3 17.4-55.1-29.8z" fill="#e3e3c9"/>
  <path d="m408 488s33.2 5.52 33.3 8.04c0.306 8.23-30.3 12.4-43.5 9.37-6.31-1.43-9.62-10.4-9.62-10.4-12-39.2 16.6-9.43 19.9-7.03z" fill="#c7e30d"/>
  <path d="m29.9 0.189 0.149-0.189 2.32-2.94 20.7-20 11.7 3.96 16.6 19s17.2 18.2 18 29.3c0.284 3.72-2.84 7.55-6.15 9.12-4.53 2.14-6.26 1.61-15-1.39-17.1-5.89-48.4-36.9-48.4-36.9z" fill="#1c0024"/>
  <path d="m20.7 155c9.61 19.7 13.2 25.3 15.7 39.1 0.842 4.56 3.22 10.8-0.236 13.9-3.49 3.13-9.56 0.205-14-1.31-8.3-2.84-22.2-14.1-22.2-14.1l-20.6-13.1 20.6-15.4s16.9-17 20.7-9.04z" fill="#005528"/>
  <path d="m-32.7 343 10.8-5.21 21.9 33.9s8.34 11.5 14.2 18.1c4.23 4.75 18.2 10.7 14.9 16.2-3.57 5.71-29 9.23-29 9.23l-40.3 6.18-12.9 1.37 13.5-62.4z" fill="#e3aac9"/>
  <path d="m90.8 464c3.12-5.89 5.48-8.33 11.9-9.1 8.65-1.05 21.7 11.1 26 21.5 3.3 8.12-2.82 26.1-2.82 26.1l-12.6 24.7-20.3-15.5s-22.7-13.4-20.3-18c7.23-13.9 11.8-17.6 18.2-29.7z" fill="#1ce39d"/>
  <path d="m363 499c7.56-2.17 15.3 1.75 21.8 4.76 4.81 2.23 10.7 7.98 10.7 7.98l2.15 2.25-11.2 25.7-19.1 1.93-41.4-12 18.5-17.8s11-10.6 18.6-12.7z" fill="#aa0016"/>
  <path d="m-54.2-37.1 39.9 3.59 31.6 25.6 4.85 5.94-1.93 1.95s54.7 34.4 39.9 48.7c-8.28 8-60.1-35.9-60.1-35.9l-50.2-27.1z" fill="#e3e3c9"/>
  <path d="m502 62.4c1.09-6.72 10.2-12.6 10.2-12.6l10.4-5.52 33.8 35.2-7.42 29.5-1.82 1.62-11.2-7.47-23.7-24.9s-11.6-7.31-10.2-15.9z" fill="#001c34"/>
  <path d="m-52.4 429 71-9.47 2.17 0.445s24.2 0.726 25.7 9.76c3.21 19.7-46.4 38-46.4 38l-5.6 5.73-46.2-7.54-1.61-33.9z" fill="#e3c7ec"/>
  <path d="m29.9 512 0.149-0.189s-22.2-19.2-19.9-31.4c1.92-9.99 16.6-24 24.7-17.9 10.3 7.69 29.9 30.3 29.9 30.3l38.6 44.3-6 9.46-27.5 2.24z" fill="#1c0024"/>
  <path d="m375 120q3.81-1.32 32.5 40.1 5.89 8.5-9.7 27.1-3.2 3.82-40.5-0.718-7.65-0.93-2.04-50 1.15-10.1 19.7-16.5z" fill="#aa38cb"/>
  <path d="m140 171c-2.67 0.0397-5.63 0.318-8.87 0.832-12.3 1.95-17.3 12.5-15 31.5 2.13 18.1 4.34 28.7 6.63 31.9 2.17 3.02 8.37 2.8 18.6-0.648 14.6-6.34 29.3-10.9 44.6-15.4 19.7-5.95 18.6-6.2 19.3-11.9 2.49-19.8 2.65-33.7-4.24-32.5-24.3-2.21-44-3.85-61-3.77z" fill="#475516"/>
  <path d="m333 276c-10.2-0.0202-14.9 2.48-21.7 5.48-5.65 2.48-12.5 4.77-15.5 10.2-4.35 7.78-1.73 9.01-0.787 26.7 0.671 12.7 12.7 20.1 36.1 22.4 26.2 1.56 32.8-1.45 49.2-1.45 13.9 2e-3 14.9 1.51 41.7 1.24 30.8-0.305 47-1.21 48.5-2.71 1.73-1.73-3.16-8.51-14.7-20.3-13.3-13.6-25.5-22.9-36.7-28-22.1-7.85-40.1-7.62-64.5-11.5-8.3-1.34-15.5-2.02-21.7-2.03z" fill="#aa8e22"/>
  <path d="m186 347c-9.48-0.182-16.5 5.39-28.8 12.6-3.68 0.429-25.7 5.32-30.3 6.79-7.35 2.36-10.4 2.6-12.6 6.82-2.61 4.98-1.26 12.1 1.86 16.8 11.3 16.9 33.7 18.7 53.3 29.6 2.99 1.66 2.07 7.81 4.62 13.3 2.01 4.33 11.5 6.92 28.5 7.77 7.02 0.352 11.2-10.3 12.6-32 2.51-9.79 9.14-20.8 7.4-30.7-2.23-12.6-30.9-30.9-36.7-31z" fill="#4bb4e2"/>
  <path d="m300 43.3c-5.73 0.141-17 8.6-33.8 25.4-4.92 6.51-21 28.5-11.8 43.4 19.5 18.9 25.3 28 26.3 27.4 27.9-18.2 40.6-18.1 49.3-36.6 1.66-3.55-0.175-5.01-0.645-11.7-0.208-2.97-6.15-4.7-7.56-9.82-2.99-10.8-15-38.1-21.7-38z" fill="#801c10"/>
  <path d="m352 193c-2.57 2.85-5.74 9.06-6.08 11.5-1.46 11-2.11 16.8-1.96 17.4-5 15.6-28.3 47.7-11.5 49.8 48.6 5.85 29.9 0.437 54.3 6.86 5 1.32 7.68-8.78 11.1-10.9 2.36-10.8 4.61-10.6 5.78-16.2 2.02-9.66 7.45-17.9 2.06-29.5-7.76-16.7-17.8-25.9-30.1-27.4-15.5-1.88-20.7-4.79-23.6-1.59z" fill="#aa6333"/>
  <path d="m163 232q1.53-1.7 23.3-6.23 18.6-3.88 28.5 2.76 8.45 5.68 10.3 29.1 1.55 20.1-9.16 23.7-9.16 3.1-33.7-24.1-21-23.3-19.2-25.3z" fill="#557188"/>
  <path d="m308 344q46.9 4.6 33.5 14.2-46.7 33.6-48.5 32-6.25-5.38-4.51-14.7 6.1-32.8 19.5-31.5z" fill="#8eaa3f"/>
  <path d="m145 413q17.3 6.67 23.6 20.2 4.02 8.67-13.4 26.1-11.2 11.2-16.4 12.4-3.36 0.795-21.4-16.5-11.5-11.1-4.2-36.4 4.69-16.2 31.8-5.79z" fill="#38c798"/>
  <path d="m206 58.3q3.58-3.58 5.39-4.32 0.392-0.161 32.2 20.6 6.9 4.49 7.02 4.78 0.027 0.062-3.04 24.3-0.663 5.25-27.4 27.6-5.8 4.84-33.8-12-6.06-3.64 1.48-37.2 1.63-7.27 18.2-23.8z" fill="#551cc9"/>
  <path d="m330 117c-14.9 7.45-37.1 16.8-42.8 28.4-6.07 12.4-3.28 22.8-5.26 26.9-2.95 6.04-11.7 17.3-12.2 22-0.8 7.11-4.51 7.79-0.83 13.3 4.58 6.82 20.2 7.23 37 8.39 20.4-1.52 30.9-0.806 32-9.09 2.33-7.24 4.24-16.9 6.49-22.7 4.42-38.7 7.88-41.1 5.95-58-0.719-6.34-13.7-12.4-20.3-9.04z" fill="#8e47f3"/>
  <path d="m119 270q-0.319-0.962 5.41-17.5 2.28-6.59 23.6-13.8 8.48-2.86 41.1 33.3 12.9 14.4-2.81 32-6.26 7.02-49.4-20.6-17.1-11-17.9-13.4z" fill="#3871b0"/>
  <path d="m231 286c-4.17-0.108-10.1 1.15-17.9 3.79-2.87 0.972-10.1 7.9-21.5 20.8-3.18 3.57-5.36 10.6-6.52 21.1-0.321 2.92 10.6 13.1 32.8 30.6 6.15 4.84 7.01 5.18 11 6.83 14.7 6.13 39.5 9.48 46.6 11 0.927 0.197 8.57-1.24 8.68-5.37 1.03-4.36 2.48-11.5 4.37-21.6 1.88-10.1 2.3-24.9 1.27-44.3-0.579-10.9-2.27-16.8-5.08-17.6-1.58-0.478-6.63 1.58-15.6 1.84-13.3 2.61-26.6-6.65-38-7z" fill="#6897d5"/>
  <path d="m36.3 404c14.3-14.3 24.8-21.8 31.4-22.5 26.2-2.71 39.6-2.58 40.1 0.41 1.94 11.7 2.1 20.4 0.478 26-6.38 22.1 0.189 27.7-9.97 33.2-4.65 2.53-6.13-1.17-15.3-4.44-35.9-12.8-53.8-19.3-53.9-19.4-0.231-0.367-0.21-1.05 0.063-2.04 1.08-3.91 3.43-7.68 7.07-11.3z" fill="#1cc73b"/>
  <path d="m417 247q2.66-3.18 30.3-10.3 5.06-1.31 14.2 24.4 1.67 4.72-20.3 26.7-4.04 4.04-34.6-9.7-5.61-2.52-4.25-12.1 0.25-1.75 14.8-19.1z" fill="#c771ce"/>
  <path d="m73.7 332c10.1 3.5 19.1 11.2 24.9 20.2 3.72 5.73 20.7 17.9 5.32 19.8-30 3.11-45.5 3.91-46.3 2.41-8.85-15.6-14.9-31.4-5.65-42.1 4.73-5.48 14.9-2.67 21.7-0.299z" fill="#1caa20"/>
  <path d="m219 171q2.31-2.76 32.6 9.41 13.1 5.26 11.6 18.7-0.654 5.81-25.4 22.7-10.7 7.29-23.5-1.3-5.54-3.72-2.07-31.2 1.5-11.9 6.85-18.3z" fill="#7155ac"/>
  <path d="m229 133q21.2-17.7 31.8-7.52 19.8 19.1 17.5 29.8-4.3 20-6.84 22-4.77 3.71-19.9-2.36-28.3-11.4-30.2-18.7-3.7-13.7 7.65-23.2z" fill="#71385c"/>
  <path d="m175 123c0.991-0.495 9.96 4.34 26.9 14.5 5.76 3.45 10 10.4 12.9 20.9 0.959 3.56-0.468 7.61-4.28 12.2-1.3 1.54-13.8-4.48-34.7-0.694-7.11 1.29-19.6-1.66-25.5-10.2-2-2.89 8.33-5.81 16.3-24.8 2.7-6.46 5.51-10.4 8.42-11.9z" fill="#5538b8"/>
  <path d="m259 214c-19.9 13.6-29.7 22.6-29.4 27.2 1.89 24.5 4.27 37.2 7.13 38.2 15.3 5.29 17.3 6.07 26.3 7.31 6.75 0.932 10.3-1.11 20.4 0.0616 3.09 0.359 14.6-2.07 16.2-3.41 11.6-10.1 18.2-16.7 19.8-19.9 12.2-24.2 13.6-27.5 15-39 0.353-3-3.9-4.1-8.23-3.78-7.28 0.542-14.4-0.138-20 0.498-11.7-0.535-37.4-9.8-47.1-7.15z" fill="#8071e1"/>
  <path d="m110 273c-4.57-0.0261-15.7 0.803-33.4 2.49-12.8 1.22-22 4.57-27.5 10-2.98 2.98 0.61 11.3 10.8 25 4.92 6.64 17.8 17.9 26.5 21.5 6.63 2.72 24.9 27.1 41.8 29 11.5 1.33 27.1-9.51 32.3-12.8 11.1-6.97 16.8-12.6 17.3-16.9 1.01-9.17-4.87-17.8-17.6-26-17.8-3.66-43.4-32.4-50.1-32.4z" fill="#388e45"/>
  <path d="m226 388q4.99-9.78 5.8-9.98 1.43-0.349 18 3.16 29.2 6.19 30.2 6.52 1.78 0.58 4.68 3.08 5.13 4.42 5.87 7.19 1.31 4.9-3.52 21.9-8.53 30.1-22.9 34.8-25.3 8.34-32-0.164-11.9-15-10.8-31.7 1.89-29.4 4.72-34.9z" fill="#71c75f"/>
  <path d="m364 346c2.7-1.59 4.82-2.37 6.37-2.34 1.38 0.0307 2.57 0.587 3.57 1.67 0.893 0.961 1.58 2.44 2.06 4.42 0.43 1.77-3.4 12.6-6.36 33.9-2.63 19 12.9 27.4 4.27 32.2-9.4 5.14-30.5 1.22-42.8-2.57s-30.8 4.25-30.8-17.9c-0.645-2.41 9.63-11.2 30.8-26.5 18.8-13.5 29.8-21.2 32.8-23z" fill="#aaaa86"/>
 </g>
</svg>
