<?xml version="1.0" encoding="UTF-8"?>
<svg width="512px" height="512px" contentScriptType="text/ecmascript" contentStyleType="text/css" version="1.1" viewBox="0 0 512 512" xmlns="http://www.w3.org/2000/svg">
 <g class="voronoi" stroke-width=".5">
  <path d="m184-38.2q0.935-4.35 44.4 2.05 14.9 2.2 14.6 5.84-0.114 1.25-26.3 27.4-8.98 8.98-28.7-14.6-6.75-8.08-4.02-20.8z" fill="#55e3b7" stroke="#55e3b7"/>
  <path d="m15.9-8.25q18.8 10.9 18.9 17.3 0.794 35.2-0.447 35.6-6.81 2.3-13.1-2.58-34.3-26.9-30.4-30.8 21.5-21.5 24.9-19.5z" fill="#000030" stroke="#000030"/>
  <path d="m488 16.4q7.54 0.831 36.5 23.5 11.6 9.05-6.47 27.1-7.2 7.2-33.5-11.9-10.5-7.64-14-31.3-1.4-9.44 17.5-7.36z" fill="#e300b0" stroke="#e300b0"/>
  <path d="m-64.9 150q4.15-4.15 7.53-5.47 8.18-3.19 19.9 13.8 28.3 41.1 27.5 44.8-1.9 8.84-17.2 9.35-36.9 1.24-37.7-16.9-1.77-43.8-0.056-45.6z" fill="#e3554f" stroke="#e3554f"/>
  <path d="m510 273q12.5-12.5 24.7 5.11 25.6 37 24.9 40.9-1.47 8.15-8.3 15-14.3 14.3-15.2 14.7-1.81 0.687-9.45-3.62-16-9.05-18.2-27.4-4.51-38.6 1.46-44.6z" fill="#008e56" stroke="#008e56"/>
  <path d="m11 466c4.47-4.47 9.98-5.74 16.5-3.78 6 1.79 16-5.77 23.1 2.25 6.54 7.37 2.66 27.3-4.8 34.7-6.85 6.85-14.1 8.04-21.8 3.57-7.09-4.11-12.3-10.2-15.7-18.3-3.08-7.43-2.18-13.6 2.68-18.4z" fill="#00e342" stroke="#00e384"/>
  <path d="m502 475q8.69-0.086 16.5 18.9 1.79 4.33-18.9 25-4.73 4.73-26.2 2.36-4.92-0.542-17.7-12.5-2.91-2.74 6.15-27.7 2.07-5.69 40.1-6.07z" fill="#e3e3c7" stroke="#e3e3c7"/>
  <path d="m334 520q10-1.59 15.6 0.78 2.24 0.954 1.66 25.7-0.231 9.94-21.1 30.8-8.38 8.38-16.6 9.88-3.3 0.603-28.9-20.1-10.3-8.32 14.5-33.1 9.97-9.97 34.9-13.9z" fill="#8e00b0" stroke="#8e00b0"/>
  <path d="m11-45.8q6.71-6.71 16.5-3.78 9.01 2.69 19.7 14.7 9.81 11.1-1.37 22.2-10.3 10.3-21.8 3.57-10.6-6.16-15.7-18.3-4.62-11.1 2.68-18.4z" fill="#00e384" stroke="#00e384"/>
  <path d="m502-36.6q8.69-0.086 16.5 18.9 1.79 4.33-18.9 25-4.73 4.73-26.2 2.36-4.92-0.542-17.7-12.5-2.91-2.74 6.15-27.7 2.07-5.69 40.1-6.07z" fill="#e3e3c7" stroke="#e3e3c7"/>
  <path d="m334 7.65c6.68-1.06 11.9-0.801 15.6 0.78 1.49 0.636 2.04 9.19 1.66 25.7-0.154 6.63-7.17 16.9-21.1 30.8-5.59 5.59-12.5-8.48-17.9-7.48-2.2 0.402-10.5 11.1-27.6-2.71-35.1-34.5-2.06-16.6 14.5-33.1 6.65-6.65 18.3-11.3 34.9-13.9z" fill="#8e00b0" stroke="#8e00b0"/>
  <path d="m-34.8 127c0.945-0.945 8.59-4.08 22.9-9.41 6.88 1.62 12.3 5.4 18.1 8.91 3.55 2.15 25.7 6.13 30.3 9.06 2.39 1.53-1.64 6.29-2.79 26.2-5.55 10.1-28.4 23.1-36.5 31.2-1.98 1.98-14.8-14.2-38.3-48.4-3.07-4.46-0.978-10.3 6.27-17.6z" fill="#e338d7" stroke="#e338d7"/>
  <path d="m528 251q0.164-0.444 43.4-11.6 4.1-1.06 14.5 1.98 0.987 0.288 2.88 40.2 0.18 3.79-22.5 26.5-2.16 2.16-36.7-47.7-3.28-4.73-1.55-9.41z" fill="#0071de" stroke="#0071de"/>
  <path d="m31.3 416c3.35 0.74 13.3 3.93 29.8 9.56 5.48 1.87 0.192 10.8-15.9 26.9-5.32 5.32-12.7 6.57-22.1 3.76-3.12-0.932 2.77-11.6 1.59-32.7-0.391-6.99-3.57-9.73 6.53-7.49z" fill="#00c7b9" stroke="#00c7b9"/>
  <path d="m510 410q10-1.69 12.8 1.92 0.679 0.879 2.57 34.8 0.461 8.26-10.8 19.5-2.75 2.75-40.3 3.12-9.16 0.09-13.8-16.3-1.12-3.99 6.59-29.8 1.88-6.3 42.9-13.2z" fill="#e3c7c5" stroke="#e3c7c5"/>
  <path d="m305 454c14.5-2.75 26.3-20.8 30.5 28.2 5.28 19.5 1.82 30.3-10.4 32.2-11.1 1.76-21.4-7.58-31.1-28-8.76-18.6-26.4-29.8 10.9-32.4z" fill="#8ee385" stroke="#8ee385"/>
  <path d="m118 506q33.7 7.07 35.4 22.4 3.92 36.3-4.58 39.2-20.1 6.82-30.2 4.62-23.9-5.18-21.2-24.2 6.38-45 20.7-42z" fill="#380051" stroke="#380051"/>
  <path d="m336-67.4q11.1-11.1 22.3 1.23 24.7 27.3 25.5 37.4 1.66 22.4-7.69 25.2-20.7 6.17-23.1 5.14-5.36-2.29-10.5-21.5-11.5-42.4-6.45-47.4z" fill="#aae354" stroke="#aae354"/>
  <path d="m162-3.96q16.5-16.5 21.8-10.2 21.1 25.3 22.4 33.2 5.1 31.4 1.04 33-16.3 6.44-21.8 5.11-22-5.32-23.2-15.6-4.47-41.3-0.345-45.4z" fill="#55003a" stroke="#55003a"/>
  <path d="m20.6 62.2c5.64-5.64 13.1-10.2 16.7-11.4 1.8-0.609 8.58-15.3 14.2-12.5 17.3 8.6 1.36 31.7-4.27 57.7-2.84 13.1 9.58 28.1-7.84 31.9-8.79 1.93-20.1-1.51-33.8-10.3-6.95-4.44-8.5-13.8-4.66-27.9 1.94-7.16 8.49-16.3 19.7-27.5z" fill="#001ca5" stroke="#001ca5"/>
  <path d="m445 56.7c10.3-10.3 30.7-1.97 37.9 3.27 17.3 12.6 25.1 22 23.4 28.3-4.08 15.1-8.5 23.5-13.3 25.3-11.5 4.26-19.7 1.89-24.7-7.11-12.1-21.6-27.7-45.5-23.4-49.7z" fill="#e31c50" stroke="#e31c50"/>
  <path d="m-68 226q5.65-5.65 22.7-6.23 35.1-1.18 41.1 8.62 12.4 20.2 11.7 21.8-1.27 3.45-7.32 9.5-12.4 12.4-21.6 13.3-18.8 1.71-28.8-13.3-20.7-30.9-17.9-33.7z" fill="#e37157" stroke="#e37157"/>
  <path d="m538 356q0.181-0.068 37.4 24.2 2.71 1.76-25.8 30.3-2.07 2.07-20.9-2.08-1.37-0.302-4.6-4.48-0.235-0.304 10.6-43.8 0.786-3.16 3.28-4.11z" fill="#00aae2" stroke="#00aae2"/>
  <path d="m184 474c0.623-2.9 15.4-2.22 44.4 2.05 9.94 1.46 30.6-1.07 30.4 1.37-0.076 0.833-24.6 14.5-42.1 31.9-5.99 5.99-15.5 1.13-28.7-14.6-4.5-5.39-5.84-12.3-4.02-20.8z" fill="#55e3b7" stroke="#55e3b7"/>
  <path d="m15.9 504q18.8 10.9 18.9 17.3 0.794 35.2-0.447 35.6-6.81 2.3-13.1-2.58-34.3-26.9-30.4-30.8 21.5-21.5 24.9-19.5z" fill="#000030" stroke="#000030"/>
  <path d="m488 528q7.54 0.831 36.5 23.5 11.6 9.05-6.47 27.1-7.2 7.2-33.5-11.9-10.5-7.64-14-31.3-1.4-9.44 17.5-7.36z" fill="#e300b0" stroke="#e300b0"/>
  <path d="m249-31.8c0.046-0.507 6-6.69 17.9-18.5 2.18-2.18 5.04-2.76 8.59-1.74 0.652 0.187 8.75 16.8 24.3 49.7 0.714 1.51 0.727 3.45 0.0396 5.81-5.25 13-7.59 14.1-14.2 17.8-5.55 3.15-13.3 5.47-19 2.55-5.1-2.63-4.97-4.16-8.02-15.2-2.01-7.3-4.35-15.8-7.02-25.5-1.96-7.15-2.82-12.1-2.56-14.9z" fill="#71e3ce" stroke="#71e3ce"/>
  <path d="m42.8-0.691c12.4-12.4 20-18.7 22.8-18.9 18.3-1.37 27.7-1.58 28.1-0.638 3.07 6.21 4.2 12.1 3.4 17.8-0.657 4.63-1.28 8.97-1.86 13-3.77 12.5-0.127 23.2-5.15 34.2-4.15 1.86-18.9-5.94-22.5-7.05-23.8-7.26-26.6-9.36-26.7-13-0.271-12-0.339-7.73-0.00254-14.2 0.336-6.49 0.976-10.2 1.92-11.1z" fill="#1c002b" stroke="#1c002b"/>
  <path d="m528-8.25q18.8 10.9 18.9 17.3 0.794 35.2-0.447 35.6-6.81 2.3-13.1-2.58-34.3-26.9-30.4-30.8 21.5-21.5 24.9-19.5z" fill="#000030" stroke="#000030"/>
  <path d="m12 188c7.45-7.45 16.3-8.02 26.7-1.71 7.89 4.82 13.7 14.7 17.5 29.5 2.87 11.4 4.78 30.1-13.1 34.7-13.7 3.52-33.4-11.2-40.4-22.5-5.3-8.65-7.45-15.3-6.43-20.1 0.777-3.61 6.04-10.3 15.8-20z" fill="#00558e" stroke="#00558e"/>
  <path d="m447 150c2.77-2.77 5.28-4.59 7.53-5.47 5.45-2.13 10 4.86 17.8 16.2 18.9 27.4 30.1 39.9 29.5 42.4-1.27 5.89-6.99 9.01-17.2 9.35-24.6 0.829-37.2-4.79-37.7-16.9-1.18-29.2-1.2-44.4-0.056-45.6z" fill="#e3554f" stroke="#e3554f"/>
  <path d="m-61.8 360q3.51-9.99 35.3-14.7 21.1-3.12 35.3 4.91 9.44 5.33 2.47 33.4-4.62 18.6-35.3 23.8-20.4 3.43-34-18-9.05-14.2-3.76-29.3z" fill="#e3aa96" stroke="#e3aa96"/>
  <path d="m74.1 431c7.6-0.334 11.7-0.146 12.3 0.563 11.1 13.2 16.5 20.4 16.2 21.5-6.07 20.5-11.9 6.18-18.2 8.18-7.11 2.24-14.6 5.11-22 4.19-3.01-0.375-7.42-0.926-8.26-3.85-3.34-11.7 19.5-30.5 19.9-30.5z" fill="#1ce37a" stroke="#1ce318"/>
  <path d="m523 466q6.71-6.71 16.5-3.78 9.01 2.69 19.7 14.7 9.81 11.1-1.37 22.2-10.3 10.3-21.8 3.57-10.6-6.16-15.7-18.3-4.62-11.1 2.68-18.4z" fill="#00e384" stroke="#00e384"/>
  <path d="m380 514q7.9-2.36 27.9 4.41 7.15 2.42 3.42 40.8-1.33 13.7-11.2 23.6-3.53 3.53-32.7-19.4-10.4-8.19-9.81-33.7 0.212-9.12 22.3-15.7z" fill="#aa00b5" stroke="#aa00b5"/>
  <path d="m136-66.2q29-7.27 29.4-7.18 0.408 0.092 6.26 13.8 6.57 15.4 4.85 23.4-1.94 9.01-11.7 18.7-10.9 10.9-33.5 6.19-25.4-5.33-27.9-10.4-2.8-5.68 1.71-21 5.08-17.2 30.9-23.6z" fill="#38e378" stroke="#38e378"/>
  <path d="m-23.9 16.4q7.54 0.831 36.5 23.5 11.6 9.05-6.47 27.1-7.2 7.2-33.5-11.9-10.5-7.64-14-31.3-1.4-9.44 17.5-7.36z" fill="#e300b0" stroke="#e300b0"/>
  <path d="m444 0.482c2.83-1.06 8.64 2.55 17.5 10.8 1.62 1.53 3.82 11.6 6.6 30.2 0.512 3.44-14-0.0969-26.3 12.2-2.27 2.27-3.54 12.7-21 8.6-3.22-0.765-3.4-15.8-0.556-45.1 0.525-5.41 8.45-11 23.8-16.8z" fill="#c700ce" stroke="#c700ce"/>
  <path d="m578 129q2.13-0.467 13.4 10.7 0.644 0.639 0.636 20.9 0 1.16-24.4 25.6-1.4 1.4-27.3-14.4-1.48-0.903 0.362-32.8 0.105-1.83 37.3-9.99z" fill="#0038e5" stroke="#0038e5"/>
  <path d="m-1.55 273c8.35-8.35 16.6-6.64 24.7 5.11 17.1 24.7 25.4 38.3 24.9 40.9-0.981 5.44 11.8 21.6 7.23 26.2-9.56 9.56-20.5 4.78-30.7 3.48-3.35-0.427-4.36-0.75-9.45-3.62-10.7-6.03-16.7-15.2-18.2-27.4-3.01-25.7-2.52-40.6 1.46-44.6z" fill="#008e56" stroke="#008e56"/>
  <path d="m455 297c10.4-10.4 34.9-20.2 42.8-20.9 10.6-0.97 1.56 11 3.46 27.2 2.54 21.8 11.3 33.9-3.81 36.1-20.2 2.99-46.9 0.878-50.1-6.11-4.32-9.36-6.12-15.6-5.4-18.6 0.961-4.06 5.31-9.95 13-17.7z" fill="#e38eaa" stroke="#e38e6e"/>
  <path d="m-10.5 475q8.69-0.086 16.5 18.9 1.79 4.33-18.9 25-4.73 4.73-26.2 2.36-4.92-0.542-17.7-12.5-2.91-2.74 6.15-27.7 2.07-5.69 40.1-6.07z" fill="#e3e3c7" stroke="#e3e3c7"/>
  <path d="m417 437c18.6 2.94 32 0.433 33 3.72 2.89 10.3 6.31 35.2 4.51 40.2-5.62 15.5-10.6 24-15 25.7-13.8 5.17-22.8 7.01-27.2 5.52-13.7-4.64-20.8-9.59-21.2-14.8-1.22-16.4 0.217-26.7 4.31-30.8 12.8-12.8 15.7-30.4 21.6-29.5z" fill="#c7e344" stroke="#c7e344"/>
  <path d="m246 492q17.8 64.9 16.6 65.4-18.6 8.02-20.3 7.83-26.3-3.02-26.7-5.37-5.99-36.9-3.88-39 33.1-33.1 34.2-28.9z" fill="#71001a" stroke="#71001a"/>
  <path d="m74.1-81.4q11.4-0.501 12.3 0.563 16.7 19.8 16.2 21.5-9.1 30.8-10.7 30.9-30 2.24-31 1.07-19.4-21.9-17.8-23.5 30.4-30.4 31-30.5z" fill="#1ce318" stroke="#1ce318"/>
  <path d="m523-45.8q6.71-6.71 16.5-3.78 9.01 2.69 19.7 14.7 9.81 11.1-1.37 22.2-10.3 10.3-21.8 3.57-10.6-6.16-15.7-18.3-4.62-11.1 2.68-18.4z" fill="#00e384" stroke="#00e384"/>
  <path d="m380 2.27c5.27-1.57 14.6-0.102 27.9 4.41 4.77 1.61 5.91 15.2 3.42 40.8-0.887 9.14-13 1.42-19.6 8.01-2.35 2.35-9.16 6.38-28.6-8.9-6.93-5.46-5.87-11.6-5.48-28.6 0.141-6.08 7.59-11.3 22.3-15.7z" fill="#aa00b5" stroke="#aa00b5"/>
  <path d="m65.6 129c1.42-0.311 5.88 3.26 13.4 10.7 0.429 0.426 0.641 7.4 0.636 20.9 0 0.774-8.14 9.3-24.4 25.6-0.932 0.931 0.38 2.51-16.9-8.02-0.986-0.602 4.9-17.8 6.12-39.1 0.07-1.22-3.66-4.63 21.1-10.1z" fill="#00386f" stroke="#0038e5"/>
  <path d="m477 127c0.945-0.945 8.59-4.08 22.9-9.41 1.87-0.694 12 4.82 30.3 16.5 2.39 1.53 3.01 12.2 1.86 32.2-0.149 2.59-7.83 11.5-23 26.7-1.98 1.98-20.1-19.1-43.6-53.3-3.07-4.46 4.34-5.4 11.6-12.7z" fill="#e338d7" stroke="#e338d7"/>
  <path d="m-57.4 297q15.5-15.5 27.5-16.6 16-1.46 18.8 22.9 3.81 32.6-18.8 36-30.3 4.48-35.1-6-6.48-14-5.4-18.6 1.44-6.09 13-17.7z" fill="#e38e6e" stroke="#e38e6e"/>
  <path d="m543 416q5.02 1.11 29.8 9.56 8.22 2.8-15.9 26.9-7.98 7.98-22.1 3.76-4.68-1.4-6.45-33.1-0.586-10.5 14.6-7.14z" fill="#00c7b9" stroke="#00c7b9"/>
  <path d="m337 439c7.4-7.4 13.5 11.9 20.9 20.1 16.5 18.2 25.5 17.2 26 24 1.11 14.9-1.45 23.3-7.69 25.2-13.8 4.11-21.5 5.83-23.1 5.14-3.58-1.53-7.09-8.68-10.5-21.5-7.64-28.3-8.96-49.6-5.62-52.9z" fill="#aae354" stroke="#aae354"/>
  <path d="m162 508q16.5-16.5 21.8-10.2 21.1 25.3 22.4 33.2 5.1 31.4 1.04 33-16.3 6.44-21.8 5.11-22-5.32-23.2-15.6-4.47-41.3-0.345-45.4z" fill="#55003a" stroke="#55003a"/>
  <path d="m-10.5-36.6q8.69-0.086 16.5 18.9 1.79 4.33-18.9 25-4.73 4.73-26.2 2.36-4.92-0.542-17.7-12.5-2.91-2.74 6.15-27.7 2.07-5.69 40.1-6.07z" fill="#e3e3c7" stroke="#e3e3c7"/>
  <path d="m424-62.8q27.9 4.4 29.3 9.34 4.33 15.4 1.63 22.9-8.44 23.2-15 25.7-20.6 7.75-27.2 5.52-20.6-6.96-21.2-14.8-1.83-24.6 4.31-30.8 19.2-19.2 28.1-17.8z" fill="#c7e344" stroke="#c7e344"/>
  <path d="m246-19.7c2.97 10.8 5.54 20.3 7.72 28.4 2.18 8.14 3.96 14.9 5.34 20.4 2.77 10.9 6.98 12.1 3.56 16.6-2.68 3.54-8.89 1.37-13.3 0.839-6.25-0.755-17.8-4.07-18-5.64-2-12.3-16.9-6.04-17.5-12.5-0.646-6.5-2.68-18.5-1.97-19.2 22-22 33.4-31.7 34.2-28.9z" fill="#71001a" stroke="#71001a"/>
  <path d="m533 62.2q8.46-8.46 13.8-10.3 2.7-0.914 30.1 7.43 13.8 4.21 5.35 43.2-4.26 19.7-30.4 25.4-13.2 2.89-33.8-10.3-10.4-6.66-4.66-27.9 2.9-10.7 19.7-27.5z" fill="#001ca5" stroke="#001ca5"/>
  <path d="m63.5 245c2.32-2.76 3.02-6.22 9.96-4.2 0.658 0.192 1.62 13.6 2.88 40.2 0.12 2.53-7.39 11.4-22.5 26.5-1.44 1.44-38.9-42.3-36.7-47.7 1.35-3.3 36.6-3.15 46.4-14.8z" fill="#0071a7" stroke="#0071de"/>
  <path d="m466 239c3.77-3.77-10.4-19.1 0.984-19.5 23.4-0.788 37.1 2.08 41.1 8.62 8.24 13.4 12.2 20.7 11.7 21.8-0.849 2.3-3.29 5.46-7.32 9.5-8.29 8.29-15.5 12.7-21.6 13.3-12.5 1.14-22.1-3.3-28.8-13.3-13.8-20.6 2-18.6 3.84-20.4z" fill="#e37157" stroke="#e37157"/>
  <path d="m-2.49 410c6.67-1.12 10.9-0.486 12.8 1.92 0.453 0.586 8.44 3.99 9.7 26.6 0.307 5.51-10.4 20.2-17.9 27.7-1.83 1.83-15.3 2.87-40.3 3.12-6.11 0.06-10.7-5.37-13.8-16.3-0.747-2.66 1.45-12.6 6.59-29.8 1.25-4.2 15.6-8.6 42.9-13.2z" fill="#e3c7c5" stroke="#e3c7c5"/>
  <path d="m278 477c0.652 0.187 5.4-0.43 20.9 32.5 2.86 6.05-5.5 18.9-25.1 38.4-3.6 3.6-5.87 5.39-6.83 5.38-0.176-2e-3 -5.6-19.5-16.3-58.4 7.1-9.73 20.3-17.1 27.2-18z" fill="#71e3ce" stroke="#71e3ce"/>
  <path d="m42.8 511c12.4-12.4 16.3-39.3 23.6-39.7 18.3-1.37 26.1-4.65 26.5-3.71 3.07 6.21 5.02 36 4.22 41.6-5.26 37-8.2 55.7-8.83 56-4.15 1.86-8.03 2.23-11.7 1.13-23.8-7.26-35.8-12.7-35.8-16.4-0.543-24.1 0.13-37 2.02-38.9z" fill="#1c002b" stroke="#1c002b"/>
  <path d="m528 504q18.8 10.9 18.9 17.3 0.794 35.2-0.447 35.6-6.81 2.3-13.1-2.58-34.3-26.9-30.4-30.8 21.5-21.5 24.9-19.5z" fill="#000030" stroke="#000030"/>
  <path d="m305-58q21.8-4.12 30.5 28.2 7.92 29.3-10.4 32.2-16.6 2.64-31.1-28-13.1-27.8 10.9-32.4z" fill="#8ee385" stroke="#8ee385"/>
  <path d="m118-6.21c22.5 4.71 34.3 12.2 35.4 22.4 2.62 24.2-3.45 16.7-9.12 18.6-13.4 4.54-19.6 12.3-26.3 10.9-16-3.45-22.4 2.78-20.6-9.91 4.26-30 11.1-44 20.7-42z" fill="#380051" stroke="#380051"/>
  <path d="m-54.8 67.6q15.5-15.5 26.3-7.59 26 18.9 23.4 28.3-6.12 22.6-13.3 25.3-17.2 6.38-24.7-7.11-18.1-32.5-11.7-38.9z" fill="#e31c50" stroke="#e31c50"/>
  <path d="m524 188q11.2-11.2 26.7-1.71 11.8 7.23 17.5 29.5 4.3 17-22.6 24-20.5 5.28-30.9-11.7-7.96-13-6.43-20.1 1.16-5.41 15.8-20z" fill="#00558e" stroke="#00558e"/>
  <path d="m26.2 356c0.121-0.0453 12.6 8.01 37.4 24.2 1.81 1.17-2.64 17.1-0.966 39.5 0.146 1.95-33.2-8.52-45.7-11.3-0.913-0.201-2.45-1.7-4.6-4.48-0.157-0.203 3.37-14.8 10.6-43.8 0.524-2.11 1.62-3.48 3.28-4.11z" fill="#00aa57" stroke="#00aae2"/>
  <path d="m481 372c2.34-6.66-16.3-23.6 4.93-26.8 14.1-2.08 25.8-0.445 35.3 4.91 6.29 3.55 7.11 14.7 2.47 33.4-3.08 12.4-14.9 20.3-35.3 23.8-13.6 2.29-15.3 7.75-24.4-6.56-6.03-9.49 13.4-18.7 17-28.7z" fill="#e3aa96" stroke="#e3aa96"/>
  <path d="m136 446c6.32-1.85 13.2 0.421 19.7 1.68 5.46 1.07 12-4.2 15.9 4.94 4.38 10.3 6.12 21.7 4.97 27.1-1.29 6.01-11.5 22.9-20.6 23.6-13.1 1.08-9.62 0.814-24.7-2.35-16.9-3.55-26.2-7.01-27.9-10.4-1.87-3.79-1.3-10.8 1.71-21 3.38-11.4 18.4-20 30.9-23.6z" fill="#38e336" stroke="#38e378"/>
  <path d="m-23.9 528q7.54 0.831 36.5 23.5 11.6 9.05-6.47 27.1-7.2 7.2-33.5-11.9-10.5-7.64-14-31.3-1.4-9.44 17.5-7.36z" fill="#e300b0" stroke="#e300b0"/>
  <path d="m444 512q4.24-1.59 17.5 10.8 2.44 2.29 6.6 30.2 0.768 5.16-17.7 23.6-3.41 3.41-29.6-2.81-4.82-1.15-0.556-45.1 0.787-8.12 23.8-16.8z" fill="#c700ce" stroke="#c700ce"/>
  <path d="m91.8 61.8c11.5 4.19 13.9 5.54 35.3 10.2 1.33 0.287 1.12 9.99 5.01 35.9 0.242 1.61-3.81 10.2-12.2 25.8-0.517 0.965-11.7 1.5-33.7 1.6-1.36 7e-3 -26.1-9.75-30.7-21.3-7.82-19.7 9.85-42.6 13.2-62.3 0.906-5.31 15.1 7.32 23 10.2z" fill="#1c1ce4" stroke="#1c1ce4"/>
  <path d="m330 153q22.8-17.6 23.4-17.8 15.9-7.27 16.7-6.36 24.6 27.9 24.1 28.8-15.7 29.3-15.9 29.3-6.2-0.972-7.54-1.99-41.4-31.4-40.6-32z" fill="#aa3813" stroke="#aa3813"/>
  <path d="m242 159c-6.04 0.106-14.4 2.96-25.1 8.57-17.1 4.21-14 1.55-29-1.52-3.35-0.663-10.8 1.65-22.2 6.94-2.31 1.07-17.9 4.62-14.3 9.01 12.7 15.7 15.4 22 23.1 33.3 8.25 12 33.9 7.15 43.5 22.1 1.65 1.83 18-10.6 49.1-37.4 8.82-7.58 12.9-13.9 12.2-18.9-0.187-1.42-10.4-8.27-30.6-20.6-1.79-1.09-4.06-1.61-6.8-1.56z" fill="#555539"/>
  <path d="m354 261q1.66 0.462 9.11 9.45 1.06 1.28 1.63 28.7 0.081 3.89-47.6 24.1-6.78 2.88-7.84-12.9-0.15-2.24 28.9-46.3 4.13-6.26 15.8-3.02z" fill="#8e8ed5" stroke="#8e8ed5"/>
  <path d="m158 345q11.4-2.16 21.8 42.6 2.98 12.7 0.806 17.8-0.618 1.43-5.29 5.71-1.33 1.22-46.7-30.5-12.9-9.03-11.2-23.7 0.5-4.18 40.5-11.8z" fill="#38aabf" stroke="#38aabf"/>
  <path d="m392 398c7.75-7.46 16-12.3 24.9-14.4 14.5-3.51 24.6-0.763 30.4 8.25 9.41 14.8 12.9 26.2 10.5 34.4-3.97 13.3-11.1 5.36-20.4 3.89-15.3-2.41-26.2 5.78-33.8-3.19-12.4-14.7-16.2-24.4-11.5-28.9z" fill="#c7c77c" stroke="#c7c763"/>
  <path d="m265 51.8c2.37-1.02 4.02-1.53 4.95-1.52 0.205 0.0027 10.1 7.93 29.8 23.8 4.31 3.48 6.26 7.17 5.85 11.1-0.0893 0.856-1.23 5.31-3.43 13.4-0.481 1.77-14.5 7.02-42.2 15.8-6.06 1.92-8.94-6.7-10.1-38.6-0.249-7 14.4-5.48 15.1-23.9z" fill="#711cc8" stroke="#711cc8"/>
  <path d="m85.7 143q0-1.15 33.1-1.31 1.88-9e-3 27.3 28.6 1.44 1.63-0.365 5.7-0.102 0.231-28.6 27-1.62 1.52-29.8-37.5-1.6-2.21-1.59-22.5z" fill="#1c38e5" stroke="#1c38e5"/>
  <path d="m372 193q4.7 0.738 5.94 3.93 3.43 8.87-3.13 21.8-18.2 36-21.8 35-9.81-2.73-17.4-7.16-21-12.3-22.4-17-3.64-12.9 12.4-19.2 44.6-17.7 46.3-17.4z" fill="#aa5549" stroke="#aa5549"/>
  <path d="m157 240q25.7-10.8 33.7-9.34 13.5 2.4 17.7 7.02 7.02 7.78 7.96 13.9 1.59 10.2-19.9 17.2-36.2 11.7-43.1-0.994-11.6-21.3 3.63-27.7z" fill="#557162" stroke="#557162"/>
  <path d="m294 385q13.4-29.7 19.8-25.3 18.1 12.8 23.6 22.3 15.5 27.2 13.4 30.7-6.1 9.96-20.5 2.88-41-20.2-36.3-30.6z" fill="#8eaa48" stroke="#8eaa48"/>
  <path d="m96.4 391q15.6-15.6 23.6-10.1 50.3 35.2 49.4 37.5-6.21 14.7-13.8 16.5-47.9 12-50.3 9.15-15.2-18-14.7-22.5 3.28-28.2 5.75-30.7z" fill="#38c72c" stroke="#38c72c"/>
  <path d="m194 70.1c0.143-3.43 6-7.43 17.6-12 1.97-0.781 12.2 14.3 28.1 16.2 2.72 0.311 3.43 2.5 4.61 35.7 0.201 5.66-1.53 15.7-5.19 30.1-0.623 2.45-13.9-8.69-39.8-33.4-4.41-4.21-6.19-16.4-5.36-36.5z" fill="#551cd0" stroke="#551cd0"/>
  <path d="m303 162q3.39-3.13 17.6-5.41 2.86-0.457 38.4 26.5 7.14 5.41-43.4 25.4-10.1 4.02-25.3-17.1-3.04-4.23-4.1-12.3-0.211-1.61 16.7-17.2z" fill="#8e55cb" stroke="#8e55cb"/>
  <path d="m126 245q9.98 5.06 14.1 12.7 14.4 26.3 14 27.7-1.46 4.62-9.74 7.74-28.7 10.8-29.4 10.1-2.46-2.51-0.085-15.3 8.23-44.3 11.1-42.9z" fill="#387140" stroke="#387140"/>
  <path d="m375 272q35.2-5.8 38.3-1.01 23.1 36.2 22.8 37.5-2.22 9.39-8.48 9-47.2-2.9-48.3-4.13-8.3-9.3-8.37-13-0.576-27.6 4.09-28.4z" fill="#c78e27" stroke="#c78e27"/>
  <path d="m222 322c-9.7 3.78-39.8 9.13-46.8 14.6-1.05 1.91-0.662 6.77 1.16 14.6 2.26 17.4 15.5 40.1 10.3 57-0.276 0.639 20.6 8.97 62.8 25 7.34 2.79 10.1-13 15-19.5 2.77-3.71 2.62-6.79 8.17-11.2 7.09-6.5 12.3-13.5 15.7-20.9 8.74-19.3 12.7-29.9 11.9-31.6-2.06-4.47-7.47-7.35-16.2-8.62-13.9-2.04-24.9-2.64-31.9-1.32-3.01-6.65-23.4-17.8-30.1-18z" fill="#63aabb"/>
  <path d="m70.6 384c12.1 5.73 18.2 8.65 18.2 8.76-2.52 21.7-3.79 32.5-3.84 32.5-7.97 0.35-8.91 2.92-12.1 0.468-5.88-4.49-4.68-14.2-5-21.6-0.299-6.76 2.75-20.1 2.82-20.1z" fill="#1cc70d" stroke="#1cc70d"/>
  <path d="m402 81.7c0.0607-0.232 3.01-3.26 8.84-9.1 3.11-3.11 15.3-8.97 28.8-5.76 7.18 1.71 12.4 18.5 23.6 38.4 5.96 10.7 6.26 18.7 0.914 24-2.85 2.85-6.79 5.26-11.8 7.22-2.68 1.05-14.1-10.5-34.3-34.8-10.8-12.9-16.1-19.6-16-20z" fill="#c71ca2" stroke="#c71ca2"/>
  <path d="m301 128q1.33 27.1-7.37 35.2-11.6 10.7-28.3 0.55-22.2-13.5-22.3-14.1-0.092-0.793 2.66-11.6 3.67-14.4 25.4-21.3 28.9-9.13 29.9 11.3z" fill="#71386f" stroke="#71386f"/>
  <path d="m93.3 183q18.9 26.1 16.8 32.6-3.52 11.2-14 14.7-18.2 6.09-22.4 4.88-7.23-2.11-10.9-16.5-6.3-25 3.14-34.4 16.4-16.4 27.3-1.32z" fill="#1c55a7" stroke="#1c5560"/>
  <path d="m407 217c17.1 7.48 17.5 10.8 17.5 11-0.0253 0.233 4.77 5.6-2.04 15.1-8.41 11.7-18.6 18.5-30.5 20.5-14.7 2.42-23.3 2.1-25.9-0.962-3.13-3.78-1.01-13 6.39-27.6 9.13-18 20.6-24 34.5-18z" fill="#aa7173" stroke="#aa7173"/>
  <path d="m161 286q0.187-0.592 52.1-17.4 5.74-1.85 14.7 9.64 0.987 1.27 2.37 32.3 0.153 3.42-49.6 18.8-5.5 1.7-19.7-34-1.57-3.95 0.122-9.3z" fill="#558edb" stroke="#558edb"/>
  <path d="m276 409q10.4-9.56 26.6-1.6 39.2 19.3 39 19.8-0.431 1.22-5.13 5.92-11.4 11.4-24.8 13.9-32.5 6.13-34.3 5.61-4.47-1.28-5.81-4.56-3.27-7.97-2.27-15.9 2.42-19.3 6.71-23.2z" fill="#8ec74f" stroke="#8ec74f"/>
  <path d="m156 59.7q5.4-1.83 27.7 3.56 5.2 1.26 4.01 29.9-0.277 6.68-12.7 22.5-2.89 3.68-29.8-4.78-6.26-1.97-11.3-35.5-1.17-7.81 22-15.7z" fill="#381cc6" stroke="#381cc6"/>
  <path d="m378 105c13.6-13.6 20.1-22.6 25.3-14.4 5.71 8.98 13.8 17.9 25.3 32 6.35 7.69-5.36 22.9-14.8 26.9-8.13 3.48-18.3-1.9-25.6-6.83-6.84-4.59-15.1-18.4-14.9-19.7 1.51-10.4 3.08-16.4 4.7-18z" fill="#c73825" stroke="#c73825"/>
  <path d="m104 233q3.79-1.27 14 7.12 1.56 1.27-7.65 50.8-1.4 7.53-25.6-4.11-3.67-1.77-5.47-39.7-0.274-5.77 24.6-14.1z" fill="#1c71d3" stroke="#1c71d3"/>
  <path d="m333 321q31.2-13.2 35.2-8.75 5.38 6.03 4.58 15.2-1.07 12.3-17.9 23.9-22.5 15.6-33 8.21-14-9.87-15.9-13.8-2.45-5.32 0.127-9.42 3.46-5.5 26.7-15.4z" fill="#aa8e6e" stroke="#aa8e6e"/>
  <path d="m307 99.4q2.18-7.99 20 11 21.1 22.4 10.3 30.7-12.8 9.83-20.6 11.1-9.27 1.48-10.3-20.3-1.26-25.8 0.58-32.5z" fill="#8e3875" stroke="#8e3875"/>
  <path d="m135 194q13-12.2 30 13.4 12.9 19.4-10.4 29.1-17.6 7.4-25 3.7-5.54-2.81-12.3-8.3-5.09-4.16-1.93-14.2 2.39-7.63 19.5-23.7z" fill="#38558f" stroke="#38558f"/>
  <path d="m428 253c4.15-5.76 16-9.99 30.8 12.1 5.53 8.28 1.72 19-11.4 32.2-4.93 4.93-23.3-11.3-26.4-22.5-2.09-7.36-3.98-6.45 7.1-21.8z" fill="#c771b3" stroke="#c771b3"/>
  <path d="m277 271q6.77-1.69 22.6 33.7 2.63 5.88 3.67 21.3 0.172 2.56-5 10.8-0.859 1.37-41.4-4.56-6.74-0.985-17.3-14.4-1.76-2.24-3.07-31.8-0.218-4.9 40.5-15.1z" fill="#718ed1" stroke="#718ed1"/>
  <path d="m60 352c9.51-9.51-1.25-19 10.7-15.6 24.8 6.85 37.4 10.7 37.9 11.4 1.02 1.59 1.29 4.44 0.798 8.55-1.01 8.48-3.49 14.7-7.43 18.6-8.14 8.14-14.2 11.3-18.2 9.39-8.2-3.88-16.7-8.65-25.3-14.3-18-11.7-3.11-13.5 1.49-18.1z" fill="#1caaa3" stroke="#1caa57"/>
  <path d="m349 427c0.0667-0.189 2.39-4.03 6.98-11.5 0.904-1.47 7.62-3.92 20.1-7.34 2.47-0.673 12 8.89 28.7 28.7 3.28 3.9-6.73 20.1-20.8 34.3-2.78 2.78-13.9-9.32-34-31.4-3.94-4.34-1.38-11.8-1.05-12.7z" fill="#aac7cc" stroke="#aac7cc"/>
  <path d="m307 72.1c0.0313-0.301-0.389-8.1 6.79-9.41 0.485-0.0887 23.4 24.9 52 40.9 1.93 1.08 2.1 7.08 0.512 18-0.107 0.737-5.28 3.45-15.5 8.14-0.692 0.317-13.2-12.5-37.6-38.3-1.65-1.75-6.64-14.8-6.18-19.3z" fill="#8e1ce3" stroke="#8e1ce3"/>
  <path d="m144 116q27 8.5 27.2 15 0.879 28.6-2.94 30.4-16.9 7.77-21.8 2.19-21.9-24.7-19.4-29.2 10.8-20.2 17-18.3z" fill="#383837" stroke="#383837"/>
  <path d="m413 158q27.1-4.96 27.9 15.5 1.67 41.4-1.01 44.1-5.42 5.42-20.8-1.3-31.1-13.6-32.7-17.6-3.12-8.07 2.26-18.1 10.9-20.3 24.3-22.7z" fill="#c75558" stroke="#c75558"/>
  <path d="m300 217q1.09 1.52 5.74 18 0.296 1.05-21.4 25.3-1.38 1.54-46.1 12.7-2.84 0.71-12.2-11.3-0.594-0.763-2.98-16.1-0.151-0.974 56.2-49.4 3.58-3.08 20.7 20.7z" fill="#7171e4" stroke="#7171e4"/>
  <path d="m95.3 298q12.7 6.13 14.4 7.88 1.45 1.48-0.116 20.8-1.32 16.2-31.3 7.95-25.2-6.97-24-13.5 0.993-5.5 14.5-19 11.4-11.4 26.5-4.08z" fill="#1c8e89" stroke="#1c8e89"/>
  <path d="m390 370q8.04 14-4.08 25.7-6.58 6.33-21.2 10.3-7.91 2.16-21.5-21.7-7.37-12.9 18.1-30.5 13.8-9.56 28.6 16.2z" fill="#aaaaa1" stroke="#aaaaa1"/>
  <path d="m178 421c0.609-1.44 2.66-3.75 6.16-6.95 0.509-0.465 22.4 7.51 65.5 23.9 6.28 2.39 20.1 22.2 22.8 28.8 0.391 0.953-18 4.12-27.1 4.46-17.9 0.656-19.7 0.173-53.6-4.83-4.95-0.728-11.1-9.66-18.4-26.8-1.06-2.49 0.499-8.68 4.69-18.6z" fill="#55c7d5" stroke="#55c7d5"/>
  <path d="m359 50.7c18.5 14.6 31.2 22.5 33 33.6 0.0815 0.478-6.46 5.28-11 9.78-10.7 10.7-13.4 6.27-22.4 1.2-21.4-12-29.3-20.9-23.5-26.7 13.7-13.7 16-24 23.8-17.8z" fill="#aa1c50" stroke="#aa1c50"/>
  <path d="m185 113q5.88-7.49 33.8 19.2 17.5 16.7 17.6 17.6 0.062 0.534-18.3 10.2-11.5 6.04-29.9 2.39-11.5-2.28-12.2-23.9-0.415-13.5 9-25.5z" fill="#553899" stroke="#553899"/>
  <path d="m292 260q18.5-20.8 24.2-17.5 23 13.5 16.5 23.3-26.7 40.5-30.3 32.4-14.9-33.2-10.3-38.3z" fill="#8e7139" stroke="#8e7139"/>
  <path d="m132 303q21.9-8.26 28.3 7.89 9.35 23.5 8.55 25-1.17 2.14-22.1 6.1-30.5 5.78-31.4 4.33-1.35-2.1-0.178-16.6 1.71-21.1 16.8-26.7z" fill="#388e6a" stroke="#388e6a"/>
  <path d="m380 340c1.17-13.5 2.81-20.2 4.91-20.1 33.6 2.06 50.6 3.57 51 4.54 7.1 15.4 6.06 19.9 14.6 22.2 14.7 3.88 29.1 10.4 18.3 29.9-5.38 9.67-25.7-1.45-38.6-0.918-9.65 0.402-27.9 4.66-28.8 3.1-14.3-25-21.5-37.9-21.4-38.7z" fill="#c7aa1a" stroke="#c7aa1a"/>
  <path d="m246-19.7c2.97 10.8 5.54 20.3 7.72 28.4 2.18 8.14 3.96 14.9 5.34 20.4 2.77 10.9 6.98 12.1 3.56 16.6-2.68 3.54-8.89 1.37-13.3 0.839-6.25-0.755-17.8-4.07-18-5.64-2-12.3-16.9-6.04-17.5-12.5-0.646-6.5-2.68-18.5-1.97-19.2 22-22 33.4-31.7 34.2-28.9z" fill="#71001a" stroke="#71001a"/>
  <path d="m231 45.4c8.34 3.77 18.6 3.01 24.2 9.63 1.96 2.31 3.17 6.1 1.95 8.87-1.75 3.95-6.93 6.47-11.2 6.43-12.9-0.12-32.2-14.3-33.2-19.8-0.646-6.5 0.961-14.2 5.51-14.5 5.92-0.377 6.64 6.6 12.8 9.38z" fill="#71001a" stroke="#71001a"/>
  <path d="m411 58.5c2.84 3.27-0.0821 9.58-3.19 12.6-3.82 3.71-11.6 6.96-15.6 3.45-17.1-15-1.61-10.9 1.8-14.2 4.06-3.99 13.3-6.12 17-1.82z" fill="#aa1c50" stroke="#aa1c50"/>
  <path d="m438 130c4.27 6.89 6.44 10.4 6.49 10.6 1.58 4.64 0.279 4.3-0.67 6.13-1.98 3.8-5.42 7.96-9.67 8.47-4.71 0.571-17.4-0.614-12.6-6.54 0.457-1.7 4.52-4.27 6.61-6.57 3.49-3.84 2.45-7.75 9.87-12.1z" fill="#aa3813" stroke="#aa3813" stroke-width=".211"/>
  <path d="m452 214c3.76-8e-3 6.95 8.72 6.93 8.91-0.0253 0.233 1.88 7.19 0.567 10.4-2.3 5.63-1.59 10.3-13.5 12.3-14.7 2.42-15 2.13-16.9-3.29-1.86-5.31 7.4-8.48 10.9-12.8 4.11-5.06 5.43-15.5 11.9-15.5z" fill="#aa7120" stroke="#aa7173"/>
  <path d="m152 38.2c3.47 0.837 7.28-2.6 7.82 16.7-23.8 4.51-26.2 16.4-39.3 12.2-6.78-2.15-31.1-8.69-13-16.9 29 0.466 28.7-12 44.5-12z" fill="#381cc6" stroke="#381cc6"/>
 </g>
</svg>
