<?xml version="1.0" encoding="UTF-8" standalone="no"?>
<svg
   width="512px"
   height="512px"
   contentScriptType="text/ecmascript"
   contentStyleType="text/css"
   version="1.1"
   viewBox="0 0 512 512"
   id="svg224"
   sodipodi:docname="FF1.svg"
   inkscape:version="1.1.2 (0a00cf5339, 2022-02-04)"
   xmlns:inkscape="http://www.inkscape.org/namespaces/inkscape"
   xmlns:sodipodi="http://sodipodi.sourceforge.net/DTD/sodipodi-0.dtd"
   xmlns="http://www.w3.org/2000/svg"
   xmlns:svg="http://www.w3.org/2000/svg">
  <defs
     id="defs228" />
  <sodipodi:namedview
     id="namedview226"
     pagecolor="#ffffff"
     bordercolor="#000000"
     borderopacity="0.25"
     inkscape:pageshadow="2"
     inkscape:pageopacity="0.0"
     inkscape:pagecheckerboard="0"
     showgrid="false"
     inkscape:zoom="3.9719514"
     inkscape:cx="81.823761"
     inkscape:cy="69.613138"
     inkscape:window-width="2490"
     inkscape:window-height="1376"
     inkscape:window-x="0"
     inkscape:window-y="0"
     inkscape:window-maximized="1"
     inkscape:current-layer="svg224" />
  <g
     class="voronoi"
     stroke-width=".5"
     id="g222">
    <path
       d="m184-38.2q0.935-4.35 44.4 2.05 14.9 2.2 14.6 5.84-0.114 1.25-26.3 27.4-8.98 8.98-28.7-14.6-6.75-8.08-4.02-20.8z"
       fill="#55e3b7"
       stroke="#55e3b7"
       id="path2" />
    <path
       d="m15.9-8.25q18.8 10.9 18.9 17.3 0.794 35.2-0.447 35.6-6.81 2.3-13.1-2.58-34.3-26.9-30.4-30.8 21.5-21.5 24.9-19.5z"
       fill="#000030"
       stroke="#000030"
       id="path4" />
    <path
       d="m488 16.4q7.54 0.831 36.5 23.5 11.6 9.05-6.47 27.1-7.2 7.2-33.5-11.9-10.5-7.64-14-31.3-1.4-9.44 17.5-7.36z"
       fill="#e300b0"
       stroke="#e300b0"
       id="path6" />
    <path
       d="m-64.9 150q4.15-4.15 7.53-5.47 8.18-3.19 19.9 13.8 28.3 41.1 27.5 44.8-1.9 8.84-17.2 9.35-36.9 1.24-37.7-16.9-1.77-43.8-0.056-45.6z"
       fill="#e3554f"
       stroke="#e3554f"
       id="path8" />
    <path
       d="m510 273q12.5-12.5 24.7 5.11 25.6 37 24.9 40.9-1.47 8.15-8.3 15-14.3 14.3-15.2 14.7-1.81 0.687-9.45-3.62-16-9.05-18.2-27.4-4.51-38.6 1.46-44.6z"
       fill="#008e56"
       stroke="#008e56"
       id="path10" />
    <path
       d="m11 466q6.71-6.71 16.5-3.78 9.01 2.69 19.7 14.7 9.81 11.1-1.37 22.2-10.3 10.3-21.8 3.57-10.6-6.16-15.7-18.3-4.62-11.1 2.68-18.4z"
       fill="#00e384"
       stroke="#00e384"
       id="path12" />
    <path
       d="m502 475q8.69-0.086 16.5 18.9 1.79 4.33-18.9 25-4.73 4.73-26.2 2.36-4.92-0.542-17.7-12.5-2.91-2.74 6.15-27.7 2.07-5.69 40.1-6.07z"
       fill="#e3e3c7"
       stroke="#e3e3c7"
       id="path14" />
    <path
       d="m334 520q10-1.59 15.6 0.78 2.24 0.954 1.66 25.7-0.231 9.94-21.1 30.8-8.38 8.38-16.6 9.88-3.3 0.603-28.9-20.1-10.3-8.32 14.5-33.1 9.97-9.97 34.9-13.9z"
       fill="#8e00b0"
       stroke="#8e00b0"
       id="path16" />
    <path
       d="m11-45.8q6.71-6.71 16.5-3.78 9.01 2.69 19.7 14.7 9.81 11.1-1.37 22.2-10.3 10.3-21.8 3.57-10.6-6.16-15.7-18.3-4.62-11.1 2.68-18.4z"
       fill="#00e384"
       stroke="#00e384"
       id="path18" />
    <path
       d="m502-36.6q8.69-0.086 16.5 18.9 1.79 4.33-18.9 25-4.73 4.73-26.2 2.36-4.92-0.542-17.7-12.5-2.91-2.74 6.15-27.7 2.07-5.69 40.1-6.07z"
       fill="#e3e3c7"
       stroke="#e3e3c7"
       id="path20" />
    <path
       d="m334 7.65q10-1.59 15.6 0.78 2.24 0.954 1.66 25.7-0.231 9.94-21.1 30.8-8.38 8.38-16.6 9.88-3.3 0.603-28.9-20.1-10.3-8.32 14.5-33.1 9.97-9.97 34.9-13.9z"
       fill="#8e00b0"
       stroke="#8e00b0"
       id="path22" />
    <path
       d="m-34.8 127q1.42-1.42 22.9-9.41 2.8-1.04 30.3 16.5 3.58 2.29 1.86 32.2-0.224 3.89-23 26.7-2.97 2.97-38.3-48.4-4.6-6.69 6.27-17.6z"
       fill="#e338d7"
       stroke="#e338d7"
       id="path24" />
    <path
       d="m528 251q0.164-0.444 43.4-11.6 4.1-1.06 14.5 1.98 0.987 0.288 2.88 40.2 0.18 3.79-22.5 26.5-2.16 2.16-36.7-47.7-3.28-4.73-1.55-9.41z"
       fill="#0071de"
       stroke="#0071de"
       id="path26" />
    <path
       d="m31.3 416q5.02 1.11 29.8 9.56 8.22 2.8-15.9 26.9-7.98 7.98-22.1 3.76-4.68-1.4-6.45-33.1-0.586-10.5 14.6-7.14z"
       fill="#00c7e9"
       stroke="#00c7b9"
       id="path28" />
    <path
       d="m510 410q10-1.69 12.8 1.92 0.679 0.879 2.57 34.8 0.461 8.26-10.8 19.5-2.75 2.75-40.3 3.12-9.16 0.09-13.8-16.3-1.12-3.99 6.59-29.8 1.88-6.3 42.9-13.2z"
       fill="#e3c7c5"
       stroke="#e3c7c5"
       id="path30" />
    <path
       d="m305 454q21.8-4.12 30.5 28.2 7.92 29.3-10.4 32.2-16.6 2.64-31.1-28-13.1-27.8 10.9-32.4z"
       fill="#8ee385"
       stroke="#8ee385"
       id="path32" />
    <path
       d="m118 506q33.7 7.07 35.4 22.4 3.92 36.3-4.58 39.2-20.1 6.82-30.2 4.62-23.9-5.18-21.2-24.2 6.38-45 20.7-42z"
       fill="#380051"
       stroke="#380051"
       id="path34" />
    <path
       d="m336-67.4q11.1-11.1 22.3 1.23 24.7 27.3 25.5 37.4 1.66 22.4-7.69 25.2-20.7 6.17-23.1 5.14-5.36-2.29-10.5-21.5-11.5-42.4-6.45-47.4z"
       fill="#aae354"
       stroke="#aae354"
       id="path36" />
    <path
       d="m162-3.96q16.5-16.5 21.8-10.2 21.1 25.3 22.4 33.2 5.1 31.4 1.04 33-16.3 6.44-21.8 5.11-22-5.32-23.2-15.6-4.47-41.3-0.345-45.4z"
       fill="#55003a"
       stroke="#55003a"
       id="path38" />
    <path
       d="m16.6 62.5c5.64-5.64 4.13-11.9 7.7-13.1 17.3 27.9 48.2 52.1 45 68.4-2.84 13.1-22.2 10.8-39.7 14.6-8.79 1.93-10.4-6.07-24.1-14.9-6.95-4.44-8.5-13.8-4.66-27.9 1.94-7.16 4.56-16 15.7-27.2z"
       fill="#001ca5"
       stroke="#001ca5"
       id="path40" />
    <path
       d="m468 69.4c10.3-10.3 8.65-14.6 15.9-9.35 17.3 12.6 25.1 22 23.4 28.3-4.08 15.1-8.5 23.5-13.3 25.3-11.5 4.26-19.7 1.89-24.7-7.11-5.23-23.9-5.6-32.8-1.32-37.1z"
       fill="#e31c50"
       stroke="#e31c50"
       id="path42" />
    <path
       d="m-68 226q5.65-5.65 22.7-6.23 35.1-1.18 41.1 8.62 12.4 20.2 11.7 21.8-1.27 3.45-7.32 9.5-12.4 12.4-21.6 13.3-18.8 1.71-28.8-13.3-20.7-30.9-17.9-33.7z"
       fill="#e37157"
       stroke="#e37157"
       id="path44" />
    <path
       d="m538 356q0.181-0.068 37.4 24.2 2.71 1.76-25.8 30.3-2.07 2.07-20.9-2.08-1.37-0.302-4.6-4.48-0.235-0.304 10.6-43.8 0.786-3.16 3.28-4.11z"
       fill="#00aae2"
       stroke="#00aae2"
       id="path46" />
    <path
       d="m184 474q0.935-4.35 44.4 2.05 14.9 2.2 14.6 5.84-0.114 1.25-26.3 27.4-8.98 8.98-28.7-14.6-6.75-8.08-4.02-20.8z"
       fill="#55e3b7"
       stroke="#55e3b7"
       id="path48" />
    <path
       d="m15.9 504q18.8 10.9 18.9 17.3 0.794 35.2-0.447 35.6-6.81 2.3-13.1-2.58-34.3-26.9-30.4-30.8 21.5-21.5 24.9-19.5z"
       fill="#000030"
       stroke="#000030"
       id="path50" />
    <path
       d="m488 528q7.54 0.831 36.5 23.5 11.6 9.05-6.47 27.1-7.2 7.2-33.5-11.9-10.5-7.64-14-31.3-1.4-9.44 17.5-7.36z"
       fill="#e300b0"
       stroke="#e300b0"
       id="path52" />
    <path
       d="m249-31.8q0.069-0.76 17.9-18.5 3.27-3.27 8.59-1.74 0.978 0.281 24.3 49.7 4.28 9.08-25.1 38.4-5.39 5.39-6.83 5.38-0.264-3e-3 -16.3-58.4-2.94-10.7-2.56-14.9z"
       fill="#71e3ce"
       stroke="#71e3ce"
       id="path54" />
    <path
       d="m 89.4,-20.8 c -4.47,-0.0478 -12.4,0.357 -23.8,1.21 -2.78,0.208 -10.4,6.52 -22.8,18.9 -6.7,20.9 -4.49,33.3 -4.33,49.5 0.24,23.3 20.5,29 28.5,44.8 6.88,13.7 8.41,41.1 16.4,42.8 29.5,-0.137 48,-1.2 48.2,-1.42 2.64,-3.47 3.78,-6.38 3.43,-8.74 -5.71,-38 -4.23026,-32.161711 -8.94703,-47.602799 -3.0317,-9.924765 -9.52821,-19.987496 -12.32821,-28.587496 C 109.27476,36.459705 93.114,25.25 95.23,10.55 c 0.585,-4.06 1.21,-8.4 1.86,-13 0.8,-5.63 -0.335,-11.6 -3.4,-17.8 -0.175,-0.354 -1.6,-0.546 -4.28,-0.574 z"
       fill="#1c002b"
       id="path56"
       sodipodi:nodetypes="csccccccacccscc" />
    <path
       d="m528-8.25q18.8 10.9 18.9 17.3 0.794 35.2-0.447 35.6-6.81 2.3-13.1-2.58-34.3-26.9-30.4-30.8 21.5-21.5 24.9-19.5z"
       fill="#000030"
       stroke="#000030"
       id="path58" />
    <path
       d="m12 188q11.2-11.2 26.7-1.71 11.8 7.23 17.5 29.5 4.3 17-22.6 24-20.5 5.28-30.9-11.7-7.96-13-6.43-20.1 1.16-5.41 15.8-20z"
       fill="#00558e"
       stroke="#00558e"
       id="path60" />
    <path
       d="m447 150q4.15-4.15 7.53-5.47 8.18-3.19 19.9 13.8 28.3 41.1 27.5 44.8-1.9 8.84-17.2 9.35-36.9 1.24-37.7-16.9-1.77-43.8-0.056-45.6z"
       fill="#e3554f"
       stroke="#e3554f"
       id="path62" />
    <path
       d="m-61.8 360q3.51-9.99 35.3-14.7 21.1-3.12 35.3 4.91 9.44 5.33 2.47 33.4-4.62 18.6-35.3 23.8-20.4 3.43-34-18-9.05-14.2-3.76-29.3z"
       fill="#e3aa96"
       stroke="#e3aa96"
       id="path64" />
    <path
       d="m74.1 431q11.4-0.501 12.3 0.563 16.7 19.8 16.2 21.5-9.1 30.8-10.7 30.9-30 2.24-31 1.07-19.4-21.9-17.8-23.5 30.4-30.4 31-30.5z"
       fill="#1ce391"
       stroke="#1ce318"
       id="path66" />
    <path
       d="m523 466q6.71-6.71 16.5-3.78 9.01 2.69 19.7 14.7 9.81 11.1-1.37 22.2-10.3 10.3-21.8 3.57-10.6-6.16-15.7-18.3-4.62-11.1 2.68-18.4z"
       fill="#00e384"
       stroke="#00e384"
       id="path68" />
    <path
       d="m380 514q7.9-2.36 27.9 4.41 7.15 2.42 3.42 40.8-1.33 13.7-11.2 23.6-3.53 3.53-32.7-19.4-10.4-8.19-9.81-33.7 0.212-9.12 22.3-15.7z"
       fill="#aa00b5"
       stroke="#aa00b5"
       id="path70" />
    <path
       d="m136-66.2q29-7.27 29.4-7.18 0.408 0.092 6.26 13.8 6.57 15.4 4.85 23.4-1.94 9.01-11.7 18.7-10.9 10.9-33.5 6.19-25.4-5.33-27.9-10.4-2.8-5.68 1.71-21 5.08-17.2 30.9-23.6z"
       fill="#38e378"
       stroke="#38e378"
       id="path72" />
    <path
       d="m-23.9 16.4q7.54 0.831 36.5 23.5 11.6 9.05-6.47 27.1-7.2 7.2-33.5-11.9-10.5-7.64-14-31.3-1.4-9.44 17.5-7.36z"
       fill="#e300b0"
       stroke="#e300b0"
       id="path74" />
    <path
       d="m445 0.303c-0.447-0.0134-0.846 0.0469-1.2 0.18-13.2 4.86-24.5 10.3-35.8 6.2-13.3-4.51-22.6-5.98-27.9-4.41-14.7 4.4-22.2 9.64-22.3 15.7-0.395 17 2.87 28.3 9.81 33.7 13.4 10.1 26.8 15.5 33.7 30-0.115 0.435 5.22 7.11 16 20 20.2 24.2 31.7 35.8 34.3 34.8 5.02-1.96 8.96-4.37 11.8-7.22 5.35-5.35 5.04-13.3-0.914-24-14.9-37.3 7.36-35.9 5.31-63.7-2.77-18.6-4.97-28.7-6.6-30.2-7.71-7.25-13.1-10.9-16.3-11z"
       fill="#bd09b7"
       id="path76" />
    <path
       d="m578 129q2.13-0.467 13.4 10.7 0.644 0.639 0.636 20.9 0 1.16-24.4 25.6-1.4 1.4-27.3-14.4-1.48-0.903 0.362-32.8 0.105-1.83 37.3-9.99z"
       fill="#0038e5"
       stroke="#0038e5"
       id="path78" />
    <path
       d="m-1.55 273q12.5-12.5 24.7 5.11 25.6 37 24.9 40.9-1.47 8.15-8.3 15-14.3 14.3-15.2 14.7-1.81 0.687-9.45-3.62-16-9.05-18.2-27.4-4.51-38.6 1.46-44.6z"
       fill="#008e56"
       stroke="#008e56"
       id="path80" />
    <path
       d="m455 297q15.5-15.5 27.5-16.6 16-1.46 18.8 22.9 3.81 32.6-18.8 36-30.3 4.48-35.1-6-6.48-14-5.4-18.6 1.44-6.09 13-17.7z"
       fill="#e38e6e"
       stroke="#e38e6e"
       id="path82" />
    <path
       d="m-10.5 475q8.69-0.086 16.5 18.9 1.79 4.33-18.9 25-4.73 4.73-26.2 2.36-4.92-0.542-17.7-12.5-2.91-2.74 6.15-27.7 2.07-5.69 40.1-6.07z"
       fill="#e3e3c7"
       stroke="#e3e3c7"
       id="path84" />
    <path
       d="m424 449q27.9 4.4 29.3 9.34 4.33 15.4 1.63 22.9-8.44 23.2-15 25.7-20.6 7.75-27.2 5.52-20.6-6.96-21.2-14.8-1.83-24.6 4.31-30.8 19.2-19.2 28.1-17.8z"
       fill="#c7e344"
       stroke="#c7e344"
       id="path86" />
    <path
       d="m246 492q17.8 64.9 16.6 65.4-18.6 8.02-20.3 7.83-26.3-3.02-26.7-5.37-5.99-36.9-3.88-39 33.1-33.1 34.2-28.9z"
       fill="#71001a"
       stroke="#71001a"
       id="path88" />
    <path
       d="m74.1-81.4q11.4-0.501 12.3 0.563 16.7 19.8 16.2 21.5-9.1 30.8-10.7 30.9-30 2.24-31 1.07-19.4-21.9-17.8-23.5 30.4-30.4 31-30.5z"
       fill="#1ce318"
       stroke="#1ce318"
       id="path90" />
    <path
       d="m523-45.8q6.71-6.71 16.5-3.78 9.01 2.69 19.7 14.7 9.81 11.1-1.37 22.2-10.3 10.3-21.8 3.57-10.6-6.16-15.7-18.3-4.62-11.1 2.68-18.4z"
       fill="#00e384"
       stroke="#00e384"
       id="path92" />
    <path
       d="m74.1 127c1.42-0.311 3.98 8.33 4.87 12.8 1.37 6.85 0.641 7.4 0.636 20.9 0 0.774-8.14 9.3-24.4 25.6-0.932 0.931-10-3.86-27.3-14.4-0.986-0.602-0.865-11.6 0.362-32.8 0.07-1.22 21-6.66 45.8-12.1z"
       fill="#0038b8"
       stroke="#0038e5"
       id="path94" />
    <path
       d="m477 127q1.42-1.42 22.9-9.41 2.8-1.04 30.3 16.5 3.58 2.29 1.86 32.2-0.224 3.89-23 26.7-2.97 2.97-38.3-48.4-4.6-6.69 6.27-17.6z"
       fill="#e338d7"
       stroke="#e338d7"
       id="path96" />
    <path
       d="m-57.4 297q15.5-15.5 27.5-16.6 16-1.46 18.8 22.9 3.81 32.6-18.8 36-30.3 4.48-35.1-6-6.48-14-5.4-18.6 1.44-6.09 13-17.7z"
       fill="#e38e6e"
       stroke="#e38e6e"
       id="path98" />
    <path
       d="m543 416q5.02 1.11 29.8 9.56 8.22 2.8-15.9 26.9-7.98 7.98-22.1 3.76-4.68-1.4-6.45-33.1-0.586-10.5 14.6-7.14z"
       fill="#00c7b9"
       stroke="#00c7b9"
       id="path100" />
    <path
       d="m336 445q11.1-11.1 22.3 1.23 24.7 27.3 25.5 37.4 1.66 22.4-7.69 25.2-20.7 6.17-23.1 5.14-5.36-2.29-10.5-21.5-11.5-42.4-6.45-47.4z"
       fill="#aae354"
       stroke="#aae354"
       id="path102" />
    <path
       d="m162 508q16.5-16.5 21.8-10.2 21.1 25.3 22.4 33.2 5.1 31.4 1.04 33-16.3 6.44-21.8 5.11-22-5.32-23.2-15.6-4.47-41.3-0.345-45.4z"
       fill="#55003a"
       stroke="#55003a"
       id="path104" />
    <path
       d="m-10.5-36.6q8.69-0.086 16.5 18.9 1.79 4.33-18.9 25-4.73 4.73-26.2 2.36-4.92-0.542-17.7-12.5-2.91-2.74 6.15-27.7 2.07-5.69 40.1-6.07z"
       fill="#e3e3c7"
       stroke="#e3e3c7"
       id="path106" />
    <path
       d="m424-62.8q27.9 4.4 29.3 9.34 4.33 15.4 1.63 22.9-8.44 23.2-15 25.7-20.6 7.75-27.2 5.52-20.6-6.96-21.2-14.8-1.83-24.6 4.31-30.8 19.2-19.2 28.1-17.8z"
       fill="#c7e344"
       stroke="#c7e344"
       id="path108" />
    <path
       d="m246-19.7q17.8 64.9 16.6 65.4-18.6 8.02-20.3 7.83-26.3-3.02-26.7-5.37-5.99-36.9-3.88-39 33.1-33.1 34.2-28.9z"
       fill="#71001a"
       stroke="#71001a"
       id="path110" />
    <path
       d="m533 62.2q8.46-8.46 13.8-10.3 2.7-0.914 30.1 7.43 13.8 4.21 5.35 43.2-4.26 19.7-30.4 25.4-13.2 2.89-33.8-10.3-10.4-6.66-4.66-27.9 2.9-10.7 19.7-27.5z"
       fill="#001ca5"
       stroke="#001ca5"
       id="path112" />
    <path
       d="m15.5 251q0.164-0.444 43.4-11.6 4.1-1.06 14.5 1.98 0.987 0.288 2.88 40.2 0.18 3.79-22.5 26.5-2.16 2.16-36.7-47.7-3.28-4.73-1.55-9.41z"
       fill="#007119"
       stroke="#0071de"
       id="path114" />
    <path
       d="m444 226q5.65-5.65 22.7-6.23 35.1-1.18 41.1 8.62 12.4 20.2 11.7 21.8-1.27 3.45-7.32 9.5-12.4 12.4-21.6 13.3-18.8 1.71-28.8-13.3-20.7-30.9-17.9-33.7z"
       fill="#e37157"
       stroke="#e37157"
       id="path116" />
    <path
       d="m-2.49 410q10-1.69 12.8 1.92 0.679 0.879 2.57 34.8 0.461 8.26-10.8 19.5-2.75 2.75-40.3 3.12-9.16 0.09-13.8-16.3-1.12-3.99 6.59-29.8 1.88-6.3 42.9-13.2z"
       fill="#e3c7c5"
       stroke="#e3c7c5"
       id="path118" />
    <path
       d="m249 480q0.069-0.76 17.9-18.5 3.27-3.27 8.59-1.74 0.978 0.281 24.3 49.7 4.28 9.08-25.1 38.4-5.39 5.39-6.83 5.38-0.264-3e-3 -16.3-58.4-2.94-10.7-2.56-14.9z"
       fill="#71e3ce"
       stroke="#71e3ce"
       id="path120" />
    <path
       d="m42.8 511q18.6-18.6 22.8-18.9 27.4-2.05 28.1-0.638 4.6 9.32 3.4 17.8-7.89 55.6-8.83 56-6.22 2.78-11.7 1.13-35.7-10.9-35.8-16.4-0.814-36.1 2.02-38.9z"
       fill="#1c002b"
       stroke="#1c002b"
       id="path122" />
    <path
       d="m528 504q18.8 10.9 18.9 17.3 0.794 35.2-0.447 35.6-6.81 2.3-13.1-2.58-34.3-26.9-30.4-30.8 21.5-21.5 24.9-19.5z"
       fill="#000030"
       stroke="#000030"
       id="path124" />
    <path
       d="m305-58q21.8-4.12 30.5 28.2 7.92 29.3-10.4 32.2-16.6 2.64-31.1-28-13.1-27.8 10.9-32.4z"
       fill="#8ee385"
       stroke="#8ee385"
       id="path126" />
    <path
       d="M 118.12176,-6.1926204 C 140.58843,-1.4792871 152.26667,5.97 153.4,16.19 c 2.61333,24.2 1.08667,37.266667 -4.58,39.2 -13.4,4.546667 -14.84124,-2.7711 -21.57458,-4.237766 -7.38753,-2.628573 -31.969939,-26.310019 -21.52622,-48.3588529 3.4171,-7.0083095 7.49587,-10.0166189 12.2692,-9.0166189 z"
       fill="#380051"
       stroke="#380051"
       id="path128"
       sodipodi:nodetypes="ccccccc" />
    <path
       d="m-54.8 67.6q15.5-15.5 26.3-7.59 26 18.9 23.4 28.3-6.12 22.6-13.3 25.3-17.2 6.38-24.7-7.11-18.1-32.5-11.7-38.9z"
       fill="#e31c50"
       stroke="#e31c50"
       id="path130" />
    <path
       d="m524 188q11.2-11.2 26.7-1.71 11.8 7.23 17.5 29.5 4.3 17-22.6 24-20.5 5.28-30.9-11.7-7.96-13-6.43-20.1 1.16-5.41 15.8-20z"
       fill="#00558e"
       stroke="#00558e"
       id="path132" />
    <path
       d="m26.2 356c-1.67 0.631-2.76 2-3.28 4.11-7.2 29-10.7 43.6-10.6 43.8 2.15 2.79 3.68 4.28 4.6 4.48 21.6 1.87 38.9 11.7 56 17.6 0.112 0.038 4.15-0.119 12.1-0.469 0.0407-1e-3 0.574-4.42 1.6-13.2 0.0053-0.0453-0.618-7.14-1.87-21.3-21.5-8.39-38.8-23.1-58.6-35z"
       fill="#00aaaf"
       id="path134" />
    <path
       d="m450 360q3.51-9.99 35.3-14.7 21.1-3.12 35.3 4.91 9.44 5.33 2.47 33.4-4.62 18.6-35.3 23.8-20.4 3.43-34-18-9.05-14.2-3.76-29.3z"
       fill="#e3aa96"
       stroke="#e3aa96"
       id="path136" />
    <path
       d="m136 446q29-7.27 29.4-7.18 0.408 0.092 6.26 13.8 6.57 15.4 4.85 23.4-1.94 9.01-11.7 18.7-10.9 10.9-33.5 6.19-25.4-5.33-27.9-10.4-2.8-5.68 1.71-21 5.08-17.2 30.9-23.6z"
       fill="#38e3e1"
       stroke="#38e378"
       id="path138" />
    <path
       d="m-23.9 528q7.54 0.831 36.5 23.5 11.6 9.05-6.47 27.1-7.2 7.2-33.5-11.9-10.5-7.64-14-31.3-1.4-9.44 17.5-7.36z"
       fill="#e300b0"
       stroke="#e300b0"
       id="path140" />
    <path
       d="m444 512q4.24-1.59 17.5 10.8 2.44 2.29 6.6 30.2 0.768 5.16-17.7 23.6-3.41 3.41-29.6-2.81-4.82-1.15-0.556-45.1 0.787-8.12 23.8-16.8z"
       fill="#c700ce"
       stroke="#c700ce"
       id="path142" />
    <path
       d="m155 59.9q5.4-1.83 27.7 3.56 5.2 1.26 3.3 47-0.444 10.7-36.7 16.5-8.44 1.37-15.8-47.7-1.72-11.4 21.5-19.3z"
       fill="#381cc6"
       stroke="#381cc6"
       id="path144" />
    <path
       d="m384 101q16-16 21-10.1 41.5 49.7 40.9 50.4-5.24 5.24-7.37 5.63-17.8 3.26-21.9-1.8-34.5-42.2-32.6-44.1z"
       fill="#c73825"
       stroke="#c73825"
       id="path146" />
    <path
       d="m260 166q24.5 2.38 29.6 15.1 5.33 13.5-20.8 31.4-27.7 19-30.4 18.6-2.76-0.454-5.49-2.39-2.9-2.05 0.428-32.6 3.53-32.3 26.7-30.1z"
       fill="#71557c"
       stroke="#71557c"
       id="path148" />
    <path
       d="m89.2 238q1.46-0.487 27.3 8 3.93 1.29 14.6 25.1 1.62 3.62-25.2 20.9-4.08 2.63-21.6-5.8-2.66-1.28-4.46-39.3-0.273-5.77 9.32-8.98z"
       fill="#1c71d3"
       stroke="#1c71d3"
       id="path150" />
    <path
       d="m324 265c-0.264-0.144-10.9 12.4-31.8 37.8-0.299 0.361 0.448 10.4 2.24 30 0.0253 0.281 12.6 1.02 37.7 2.2 9.53-2.45 17.7-3.82 26.1-5.38 39.5-7.72 58.5-12.3 57.1-13.6-31-28.9-46.7-43.3-47.1-43-5.59 3.37-9.17 5.89-10.8 7.6-3.52-1.59-17.4-6.86-33.3-15.6z"
       fill="#9c8e7b"
       id="path152" />
    <path
       d="m156 353q7.8-8.09 8.8-7.96 65.5 8.3 65.5 8.58-0.342 18.8-0.826 19.4-31.5 38.9-31.9 39-23.8 6.65-24 6.1-12.5-35.7-12.6-36.1-5.15-28.9-5.03-29z"
       fill="#55aa10"
       stroke="#55aa10"
       id="path154" />
    <path
       d="m374 106q4.04-2.38 18.7 15.6 24 29.3 13.4 33.8-17.2 7.4-28.6 1.41-18.6-9.76-19.1-10.6-0.83-1.44 4.46-15.6 8.62-23.1 11.1-24.6z"
       fill="#aa3864"
       stroke="#aa3864"
       id="path156" />
    <path
       d="m229 159q2.69 3.92 1.69 13.1-5.86 53.7-9.73 54-22.7 1.79-26.5-0.467-22.3-13.2-23.5-16.3-6.64-17.7-6.12-18.2 3.03-2.98 11.9-7.33 51.8-25.5 52.3-24.9z"
       fill="#55552e"
       stroke="#55552e"
       id="path158" />
    <path
       d="m101 374q18.6-22.8 29.8-21.9 18.9 1.49 20.9 12.4 3.29 18.4-20.1 28-39.6 16.3-40.3 8.37-1.19-13.4 9.78-26.8z"
       fill="#38aa61"
       stroke="#38aa61"
       id="path160" />
    <path
       d="m388 400q5.11-9.8 22.2-14 28.1-6.81 36.7 6.7 14.1 22.2 10.5 34.4-5.96 20-19.9 17.8-22.9-3.61-34.2-17-18.5-21.9-15.4-27.9z"
       fill="#c7c7af"
       stroke="#c7c763"
       id="path162" />
    <path
       d="m367 57.6q27.8 21.9 27.7 22.2-0.185 0.704-5.51 6.02-12.6 12.6-14.6 13.8-4.59 2.71-17.6-4.62-31-17.4-22.3-26 20.5-20.5 32.3-11.3z"
       fill="#aa1c50"
       stroke="#aa1c50"
       id="path164" />
    <path
       d="m185 127c-1.75 0.0315-15 2.32-17.5 2.72-5.95 2.12-22.5 4.28-28.3 8.1-28.4 0.399-54.4 4.37-54.4 5.12-0.0053 13.5 0.362 20.8 1.1 21.8 13.1 18.1 20.2 26.9 21.5 26.4 17.6-6.91 34.1-11.1 39.8-13.2 2.31 3.21 10.9 9.57 14 9.55 17.1-15.7 49.1-20.1 67.4-33.7-0.906-2.62-3.94-5.34-9.09-8.18-9.46-3.34-26-18.7-34.5-18.6z"
       fill="#4738bf"
       id="path166" />
    <path
       d="m304 254q11.5 0.228 15.5 5.43 1.27 1.65-22.9 30.9-7.67 9.28-19.6-3.11-3.8-3.93-7.99-26.7-1.33-7.23 35-6.51z"
       fill="#8e71ba"
       stroke="#8e71ba"
       id="path168" />
    <path
       d="m121 291q16.1-10.3 29-1.59 13.9 9.46 14.5 11.3 0.606 2-2.09 19.7-2.91 19.1-6.72 23.1-4.11 4.26-18.6 3.13-15.6-1.23-15.9-1.46-0.296-0.251-7.38-21.6-7.66-23 7.2-32.6z"
       fill="#388e7b"
       stroke="#388e7b"
       id="path170" />
    <path
       d="m364 333q58.4-11.4 59.2-11.4 12.5 0.766 13.1 2.21 10.7 23.1 10.1 24.6-8.29 23.6-11 24.2-42.6 10.3-44.5 7.41-30.6-46.3-27-47z"
       fill="#c7aa72"
       stroke="#c7aa1a"
       id="path172" />
    <path
       d="m239 381c-18.4-0.166-22.6 18.8-39.1 39.1-4.25-0.0235-21.6 4.12-23.6 6.96-2.45 5.78-3.15 9.92-2.08 12.4 7.31 17.1 13.4 26.1 18.4 26.8 34 5 51.9 6.61 53.6 4.83 12.3-12.3 18.2-18.9 17.8-19.8-0.858-15-0.402-21.4 1.47-35.4-4.69-9.62-22.5-34.8-26.5-34.8z"
       fill="#63c73e"
       id="path174" />
    <path
       d="m211 58.9q2.96-1.17 26.9 1.57 4.08 0.467 5.72 46.8 0.28 7.9-12.9 32.5-2.25 4.19-31.5-11.9-4.99-2.75-7.44-5.3-0.418-0.435 1.59-48.6 0.341-8.2 17.7-15.1z"
       fill="#551cd0"
       stroke="#551cd0"
       id="path176" />
    <path
       d="m299 197q18.9 11.4 18.9 11.6-3.08 40.6-3.4 40.6-47.5-0.94-47.7-1.04-21.9-14.3-21.5-14.6 53.6-36.7 53.7-36.6z"
       fill="#8e550e"
       stroke="#8e550e"
       id="path178" />
    <path
       d="m138 239q30.5-20.4 37.6-16.1 19 11.3 11.1 27.2-21 42.3-28.4 37.3-19.5-13.2-22.8-20.7-8.92-19.9 2.55-27.6z"
       fill="#38714b"
       stroke="#38714b"
       id="path180" />
    <path
       d="m376 268q23.4-21.3 27.8-14.3 33.6 52.7 33.3 54-2.22 9.39-3.77 9.29-11.7-0.719-17.4-6.03-43-40.1-40-42.9z"
       fill="#c78e27"
       stroke="#c78e27"
       id="path182" />
    <path
       d="m237 369q0.289-15.9 1.71-17.2 7.15-6.78 13.3-7.2 30.7-2.13 31.4 5.77 3.33 39.7 0.096 42.7-16.2 15-21.3 9.07-25.2-29.9-25.2-33.1z"
       fill="#71aa32"
       stroke="#71aa32"
       id="path184" />
    <path
       d="m264 51.9q3.55-1.53 4.95-1.52 0.307 4e-3 29.8 23.8 6.46 5.21 3.28 35.7-0.698 6.68-43 3.92-9.28-0.607-10.9-45.1-0.347-9.76 15.9-16.8z"
       fill="#711cc8"
       stroke="#711cc8"
       id="path186" />
    <path
       d="m382 165q5.74 3.01 4.65 41-0.256 8.98-41.9-2.59-9.86-2.74 8.64-41.9 4.38-9.26 28.6 3.48z"
       fill="#aa55c6"
       stroke="#aa55c6"
       id="path188" />
    <path
       d="m204 235c-3.39 0.267-12.9 16.1-28.5 47.5-3.69 7.42-3.58 9.36-4.6 14.2-2.56 12.3-0.778 19.2-3.66 37.5-0.596 3.91 17.7 8.23 55 12.9 7.06 0.895 11.7-4.26 17.8-5.49 15.2-4.97 38.8 5.54 49-7.43 6.06-7.7 1.43-20.3-2.54-29.3-3.07-6.92-5.2-6.02-15.5-16.6-10.9-6.05-5.46-19.8-7.33-30.2-0.639-3.47-7.03-9.17-19.2-17.1-12.2-6.77-27.9-6.92-40.5-5.99z"
       fill="#63802c"
       id="path190" />
    <path
       d="m290 340q2.81-1.75 20-0.938 20.9 0.989 17.3 26.1-4.43 30.5-18.5 27.5-17.1-3.61-18.9-25.1-2.19-26.1 0.123-27.6z"
       fill="#8eaa74"
       stroke="#8eaa74"
       id="path192" />
    <path
       d="m157 392q11 31.3 10.4 32.6-3.64 8.58-11.2 10.5-47.9 12-50.3 9.15-15.2-18-15-19.8 1.34-11.5 9.93-15 54.4-22.3 56.1-17.4z"
       fill="#38c72c"
       stroke="#38c72c"
       id="path194" />
    <path
       d="m303 150q7.77-11 32-5.06 16.6 4.08 17.4 5.45 0.545 0.943-13 29.6-9.31 19.7-14.6 22-3.64 1.59-14.9-5.18-7.76-4.66-13.9-20.2-4.22-10.7 7.08-26.7z"
       fill="#8e3894"
       stroke="#8e3894"
       id="path196" />
    <path
       d="m114 194q28.8-11.3 31.3-9.48 12.6 8.98 13.9 12.5 6.45 17.2-0.669 21.9-34.8 23.3-39.9 21.6-24.8-8.12-22.4-14.3 11.8-30 17.6-32.3z"
       fill="#385533"
       stroke="#385533"
       id="path198" />
    <path
       d="m402 241q0.476-1.11 24.3-7.88 8.92-2.53 31.3 30.9 8.36 12.5-11.4 32.3-7.39 7.39-35.1-36-10.4-16.3-9.1-19.2z"
       fill="#c771b3"
       stroke="#c771b3"
       id="path200" />
    <path
       d="m38.1 346q14.3-14.3 34.5-8.67 41.7 11.5 41.9 11.7 0.384 0.326-9.27 12.1-19.9 24.4-24.5 22.2-9.52-4.5-22.6-13-26.9-17.5-20-24.4z"
       fill="#1caa83"
       stroke="#1caa57"
       id="path202" />
    <path
       d="m349 429q9e-3 -0.025 26.3-17.5 5.18-3.44 30 26.1 4.89 5.81-16.3 27-4.17 4.17-34.2-28.9-5.91-6.51-5.87-6.64z"
       fill="#aac761"
       stroke="#aac7cc"
       id="path204" />
    <path
       d="m280 122q20.8 1.36 23.6 8.96 1.86 5.14-9.51 21.2-7.7 10.9-36.1 8.14-19.2-1.86-21.1-4.6-1.27-1.85-2.32-4.88-0.708-2.04 8.51-19.2 6.24-11.6 37-9.62z"
       fill="#713895"
       stroke="#713895"
       id="path206" />
    <path
       d="m89.5 178q13.1 18.2 7.96 31.4-8.99 22.9-13 24.3-7.01 2.34-11.2 1.13-7.23-2.11-10.9-16.5-6.3-25 3.14-34.4 16.4-16.4 24-5.89z"
       fill="#1c5560"
       stroke="#1c5560"
       id="path208" />
    <path
       d="m328 209q5.79-2.53 23.9 2.51 33.4 9.27 37 15.3 6.71 11.1 6.1 12.5-1.13 2.64-10.4 11.1-17.1 15.6-21.4 18.2-7.92 4.77-17.9-0.65-18.3-9.97-20.1-12.4-3.42-4.44-2.32-18.8 2.01-26.5 5.16-27.8z"
       fill="#aa715d"
       stroke="#aa715d"
       id="path210" />
    <path
       d="m277 409q13.8-12.8 22.9-10.8 22.1 4.66 27.6 12.1 13.5 18.2 13.4 18.2-0.038 0.109-4.73 4.81-11.4 11.4-24.8 13.9-32.5 6.14-34.3 5.61-4.47-1.28-5.81-4.56-3.27-7.97-2.32-15.6 2.31-18.5 7.99-23.7z"
       fill="#8ec79a"
       stroke="#8ec74f"
       id="path212" />
    <path
       d="m322 80.6q0.727-0.133 41.9 23 2.78 1.56-10.3 36.5-0.881 2.36-39.1-7.02-2.58-0.633-6.91-12.6-0.292-0.806 3.34-35.6 0.245-2.35 11-4.32z"
       fill="#8e1ce3"
       stroke="#8e1ce3"
       id="path214" />
    <path
       d="m402 165q18.6-7.99 25.2-9.19 13.3-2.44 14.2 18.1 1.67 41.4-1.11 44.2-5.62 5.62-16.5 8.7-21.9 6.22-25.3 0.547-6.93-11.5-6.49-27 0.897-31.4 10.1-35.3z"
       fill="#c75558"
       stroke="#c75558"
       id="path216" />
    <path
       d="m90.6 296q9.21 4.44 17.2 28.5 6.74 20.3-26.9 11-28.3-7.83-27.1-14.4 0.992-5.5 14.5-19 11.4-11.4 22.3-6.1z"
       fill="#1c8ed7"
       stroke="#1c8e89"
       id="path218" />
    <path
       d="m342 339q8.99-3.56 10-2.93 1.42 0.862 15.2 21.7 18.8 28.4 15.3 35-4.74 9.09-18.1 17.9-18.2 12-26.2 1.18-10.9-14.8-7.52-38.3 4.65-32 11.3-34.6z"
       fill="#aaaa6e"
       stroke="#aaaa6e"
       id="path220" />
  </g>
</svg>
