<?xml version="1.0" encoding="UTF-8"?>
<svg width="512px" height="512px" contentScriptType="text/ecmascript" contentStyleType="text/css" version="1.1" viewBox="0 0 512 512" xmlns="http://www.w3.org/2000/svg">
 <g class="voronoi" stroke-width=".5">
  <path d="m184-38.2q0.935-4.35 44.4 2.05 14.9 2.2 14.6 5.84-0.114 1.25-26.3 27.4-8.98 8.98-28.7-14.6-6.75-8.08-4.02-20.8z" fill="#55e3b7" stroke="#55e3b7"/>
  <path d="m15.9-8.25q18.8 10.9 18.9 17.3 0.794 35.2-0.447 35.6-6.81 2.3-13.1-2.58-34.3-26.9-30.4-30.8 21.5-21.5 24.9-19.5z" fill="#000030" stroke="#000030"/>
  <path d="m431 6.24c-14.2-4.17-45.7-5.48-50.8-3.96-14.7 4.4-22.2 9.64-22.3 15.7-0.395 17 2.87 28.3 9.81 33.7 19.4 15.3 24.8 22 27.1 19.7 1.89-1.89 6.5-5.48 10.5-6.27 14.9-2.96 43.3 8.23 45 6.56 11-11 48.1-4.53 55.8-4 5.58 1.99 9.57 1.79 12-0.613 12-12 14.2-21 6.47-27.1-19.3-15.1-31.5-23-36.5-23.5-5.88-0.648-10.3-0.446-13.2 0.582-23.5-14.4-22.9-17.2-43.8-10.8z" fill="#e300b0"/>
  <path d="m-64.9 150q4.15-4.15 7.53-5.47 8.18-3.19 19.9 13.8 28.3 41.1 27.5 44.8-1.9 8.84-17.2 9.35-36.9 1.24-37.7-16.9-1.77-43.8-0.056-45.6z" fill="#e3554f" stroke="#e3554f"/>
  <path d="m510 273q12.5-12.5 24.7 5.11 25.6 37 24.9 40.9-1.47 8.15-8.3 15-14.3 14.3-15.2 14.7-1.81 0.687-9.45-3.62-16-9.05-18.2-27.4-4.51-38.6 1.46-44.6z" fill="#008e56" stroke="#008e56"/>
  <path d="m11 466q6.71-6.71 16.5-3.78 9.01 2.69 19.7 14.7 9.81 11.1-1.37 22.2-10.3 10.3-21.8 3.57-10.6-6.16-15.7-18.3-4.62-11.1 2.68-18.4z" fill="#00e384" stroke="#00e384"/>
  <path d="m502 475q8.69-0.086 16.5 18.9 1.79 4.33-18.9 25-4.73 4.73-26.2 2.36-4.92-0.542-17.7-12.5-2.91-2.74 6.15-27.7 2.07-5.69 40.1-6.07z" fill="#e3e3c7" stroke="#e3e3c7"/>
  <path d="m334 520q10-1.59 15.6 0.78 2.24 0.954 1.66 25.7-0.231 9.94-21.1 30.8-8.38 8.38-16.6 9.88-3.3 0.603-28.9-20.1-10.3-8.32 14.5-33.1 9.97-9.97 34.9-13.9z" fill="#8e00b0" stroke="#8e00b0"/>
  <path d="m11-45.8q6.71-6.71 16.5-3.78 9.01 2.69 19.7 14.7 9.81 11.1-1.37 22.2-10.3 10.3-21.8 3.57-10.6-6.16-15.7-18.3-4.62-11.1 2.68-18.4z" fill="#00e384" stroke="#00e384"/>
  <path d="m502-36.6q8.69-0.086 16.5 18.9 1.79 4.33-18.9 25-4.73 4.73-26.2 2.36-4.92-0.542-17.7-12.5-2.91-2.74 6.15-27.7 2.07-5.69 40.1-6.07z" fill="#e3e3c7" stroke="#e3e3c7"/>
  <path d="m334 7.65q10-1.59 15.6 0.78 2.24 0.954 1.66 25.7-0.231 9.94-21.1 30.8-8.38 8.38-16.6 9.88-3.3 0.603-28.9-20.1-10.3-8.32 14.5-33.1 9.97-9.97 34.9-13.9z" fill="#8e003c" stroke="#8e00b0"/>
  <path d="m-34.8 127q1.42-1.42 22.9-9.41 2.8-1.04 30.3 16.5 3.58 2.29 1.86 32.2-0.224 3.89-23 26.7-2.97 2.97-38.3-48.4-4.6-6.69 6.27-17.6z" fill="#e338d7" stroke="#e338d7"/>
  <path d="m528 251q0.164-0.444 43.4-11.6 4.1-1.06 14.5 1.98 0.987 0.288 2.88 40.2 0.18 3.79-22.5 26.5-2.16 2.16-36.7-47.7-3.28-4.73-1.55-9.41z" fill="#0071de" stroke="#0071de"/>
  <path d="m31.3 416c5.38 17 3.66 21 5.25 35.7-5.32 5.32-3.96 7.3-13.4 4.49-3.12-0.932-5.27-12-6.45-33.1-0.391-6.99 4.47-9.37 14.6-7.14z" fill="#00c7b9" stroke="#00c7b9"/>
  <path d="m510 410q10-1.69 12.8 1.92 0.679 0.879 2.57 34.8 0.461 8.26-10.8 19.5-2.75 2.75-40.3 3.12-9.16 0.09-13.8-16.3-1.12-3.99 6.59-29.8 1.88-6.3 42.9-13.2z" fill="#e3c7c5" stroke="#e3c7c5"/>
  <path d="m317 389c-14.3 2.28-26.9 13.6-35.5 19.8-6.44 4.67-10.4 12.7-11.8 24.1-0.587 4.7 0.207 9.7 2.38 15 11.7 12.4 16 26.2 21.9 38.8 9.65 20.4 20 29.8 31.1 28 12.2-1.94 15.7-12.7 10.4-32.2-1.93-7.14-4.35-12.9-7.24-17.4-0.144-17.4 9.94-27.3 14.9-40.7 0.371-1.05-4-10.3-13.1-27.7-2.81-5.37-7.14-7.96-13-7.77z" fill="#8ee385"/>
  <path d="m118 506q33.7 7.07 35.4 22.4 3.92 36.3-4.58 39.2-20.1 6.82-30.2 4.62-23.9-5.18-21.2-24.2 6.38-45 20.7-42z" fill="#380051" stroke="#380051"/>
  <path d="m336-67.4q11.1-11.1 22.3 1.23 24.7 27.3 25.5 37.4 1.66 22.4-7.69 25.2-20.7 6.17-23.1 5.14-5.36-2.29-10.5-21.5-11.5-42.4-6.45-47.4z" fill="#aae354" stroke="#aae354"/>
  <path d="m162-3.96q16.5-16.5 21.8-10.2 21.1 25.3 22.4 33.2 5.1 31.4 1.04 33-16.3 6.44-21.8 5.11-22-5.32-23.2-15.6-4.47-41.3-0.345-45.4z" fill="#55003a" stroke="#55003a"/>
  <path d="m20.6 62.2q8.46-8.46 13.8-10.3 2.7-0.914 30.1 7.43 13.8 4.21 5.35 43.2-4.26 19.7-30.4 25.4-13.2 2.89-33.8-10.3-10.4-6.66-4.66-27.9 2.9-10.7 19.7-27.5z" fill="#001ca5" stroke="#001ca5"/>
  <path d="m455 76.5c10.3-10.3 20.7-6.53 27.9-1.29 17.3 12.6 25.7 6.87 24 13.1-4.08 15.1-8.5 23.5-13.3 25.3-11.5 4.26-19.7 1.89-24.7-7.11-12.1-21.6-18.1-25.7-13.9-30z" fill="#e31c50" stroke="#e31c50"/>
  <path d="m-68 226q5.65-5.65 22.7-6.23 35.1-1.18 41.1 8.62 12.4 20.2 11.7 21.8-1.27 3.45-7.32 9.5-12.4 12.4-21.6 13.3-18.8 1.71-28.8-13.3-20.7-30.9-17.9-33.7z" fill="#e37157" stroke="#e37157"/>
  <path d="m538 356q0.181-0.068 37.4 24.2 2.71 1.76-25.8 30.3-2.07 2.07-20.9-2.08-1.37-0.302-4.6-4.48-0.235-0.304 10.6-43.8 0.786-3.16 3.28-4.11z" fill="#00aae2" stroke="#00aae2"/>
  <path d="m189 416c-6.83 2.25-10.5 4.07-11.1 5.47-4.07 9.6-5.58 15.6-4.51 18.1 2.23 9.95 9.98 25.8 9.85 34.4-0.399 8.64-0.478 15.4 4.02 20.8 13.1 15.7 22.7 20.6 28.7 14.6 17.5-17.5 26.2-26.6 26.3-27.4-0.592-8.73 21.2-28.6 21-30.5-2.68-6.55-6.93-10.9-12.7-13.1-40-15.2-60.4-22.6-61.4-22.3z" fill="#55d598"/>
  <path d="m15.9 504q18.8 10.9 18.9 17.3 0.794 35.2-0.447 35.6-6.81 2.3-13.1-2.58-34.3-26.9-30.4-30.8 21.5-21.5 24.9-19.5z" fill="#000030" stroke="#000030"/>
  <path d="m488 528q7.54 0.831 36.5 23.5 11.6 9.05-6.47 27.1-7.2 7.2-33.5-11.9-10.5-7.64-14-31.3-1.4-9.44 17.5-7.36z" fill="#e300b0" stroke="#e300b0"/>
  <path d="m249-31.8q0.069-0.76 17.9-18.5 3.27-3.27 8.59-1.74 0.978 0.281 24.3 49.7 4.28 9.08-25.1 38.4-5.39 5.39-6.83 5.38-0.264-3e-3 -16.3-58.4-2.94-10.7-2.56-14.9z" fill="#71e3ce" stroke="#71e3ce"/>
  <path d="m42.8-0.691q18.6-18.6 22.8-18.9 27.4-2.05 28.1-0.638 4.6 9.32 3.4 17.8-7.89 55.6-8.83 56-6.22 2.78-11.7 1.13-35.7-10.9-35.8-16.4-0.814-36.1 2.02-38.9z" fill="#1c002b" stroke="#1c002b"/>
  <path d="m528-8.25q18.8 10.9 18.9 17.3 0.794 35.2-0.447 35.6-6.81 2.3-13.1-2.58-34.3-26.9-30.4-30.8 21.5-21.5 24.9-19.5z" fill="#000030" stroke="#000030"/>
  <path d="m12 188q11.2-11.2 26.7-1.71 11.8 7.23 17.5 29.5 4.3 17-22.6 24-20.5 5.28-30.9-11.7-7.96-13-6.43-20.1 1.16-5.41 15.8-20z" fill="#00558e" stroke="#00558e"/>
  <path d="m501 118c-6.75 4.06-21.6 1.33-27.7 6.55-6.79 9.75-8.17 11.5-19.2 16.2-2.25 0.879-5.47 5.66-6.63 9.28-4.62 14.5-1.13 16.3 0.0547 45.6 0.487 12.1 13 17.7 37.7 16.9 5.81 2.8 23.3-18.9 24.4-19 15.2-15.2 22.9-24.1 23-26.7 1.15-19.9 0.528-30.6-1.86-32.2-17.2-11-27.1-16.5-29.8-16.6z" fill="#e338d7"/>
  <path d="m-61.8 360q3.51-9.99 35.3-14.7 21.1-3.12 35.3 4.91 9.44 5.33 2.47 33.4-4.62 18.6-35.3 23.8-20.4 3.43-34-18-9.05-14.2-3.76-29.3z" fill="#e3aa96" stroke="#e3aa96"/>
  <path d="m70.2 387c-0.0513-0.0247-9.61 6.9-29.9 27.2-1.32 6.94 2.34 34 2.71 46.9 0 0 4.84 8.94 17.8 23.5 0.697 0.785 11 0.428 31-1.07 0.0402-3e-3 0.12-0.0864 0.221-0.207 4.59 3.03 9.97 5.19 10.9 7.15 1.66 3.37 11 6.83 27.9 10.4 15.1 3.16 26.2 1.1 33.5-6.19 6.48-6.48 10.4-12.7 11.7-18.7 1.15-5.35-0.468-13.2-4.85-23.4-3.9-9.14-5.8-8.77-6.25-13.8-0.602-6.75-2.87-1.59 4.98-19.7 0.637-1.5-3.55-9.99-12.6-25.5-1.42-2.44-19.8-0.756-55.1 5.06-12.8 5.2-12.1-0.355-16.5-7.72-0.0087-0.0267-5.63 0.803-15.6-3.93z" fill="#2ad51a"/>
  <path d="m523 466q6.71-6.71 16.5-3.78 9.01 2.69 19.7 14.7 9.81 11.1-1.37 22.2-10.3 10.3-21.8 3.57-10.6-6.16-15.7-18.3-4.62-11.1 2.68-18.4z" fill="#00e384" stroke="#00e384"/>
  <path d="m380 514q7.9-2.36 27.9 4.41 7.15 2.42 3.42 40.8-1.33 13.7-11.2 23.6-3.53 3.53-32.7-19.4-10.4-8.19-9.81-33.7 0.212-9.12 22.3-15.7z" fill="#aa00b5" stroke="#aa00b5"/>
  <path d="m136-66.2q29-7.27 29.4-7.18 0.408 0.092 6.26 13.8 6.57 15.4 4.85 23.4-1.94 9.01-11.7 18.7-10.9 10.9-33.5 6.19-25.4-5.33-27.9-10.4-2.8-5.68 1.71-21 5.08-17.2 30.9-23.6z" fill="#38e378" stroke="#38e378"/>
  <path d="m-23.9 16.4q7.54 0.831 36.5 23.5 11.6 9.05-6.47 27.1-7.2 7.2-33.5-11.9-10.5-7.64-14-31.3-1.4-9.44 17.5-7.36z" fill="#e300b0" stroke="#e300b0"/>
  <path d="m578 129q2.13-0.467 13.4 10.7 0.644 0.639 0.636 20.9 0 1.16-24.4 25.6-1.4 1.4-27.3-14.4-1.48-0.903 0.362-32.8 0.105-1.83 37.3-9.99z" fill="#0038e5" stroke="#0038e5"/>
  <path d="m59 239c-28.8 7.42-43.3 11.3-43.4 11.6-0.949 2.57-7.15 12.3-8.11 17.4-2.98 0.401-5.97 2.1-8.97 5.1-3.98 3.98-4.46 18.8-1.46 44.6 1.43 12.3 7.49 21.4 18.2 27.4 12.9 8.02 16.8-3.23 24.7-11 8.37-17.8 33.6-33 36.5-52.9-1.26-26.6-2.22-40-2.88-40.2-4.83-1.12-9.78-2.84-14.5-1.98z" fill="#008e60"/>
  <path d="m455 297q15.5-15.5 27.5-16.6 16-1.46 18.8 22.9 3.81 32.6-18.8 36-30.3 4.48-35.1-6-6.48-14-5.4-18.6 1.44-6.09 13-17.7z" fill="#e38e45" stroke="#e38e6e"/>
  <path d="m-10.5 475q8.69-0.086 16.5 18.9 1.79 4.33-18.9 25-4.73 4.73-26.2 2.36-4.92-0.542-17.7-12.5-2.91-2.74 6.15-27.7 2.07-5.69 40.1-6.07z" fill="#e3e3c7" stroke="#e3e3c7"/>
  <path d="m424 449q27.9 4.4 29.3 9.34 4.33 15.4 1.63 22.9-8.44 23.2-15 25.7-20.6 7.75-27.2 5.52-20.6-6.96-21.2-14.8-1.83-24.6 4.31-30.8 19.2-19.2 28.1-17.8z" fill="#c7e344" stroke="#c7e344"/>
  <path d="m246 492q17.8 64.9 16.6 65.4-18.6 8.02-20.3 7.83-26.3-3.02-26.7-5.37-5.99-36.9-3.88-39 33.1-33.1 34.2-28.9z" fill="#71001a" stroke="#71001a"/>
  <path d="m74.1-81.4q11.4-0.501 12.3 0.563 16.7 19.8 16.2 21.5-9.1 30.8-10.7 30.9-30 2.24-31 1.07-19.4-21.9-17.8-23.5 30.4-30.4 31-30.5z" fill="#1ce318" stroke="#1ce318"/>
  <path d="m523-45.8q6.71-6.71 16.5-3.78 9.01 2.69 19.7 14.7 9.81 11.1-1.37 22.2-10.3 10.3-21.8 3.57-10.6-6.16-15.7-18.3-4.62-11.1 2.68-18.4z" fill="#00e384" stroke="#00e384"/>
  <path d="m65.6 129q2.13-0.467 13.4 10.7 0.644 0.639 0.636 20.9 0 1.16-24.4 25.6-1.4 1.4-27.3-14.4-1.48-0.903 0.362-32.8 0.105-1.83 37.3-9.99z" fill="#0038a4" stroke="#0038e5"/>
  <path d="m-57.4 297q15.5-15.5 27.5-16.6 16-1.46 18.8 22.9 3.81 32.6-18.8 36-30.3 4.48-35.1-6-6.48-14-5.4-18.6 1.44-6.09 13-17.7z" fill="#e38e6e" stroke="#e38e6e"/>
  <path d="m543 416q5.02 1.11 29.8 9.56 8.22 2.8-15.9 26.9-7.98 7.98-22.1 3.76-4.68-1.4-6.45-33.1-0.586-10.5 14.6-7.14z" fill="#00c7b9" stroke="#00c7b9"/>
  <path d="m336 445q11.1-11.1 22.3 1.23 24.7 27.3 25.5 37.4 1.66 22.4-7.69 25.2-20.7 6.17-23.1 5.14-5.36-2.29-10.5-21.5-11.5-42.4-6.45-47.4z" fill="#aae354" stroke="#aae354"/>
  <path d="m162 508q16.5-16.5 21.8-10.2 21.1 25.3 22.4 33.2 5.1 31.4 1.04 33-16.3 6.44-21.8 5.11-22-5.32-23.2-15.6-4.47-41.3-0.345-45.4z" fill="#55003a" stroke="#55003a"/>
  <path d="m-10.5-36.6q8.69-0.086 16.5 18.9 1.79 4.33-18.9 25-4.73 4.73-26.2 2.36-4.92-0.542-17.7-12.5-2.91-2.74 6.15-27.7 2.07-5.69 40.1-6.07z" fill="#e3e3c7" stroke="#e3e3c7"/>
  <path d="m424-62.8q27.9 4.4 29.3 9.34 4.33 15.4 1.63 22.9-8.44 23.2-15 25.7-20.6 7.75-27.2 5.52-20.6-6.96-21.2-14.8-1.83-24.6 4.31-30.8 19.2-19.2 28.1-17.8z" fill="#c7e344" stroke="#c7e344"/>
  <path d="m246-19.7q17.8 64.9 16.6 65.4-18.6 8.02-20.3 7.83-26.3-3.02-26.7-5.37-5.99-36.9-3.88-39 33.1-33.1 34.2-28.9z" fill="#71001a" stroke="#71001a"/>
  <path d="m533 62.2q8.46-8.46 13.8-10.3 2.7-0.914 30.1 7.43 13.8 4.21 5.35 43.2-4.26 19.7-30.4 25.4-13.2 2.89-33.8-10.3-10.4-6.66-4.66-27.9 2.9-10.7 19.7-27.5z" fill="#001ca5" stroke="#001ca5"/>
  <path d="m444 226q5.65-5.65 22.7-6.23 35.1-1.18 41.1 8.62 12.4 20.2 11.7 21.8-1.27 3.45-7.32 9.5-12.4 12.4-21.6 13.3-18.8 1.71-28.8-13.3-20.7-30.9-17.9-33.7z" fill="#e37157" stroke="#e37157"/>
  <path d="m-2.49 410q10-1.69 12.8 1.92 0.679 0.879 2.57 34.8 0.461 8.26-10.8 19.5-2.75 2.75-40.3 3.12-9.16 0.09-13.8-16.3-1.12-3.99 6.59-29.8 1.88-6.3 42.9-13.2z" fill="#e3c7c5" stroke="#e3c7c5"/>
  <path d="m249 480q0.069-0.76 17.9-18.5 3.27-3.27 8.59-1.74 0.978 0.281 24.3 49.7 4.28 9.08-25.1 38.4-5.39 5.39-6.83 5.38-0.264-3e-3 -16.3-58.4-2.94-10.7-2.56-14.9z" fill="#71e3ce" stroke="#71e3ce"/>
  <path d="m42.8 511q18.6-18.6 22.8-18.9 27.4-2.05 28.1-0.638 4.6 9.32 3.4 17.8-7.89 55.6-8.83 56-6.22 2.78-11.7 1.13-35.7-10.9-35.8-16.4-0.814-36.1 2.02-38.9z" fill="#1c002b" stroke="#1c002b"/>
  <path d="m528 504q18.8 10.9 18.9 17.3 0.794 35.2-0.447 35.6-6.81 2.3-13.1-2.58-34.3-26.9-30.4-30.8 21.5-21.5 24.9-19.5z" fill="#000030" stroke="#000030"/>
  <path d="m305-58q21.8-4.12 30.5 28.2 7.92 29.3-10.4 32.2-16.6 2.64-31.1-28-13.1-27.8 10.9-32.4z" fill="#8ee385" stroke="#8ee385"/>
  <path d="m118-6.21q33.7 7.07 35.4 22.4 3.92 36.3-4.58 39.2-20.1 6.82-30.2 4.62-23.9-5.18-21.2-24.2 6.38-45 20.7-42z" fill="#380051" stroke="#380051"/>
  <path d="m-54.8 67.6q15.5-15.5 26.3-7.59 26 18.9 23.4 28.3-6.12 22.6-13.3 25.3-17.2 6.38-24.7-7.11-18.1-32.5-11.7-38.9z" fill="#e31c50" stroke="#e31c50"/>
  <path d="m524 188q11.2-11.2 26.7-1.71 11.8 7.23 17.5 29.5 4.3 17-22.6 24-20.5 5.28-30.9-11.7-7.96-13-6.43-20.1 1.16-5.41 15.8-20z" fill="#00558e" stroke="#00558e"/>
  <path d="m26.2 356q0.181-0.068 37.4 24.2 2.71 1.76-25.8 30.3-2.07 2.07-20.9-2.08-1.37-0.302-4.6-4.48-0.235-0.304 10.6-43.8 0.786-3.16 3.28-4.11z" fill="#00aae2" stroke="#00aae2"/>
  <path d="m450 360q3.51-9.99 35.3-14.7 21.1-3.12 35.3 4.91 9.44 5.33 2.47 33.4-4.62 18.6-35.3 23.8-20.4 3.43-34-18-9.05-14.2-3.76-29.3z" fill="#e3aa96" stroke="#e3aa96"/>
  <path d="m-23.9 528q7.54 0.831 36.5 23.5 11.6 9.05-6.47 27.1-7.2 7.2-33.5-11.9-10.5-7.64-14-31.3-1.4-9.44 17.5-7.36z" fill="#e300b0" stroke="#e300b0"/>
  <path d="m444 512q4.24-1.59 17.5 10.8 2.44 2.29 6.6 30.2 0.768 5.16-17.7 23.6-3.41 3.41-29.6-2.81-4.82-1.15-0.556-45.1 0.787-8.12 23.8-16.8z" fill="#c700ce" stroke="#c700ce"/>
  <g>
   <path d="m211 58.6q2.96-1.17 26.9 1.57 4.08 0.466 6.1 57.6 0.345 9.73-39.5 14.8-6.79 0.865-12.5-3.57-0.966-0.755 1.27-54.4 0.38-9.13 17.7-16z" fill="#551cab" stroke="#551cd0"/>
   <path d="m316 165c-12.2 2.71-22.1 12.2-30.8 18.9-3.52 2.68-4.96 5.64-4.32 8.86-2.65 8.87-19.2 30.9-19.7 39.9 8.08 25.5 12.4 38.2 12.9 38.3 12.8 1.32 25.5 6.11 31.1 8.11 8.16 16.5 12.6 25.2 12.7 25.3 19.1 2.31 28.8 3.38 28.9 3.2 17.3-19.7 26-29.6 26-29.7 4.13-34.9 17.7-39.2 15.5-47-7.34-22.6-12.7-34.2-16-34.6-14.1-2-30.5-5.42-39.5-6.11-0.0934-5.76-2.89-12.6-8.39-20.6-2.15-3.1-5-4.56-8.56-4.37z" fill="#9c63c1"/>
   <path d="m149 217c-1.37 0.236-9.49 4.07-24.4 11.5-1.29 3.82-11.5 2.23-16.4 3.73-18.4 6.15-27.5 11.1-27.3 15 1.2 25.3 3.59 38.8 7.18 40.6 15.7 7.57 32.6 17.7 42.3 22.6 0.65 3.31 1.72 6.62 3.23 9.92 1.89 4.15 13.8-3.25 35.7-22.2 11.2-9.71 16-15.4 14.3-17-8.75-11.2-18.8-44.1-23.9-55.4-1.29-2.85-4.77-5.76-10.4-8.75-0.031-0.0163-0.0926-0.0157-0.184 0z" fill="#2f7b6f"/>
   <path d="m426 233c-12.2 2.63-21.5 4.15-31.3 8.89-4.01 1.95-3.74 2.61-10.8 7.87-0.936 0.696-2.53 9.04-4.79 25-0.299 2.12 6.26 13.6 19.7 34.5 1.78 2.76 12.2 4.73 31.2 5.9 2.51 0.155 5.76-5.52 6-9.16 11.2-11.5 29-30.1 22.3-42.4-6.39-7.72-22.4-32.5-32.3-30.6z" fill="#c7808a"/>
   <path d="m300 341c-36.7 7.26-38.7 1.84-55 10.9-1.76 0.977-3.7 2.44-4.11 4.41-1.62 7.79 2.21 12.4 7.97 22.5 12.3 21.6 22 29.8 29 24.7 4.65-3.37 8.61-7.8 11.5-12.5 12.7-3.9 26.4-7.55 33.1-11.2 0.194-1.26-0.164-2.39-0.58-3.5-4.89-13-20.3-35.7-22-35.4z" fill="#80aac9"/>
   <path d="m91.5 61.6q0.419-0.188 32.5 6.75 1.99 0.431 11.3 62.6 0.579 3.86-48.4 4.08-3.04 0.014-14.2-11.1-0.696-0.689 11.3-55.9 0.743-3.42 7.49-6.44z" fill="#1c1cfd" stroke="#1c1ce4"/>
  </g>
  <path d="m323 158q3.3-11.2 4.1-11.4 40-10.5 40.4-10 20.7 22.4 20.5 23-10.9 31.9-11.6 31.8-33.9-4.82-34.3-5.37-19.2-27.7-19.1-27.9z" fill="#aa3811" stroke="#aa3811"/>
  <path d="m185 135c-16.3-2.36-41.7 6.83-41.7 7.16-0.098 11.3-0.0756 17.4 0.0664 18.3-0.207 10.9 3.67 28.9 8.01 51.2-0.191 0.875 1.82 2.42 6.02 4.63 1.97 1.03 13.8 1.96 35.5 2.78 10.2 0.382 17-5.84 20.4-18.7 1.61-6-1.96-13.7-10.7-23.1-1.59-16.9-9.39-26.6-9.51-26.7-4.3-3.36-2.33-14.7-8.12-15.6z" fill="#4747a0"/>
  <path d="m314 321q3.73-10.2 21.6-8.08 11.1 1.34 23.8 17.8 7.9 10.2 7.58 13.7-0.198 2.18-24 19.8-14.7 10.9-27.3-12.3-7.8-14.3-1.76-30.9z" fill="#8e8e9a" stroke="#8e8e9a"/>
  <path d="m122 342q10.9-4.99 18.7 2.94 6.93 7.05 10.5 24.6 3.18 15.6-29.3 20.9-28.8 4.76-30.1 0.583-1.15-3.71 8.92-24.7 8.95-18.7 21.3-24.3z" fill="#38aa86" stroke="#38aa86"/>
  <g>
   <path d="m397 401q12-15.3 23.3-18.1 18.5-4.49 27.1 9.02 14.1 22.2 10.5 34.4-5.96 20-19.9 17.8-22.9-3.61-32.5-15-15.8-18.7-8.46-28.1z" fill="#c7c7f9" stroke="#c7c763"/>
   <path d="m155 61q5.4-1.83 27.7 3.55 5.2 1.26 3.08 52.2-0.493 11.9-35.3 17.4-8.11 1.3-8.66 0.876-0.128-0.097-8.17-53.7-1.87-12.5 21.3-20.3z" fill="#381c6e" stroke="#381cc6"/>
   <path d="m419 70.3c-4.14-0.0228-7 0.745-8.55 2.3-12 10.8-23.1 23.4-32.4 32.9-1.62 1.62-3.49 9.69-5.6 24.2-0.253 1.74 5.9 9.4 18.5 23 1.5 1.63 15.9-0.0574 43.2-5.05 7.33-1.32 14.1-11.4 17.9-11.1 5.02-1.96 8.96-4.37 11.8-7.22 5.35-5.35 5.04-13.3-0.914-24-11.2-20-20.3-30.8-27.5-32.5-6.73-1.6-12.2-2.41-16.3-2.44z" fill="#c72a3c"/>
  </g>
  <path d="m239 189c11-3.64 16.2-3.46 27.9-3.87 4.52 3.27 7.05 6.22 7.57 8.84 0.435 2.19-2.83 8.9-9.79 20.1-5.83 9.4-15.6 13.3-29.2 11.8-11.4-1.29-17.7-2.74-19-4.37-1.06-1.37-0.207-7.17 2.54-17.4 2.3-8.57 6.84-10.8 20-15.1z" fill="#715589" stroke="#715589"/>
  <path d="m391 306q7.45 11.6-11.6 25.6-9.26 6.81-23.2-11.1-6.75-8.68 10.9-28.7 8.57-9.73 23.9 14.2z" fill="#aa8ea7" stroke="#aa8ea7"/>
  <path d="m182 345q44.4-11 48.1-4.44 6.31 11 6.3 11.5-0.02 0.754-0.759 4.17-1.25 5.76-17.8 22.7-28 28.6-32.4 30.1-7.36 2.43-13.2-7.58-9.83-16.9-12.3-29.2-4.25-20.8 22.1-27.3z" fill="#55aa62" stroke="#55aa62"/>
  <path d="m367 57.2q27.8 21.9 27.7 22.2-0.185 0.704-6.93 7.45-16 16-29.6 8.41-32.2-18.1-23.5-26.7 20.5-20.5 32.3-11.3z" fill="#aa1c50" stroke="#aa1c50"/>
  <path d="m267 132c-13.4 1.84-23.2 1.96-34.2 3.35-22.4 2.86-33.4 6.71-33 11.5 1.18 12.5 3.56 20.7 7.14 24.6 9.27 9.99 12.6 16.9 19.3 14.6 11.4-7.3 44.6-4.51 56-5 6.71-5.11 8.06-13 4.05-23.8-3.87-7.59-10.8-26.5-19.3-25.3z" fill="#6338a7"/>
  <path d="m376 340q26.7-19.6 28.6-19.5 30.4 1.86 31 3.31 10.7 23.1 10.1 24.6-8.29 23.6-10 24-28.1 6.8-30.1 4.89-31.8-30.3-31.8-30.7 0.488-5.36 2.16-6.59z" fill="#c7aa4c" stroke="#c7aa1a"/>
  <path d="m242 373q23.1 40.5 22.6 44.1-2.58 20.6-12.8 16.7-58.5-22.2-51.8-29 38-38.8 42-31.8z" fill="#71c72e" stroke="#71c72e"/>
  <path d="m264 53.3q3.55-1.53 4.95-1.52 0.307 4e-3 29.8 23.8 6.46 5.21 3.4 34.5-0.671 6.43-21.3 11.8-4.53 1.18-24.7 5.46-4.43 0.937-5.63-0.027-0.263-0.211-2.21-55-0.427-12 15.8-19z" fill="#711cf2" stroke="#711cc8"/>
  <path d="m85.4 142q1e-3 -1.15 49.2-1.38 2.79-0.013 3.43 0.476 0.036 0.028-0.107 16.6-8e-3 0.94-38.5 20-2.18 1.08-13.4-14.5-0.637-0.883-0.629-21.2z" fill="#1c38e5" stroke="#1c38e5"/>
  <path d="m206 224q4.37 0.165 7.53 4.25 0.317 0.411-3.62 48.7-0.395 4.86-17.8 2.49-1.74-0.237-5.22-3.55-0.35-0.333-22.2-48.7-2.2-4.86 41.3-3.23z" fill="#5571dd" stroke="#5571dd"/>
  <path d="m280 128q24.8-6.47 25.1-6.11 16.3 22.5 16.2 22.7-3.31 11.3-3.67 11.5-21.9 15.4-22.1 14.7-15.9-42.7-15.5-42.8z" fill="#8e3810" stroke="#8e3810"/>
  <path d="m142 179q5 29.5 4.68 30.9-0.588 2.7-9.53 7.16-17 8.46-19 8.26-3.98-0.371-9.3-14.7-10.1-27.1 3.95-34.1 26.6-13.2 29.2 2.4z" fill="#38555c" stroke="#38555c"/>
  <path d="m270 279q0.765-0.465 26.3 2.16 0.526 0.054 13.6 26.6 0.269 0.545-9.3 26.8-0.197 0.54-56.5 11.7-1.16 0.229-11-17-0.202-0.354-0.396-27.1-4e-3 -0.549 37.2-23.1z" fill="#718eed" stroke="#718eed"/>
  <path d="m37.1 346q14.3-14.3 31.5-9.49 35.6 9.86 29.4 22.8-12.8 26.7-17.7 24.4-10.2-4.81-23.2-13.3-26.9-17.5-20-24.4z" fill="#1caa57" stroke="#1caa57"/>
  <path d="m350 424q0.314-0.892 28.7-9.65 5.59-1.72 26.8 23.5 4.18 4.96-17 26.1-4.17 4.17-34.2-28.9-5.91-6.51-4.32-11z" fill="#aac7e1" stroke="#aac7cc"/>
  <path d="m86.5 173q7.52 10.4 13.2 25.6 9.77 26.3-1.84 30.2-20.2 6.74-24.3 5.52-7.23-2.11-10.9-16.5-6.3-25 3.14-34.4 16.4-16.4 20.7-10.4z" fill="#1c559d" stroke="#1c5560"/>
  <path d="m207 288q0.962 0.131 16.5 13 0.827 0.68 1.02 26.6 0.01 1.37-67.1 18-3.56 0.882-17.5-13.3-0.741-0.755-0.686-3.55 3e-3 -0.148 47.2-41 2.5-2.17 20.6 0.303z" fill="#558ee6" stroke="#558ee6"/>
  <path d="m322 80.6q0.728-0.133 43.5 23.9 2.89 1.62-0.428 24.5-0.224 1.54-38.5 11.6-2.58 0.677-18.1-20.8-1.05-1.45 2.45-34.9 0.236-2.26 11-4.23z" fill="#8e1ce3" stroke="#8e1ce3"/>
  <path d="m409 160q30.7-5.61 31.5 14.9 1.67 41.4-1.11 44.2-5.62 5.62-17.7 9.04-24.4 6.92-25 6.85-1.17-0.141-5.43-13.3-8.6-26.5-4.92-37.3 7.44-21.7 22.6-24.5z" fill="#c75558" stroke="#c75558"/>
  <path d="m242 232q13.5 1.52 21.5 26.8 4.49 14.2-19.8 28.9-13.6 8.28-24.2-0.378-5.89-4.85-3.12-38.9 1.56-19.1 25.6-16.4z" fill="#71719f" stroke="#71719f"/>
  <path d="m104 302c12.4 5.99 20.2 12.3 23.2 18.9 2.55 5.59 3.82 8.92 3.79 9.98-0.0173 0.896-4.23 3.26-12.6 7.1-7.08 3.23-20.2 2.2-39.3-3.1-16.1-4.46-23.8-8.87-23-13.2 0.662-3.67 11.1-11.4 20.1-20.5 7.58-7.58 13.1-6.36 27.9 0.749z" fill="#1c8e89" stroke="#1c8e89"/>
  <path d="m331 379q37.9-28.1 38.4-27.6 33.3 31.8 33 32.1-19 24.3-19.5 24.4-33.5 10.3-33.8 9.78-19-36.3-19-36.3 0.299-1.95 0.874-2.38z" fill="#aaaa10" stroke="#aaaa10"/>
 </g>
</svg>
