<?xml version="1.0" encoding="UTF-8"?>
<svg width="512px" height="512px" contentScriptType="text/ecmascript" contentStyleType="text/css" version="1.1" viewBox="0 0 512 512" xmlns="http://www.w3.org/2000/svg">
 <g class="voronoi" stroke-width=".5">
  <path d="m33.1-50.3 7.76 30.8-24.3 5.18-9.74-28.9z" fill="#00e358"/>
  <path d="m458-37.1 39.9 3.59 31.6 25.6 4.85 5.94-17.3 17.4-55.1-29.8z" fill="#e3e3c9"/>
  <path d="m303 25.7c-1.16-6.72 8.13-4 14.3-3.82 0 0 18 5.29 22.6 18.2 4.96 13.8-0.788 23.9-13.2 25-12.6 1.06-21.6-26.6-21.6-26.6z" fill="#8e00cf"/>
  <path d="m-13.2 126 13.2 3.6s5.46 1.4 6.87 6.41c1.98 7.04-6.87 13.7-6.87 13.7l-10.9 11.6-25.6 20.8-12.6-8.24-3.62-33.7z" fill="#e3388e"/>
  <path d="m526 232 19.8-17.1 10.5 24.5 2.16 38.9-19.9 10.4-20.3-16.8z" fill="#007170"/>
  <path d="m38.1 425c-8.85-1.08-4.86 16.1-8.29 24.3-3.83 9.17-20.2 9.51-22.9 19.1-2.76 9.77 0.684 24.3 9.74 28.9 6.43 3.26 20.6-6.51 20.6-6.51l24-11.7s41.3-28.2 27.4-34.8c-20-9.56-32.3-17-50.5-19.2z" fill="#00d534"/>
  <path d="m459 437c10.4-15.1 53-14.6 53-14.6l18.6-2.48 2.17 0.445 0.978 25.5-21.8 22.3s-5.91 4.57-8.55 4.96c-14.4 2.13-35.4-20.4-35.4-20.4s-6.99-5.54-8.51-9.52c-1.64-4.3-1.77-4.5-0.589-6.21z" fill="#e3c7ec"/>
  <path d="m334 486c7.24-1.92 7.01 1.46 8.55 7.71 2.08 8.44-7.78 18.7-7.78 18.7l-13.1 14.8-14.4 1.9 0.707-16.7s1.98-10.5 5.56-14.2c4.98-5.22 14.2-10.6 20.4-12.2z" fill="#8ee3e0"/>
  <path d="m187-67.2 31.7 7.13 11.5 24.5-15.6 19.6-34-8.15-24-22z" fill="#55e345"/>
  <path d="m8.79 29.8c0.0781-7.17 2.7-18 9.82-18.9 18.9-2.3 34.9 19.1 45.9 34.2 6.02 8.24-5.94 17.3-16.1 17.9-10.8 0.677-28.4-16.4-28.4-16.4s-11.2-8.67-11.1-16.8z" fill="#00009c"/>
  <path d="m445-14.3 30.2 14 0.43 0.334s27.1 12.9 31.2 26.9c1.9 6.46-3.31 19.1-3.31 19.1s-9.89 17.2-18 16c-11.6-1.79-25.4-32.7-25.4-32.7l-10.2-29.3z" fill="#e3006f"/>
  <path d="m-32 187 32 13.5s11.7 5.56 13.6 10.5c3.7 9.57-11.9 23.6-11.9 23.6l-42.8-5.79-1.28-33.1z" fill="#e355c7"/>
  <path d="m507 315 11.3-12.7 25.7-8.73 24.8 23-13 25.3-42-12.8-1.68-3.53z" fill="#008ebf"/>
  <path d="m456 474c0.045-12.7 9.45-21.2 14.4-16.3 11.3 11.2 41.7 31.9 41.7 31.9l17.3 14 4.85 5.94-17.3 17.4-28.7-15.5s-20.3-6.4-26.5-14.3c-4.92-6.31-5.97-15.6-5.94-23.3z" fill="#e3e3c9"/>
  <path d="m318-32.9 34.7 13.3-30.4 34.4-14.4 1.9 0.707-16.7 1.18-28z" fill="#8ee3e0"/>
  <path d="m122 16.8c-5.37 2.31-11.6 13.2-11.6 13.2l0.0527 11.7 7.46 39.6c0.071 7.53-2.54 28.8 1.24 34 1.93 2.2 9.84 4.05 23.7 5.53 15.8 1.68 19.6 5.25 26.4-0.336 9.36-7.72 4.54-22.9 7.41-35.6 1.56-18.7 28.8-33.5 12-43l-42-23.9s-17.1-4.18-24.7-0.928z" fill="#380e9d"/>
  <path d="m-41.1 70.8 11-5.22 42.6 33.1s7.9 7.64 2.87 13.8c-4.09 5.03-15.3 7.39-15.3 7.39l-31.6-2.72-23.3-10.1 3-20.3z" fill="#e31caf"/>
  <path d="m533 148 16.4 59.2-1.36 0.59-14-1.31-22.2-14.1s-11.3-4.27-19.2-6.14c-8.32-1.96-3.43-14.2 2.91-14 5.78 0.199 16.3-8.41 16.3-8.41z" fill="#005528"/>
  <path d="m-12.9 332 24.8 6.79s27.4 11.8 32.6 24.3c3.35 8.19 3.2 21.2-4.04 26.2-7.37 5.18-17.8 3.57-26.5-5.19-3.81-3.82-14-25.6-14-25.6z" fill="#00aa73"/>
  <path d="m467 347c4.54-7.2 14.7-6.48 22.7-3.76 12.8 4.31 22 28.6 22 28.6l14.3 22.1 5.66 18.3-60.2 9.24s-3.96-1.97-7.1-4.94c-12.1-11.4-0.0951-29.9 0.614-44.9 0.392-8.25-2.57-17.4 2.01-24.7z" fill="#e3aac9"/>
  <path d="m151 461c11.7-4e-3 38.2 25.1 30.3 35.4-4.56 6.01-13.9 16-13.9 16l-9.94 11.9-28.6-3.55 1.37-8.35s2.69-22 8.51-30.6c1.89-2.8 8.92-20.8 12.3-20.8z" fill="#38e3df"/>
  <path d="m-66.9 498 30.2 14 35 27.2-11.8 16.3-19 15.6-19.3-29.5z" fill="#e3006f"/>
  <path d="m393 543 7.56-20.8 16.7-10.6s5.8-3.94 10.1-3.01c2.75 0.592 5.65 3.01 5.65 3.01l27.3 41.5-0.753 28.4-48.8-24.7z" fill="#c700b4"/>
  <path d="m363-67.1 14.3 29 0.542 20.5-26.2-6.56-21.7-19.2z" fill="#aae33b"/>
  <path d="m195-13 28 5.11-0.229 7.92-0.196 6.79s-0.613 33.9-13.3 39.9c-2.51 1.19-5.37-1.59-7.78-2.98-13.9-8.03-35.5-10.3-35.7-26.3-0.0844-6.84 13.9-17.4 13.9-17.4z" fill="#550029"/>
  <path d="m-18 59.4 18-9.57s8.69-0.73 12.6-0.107c16.1 2.58 27.4 14.1 31.6 29.8 2.59 9.79 0.247 22.8-7.42 29.5-1.55 1.34-4.18 1.26-6.12 0.605-2.98-1.01-4.65-4.24-6.89-6.45-8.14-8.06-23.7-24.9-23.7-24.9z" fill="#001c34"/>
  <path d="m469 74.4c3.49-2.52 8.2-4.59 12.2-4.15 12.7 1.38 30.3 18.8 30.3 18.8l12.5 9.69 6.92 22.9-19.4-1.67s-20.6-1.27-30.9-3.87c-8.2-2.08-16.2-5.53-20.5-12.9-3.48-5.89-0.487-16.4-0.487-16.4s5.19-9.35 9.39-12.4z" fill="#e31caf"/>
  <path d="m-51.9 233 28.5 6.35 24.1 34-4.08 27.9-25.6-18.4-20.7-34.8z" fill="#e37192"/>
  <path d="m503 343c2.84-3.42 9.5-7.33 9.5-7.33l12 3.27 32.6 24.3-4.04 26.2-33.4-16.2-7.06-14.6s-15.8-8.12-9.5-15.7z" fill="#00aa73"/>
  <path d="m187 445s23.3 0.345 31.7 7.13c7.03 5.64 12.6 15.5 11.5 24.5-0.969 8.31-9.81 1.68-17.7 4.41-11 3.8-21.9 10.9-27.5 0.646-5.23-9.59-23-14.4-19.2-25.5 2.56-7.57 21.2-11.2 21.2-11.2z" fill="#55e345"/>
  <path d="m451 503c8.23-7.46 24.2 8.67 24.2 8.67l0.43 0.334 34.6 26.9-11.8 16.3-19 15.6-19.3-29.5-10.2-29.3s-2.67-5.62 1.08-9.01z" fill="#e3006f"/>
  <path d="m86.9-50 14.6-13.7 19.3 17.6 5.01 36.9-4.68 9.17s-6.6 7.25-12.2 8.53c-8.29 1.88-15.9-8.53-15.9-8.53l-12.5-9.53z" fill="#1ce39d"/>
  <path d="m545-50.3 7.76 30.8-24.3 5.18-9.74-28.9z" fill="#00e358"/>
  <path d="m361-16.4 23.1 4.88 13.1 13.8s-3.66 20.2-11.2 25.7c-5.17 3.77-12.7 2.51-19.1 1.93-14.3-1.31-37.9 1.92-41.4-12-2.06-8.31 18.5-17.8 18.5-17.8z" fill="#aa0016"/>
  <path d="m42.1 115-8.34 4.99-3.48 6.36c-10.6 19.3-0.273 59.7 9.51 77.5 1.12 1.87 5.31-3.8 5.31-3.8l48.6-34.2c5.57-1.61 10.7-9.36 15.4-23.3 4.56-13.6 5.88-21.6 3.94-23.8-1.7-1.93-14.5-3.24-38.4-3.92-10.7 1.05-22-2.29-32.4 0.0625z" fill="#0e38a9"/>
  <path d="m499 126 28.2 7.71-26 27.6s-10.6 11.8-17.8 13.5c-8.04 1.82-19.3-0.314-24.2-4.95-8.24-7.74-3.43-37.6 2.32-45.7 8.11-11.4 37.5 1.89 37.5 1.89z" fill="#e3388e"/>
  <path d="m-42.5 273 33 39.7-4.94 11.3-6.77 6.49-13.1 3.47-34.6-37.7z" fill="#e38e16"/>
  <path d="m540 423 63.4 21.1-29.7 35.2-9.71 3.23-21.7-32.9z" fill="#00c7e4"/>
  <path d="m360 459c-8.78-0.0718-9.22 9.29-9.22 9.29-7.74 15.1 3.14 27.2-6.7 43.7l-18.5 17.8 41.4 12 19.1-1.93 11.2-25.7-2.15-2.25s-16.2-24.4-18-38.2c-1.01-7.5-6.34-14.7-17.1-14.8z" fill="#aa0016"/>
  <path d="m192 497c2.95-7.95 18-15.5 25.9-9.23 5.65 4.5 4.86 24.1 4.86 24.1l-0.196 6.79-13.3 39.9-7.78-2.98-37.4-30.4 15.6-13.3s10.2-9.28 12.3-14.9z" fill="#550029"/>
  <path d="m144-36 38.5 18.1-15 17.9s-7.81 9.61-12.6 11.5c-8.93 3.52-25.9-3.16-25.9-3.16l6.41-39.1z" fill="#38e3df"/>
  <path d="m-66.9-14.3 30.2 14 35 27.2-11.8 16.3-19 15.6-19.3-29.5z" fill="#e3006f"/>
  <path d="m394 30.8c-2.05-7.1 6.12-20.2 6.12-20.2l27.8-17.7 31.9 48.6s7.38 23.6-0.753 28.4c-15.6 9.33-48.8-24.7-48.8-24.7s-14.3-7.24-16.4-14.4z" fill="#c700b4"/>
  <path d="m534 132 11.8-12.1 3-1.97 36 45.8-27.7 36.2-5.32 3.8-17.2-61z" fill="#0038dc"/>
  <path d="m-5.02 315 11.3-12.7s17.8-13.1 25.7-8.73c6.87 3.82 5.35 23 5.35 23s12.7 19.4 6.39 25.4c-10.6 10.1-42-12.8-42-12.8l-1.68-3.53z" fill="#008ebf"/>
  <path d="m462 280c17.1 1.33 34.5 16.2 40.3 32.3 2.44 6.75 2.34 18.2-0.0105 21.5-4.77 7.21-19.3 5.64-24.8-0.288 0 0-27-22.4-34.6-37.7-3.53-7.16 7.32-16.9 19-15.9z" fill="#e38e16"/>
  <path d="m-54.2 475 39.9 3.59 31.6 25.6 4.85 5.94-17.3 17.4-55.1-29.8z" fill="#e3e3c9"/>
  <path d="m368 429c-13 10.6 7.96 30.7 13.4 42.6 3.16 6.95 5.5 15.2 9.29 22.1 3.06 5.53 5.69 13.3 11.8 14.8 11.9 3.05 38.9-9.01 38.9-9.01s5.76-5.18 7.25-8.63c2.87-6.63 2.57-21.5 2.57-21.5s7.53-26.2-0.463-34.4c-24.8-2.38-62.3-21-82.7-5.83z" fill="#b9d522"/>
  <path d="m238-35.6 35.3-15.2 27 15.5 0.782 35.2 0.202 9.07-3.41 10-57.4-17.8-11.1-12z" fill="#71e3d0"/>
  <path d="m29.9 0.189 0.149-0.189 2.32-2.94 20.7-20 11.7 3.96 16.6 19s15.3 16.9 16.2 28.1c0.284 3.72-5.75 9.47-10.6 11.2-5.41 1.92-11.9 0.168-17.1-2.26-16.4-7.68-40-36.8-40-36.8z" fill="#1c0024"/>
  <path d="m517 27.5 13.7-16.6 35.8 17.7 1.38 30.7-35.8-12.8z" fill="#00009c"/>
  <path d="m18.9 155c13 21.6 16.3 49.5 13.2 50.4-4.73 1.35-4.89 1.43-9.81 0.969l-42.8-27.2 20.6-15.4s14.3-16.3 18.9-8.76z" fill="#005528"/>
  <path d="m426 173c-16.6 0.602-16.9 2.88-21.4 9.23-5.54 7.88-12 10.2-1.79 28.8 10.1 18.4 20.8 26.1 32.4 23.2 11.4-2.94 21.9-3.33 23.7-3.61 15-2.25 36.2 1.97 52.8 4.28l1.76 0.236 13-27.9-14.7-6.21-49.6-22.6c-10.7-4.85-27.3-5.77-36.2-5.47z" fill="#e355c7"/>
  <path d="m-32.7 343 10.8-5.21 21.9 33.9s11.3 13.6 19.3 18.7c6.34 4.05 9.05 12.9 5.66 18.3-3.57 5.71-25 6.47-25 6.47l-40.3 6.18-12.9 1.37 13.5-62.4z" fill="#e3aac9"/>
  <path d="m69.8 486c2.35-14.9 21.8-24.8 38.2-23.1 17.5 1.74 18.4 31.4 18.4 31.4l-0.684 8.16-12.6 24.7-32.7-25s-11.8-8.67-10.6-16.1z" fill="#1ce39d"/>
  <path d="m545 462 7.76 30.8-24.3 5.18-9.74-28.9z" fill="#00e358"/>
  <path d="m-54.2-37.1 39.9 3.59 31.6 25.6 4.85 5.94-17.3 17.4-55.1-29.8z" fill="#e3e3c9"/>
  <path d="m417-78.8 33.9 1.52 0.463 34.4-8.5 18.9-6.21 6.11-34 14.2-14.2-13.2-6.53-27z" fill="#c7e30d"/>
  <path d="m271 16.4c-15.3-2.99-37-7.71-46.4 4.62-4.47 5.81-0.659 15-5.92 22.3-6.75 14.6-26.6 23-30.7 39-5.04 22.4-3.82 34.4 3.67 35.8 34.6 6.56 42.2 2.36 52.1 9.78 2.44 1.83 19 21.5 31.3 19.9 13.3-1.76 33.9-24.8 50.6-37.4 4.03-3.02-28.1-80.2-29.5-80.7 0 0-15.8-11.4-25-13.2z" fill="#6813c4"/>
  <path d="m503 61.1c1.09-6.72 9.38-11.3 9.38-11.3l10.4-5.52 33.8 35.2-7.42 29.5-1.82 1.62-11.2-7.47-23.7-24.9s-10.8-8.58-9.38-17.2z" fill="#001c34"/>
  <path d="m13.6 232s3.64-19 12.1-17.1c8.66 1.99 18.2 24.5 18.2 24.5l2.16 38.9-19.9 10.4-20.3-16.8z" fill="#007170"/>
  <path d="m464 236c7.13-6.62 24.9 4.12 24.9 4.12l24.1 34-0.733 5s-2.33 13.2-9.42 16.2c-9.68 4.11-19.6-11.7-19.6-11.7s-17.9-21.6-20.7-34.8c-0.909-4.19-2.3-9.35 1.41-12.8z" fill="#e37192"/>
  <path d="m-52.4 429 71-9.47s5.95-0.468 6.51 0.0177c4.72 4.13 6.76 14.4 2.23 21.6-3.99 6.34-27.3 26.6-27.3 26.6l-5.6 5.73-46.2-7.54-1.61-33.9z" fill="#e3c7ec"/>
  <path d="m304 417c-16.8 7.78-22.7 30-38 40.4-7.22 4.86-18.5 2.98-24.3 9.46-7.56 8.42-9.33 22.9-8.83 32.8 0.244 4.84 7.28 12.7 7.28 12.7l1.23 1.32 57.4 17.8 3.41-10-0.201-9.07 4.37-10.2c5.92-13.7 23.2-15.2 31.9-25.7 7.33-8.77 16.1-27.3 16.4-30.1 0.751-8.85 1.39-12-0.697-17.4-2.2-5.69-2.18-13.5-11.8-14-11.6-0.755-26.6-3.32-38.1 2.03z" fill="#71e3d0"/>
  <path d="m29.9 512 0.149-0.189 2.32-2.94s11.4-17.9 20.7-20c4.01-0.899 8.26 1.67 11.7 3.96 6.99 4.68 16.6 19 16.6 19l22.1 25.3-6 9.46-27.5 2.24z" fill="#1c0024"/>
  <path d="m357 186q3.58-2.98 14.4-2.13 10.7 0.842 26 28.8 15.1 27.6 8.35 37.6-6.62 9.86-11.2 11.1-4.54 1.18-32.7-15.9-27.8-16.9-18.1-36.8 9.62-19.6 13.3-22.6z" fill="#aa5580"/>
  <path d="m193 256q2.06-8.31 18.5-10.3 27-3.24 30.2-0.709 5.2 4.18 11.8 18.1 10.9 22.9 5.77 25.3-8.54 3.93-26.9-0.152-30.3-6.73-34.2-14.4-6.37-12.7-5.12-17.7z" fill="#557163"/>
  <path d="m288 377q3.59-6.44 19-13.1 25.6-11 34.4 9.66 14.6 34.5 14.4 35.3-0.413 1.45-22.6 0.224-37-2.04-40.9-10.7-6.61-14.4-6.5-15.6 0.188-2.02 2.34-5.89z" fill="#8eaa62"/>
  <path d="m141 404c9.82 1.85 18 9.87 24.6 24 4.21 9.08-4.4 13-16 24.6-7.44 7.44-8.01 18-11.5 18.9-13.4 1.93-19.5-9.05-35.3-16.4-7.68-7.39 5.04-20.2 10.2-38.2 3.33-11.5 12.7-15.8 28-12.9z" fill="#38c798"/>
  <path d="m63.9 60.2q12.4-12.4 25.1-16 12.9-3.63 18.1 4.78 5.29 8.59 4.37 34.3-0.945 26.2-34.3 25.3-34-0.963-29.8-18.4 4.34-17.8 16.5-30z" fill="#1c1c7e"/>
  <path d="m360 114c8.18-6.61 24.7-4.59 31.5-0.195 7.71 4.94 12 7.65 9.28 24.8-3.01 19.3 1.49 39.3-2.77 42.2-4.79 3.26-18.7-4.3-25.5-4.83-7.62-0.599-14.3-10.1-20-28.4-6.46-20.6-1.48-26.4 7.45-33.6z" fill="#aa3878"/>
  <path d="m191 190q6.46-0.7 26.6 5.83 16.4 5.33 17.6 25.7 0.951 16.6-23 19.5-19.5 2.34-23.9-7.14-3.58-7.74-4.47-27.1-0.729-15.8 7.19-16.7z" fill="#55558b"/>
  <path d="m259 297c-3.33 1.53-10.7 10.9-22.1 28.2-6.53 9.89 1.46 22.3 24 37.1 19.1 8.69 58.1-2.6 72.7-17.9 10.3-13.3 15.4-20.1 15.4-20.3-0.411-1.87-2.69-3.84-6.85-5.91-36.7-18.3-62.5-27.8-63.1-27.6-8.86 1.94-11.6 2.74-20 6.33z" fill="#808e9d"/>
  <path d="m121 341q9.27-11.6 17.3-10.5 36 4.69 39.4 7.59 15.3 13.1 15.3 14.4-0.06 6.25-1.28 10.2-5.5 17.8-10.7 21-23.5 14.6-30.4 13.3-30.9-5.83-32.3-9.29-6.55-15.5-5.24-20.7 5.9-23.4 7.96-26z" fill="#38aa36"/>
  <path d="m394 384c23.5-1.1 56.5 42.5 56.5 42.5 0.0327 0.26 0.0333 0.422 2e-3 0.487-0.692 1.43-1.53 2.13-2.51 2.09-21.7-0.859-32.9-8.81-34.3-9.16-31.8-7.62-48.1-4.11-48.2-4.18-0.879-1.58-1.31-2.41-1.29-2.47 0.422-1.48 1.08-2.79 1.97-3.93 19.8-25.3 15.3-24.7 27.8-25.3z" fill="#c7c716"/>
  <path d="m298 137q30.9-22.7 34.1-21.2 4.54 2.08 12.1 26.1 10.8 34.4 7.81 36.9-4.25 3.54-32.8-4.57-40.9-11.6-41.7-15.6-1.11-5.73 20.5-21.5z" fill="#8e386b"/>
  <path d="m161 190q12.5-2.19 15.1-0.091 0.903 0.735 2.1 26.8 0.42 9.12-46 22.8-16.2 4.77-18.9-6.46-0.926-3.93 8.58-28.3 3.32-8.51 39.1-14.8z" fill="#3855b6"/>
  <path d="m416 248c1.38-2.05 11.8-5.58 31.1-10.6 3.55-0.917 8.37 7.21 14.5 24.4 1.12 3.15-9.08 9.72-23.8 24.4-2.69 2.69-6.07 3.93-17-0.964-2-0.898-6.7-6.73-14.1-17.5-1.36-1.97 1.72-8.55 9.23-19.7z" fill="#c771ce"/>
  <path d="m71.2 329q40.2 14.5 39.6 17-6.58 26.1-10.6 26.5-41.8 4.32-43.1 2.07-13.3-23.5-11.2-25.5 21.4-21.4 25.3-20z" fill="#1caa20"/>
  <path d="m273 179q3.69-11.7 23.7-6 49.4 14 43.8 25.4-13.8 28.1-15.1 28.8-3.27 1.9-13.2-3.3-24.5-12.8-29.1-20.7-11.5-19.5-10-24.2z" fill="#8e554f"/>
  <path d="m118 248q61.1-17.9 61.3-17.5 7.76 16.8 7.67 17.1-3.22 13-4.71 13.5-57.8 20.8-58 20.4-9.43-13.2-9.39-13.7 1.62-19.4 3.19-19.8z" fill="#387112"/>
  <path d="m429 294q9 4.04 28.9 24.5 17.3 17.7 14.7 20.3-2.26 2.26-34 2.57-27.5 0.272-23.5-27.7 3.52-24.3 13.9-19.7z" fill="#c78e87"/>
  <path d="m202 353c5e-3 -0.503 6.98-3.28 20.9-8.34 1.53-0.553 18.3 9.71 50.2 30.8 3.5 2.31 5.16 4.44 4.98 6.38 15.8 23.3-6.48 11.3-26 17-2.14 0.621-19.6-16.8-45.8-35.8-2.87-2.09-4.28-5.42-4.24-10z" fill="#71aadb"/>
  <path d="m36.2 403q21.4-21.4 30.7-22.4 36.5-3.78 38.1 0.078 6.38 15.1 3.79 24.1-10.2 35.3-10.6 35.4-1.56 0.465-15.3-4.44-53.8-19.3-53.9-19.4-0.348-0.552 0.063-2.04 1.61-5.86 7.07-11.3z" fill="#1cc73b"/>
  <path d="m390 38.7c-4.91-3.6-12.8-4.2-18.9-2.27-14.9 4.76-14.1 10.9-34.8 31.6-7.7 11.7-13 26.8-4.78 37 7.23 8.98 27.3-1.09 36.8-2.28 16.6-1.99 51.9 3.24 66.1 1.82 9.37-0.931 17.3-8.12 18.3-17.4 1.42-13.2-20.2-17.3-43.5-34.3z" fill="#b91c4c"/>
  <path d="m246 135q0.749-0.175 9.91 7.6 13 11 13.8 15.1 1.1 5.71-1.04 12.5-3.04 9.65-14.4 16.1-16.1 9.22-31.2 4.32-21.4-6.96-3.26-27 25.8-28.5 26.3-28.6z" fill="#71386b"/>
  <path d="m96 176c6.83-0.199 9.15-0.653 15.1 6.81 6.01 7.55 6.89 16.8 2.63 27.6-4.3 11-15.3 10.8-35.2 4.11-20.2-6.72-23.6-11.3-12.1-22.8 11.6-11.6 22.8-15.6 29.6-15.8z" fill="#1c557e"/>
  <path d="m327 243c-0.811-2.62-1.1-8.06-0.889-8.18 2.86-1.66 5.57-1.71 8.13-0.151 34.8 21.1 51.5 32.5 50.2 34-17.6 21-27.2 30.3-28.9 27.7-22.8-34.8-22.7-34.1-28.6-53.4z" fill="#aa711c"/>
  <path d="m235 295q13.9 3.08-5.37 32.2-7.66 11.6-24.3 17.6-6.61 2.4-20-9.02-5.33-4.54 9.07-36 5.73-12.5 40.6-4.8z" fill="#558eb0"/>
  <path d="m176 124q1.48-1.56 48.4 7.35 16.1 3.06-16.6 39.2-11.2 12.4-21.9 13.6-3.67 0.398-6.27-1.71-0.891-0.724-6.14-40.3-1.8-13.6 2.5-18.1z" fill="#5538b7"/>
  <path d="m259 242c-4.53 4.34-2.12 16.3 7.21 35.8 2.39 5 4.97 7.81 7.72 8.45 0.64 0.147 3.08-0.452 7.14-1.72 7.04 6.24 27.6 12.3 46.5 21.7 14.8 7.36 23.6 8.01 26.5 1.96 4.21-17.9-27.6-42.5-32.2-61.8-4.54-19.3-11.1-16.5-29.4-26.1-8.55-2.51-31.4 19.7-33.5 21.7z" fill="#80714d"/>
  <path d="m153 276q32.3-11.6 37-2.35 5.58 11.1-3.56 31.1-11 24-31 21.4-24-3.13-26.4-20.1-2.93-20.4 24-30.1z" fill="#388e75"/>
  <path d="m398 358c0.231-4.25 2.37-7.46 6.41-9.62 3.37-1.8 15.8-2.81 37.4-3.02 31.5-1.97 17.5 33 14.3 62-4.99 22.9-13.8 3.36-33.6-16.7-16.6-16.7-24.7-27.6-24.5-32.7z" fill="#c7aa89"/>
  <path d="m161 128q5.46 0.582 11.6 47.2 0.864 6.51-41.5 13.9-5.92 1.04-21.6-18.7-2.2-2.76 10.7-41.2 1.8-5.37 40.8-1.21z" fill="#3838d6"/>
  <path d="m46.5 283c5.47-5.47 17.4-6.07 29.5-7.21 22.1-2.1 34.3-1.56 36.6 1.63 4.18 5.86 6.9 13.2 8.16 22 2.32 16.2 2.15 25.9-0.51 29.2-4.89 6.11-12.5 7.31-22.9 3.58-19-6.85-47.8-8.83-53.3-16.3-10.2-13.7-0.463-29.9 2.51-32.9z" fill="#1c8e5d"/>
  <path d="m194 395c-10.8-0.0403-20 0.979-24.2 3.61-5.6 3.48-4.59 13.4 3.04 29.9 3.16 6.81 13.2 10.6 30.2 11.5 3.18 0.159 12.1 3.07 21 5.31 1.86 3.23 9.21 9.01 12.4 13.1 26.5 3.78 41.3-17.4 49-33.2 2.22-4.76 4.54-5.98 0.0391-15.8-2.55-5.54-13.2-12-27.1-8.03-2.74 0.793-8.79 5.59-11.8 4.71-9.42-2.74-32.1-11-52.6-11.1z" fill="#63c757"/>
  <path d="m340 347q15-19.5 19.7-16.6 33.2 20.8 33.1 22.5-0.666 12.3-4.5 17.2-27.1 34.8-30 27.9-20.5-48.3-18.4-51.1z" fill="#aaaa29"/>
  <path d="m428 110c14.5-1.44 22.6-0.689 24.4 2.25 2.07 3.46-2.19 12.3-3.57 26.8-1.62 17-5.48 25.9-20.8 26.5-18 0.654-25.7-7.39-23.1-24.1 3.07-19.7 10.8-30.1 23.1-31.4z" fill="#c73876"/>
  <path d="m262 188q4.47-2.55 18.1 20.4 2.64 4.45-25.2 31.2-5.4 5.18-12.4-0.436-1.36-1.09-3.13-32-0.344-5.99 22.7-19.2z" fill="#7155cc"/>
  <path d="m40.4 218c2.89-3.15 8.34-9.97 11.8-9.26 3.44 0.714 6.63 4.26 16.5 7.57 30.2 10.1 37 16.3 37.6 18.8 1.79 7.61 2.55 13 2.28 16.3-0.832 9.98-5.46 15.4-13.9 16.2-25.7 2.44-39.6-1.2-41.9-10.9-6.8-29.6-12.5-25.7-12.4-38.7z" fill="#1c7145"/>
  <path d="m387 276q3.99-4.78 11.9-6.83 1.29-0.336 12.6 16.1 1.85 2.7-4.64 47.6-1.07 7.38-10.6 12.5-1.57 0.839-34.2-19.5-5.35-3.35-5.94-6.02-0.097-0.439 5.7-12.7 0.952-2.01 25.2-31.1z" fill="#aa8ed1"/>
  <path d="m194 379c3.52-11.4 8.39-14.8 14.6-10.3 22.8 16.6 42.7 30.7 28.8 30-24.7-1.3-44.5-12-43.4-19.7z" fill="#55aa3d"/>
 </g>
</svg>
