<?xml version="1.0" encoding="UTF-8"?>
<svg width="512px" height="512px" contentScriptType="text/ecmascript" contentStyleType="text/css" version="1.1" viewBox="0 0 512 512" xmlns="http://www.w3.org/2000/svg">
 <g class="voronoi" stroke-width=".5">
  <path d="m33.1-50.3 7.76 30.8-24.3 5.18-9.74-28.9z" fill="#00e358"/>
  <path d="m458-37.1 39.9 3.59 31.6 25.6 4.85 5.94-17.3 17.4-55.1-29.8z" fill="#e3e3c9"/>
  <path d="m303 25.7 3.17-4.14 11.2 0.316s39.2 3.25 40.1 9.42c0.854 5.86-15.7 36.9-30.3 37.6-12.6 0.605-21.9-30.4-21.9-30.4z" fill="#8e00cf"/>
  <path d="m-13.2 126 13.2 3.6s5.89 2.83 7.3 7.84c1.98 7.04-7.3 12.2-7.3 12.2l-10.9 11.6-25.6 20.8-12.6-8.24-3.62-33.7z" fill="#e3388e"/>
  <path d="m526 232 19.8-17.1 10.5 24.5 2.16 38.9-19.9 10.4-20.3-16.8z" fill="#007170"/>
  <path d="m96 379c-6.5-0.0637-16.1 0.557-28.7 1.86-6.43 0.665-16.8 8.14-31.1 22.4-3.64 3.64-5.99 7.41-7.07 11.3-0.0242 11.2 5.33 23.8 5.54 35.3 0 0 8.88 30 21.7 32.9 22 5.01 17.2-10.7 23-19.5 32.2-30.1 28.9-29.8 29-56.6 1.65-5.71 0.959-14.2-2.08-25.5-0.387-1.43-3.83-2.18-10.3-2.25z" fill="#0ec78f"/>
  <path d="m479 425 32.9-2.63 18.6-2.48 2.17 0.445 0.978 25.5-21.8 22.3s-4.53 4.45-7.16 4.9c-5.6 0.959-13.7-6.71-13.7-6.71s-28.2-18.1-24.6-33.3c1.66-7.08 12.6-7.93 12.6-7.93z" fill="#e3c7ec"/>
  <path d="m318 479c12.2 4.17 18.1 9.26 28 14.3 7.75 3.94-10.5 18.6-10.5 18.6l-13.1 14.8-14.4 1.9 0.707-16.7s-3.59-20 1.18-28c1.62-2.72 5.15-5.91 8.15-4.89z" fill="#8ee3e0"/>
  <path d="m111 542 11.6-13.2 24.7 0.928 42 23.9-2.14 22.8-51.6-6.19-24.5-16.7z" fill="#3800b4"/>
  <path d="m187-67.2 31.7 7.13 11.5 24.5-15.6 19.6-34-8.15-24-22z" fill="#55e345"/>
  <path d="m445-14.3 30.2 14 0.43 0.334s32 12.5 34.6 26.9c0.804 4.47-3.27 9.25-7.16 11.6-7.85 4.72-26.7 8.62-35.4 5.72-5.52-1.84-1.42-10.2-5.23-15.3-6.2-8.26-12.5-28.9-12.5-28.9z" fill="#e3006f"/>
  <path d="m-32 187 32 13.5s18.5 9.86 20.4 14.8c3.7 9.57-18.7 19.3-18.7 19.3l-42.8-5.79-1.28-33.1z" fill="#e355c7"/>
  <path d="m507 315 11.3-12.7 25.7-8.73 24.8 23-13 25.3-42-12.8-1.68-3.53s-1.14-1.41-1.74-1.76c-2.84-1.68-7.84 4.45-9.8 2.47-2.74-2.77 6.51-11.3 6.51-11.3z" fill="#008ebf"/>
  <path d="m33.1 462c9.15 5.35 13.4 21.8 7.76 30.8-4.37 7.02-15.9 5.12-23.1 1.03-8.83-5.03-15.7-15.8-10.9-24.7 4.26-8 18.4-11.7 26.2-7.15z" fill="#00e358"/>
  <path d="m471 486c8.69-3.38 23.9-16 27-7.17 1.69 4.72 14.3 11.6 14.3 11.6l17.3 14 4.85 5.94-17.3 17.4-28.7-15.5s-36-14.1-36-19.8c0.0642-6.51 13-4.4 18.4-6.49z" fill="#e3e3c9"/>
  <path d="m303 538 3.17-4.14 11.2 0.316 40.1 9.42-26.6 35-25.7-27.8z" fill="#8e00cf"/>
  <path d="m318-32.9 34.7 13.3-30.4 34.4-14.4 1.9 0.707-16.7 1.18-28z" fill="#8ee3e0"/>
  <path d="m144-36-8.68 5.25-5.04 30.8-5.88 16.9s-1.6-0.39-2.3-0.0859c-5.37 2.31-9.53 7.7-11.6 13.2-1.36 3.64-1.77 8.23 0.0527 11.7 4.65 8.73 20 11.3 34.5 15.7 25.7 7.89 46.3 29.5 33.7-12.1l-3.43-11.3-7.85-34 15-17.9z" fill="#38e3df"/>
  <path d="m-41.1 70.8 11-5.22 42.6 33.1s20.9 11.4 15.9 17.6c-4.09 5.03-28.3 3.65-28.3 3.65l-31.6-2.72-23.3-10.1 3-20.3z" fill="#e31caf"/>
  <path d="m533 148 16.4 59.2-1.36 0.59-14-1.31-22.2-14.1s-9.69-3.65-10-11.8c-0.326-8.58 10-16.7 10-16.7z" fill="#005528"/>
  <path d="m-12.9 332 12.9 3.52s24.7 5.05 28.4 6.86c12.2 5.94 9.45 8.9 16.1 20.7 12.3 21.9-6.28 32.7-14.1 36.8-11 5.75-23.3-26.8-23.3-26.8l-7.06-14.6z" fill="#00aa73"/>
  <path d="m486 352c8.42-2.1 8.77 0.611 15.3 6.37 4.36 3.86 10.7 13.7 10.7 13.7l14.3 22.1 5.66 18.3-20 3.06-22.7 2.81c-27.9 7.17-16.6-35.9-11.8-50 0 0 2.52-14.8 8.57-16.3z" fill="#e3aac9"/>
  <path d="m144 476 38.5 18.1-24.9 29.8-28.6-3.55 6.41-39.1z" fill="#38e3df"/>
  <path d="m-66.9 498 30.2 14 35 27.2-11.8 16.3-19 15.6-19.3-29.5z" fill="#e3006f"/>
  <path d="m393 543 7.56-20.8 16.7-10.6s5.58-4.36 9.87-3.44c2.75 0.592 5.87 3.44 5.87 3.44l27.3 41.5-0.753 28.4-48.8-24.7z" fill="#c700b4"/>
  <path d="m363-67.1 14.3 29 0.542 20.5-26.2-6.56-21.7-19.2z" fill="#aae33b"/>
  <path d="m195-13 28 5.11-0.229 7.92-0.196 6.79s-3.8 29.6-13.3 39.9c-5.1 5.54-14.2 12.6-20.8 8.91-12.4-6.97-3.57-28.2-6.01-42.3-0.781-4.47-2.76-13.3-2.76-13.3z" fill="#550029"/>
  <path d="m-18 59.4 18-9.57s10.3-4.25 14.2-4.31c14.3-0.217 29.5 5.88 34.8 17.8 6.4 14.4-12.2 45.7-12.2 45.7s-4.49 1.12-6.54 0.363c-2.8-1.04-6.47-6.21-6.47-6.21l-23.7-24.9z" fill="#001c34"/>
  <path d="m403 43.7c-8.26 0.124-11.6 12-13.7 28.9-1.43 11.6 4.2 21 16.9 28 5.92 3.28 1.02 14.1 22.3 16 0 0 34.8 1.05 55.1 1.73 11.3 0.38 28.4 1.51 28.4 1.51l19.4 1.67-6.92-22.9-12.5-9.69-29.9-15.6s-7.66-4.01-11.2-2.6c-2.89 1.14-9.58 2.31-9.58 2.31-14.6 1.05-29.7-13.9-50.2-26.6-3.16-1.95-5.86-2.84-8.17-2.8z" fill="#e31caf"/>
  <path d="m-51.9 233 28.5 6.35 24.1 34-4.08 27.9-25.6-18.4-20.7-34.8z" fill="#e37192"/>
  <path d="m482 336c5.76-8.33 30.4-1.15 30.4-1.15l12 3.27 32.6 24.3-4.04 26.2-33.4-16.2-7.06-14.6s-4.18-10.3-27.1-11.9c-4.9-0.362-5.3-7.05-3.32-9.92z" fill="#00aa73"/>
  <path d="m187 445 31.7 7.13 11.5 24.5-15.6 19.6-34-8.15-24-22z" fill="#55e345"/>
  <path d="m4.93 539 13.7-16.6 35.8 17.7 1.38 30.7-35.8-12.8z" fill="#00009c"/>
  <path d="m453 503c8.23-7.46 22.5 8.69 22.5 8.69l0.43 0.334 34.6 26.9-11.8 16.3-19 15.6-19.3-29.5-10.2-29.3s-0.948-5.63 2.8-9.02z" fill="#e3006f"/>
  <path d="m86.9-50 14.6-13.7 19.3 17.6 5.01 36.9-12.6 24.7-32.7-25z" fill="#1ce39d"/>
  <path d="m545-50.3 7.76 30.8-24.3 5.18-9.74-28.9z" fill="#00e358"/>
  <path d="m361-16.4 23.1 4.88 13.1 13.8s-3.66 20.2-11.2 25.7c-5.17 3.77-12.7 2.73-19.1 1.93-12.3-1.54-20.3-8.28-35-12.8-8.19-2.51 12.1-17.1 12.1-17.1z" fill="#aa0016"/>
  <path d="m36.8 118c-2.64-2.27-8.29 6.34-8.29 6.34s-5.44 4.56-6.5 7.76c-1.13 3.42 0.656 10.8 0.656 10.8s10.9 44.9 25.7 60c5.46 5.54 13.8 7.65 13.8 7.65 3.14 2.5 7.76 4.77 13.9 6.8 19.6 6.54 28.5 0.593 26.5-17.8-1.92-18.2-16-31.7-22.3-31.6 0 0-29.1-37.5-43.5-49.9z" fill="#0e47ad"/>
  <path d="m427 122c-9.93 0.987-12.8-0.448-19.4 18.1-5.61 15.8-8.46 17.7-4.97 25.7 2.6 5.97 0.145 10.9 16.6 10.3 1.37-0.0497 15.8-1.98 17.1-1.72 0 0 26.4 11.3 39.4 8.11 10.7-2.61 25.6-20.8 25.6-20.8l26-27.6-15-4.11s-8.66-3.11-13.2-3.6c-24.9 0.533-49.2-6.72-72-4.48z" fill="#e3388e"/>
  <path d="m-42.5 273 33 39.7-4.94 11.3-6.77 6.49-13.1 3.47-34.6-37.7z" fill="#e38e16"/>
  <path d="m540 423 63.4 21.1-29.7 35.2-9.71 3.23-21.7-32.9z" fill="#00c7e4"/>
  <path d="m363 445c10.4 2.61 18.5 19.1 14.3 29-2.07 4.84-15.1 4.74-15.1 4.74s-5.94 9.25-10.6 9.22c-9.65-0.0588-20.9-3.84-27.7-11.1-2.84-3.03 25.9-35.1 39.1-31.8z" fill="#aae33b"/>
  <path d="m195 499 28 5.11-0.229 7.92-0.196 6.79-13.3 39.9-7.78-2.98-37.4-30.4 15.6-13.3z" fill="#550029"/>
  <path d="m-66.9-14.3 30.2 14 35 27.2-11.8 16.3-19 15.6-19.3-29.5z" fill="#e3006f"/>
  <path d="m393 31.5 7.56-20.8 27.8-17.7 4.63 7.05s21 26.1 25.5 42.1c2.59 9.11 11.5 21.9 2.79 25.6-4.4 1.9-27.4-19.6-42.4-27-8.23-4.03-25.9-9.25-25.9-9.25z" fill="#c700b4"/>
  <path d="m534 132 11.8-12.1 3-1.97 36 45.8-27.7 36.2-5.32 3.8-17.2-61z" fill="#0038dc"/>
  <path d="m-5.02 315 11.3-12.7s16.8-10.6 25.7-8.73c11 2.35 22.8 11.9 24.8 23 1.64 9.35-4.3 21.6-13 25.3-13.5 5.69-42-12.8-42-12.8l-1.68-3.53z" fill="#008ebf"/>
  <path d="m460 233c-3.77 0.491-10.1 5.25-10.1 5.25-0.224 0.116-2.73-1.92-3.96-1.61-21.8 5.63-33.1 8.78-34 9.46-4.45 3.71-6.98 6.76-7.59 9.16-3.33 13.1-3.07 20.5 0.783 22.2 17.2 7.73 37.3 20.4 40.9 23.8 9.22 8.78 16.4 22.8 31.4 32 3.86 2.35 13.1-3.47 13.1-3.47s4.91-3.98 6.77-6.49c4.9-6.61 11.2-22 11.2-22l4.08-27.9-0.732-1.03s-12.2-25.5-23.4-33c-8.1-5.38-18.8-7.6-28.5-6.35z" fill="#e37192"/>
  <path d="m-54.2 475 39.9 3.59 14.3 11.6s9.35 3.23 14.6 8.48c1.81 1.8 7.58 11.5 7.58 11.5l-17.3 17.4-55.1-29.8z" fill="#e3e3c9"/>
  <path d="m422 437c5.02-8.33 29.1-2.66 29.1-2.66s35.2 27.8 34.3 34.7c-1.39 10.5-23.3 11.5-34.9 17.5-4.59 2.36-13.7 7.21-13.7 7.21s-21.8 10.8-33.9 8.63c-6.37-1.14-14.3-7.67-14.3-7.67s-3.88-18.1-6.53-27c-5.71-19.2 31.2-16.2 39.9-30.7z" fill="#c7e30d"/>
  <path d="m271 528 25 13.2-25.7 28.3-39.7 0.677-6.04-37.5z" fill="#710098"/>
  <path d="m238-35.6 35.3-15.2 27 15.5 0.782 35.2 0.202 9.07-3.41 10-57.4-17.8-11.1-12z" fill="#71e3d0"/>
  <path d="m9.34 25.5c-3.76-10.3 20.7-25.5 20.7-25.5l2.32-2.94 20.7-20 11.7 3.96 16.6 19s18.3 16.6 19.1 27.7c0.284 3.72-10.8 8.48-10.8 8.48s-17.3 18.4-32 17.8c-18.7-0.769-41.2-9.26-48.3-28.6z" fill="#1c0024"/>
  <path d="m517 27.5 13.7-16.6 35.8 17.7 1.38 30.7-35.8-12.8z" fill="#00009c"/>
  <path d="m20 166c7.94 12.6 22.5 39.7 17.6 41.1-5.65 1.59-9.93 0.733-15.4-0.722l-42.8-27.2 20.6-15.4s12.9-8.92 20 2.28z" fill="#005528"/>
  <path d="m492 185c2.61 6.98 20 15.7 20 15.7l14.7 6.21-13 27.9-1.76-0.238s-31.7 4.66-41-5.55c-7.43-8.18-6.93-23.6-1.28-33.1 4.23-7.09 19.3-18.7 22.2-10.9z" fill="#e355c7"/>
  <path d="m-32.7 343 10.8-5.21 36.2 56 5.66 18.3-60.2 9.24-12.9 1.37 13.5-62.4z" fill="#e3aac9"/>
  <path d="m88.4 464c5.33-3.99 8.74-10.8 15.4-10.9 8.71-0.061 13 5.08 17 12.8 5.76 11 8.24 19.4 6.16 31.6-0.576 3.38-5.83 14.5-5.83 14.5l-7.9 15.5-20.3-15.5s-10.1-20.4-12-25.2c-5.07-12.7-3.06-14.9 7.46-22.8z" fill="#1ce39d"/>
  <path d="m545 462 7.76 30.8-24.3 5.18-9.74-28.9z" fill="#00e358"/>
  <path d="m361 496s25.7-4.66 25.6 3.2c-0.0422 5.09 8.46 13.2 8.46 13.2l2.15 2.25-11.2 25.7-19.1 1.93-41.4-12 18.5-17.8z" fill="#aa0016"/>
  <path d="m-54.2-37.1 39.9 3.59 31.6 25.6 4.85 5.94-17.3 17.4-55.1-29.8z" fill="#e3e3c9"/>
  <path d="m417-78.8 33.9 1.52 0.463 34.4-8.5 18.9-6.21 6.11-34 14.2-14.2-13.2-6.53-27z" fill="#c7e30d"/>
  <path d="m271 16.4s23.4 3.93 25 13.2c2.19 12.6-14.1 23-25.7 28.3-12.1 5.45-29.6 9.17-39.7 0.677-9.72-8.14-13.8-27.5-6.04-37.5 9.49-12.3 46.4-4.62 46.4-4.62z" fill="#710098"/>
  <path d="m493 48.1c5.29-0.068 10.7 6.91 15.3 4.32 1.37-0.776 3.97-2.55 3.97-2.55l10.4-5.52 33.8 35.2-7.42 29.5-1.82 1.62-11.2-7.47-23.7-24.9s-30.8-13.9-46.8-26.7c-5.52-4.4 20.5-3.46 27.6-3.55z" fill="#001c34"/>
  <path d="m42.6 212s-22.6 10.1-29 19.9c-7.4 11.3-12.2 27.2-7.62 39.9 2.96 8.26 11.5 15.8 20.3 16.8 15.3 1.86 37.1-20.8 41.6-20.1 3.85 0.587 8.4 0.631 13.7 0.131 5.58-0.531 9.23-1.73 11-3.58 0.567-0.611 3.64-9.24 9.22-25.9 1.83-5.47 3.99-5.69 2.69-8.28-7.07-14-14.9-4.98-44.6-14.9-4.01-4.14-12.5-6.72-17.2-4.01z" fill="#0e715b"/>
  <path d="m-52.4 429 52.4-6.99s14.9-2.52 20.4 0.474c3.06 1.67 2.08 3.08 2.7 6.5 0.988 5.42 1.75 8.54-1.31 16.5-3.73 9.68-21.8 22.3-21.8 22.3l-5.6 5.73-46.2-7.54-1.61-33.9z" fill="#e3c7ec"/>
  <path d="m238 476c8.73-9.39 22.5-15.9 35.3-15.2 10.4 0.607 21.7 6.61 27 15.5 5.99 10.1 0.782 35.2 0.782 35.2l0.202 9.07-3.41 10-57.4-17.8-1.23-1.32s-8.43-10.8-9.43-15.5c-1.82-8.61 2.15-13.6 8.14-20z" fill="#71e3d0"/>
  <path d="m29.9 512 0.149-0.189 2.32-2.94s11.6-17.1 20.7-20c6.17-1.95 18.6-1.05 19.2 3.03 0.94 7.16 9.1 19.9 9.1 19.9l22.1 25.3-6 9.46-27.5 2.24z" fill="#1c0024"/>
  <path d="m517 539 13.7-16.6 35.8 17.7 1.38 30.7-35.8-12.8z" fill="#00009c"/>
  <path d="m299 125q33.8-5.15 34.6-4.43 0.763 0.711 1.92 10.2 1.14 9.44-16.7 15.1-17.7 5.65-35.9-5.1-18-10.7 16-15.8z" fill="#8e387f"/>
  <path d="m120 160c6.57-4.85 14.3-4.92 23.2-0.194 5.54 2.94 10 8.89 13.4 17.9 2.13 5.58-1.18 16.1-9.95 31.6-5.46 9.64-14 15.1-25.7 16.3-7.29 0.779-9.77-3.68-12.6-6-8.83-7.17 0.427-4.22-1.95-26.8-1.48-14.1 3.06-25 13.6-32.8z" fill="#385521"/>
  <path d="m256 284q17.4-16.2 31.5 3.73 20.6 29.1 20.2 33.8-0.639 6.93-15.4 14.5-21.5 11.1-27.7 7.07-8.97-5.87-13.7-23-6.83-25 5.07-36.1z" fill="#718e6a"/>
  <path d="m71.8 328q39.1 14.1 39.5 14.5 4.31 4.68 3.52 6.76-8.19 21.7-12.3 22.1-43.3 4.48-44.6 2.23-13.3-23.5-11.2-25.5 21.4-21.4 25.2-20.1z" fill="#1caa20"/>
  <path d="m363 420c0.149-1.76 25.8 3.32 42.6 7.51 29.4 7.34-16.6 39.6-41.4 11.8-1.63-2.95-2.02-9.4-1.17-19.3z" fill="#aac7cf"/>
  <path d="m96.3 43.1c-2.19-0.0272-4.62 0.337-7.31 1.09-8.42 2.37-16.8 7.7-25.1 16-8.12 8.12-13.6 18.1-16.5 30-1.22 5-0.295 7-0.833 11.6-1.02 8.67-4.51 8.63-3.71 13.1 2.01 11.3 6.19 9.85 20.2 27.9 12.3 15.8 25.4 16.9 32 16.7 5.84-0.17 9.77 3.07 18.9-3.66 6.85-5.06 33.4-40.3 39.5-55 17.7-12.8 27.6-13.7 27.3-22.2-0.0828-2.37-9.05-5.93-28.7-10.9-9.68-2.42-12.4-2.39-17.6-4.98-5.43-2.69-11.9-11.5-27.3-13.5-0.0347-0.0581-0.0665-0.125-0.102-0.182-2.37-3.86-5.97-5.81-10.8-5.87z" fill="#25257e"/>
  <path d="m276 170q1.59-0.077 33.9 32.6 1.67 1.69-36.1 24.7-1.95 1.19-33.6-25.3-1.64-1.37 4.81-29.1 0.334-1.44 31.1-2.93z" fill="#7155e6"/>
  <path d="m352 286q30.8 4.9 30.8 8.78-0.297 16.1-5.86 24-23.1 32.9-30.8 28.3-32-19.1-31.8-21.3 0.867-9.42 6.57-15.5 23.7-25.4 31.1-24.3z" fill="#aa8e39"/>
  <path d="m192 250c-5.44-0.0645-20.8-2.65-28.7 2.9-7.37 5.22-7.31 15.8-11.5 24.5-14.1 12.1-20.3 9.67-31 16-26.8 16.3-15 17-10.3 31.9 2.74 8.75 2.07 14.7 7.85 17.2 6.28 2.7 6.14-5.51 19.4-6.63 8.32-0.708 9.32 2.57 19.2 5.03 9.88 2.46 2.79 4.94 26 23.2 8.82 6.93 18.4 4.86 28.6-6.21 1.55-1.68 1.31-4.58-0.65-8.69-0.377-18.7-5.45-77.6-13.5-97.9-0.31-0.781-2.1-1.19-5.36-1.23z" fill="#4b8e37"/>
  <path d="m319 103q2.16 0.729 10.5 14.4 0.29 0.476-65.3 10.5-2.28 0.347-13 0.116-0.371-8e-3 5.24-44.5 0.195-1.54 62.5 19.4z" fill="#711cea"/>
  <path d="m344 193q9-25.4 16.9-25 32.9 1.46 34.2 2.2 5.13 3.04 6.69 15.9 6.47 53.3 4.94 54.5-6.37 5.3-16.5-1.8-42.2-29.5-43.4-31.5-4.92-8.18-2.75-14.3z" fill="#aa5539"/>
  <path d="m281 350q29.9-15.4 36.9-11.2 32.7 19.5 33.3 23 2.84 16.5 1.72 19.5-5.23 13.9-14.3 15.9-42.5 9.34-45.4 5.74-13.8-16.8-14.6-22.6-3.84-27 2.56-30.3z" fill="#8eaa35"/>
  <path d="m143 409q16.2 4.7 24.1 21.7 5.06 10.9-12.4 28.3-11.2 11.2-16.4 12.4-3.36 0.795-21.4-16.5-11.5-11.1-4.08-36.8 4.76-16.5 30.1-9.14z" fill="#38c798"/>
  <path d="m371 36.6q14.1-2 14.5-1 1.18 3.77-0.101 14.2-4.86 39.5-13.7 45-33.3 20.7-33.6 20.4-1.21-1.13-3.02-4.09-6.83-11.2-6.88-16.1-0.173-18.6 8.04-26.8 31-31 34.8-31.6z" fill="#aa1c3c"/>
  <path d="m177 150q21.1-14.6 37.7-9.86 20.4 5.86 22.6 16.3 2.68 12.8-0.359 25.9-3.74 16.1-11 18.5-8.91 2.99-30.8-6.05-26.9-11.1-30.6-20.9-4.6-12 12.5-23.9z" fill="#553873"/>
  <path d="m313 210q3.27-1.99 20.8-7.38 1.57-0.484 7.16 8.82 0.502 0.835-10.1 47.8-0.952 4.22-48.2-3.63-4.24-0.703-5.92-21.5-0.151-1.87 36.3-24.1z" fill="#8e71df"/>
  <path d="m451 346c32.5-3.35 20.5 35.7 14.6 63.2-4.99 22.9-19.8 3.86-36.4-12.9-13.9-14-17.3-26.3-10.3-36.9 5.81-8.84 16.5-13.3 32.2-13.5z" fill="#c7aa89"/>
  <path d="m251 345c-4.18-0.131-9.51 1.15-16 3.86-8.3 3.46-16.4 9.44-24.2 17.9-6.29 6.8-13.6 6.08-9.34 11.4 5.26 6.43 6.45 11.7 12.6 16.1 0.418 10.2 6.64 25.4 6.02 35.1-0.523 8.14 3.18 17.2 11.1 27.2 4.49 5.67 15.2 5.72 32 0.164 9.55-3.15 24.4 6.93 21.7-30.7 2.5-21.1-14.5-40.4-17.2-59.1-2.52-10.1-6.06-21.4-16.8-21.8z" fill="#71b969"/>
  <path d="m357 110q24.8-15.4 36.8-8.72 17.2 9.55 9.68 30.8-10.8 30.3-27.6 29.5-24-1.07-28.1-9.62-5.85-12.2-6.79-20-1.35-11.2 16-21.9z" fill="#aa386b"/>
  <path d="m171 191q42.5 17.6 40.4 21.8-14.9 28.7-19.4 29.4-31.1 4.54-33.3 1.91-15.2-18-12.5-22.8 18.6-32.9 24.8-30.3z" fill="#555529"/>
  <path d="m277 262q0.75-1.9 29.7 2.9 22.6 3.75 28.7 11.2 4.76 5.81-11.7 23.5-12.9 13.8-32.4-13.7-15.2-21.5-14.3-23.9z" fill="#8e8e8d"/>
  <path d="m120 357q2.58-6.83 19.2-13.8 6.68-2.8 40.9 24.1 13.8 10.8 13.9 12.3 0.054 0.598-23.6 19.8-9.53 7.74-39.1-0.844-11.9-3.46-16-18.6-1.64-6.09 4.75-23z" fill="#38aab0"/>
  <path d="m357 398q6.08-16.2 7.89-16.2 40.2-2.05 42.1-0.064 43.7 44.1 43.7 44.1 0.048 0.39 1e-3 0.486-1.04 2.15-2.5 2.09-32.6-1.29-34.7-1.8-47.7-11.4-48.1-12.1-8.72-15.7-8.45-16.4z" fill="#c7c716"/>
  <path d="m304 45.1c12.1 20.7 18.2 32.8 18.2 36.2 0.114 12.3-4.52 16.8-13.9 13.7-33.6-11.3-55.2-12.1-55.8-22.9-0.341-6.51 8.71-7.26 16.6-10.2 28-10.5 31.4-22.5 34.8-16.7z" fill="#8e1c3e"/>
  <path d="m190 120c1.81 7.31-6.97 17.7-26.3 31.1-6.12 4.24-14.7 3.45-25.6-2.38-9.46-16.9 22.1-47.9 30.2-53.9 8.76-6.32 16 2.09 21.7 25.2z" fill="#3838bb"/>
  <path d="m428 179c15.3-0.555 20.6 3.76 25.3 9.13 4.74 5.43 11.5 6.35 8.51 18.8-3.02 12.6-5.19 19.5-6.5 20.9-1.33 1.33-8.42 3.65-21.3 6.96-13 3.35-20.8-5.93-23.5-27.8-2.69-22.1 2.26-27.4 17.4-27.9z" fill="#c7557e"/>
  <path d="m211 229q8.87-17.1 16.6-19.7 8.39-2.82 24.4 10.6 17.3 14.5 18.2 25.4 0.951 11.8 0.129 13.9-0.888 2.25-15 15.4-15.2 14.2-25.7 12-11.3-2.34-18.8-21.3-8.11-20.4 0.111-36.3z" fill="#71717b"/>
  <path d="m47.9 286q8.21-8.21 20.1-9.34 21.9-2.08 28.9 20.1 12.8 40.8-2.28 35.4-27.7-9.98-36-21.2-15.2-20.6-10.8-25z" fill="#1c8e5d"/>
  <path d="m389 317q33.3 27.4 32 29.5-17.8 27.1-20.8 27.2-39 1.99-39.2 0.553-3.2-18.6-1.14-21.5 26.6-37.9 29.2-35.8z" fill="#aaaa1d"/>
  <path d="m175 403q23.4-19 28.7-12.3 12.7 16.2 12.1 26.1-1.54 23.9-12.1 23.4-25.4-1.27-29.2-9.46-9.17-19.8 0.537-27.7z" fill="#55c74f"/>
  <path d="m189 76.3q0.261-1.16 16.8-17.7 3.58-3.58 5.39-4.32 0.392-0.161 32.2 20.6 6.9 4.49 7.02 4.78 0.027 0.062-4.75 37.9-1.03 8.19-8.11 18.3-1.53 2.19-31.9-6.55-6.57-1.89-15.9-39.4-2.02-8.13-0.812-13.5z" fill="#551cc9"/>
  <path d="m289 164q12.7-8.34 24.2-12 24-7.68 27.2-0.976 6.73 14 3.12 24.2-7.55 21.3-13.7 23.2-12.9 3.98-23.9-7.15-23-23.3-16.9-27.3z" fill="#8e5556"/>
  <path d="m121 231c12.2-1.31 20.4 0.496 24.5 5.4 7.46 8.84 10.6 16.8 9.48 24-2.05 12.9-9.19 13.2-20.3 19.7-19.7 11.4-24.1 12.7-38.6 1.24-4.76-3.75 6.33-23.9 7.65-27.9 4.77-14.2 10.5-21.7 17.3-22.4z" fill="#3871da"/>
  <path d="m390 300q0.171-9.28 4.94-15 4.14-4.98 24.1 3.99 17.3 7.79 37.2 28.2 17.3 17.7 14.7 20.3-2.26 2.26-25.3 2.49-20 0.197-39.2-15.6-16.7-13.7-16.5-24.4z" fill="#c78e87"/>
  <path d="m241 143q7.77-11.1 8.85-11.1 9.99 0.215 13.5 2.3 32.7 19.3 30.9 20.5-16.9 11.1-20.1 11.3-29.2 1.42-29.6-0.851-4.39-21-3.55-22.2z" fill="#713823"/>
  <path d="m392 247q7.47 5.22 2.39 25.1-0.843 3.3-8.49 12.5-1.27 1.53-34.1-3.69-5.46-0.868-14.8-12.2-1.55-1.89 8.37-45.8 1.65-7.3 46.6 24.1z" fill="#aa71d1"/>
  <path d="m215 287c4.98-2.73 7.27 4.69 18.5 7.01 3.33 0.688 7.95 11.9 13.9 33.6 1.76 6.44-4.56 12.7-18.9 18.7-20.8-4.56-9.59-29.5-13.4-59.3z" fill="#558ebd"/>
  <path d="m336 404q12.5-2.76 19.4 9.67 2.21 3.99 1.09 17.3-0.362 4.26-28.7 32.6-9.08 9.08-15.6 10-2.08 0.295-20.9-15.2-6.03-4.97 2.72-35.8 2.81-9.9 41.9-18.5z" fill="#8ec7ba"/>
 </g>
</svg>
