<?xml version="1.0" encoding="UTF-8"?>
<svg width="512px" height="512px" contentScriptType="text/ecmascript" contentStyleType="text/css" version="1.1" viewBox="0 0 512 512" xmlns="http://www.w3.org/2000/svg">
 <g class="voronoi" stroke-width=".5">
  <path d="m184-38.2q0.935-4.35 44.4 2.05 14.9 2.2 14.6 5.84-0.114 1.25-26.3 27.4-8.98 8.98-28.7-14.6-6.75-8.08-4.02-20.8z" fill="#55e3b7" stroke="#55e3b7"/>
  <path d="m15.9-8.25q18.8 10.9 18.9 17.3 0.794 35.2-0.447 35.6-6.81 2.3-13.1-2.58-34.3-26.9-30.4-30.8 21.5-21.5 24.9-19.5z" fill="#000030" stroke="#000030"/>
  <path d="m488 16.4q7.54 0.831 36.5 23.5 11.6 9.05-6.47 27.1-7.2 7.2-33.5-11.9-10.5-7.64-14-31.3-1.4-9.44 17.5-7.36z" fill="#e300b0" stroke="#e300b0"/>
  <path d="m-64.9 150q4.15-4.15 7.53-5.47 8.18-3.19 19.9 13.8 28.3 41.1 27.5 44.8-1.9 8.84-17.2 9.35-36.9 1.24-37.7-16.9-1.77-43.8-0.056-45.6z" fill="#e3554f" stroke="#e3554f"/>
  <path d="m510 273q12.5-12.5 24.7 5.11 25.6 37 24.9 40.9-1.47 8.15-8.3 15-14.3 14.3-15.2 14.7-1.81 0.687-9.45-3.62-16-9.05-18.2-27.4-4.51-38.6 1.46-44.6z" fill="#008e56" stroke="#008e56"/>
  <path d="m74.1 431c-0.407 0.0179-10.7 10.1-30.9 30.3-11 2.82-25.4-1.17-32.3 5.41-4.87 4.87-5.76 11-2.68 18.4 7.04 14.6 20 22.8 34.4 26.8-1.79 2.32-2.43 15.2-1.9 38.8 0.082 3.66 12 9.12 35.8 16.4 3.62 1.1 7.51 0.727 11.7-1.13 0.631-0.283 3.58-18.9 8.83-56-3.77-20 0.135-38.5 5.43-56.9 0.327-1.1-5.07-8.26-16.2-21.5-4.06-1.18-8.3-0.736-12.3-0.562z" fill="#1c002b"/>
  <path d="m502 475q8.69-0.086 16.5 18.9 1.79 4.33-18.9 25-4.73 4.73-26.2 2.36-4.92-0.542-17.7-12.5-2.91-2.74 6.15-27.7 2.07-5.69 40.1-6.07z" fill="#e3e3c7" stroke="#e3e3c7"/>
  <path d="m334 520q10-1.59 15.6 0.78 2.24 0.954 1.66 25.7-0.231 9.94-21.1 30.8-8.38 8.38-16.6 9.88-3.3 0.603-28.9-20.1-10.3-8.32 14.5-33.1 9.97-9.97 34.9-13.9z" fill="#8e00b0" stroke="#8e00b0"/>
  <path d="m11-45.8q6.71-6.71 16.5-3.78 9.01 2.69 19.7 14.7 9.81 11.1-1.37 22.2-10.3 10.3-21.8 3.57-10.6-6.16-15.7-18.3-4.62-11.1 2.68-18.4z" fill="#00e384" stroke="#00e384"/>
  <path d="m502-36.6q8.69-0.086 16.5 18.9 1.79 4.33-18.9 25-4.73 4.73-26.2 2.36-4.92-0.542-17.7-12.5-2.91-2.74 6.15-27.7 2.07-5.69 40.1-6.07z" fill="#e3e3c7" stroke="#e3e3c7"/>
  <path d="m334 7.65q10-1.59 15.6 0.78 2.24 0.954 1.66 25.7-0.231 9.94-21.1 30.8-8.38 8.38-16.6 9.88-3.3 0.603-28.9-20.1-10.3-8.32 14.5-33.1 9.97-9.97 34.9-13.9z" fill="#8e00b0" stroke="#8e00b0"/>
  <path d="m-11.5 118c-0.181-0.00508-0.33 0.0152-0.447 0.0586-14.3 5.33-22 8.47-22.9 9.41-7.25 7.25-9.34 13.1-6.27 17.6 23.6 34.3 36.3 50.4 38.3 48.4 8.68-8.68 14.8-15.2 18.6-19.8 17.1 10.2 38.5 13.9 39.4 13 16.3-16.3 24.4-24.8 24.4-25.6 0.00533-13.5-0.205-20.5-0.635-20.9-7.51-7.45-12-11-13.4-10.7-18.9 4.15-40.3 3.68-49.4 3.76-15.8-10-25.1-15.1-27.7-15.2z" fill="#e338d7"/>
  <path d="m528 251q0.164-0.444 43.4-11.6 4.1-1.06 14.5 1.98 0.987 0.288 2.88 40.2 0.18 3.79-22.5 26.5-2.16 2.16-36.7-47.7-3.28-4.73-1.55-9.41z" fill="#0071de" stroke="#0071de"/>
  <path d="m4 410c-1.82-0.0743-3.99 0.0997-6.49 0.521-27.4 4.61-41.7 9.02-42.9 13.2-5.14 17.2-7.34 27.2-6.59 29.8 3.06 10.9 7.65 16.3 13.8 16.3 25.1-0.247 38.5-1.29 40.3-3.12 2.47-2.47 4.51-4.84 6.14-7.09 10.2 2.03 32-2.06 37.1-7.12 16.1-16.1 21.3-25 15.9-26.9-16.5-5.63-26.5-8.82-29.8-9.56-5.01-1.64-20.4-0.596-21-3.65-1.16-1.5-3.26-2.31-6.3-2.44z" fill="#e3c7c5"/>
  <path d="m510 410q10-1.69 12.8 1.92 0.679 0.879 2.57 34.8 0.461 8.26-10.8 19.5-2.75 2.75-40.3 3.12-9.16 0.09-13.8-16.3-1.12-3.99 6.59-29.8 1.88-6.3 42.9-13.2z" fill="#e3c7c5" stroke="#e3c7c5"/>
  <path d="m305 454q21.8-4.12 30.5 28.2 7.92 29.3-10.4 32.2-16.6 2.64-31.1-28-13.1-27.8 10.9-32.4z" fill="#8ee385" stroke="#8ee385"/>
  <path d="m118 506q33.7 7.07 35.4 22.4 3.92 36.3-4.58 39.2-20.1 6.82-30.2 4.62-23.9-5.18-21.2-24.2 6.38-45 20.7-42z" fill="#380051" stroke="#380051"/>
  <path d="m336-67.4q11.1-11.1 22.3 1.23 24.7 27.3 25.5 37.4 1.66 22.4-7.69 25.2-20.7 6.17-23.1 5.14-5.36-2.29-10.5-21.5-11.5-42.4-6.45-47.4z" fill="#aae354" stroke="#aae354"/>
  <path d="m162-3.96q16.5-16.5 21.8-10.2 21.1 25.3 22.4 33.2 5.1 31.4 1.04 33-16.3 6.44-21.8 5.11-22-5.32-23.2-15.6-4.47-41.3-0.345-45.4z" fill="#55003a" stroke="#55003a"/>
  <path d="m20.6 62.2q8.46-8.46 13.8-10.3 2.7-0.914 30.1 7.43 13.8 4.21 5.35 43.2-4.26 19.7-30.4 25.4-13.2 2.89-33.8-10.3-10.4-6.66-4.66-27.9 2.9-10.7 19.7-27.5z" fill="#001ca5" stroke="#001ca5"/>
  <path d="m457 67.6q15.5-15.5 26.3-7.59 26 18.9 23.4 28.3-6.12 22.6-13.3 25.3-17.2 6.38-24.7-7.11-18.1-32.5-11.7-38.9z" fill="#e31c0e" stroke="#e31c50"/>
  <path d="m-68 226q5.65-5.65 22.7-6.23 35.1-1.18 41.1 8.62 12.4 20.2 11.7 21.8-1.27 3.45-7.32 9.5-12.4 12.4-21.6 13.3-18.8 1.71-28.8-13.3-20.7-30.9-17.9-33.7z" fill="#e37157" stroke="#e37157"/>
  <path d="m538 356q0.181-0.068 37.4 24.2 2.71 1.76-25.8 30.3-2.07 2.07-20.9-2.08-1.37-0.302-4.6-4.48-0.235-0.304 10.6-43.8 0.786-3.16 3.28-4.11z" fill="#00aae2" stroke="#00aae2"/>
  <path d="m184 474q0.935-4.35 44.4 2.05 14.9 2.2 14.6 5.84-0.114 1.25-26.3 27.4-8.98 8.98-28.7-14.6-6.75-8.08-4.02-20.8z" fill="#55e3b7" stroke="#55e3b7"/>
  <path d="m15.9 504q18.8 10.9 18.9 17.3 0.794 35.2-0.447 35.6-6.81 2.3-13.1-2.58-34.3-26.9-30.4-30.8 21.5-21.5 24.9-19.5z" fill="#000030" stroke="#000030"/>
  <path d="m488 528q7.54 0.831 36.5 23.5 11.6 9.05-6.47 27.1-7.2 7.2-33.5-11.9-10.5-7.64-14-31.3-1.4-9.44 17.5-7.36z" fill="#e300b0" stroke="#e300b0"/>
  <path d="m249-31.8q0.069-0.76 17.9-18.5 3.27-3.27 8.59-1.74 0.978 0.281 24.3 49.7 4.28 9.08-25.1 38.4-5.39 5.39-6.83 5.38-0.264-3e-3 -16.3-58.4-2.94-10.7-2.56-14.9z" fill="#71e3ce" stroke="#71e3ce"/>
  <path d="m42.8-0.691q18.6-18.6 22.8-18.9 27.4-2.05 28.1-0.638 4.6 9.32 3.4 17.8-7.89 55.6-8.83 56-6.22 2.78-11.7 1.13-35.7-10.9-35.8-16.4-0.814-36.1 2.02-38.9z" fill="#1c002b" stroke="#1c002b"/>
  <path d="m528-8.25q18.8 10.9 18.9 17.3 0.794 35.2-0.447 35.6-6.81 2.3-13.1-2.58-34.3-26.9-30.4-30.8 21.5-21.5 24.9-19.5z" fill="#000030" stroke="#000030"/>
  <g>
   <path d="m82 175c-13 2.36-18.5 14.5-24.2 18.6-12.5-6.39-37.3-13.3-45.7-5.22-9.75 9.75-15 16.4-15.8 20-1.02 4.72 1.12 11.4 6.43 20.1 6.94 11.3 17.3 15.2 30.9 11.7 22.2-5.16 20.5-4.26 40.1-4.82 2.78 0.811 7.22 0.196 13.3-1.85 3.52-1.18 7.97-5.47 13.3-12.9 3.1-4.27 4.85-9.26 5.25-15 0.229-3.29-4.65-11.8-14.6-25.7-2.52-3.48-5.52-5.16-9.03-5.03z" fill="#00558e"/>
   <path d="m447 150q4.15-4.15 7.53-5.47 8.18-3.19 19.9 13.8 28.3 41.1 27.5 44.8-1.9 8.84-17.2 9.35-36.9 1.24-37.7-16.9-1.77-43.8-0.056-45.6z" fill="#e35519" stroke="#e3554f"/>
   <path d="m-16.4 344c-3.23 0.0556-6.6 0.343-10.1 0.863-21.2 3.14-33 8.04-35.3 14.7-3.53 10-2.28 19.8 3.76 29.3 9.1 14.3 20.4 20.3 34 18 10.5-1.77 18.7-4.73 24.6-8.85 5.39 3.84 15.7 9.69 16.4 9.85 12.5 2.77 19.5 3.47 20.9 2.09 19-19 27.6-29.1 25.8-30.3-15-12.8-39.4-19.5-54.9-29.9-7.12-4.02-15.5-5.94-25.2-5.77z" fill="#e3aa96"/>
  </g>
  <path d="m523 466q6.71-6.71 16.5-3.78 9.01 2.69 19.7 14.7 9.81 11.1-1.37 22.2-10.3 10.3-21.8 3.57-10.6-6.16-15.7-18.3-4.62-11.1 2.68-18.4z" fill="#00e384" stroke="#00e384"/>
  <path d="m380 514q7.9-2.36 27.9 4.41 7.15 2.42 3.42 40.8-1.33 13.7-11.2 23.6-3.53 3.53-32.7-19.4-10.4-8.19-9.81-33.7 0.212-9.12 22.3-15.7z" fill="#aa00b5" stroke="#aa00b5"/>
  <path d="m136-66.2q29-7.27 29.4-7.18 0.408 0.092 6.26 13.8 6.57 15.4 4.85 23.4-1.94 9.01-11.7 18.7-10.9 10.9-33.5 6.19-25.4-5.33-27.9-10.4-2.8-5.68 1.71-21 5.08-17.2 30.9-23.6z" fill="#38e378" stroke="#38e378"/>
  <path d="m-23.9 16.4q7.54 0.831 36.5 23.5 11.6 9.05-6.47 27.1-7.2 7.2-33.5-11.9-10.5-7.64-14-31.3-1.4-9.44 17.5-7.36z" fill="#e300b0" stroke="#e300b0"/>
  <path d="m444 0.482q4.24-1.59 17.5 10.8 2.44 2.29 6.6 30.2 0.768 5.16-17.7 23.6-3.41 3.41-29.6-2.81-4.82-1.15-0.556-45.1 0.787-8.12 23.8-16.8z" fill="#c700ce" stroke="#c700ce"/>
  <path d="m578 129q2.13-0.467 13.4 10.7 0.644 0.639 0.636 20.9 0 1.16-24.4 25.6-1.4 1.4-27.3-14.4-1.48-0.903 0.362-32.8 0.105-1.83 37.3-9.99z" fill="#0038e5" stroke="#0038e5"/>
  <path d="m-1.55 273q12.5-12.5 24.7 5.11 25.6 37 24.9 40.9-1.47 8.15-8.3 15-14.3 14.3-15.2 14.7-1.81 0.687-9.45-3.62-16-9.05-18.2-27.4-4.51-38.6 1.46-44.6z" fill="#008e56" stroke="#008e56"/>
  <path d="m455 297q15.5-15.5 27.5-16.6 16-1.46 18.8 22.9 3.81 32.6-18.8 36-30.3 4.48-35.1-6-6.48-14-5.4-18.6 1.44-6.09 13-17.7z" fill="#e38e9c" stroke="#e38e6e"/>
  <path d="m-10.5 475q8.69-0.086 16.5 18.9 1.79 4.33-18.9 25-4.73 4.73-26.2 2.36-4.92-0.542-17.7-12.5-2.91-2.74 6.15-27.7 2.07-5.69 40.1-6.07z" fill="#e3e3c7" stroke="#e3e3c7"/>
  <path d="m455 481c-5.62 15.5-10.6 24-15 25.7-13.8 5.17-22.8 7.01-27.2 5.52-13.7-4.64-20.8-9.59-21.2-14.8-1.22-16.4-0.0766-14.1 4.86-17.8 15.7-11.7 58.1-18.1 58.5 1.45z" fill="#c7e344" stroke="#c7e344"/>
  <path d="m246 492q17.8 64.9 16.6 65.4-18.6 8.02-20.3 7.83-26.3-3.02-26.7-5.37-5.99-36.9-3.88-39 33.1-33.1 34.2-28.9z" fill="#71001a" stroke="#71001a"/>
  <path d="m74.1-81.4q11.4-0.501 12.3 0.563 16.7 19.8 16.2 21.5-9.1 30.8-10.7 30.9-30 2.24-31 1.07-19.4-21.9-17.8-23.5 30.4-30.4 31-30.5z" fill="#1ce318" stroke="#1ce318"/>
  <path d="m523-45.8q6.71-6.71 16.5-3.78 9.01 2.69 19.7 14.7 9.81 11.1-1.37 22.2-10.3 10.3-21.8 3.57-10.6-6.16-15.7-18.3-4.62-11.1 2.68-18.4z" fill="#00e384" stroke="#00e384"/>
  <path d="m380 2.27q7.9-2.36 27.9 4.41 7.15 2.42 3.42 40.8-1.33 13.7-11.2 23.6-3.53 3.53-32.7-19.4-10.4-8.19-9.81-33.7 0.212-9.12 22.3-15.7z" fill="#aa00b5" stroke="#aa00b5"/>
  <path d="m477 127q1.42-1.42 22.9-9.41 2.8-1.04 30.3 16.5 3.58 2.29 1.86 32.2-0.224 3.89-23 26.7-2.97 2.97-38.3-48.4-4.6-6.69 6.27-17.6z" fill="#e338d7" stroke="#e338d7"/>
  <path d="m-57.4 297q15.5-15.5 27.5-16.6 16-1.46 18.8 22.9 3.81 32.6-18.8 36-30.3 4.48-35.1-6-6.48-14-5.4-18.6 1.44-6.09 13-17.7z" fill="#e38e6e" stroke="#e38e6e"/>
  <path d="m543 416q5.02 1.11 29.8 9.56 8.22 2.8-15.9 26.9-7.98 7.98-22.1 3.76-4.68-1.4-6.45-33.1-0.586-10.5 14.6-7.14z" fill="#00c7b9" stroke="#00c7b9"/>
  <path d="m382 416c-12.5 15.5-34.9 17.5-45.9 28.2-3.34 3.35-1.19 19.2 6.45 47.4 3.46 12.8 6.97 19.9 10.5 21.5 1.62 0.691 9.32-1.02 23.1-5.13 6.23-1.86 8.8-10.3 7.69-25.2-7.15-11.8 44.6-19.6 41.1-26.4-12.5-14.9-38.9-40.4-43-40.3z" fill="#aae354"/>
  <path d="m162 508q16.5-16.5 21.8-10.2 21.1 25.3 22.4 33.2 5.1 31.4 1.04 33-16.3 6.44-21.8 5.11-22-5.32-23.2-15.6-4.47-41.3-0.345-45.4z" fill="#55003a" stroke="#55003a"/>
  <path d="m-10.5-36.6q8.69-0.086 16.5 18.9 1.79 4.33-18.9 25-4.73 4.73-26.2 2.36-4.92-0.542-17.7-12.5-2.91-2.74 6.15-27.7 2.07-5.69 40.1-6.07z" fill="#e3e3c7" stroke="#e3e3c7"/>
  <path d="m424-62.8q27.9 4.4 29.3 9.34 4.33 15.4 1.63 22.9-8.44 23.2-15 25.7-20.6 7.75-27.2 5.52-20.6-6.96-21.2-14.8-1.83-24.6 4.31-30.8 19.2-19.2 28.1-17.8z" fill="#c7e344" stroke="#c7e344"/>
  <path d="m246-19.7q17.8 64.9 16.6 65.4-18.6 8.02-20.3 7.83-26.3-3.02-26.7-5.37-5.99-36.9-3.88-39 33.1-33.1 34.2-28.9z" fill="#71001a" stroke="#71001a"/>
  <path d="m533 62.2q8.46-8.46 13.8-10.3 2.7-0.914 30.1 7.43 13.8 4.21 5.35 43.2-4.26 19.7-30.4 25.4-13.2 2.89-33.8-10.3-10.4-6.66-4.66-27.9 2.9-10.7 19.7-27.5z" fill="#001ca5" stroke="#001ca5"/>
  <path d="m59 239c-28.8 7.42-43.3 11.3-43.4 11.6-1.15 3.12-0.636 6.26 1.55 9.41 6.76 13.2 40.1 49.3 37.8 61.2-0.786 4.36 8.39 9.19 27.5 14.5 22.7 6.29 34.9 8.13 36.5 5.53 1.86-3.09 2.48-8.76 1.84-17-14.9-15.8 23.7-44.9 13.9-56.1-30.6-22.3-38.2-36.2-75.6-29.1z" fill="#137bbe"/>
  <path d="m467 220c-11.4 0.383-16.1 2.01-22.7 6.23-5.55 3.53-4.41 3.85-12.8 15-10.6 16.1-13.6 27.7-9.12 34.8 12.1 18.9 20.6 25.9 25.5 21 15.6-20.7 23.9-22.3 43.1-23.9 6.08-0.554 13.3-4.98 21.6-13.3 4.03-4.03 6.47-7.2 7.32-9.5 0.413-1.12-3.5-8.39-11.7-21.8-13-9.81-27.5-9.07-41.1-8.62z" fill="#e37157"/>
  <path d="m249 480q0.069-0.76 17.9-18.5 3.27-3.27 8.59-1.74 0.978 0.281 24.3 49.7 4.28 9.08-25.1 38.4-5.39 5.39-6.83 5.38-0.264-3e-3 -16.3-58.4-2.94-10.7-2.56-14.9z" fill="#71e3ce" stroke="#71e3ce"/>
  <path d="m528 504q18.8 10.9 18.9 17.3 0.794 35.2-0.447 35.6-6.81 2.3-13.1-2.58-34.3-26.9-30.4-30.8 21.5-21.5 24.9-19.5z" fill="#000030" stroke="#000030"/>
  <path d="m305-58q21.8-4.12 30.5 28.2 7.92 29.3-10.4 32.2-16.6 2.64-31.1-28-13.1-27.8 10.9-32.4z" fill="#8ee385" stroke="#8ee385"/>
  <path d="m118-6.21q33.7 7.07 35.4 22.4 3.92 36.3-4.58 39.2-20.1 6.82-30.2 4.62-23.9-5.18-21.2-24.2 6.38-45 20.7-42z" fill="#380051" stroke="#380051"/>
  <path d="m-54.8 67.6q15.5-15.5 26.3-7.59 26 18.9 23.4 28.3-6.12 22.6-13.3 25.3-17.2 6.38-24.7-7.11-18.1-32.5-11.7-38.9z" fill="#e31c50" stroke="#e31c50"/>
  <path d="m524 188q11.2-11.2 26.7-1.71 11.8 7.23 17.5 29.5 4.3 17-22.6 24-20.5 5.28-30.9-11.7-7.96-13-6.43-20.1 1.16-5.41 15.8-20z" fill="#00558e" stroke="#00558e"/>
  <path d="m450 360q3.51-9.99 35.3-14.7 21.1-3.12 35.3 4.91 9.44 5.33 2.47 33.4-4.62 18.6-35.3 23.8-20.4 3.43-34-18-9.05-14.2-3.76-29.3z" fill="#e3aa96" stroke="#e3aa96"/>
  <path d="m136 446q29-7.27 29.4-7.18 0.408 0.092 6.26 13.8 6.57 15.4 4.85 23.4-1.94 9.01-11.7 18.7-10.9 10.9-33.5 6.19-25.4-5.33-27.9-10.4-2.8-5.68 1.71-21 5.08-17.2 30.9-23.6z" fill="#38e378" stroke="#38e378"/>
  <path d="m-23.9 528q7.54 0.831 36.5 23.5 11.6 9.05-6.47 27.1-7.2 7.2-33.5-11.9-10.5-7.64-14-31.3-1.4-9.44 17.5-7.36z" fill="#e300b0" stroke="#e300b0"/>
  <path d="m444 512q4.24-1.59 17.5 10.8 2.44 2.29 6.6 30.2 0.768 5.16-17.7 23.6-3.41 3.41-29.6-2.81-4.82-1.15-0.556-45.1 0.787-8.12 23.8-16.8z" fill="#c700ce" stroke="#c700ce"/>
  <path d="m91.5 61.8q0.419-0.187 32.5 6.76 1.99 0.43 8.05 40.8 0.375 2.5-29.4 24.5-1.84 1.36-17.8 1.44-0.987 5e-3 -12.2-11.1-0.695-0.69 11.3-55.9 0.742-3.42 7.49-6.44z" fill="#1c1c34" stroke="#1c1ce4"/>
  <path d="m355 138q15.3-15 25-7.3 29.7 23.8 21.8 31.9-24.3 24.9-29.5 22.6-15.8-7.1-17.4-15.7-4.87-26.6 0.106-31.5z" fill="#aa3844" stroke="#aa3844"/>
  <path d="m203 182q6.56-1.83 14.9 3.44 2.16 1.37 6.74 40.8 1.19 10.3-28.1 12.7-7.63 0.626-17.4-18.2-2.54-4.91-1.56-26.1 0.255-5.53 25.5-12.6z" fill="#5555c2" stroke="#5555c2"/>
  <path d="m127 344q1.55-2.57 27.7-4.98 11.2-1.04 27.9 1.76 7.18 1.2 9.06 32.7 0.81 13.5-7.48 26.7-3.56 5.66-7.72 8.39-1.79 1.18-37.7-31.6-15.4-14.1-15.4-23.1 0.034-3.85 3.64-9.82z" fill="#38aaad" stroke="#38aaad"/>
  <path d="m392 402c2.86-8.78 9.66-14.5 20.4-17.1 17.6-4.27 29.3-1.9 35.1 7.11 9.41 14.8 12.9 26.2 10.5 34.4-3.97 13.3-2.81 38.3-12.1 36.8-15.3-2.41-34-26.5-40.5-34.2-10.6-12.7-15.1-21.6-13.4-27z" fill="#c7c729" stroke="#c7c763"/>
  <path d="m211 58.5c-17.2 13.5-38.6-2.06-55.9 1.94-15.5 5.24-22.8 10.6-22 16 3.48 23.2 7.02 36.2 10.6 39.2 3.51 2.99 26.3 25 24.5 28.8-3.87 12.1-5.02 19.4-3.47 21.9 7.37 11.9 12.9 17.4 16.6 16.3 17.5-4.88 26.7-9.44 27.8-13.7 3.39-14.2 4.12-21.6 10.2-30.4 6.03-8.61 24.8-13.8 24.6-19.7-1.38-38.9-3.43-58.5-6.15-58.8-8.74 0.238-18.2-3.48-26.9-1.57z" fill="#551ca4"/>
  <path d="m300 198q24.5-0.334 32.3 21.2 16.2 45.1-2.53 38.9-39.2-12.9-43.3-18.4-8.7-11.6-5.29-21.3 7.14-20.3 18.9-20.5z" fill="#8e5556" stroke="#8e5556"/>
  <path d="m106 224q5.12-7.04 40.8-5.5 24 1.04 31.3 15.3 4.94 9.56-1.65 20.1-4.43 7.1-11.3 10.2-4.6 2.08-14 4.61-6.35 1.7-34.1-19.8-18.6-14.4-11-24.9z" fill="#387195" stroke="#387195"/>
  <path d="m360 281q0.434-6.39 6.4-7.22 45.1-6.27 48-1.71 22 34.5 21.7 35.7-2.22 9.39-5.91 9.16-27.8-1.71-32.8-5.61-37.5-29.5-37.4-30.4z" fill="#c78e27" stroke="#c78e27"/>
  <path d="m247 376q13.8-28.4 15.1-28.2 15.6 1.81 17 4.32 18.2 31.7 16.1 33.5-26.3 22.1-28 19.9-21.2-27.3-20.1-29.5z" fill="#71aa1d" stroke="#71aa1d"/>
  <path d="m99.6 387c-4.95 8.2-19.8 1.17-29-3.57-0.0613-0.0293-10.2 10.1-30.5 30.4-0.103 0.103 10.8 3.88 32.7 11.3 0.0873 0.0296 12.1 2.17 21.1 2.95 2.43 3.81 6.25 8.82 11.5 15.1 1.6 1.9 18.4-1.15 50.3-9.15 5.04-1.26 9.81-7.18 14.3-17.7 0.709-1.67-13.7-16-43.3-43-8.51-5.18-23.5 10.3-27.1 13.7z" fill="#2ac71d"/>
  <path d="m374 118q1.56-10.7 4-13.2 20.3-20.3 25.3-14.4 41.5 49.8 40.9 50.4-5.24 5.24-8 5.74-23.1 4.23-27.3 0.856-35.1-28.2-34.9-29.4z" fill="#c73825" stroke="#c73825"/>
  <path d="m226 187q47.9-14.4 48.1-13.9 8.97 22.8 8.75 23.4-10.3 29.4-11.2 29.6-40.2 11-40.2 11-0.704-0.173-0.828-1.24-5.66-48.7-4.61-49z" fill="#715511" stroke="#715511"/>
  <path d="m342 310q14.3-24.5 26.8-14.6 29.9 23.5 20.9 35.7-21.4 29-26.4 27.2-11.9-4.25-16.5-14.2-10.9-23.8-4.91-34.1z" fill="#aa8e50" stroke="#aa8e50"/>
  <path d="m201 334q8.55-9.62 18.6-10.9 16.9-2.19 24.1 6.87 12.1 15.2 6.48 26.7-9.37 19.2-25.1 22.5-26.5 5.6-27.5-11.2-1.69-28.2 3.4-33.9z" fill="#55aa62" stroke="#55aa62"/>
  <path d="m264 53.3q3.55-1.54 4.95-1.52 0.307 3e-3 29.8 23.8 6.46 5.21 2.68 41.4-0.829 7.94-21.8 25.4-4.59 3.82-25-10.6-4.47-3.16-6.46-59.2-0.436-12.3 15.8-19.3z" fill="#711c4e" stroke="#711cc8"/>
  <path d="m84.3 143q0-1.15 16-1.23 0.908-4e-3 34.1 23.3 1.88 1.32-25 29.3-1.53 1.59-23.8-29.3-1.27-1.76-1.26-22.1z" fill="#1c38e5" stroke="#1c38e5"/>
  <path d="m340 191q14.9-7.23 23.6-3.35 12.3 5.52 14.8 11.6 3.52 8.73-8.04 31.4-16.5 32.3-16.6 32.2-0.206-0.136-10.1-27.6-14.1-39.1-3.58-44.2z" fill="#aa556b" stroke="#aa556b"/>
  <path d="m186 254q4.38-7.01 26.7-8.83 14.7-1.2 15.1-1.1 0.286 0.07 8.21 36.1 5.22 23.7 2.18 29.9-2 4.07-18.3 6.18-10.7 1.39-28.7-30.6-11.8-21-5.18-31.7z" fill="#557197" stroke="#557197"/>
  <path d="m311 327q5.28-3.76 17.8-4.53 2.29-0.141 15.4 28.5 2.38 5.22-20.2 29.1-4.12 4.36-19.5 2.17-2.81-0.399-19.4-29.4-3.02-5.28 25.9-25.9z" fill="#8eaace" stroke="#8eaace"/>
  <path d="m289 145q15.8-13.1 30.9-8.81 24.6 6.99 27 20.5 3.98 21.8-5.72 26.5-15.7 7.6-29.6 7.79-22.4 0.305-25.9-8.59-5.67-14.4-5.98-20.1-0.515-9.18 9.23-17.3z" fill="#8e3864" stroke="#8e3864"/>
  <path d="m152 167q6.76-1.05 15.1 12.5 5 8.09 4.23 24.9-0.459 10-37.8 8.38-22.3-0.962-21.7-9.41 0.352-5.04 18.1-23.6 10.6-11 21.9-12.8z" fill="#38559c" stroke="#38559c"/>
  <path d="m252 306q17.1-8.23 24.3-5.32 23.4 9.54 26.3 12 9.44 8.01 1.43 13.7-26.2 18.7-30.1 18.2-12.9-1.5-17.4-7.18-14.7-18.6-13.5-21 3.86-7.86 9.09-10.4z" fill="#718e42" stroke="#718e42"/>
  <path d="m38.2 346q14.3-14.3 34.8-8.6 42.3 11.7 42.3 15.9-0.075 8.62-8.44 17-17.3 17.3-23.2 14.4-12.3-5.82-25.3-14.3-26.9-17.5-20-24.4z" fill="#1caa57" stroke="#1caa57"/>
  <g>
   <path d="m367 57.2q27.8 21.9 27.7 22.2-0.185 0.704-6.93 7.45-16 16-29.6 8.41-32.2-18.1-23.5-26.7 20.5-20.5 32.3-11.3z" fill="#aa1c83" stroke="#aa1c50"/>
   <path d="m266 234c-14.6 1.96-31.8 14.6-29.7 26 6.22 28.3 11.5 41.4 15.8 39.3 23.4-19.2 45.2 14.6 71.4 16.9 11-2.8 27.6-28.5 28.8-38.4 0.303-3.11-0.254-5.55-1.71-8.16-0.131-0.0867-8.69-2.92-25.7-8.51-21.6-7.1-32.4-10.4-32.6-9.81-7.23-1.73-6.21-3.14-9.72-7.83-4.95-6.57-10.5-9.75-16.7-9.54z" fill="#80719e"/>
   <path d="m171 270c-16.3-1.46-29.8 12.6-36.6 23.2-6.14 9.7-8.84 19.4-8.09 29.1 0.647 8.35 7.65 11.9 21 10.7 16.5 1.84 20.3-1.9 37.8 1.28 4.73 0.791 10.3-2.41 16.7-9.6 2.7-3.04-2.93-17-16.9-41.8-4.8-8.54-7.77-11.2-13.9-12.8z" fill="#478e64"/>
   <path d="m406 321q29.6 1.82 30.3 3.27 10.7 23.1 10.1 24.6-8.29 23.6-10.8 24.2-40.1 9.7-41.4 8.48-20.5-19.4-18.7-21.8 28.6-38.8 30.5-38.6z" fill="#c7aa50" stroke="#c7aa1a"/>
   <path d="m238 385c-6.5 0.0493-17.2 1.66-32.2 4.82-8.34 4.64-14.3 25.8-20.7 24.3-3.46 2.28-5.51 4.19-6.17 5.74-4.53 10.7-6.27 17.3-5.2 19.8 7.31 17.1 13.4 26.1 18.4 26.8 34 5 51.9 6.61 53.6 4.83 12.3-12.3 14.5-11.5 17.8-19.8 4.37-11.1-1.26-21.8 0.602-35.9 0.326-2.61-6.01-12.3-19-29-0.85-1.09-3.22-1.63-7.12-1.6z" fill="#63c723"/>
   <path d="m402 81.7q0.091-0.348 8.84-9.1 4.67-4.67 24.9 0.137 10.8 2.56 27.5 32.5 8.93 16 0.914 24-4.28 4.28-11.8 7.22-4.02 1.57-34.3-34.8-16.2-19.4-16-20z" fill="#c71cca" stroke="#c71ca2"/>
  </g>
  <path d="m231 138q15.7-2.51 24.9 4.01 15.6 11 15.9 16.5 0.524 9.33-17.7 14.8-30.7 9.22-34.6 6.75-6.57-4.17-3.32-17.7 5.49-22.9 14.8-24.4z" fill="#713862" stroke="#713862"/>
  <path d="m432 228q0.667 0.244 0.584 1.62-1e-3 0.019-21.6 32.8-0.311 0.473-50.7 7.47-0.727 0.101-2.54-3.85-0.026-0.057 27.6-54.1 0.399-0.781 46.6 16.1z" fill="#aa71ee" stroke="#aa71ee"/>
  <path d="m279 407q20.1-16.9 25.5-16.1 12.9 1.84 17.3 14.6 10.6 31.1 8.22 33.4-5.76 5.76-19.1 8.28-32.5 6.14-34.3 5.61-4.47-1.28-5.81-4.56-3.27-7.97-2.31-15.6 2.33-18.7 10.6-25.6z" fill="#8ec77a" stroke="#8ec74f"/>
  <path d="m322 80.4q0.727-0.133 43.5 23.9 2.89 1.62 1.26 12.9-0.11 0.761-19.1 19.4-1.29 1.26-38.5-9.34-2.52-0.716 1.8-42.1 0.292-2.79 11.1-4.76z" fill="#8e1cf0" stroke="#8e1ce3"/>
  <path d="m157 133q7.95 6.44 2.87 22.3-1.95 6.11-15 8.13-5.02 0.779-30.4-17-9.74-6.85 13.1-23.7 8.77-6.48 29.4 10.3z" fill="#3838b2" stroke="#3838b2"/>
  <path d="m423 156q17.3-3.17 18.1 17.3 1.67 41.4-0.907 44-5.21 5.21-20.7-0.462-31.3-11.5-33.3-16.4-4-9.94 6.67-20.9 21.6-22.1 30.1-23.7z" fill="#c75558" stroke="#c75558"/>
  <path d="m342 371q9.09-9.63 20.2-5.66 5.75 2.06 20.1 15.7 7.43 7.03 2.89 21-2.35 7.22-21.9 22.3-10.1 7.79-19.3 8.71-4.76 0.472-14.6-28.4-5.09-14.9 12.5-33.6z" fill="#aaaaa4" stroke="#aaaaa4"/>
 </g>
</svg>
