<?xml version="1.0" encoding="UTF-8"?>
<svg width="512px" height="512px" contentScriptType="text/ecmascript" contentStyleType="text/css" version="1.1" viewBox="0 0 512 512" xmlns="http://www.w3.org/2000/svg">
 <g class="voronoi" stroke-width=".5">
  <path d="m33.1-50.3 7.76 30.8-24.3 5.18-9.74-28.9z" fill="#00e358"/>
  <path d="m458-37.1 39.9 3.59 31.6 25.6 4.85 5.94-17.3 17.4-55.1-29.8z" fill="#e3e3c9"/>
  <path d="m303 25.7 3.17-4.14 5.72 0.316c9.97 0.551-27.1 26.6-21.7 19.9z" fill="#8e00cf"/>
  <path d="m-13.2 126 28.2 7.71-26 27.6-25.6 20.8-12.6-8.24-3.62-33.7z" fill="#e3388e"/>
  <path d="m32.8 412c16.6-0.325 48.8 8.67 67 21.5 9.76 6.91-25.1 34.1-38.6 45.7-5.29 4.54-8.36-11.3-13.4-16.1-5.45-5.19-14.9-6.76-18-13.6-5.14-11.5-5.92-37.4 2.99-37.5z" fill="#00c7e4"/>
  <path d="m460 429 71-9.47 2.17 0.445 0.978 25.5-27.4 28s-48.2-3.03-47.3-18.9c0.42-7.51-4.21-9.37-3.94-14.3 0.22-4.04 4.48-11.3 4.48-11.3z" fill="#e3c7ec"/>
  <path d="m318 479c9.31-0.644 13.5 9.53 25.8 11 9.02 1.04-8.35 21.9-8.35 21.9l-13.1 14.8-14.4 1.9 0.707-16.7s-1.87-19.7 2.9-27.7c1.62-2.72 3.27-4.93 6.43-5.15z" fill="#8ee3e0"/>
  <path d="m111 542 11.6-13.2 24.7 0.928 42 23.9-2.14 22.8-51.6-6.19-24.5-16.7z" fill="#3800b4"/>
  <path d="m235 9.94c3.57 3.07 5.76 12.9 5.76 12.9s0.192 12.8-2.15 18.5c-2.23 5.46-5.06 12.7-10.8 14-3.06 0.667-9.04-1.32-8.33-4.37 2.98-12.7 7.91-26.3 7.68-43.2-0.0374-2.72 5.81 0.381 7.87 2.15z" fill="#55e345"/>
  <path d="m53.1-23-20.7 20-2.32 2.94-0.15 0.189s-16.2 12.8-14.8 25.1c1.14 9.99 14.7 19.3 14.7 19.3s14.5 10.3 24.1 7.89c8.54-2.13 9.22-12.4 16-15.5 8.38-3.8 37.2 5.26 45.1 0.5 3.2-1.93 4.68-8.4 1.32-10-13.8-6.71-35-27.5-35-27.5l-16.6-19z" fill="#1c0024"/>
  <path d="m445-14.3 30.2 14 0.43 0.334 34.6 26.9-11.8 16.3s-10.9 16.8-19 15.6c-11.6-1.79-19.3-29.5-19.3-29.5l-10.2-29.3z" fill="#e3006f"/>
  <path d="m-32 187 46.8 19.7-13 27.9-42.8-5.79-1.28-33.1z" fill="#e355c7"/>
  <path d="m507 315 11.3-12.7 25.7-8.73 24.8 23-13 25.3-42-12.8-1.68-3.53z" fill="#008ebf"/>
  <path d="m26.1 458c-10.1-0.282-26.2 10.9-23.3 20.5 3.97 13 27 33.7 27 33.7l40 36.8 27.5-2.23 6-9.46-38.6-44.3s-29.6-27.6-32.2-31.8c-1.3-2.17-3.63-3.15-6.45-3.23z" fill="#1c0024"/>
  <path d="m458 475c9.04-9.85 39.9 3.59 39.9 3.59l31.6 25.6 4.85 5.94-17.3 17.4-28.7-15.5s-18.2-9.79-24.1-17.9c-4.51-6.25-11.6-13.5-6.41-19.1z" fill="#e3e3c9"/>
  <path d="m303 538 3.17-4.14 11.2 0.316 40.1 9.42-26.6 35-25.7-27.8z" fill="#8e00cf"/>
  <path d="m318-32.9 34.7 13.3-17.3 19.5s-6.89 12.6-13.1 14.8c-2.85 1.02-5.4 1.8-8.96-1.46-4.12-3.77-4.69-13.4-4.69-13.4l1.18-28z" fill="#8ee3e0"/>
  <path d="m141 43.3s6.21-10.9 11.6-13.2c7.56-3.25 27.7 0.0377 35.3 3.22 9.05 3.8 11.6 5.54 13.5 10.4 2.69 7.16-10.4 16.8-14.9 20.8-3.23 2.9-3.16 8-10.5 7.75-9.77-0.339-27.5-7.08-37.3-12-5.1-2.57 2.44-17 2.44-17z" fill="#3800b4"/>
  <path d="m-41.1 70.8 11-5.22 42.6 33.1 6.92 22.9-51-4.39-23.3-10.1 3-20.3z" fill="#e31caf"/>
  <path d="m533 148 16.4 59.2-1.36 0.59-14-1.31-42.8-27.2 20.6-15.4z" fill="#005528"/>
  <path d="m-12.9 332 24.8 6.79 20.8 23.8s14.8 20.8 7.7 26.8c-9.48 7.97-31.6-4-33.4-16.2-0.862-5.71-7.06-14.6-7.06-14.6z" fill="#00aa73"/>
  <path d="m484 345c-14.7-3.23-30.3 0.566-44.7 0.641-24.2 0.239-37.4 2.92-39.7 8.04-2.74 6.14 4.63 18 22.1 35.6 9.75 9.83 14.3 16.1 20.6 16.4 0 0 9.24 18.5 17.7 18.1 15.2-0.593 52.3-8.75 52.3-8.75l20-3.06-5.66-18.3-14.3-22.1s-15.8-21.5-28.3-26.6z" fill="#e3aac9"/>
  <path d="m146 471c14.2 5.11 26.4 12 30.8 19.8 3.17 5.63-9.31 21.3-9.31 21.3l-9.94 11.9-28.6-3.55 1.37-8.35s3.5-20.9 8.31-30.1c2.29-4.4 4.21-12.2 7.38-11z" fill="#38e3df"/>
  <path d="m-66.9 498 30.2 14 35 27.2-11.8 16.3-19 15.6-19.3-29.5z" fill="#e3006f"/>
  <path d="m393 543 7.56-20.8 27.8-17.7 31.9 48.6-0.753 28.4-48.8-24.7z" fill="#c700b4"/>
  <path d="m363-67.1 14.3 29 0.542 20.5-26.2-6.56-21.7-19.2z" fill="#aae33b"/>
  <path d="m195-13 28 5.11-0.229 7.92-0.196 6.79s0.591 37.9-13.3 39.9c-5.02 0.718-4.92-9.07-8.66-12.5-10.3-9.46-60.2-6.93-36.5-20.8 5.9-3.46 15.6-13.3 15.6-13.3z" fill="#550029"/>
  <path d="m-18 59.4 18-9.57s7.56-3.84 11.5-3.87c14.6-0.117 24.4 7.09 37.8 18.2 7.81 6.44-4.2 18.6-7.1 27.6-2.06 6.41-0.606 11.2-7.02 13.2-4.28 1.35-11.5-1.87-11.5-1.87l-23.7-24.9z" fill="#001c34"/>
  <path d="m466 69s7.32-6.77 10.7-4.57c7.99 5.16 35.7 24.6 35.7 24.6l12.5 9.69 6.92 22.9-19.4-1.67s-35.1 3.19-49.5 9.4c-7.01 3.01-5.37-22.2-5.37-22.2l3-20.3z" fill="#e31caf"/>
  <path d="m-51.9 233 28.5 6.35 24.1 34-4.08 27.9-25.6-18.4-20.7-34.8z" fill="#e37192"/>
  <path d="m492 337c-3.34-2.93 19.6-2 19.6-2l12 3.27 32.6 24.3-4.04 26.2-33.4-16.2-7.06-14.6s-9.1-11.8-19.6-21z" fill="#00aa73"/>
  <path d="m187 445c-12.1 2.37-38.9 12.2-30.4 21.1 9.09 9.51 24 22 24 22s0.158-7e-3 0.199 0.0469c4.85 6.38-0.965 24-0.965 24l-15.6 13.3 37.4 30.4 7.78 2.98 13.3-39.9 0.197-6.79s0.714-22.7 7.39-35.6c4.17-8-4.48-18.8-11.5-24.5-8.45-6.78-21.1-9.21-31.7-7.13z" fill="#550029"/>
  <path d="m4.93 539 13.7-16.6 35.8 17.7 1.38 30.7-35.8-12.8z" fill="#00009c"/>
  <path d="m445 498 30.2 14 0.43 0.334 34.6 26.9-11.8 16.3-19 15.6-19.3-29.5-10.2-29.3z" fill="#e3006f"/>
  <path d="m86.9-50 14.6-13.7 19.3 17.6 5.01 36.9-4.68 9.17s-4.47 6.32-10.1 7.6c-8.29 1.88-18-7.6-18-7.6l-12.5-9.53z" fill="#1ce39d"/>
  <path d="m545-50.3 7.76 30.8-24.3 5.18-9.74-28.9z" fill="#00e358"/>
  <path d="m361-16.4-17 16.4-48 44.8c-6.36 2.9-18.8 17.2-29.3 24.1-3.23 2.13-10.8 1.92-10.3 5.33 1.23 8.56 15.6 8.79 44 18.3 20.9 2.66 34.3 11.1 50.1 18 3.78 2.82 11.7 2.33 23.8-1.47 3.19-1 7.01-19.6 11.5-55.9 0.597-4.86 0.94-8.8 1.03-11.8 0.119-3.96 10.5-24.5 10-38-0.0354-1.04-1.72-3.49-1.72-3.49l-11-11.5z" fill="#aa0016"/>
  <path d="m36.8 118c-4.21-5.36-10.1 9.24-14.8 14.1l-22 32.1-20.6 15.4 42.8 27.2s5.84 3.58 10.2 1.81c1.72-0.704 7.41-4.76 7.41-4.76 13.1-12.6 36.7-26.6 33-40-6.84-18-36-45.8-36-45.8z" fill="#005528"/>
  <path d="m499 126 28.2 7.71-26 27.6-25.6 20.8s-9.95-3.96-12.6-8.24c-5.9-9.64-9.63-24.1-3.62-33.7 7.43-11.8 39.5-14.1 39.5-14.1z" fill="#e3388e"/>
  <path d="m-42.5 273 33 39.7-4.94 11.3-6.77 6.49-13.1 3.47-34.6-37.7z" fill="#e38e16"/>
  <path d="m540 423 63.4 21.1-29.7 35.2-9.71 3.23-21.7-32.9z" fill="#00c7e4"/>
  <path d="m355 450c10.4 2.61 21.5 24.2 21.5 24.2s3.66 14.6-1.67 18.9c-7.03 5.64-24-4.96-24-4.96s-37.4-3.8-21.7-19.2c7.63-7.46 12.7-22.2 25.8-18.9z" fill="#aae33b"/>
  <path d="m144-36 38.5 18.1-15 17.9s-32.4 37.5-43.3 57.5c-1.49 2.74-5.52-5.16-4.61-8.15 4.57-14.9 10.7-49.4 10.7-49.4l5.04-30.8z" fill="#38e3df"/>
  <path d="m-66.9-14.3 30.2 14 35 27.2-11.8 16.3-19 15.6-19.3-29.5z" fill="#e3006f"/>
  <path d="m428-7.05-11.1 7.05s-10.7 6.88-14.8 12c-4.63 5.76-9.51 19.4-9.51 19.4-3.82 22.8-1.95 24-5.62 53.9-1.97 16-7.92 18.6-2.14 24.3 9.8 9.74 14-1.17 41.3-3.88 14.6-1.45 30.2-25.1 33-35.8 0.125-13.3 8.06-19 0.752-28.4-8.63-11.1-27.3-41.5-27.3-41.5z" fill="#c700b4"/>
  <path d="m534 132 11.8-12.1 3-1.97 36 45.8-27.7 36.2-5.32 3.8-17.2-61z" fill="#0038dc"/>
  <path d="m-5.02 315 5.02-5.68s8.15-14.6 7.05-20.2c-1.71-8.6 15.7 9.59 23.4 12 11.2 3.46 25.2 9.79 28 21.1 2.99 12.2-6.25 28.6-16.2 34-12.4 6.85-18.7-15.2-31.1-22.2-4.08-2.33-11.2-8.57-11.2-8.57z" fill="#008ebf"/>
  <path d="m448 237c-12.4-0.519-20.5 3.73-27.6 9.8-14.6 13.7-22 20.9-22.1 21.6-0.755 4.17 0.911 7.17 5 9 17.9 8.02 21.4 9.48 30.9 16.2 16.1 11.4 32.5 31.4 43.3 40.2 3.5 2.85 9.15-1.26 13.1-3.47 2.73-1.53 6.77-6.49 6.77-6.49l4.94-11.3c3.54-8.08-32.2-29.6-41.2-50.9-5.89-16.6-10.3-24.9-13.1-24.7z" fill="#d580b4"/>
  <path d="m-54.2 475 39.9 3.59 31.6 25.6 4.85 5.94-17.3 17.4-55.1-29.8z" fill="#e3e3c9"/>
  <path d="m394 368c-13.6 4.56-16.6 33.4-24.2 44.4-4.51 6.55-8.7 17.7-6.08 26.4 3.35 11 14 25.4 18.6 29.3l6.43 26.6s7.83 12.1 14.2 13.2c12.1 2.16 34-14.2 34-14.2l6.21-6.11s7.1-12.1 8.5-18.9c2.34-11.2-0.463-34.4-0.463-34.4-0.178-1.82-0.252-6.54 0.707-8.87 0.0313-0.0647 0.0308-0.226-2e-3 -0.486-21.6-20.2-54.9-56.8-57.9-56.9z" fill="#bdd019"/>
  <path d="m271 528 25 13.2-25.7 28.3-39.7 0.677-6.04-37.5z" fill="#710098"/>
  <path d="m274-50.8-35.3 15.2-8.62 24.9 11.1 12s10.7 38.3-10.6 57.2c-5.86 5.2 13.4 10.8 21.2 10.2 12.6-1.03 31.1-21.7 31.1-21.7l15.7-27.9 3.41-10-0.201-9.07-0.783-35.2-27-15.5z" fill="#71e3d0"/>
  <path d="m517 27.5 13.7-16.6 35.8 17.7 1.38 30.7-35.8-12.8z" fill="#00009c"/>
  <path d="m480 187 46.8 19.7-13 27.9-42.8-5.79-1.28-33.1z" fill="#e355c7"/>
  <path d="m-32.7 343 10.8-5.21 21.9 33.9s6.03 10.5 12.9 16c5.39 4.31 22.2 6.04 20.8 13.3-2.11 10.9-33.7 14.2-33.7 14.2l-40.3 6.18-12.9 1.37 13.5-62.4z" fill="#e3aac9"/>
  <path d="m86.9 462c3.12-5.89 7.9-13.7 14.6-13.7 8.71-0.061 19.3 17.6 19.3 17.6s15.7 6.53 14.1 13c-2.79 11.4-13.8 33.1-13.8 33.1l-7.9 15.5-20.3-15.5s-16.1-12.1-18-17c-5.07-12.7 5.6-21 12-33.1z" fill="#1ce39d"/>
  <path d="m545 462 7.76 30.8-24.3 5.18-9.74-28.9z" fill="#00e358"/>
  <path d="m362 498c7.56-2.17 15.5-1.1 22.4 2.73 4.63 2.58 11 11.5 11 11.5l2.15 2.25-11.2 25.7-19.1 1.93-41.4-12 18.5-17.8s10.1-12.1 17.7-14.3z" fill="#aa0016"/>
  <path d="m-54.2-37.1 39.9 3.59 31.6 25.6 4.85 5.94-1.93 1.95s-8.58 28.8-12.4 21c-2.02-4.13-7.88-8.19-7.88-8.19l-50.2-27.1z" fill="#e3e3c9"/>
  <path d="m417-78.8 33.9 1.52 0.463 34.4-8.5 18.9-6.21 6.11-34 14.2-14.2-13.2-6.53-27z" fill="#c7e30d"/>
  <path d="m494 59.4 28.4-15.1 33.8 35.2-7.42 29.5-1.82 1.62-11.2-7.47-23.7-24.9z" fill="#001c34"/>
  <path d="m43.5 211c-11.8 1.42-27.7 8.92-29.9 20.7l-7.62 39.9c-3.07 16.1 42.1 31.5 53.1 38.9 5.52 7.45 15.3 13.7 29.4 18.8 7.64 2.75 21.6-5.12 25.4-13.3 1.84-3.9-13.4-38-6.26-51.9l5.69-11.1c1.86-3.62-1.44-16.7-3.38-20.3-0.305-0.477-16.6-6.11-49-16.9-9.97-3.32-10.6-5.73-17.4-4.91z" fill="#137b5b"/>
  <path d="m460 233c7.13-6.62 20.4 0.962 28.5 6.35 11.2 7.46 23.4 33 23.4 33l0.733 1.03-0.733 5s-3.9 12.3-11 15.3c-9.68 4.11-18.5-10.6-25.6-18.4-9.13-9.95-8.57-14.6-13.1-27.3-1.69-4.77-5.89-11.6-2.19-15z" fill="#e37192"/>
  <path d="m-52.4 429 71-9.47 2.17 0.445 0.978 25.5-27.4 28-46.2-7.54-1.61-33.9z" fill="#e3c7ec"/>
  <path d="m238 476c8.73-9.39 22.5-15.9 35.3-15.2 10.4 0.607 17.4 4.36 22.7 13.3 5.99 10.1 5.03 37.5 5.03 37.5l0.202 9.07-3.41 10-57.4-17.8-1.23-1.32s-4.46-7.6-5.46-12.3c-1.82-8.61-1.81-16.8 4.18-23.2z" fill="#71e3d0"/>
  <path d="m517 539 13.7-16.6 35.8 17.7 1.38 30.7-35.8-12.8z" fill="#00009c"/>
  <path d="m308 99.8c-6.25 17.7-10.6 15.1-35.3 43.9-0.86 1-6.91-2.83-18.2-11.5-0.39-0.301-1.37-6.51-2.95-18.6-0.0547-0.421-4.5-24.3 3.68-30.5 3.78-2.83 54.6 11.4 52.7 16.7z" fill="#711cea"/>
  <path d="m137 66.6c-12.7-0.116-19.3 5.89-19.7 18-0.493 13.7-6.23 17.6-9.44 19.3-8.7 4.77-18.1 10.9-34.1 10.4-21.6-1.58-22.7-10.6-28-2.88-6.51 9.54 1.78 12.8 15.8 30.8 11.3 15.2 26.8 28.1 44.7 32.8 8.62 2.25 14 2.88 26.5-3.22 9.84-4.79 17.7-12.6 23.5-23.5 4.22-8.96 8.25-18.8 12.3-27.5 3.27-7.19 6.1-16.1 8.47-26.7 2.7-12-5.78-20.5-25.4-25.4-5.59-1.4-10.5-2.12-14.7-2.16z" fill="#2f2f7a"/>
  <path d="m381 193q16.8-2.42 27.3 19.9 12 25.3-0.192 36.7-13.8 12.9-29-4.09-17.3-19.2-15.3-33.8 2.32-16.5 17.1-18.7z" fill="#aa5578"/>
  <path d="m172 248q6.06-5.8 7.43-6.4 36.6-16.1 37-15.7 11.3 9.59 12 10.8 17.7 33.8 16.1 34.8-43.6 26.8-44.6 26.5-26.9-9.47-27-10.9-1.22-38.9-0.989-39.1z" fill="#557114"/>
  <path d="m338 344q1.09 15.6-12.7 27.1-13.6 11.4-21.4-7.29-7.71-18.5 12.7-27.1 20.2-8.47 21.4 7.27z" fill="#8eaa80"/>
  <path d="m140 396c8.48 1.69 16.7 11.1 24.6 28.1 5.07 10.9-1.63 21.2-13.3 32.9-7.44 7.44-9.48 12.5-13 13.4-2.24 0.53-9.36-4.98-21.4-16.5-7.68-7.39-8.54-21.4-2.58-42 3.82-13.2 12.3-18.5 25.6-15.8z" fill="#38c798"/>
  <path d="m252 141c-6.03-0.193-14.9 2.34-26.6 7.59-22.7 13.5-11.7 54.1-3.3 71.4-0.17 0.604 2.19 2.97 7.07 7.11 2.95 2.5 17.3 2.71 43 0.631 15.6-1.26 24-2.54 25.3-3.86 9.12-10.4 0.606-10-0.607-27.7-0.734-10.7-4.32-17.4-10.8-20.1-2.9-5.34-21.1-28-27.7-33.1-1.57-1.21-3.73-1.86-6.47-1.95z" fill="#714769"/>
  <path d="m86.9 172c3.68-0.107 8.42 2.08 14.2 6.55 5.87 4.53 9.02 13.9 9.45 28.2 0.439 14.4-10 18.1-31.4 10.9-21.6-7.2-48.5-9.38-15.2-28.1 11.6-11.6 19.3-17.5 22.9-17.6z" fill="#1c557e"/>
  <path d="m357 232q2.46-0.628 31.8 32 3.2 3.56 1.99 10.2-0.132 0.727-10.4 15.7-1.12 1.63-28.4 6.24-2.98 0.503-19.8-7.22-1.83-0.843 1.82-46.3 0.398-4.96 23-10.7z" fill="#aa71db"/>
  <path d="m172 317q-1.3-19.9-0.669-20.8 0.945-1.36 12.1 2.57 16.7 5.88 30.2 19.7 20.2 20.6 18.5 24.9-2.58 6.39-23.6 1.03-31.4-8.01-33.1-10.4-2.62-3.59-3.5-16.9z" fill="#558e68"/>
  <path d="m306 403c1.95-1.35 14.9 3.41 38.8 14.3 7.68 3.48 11.2 8.36 10.7 14.6-0.171 2.01-9.69 12.5-28.6 31.3-6.06 6.06-18.5 18.2-22.9 18.8-1.39 0.197-1.05-13.6-13.6-24-4.02-3.31-2.9-16 3.36-38.1 2.01-7.09 6.05-12.7 12.1-16.9z" fill="#8ec7ba"/>
  <path d="m321 102q2.91-0.428 22.2 13.9 7.88 5.87-3.26 33.8-4.55 11.4-28.9 19.8-9.97 3.41-21-1.25-4.5-1.91-11.6-15-2.92-5.37 24.4-37.2 11.2-13 18.3-14.1z" fill="#8e38af"/>
  <path d="m133 179q15.6-7.61 28 28 10.8 31.1 7.45 34.3-2.93 2.8-28.2-2.78-22.1-4.86-23-6.41-0.862-1.35-1.56-24.3-0.61-20 17.3-28.8z" fill="#385587"/>
  <path d="m266 288q9.19 7.68 4.83 21.9-2.71 8.81-20.2 20.6-10.9 7.35-31.7-13.9-12.9-13.2 14.9-30.3 17.3-10.7 32.1 1.7z" fill="#718e9a"/>
  <path d="m69.9 328c10.6-2.93 29.8 11.6 30.1 13.6 2.49 19.9 2.4 30-0.259 30.3-27.7 2.87-51.9 10.3-52.8 8.78-8.85-15.6 3.37-25.1 4.75-26.4 14.3-14.3 7.97-23.4 18.2-26.2z" fill="#1caa20"/>
  <path d="m440 110c-5.9-0.0104-13.8 0.476-23.7 1.46-19.2 1.91-23.7 12.2-13.5 30.9 6.32 27.1-2.5 21.5-0.69 41.8 0.607 6.81 5 12.6 12.5 28.6 7.46 15.8 15.8 22.5 25 20.1 9.13-2.35 14.4-4.2 15.7-5.53 1.32-1.32 3.48-8.27 6.51-20.9 2.99-12.5 2.11-21.4-2.63-26.8-4.48-17.4-6.84-24.2-5.32-40.3 1.38-14.5 1.03-23.4-1.04-26.9-0.99-1.66-5.28-2.49-12.9-2.5z" fill="#c7477a"/>
  <path d="m345 318q4.88-14.2 16.5-16.2 18.6-3.14 25 14.1 10.3 27.6 7.37 34.1-4.63 10.4-6.03 11.4-2.23 1.56-18.2-0.268-25.5-2.92-26.4-15-1.35-19.2 1.71-28.1z" fill="#aa8e65"/>
  <path d="m206 348q24.6 6.3 23.2 17.9-1.27 10.3-6.45 14.7-4.61 3.94-22.6 2.51-16-1.26-19.1-22.9-2.74-19.3 25-12.2z" fill="#55aa86"/>
  <path d="m206 57.5c2.39-2.39 4.18-3.83 5.39-4.32 0.261-0.108 11 6.74 32.2 20.6 12.5 6.6 5.14 19.9 3.85 30.2-0.463 3.66-18.5 5.09-54.1 4.27-7.71-0.177-9.47-9.56-5.3-28.1 0.905-4.03 6.87-11.5 17.9-22.6z" fill="#551cc9"/>
  <path d="m320 174q17.9-6.13 29.1 6.42 12.2 13.7 10.1 28.6-2.28 16.2-14.2 19.3-13 3.33-25.2-1.19-13.2-4.93-14.6-25.3-1.52-22.2 14.9-27.8z" fill="#8e557a"/>
  <path d="m116 261c10.3-13.7 8.23-20.7 20-18.1 19.8 4.37 29.9 11.6 30.2 21.6 0.528 16.9 0.596 25.6 0.205 26.2-0.661 0.953-7.22 3.88-19.7 8.78-21 8.27-29.7 8.17-30.8-3.09-1.64-17.2-6.04-27.3 0.0925-35.4z" fill="#387162"/>
  <path d="m392 287q5.3-7.72 26.5 1.79 18.4 8.25 38.3 28.7 17.3 17.7 14.7 20.3-2.26 2.26-37.9 2.61-30.9 0.306-39.9-23.7-7.77-20.8-1.67-29.7z" fill="#c78e87"/>
  <path d="m239 349q2.4-5.95 15-14.4 15.8-10.7 25.2-0.869 11.8 12.4 18.7 28.9 8.64 20.8 7.52 25.4-1.42 5.78-6.74 9.47-6.71 4.64-32.2-7.03-32.1-14.7-30.9-24.4 1.51-12.2 3.41-16.9z" fill="#71aa72"/>
  <path d="m36.8 403c-2.14-13 24.5-21.7 30.7-22.4 24.2-2.51 36.8-3.25 37.8-2.22 3.93 4.03 6.08 6.38 6.45 7.04 1.43 2.6 1.16 7.33-0.829 14.2-7.79 27-5.96 21.3-6.22 21.4-1.04 0.311-20.4-0.852-28.8-5.79-16.1-9.5-37 0.724-39.1-12.3z" fill="#1cc73b"/>
  <path d="m63.9 60.2q12.4-12.4 25.1-16 12.9-3.63 18.1 4.78 5.29 8.59 4.37 34.3-0.945 26.2-34.3 25.3-34-0.963-29.8-18.4 4.34-17.8 16.5-30z" fill="#1c1c7e"/>
  <path d="m367 120c9.22-2.9 14-4.29 14.3-4.16 0.499 0.205 4.48 7.15 11.9 20.8 11.4 20.9 4.55 34.5 1.08 38.7-16.4 15.4-25.8 16.9-38 2.77-9.4-10.6-12-21.1-7.9-31.4 6.33-15.9 12.5-24.8 18.5-26.7z" fill="#aa3867"/>
  <path d="m158 161q11.3-21.2 20-15.6 22.9 14.5 26.9 30.1 10.6 41.1 10.4 41.8-0.492 1.74-10.9 6.33-27.5 12.1-33.9-6.26-16.8-48.3-12.5-56.4z" fill="#55554b"/>
  <path d="m279 301q1.81-5.88 8.05-8.92 2.15-1.04 28.8-0.599 9.16 0.154 23 6.53 4.77 2.19-1.14 19.4-2.03 5.91-32.3 18.6-10.4 4.35-26.2-12.2-5.43-5.68-0.177-22.8z" fill="#8e8eb7"/>
  <path d="m171 338q2.1 2.87 5.13 24.2 2.78 19.6-10.1 24.9-11.8 4.89-28.8 1.5-15.6-3.11-17-5.66-1.29-2.34 24.7-26.2 23.8-21.9 26.1-18.8z" fill="#38aa84"/>
  <path d="m211 114c22.6 0.517 34.3 3.77 35.1 9.77 0.853 6.55-5.88 13-20.2 19.5-15.6 7.02-28.5 7.34-38.6 0.958-11-6.98-14.7-4.29-16.5-10.6-1.02-3.42 1.44-3.32 4.38-9.78 3.21-7.05 15.2-10.3 35.8-9.87z" fill="#55387a"/>
  <path d="m302 228q1.82-1.79 12.8 2.3 14.4 5.35 12.6 27.2-2.3 28.5-17.8 28.3-20.3-0.34-15.4-24.6 6.36-31.8 7.76-33.1z" fill="#8e7170"/>
  <path d="m134 311q30-11.8 30.9 1.52 1.3 19.9-18.7 38.3-29.8 27.4-32.8 24.3-4.43-4.54-6.07-17.7-2.45-19.6 1.12-27.2 5.32-11.3 25.5-19.2z" fill="#388e68"/>
  <path d="m226 387c4.17-3.56 13.2-2.16 27.1 4.21 24.5 11.2 35.2 22.1 32.3 32.7-5.28 18.6 3.02 30-6.53 33.1-16.9 5.56-43.3 5.07-47.7-0.604-7.92-10-11.5-21.2-10.7-33.6 1.41-21.8 3.29-33.8 5.65-35.8z" fill="#71c75f"/>
  <path d="m270 233q26-2.1 19.5 30.4-4.72 23.6-9.58 25.9-3.52 1.72-17.4-9.91-10.1-8.42-20.7-28.8-7.71-14.8 28.2-17.6z" fill="#717191"/>
  <path d="m371 367q12 1.37-0.473 34.4-5.07 13.4-9.71 16-1.89 1.06-35.6-14.2-13.7-6.22-11.9-13.6 0.735-3 20.2-19.3 7.92-6.63 37.4-3.24z" fill="#aaaaaf"/>
  <path d="m165 393q17.5-7.22 27.4-6.44 24.1 1.9 23.1 16.9-2.33 36.3-12.9 35.8-25.4-1.27-31.1-13.6-13.8-29.7-6.54-32.7z" fill="#55c74f"/>
 </g>
</svg>
