<?xml version="1.0" encoding="UTF-8"?>
<svg width="512px" height="512px" contentScriptType="text/ecmascript" contentStyleType="text/css" version="1.1" viewBox="0 0 512 512" xmlns="http://www.w3.org/2000/svg">
 <g class="voronoi" stroke-width=".5">
  <path d="m33.1-50.3 7.76 30.8-24.3 5.18-9.74-28.9z" fill="#00e358"/>
  <path d="m458-37.1 39.9 3.59 31.6 25.6 4.85 5.94-17.3 17.4-55.1-29.8z" fill="#e3e3c9"/>
  <path d="m361-16.4-17 16.4s-10.2 12.7-17.2 16.5c-6.32 3.46-21.3 1.4-30 6.96-1.46 0.942-3.29 2.41-3.17 4.14 0.377 5.16 7.9 6.78 11.1 10.8 10.2 12.8 23.1 37.3 21.9 42-1.08 4.18 2.11 8.97 2.17 14.6 0.03 3.28-0.0203 6.34 2.07 8.25 9.11 8.35 12.6 2.54 36.6 5.86 6.36 0.879 12.2-10.7 15.2-17.9 4.73-11.5-1.71-0.754 2.79-37.3 0.997-8.11 3.48-20.6 3.35-26.8-0.221-9.82 9.3-16.1 7.89-24.1-0.181-1.02-1.76-3-1.76-3l-11-11.5z" fill="#aa0016"/>
  <path d="m-13.2 126 13.2 3.6s6.77 1.33 8.18 6.33c1.98 7.04-8.18 13.7-8.18 13.7l-10.9 11.6-25.6 20.8-12.6-8.24-3.62-33.7z" fill="#e3388e"/>
  <path d="m526 232 19.8-17.1 10.5 24.5 2.16 38.9-19.9 10.4-20.3-16.8z" fill="#007170"/>
  <path d="m20.7 418c19.4-6.71 62.1 5.51 70.2 26.2 2.08 5.29-6 9.7-8.19 14.9-4.03 9.66-2.42 26.6-12.6 29-21 4.89-40.3-46.3-40.3-46.3s-15.1-21.8-9.13-23.8z" fill="#00c7e4"/>
  <path d="m486 424c8.61-1.58 26.2-2.12 26.2-2.12l18.6-2.48 2.17 0.445 0.978 25.5-21.8 22.3s-6.45 2.75-8.99 3.59c-14.8 4.88-33.5 7.12-42.9-5.4-6.89-9.23-2.19-25.1 4.39-34.3 5.51-7.7 12-5.81 21.3-7.52z" fill="#e3c7ec"/>
  <path d="m321 474c9.76-0.804 12.9 9.63 24.9 15.6 7.78 3.88-10.5 22.3-10.5 22.3l-13.1 14.8-14.4 1.9 0.707-16.7s0.324-18.7 4.33-27.1c2.14-4.49 3.06-10.3 8.02-10.7z" fill="#8ee3e0"/>
  <path d="m111 542 11.6-13.2 24.7 0.928 42 23.9-2.14 22.8-51.6-6.19-24.5-16.7z" fill="#3800b4"/>
  <path d="m187-67.2 31.7 7.13 11.5 24.5-15.6 19.6-34-8.15-24-22z" fill="#55e345"/>
  <path d="m4.93 27.5c-0.599-7.15 6.66-15.1 13.7-16.6 13-2.79 28.5 6.56 35.8 17.7 5.6 8.59 10 25.2 1.38 30.7-10.8 6.96-34.4-17.5-34.4-17.5s-15.9-7.05-16.5-14.3z" fill="#00009c"/>
  <path d="m445-14.3 30.2 14 0.43 0.334s32.5 12.4 34.6 26.9c0.941 6.64-7.21 11.4-11.8 16.3-5.62 5.96-10.9 16.8-19 15.6-11.6-1.79-19.3-29.5-19.3-29.5l-10.2-29.3z" fill="#e3006f"/>
  <path d="m-32 187 46.8 19.7-13 27.9-42.8-5.79-1.28-33.1z" fill="#e355c7"/>
  <path d="m510 318c0.353-2.5 1.73-8.65 1.73-8.65l6.24-7.05 25.7-8.73 24.8 23-13 25.3-42-12.8-1.68-3.53s-2.28-3.73-1.73-7.58z" fill="#008ebf"/>
  <path d="m12.9 425c-3.86-2.1-12.9-2.81-12.9-2.81l-52.4 6.99-1.05 3.02 1.61 33.9 46.2 7.54 4.75-4.86c5.91-6.05 8.16 26.2 17.5 29.1 11 3.37 26.3-1.26 29.1-12.4 3.69-14.5-16-23.4-18.8-38.6-0.628-3.36-2.37-8.02-3.41-11.3-1.52-4.76-6.25-8.16-10.6-10.5z" fill="#e3c7ec"/>
  <path d="m452 482c9.04-9.85 42.5-6.11 45.4-3.78 3.22 2.66 14.3 11.6 14.3 11.6l17.3 14 4.85 5.94-17.3 17.4-28.7-15.5s-14.9-10.8-26.5-14.3c-5.76-1.76-14.6-9.72-9.44-15.4z" fill="#e3e3c9"/>
  <path d="m303 538 3.17-4.14 11.2 0.316 40.1 9.42-26.6 35-25.7-27.8z" fill="#8e00cf"/>
  <path d="m318-32.9 34.7 13.3-30.4 34.4-14.4 1.9 0.707-16.7 1.18-28z" fill="#8ee3e0"/>
  <path d="m111 30c3.06-3.79 6.07-1.88 9.7-5.12 3.59-3.21 4.72-9.73 9.15-11.6 20.2-8.58 48.6 9.32 59.4 28.4 3.77 6.65 5.41 21.7-2.14 22.8-20.8 3.21-52.3 0.68-68.5-5.39-9.26-3.47-2.95-8.75-7.59-17.5-1.83-3.43-2.49-8.64-0.053-11.7z" fill="#3800b4"/>
  <path d="m-41.1 70.8 11-5.22 42.6 33.1s18.4 12 13.4 18.2c-4.09 5.03-25.9 2.99-25.9 2.99l-31.6-2.72-23.3-10.1 3-20.3z" fill="#e31caf"/>
  <path d="m533 148 16.4 59.2-1.36 0.59-14-1.31-22.2-14.1s-11.3-3.92-11.6-12.1c-0.326-8.58 11.6-16.5 11.6-16.5z" fill="#005528"/>
  <path d="m-12.9 332 12.9 3.52s27.6 5 37 13.6c7.92 7.27 11.9 23.2 10.5 32.7-0.342 2.27-11.3 16.4-21.6 15.7-10.2-0.701-18.8-24.4-18.8-24.4l-7.06-14.6z" fill="#00aa73"/>
  <path d="m473 352c5.79-5.02 16-4.79 22.9-1.61 8.18 3.72 16.2 21.5 16.2 21.5l14.3 22.1 5.66 18.3-60.2 9.24s-11.3-0.173-14.2-3.34c-8.96-9.65 3.04-37.4 3.04-37.4s3.98-21.7 12.2-28.9z" fill="#e3aac9"/>
  <path d="m213 442c-12-5.97-28.5-6.1-40.6-0.414-13.2 6.18-17.2 24.6-28.5 34.3-2.56 2.2-6.78 2.45-8.68 5.25-5.82 8.61-5.04 30.8-5.04 30.8l-1.37 8.35 28.6 3.55 9.95-11.9s9.07-12.9 15-17.9c6.12-5.22 14.1-7.8 20.7-12.4 8.62-5.94 17-15.3 24.7-19.5 8.33-4.5-7.26-16.4-14.7-20.1z" fill="#38e3df"/>
  <path d="m-66.9 498 30.2 14 35 27.2-11.8 16.3-19 15.6-19.3-29.5z" fill="#e3006f"/>
  <path d="m393 543 7.56-20.8 16.7-10.6s7.64-7.91 12-7.41c4.16 0.48 3.74 7.41 3.74 7.41l27.3 41.5-0.753 28.4-48.8-24.7z" fill="#c700b4"/>
  <path d="m363-67.1 14.3 29 0.542 20.5-26.2-6.56-21.7-19.2z" fill="#aae33b"/>
  <path d="m195-13 28 5.11-0.229 7.92-0.196 6.79s-6.92 30.2-8.97 43.2c-0.431 2.74-10.3 6.06-11.9 2.33-7.67-18-25-27.2-33.1-36.3-4.55-5.1 11.2-16 11.2-16z" fill="#550029"/>
  <path d="m-18 59.4 18-9.57s7.51-3.93 11.4-3.94c11.4-0.0289 22.4 5.13 29.1 14.2 4.51 6.06 4.88 14.7 4.32 22.3-0.739 9.95-0.517 25.1-9.99 28.2-4.25 1.42-7.76-4.58-11.2-7.47-8.77-7.36-23.7-24.9-23.7-24.9z" fill="#001c34"/>
  <path d="m471 70.8c3.07-2.65 8.91-3.35 12.4-1.24 10.6 6.48 28.8 19.5 28.8 19.5l12.5 9.69 6.92 22.9-19.4-1.67s-29.4 4.77-40.3 10.4c-10.4 5.35-23.1-10.4-27.3-22-3.02-8.33 15.7-21.5 15.7-21.5s5.89-11.8 10.8-16z" fill="#e31caf"/>
  <path d="m-51.9 233 28.5 6.35 24.1 34-4.08 27.9-25.6-18.4-20.7-34.8z" fill="#e37192"/>
  <path d="m483 290c-15.4 4.26-15.6 32.8-8.76 47.3 6.15 13 25.2-5.25 37.8 20.7l7.06 14.6 33.4 16.2 4.04-26.2-32.6-24.3-11.9-3.27c-4.98-4.82-7-16-9.59-22.9 0 0-9.97-24.7-19.4-22.1z" fill="#00aa73"/>
  <path d="m4.93 539 13.7-16.6 35.8 17.7 1.38 30.7-35.8-12.8z" fill="#00009c"/>
  <path d="m445 498c8.23-7.46 30.2 14 30.2 14l0.43 0.334 34.6 26.9-11.8 16.3-19 15.6-19.3-29.5-10.2-29.3s-8.72-10.9-4.98-14.3z" fill="#e3006f"/>
  <path d="m86.9-50 14.6-13.7 19.3 17.6 5.01 36.9-4.68 9.17s-4.2 14.3-5.4 21.7c-0.59 3.63-10.3 6.36-10.7 2.71-0.833-7.52-12.1-24.4-12.1-24.4l-12.5-9.53z" fill="#1ce39d"/>
  <path d="m545-50.3 7.76 30.8-24.3 5.18-9.74-28.9z" fill="#00e358"/>
  <path d="m41.2 115-7.48 4.73-11.8 12.1-22 32.1-20.6 15.4 20.6 13.1s17 9.92 25.2 12.8c4.43 1.52 7.2 2.8 11 2.66 4.5-0.175 9.24-1.49 12.8-4.19 7.43-5.57 9.08-16.5 15.7-23 6.36-6.21 19.9-15.2 30.2-14.1 8.25 0.9 7.74-26.4 7.98-27.2 4.16-15.6-5.67-23.8-29.5-24.4-10.6 1.05-21.9-2.28-32.3 0.0664z" fill="#005528"/>
  <path d="m498 128c4.55-0.174 14.2 1.61 14.2 1.61l15 4.11-26 27.6s-14.6 20.2-25.6 20.8c-5 0.258-9.95-3.96-12.6-8.24-5.9-9.64-9.63-24.1-3.62-33.7 7.43-11.8 24.5-11.6 38.5-12.1z" fill="#e3388e"/>
  <path d="m-42.5 273 33 39.7-4.94 11.3-6.77 6.49-13.1 3.47-34.6-37.7z" fill="#e38e16"/>
  <path d="m540 423 63.4 21.1-29.7 35.2-9.71 3.23-21.7-32.9z" fill="#00c7e4"/>
  <path d="m392 371c-11.2-1.54-18.4 41.7-19.6 43.6-9.6 15.2-44.3 31-42.3 53.7 0.856 9.62 12.7 15.6 21.7 19.2 6.41 2.64 20.8 1.16 20.8 1.16 9.66 0.537 22.2 22.9 30.6 19.4 0 0 23.8-7.4 34-14.2 2.42-1.61 4.55-3.73 6.21-6.11 3.94-5.66 8.5-18.9 8.5-18.9 1.88-15.7 8.92-32.5 0.701-43.1-23.8-30.7-56-54.2-60.6-54.9z" fill="#bdda1f"/>
  <path d="m195 499c10.1-8.54 29.7-38.6 30.6-25.4 0.375 5.87-2.82 38.4-2.82 38.4l-0.196 6.79-13.3 39.9-7.78-2.98-37.4-30.4 15.6-13.3s10.1-8.72 15.2-13z" fill="#550029"/>
  <path d="m144-36 38.5 18.1-15 17.9s-6.61 6.13-11.4 8.03c-8.93 3.52-18.6 3.94-24.5-2.91-1.84-2.14-1.24-5.12-1.24-5.12l5.04-30.8z" fill="#38e3df"/>
  <path d="m-66.9-14.3 30.2 14 35 27.2-11.8 16.3-19 15.6-19.3-29.5z" fill="#e3006f"/>
  <path d="m393 31.5c-2.05-7.1 2.93-15.1 7.56-20.8 4.14-5.15 16.7-10.6 16.7-10.6l11.1-7.05 4.63 7.05s17.8 28.2 27.3 41.5c5.48 7.72 7.38 23.6-0.753 28.4-15.6 9.33-33.4-14.9-48.8-24.7-6.34-4.01-15.7-6.59-17.8-13.8z" fill="#c700b4"/>
  <path d="m534 132 11.8-12.1 3-1.97 36 45.8-27.7 36.2-5.32 3.8-17.2-61z" fill="#0038dc"/>
  <path d="m-5.02 315 5.02-5.68s16.3-17.3 19.4-17.3c20.5-0.402 25.8 15.5 37.9 24.4 8.65 6.4 27.7 10.5 24.7 20.8-3.69 12.3-25.5 5.76-38.3 4.63-14.6-1.28-42-12.8-42-12.8l-1.68-3.53z" fill="#008ebf"/>
  <path d="m-54.2 475 39.9 3.59 31.6 25.6 4.85 5.94-17.3 17.4-55.1-29.8z" fill="#e3e3c9"/>
  <path d="m271 528 25 13.2-25.7 28.3-39.7 0.677-6.04-37.5z" fill="#710098"/>
  <path d="m238-35.6 35.3-15.2 27 15.5 0.782 35.2 0.202 9.07-3.41 10-57.4-17.8-11.1-12z" fill="#71e3d0"/>
  <path d="m29.9 0.189 0.149-0.189 2.32-2.94 20.7-20 11.7 3.96 16.6 19s18.2 17.7 19.1 28.8c0.284 3.72-12.1 14.4-20.3 14-11.5-0.527-17.8-14.7-26.6-22.2-7.95-6.76-23.6-20.5-23.6-20.5z" fill="#1c0024"/>
  <path d="m517 27.5 13.7-16.6 35.8 17.7 1.38 30.7-35.8-12.8z" fill="#00009c"/>
  <path d="m494 183c6.99 11.2 18.3 17.6 18.3 17.6l14.7 6.21-13 27.9-1.76-0.238s-36.3-0.503-45.6-10.7c-7.43-8.18-2.2-18.4 3.3-28 4.52-7.87 21.6-16.6 24-12.8z" fill="#e355c7"/>
  <path d="m-32.7 343 10.8-5.21 21.9 33.9s8.6 15.5 14.3 22.1c4.78 5.59 19.8 9.28 16.5 14.7-3.57 5.71-30.8 6.66-30.8 6.66l-40.3 6.18-12.9 1.37 13.5-62.4z" fill="#e3aac9"/>
  <path d="m86.9 462c3.12-5.89 7.9-13.7 14.6-13.7 8.71-0.061 15.2 9.92 19.3 17.6 5.76 11 7.24 16.8 5.15 29.1-0.576 3.38-4.83 17-4.83 17l-7.9 15.5-20.3-15.5s-5.72-8.4-7.66-13.3c-5.07-12.7-4.76-24.7 1.64-36.8z" fill="#1ce39d"/>
  <path d="m545 462 7.76 30.8-24.3 5.18-9.74-28.9z" fill="#00e358"/>
  <path d="m361 496c7.56-2.17 16.2 1.05 23.1 4.88 4.63 2.58 11 11.5 11 11.5l2.15 2.25-11.2 25.7-19.1 1.93-41.4-12 18.5-17.8s9.43-14.2 17-16.4z" fill="#aa0016"/>
  <path d="m-54.2-37.1 39.9 3.59 31.6 25.6 4.85 5.94-17.3 17.4-55.1-29.8z" fill="#e3e3c9"/>
  <path d="m417-78.8 33.9 1.52 0.463 34.4-8.5 18.9-6.21 6.11-34 14.2-14.2-13.2-6.53-27z" fill="#c7e30d"/>
  <path d="m271 16.4c-14.8-4.74-37-7.71-46.4 4.62-7.73 10-2.39 30.3 6.04 37.5 4.04 3.46 29.1 16.8 27.1 19.3 0.022 0.0507 16.8 5.74 50.5 17.1 9.39 3.16 14-1.4 13.9-13.7-5.14-11.9-13-33.5-20-37.7-12.2-7.3-17.9-22.9-31-27.1z" fill="#800e2e"/>
  <path d="m498 63.6c1.09-6.72 14.1-13.8 14.1-13.8l10.4-5.52 33.8 35.2-7.42 29.5-1.82 1.62-11.2-7.47-23.7-24.9s-15.5-6.07-14.1-14.7z" fill="#001c34"/>
  <path d="m13.6 232c4.36-7.54 11.3-19 19.8-17.1 8.66 1.99 8.51 15.8 10.5 24.5 2.97 12.6 8.57 27.6 2.16 38.9-3.69 6.51-12.4 11.2-19.9 10.4-8.73-0.92-17.3-8.56-20.3-16.8-4.57-12.7 0.842-28.2 7.62-39.9z" fill="#007170"/>
  <path d="m460 233c7.13-6.62 20.4 0.962 28.5 6.35 11.2 7.46 23.4 33 23.4 33l0.733 1.03-0.733 5s-0.889 15.4-3.35 22.9c-3.32 9.98-18.2-15.1-25.4-22.8-9.13-9.95-16.5-17.7-21-30.4-1.69-4.77-5.89-11.6-2.19-15z" fill="#e37192"/>
  <path d="m238 468c8.73-9.39 23.4-7.51 36.2-7.11 12 0.371 34.4 6.09 32.2 16.2-2.05 9.57-4.42 34.5-4.42 34.5l0.202 9.07-3.41 10-57.4-17.8-1.23-1.32s-8.67-5.97-9.91-10.7c-2.9-10.9 1.73-26.6 7.72-33z" fill="#71e3d0"/>
  <path d="m29.9 512 0.149-0.189 2.32-2.94 20.7-20 11.7 3.96 38.6 44.3-6 9.46-27.5 2.24z" fill="#1c0024"/>
  <path d="m517 539 13.7-16.6 35.8 17.7 1.38 30.7-35.8-12.8z" fill="#00009c"/>
  <path d="m64.3 60.7c8.29-8.29 16.7-13.6 25.1-16 8.61-2.42 14.6-0.829 18.1 4.78 3.53 5.73 4.98 17.1 4.37 34.2-0.628 17.4 5.28 20.2-1.11 26.2-8.12 7.59-11.2-0.209-33.3-0.835-22.6-0.639-32.5-6.76-29.6-18.4 2.89-11.9 8.4-21.8 16.5-30z" fill="#1c1c7e"/>
  <path d="m317 133q14.2-21.5 15-21.3 44.7 6.18 44.9 7.15 6.76 50 6.74 50-0.972 1.72-1.74 1.92-39.6 10.4-40.1 9.44-25.1-46.8-24.9-47.2z" fill="#aa3811"/>
  <path d="m207 147c3.85 0.311-0.345 3.83 3.76 11 14.5 25.2 20.7 40 18.4 44.2-8.12 15-14.3 20.8-18.5 17.6-14.8-11.5-22.6-18-23.4-19.3-2.69-4.78-2.56-10.6 0.381-17.3 10.4-24 5.73-37.2 19.3-36.1z" fill="#55553f"/>
  <path d="m269 243c-14.1-4.43-44.1 3.87-44.2 4.27-3.96 10.4-13.6 19.2-23.6 23.5-3.23 1.42-6.58-0.12-8.78 0.0566-21.4 1.71-34.3 4.95-38.9 9.71-7.97 8.41-3.49 18 13.5 28.9 20.7 13.2 42.5 25.8 54.5 32.3 1.4e-4 4.3e-4 -0.01 0.0408-0.01 0.041 4.4 5.88 7.16 9.11 8.28 9.67 42.3 21.2 35.3 23.7 62.9 26 6.02 0.492 0.599-12.8 6.06-17.8 3.55-3.01 11-9.34 19.3-26.1 5.2-10.5 4.47-23.6-2.16-39.3-0.325-0.768-1.9-1.12-2.52-2.62-2.19-5.34-4.78-14.9-5.36-15.5-25.1-22.2-22.7-28-39-33.2z" fill="#7187b1"/>
  <path d="m138 297c-2.67-0.0958-5.19 0.704-7.59 2.4-0.687 0.487-2.24 6.44-4.67 17.9-4.95 9.12-11.3 19.4-12.2 29.7-0.287 16.7-1.45 18.1 0.729 26.8 1.31 5.23 4.13 14 7.25 14.5 17 2.3 29.7-1.21 30.5-1.57 4.86-1.99 9.01-4.72 12.5-8.19 15-15.1 24.3-24.5 28.3-29.4 2.87-3.48 15.7-4.13 13.3-8.94-5.67-11.6-18.8-13.9-59.8-40.2-2.94-1.89-5.74-2.88-8.41-2.97z" fill="#389c7c"/>
  <path d="m320 103c1.44 0.486 2.99 2.08 4.64 4.79 0.0573 0.094-4.57 7.19-13.9 21.3-0.324 0.489-10.8 6.25-31.5 17.3-0.717 0.383-9.49-6.19-26.3-19.7-0.585-0.469-2.04-36.8 1.51-42.5 3.55-5.71 23.9 4.9 65.5 18.9z" fill="#711cea"/>
  <path d="m339 189q2.52-2.52 29-9.46 13.8-3.61 18.4 18.4 2.36 11.4-32 35.5-17.9 12.5-20.2 4.74-1.23-4.06-0.439-30.5 0.411-13.8 5.24-18.6z" fill="#aa55a3"/>
  <path d="m197 216q18.4 14.3 19 18.9 1.16 8.33-1.55 15.4-4.88 12.8-22.8 14.2-32.4 2.59-36.6-8.46-7.73-20 6.35-29.9 25.4-18 35.6-10.1z" fill="#55715e"/>
  <path d="m359 337c9.61 4.47-2.55 16.6-36.5 36.3-18.5 8-25.9 15.4-23.2 6.29 2.16-8.14 6.51-15.2 19.1-40.6 5.61-11.4 19.2-12 40.7-2.05z" fill="#8eaaab"/>
  <path d="m139 393c7.85 1.06 16.1 11 24.8 29.7 5.57 12 0.692 19.3-10.9 30.9-7.44 7.44-11.1 16.2-14.6 17-2.24 0.531-9.36-4.98-21.4-16.5-7.68-7.39-8.44-21.7-2.28-43.1 3.95-13.7 12-19.7 24.3-18z" fill="#38c798"/>
  <path d="m153 68.5q29.5 7.39 24.2 31-4.66 20.7-11 22.8-5.54 1.84-28.5-4.72-20.2-5.77-19.2-33.3 0.872-24.2 34.4-15.8z" fill="#381c86"/>
  <path d="m384 115c0.619-0.619 10.7-1.9 30.4-3.85 23.1-2.29 36.3 9.97 38.1 12.9 2.07 3.46 1.63 0.49 0.251 15-1.62 17-11.6 25.9-30.1 26.5-21.7 0.787-33.6-6.62-35.7-22.2-2.48-18.3-3.46-27.8-2.93-28.3z" fill="#c73876"/>
  <path d="m272 183c2.73 0.296 2.92 1.34 6.53 5.03 0 0-0.0441 0.351-0.124 0.975-0.47 3.66-2.18 16.7-3.54 23.7-1.51 7.78-0.85 12.2-9.43 19.7-8.58 7.48-28.5 10.6-40 3.73-2.61-1.55-2.46-5.8e-4 -3.62-8.36-0.0375-0.27 4.99-9.7 15.1-28.3 0.327-0.601 22.2-17.9 35.1-16.5z" fill="#7155eb"/>
  <path d="m45.3 224c1.46-18.8 6.24-11 10.8-9.39 24.7 8.24 36.5 15.7 35.3 22.4-3.54 20.4 4.73 35.3-0.425 35.8-15.7 1.49-36.2 4-38.5-5.72-6.8-29.6-4.08-21.9-7.26-43z" fill="#1c7145"/>
  <path d="m318 280q0.091-0.192 16.7-13.6 1.17-0.942 52.4 18.4 3.61 1.36-2.5 49.1-0.43 3.36-6.8 3.45-0.449 6e-3 -44-20.3-3.07-1.43-16.1-32.2-0.918-2.17 0.378-4.91z" fill="#aa8ee3"/>
  <path d="m169 381q30.5-30.6 31.6-31.2 11.9-5.8 12.2-5.87 2.88-0.779 3.49 0.03 6.17 8.25 5.57 13.2-6.12 50.5-10.6 48.3-45.3-21.5-42.3-24.5z" fill="#55aa21"/>
  <path d="m303 141c-1.69 0.0521-3.35 0.517-4.99 1.39-12.6 6.74-19 13.6-19.3 20.6-0.331 10.1 0.266 15.9 1.79 17.5 2.59 10.3 0.869 46.6-2.72 53.7-1.94 3.74 6.87 14.3 26.4 31.6 6.3 5.57 13.9 4.74 22.9-2.48 2.89-2.32 4.62-5.93 5.19-10.8 0.184-1.57-0.628-5.35-2.43-11.3-1.84-20.3 2.47-39.3 2.5-53.7 2.89-2.9 0.84-10.9-6.15-23.9-8.19-15.2-15.9-22.8-23.3-22.5z" fill="#8e558b"/>
  <path d="m137 187q3.32-1.93 31.5 5.92 8.94 2.49 12.9 9.46 1.24 2.21-28.8 23.4-9.51 6.71-24.2-9.63-4.64-5.18-2.58-18.8 0.653-4.3 11.1-10.4z" fill="#3855bb"/>
  <path d="m448 237c8.46 8.03 21.4 26.2 27.5 43.4 1.12 3.15-1.07 18.4-12.3 37.2-1.95 3.26-33.1-30.1-52.8-37.4-3.41-1.28-0.194-11.9 9.39-31.2 1.76-3.54 19.9-20 28.3-11.9z" fill="#c771ce"/>
  <path d="m72.4 347c10.3-0.731 26.3-11.5 34-3.16 6.32 6.83 4.14 24.7-4.73 27.5-16.2 5.17-31.8 10.9-44.6 3.21-7.96-4.8-16-17.6-11.2-25.5 4.55-7.59 16.2-1.31 26.5-2.04z" fill="#1caa20"/>
  <path d="m172 126q2.18-0.723 23.3 14.1 4.77 3.35-11.6 41-3.69 8.52-34 0.08-6.86-1.91 9.04-42.8 3.6-9.24 13.2-12.4z" fill="#5538c7"/>
  <path d="m394 354c-0.375-5.08 30.6-6.73 58-7 22.9-0.226 4.07 9.3-1.92 36.8-4.99 22.9-8.2 26.9-29.2 5.78-17.5-17.6-26.5-29.5-26.9-35.6z" fill="#c7aa89"/>
  <path d="m248 407q45.6-15.2 45.9-14.9 0.464 0.549 0.733 1.25 0.475 1.24-5.43 22.1-10.4 36.8-24.7 41.5-25.3 8.34-32-0.164-11.9-15-11.3-24.5 1.08-16.7 26.9-25.3z" fill="#71c75f"/>
  <path d="m408 50.6c22.8 17.9 46.8 30.6 45.3 36.3-2.84 10.7-15.7 16-30.6 17.5-27.8 2.76-39.6 11.2-37.7-4.94 3.7-30.1 8.52-57.8 23-48.9z" fill="#c71c5c"/>
  <path d="m237 134q10.6-3.92 29.5 11.3 7.2 5.79 6.59 24.4-0.232 7.08-26.1 18.8-9.85 4.45-30.1-30.7-7.71-13.4 20.1-23.7z" fill="#7138b2"/>
  <path d="m89.9 172q7.99-0.232 19.7 9.76 11.8 10.1 10.5 19-1.37 9-12.4 15.8-11.1 6.83-35.6-1.32-24.8-8.25-7.52-25.5 17.5-17.5 25.4-17.7z" fill="#1c557e"/>
  <path d="m396 219q20.9 23.6 18.1 29.2-14.2 28.6-15.3 29.3-5.48 3.78-14.5 0.362-45.8-17.3-45.6-18.9 0.947-8.09 9.56-14.1 43.6-30.6 47.7-25.9z" fill="#aa7132"/>
  <path d="m343 415c9.03 3.93 6.3 6.28 5.65 14-0.209 2.46-8.09 11.7-27 30.6-6.06 6.06-6 14.3-10.3 14.9-1.39 0.197-8.35-4.87-20.9-15.2-4.02-3.31-1.91-19.5 6.33-48.6 2.64-9.33 18-7.88 46.2 4.36z" fill="#8ec7ba"/>
  <path d="m115 117c8.55-4.81 9.52 2.62 28.3 7.99 9.94 2.84 10.7 15.2 2.16 37-4.49 11.6-9.75 19.1-15.8 22.6-3.18 1.85-9.9-1.6-20.2-10.4-5.42-4.63-5.23-17.9 0.595-39.8 3.08-11.6-0.432-14.5 4.84-17.5z" fill="#3838a2"/>
  <path d="m390 175q0.498-0.881 30.4-1.97 30.2-1.1 37.3 6.96 7.11 8.14 2.63 26.8-4.53 18.9-6.51 20.9-2 2-17.1 5.9-15.3 3.94-27.7-10.1-12.6-14.2-16-30.8-3.46-16.8-2.97-17.7z" fill="#c7557e"/>
  <path d="m49.3 286q8.21-8.21 19.2-9.26 20.3-1.93 32.1 6.51 21.7 15.5 20.3 22.4-2.69 12.7-6.08 19.2-6.22 11.9-20.4 6.77-26.1-9.39-34.4-20.6-15.2-20.6-10.8-25z" fill="#1c8e5d"/>
  <path d="m384 345c0.613-9e-3 1.55 0.725 2.81 2.2 0.197 0.23 0.652 5.18 1.37 14.8 0.111 1.51-6.81 16.2-20.8 44-2.17 4.34-4.19 6.97-6.04 7.9-0.289 0.145-7.61 1.44-39.8-12.5-5.01-2.18-22.7-8.78-17.1-13.2 18.4-14.2 21.1-12.6 63.6-37.4 6.62-3.85 11.9-5.81 15.8-5.86z" fill="#aaaad3"/>
  <path d="m159 392c4.06-1.66 11-0.186 20.7 4.43 23.4 11.1 35.2 16.9 35.4 17.2 0.335 0.788 0.338 3.74 0.01 8.84-0.793 12.3-3.17 12.5-10.2 12.1-17-0.849-29.1 0.067-33.2-8.94-10.1-21.8-14.3-33-12.6-33.7z" fill="#55c74f"/>
  <path d="m205 59.2c2.39-2.39 4.18-3.83 5.39-4.32 2.13-0.876 11 6.74 32.2 20.6 13.3 6.82 3.64 31.8 2.49 40.9-0.659 5.21-11.5 11.7-32.6 19.5-4.56 1.69-7.2 2.48-7.92 2.37-0.157-0.022-7.32-5.02-21.5-15-3.07-2.16-1.88-15.4 3.57-39.6 1.18-5.26 7.28-13.4 18.3-24.4z" fill="#551cc9"/>
  <path d="m108 225q14-8.57 21.1-0.623 12.2 13.6 16.6 25 7.57 19.6 0.652 26.9-11.8 12.5-14.8 14.6-5.18 3.67-17.6-5.18-21.2-15.1-18.6-30.1 4.45-25.6 12.6-30.6z" fill="#387161"/>
  <path d="m401 285q3.05-2.1 20.3 5.62 15 6.71 34.9 27.1 17.3 17.7 14.7 20.3-2.26 2.26-42.6 2.66-35 0.347-36.2-1.02-1.02-1.19 2.48-28.5 3.04-23.8 6.55-26.2z" fill="#c78e87"/>
  <path d="m232 358c39.9 20 52.1 20.4 59.9 30.1 1.26 1.56-1.64 1.2-5.47 2.48-47.6 9.5-57.9 28-65.7 21.7-7.49-5.96 3.16-25.5 3.52-28.5 2.24-21.2 4.3-27.6 7.79-25.8z" fill="#71aa1f"/>
  <path d="m49.5 388c6.42-8.06 11.5-6.52 18.1-7.2 25.9-2.68 39.3-3.27 40.3-1.77 3.97 5.88 4.93 12.4 2.87 19.5-8.06 27.9 1.04 26.3-8.19 32.7-3.62 2.51-3.53 5.03-13.1-1.49-31.5-21.4-18.3-8.91-53.9-18.9 0.0603-6.11 0.241-11.7 0.514-12.7 1.08-3.91 10.2-6.06 13.4-10.1z" fill="#1cc73b"/>
 </g>
</svg>
