<?xml version="1.0" encoding="UTF-8"?>
<svg width="512px" height="512px" contentScriptType="text/ecmascript" contentStyleType="text/css" version="1.1" viewBox="0 0 512 512" xmlns="http://www.w3.org/2000/svg">
 <g class="voronoi" stroke-width=".5">
  <path d="m458-37.1 39.9 3.59 31.6 25.6 4.85 5.94-17.3 17.4-55.1-29.8z" fill="#e3e3c9"/>
  <path d="m-13.2 126 13.2 3.6s5.83 1.07 7.24 6.07c1.98 7.04-7.24 14-7.24 14l-10.9 11.6-25.6 20.8-12.6-8.24-3.62-33.7z" fill="#e3388e"/>
  <path d="m27.5 423c-8.58-2.42 2.3 26.6 2.3 26.6s10.8 9.9 15.9 15.1c12 12.1 22.1 26.1 34.7 37.6 3.87 3.52 12.5 9.53 12.5 9.53l20.3 15.5 12.6-24.7s0.753-25.9-5.01-36.9c-4.04-7.72-11.8-13.2-19.3-17.6-22.4-13.3-55.4-19.9-73.9-25.1z" fill="#1ce39d"/>
  <path d="m486 423c9.49 2.19 25.6-0.615 25.6-0.615l18.6-2.48 2.17 0.445 0.978 25.5-21.8 22.3s-4.7 5.31-7.75 4.97c-16.2-1.77-34.7-4.31-44.6-15.4-7.57-8.41-0.842-17.6 3.94-24.6 5.53-8.07 13.2-12.4 22.8-10.2z" fill="#e3c7ec"/>
  <path d="m357 445c-8.91-0.0763-26.2 24.3-42.1 37.2-7.24 5.89-6.72 29.5-6.72 29.5l-0.707 16.7 14.4-1.89 30.4-34.4c1.58-3.09 9.65-8.8 13.6-12.1 0 0 12.2-2.34 11.2-6.57-2.62-11.5-9.19-28.5-20-28.6z" fill="#8ee3e0"/>
  <path d="m22.2 10.3c-8.11 0.279-15.4 4.66-17.4 12.5-1.28 5.06 6.87 14.1 4.66 19.6-1.47 3.64-9.49 7.4-9.49 7.4l-18 9.57 18 18.9s15 17.5 23.7 24.9c3.43 2.88 11.2 7.47 11.2 7.47 10.5-0.977 5.9-21.3 9.24-31.1 4.36-12.5 19.6-23.3 16.4-36.1-4.24-17.2-21.5-33.7-38.3-33.1z" fill="#001c34"/>
  <path d="m445-14.3 30.2 14 0.43 0.334s30.6 12.9 34.6 26.9c3.69 12.9-10.5 27-13.8 37.7-1.76 5.75-12.3-2.15-17.1-5.84-9.26-7.2-14.1-18.9-19.3-29.5-4.56-9.27-10.2-29.3-10.2-29.3z" fill="#e3006f"/>
  <path d="m-32 187 32 13.5s20.8 8.12 22.7 13.1c3.7 9.57-21 21-21 21l-42.8-5.79-1.28-33.1z" fill="#e355c7"/>
  <path d="m507 315 11.3-12.7 25.7-8.73 24.8 23-13 25.3-42-12.8-1.68-3.53z" fill="#008ebf"/>
  <path d="m33.1 462c-10-1.64-23.2 6.14-26.8 14.5-6.49 15 23.5 36 23.5 36l40 36.8 27.5-2.23 6-9.46-22.1-25.3s-9.59-14.3-16.6-19c-1.58-1.06-7.38-10.5-9.21-11.3-1.82-0.803-9.67-17.9-22.4-20z" fill="#1c0024"/>
  <path d="m458 475c9.04-9.85 27.6-1.43 39.9 3.59 5.68 2.3 14.3 11.6 14.3 11.6l17.3 14 4.85 5.94-17.3 17.4-28.7-15.5s-19-8.64-24.9-16.8c-4.51-6.25-10.8-14.6-5.61-20.3z" fill="#e3e3c9"/>
  <path d="m318-32.9 34.7 13.3-17.3 19.5s-25.3 28.4-31.2 37.9c-3.8 6.07-7.06-10.5-2.05-15.7 3.53-3.61 6.52-22.2 6.52-22.2l1.18-28z" fill="#8ee3e0"/>
  <path d="m111 30s6.24-10.8 11.6-13.2c12.9-5.74 29.3-5.02 42.3 0.437 10.6 4.46 17 10.1 24.4 24.4 3.53 6.78 13.3 11.2 10.1 16.9-10.5 18.5-55 4.19-75.4 1.6-9.81-1.25-8.26-9.77-12.9-18.5-1.83-3.43-0.053-11.7-0.053-11.7z" fill="#3800b4"/>
  <path d="m-41.1 70.8 11-5.22 42.6 33.1s21.2 11.5 16.2 17.7c-4.09 5.03-28.7 3.49-28.7 3.49l-31.6-2.72-23.3-10.1 3-20.3z" fill="#e31caf"/>
  <path d="m533 148 16.4 59.2-1.36 0.59-14-1.31-22.2-14.1s-10.3-4.97-10.6-13.1c-0.326-8.58 10.6-15.4 10.6-15.4z" fill="#005528"/>
  <path d="m59.3 327c-9.47 0.143-25.9 12.3-45.2 11.4-4.13-0.185-14.1-3.23-14.1-3.23l-12.9-3.52 19.9 41.1s11.9 13.8 20.1 14.2c20.4 1.02 37.5-13.5 69.6-12.2 2.86-0.295 15.1-7.18 15.1-14.1-5.46-16.1-13.8-14.8-22.9-25.6-4.59-4.32-16.1-8.3-29.6-8.1z" fill="#00aa73"/>
  <path d="m479 343c2.72-2.92 7.82-8.04 9.39-4.37 3.92 9.17 23.3 33.1 23.3 33.1l14.3 22.1 5.66 18.3-20 3.06s-26.2 1.76-40.3 6.18c-0.688 0.216-1.45-0.43-2.22-0.714-4.48-1.65-9.68-4.79-9.15-8.62 2.41-17.4 6.73-34.8 12-51.7 1.86-5.95 2.66-12.8 6.91-17.4z" fill="#e3aac9"/>
  <path d="m152 474c14 5.01 39.6 19.9 29.8 27.2-7.04 5.16-14.3 11.3-14.3 11.3l-9.94 11.9-28.6-3.55 1.37-8.35s2.35-21.2 8.17-29.8c1.89-2.8 10.3-9.81 13.5-8.67z" fill="#38e3df"/>
  <path d="m393 543 7.56-20.8 16.7-10.6s4.98-3.93 9.26-3.99c3.22 0.278 5.61 1.3 6.48 3.99l27.3 41.5-0.753 28.4-48.8-24.7z" fill="#c700b4"/>
  <path d="m195-13 28 5.11-0.229 7.92-0.196 6.79s-0.613 33.9-13.3 39.9c-2.51 1.19-5.5-1.38-7.78-2.98-8.97-6.29-12.5-18.7-21.5-24.9-5.86-4.04-0.287-18.8-0.287-18.8z" fill="#550029"/>
  <path d="m471 70.8c3.07-2.65 6.75-2.53 10.8-2.09 12.7 1.38 30.4 20.3 30.4 20.3l12.5 9.69 6.92 22.9-51-4.39s-19.2-2.73-23.3-10.1c-3.32-5.98 0.53-13.9 3-20.3 2.32-5.99 5.89-11.8 10.8-16z" fill="#e31caf"/>
  <path d="m-51.9 233 28.5 6.35 24.1 34-4.08 27.9-25.6-18.4-20.7-34.8z" fill="#e37192"/>
  <path d="m496 334c-1.1-3.91 16.2 0.912 16.2 0.912l12 3.27 32.6 24.3-4.04 26.2-33.4-16.2-7.06-14.6s-13.5-14.5-16.2-23.9z" fill="#00aa73"/>
  <path d="m207 384c-3.71-0.0882-13.8 6.04-30.1 18.4-5.74 4.33-2.5 11-5.31 19.4 0 0-18.4 28.9-14.6 43.8 2.73 10.5 17.9 13.7 27.5 18.8 10.3 5.47 19.3 14.5 30.5 11.3 16.6-4.68 16.2-25 20.2-25.8 3.53-0.687 20.1-7.43 28.3-13.9 8.03-6.31 18.2-13.4 19.6-23.5 1.78-12.2-2.86-18.4-14.6-33.9-6.65-8.8-13-13.4-19.1-13.9-11.6 1.3-20.3-1.62-29.7 5.74-4.42 3.46-8.72-5.53-12.8-6.35z" fill="#5ed051"/>
  <path d="m449 497c4.29-6.79 26.8 14.9 26.8 14.9l0.43 0.334 34.6 26.9-11.8 16.3-19 15.6-19.3-29.5-10.2-29.3s-4.2-10.9-1.5-15.2z" fill="#e3006f"/>
  <path d="m86.9-50 14.6-13.7 19.3 17.6 5.01 36.9-12.6 24.7-32.7-25z" fill="#1ce39d"/>
  <path d="m361-16.4-35.5 34.2c-5.47 5.47-11.4 49.9 3.55 66.1 9.38 10.2 13.7 3.53 41.2 5.7 7.26 0.575 12.6-13.1 16-40.9 0.635-6.93-2.71-15.2-0.229-20.9l11.2-25.6-13.1-13.8z" fill="#aa0016"/>
  <path d="m42.1 115c-8.6 4.01-9.6 7.01-11.6 15.1-0.692 3.78 3.41 6.92 4.58 10.6 6.38 19.9 4.33 49.3 13.2 61.2 1.31 1.74 5.31-3.8 5.31-3.8l23.6-24.5c3-3.11 9.93-7.18 12.3-7.25 5.11-0.149 11.5-7.43 19.1-21.9 6.7-12.6 8.57-20.7 5.59-24-2.61-2.97-15.9-4.8-39.8-5.47-10.7 1.05-22-2.29-32.4 0.0605z" fill="#0e38a9"/>
  <path d="m499 126c4.55-0.174 13.2 3.6 13.2 3.6l15 4.11-15 16s-8.34 6.97-10.9 11.6c-4.2 7.48 0.892 21-6.77 24.8-10 5.04-24.5-3.35-31.3-12.3-6.86-8.98-2.87-22.4-3.62-33.7-2.21-33.1 25.5-13.6 39.5-14.1z" fill="#e3388e"/>
  <path d="m195 499 28 5.11-0.229 7.92-0.196 6.79-13.3 39.9-7.78-2.98-37.4-30.4 15.6-13.3z" fill="#550029"/>
  <path d="m144-36 38.5 18.1-15 17.9s-12.2 6.35-17 8.24c-8.93 3.52-13.6 4.95-18.3-0.506-1.83-2.15-1.84-7.74-1.84-7.74l5.04-30.8z" fill="#38e3df"/>
  <path d="m428-7.05-11.1 7.05s-11.7 7.92-15.4 13.4c-10.4 18.2-10.6 41.6-13 61.2-1.51 12.3-0.432 21.8 3.24 28.5 1.97 3.61 27.2 5.31 37.8 1.95s16.6-10.6 23-17.9c6.42-7.36 13.8-15.6 14.7-25.4 0.639-7.16-4.12-13.9-7.34-20.3-7.41-14.8-27.3-41.5-27.3-41.5z" fill="#c700b4"/>
  <path d="m-5.02 315c0.0834-0.593 0.345-1.1 0.71-1.55 1.18-1.47 3.44-2.41 4.32-4.13 4.59-9-1.42-24.9 6.61-29.6 3.03-1.77 24 17.9 38.6 19.9 6.76 0.909 11.5 16.9 11.5 16.9s-3.59 8.03-12.3 11.7c-13.5 5.69-42.7 0.804-42.7 0.804-5.07-1.55-7.04-9.98-6.71-14.1z" fill="#008ebf"/>
  <path d="m469 273c-10.7-2.66-30.6 12.6-30.6 12.6-5.64 2.32-20 12.7-25.8 25.7-6.83 15.2-8.75 24-5.76 26.5 3.44 2.89 14.1 4.25 31.9 4.07 18.4 0.72 35.3-6.74 51.5-11.5 5.9-1.72 4.98-3.93 6.77-6.49 2.35-3.37 5.52-7.22 4.94-11.3-2.4-17-16.3-35.5-33-39.7z" fill="#d58e4f"/>
  <path d="m-54.2 475 39.9 3.59 31.6 25.6s2.57 2.45 3.08 4.07c0.38 1.22-0.161 3.82-0.161 3.82l-15.4 15.5-55.1-29.8z" fill="#e3e3c9"/>
  <path d="m363 420c-0.51-0.0149-0.785 0.0541-0.799 0.219-0.843 9.94-0.452 16.4 1.17 19.3 7.17 13 16.8 24.5 18.6 29.9 0.0603 0.185 0.111 0.362 0.152 0.532 0 0 1.73 17.7 6.08 25.2 3.27 5.59 7.83 12.1 14.2 13.2 12.1 2.16 34-14.2 34-14.2 8.01-6.27 14.8-15.1 14.7-25 0 0 7.53-26.2-0.463-34.4-7.87-8.12-33.9-1.52-33.9-1.52-17.6-0.0575-38.4-12.3-53.7-13.2z" fill="#b9d52d"/>
  <path d="m238-35.6 35.3-15.2 27 15.5 0.782 35.2s-0.441 6.78-1.82 9.46c-2.94 5.72-7.53 9.81-13.9 10.5-16.1 1.65-44.8-18.6-44.8-18.6l-11.1-12z" fill="#71e3d0"/>
  <path d="m29.9 0.189 0.149-0.189 2.32-2.94 20.7-20 11.7 3.96 38.6 44.3-6 9.46-27.5 2.24z" fill="#1c0024"/>
  <path d="m19.8 133c2.5-15.9 18.5 45.9 22.7 68.2 0.704 3.75-20.8 2.78-20.8 2.78s-3.18 0.968-9.78-4.5c-3.18-2.64-11.9-7.13-11.9-7.13l-20.6-13.1 20.6-15.4s17.9-19 19.8-30.8z" fill="#005528"/>
  <path d="m476 191c11.5-1.77 35.8 9.8 35.8 9.8l14.7 6.21-13 27.9-1.76-0.238s-30.8-2.04-40.1-12.2c-7.43-8.18-5.55-18.2-2.18-26.4 1.71-4.14 2.09-4.34 6.52-5.02z" fill="#e355c7"/>
  <path d="m-32.7 343 10.8-5.21 21.9 33.9s11.5 16.5 19.9 22.7c5.14 3.78 11.5 6.1 8.96 11.1-4.15 8.12-28.9 9.72-28.9 9.72l-40.3 6.18-12.9 1.37 13.5-62.4z" fill="#e3aac9"/>
  <path d="m357 493c1.75-5.27 13.6-10.4 17.5-6.46 5.8 5.78 20 25.3 20 25.3l2.15 2.25-11.2 25.7-19.1 1.93-41.4-12 18.5-17.8s10.8-10.5 13.5-18.8z" fill="#aa0016"/>
  <path d="m-54.2-37.1 39.9 3.59 31.6 25.6 4.85 5.94-17.3 17.4-55.1-29.8z" fill="#e3e3c9"/>
  <path d="m269 20.4c9.4 1.49 24.7 0.0378 27 9.26 3.16 12.3-25.7 28.3-25.7 28.3s-29.6 9.17-39.7 0.677c-9.72-8.14-14.2-27.8-6.04-37.5 9.53-11.4 29.8-2.99 44.5-0.66z" fill="#710098"/>
  <path d="m501 59.4c1.09-6.72 10.8-9.57 10.8-9.57l10.4-5.52 33.8 35.2-7.42 29.5-1.82 1.62-11.2-7.47-23.7-24.9s-12.2-10.3-10.8-18.9z" fill="#001c34"/>
  <path d="m43.5 212c-14.3 5-22 13.5-29.9 20.3 0 0-12.2 27.2-7.62 39.9 2.96 8.26 20.3 16.8 20.3 16.8l24.1 9.74c1.93 3.4 4.59 7.4 8.01 12 5.52 7.45-1.69 9.08 9.62 13.2 1.56 0.563 18.6 4.39 19.7 3.21 9.63 8.92 22.9 28.9 28 28.5 3.65-0.328 10.6-6.02 31.1-18.9 0.404-0.255 0.822-3.74 1.26-10.5-0.738-19.3-29.5-74.4-30.3-84.7-0.266-3.68-16.3-11.2-54.1-23.8-6.73-1.14-13.4-5.68-20.3-5.76z" fill="#38710c"/>
  <path d="m460 233c7.13-6.62 17.8 2.67 25.9 8.05 11.2 7.46 26 31.3 26 31.3l0.733 1.03-0.733 5s-2.79 17.1-3.35 22.9c-1.11 11.4-13.8-18.2-21.3-26.8-7.95-9.15-19.7-15.5-25-26.4-2.21-4.55-5.89-11.6-2.19-15z" fill="#e37192"/>
  <path d="m-52.4 429 71-9.47 2.17 0.445 0.978 25.5-27.4 28-46.2-7.54-1.61-33.9z" fill="#e3c7ec"/>
  <path d="m238 476c8.73-9.39 22.5-15.9 35.3-15.2 10.4 0.607 15.8 6.46 21.1 15.4 5.99 10.1 6.66 35.4 6.66 35.4l0.202 9.07-3.41 10-57.4-17.8-1.23-1.32s-6.94-7.22-7.95-12c-1.82-8.61 0.668-17.2 6.66-23.6z" fill="#71e3d0"/>
  <path d="m63.9 60.2q12.4-12.4 25.1-16 12.9-3.63 18.1 4.78 5.29 8.59 4.37 34.3-0.945 26.2-34.3 25.3-34-0.963-29.8-18.4 4.34-17.8 16.5-30z" fill="#1c1c7e"/>
  <path d="m325 95.6q2.44-2.87 38.3-0.037 16.2 1.28 22.1 12 2.64 4.84-7.11 33.1-4.42 12.8-22.2 16.6-8.04 1.7-23.4-11-6.95-5.75-11.7-16.3-2.15-4.77-1.61-20.7 0.245-7.24 5.63-13.6z" fill="#aa38aa"/>
  <path d="m223 196q5.39 2.38 6.58 22.7 0.206 3.53-11.1 14.7-1.97 1.95-54.9-14.5-9.21-2.86 22.9-31.6 5.58-4.99 36.6 8.7z" fill="#5555d0"/>
  <path d="m320 227c-1.01 0.212-5.93 4.17-14.8 11.9-8.36 7.3-11.8 14.7-10.3 22.1 0.51 2.58 4.84 4.66 5.88 7.72 1.99 5.87-0.16 12.3 0.0605 18.6-2.45 2.51-3.81 6.23-4.09 11.2-0.844 14.9 0.0353 24 2.64 27.5 2.69 3.59 9.27 6.9 19.7 9.93 10.8 3.13 19 2.48 24.6-1.95 1.81-1.44 16.7-5.1 19.1-5.3 17.8-1.5 28.8 12.8 34.4 2.8 6.75-12.1 19.2-26.5 19.4-41.8-4.45-15.4-9.1-29.3-14.1-39.7-7.23-14.9-25.6-12.2-39.9-14.8-15.6-4.45-30.3-6.31-42.4-8.12 0 0-0.0831-0.022-0.15-8e-3z" fill="#9c8000"/>
  <path d="m116 368q2.58-6.78 15.7-15.1 18.2-11.5 31.6-6.98 18.6 6.26 25.5 17 9.65 15-6.39 27.1-22.3 16.8-39.5 10.7-24-8.51-26-16.6-2.8-11.2-0.945-16.1z" fill="#38aa6c"/>
  <path d="m366 333c-7.51-0.0634-14.2 2.21-20 6.82-4.21 3.33-5.09 22.6-5.29 34.2-0.129 7.4-0.927 19.3 2.63 22 12.2-0.332 11.5 7.1 17.1 17.7 0.181 0.327 19.9 5.22 51.7 12.8 1.43 0.343 15.9 2.94 37.6 1.6 5.61-0.345 9.08-34.4 11.1-40.8 8.04-20.5 16.2-48.6-17.2-41.4-14.5 3.2-28.3-2.72-40.6-1.81-0.812-1.63-1.59-3.57-3.27-4.19-13.2-4.84-21.4-6.87-33.7-7z" fill="#bdb4e3"/>
  <path d="m205 58.9c1.6-1.66-2.12-3.92 5.39-4.32s32.4 8.42 32.2 20.6c-0.186 13.2-1.36 31.3-2.51 40.6-0.576 4.56 2.36 5.29-2.34 10.6-1.02 1.15-16.3 1.38-45.9 0.688-6.42-0.149-10.8-1.26-13.3-3.32-0.525-0.447 2.14-13.7 8-39.8 1.27-5.65 11.3-17.5 18.4-25z" fill="#551cc9"/>
  <path d="m313 150q8.47-4.43 25.5 9.61 5.31 4.39-14.1 44.6-6.06 12.6-38.7-17-10.2-9.24-2.21-19.7 2.5-3.27 29.6-17.4z" fill="#8e55bb"/>
  <path d="m125 244c1.62-3.16 2.94-5.14 3.95-5.95 0.315-0.253 13.5 9.57 39.6 29.5 8.14 6.22 4.52 20.5-10.9 43-4.8 7-6.32-6.37-23.2-37.8-5.27-9.81-9.17-16.1-9.45-28.7z" fill="#3871bb"/>
  <path d="m248 317q41.4 7.19 42.6 8.85 6.7 8.94 0.862 15.8-31.5 36.9-33.8 36.8-12.1-0.937-12.9-10.6-4.42-52.1 3.23-50.8z" fill="#71aa30"/>
  <path d="m36.3 403q21.4-21.4 31.4-22.5 39-4.04 40-0.117 3.84 15.4 1.25 24.4-10.2 35.3-10.6 35.4-1.56 0.466-15.3-4.44-53.8-19.3-53.9-19.4-0.348-0.552 0.063-2.04 1.61-5.86 7.07-11.3z" fill="#1cc73b"/>
  <path d="m152 69.1q29.5 7.39 23.8 32.7-5 22.3-13.7 23.7-7.66 1.28-23.3-1.21-13.8-2.2-18.2-7.27-3.92-4.46-2.92-32.1 0.875-24.3 34.4-15.9z" fill="#381c86"/>
  <path d="m420 111q28.9-2.88 31.6 1.54 3.1 5.19 1.04 26.9-2.43 25.5-27.2 26.4-29.1 1.06-36.1-4.64-8.14-6.7-1.63-25.6 7.66-22.2 32.3-24.6z" fill="#c73876"/>
  <path d="m249 183q0.372-0.419 22.4-0.774 0.578-9e-3 42.4 37.8 1.1 0.994 1.1 2.66 0 0.044-26 22.7-0.682 0.596-4.02 0.325-0.087-7e-3 -47.4-22.4-1.24-0.588-2.6-23.8-0.036-0.608 14.1-16.6z" fill="#7155ec"/>
  <path d="m229 312q6.43 4.08 6.88 9.32 4.79 56.5 2.98 57.1-19.6 5.75-20.7 5.09-12.4-7.11-13.8-9.29-15.2-23.6-11.9-26.9 36-35.7 36.6-35.3z" fill="#55aa20"/>
  <path d="m253 126c-3.44-0.0141-5.81 0.195-6.25 0.691-3.96 4.45-5.17 11-3.65 19.7 3.42 19.5 7.45 29.1 12.1 29.1 10.4-0.168 16.7-1.67 18.9-4.49 8.07-10.5 16.7-13.6 25.9-18.3 13.9-7.25 19.8-13 17.9-17.2-2.68-5.96-9.77-8.54-21.3-7.75-4.23 0.29-7.78 0.84-10.7 1.64-8.63-1.85-24.2-3.32-32.9-3.36z" fill="#551c0e"/>
  <path d="m119 135c-11.8 22.2-16.8 36.7-12.2 40.9 7.47 6.79 14.6 36.3 31.1 40.1 5.71 1.33 12.8-5.05 15.8-7.72 22.1-19.8 35.9-20.4 32-34.9s0.792-30.8-9.82-39c-15-11.6-51.4-6.9-56.8 0.586z" fill="#3847cf"/>
  <path d="m507 239c5.09 4.61 2.8 14.6 3.27 19.1 1.14 10.8-20.7-16.8-23.4-23.6-1.23-3.15 15-0.0239 20.1 4.58z" fill="#c771ce"/>
  <path d="m287 253q1.03 0.083 3.94 14.8 1.25 6.34-0.493 37-0.749 13.2-35 7.24-14.7-2.56-19.7-5.68-2.11-1.34-4-7.57-0.809-2.68 36.7-33 16.1-13 18.5-12.8z" fill="#718ead"/>
  <path d="m91.4 173c5.5-0.16 13.3 6.78 23.3 20.8 7.03 12.1 16.1 26.6 13.9 31.6-1.92 3.98-3.21 6.24-3.86 6.76-0.667 0.533-13.5-3.35-38.4-11.7-25.2-8.4-32.1-18.4-20.6-29.9 11.6-11.6 20.2-17.5 25.6-17.7z" fill="#1c557e"/>
  <path d="m195 280q10.2-1.35 18.8 8.5 8.9 10.1 10.2 14.5 1.36 4.51-18.1 23.8-19.9 19.7-35.7 14.4-16.2-5.44-15.8-10.5 0.336-5.2 15.3-27 15.3-22.3 25.2-23.7z" fill="#558e7e"/>
  <path d="m331 405q11.9-5.88 18.4-0.936 2.06 1.59 6.84 10.2 1.53 2.76 0.407 16-0.362 4.26-28.7 32.6-9.08 9.08-15.6 10-2.08 0.295-20.9-15.2-6.03-4.97 0.279-27.2 2.02-7.14 39.2-25.5z" fill="#8ec7ba"/>
  <path d="m203 134q33.8 0.785 36.6 16.6 4.64 26.4-0.81 32.5-9.09 10.2-22.7 4.22-22.7-10.1-26.7-26.4-6.6-27.4 13.6-26.9z" fill="#553862"/>
  <path d="m311 100c1.27 0.426 1.65 8.12 1.14 23.1-0.018 0.519-0.355 0.913-27.1 2.75 0 0-25.8 3.83-32.9-5.6s-8.47-37.6 4.04-37.3c18.7 0.365 18.4 4.85 54.8 17.1z" fill="#711cea"/>
  <path d="m350 166q24.4-5.18 25.2-4.51 14.3 11.7 14.7 15.1 8.18 59.5 4.26 58.7-69.4-13.6-69.5-13.6-1.57-0.926-1.57-1.02-4e-3 -1.62 1.36-4.44 24.1-49.9 25.5-50.2z" fill="#aa5519"/>
  <path d="m136 228q2.19-4.54 10.1-7.14 4.91-1.61 43.3 10.3 23.8 7.39 18 27.9-3.58 12.7-16 14.4-7.68 1.02-39.3-23.2-19.6-15-16.1-22.3z" fill="#55719a"/>
  <path d="m307 339q25.9 7.5 27.3 16.4 6.05 38-3.26 42.6-39.8 19.6-45.1 12.7-22.4-29.6-15.3-37.9 30.3-35.5 36.3-33.7z" fill="#8eaa38"/>
  <path d="m144 408c10.7 3.81 11.2 6.48 16.3 17.6 3.3 7.12 2.46 16.8-9.16 28.4-7.44 7.44-8.74 16.1-12.2 16.9-2.24 0.53-9.36-4.98-21.4-16.5-7.68-7.39-8.92-20.1-3.72-38.1 3.33-11.5 13.4-14.3 30.1-8.34z" fill="#38c798"/>
  <path d="m304 45.3q18.2 31 18.2 33.6 0.084 9.12-1.62 11.1-6.12 7.2-18.5 3.04-44.2-14.9-44.3-15-0.119-0.274 8.88-9.27 32.2-32.2 37.3-23.5z" fill="#8e1c3e"/>
  <path d="m424 174c18.1-0.656 29.4 1.7 34.1 7.07 4.74 5.43 5.62 14.4 2.63 26.8-3.02 12.6-2.05 13.9-3.43 20.8-3.25 16.1 2.9 42.8-11.4 48-14 5.05-18.5 14.9-26.2 9.68-8.69-5.85-15.3-59-18.2-79.8-2.89-21.1 4.6-31.9 22.5-32.6z" fill="#c7557e"/>
  <path d="m227 232q5.07-5.01 35.1 9.22 18.5 8.77-14.7 35.6-20.5 16.5-31.3 4.2-6.71-7.6-0.917-28.2 3.57-12.7 11.8-20.8z" fill="#71719a"/>
 </g>
</svg>
