<?xml version="1.0" encoding="UTF-8"?>
<svg width="512px" height="512px" contentScriptType="text/ecmascript" contentStyleType="text/css" version="1.1" viewBox="0 0 512 512" xmlns="http://www.w3.org/2000/svg">
 <g class="voronoi" stroke-width=".5">
  <path d="m458-37.1 39.9 3.59 31.6 25.6 4.85 5.94-17.3 17.4-55.1-29.8z" fill="#e3e3c9"/>
  <path d="m361-16.4-17 16.4s-10.9 13.9-18.5 17.8c-5.93 3.07-14 0.219-19.7 3.72-5.53 4.08-3 11.2-0.969 16.9 0 0 7.2 27.6 19.8 28.4 16.6 1.11 28.7-25 44.2-32.3 5.78-2.74 12-2.85 17.1-6.61 7.55-5.5 11.2-25.7 11.2-25.7l-13.1-13.8z" fill="#aa0016"/>
  <path d="m-13.2 126 28.2 7.71-26 27.6-25.6 20.8-12.6-8.24-3.62-33.7z" fill="#e3388e"/>
  <path d="m491 237c2.98-5.33 13.2-1.31 18.3 0.596 3.72 1.38-0.185 23.5-3.06 22.5-2.26-0.857-19.7-15-15.2-23.1z" fill="#007170"/>
  <path d="m63.9 382c-4.31 0.447-13.6 7.81-27.9 22.1-1.81 2.76-8.82 5.92-10.1 13.3-1.23 7.37 2.63 22.7 5.81 30.5 3.48 8.49 9.62 14.8 16.7 19.6 5.73 3.87 11.7 4.59 17.1 3.72 12.8 0.607 27-18.9 32.5-29.9 6.57-13.2 6.43-10.9 6.28-20.5s-2.89-14.8-11.7-34.1c-8.45-7.66-18.9-5.74-28.8-4.73z" fill="#0ec78f"/>
  <path d="m486 425c8.44-1.54 25.6-3.07 25.6-3.07l18.6-2.48 2.17 0.445 0.978 25.5-21.8 22.3s-4.22 4.13-6.75 4.96c-14.8 4.88-22.1-14.9-45.1-6.78-10.7 3.74-0.768-25.6 5.99-34.6 5.71-7.67 10.8-4.48 20.2-6.2z" fill="#e3c7ec"/>
  <path d="m318 479c11.1-0.657 20.2 6.73 30.5 13.7 4.55 3.09-13.1 19.2-13.1 19.2l-13.1 14.8-14.4 1.9 0.707-16.7s0.486-17.5 0.82-28.1c0.1-3.16 5.35-4.58 8.51-4.77z" fill="#8ee3e0"/>
  <path d="m445-14.3 30.2 14 0.43 0.334s32.5 12.4 34.6 26.9c0.941 6.64-7.21 11.4-11.8 16.3-5.62 5.96-10.9 16.8-19 15.6-11.6-1.79-19.3-29.5-19.3-29.5l-10.2-29.3z" fill="#e3006f"/>
  <path d="m-32 187 46.8 19.7-13 27.9-42.8-5.79-1.28-33.1z" fill="#e355c7"/>
  <path d="m507 315 11.3-12.7 25.7-8.73 24.8 23-13 25.3-42-12.8-1.68-3.53z" fill="#008ebf"/>
  <path d="m458 475c11.6-6.56 31.8-7.05 39.9 3.59 3.14 4.12 14.3 11.6 14.3 11.6l17.3 14 4.85 5.94-17.3 17.4-28.7-15.5s-31-13-35.7-26.4c-1.99-5.67 1.77-8.74 5.23-10.7z" fill="#e3e3c9"/>
  <path d="m318-32.9 34.7 13.3-17.3 19.5s-7.28 11.7-13.1 14.8c-4.26 2.27-7.23 5.28-10.8 2.02-4.12-3.77-2.85-16.8-2.85-16.8l1.18-28z" fill="#8ee3e0"/>
  <path d="m122 16.8c-5.37 2.31-10.8-2.87-11.6 13.2-0.327 21.2 7.89 36.2 7.18 54.6-0.705 18.4 0.14 28.9 2.41 31.5 2.58 2.94 9.94 5.19 22.1 6.75 13.8 1.77 22.4 0.272 25.9-4.51 3.93-5.44 7.09-13.5 9.48-24.1 0.676-3.01 0.656-5.79-0.0547-8.36 0 0 17-20.8 11-34.8-6.3-14.8-25.1-27.1-41.8-33.3-7.71-2.87-17.1-4.18-24.7-0.928z" fill="#380e4b"/>
  <path d="m-41.1 70.8 11-5.22 42.6 33.1 6.92 22.9-51-4.39-23.3-10.1 3-20.3z" fill="#e31caf"/>
  <path d="m533 148 16.4 59.2-1.36 0.59-14-1.31-22.2-14.1s-9.26-4.83-16.9-7.55c-16-5.66 16.9-21 16.9-21z" fill="#005528"/>
  <path d="m-12.9 332 24.8 6.79s27.4 11.8 32.6 24.3c3.35 8.19 3.79 22.1-4.04 26.2-11 5.75-22.1-7.84-30.9-16.6-3.81-3.82-9.6-14.2-9.6-14.2z" fill="#00aa73"/>
  <path d="m479 343c2.72-2.92 3.37-4.83 7.21-3.75 13 3.63 25.5 32.5 25.5 32.5l14.3 22.1 5.66 18.3-20 3.06s-24.6 5.32-40.3 6.18c-2.43 0.133-3.86-0.992-5.25-5.09-5.96-17.5 1.41-37.7 5.9-55.9 1.49-6.05 2.66-12.8 6.91-17.4z" fill="#e3aac9"/>
  <path d="m144 476c11.2 0.0395 25.5 3.72 28.6 17.6 1.68 7.61-5.11 18.5-5.11 18.5l-9.94 11.9-28.6-3.55 1.37-8.35s-0.783-22.2 5.04-30.8c1.89-2.8 5.3-5.26 8.68-5.25z" fill="#38e3df"/>
  <path d="m393 543 7.56-20.8 16.7-10.6s7.15-5.81 11-3.74c2.72 1.45 4.72 3.74 4.72 3.74l27.3 41.5-0.753 28.4-48.8-24.7z" fill="#c700b4"/>
  <path d="m195-13 28 5.11-0.229 7.92-0.196 6.79s-6.24 17.1-11 24.8c-2.76 4.45-11.7 8.24-18.1 7.16-11.8-2-30.4-10.4-26-21.3 3.38-8.43 2.93-11.4 12.3-17.5z" fill="#550029"/>
  <path d="m-18 59.4 18-9.57s26.3-15.6 38.7-19.9c12.3-4.3 13.1 11 15.5 23.9 3.5 19-19.9 54.5-24.7 54.1-5.16-0.46-1.61-1.96-5.86-4.65l-23.7-24.9z" fill="#001c34"/>
  <path d="m478 67.4c12.7 1.38 33.6 21.6 33.6 21.6l12.5 9.69 6.92 22.9-19.4-1.67s-19.6-2.77-30.5 1.14c-6.27 2.26-13.3 5.61-20 0.616-10.5-7.88-1.46-34.9-1.46-34.9 4.78-6.1 10.2-19.9 18.3-19.3z" fill="#e31caf"/>
  <path d="m-51.9 233 28.5 6.35 24.1 34-4.08 27.9-25.6-18.4-20.7-34.8z" fill="#e37192"/>
  <path d="m502 338c2.84-3.42 10.2-2.95 10.2-2.95l12 3.27 32.6 24.3-4.04 26.2-33.4-16.2-7.06-14.6s-16.5-12.5-10.2-20.1z" fill="#00aa73"/>
  <path d="m187 445c10.6-2.08 23.3 0.345 31.7 7.13 7.03 5.64 12.6 15.5 11.5 24.5-0.969 8.31-7.71 16.9-15.6 19.6-11 3.8-23.7-2.68-34-8.15-9.58-5.09-24.7-11.2-24-22 0.825-12.3 18.3-18.8 30.4-21.1z" fill="#55e345"/>
  <path d="m451 502c8.23-7.46 24.1 9.81 24.1 9.81l0.43 0.334 34.6 26.9-11.8 16.3-19 15.6-19.3-29.5-10.2-29.3s-2.56-6.75 1.18-10.1z" fill="#e3006f"/>
  <path d="m86.9-50 14.6-13.7 19.3 17.6 5.01 36.9-4.68 9.17s-2.44 8.98-8.09 10.3c-8.29 1.88-20.1-10.3-20.1-10.3l-12.5-9.53z" fill="#1ce39d"/>
  <path d="m22 132 11.8-12.1 3-1.97 36 45.8-0.403 10c-0.612 15.2-49.5-26.5-50.4-41.7z" fill="#0038dc"/>
  <path d="m497 128c4.55-0.174 14.9 2.1 14.9 2.1l15 4.11-26 27.6s-14.6 20.2-25.6 20.8c-0.88 0.0454-1.76-0.048-2.62-0.256-4.05-0.974-7.79-4.46-9.94-7.98-5.9-9.64-9.63-24.1-3.62-33.7 7.43-11.8 23.8-12.1 37.8-12.6z" fill="#e3388e"/>
  <path d="m417 433c-12.5 4.82-28.4 28.2-28.4 28.2-12.5 12.4-48.5 4.14-63.9 11.4-9.19 4.31 26.5 14.9 26.5 14.9s13 7.44 26.8 8.21c14.7 0.816 20.6 11.6 24.6 12.4 12.1 2.16 26.4-8.24 34-14.2 8.01-6.27 10.6-16 14.7-25 0 0 7.25-25.2-0.0322-34-0.138-0.166-0.282-0.326-0.431-0.479-7.87-8.12-23.3-5.59-33.9-1.52z" fill="#b9e324"/>
  <path d="m195 502c9.16-2.47 16.8-5.67 22.8 1.7 1.66 2.05 4.78 7.92 4.78 7.92l-0.196 6.79-13.3 39.9-7.78-2.98-37.4-30.4 15.6-13.3s9-7.88 15.5-9.62z" fill="#550029"/>
  <path d="m144-36 38.5 18.1-15 17.9s-7.34 9.7-12.1 11.6c-8.93 3.52-17.2 5.3-22.5-1.79-1.69-2.26-2.49-9.8-2.49-9.8l5.04-30.8z" fill="#38e3df"/>
  <path d="m393 31.5c-2.05-7.1 7.56-20.8 7.56-20.8l27.8-17.7 4.63 7.05s22.7 25.6 27.3 41.5c2.59 9.11 7.38 23.6-0.753 28.4-15.6 9.33-33.4-14.9-48.8-24.7-6.34-4.01-15.7-6.59-17.8-13.8z" fill="#c700b4"/>
  <path d="m33.4 215c-8.49-1.95-15.7 9.35-19.8 17.1-10.9 20.9-7.56 70.2-7.56 70.2l-11.1 12.6 5.03 10.6 1.68 3.53s28.5 18.5 42 12.8c8.75-3.69 14.7-16 13-25.3-0.502-2.87-5.12-3.33-6.4-5.95-10.4-21.3-0.471-48-6.29-71-2.18-8.62-1.89-22.5-10.5-24.5z" fill="#007170"/>
  <path d="m469 273c0.0995 0.0135 0.219-0.0185 0.298 0.0439 13.3 10.5 32.7 39.6 32.7 39.6s5.84 13 3.48 16.3c-1.79 2.56-6.96 7.34-9.69 8.87-3.93 2.21-15.2-0.972-18.6-3.94-10.2-8.94-39.9-30.1-31.3-44.8 1.78-3.03 13.8-17.4 23.1-16.1z" fill="#e38e16"/>
  <path d="m-54.2 475 39.9 3.59 31.6 25.6 4.85 5.94-17.3 17.4-55.1-29.8z" fill="#e3e3c9"/>
  <path d="m238-35.6 35.3-15.2 27 15.5 0.782 35.2 0.202 9.07-3.41 10-57.4-17.8-11.1-12z" fill="#71e3d0"/>
  <path d="m29.9 0.189 0.149-0.189 2.32-2.94 20.7-20 11.7 3.96 16.6 19s17.9 16.5 18.7 27.7c0.284 3.72 0.552 5.16-2.64 7.09-7.88 4.76-23.3 11.4-30 5.05-11.4-10.8-37.6-39.6-37.6-39.6z" fill="#1c0024"/>
  <path d="m25.2 153c17.3 3.16 25.7 21.8 24.4 39.4-0.515 6.75-7.11 12.8-13.4 15.3-4.35 1.73-14-1.31-14-1.31l-42.8-27.2 20.6-15.4s16.5-12.3 25.2-10.7z" fill="#005528"/>
  <path d="m479 190c11.5-1.77 33.2 10.5 33.2 10.5l14.7 6.21-13 27.9-1.76-0.238s-32.8-2.06-42.1-12.3c-7.43-8.18-3.87-18.4-0.212-26.4 1.86-4.08 4.61-5.06 9.04-5.75z" fill="#e355c7"/>
  <path d="m-32.7 343 10.8-5.21 36.2 56 5.66 18.3-60.2 9.24-12.9 1.37 13.5-62.4z" fill="#e3aac9"/>
  <path d="m86.9 462s7.9-13.7 14.6-13.7c8.71-0.061 19.3 17.6 19.3 17.6s6.74 20.8 4.66 33c-0.576 3.38-4.33 13.1-4.33 13.1l-7.9 15.5-20.3-15.5s-25.3-16.9-23-27c2.44-10.5 17-23.1 17-23.1z" fill="#1ce39d"/>
  <path d="m361 499c7.24-1.92 14.9-1.6 21.8 2.23 4.63 2.58 12.3 10.9 12.3 10.9l2.15 2.25-11.2 25.7-19.1 1.93-41.4-12 18.5-17.8s9.38-11.1 17-13.1z" fill="#aa0016"/>
  <path d="m-54.2-37.1 39.9 3.59 31.6 25.6 4.85 5.94-1.93 1.95s9.27 16.1 11 25.8c1.1 6.27-31.2-12.9-31.2-12.9l-50.2-27.1z" fill="#e3e3c9"/>
  <path d="m227 11.8c-14.3 13.1-11.1 34.3-22.7 45.8-11 11-17 18.5-17.9 22.6-4.2 18.7-3.7 28.6 1.48 29.7 23.9 5.3 37.2 5.48 39.8 0.553 9.32-17.6 21.7-35.4 25.7-39.4 0 0 40.7-23.7 37.9-43.2-1.37-9.34-20.8-11.5-20.8-11.5s-31-12.1-43.5-4.59z" fill="#630eb1"/>
  <path d="m494 59.4c5.49-0.775 18-9.57 18-9.57l10.4-5.52 33.8 35.2-7.42 29.5-1.82 1.62-11.2-7.47-23.7-24.9s-26.7-17.7-18-18.9z" fill="#001c34"/>
  <path d="m460 233c7.13-6.62 19.5 0.993 25.2 8.9 7.26 10.1 26.7 30.4 26.7 30.4l0.733 1.03-0.733 5s-2.38 15.8-3.35 22.9c-1.43 10.4-18.5-10.6-25.6-18.4-9.13-9.95-16.2-22.1-20.7-34.8-1.69-4.77-5.89-11.6-2.19-15z" fill="#e37192"/>
  <path d="m-52.4 429 71-9.47 2.17 0.445 0.978 25.5-27.4 28-46.2-7.54-1.61-33.9z" fill="#e3c7ec"/>
  <path d="m238 476c8.73-9.39 22.6-16.9 35.3-15.2 8.24 1.1 15.1 8.49 19.5 15.5 6.45 10.2 8.23 35.2 8.23 35.2l0.202 9.07-3.41 10-57.4-17.8-11.1-12s2.63-18.5 8.62-24.9z" fill="#71e3d0"/>
  <path d="m29.9 512 0.149-0.189s-25.8-18.2-25-31.6c0.587-9.97 11.3-20.8 21.2-21.1 17-0.551 38.5 33.7 38.5 33.7l38.6 44.3-6 9.46-27.5 2.24z" fill="#1c0024"/>
  <path d="m248 158c-6.12-0.14-16.7 3.17-31.6 9.52-7.16 3.04-8.09 13.2-2.8 30.4 2.21 7.22 12.4 14.3 30.7 21.1 17.7 1.59 25.2-0.463 35.9 7.01 3.68 2.33 18.6 4.09 44.7 5.28 14.6 0.663 20.2-6.42 16.8-21.3-1.9-8.27-10.4-18.6-25.4-30.9-6.95-5.7-13.6-8.66-19.9-8.92-16.3-2.63-34.3-11.7-48.3-12.2z" fill="#805518"/>
  <path d="m117 234q7.9-5.72 12-4.95 19.8 3.73 22.8 5.85 14.4 10.3 15.9 14.5 7.1 20.4 3.87 25.4-15.6 23.9-21.7 24.6-29.3 3.47-32.7-2.12-16.5-27-13.9-33 12.1-29 13.8-30.2z" fill="#387134"/>
  <path d="m405 297q9.56-8.65 21.4-3.36 10.3 4.6 30.2 25 17.3 17.7 14.7 20.3-2.26 2.26-34.9 2.58-28.4 0.281-29.6-1.35-1.06-1.42-7.27-18.5-5.39-14.8 5.62-24.8z" fill="#c78e87"/>
  <path d="m249 351c18.7 10.3 27.7 17.6 27.1 21.9-3.14 20.6-6.46 25-11 23.6-21.7-6.43-34.2 0.138-32.9-4.98 6.17-24.5 12.9-42.7 16.8-40.6z" fill="#71aa34"/>
  <path d="m406 50.4c-9.46-0.308-15.6 11.3-18.5 34.8 1.72 18.2-4.68 39.9 0.463 56.2 4.47 12.8 8.08 20.4 10.8 22.6 2.34 1.92 12 2.57 29 1.95 14.4-0.524 22.5-9.29 24.1-26.3 2.95-16.2-2.57-31.2-3.43-46.3-0.844-14.9-32.8-42.6-42.4-43z" fill="#c72a69"/>
  <path d="m51.9 256c-0.778 7.86 0.0057 23.3 0.113 23.7-1.61 12.8-0.812 19.8 7.35 30.8 5.52 7.45 15.3 13.7 29.5 18.8 7.68 2.77 14.7-1.72 21-13.5 3.42-6.39 0.848-16.6-7.73-30.7-2.8-4.6-3.14-11.1-4.18-19.6-0.74-6.07 1.54-12.7 6.66-24.9 2.42-5.78-12.4-14-44.4-24.7-34.3-17.4-6.88 26.5-8.22 40.1z" fill="#1c8051"/>
  <path d="m356 306q4.65-4.91 27.5 0.558 3.94 0.942 13.8 28.1 1.7 4.68-57.8 17-10.3 2.12-10.5-14.3-0.039-2.84 26.9-31.3z" fill="#aa8ed0"/>
  <path d="m177 361q7.06-14.7 24.9-17.6 31.8-5.09 33.2-1.87 2.48 5.74-1.54 21.7-7.17 28.5-10.5 31.3-5.96 5.03-21.3-2.18-27.4-12.9-27.9-16.6-0.814-6.58 3.14-14.8z" fill="#55aa5f"/>
  <path d="m96.3 43.1c-12.6 0.61-25.1 9.91-32.4 17.1-8.12 8.12-13.6 18.1-16.5 30-2.24 19.5 5.74 40.2 15 52.3 12.3 15.8 21.7 23.6 28.3 23.4 5.72-0.167 11.9-7.67 18.4-22.5 4.38-19.6 1.57-41.4 2.35-60.1 0.617-17.1-0.839-28.5-4.37-34.3-2.37-3.86-5.97-5.81-10.8-5.87z" fill="#1c2a7b"/>
  <path d="m335 134q12.8-13.9 30.5-13.9 8.38 0.018 18.3 28.4 4.7 13.5-26 33.8-14.6 9.66-38.4-9.88-11.3-9.28 15.7-38.5z" fill="#aa38a8"/>
  <path d="m133 127c-6.7-0.206-14.4 9.62-23.2 29.5-1.2 17.3 11.6 35 14.2 50 1.72 9.68 8.48 12.5 14.5 16.8 6.78 4.77 14.9 8.39 23.2 8.97 9.25 0.657 15.4 2.42 27.1-6.27 14.1-10.5 19.5-21.2 16.1-32.3-4.1-13.3-7.02-16.8-13.4-23-13.9-8.64-21.1-18.4-27-33.9-1.45-4-11.7-7.23-30.8-9.68-0.214-0.0275-0.428-0.0442-0.645-0.0508z" fill="#475584"/>
  <path d="m307 289c1.39-22.6 37.7-18.2 39.2-14.8 6.86 15.9 8.44 25.9 4.74 29.8-17.4 18.4-24.6 33-32.3 22.4-6.23-8.57-13.1-13.4-11.6-37.4z" fill="#8e8e35"/>
  <g>
   <path d="m147 307c-24.2-0.0714-23.7-1.61-30.2 10.6-7.02 13.1-10.5 20.8-10.3 23 0.92 11.9-9.86 34.8-5.97 45.5 7.97 17.5 15.9 25.1 23.7 22.8 20.6-6.04 32.1-10.8 34.3-14.3 5.86-9.2 8.67-14.7 8.44-16.6 0.209-6.43-0.504-14.7 2.65-18.5 5.3-11 5.97-20 2.01-26.9-5.3-7.43-16.3-25.5-24.7-25.6z" fill="#389cb3"/>
   <path d="m442 346c-22.2 0.219-34.2 3.96-36.1 11.2-0.309 1.21-0.429 2.5-0.396 3.84-8.18 8.43-30.1 25.3-44.4 40.2-13.4 13.9 42.8 22.8 52.9 25.3 1.43 0.343 15.3 2.63 36.2-3.37 10.7-3.07 8.33-26.1 10.5-36.2 5.98-27.5-0.283-41.2-18.8-41z" fill="#c7b950"/>
   <path d="m253 80c-2.13-0.042-4.67 2.72-7.62 8.29-11.5 21.8-14.5 24.9-14.4 38.7 0.0464 5.6 1.79 10.5 6.12 15.6 4.33 5.18 17 12.3 20.2 12.4 8.66 0.215 23.2 9.54 30.1 8.74 10.7-1.49 17.2-3.51 19.5-6.05 24.2-26.2 35.1-27.5 34.6-41.4s-11.4-17.8-20.6-21.2c-4.69-1.71-3.94 2.39-14.9 1.49-19-4.97-39.7-13.9-53-16.6s0-1e-6 0-1e-6z" fill="#7b2f28"/>
  </g>
  <path d="m365 184c16.8-11.1 26.4-15.8 28.6-13.9 2.83 2.32 4.29 11.4 4.37 27.3 0.101 19.9-6.44 30.7-19.6 32.4-16.5 2.12-19.4 6.75-25.1 2.78s-1.59-5.62-3.94-15.9c-2.95-12.9 2.28-23.7 15.7-32.6z" fill="#aa5572"/>
  <path d="m218 217q33.2 12.5 30.6 19.6-15.6 42.2-22.9 40.7-43.4-9.02-44.6-12.6-7.34-21.1-1.76-25.2 33.2-24.6 38.8-22.5z" fill="#55712d"/>
  <path d="m396 344c-8.52 1.13-63.8 12.6-67.3 13.9-22.2 8.17-37.2 2.02-47.6 15-7.27 9.12-4.17 32.8-2.82 34.9 7.67 11.7 13.9 16 18.7 12.9 21.3-14 44.9-21.4 53.6-25.7 3.85 1.05 7.15 0.649 9.89-1.2 23.6-15.9 35.7-25 36.2-27.3 0.752-8.61 11-22.8-0.652-22.4z" fill="#9caad0"/>
  <path d="m139 411q16.7-4.88 26.8 16.9 6.48 14-11 31.4-11.2 11.2-16.4 12.4-3.36 0.795-21.4-16.5-11.5-11.1-7.02-26.6 2.88-9.96 28.9-17.6z" fill="#38c798"/>
  <path d="m448 237q4.85-1.25 14 24.5 1.67 4.72-20.3 26.7-4.04 4.04-22.7-4.33-3.42-1.54 1.66-34.1 0.93-5.97 27.4-12.8z" fill="#c771ce"/>
  <path d="m266 226c-3.57-0.0771-3.12 1.77-9.27 5.37-0.0167 0.01-19.3 31.7-18.2 49.2 0.19 3.23 4.49 2.88 4.42 8.65-0.188 16.6-0.543 47.3-8e-3 48.6 1.99 4.59 5.59 8.33 10.8 11.2 17.4 9.6 29.6 14.8 35.8 12.5 14.2-5.25 32.4 2.36 32.2-10.8-0.134-9.89-2.92-17.1-8.37-21.6-13.1-10.9-10-14.9-12.5-27.4 2.78-22.1-13.8-52.9-19.4-65.9-0.0313-0.0733-9.33-9.71-15.4-9.84z" fill="#71803a"/>
  <path d="m70.2 328q29.8 10.7 29.9 11.8 0.762 10.9-0.167 12.8-9.68 20.3-12.5 20.5-29.1 3.01-30.4 0.758-13.3-23.5-11.2-25.5 21.4-21.4 24.3-20.4z" fill="#1caa20"/>
  <path d="m332 406c-7.24 0.682-39.7 25.3-41.6 30.3-3.22 11.4-2.83 18.7 1.19 22 12.5 10.3 19.5 15.4 20.9 15.2 4.33-0.613 10.5-4.05 17.1-5.84 6.57-1.79 13.9-2.22 20.8-3.29 10.9-1.67 31.4-3.52 32.7-4.88 19.9-19.9 27.3-30.4 22.3-31.6-23.6-5.64-37.5-6.77-41.3-8.02-7.03-2.3-23.1-14.7-32.1-13.9z" fill="#9cc7c5"/>
  <path d="m91.4 172q9.24-0.269 16.8 9.95 7.6 10.3 10.2 24.8 2.59 14.6-2.15 18-4.8 3.47-36.5-7.09-32.1-10.7-14.8-27.9 17.5-17.5 26.6-17.7z" fill="#1c557e"/>
  <path d="m351 260q3.65-21.1 12.9-22.2 35.3-4.53 38.8-2.36 13.3 8.33 12 16.3-4.76 30.6-9.02 34.4-16.3 14.8-21.9 13.4-21.3-5.08-23.9-11.1-9.89-23-8.94-28.5z" fill="#aa713c"/>
  <path d="m175 284q6.32-9.67 40-2.66 17 3.53 24.1 17.1 3.58 6.84-2.49 24.8-3.06 9.05-36.1 14.3-16.6 2.66-30.9-22-7.18-12.4 5.38-31.6z" fill="#558ea5"/>
  <path d="m304 45.2c12.1 20.7 18.2 32 18.2 33.9 0.0627 6.73-1.91 10.2-5.9 10.4-14.3 0.708-23.9 0.245-28.8-1.39-17.4-5.85-26.2-8.97-26.6-9.37-1.36-1.42 4.66-7.11 10.5-12.9 20.9-20.9 29.2-26.3 32.6-20.6z" fill="#8e1c3e"/>
  <path d="m428 173q23.7-0.86 30.7 7.19 7.11 8.14 2.63 26.8-4.53 18.9-6.51 20.9-2 2-17.6 6.01-15.7 4.06-24-1.17-8.4-5.28-8.54-31.9-0.136-26.9 23.3-27.8z" fill="#c7557e"/>
  <path d="m178 388c-5.18 0.0762-9.73 3.2-13.7 9.37-2.37 3.72 0.363 14 8.19 30.9 17.8 15.7 46.1 12.6 58.8 28.8 4.49 5.67 15.2 5.72 32 0.164 9.55-3.15 15.7-9.52 18.4-19.1 1.54-5.43-0.568-12.5-6.32-21.3-3.26-4.98-13.3-19.8-30.1-14.9-22.5 6.51-46.2-13-67.4-13.8z" fill="#63c757"/>
  <path d="m372 36.6q14.1-2 14.5-1 1.18 3.77-0.599 18.3-6.74 54.9-7.58 55.7-3.18 3.18-8.62 3.16-20.6-0.045-24.8-4.94-15.8-18.5-15.8-21.2-0.095-10.2 8.12-18.4 31-31 34.8-31.6z" fill="#aa1c3c"/>
  <path d="m170 127c5.89-8.14 11.8-11.6 17.7-10.3 23.2 5.14 35.7 9.61 37.5 13.4 7.1 14.9 8.19 23.4 3.27 25.5-19.3 8.21-30.1 11.9-32.2 11-8.47-3.48-9.83-9.11-10.8-10.3-4-4.57-9.02-11.2-10.1-14.3-4.39-12.1-6.76-13-5.26-15.1z" fill="#55383b"/>
  <path d="m321 235c18.3 0.831 22-5.48 27.8 1.74 3.19 3.93-0.51 5.28-2.2 15-1.38 7.95-9.42 13.7-24.1 17.4-12 2.95-21.1-2.94-27.5-17.7-5.16-12 3.49-17.5 25.9-16.5z" fill="#8e718b"/>
 </g>
</svg>
