<?xml version="1.0" encoding="UTF-8"?>
<svg width="512px" height="512px" contentScriptType="text/ecmascript" contentStyleType="text/css" version="1.1" viewBox="0 0 512 512" xmlns="http://www.w3.org/2000/svg">
 <g class="voronoi" stroke-width=".5">
  <path d="m458-37.1 39.9 3.59 31.6 25.6 4.85 5.94-17.3 17.4-55.1-29.8z" fill="#e3e3c9"/>
  <path d="m361-16.4-17 16.4s-10.9 13.9-18.5 17.8c-5.93 3.07-14 0.219-19.7 3.72-1.48 0.911-2.75 2.45-3.17 4.14-1.03 4.19 2.2 12.8 2.2 12.8s13 27.6 25.7 27.8c17.2 0.342 20.9-29.1 36.4-36.4 5.78-2.74 13.9 1.84 19.1-1.93 7.55-5.5 11.2-25.7 11.2-25.7l-13.1-13.8z" fill="#aa0016"/>
  <path d="m-13.2 126 28.2 7.71-26 27.6-25.6 20.8-12.6-8.24-3.62-33.7z" fill="#e3388e"/>
  <path d="m526 232 19.8-17.1 10.5 24.5 2.16 38.9-19.9 10.4-20.3-16.8z" fill="#007170"/>
  <path d="m78.8 381c-4.17-0.0146-9.25 0.287-15.2 0.906-4.06 0.421-13.2 7.77-27.5 22.1-3.64 3.64-5.99 7.41-7.07 11.3-1.02 10.2 1.57 25.2 5.54 34.8 4.3 9.08 7.48 17.7 16.9 21.2 6.48 2.38 14.6 1.86 20.7-1.44 9.33-8.25 21.3-17.2 26-28.7 0.265-0.0787 3.51-10.9 9.73-32.4 1.58-5.48-3.66-13.8-15.7-25-1.92-1.78-6.35-2.69-13.3-2.71z" fill="#0ec73e"/>
  <path d="m460 429c15-3.24 52.4-6.99 52.4-6.99l18.6-2.48 2.17 0.445 0.978 25.5-21.8 22.3s-3.52 4.06-5.6 5.73c-10.5 8.44-35.3 3.6-46.2-7.54-4.63-4.71-2.79-13-2.83-19.6-0.0392-5.82-3.43-16.1 2.27-17.3z" fill="#e3c7ec"/>
  <path d="m318 479s-2.59 1.51-4.21 4.23c-4.77 8.02-5.12 28.6-5.12 28.6l-0.707 16.7 14.4-1.89 30.4-34.4c7.44-8.42 26.7-14.7 24.8-18.6 0 0-6-26.2-16.5-28.4-16-0.02-33.4 22.1-42.9 33.7z" fill="#8ee3e0"/>
  <path d="m18.6 10.9c-7.01 1.5-14.8 9.52-13.7 16.6 1.48 9.47-4.93 22.4-4.93 22.4l-18 9.57 41.8 43.7 11.2 7.47 1.82-1.62s16.2-32.2 19-49.7c1.64-10.1 4.22-22.1-1.38-30.7-7.27-11.1-22.8-20.5-35.8-17.7z" fill="#001c34"/>
  <path d="m445-14.3 30.2 14 0.43 0.334 34.6 26.9s-7.21 11.4-11.8 16.3c-5.62 5.96-10.9 16.8-19 15.6-11.6-1.79-14.1-18.9-19.3-29.5-4.56-9.27-10.2-29.3-10.2-29.3z" fill="#e3006f"/>
  <path d="m-32 187 46.8 19.7-13 27.9-42.8-5.79-1.28-33.1z" fill="#e355c7"/>
  <path d="m509 315c0.353-2.5 2.92-5.68 2.92-5.68l6.24-7.05 25.7-8.73 24.8 23-13 25.3-42-12.8-1.68-3.53s-3.47-6.7-2.92-10.6z" fill="#008ebf"/>
  <path d="m451 484c12.3-2.45 34.2-5 47.4-2.67 5.78 1.02 13.7 8.26 13.7 8.26l17.3 14 4.85 5.94-17.3 17.4-55.1-29.8s-16.4-12.1-10.8-13.2z" fill="#e3e3c9"/>
  <path d="m318-32.9 34.7 13.3-30.4 34.4-14.4 1.9 0.707-16.7 1.18-28z" fill="#8ee3e0"/>
  <path d="m53.1-23-20.7 20-2.32 2.94-0.15 0.189s24.4 27.6 40 36.8c19.8 11.6 65.4 21.4 65.4 21.4s40.5 19.5 51.6 6.19c4.96-5.98-2.13-16.2-6.99-22.2-8.26-10.3-22-15.1-34.3-19.9-13.9-5.37-30-3.77-44-8.7-1.21-0.425-2.4-0.899-3.57-1.43-6.26-2.83-16.5-12.3-16.5-12.3l-16.6-19z" fill="#1c0024"/>
  <path d="m-41.1 70.8 11-5.22 42.6 33.1 6.92 22.9-51-4.39-23.3-10.1 3-20.3z" fill="#e31caf"/>
  <path d="m533 148 16.4 59.2-1.36 0.59-14-1.31-22.2-14.1s-20.1-8.46-32.9-11.4c-2.26-0.525-5.75-3.6-1.45-6.82s30.9-7.72 34.4-10.3c7.06-5.28 21.2-15.8 21.2-15.8z" fill="#005528"/>
  <path d="m-12.9 332 24.8 6.79s27.4 11.8 32.6 24.3c3.35 8.19 3.79 22.1-4.04 26.2-11 5.75-23-7.48-31.8-16.2-3.81-3.82-8.72-14.6-8.72-14.6z" fill="#00aa73"/>
  <path d="m479 343c2.72-2.92 10.8-5.21 10.8-5.21l36.2 56 5.66 18.3-20 3.06s-26.8 4.43-40.3 6.18c-4.29 0.556-11.5 5.47-12.9 1.37-5.92-17.7 7.33-42 13.5-62.4 1.82-5.96 2.66-12.8 6.91-17.4z" fill="#e3aac9"/>
  <path d="m144 476c11.1 0.168 23.8 7.75 27.9 18.1 2.27 5.73-4.47 17.9-4.47 17.9l-9.94 11.9-28.6-3.55 1.37-8.35s1.28-22.4 7.1-31c1.89-2.8 3.24-5.09 6.62-5.04z" fill="#38e3df"/>
  <path d="m393 543 7.56-20.8 16.7-10.6s6.08-4.6 10.4-3.67c2.75 0.592 5.37 3.67 5.37 3.67l27.3 41.5-0.753 28.4-48.8-24.7z" fill="#c700b4"/>
  <path d="m195-13 28 5.11-0.229 7.92-0.196 6.79s-0.613 33.9-13.3 39.9c-2.51 1.19-5.37-1.59-7.78-2.98-13.9-8.03-32.8-9.3-33-25.3-0.0844-6.84 11.2-18.3 11.2-18.3z" fill="#550029"/>
  <path d="m466 74.2c3.07-2.65 9-7.41 13-6.97 12.7 1.38 32.9 21.7 32.9 21.7l12.5 9.69 6.92 22.9-19.4-1.67s-21.4-0.126-31.6-2.72c-8.2-2.08-18.3-3.3-23.3-10.1-3.34-4.56-1.76-16.9-1.76-16.9s5.89-11.8 10.8-16z" fill="#e31caf"/>
  <path d="m-51.9 233 28.5 6.35 24.1 34-4.08 27.9-25.6-18.4-20.7-34.8z" fill="#e37192"/>
  <path d="m500 336c4.11-1.96 12.4-0.533 12.4-0.533l12 3.27 32.6 24.3-4.04 26.2-33.4-16.2-7.06-14.6s-21.3-18.2-12.4-22.5z" fill="#00aa73"/>
  <path d="m177 441c-9.89 5.63-15.9 14.9-15.4 26.2 0.621 14 18 18.4 21.1 32 1 4.33-2.83 13-2.83 13l-15.6 13.3 37.4 30.4 7.78 2.98 13.3-39.9 0.197-6.79 0.229-7.92 1.3-30.8s-3.64-30.1-14.9-37.4c-9.57-6.18-22.6-0.782-32.5 4.86z" fill="#550029"/>
  <path d="m449 500c8.23-7.46 26.3 11.8 26.3 11.8l0.43 0.334 34.6 26.9-11.8 16.3-19 15.6-19.3-29.5-10.2-29.3s-4.8-8.78-1.05-12.2z" fill="#e3006f"/>
  <path d="m86.9-50 14.6-13.7 19.3 17.6 5.01 36.9-4.68 9.17s-4.91 8.22-8.97 9.13c-7.3 1.63-19.2-9.13-19.2-9.13l-12.5-9.53z" fill="#1ce39d"/>
  <path d="m43 115c-7.54 3.64-18 9.57-21 16.8-0.0729 0.197-0.135 0.407-0.188 0.628-0.849 3.58 0.844 10.2 0.844 10.2s5.72 25.2 11.2 36.7c2.43 5.07 5.99 13.5 9.45 14 19.1 2.76 48.7-27.4 48.7-27.4 1.18-0.854 2.83 0.423 4.21 0.383 8.5-0.247 15.2-3.97 20.2-11.2 4.37-6.31 7.02-11.8 7.94-16.5 0.806-4.11-1.34-9.07-6.44-14.9-4.47-5.09-18.7-7.97-42.6-8.65-10.7 1.05-22-2.29-32.4 0.0625z" fill="#0e38a9"/>
  <path d="m439 110c-3.35 0.0286-7.34 0.273-12 0.732-12.6 1.25-21.8 10.1-27.7 26.5-5.02 13.9-5.28 22.5-0.76 25.7 3.84 2.73 14.1 3.79 30.7 3.19 23.5-9.27 53.2 14.7 71.6-4.83l26-27.6-28.2-7.71c-22.4-0.385-42.3-16.1-59.6-16z" fill="#e3388e"/>
  <path d="m144-36 38.5 18.1-15 17.9s-7.28 9.24-12 11.3c-7.69 3.29-17.2 6.62-23-1.07-1.69-2.26-2.18-10.2-2.18-10.2l5.04-30.8z" fill="#38e3df"/>
  <path d="m393 31.5c-1.01-7.32 7.56-20.8 7.56-20.8l27.8-17.7 31.9 48.6s7.38 23.6-0.753 28.4c-15.6 9.33-38.2-10.6-53.6-20.4-6.34-4.01-12-10.8-13-18.1z" fill="#c700b4"/>
  <path d="m74.1 276c-8.49-0.17-22.1 5.13-27.8 7.71l-40 18-11.3 12.7 5.03 10.6 1.68 3.53c40.8 11.3 40.4 19.8 54.7 45.1 0.849 1.5 14.1 7.96 24.5-7.16 25.1-36.4 14.6-34.6 20.7-45.1 3.43-3.29 5.58-8.09 6.43-14.4 0.464-3.43-4.13-11.1-13.8-22.9-4.26-5.23-11-7.93-20.2-8.11z" fill="#008ebf"/>
  <path d="m447 237c-20.6 5.13-31.1 9.72-31.8 13.3-1.33 23.5-2.61 31.4-9.39 38.1-2.74 2.87-1.23 11.7 4.51 26.6 6.61 17.1 17.6 25.6 32.9 25.5 17.7-0.174 19.4-0.156 28.7-2.52 6.55-1.66 8.65-3.32 18.6-8.06 2.78-1.43 4.91-3.98 6.77-6.49 4.9-6.61 11.2-22 11.2-22l4.08-27.9-24.1-34c-9.94-14-32.7-5.11-41.4-2.53z" fill="#e37192"/>
  <path d="m-54.2 475 39.9 3.59 14.3 11.6s16.4-7.5 25.1-9.64c9.64-2.35-2.93 29.6-2.93 29.6l-17.3 17.4-55.1-29.8z" fill="#e3e3c9"/>
  <path d="m417 433s24.8-5.62 32.6 2.5c7.99 8.25 1.72 33.5 1.72 33.5s-1.51 11.2-5.46 16.8c-1.75 2.47-6.83 6.56-9.25 8.16-10.2 6.79-21.9 16.4-34 14.2-6.37-1.14-10.9-7.65-14.2-13.2-4.67-7.99-9.04-18.1-6.53-27 4.48-15.9 35.1-34.9 35.1-34.9z" fill="#c7e30d"/>
  <path d="m238-35.6 35.3-15.2 27 15.5 0.782 35.2 0.202 9.07-3.41 10-57.4-17.8-11.1-12z" fill="#71e3d0"/>
  <path d="m18.8 166c19.4 6.63 17.5 35.4 12.5 36.8-4.73 1.35-4.92 6.58-9.09 3.93l-42.8-27.2 20.6-15.4s10.4-0.98 18.8 1.87z" fill="#005528"/>
  <path d="m431 173c-19.1 0.958-24.7 19.7-24.3 30.3 1.01 19.4 2.84 30.3 5.49 32.6 2.62 2.3 10 1.87 22.2-1.27 29.2-12.2 42.8-4.52 77.2-0.367l1.76 0.236 13-27.9-14.7-6.21-54.2-21.1c-5.97-2.32-13.5-6.45-26.4-6.28z" fill="#e355c7"/>
  <path d="m-32.7 343 10.8-5.21 36.2 56 5.66 18.3-60.2 9.24-12.9 1.37 13.5-62.4z" fill="#e3aac9"/>
  <path d="m86.9 462c3.12-5.89 7.9-13.7 14.6-13.7 8.71-0.061 15.2 9.92 19.3 17.6 5.76 11 6.22 23.5 4.14 35.8-0.576 3.38-3.81 10.3-3.81 10.3l-7.9 15.5-20.3-15.5s-8.19-7.55-10.1-12.4c-5.07-12.7-2.28-25.5 4.11-37.6z" fill="#1ce39d"/>
  <path d="m380 485c6.25 0.827 1.79 11.1 4.52 15.8 2.63 4.6 11 11.5 11 11.5l2.15 2.25-11.2 25.7-19.1 1.93-41.4-12 18.5-17.8s22.1-29.1 35.5-27.4z" fill="#aa0016"/>
  <path d="m-54.2-37.1 39.9 3.59 31.6 25.6 4.85 5.94-17.3 17.4-55.1-29.8z" fill="#e3e3c9"/>
  <path d="m271 16.4c-14.8-4.73-37-7.71-46.4 4.62-7.73 10-0.636 26.8 6.04 37.5 6.1 9.85 15.3 16.5 28.3 20.2 16.8 4.86 25.1 8.09 38.4 12.6 7.31 2.46 14.7 1.82 22-1.93 2.06-1.05 3.06-4.58 3-10.6-0.0153-1.68-6.08-12.9-18.2-33.6-11.6-6.49-19.2-24.4-33.1-28.9z" fill="#800e6b"/>
  <path d="m494 59.4 28.4-15.1 33.8 35.2-7.42 29.5-1.82 1.62-11.2-7.47-23.7-24.9z" fill="#001c34"/>
  <path d="m13.6 232c-7.25 11.4-12.8 27.4-7.62 39.9 2.2 5.35 14.3 9.82 14.3 9.82 17.8 12.2 37.4-11.3 56.9-13.1 4.87-0.463 12.3-10 22.2-28.6 3.27-6.11-10.2-14.2-40.5-24.3-18.7-8.3-33.6-0.809-45.4 16.2z" fill="#0e715b"/>
  <path d="m-52.4 429 52.4-6.99 7.61-0.858s12.2-0.575 15.1 3.74c6.04 9.07 13.1 17.9-4.98 32.3-11.1 8.83-17.7 10.5-17.7 10.5l-5.6 5.73-46.2-7.54-1.61-33.9z" fill="#e3c7ec"/>
  <path d="m229 468c9.65-11.4 29.6-9.75 44.3-7.04 10.2 1.88 17.4 3.83 22.7 12.8 5.99 10.1 5.07 38 5.07 38l0.202 9.07-3.41 10-57.4-17.8-1.23-1.32s-8.11-6.15-9.91-10.7c-4.09-10.2-7.46-24.7-0.35-33.1z" fill="#71e3d0"/>
  <path d="m29.9 512 0.149-0.189 2.32-2.94s-5.37-31.7 6.01-36.2c10.3-4.08 26.4 20.1 26.4 20.1l38.6 44.3-6 9.46-27.5 2.24z" fill="#1c0024"/>
  <path d="m63.9 60.2c8.29-8.29 11.5-7.15 19.9-9.52 8.61-2.42 21.9 5.3 25.3 10.9 3.53 5.73 2.95 4.54 2.34 21.7-0.63 17.5-12.1 25.9-34.3 25.3-22.7-0.642-29.4-5.08-26.5-16.7 2.89-11.9 5.15-23.5 13.3-31.6z" fill="#1c1c7e"/>
  <path d="m376 93.7q7.07-2.68 22.9 13.2 4.41 4.42-8.41 40-3.58 9.92-29.7 12.4-7.28 0.679-9.51-43.6-0.621-12.3 24.7-22z" fill="#aa38c0"/>
  <path d="m185 186q2.21-1.93 14.5-3.18 8.67-0.876 21.2 5.47 8.81 4.46 0.039 26.1-6.16 15.2-30.8 9.03-17.3-4.32-11.9-22.1 3.8-12.5 6.94-15.3z" fill="#555593"/>
  <path d="m280 326q8.36-32.6 10.9-33.8 9.19-4.31 13.2-4.02 14.7 1.07 19.3 5.13 16.8 14.8 17.9 23.2 4.08 30.8 2.51 33-5.72 8.1-13.4 7.87-27.9-0.825-33.3-5.48-19.5-17-17.2-25.9z" fill="#8e8e3e"/>
  <path d="m103 331q8.3-7.96 31.3 5.74 30.2 18 29.9 24.2-0.365 8.17-7.04 15-8.76 9.03-22.8 13.5-18.4 5.93-28.2-3.2-12.9-12-11.4-28.1 1.92-21.2 8.24-27.2z" fill="#38aa70"/>
  <g>
   <path d="m344 362c-0.923 1.31-3 11.7-6.24 31.2-0.76 4.58 9 19.8 18 24.3 5.42 2.71 9.4 3.65 18.2-0.0918 3.6-1.54 38 9.13 41.6 10 0.969 0.232 12.3 0.777 34 1.64 0.979 0.0387 3.65-0.982 2.51-2.09-19.7-19.2-37.8-45.6-60.3-60-17.2-10.4-11.5-4.04-34-10.9-5.61-1.83-11.2 2.33-13.8 5.93z" fill="#b9b927"/>
   <path d="m205 58.8c-11 11-17 18.8-18 23.2-4.62 20.5-6.32 31.4-5.12 32.5 5.57 5.06 10.4 8.08 14.6 9.06 19.3 4.52 30.1 6.61 32.3 6.25 30.2 2.8 20.2 6.88 43.4 22.1 13.5-3.6 20.3-5.93 20.6-6.97 8.65-30.1 15.5-28 6.87-44.7-8.67-16.8-37.2-12.3-57.1-25.2-13.6-5.79-27-26.8-37.6-16.2z" fill="#631cd9"/>
   <path d="m296 154c-4.95-0.0816-11 0.823-18 2.71-2.63 0.705-5.85 7.89-9.65 21.5 9.47 30.1 18.2 61.3 25.9 85.3 3.38 10.5 9.68 16.1 18.9 16.8 3.31 0.24 11.8-12.5 25.4-38.1 4.11-24.6-2.1-42.5 2.16-68.1 0.698-3.95-11.6-10.3-36.9-18.9-2.21-0.759-4.8-1.16-7.78-1.21z" fill="#8e6341"/>
  </g>
  <path d="m122 228q2.04-1.06 25 6.14 4.3 1.35 7.4 20.6 0.58 3.6-7.2 22.8-1.46 3.6-28.6 17.9-5.07 2.68-23.9-20.4-3.52-4.32 13.2-35.5 3.12-5.84 14-11.5z" fill="#3871ce"/>
  <path d="m273 345c-9.22 0.252-21.9 16.3-23 23.8-0.734 6.69 1.94 11.9 8.01 15.6 14.8 10.4 17.3 10.4 26.3 22.8 5.39 7.15 15.2 7.6 29.4 1.35 11.8-5.21 18.9-14.4 21-27.5 1.82-11-3.74-16.6-16.7-17-18.2-4.12-19.5-2.21-30.5-11.7-5.42-4.72-10.3-7.16-14.6-7.29z" fill="#80aa83"/>
  <path d="m152 68.5q29.5 7.39 25 27.3-3.94 17.5-26.4 25.5-19.7 6.99-27.4-1.7-6.71-7.64-5.72-35.3 0.876-24.3 34.4-15.9z" fill="#381c86"/>
  <path d="m241 193q21-6.2 24-0.145 9.79 20.1 9.62 21.1-0.554 3.42-11.4 8.75-36.1 17.7-37.8 15.6-5.66-6.69-2.2-15.2 11.5-28.3 17.8-30.1z" fill="#715541"/>
  <path d="m361 305q35.8-10.4 41 3.04 13.4 34.6 7.4 39.8-15.3 13.2-27 9.67-30.1-9.2-31.5-20.2-3.74-28.3 10.1-32.3z" fill="#aa8e4c"/>
  <path d="m203 324c-12.5 7.35-19.5 12.3-21.1 14.9-6.28 10.4-9.46 16.6-9.55 18.5-2.46 6.96-8.94 22.9-13.4 27.7-2.95 3.17 0.807 16.1 11.5 39.1 4.41 9.51 20.7 8.85 34.9 5.16 2.97-0.767 35-42.7 37.4-54.9 1.01-9.2-0.916-16.4-5.78-21.7-5.12-4.57-27.8-30.4-34-28.9z" fill="#55b989"/>
  <path d="m372 35.4c9.43-1.33 14.2-1.67 14.5-1 0.789 2.51 0.783 7.03-0.02 13.6-3.03 24.7-6.81 37.9-11.3 39.6-17.1 6.49-27.1 9-29.9 7.53-10.7-5.56-16.1-9.15-16.1-10.8-0.0567-6.1 5.53-10.2 11-15.7 20.7-20.7 29.4-32.9 31.9-33.3z" fill="#aa1c3c"/>
  <path d="m175 119c-8.95-3.23-14 4.69-41.5 14.5-0.563 0.2-9.15 6.6-3.38 13.2 15.1 17.3 40.7 44.2 53.4 33.2 9.4e-4 -8.2e-4 5e-3 -0.163 6e-3 -0.17 11.9-1.21 25.7-3.36 27.2-7.47 8.87-23.4 11.5-35.6 8.02-36.4-24.7-1.04-28.4-14-43.8-16.8-5e-5 -1e-5 -1.4e-4 0-1.4e-4 0z" fill="#47382b"/>
  <path d="m144 289q3.38-1.79 31 37.3 3.24 4.6-7.28 22.1-1.24 2.06-48.8-26.3-5.6-3.33-3.83-16.4 0.208-1.54 29-16.7z" fill="#388eda"/>
  <path d="m399 366q-0.48-1.42 11.1-11.4 9.68-8.35 36.7-8.62 22.5-0.223 13.5 41-7.49 34.4-36.5 5.14-24.2-24.4-24.8-26.1z" fill="#c7aa89"/>
  <path d="m237 400c10.4-5.46 8.9-14.6 14.2-11.4 9.29 5.68 19.8 11.7 24.1 17.4 7.57 10 10.3 18.8 8.18 26.3-3.74 13.2-1.01 20.3-10.6 23.5-16.9-0.542-36.9 6.56-41.4 0.885-7.92-10-12.5-20.7-11.8-31.4 0.209-14.9 10.4-18.3 17.3-25.2z" fill="#71c75f"/>
  <path d="m323 94.4q2.51-1.28 19.2 7.4 3.61 1.87 5.96 48.4 0.506 10-2.76 12.4-0.706 0.511-39.2-12.7-8.31-2.85 2.73-41.3 2.38-8.3 14-14.2z" fill="#8e38c9"/>
  <path d="m121 163q7.69-11.1 29.5 5.85 26.4 20.6 22.3 34.3-5.04 16.6-11.6 21.1-7.96 5.4-20.3 1.54-14.9-4.68-20-26.8-6.16-26.8 0.189-35.9z" fill="#385574"/>
  <path d="m264 230c-16.1 1.53-33.7 19.3-31.6 32.3 0.494 13.1-7.58 28.4-13.5 40.3-4.61 8.92-2.16 18.5 7.35 28.8 14.9 16.1 25.3 21.3 31.1 15.6 9.1-8.91 15-18.8 17.8-29.6 11.1-27.5 18.6-40.2 10.9-64.4-5.01-15.6-12.3-23.3-22-23z" fill="#55715f"/>
  <path d="m362 428q0.109-1.28 14.5-5.66 2.53-0.775 31.2 6.09 5.06 1.21-24.7 31-5.27 5.27-19.1-19.8-2.44-4.43-1.82-11.7z" fill="#aac7cf"/>
  <path d="m350 168q2.67-1.93 13.7-2.96 22.4-2.09 26.5 0.842 8.41 5.98 9.42 25.2 2.05 39.3-14.4 36.9-33.5-4.83-36.3-12.4-5.71-15.4-3.89-25.7 3.71-21 5.02-22z" fill="#aa5558"/>
  <path d="m163 231c6.21-4.21 14.3-5.06 24.4-2.55 17.9 4.48 27.8 7.76 29.5 9.84 3.15 3.72 5.56 9.96 7.22 18.7 2.97 15.6-2.14 20.7-4.74 22.6-4.63 3.31-8.39 4.94-21.9-2.45-24.1-13.2-36.5-22.5-37.4-28-1.57-9.75-0.618-15.8 2.86-18.2z" fill="#55715f"/>
  <path d="m137 396q12.7-4.08 26.4 25.6 8.82 19-8.61 36.5-11.2 11.2-16.4 12.4-3.36 0.795-21.4-16.5-11.5-11.1-4.38-35.8 4.57-15.8 24.3-22.2z" fill="#38c798"/>
  <path d="m410 57.3c26.9 16.6 37.2 24.9 35.7 30.7-2.84 10.7-1.94 15.6-11.5 16.5-17.8 1.77-29.1 0.298-33.8-4.42-8.77-8.79-12.5-18.6-11.1-29.5 2.5-20.3 6.3-22.1 20.8-13.2z" fill="#c71c5c"/>
  <path d="m234 136q12.3-2.03 19.4 5.09 14.8 14.7 12.5 23-4.74 17-13.7 19.7-18.5 5.44-25.4 1.92-14.4-7.28-9.29-20.8 10.5-27.9 16.5-28.9z" fill="#713857"/>
  <path d="m95.5 172q13.7-0.399 19.3 23.9 5.65 24.6-0.793 27.9-6.52 3.37-36.5-6.61-30.3-10.1-13.1-27.3 17.5-17.5 31-17.8z" fill="#1c557e"/>
  <path d="m379 235q23.1 3.33 27.4 7.06 3.66 3.21-0.028 21.8-3.17 16-7.29 20.3-3.55 3.72-30.2 11.5-23 6.67-34.5-3.46-9.89-8.73 5-36.8 12.8-24.2 39.7-20.3z" fill="#aa7188"/>
  <path d="m153 279q7.11-17.6 20.1-10.5 43.3 23.7 40.7 28.8-8.72 16.9-14.1 20-18 10.6-25.1 0.553-23.7-33.6-21.6-38.9z" fill="#558e41"/>
  <path d="m323 410q9.49-4.18 27.4 12.1 5.75 5.22 5.2 11.7-0.176 2.07-28.5 30.4-9.08 9.08-15.6 10-2.08 0.296-20.9-15.2-6.03-4.97 0.619-28.4 2.13-7.53 31.7-20.5z" fill="#8ec7ba"/>
 </g>
</svg>
