<?xml version="1.0" encoding="UTF-8"?>
<svg width="512px" height="512px" contentScriptType="text/ecmascript" contentStyleType="text/css" version="1.1" viewBox="0 0 512 512" xmlns="http://www.w3.org/2000/svg">
 <g class="voronoi" stroke-width=".5">
  <path d="m458-37.1 39.9 3.59 31.6 25.6 4.85 5.94-17.3 17.4-55.1-29.8z" fill="#e3e3c9"/>
  <path d="m361-16.4-35.5 34.2-8.84 14.2s-6.58 10.2-5.96 15.7c1.32 12 16.7 26.5 15.6 30.6-1.05 3.69 2.79 7.69 2.84 12.4 0.026 2.81 13.9 1.77 41.6-3.09 7.33-1.29 12.5-14.6 15.7-39.8 3.78-20.6-1.67-17 10.8-45.6l-13.1-13.8z" fill="#aa0016"/>
  <path d="m-13.2 126 13.2 3.6s10.7-3.84 15.6-2.1c6.88 2.47-15.6 22.2-15.6 22.2l-10.9 11.6-25.6 20.8-12.6-8.24-3.62-33.7z" fill="#e3388e"/>
  <path d="m31.6 423c-8.48 1.17-2.95 17.9-7.17 25.7-4.23 7.87-17.6 20.2-17.6 20.2s0.788 24.1 9.74 28.9c6.78 3.63 15-3.57 22.3-5.97 12.3-4.03 20.8-9.81 30.3-18.6 9.02-8.4 29.4-19.3 21.7-28.9-2.07-2.55-51.7-22.4-59.2-21.4z" fill="#e3c77c"/>
  <path d="m460 429c13.5-6.56 52.4-6.99 52.4-6.99l18.6-2.48 2.17 0.445 0.978 25.5-21.8 22.3s-5.43 4.06-7.97 4.89c-14.8 4.88-27.1-1.1-43.9-6.7-4.29-4.61-3.29-35.3-0.567-36.9z" fill="#e3c7ec"/>
  <path d="m321 477c9.55 0.434 20.4 4.62 23.4 16.7 2.07 8.44-9.76 18.3-9.76 18.3l-13.1 14.8-14.4 1.9 0.707-16.7s-1.35-20.2 3.47-28.2c2.38-3.95 5.06-6.93 9.67-6.72z" fill="#8ee3e0"/>
  <path d="m36.6 29.4c-9.71 1.55-17.4 10.1-26.2 14.9-3.44 1.89-10.4 5.52-10.4 5.52l-18 9.57 41.8 43.7 11.2 7.47 1.82-1.62s3.41-20.2 7.42-29.5c5.36-12.4 20.4-23 21.8-34.1 1.41-11.1-14.8-18.3-29.4-16z" fill="#001c34"/>
  <path d="m445-14.3 30.2 14 0.43 0.334s32.5 12.4 34.6 26.9c0.941 6.64-3.5 16.1-8.1 21-5.62 5.96-14.6 12.1-22.7 10.9-11.6-1.79-14.1-18.9-19.3-29.5-4.56-9.27-10.2-29.3-10.2-29.3z" fill="#e3006f"/>
  <path d="m-32 187 32 13.5s6.04 6.08 7.96 11c3.7 9.57-6.2 23.1-6.2 23.1l-42.8-5.79-1.28-33.1z" fill="#e355c7"/>
  <path d="m509 315c0.353-2.5 2.92-6.3 2.92-6.3l6.24-7.05 25.7-8.73 24.8 23-13 25.3-42-12.8-1.68-3.53s-3.46-6.08-2.92-9.94z" fill="#008ebf"/>
  <path d="m458 475c4.66-7.4 26.3-0.766 38.7 4.25 5.68 2.3 15.6 10.9 15.6 10.9l17.3 14 4.85 5.94-17.3 17.4-28.7-15.5s-19.2-9.37-25.1-17.5c-4.51-6.25-9-13.8-5.39-19.6z" fill="#e3e3c9"/>
  <path d="m318-32.9 34.7 13.3-17.3 19.5s-7.43 10.5-13.4 13.4c-3.01 1.46-6.21 5.3-9.77 2.04-4.12-3.77-3.61-15.4-3.61-15.4l1.18-28z" fill="#8ee3e0"/>
  <path d="m195-13-15.2 13s-9.29 10.7-15.6 13.3c-13 5.42-29.5-2.81-42.1 3.52-5.22 2.63-9.53 7.7-11.6 13.2-1.36 3.64-1.77 8.23 0.0527 11.7 4.65 8.73 15.3 13.2 24.5 16.7 16.2 6.07 34.9 10.9 51.6 6.19 9.25-2.61 17.1-10 22.6-17.9 8.04-11.5 13.3-39.9 13.3-39.9l0.197-6.79 0.229-7.92z" fill="#550029"/>
  <path d="m-41.1 70.8 11-5.22 42.6 33.1s9.72 9.59 4.69 15.8c-4.09 5.03-17.2 5.44-17.2 5.44l-31.6-2.72-23.3-10.1 3-20.3z" fill="#e31caf"/>
  <path d="m533 148 16.4 59.2-1.36 0.59-14-1.31-22.2-14.1s-15.7-6.64-20.6-13.1c-2.99-3.9 20.6-15.4 20.6-15.4z" fill="#005528"/>
  <path d="m-12.9 332 19.9 41.1c12.1 24.2 13.6 31.8 26.3 42.6 13.6 11.7 13.7 8.16 49.5 21 9.14 3.27 10.3-0.118 14.1-3.09 5.46-4.29 4.11-1.31 9.14-18.7-5.63-26.5-2.18-51.5 3.63-69.1s-24.5-6.41-37.1-7.63c-20.1-1.95-37.7 6.88-60.7 0.588l-11.9-3.27z" fill="#00aa73"/>
  <path d="m486 339c10.3 3 25.8 32.8 25.8 32.8l14.3 22.1 5.66 18.3-20 3.06s-29.1 5.77-42.1 2c-5.58-1.61-11.4-1.45-11.3-7.26 0.412-16.6 13.8-49.6 13.8-49.6 2.48-5.76 6.95-23.1 13.8-21.5z" fill="#e3aac9"/>
  <path d="m144 476c14.1-0.741 28.1 3.48 31.2 17.3 1.68 7.61-7.74 18.7-7.74 18.7l-9.94 11.9-28.6-3.55 1.37-8.35s3.23-21.8 9.05-30.4c1.89-2.8 1.29-5.41 4.66-5.59z" fill="#38e3df"/>
  <path d="m393 543 7.56-20.8 16.7-10.6s5.69-4.19 9.98-3.27c2.75 0.592 5.76 3.27 5.76 3.27l27.3 41.5-0.753 28.4-48.8-24.7z" fill="#c700b4"/>
  <path d="m471 70.8c3.07-2.65 8.32-8.28 11-5.22 8.16 9.34 30.2 23.4 30.2 23.4l12.5 9.69 6.92 22.9-19.4-1.67s-21.4-1.37-31.7-3.97c-8.2-2.08-19-1.73-23.2-8.88-3.45-5.91 0.53-13.9 3-20.3 2.32-5.99 5.89-11.8 10.8-16z" fill="#e31caf"/>
  <path d="m-51.9 233 28.5 6.35 24.1 34-4.08 27.9-25.6-18.4-20.7-34.8z" fill="#e37192"/>
  <path d="m500 337c0.667-4.39 12.2-1.58 12.2-1.58l12 3.27 32.6 24.3-4.04 26.2-33.4-16.2-7.06-14.6s-13.4-13.5-12.2-21.4z" fill="#00aa73"/>
  <path d="m186 391c-4.91-0.13-10.5 3.58-16.9 11.1-3.46 4.12-6.91 12.4-0.454 26.5 3.84 8.37-14.5 24.1-11.9 37.2 2.13 10.6 24 22 24 22s22.9 11.6 34 8.15c10.5-3.3 14.3-18.9 22.1-24.7 4.49-3.33 17.7-11 27.2-14.1 9.55-3.15 16.9-13.9 22.1-32.1 2.93-10.3 3.23-18.9 0.912-25.7-1.32-3.86-15.4-1.4-42.3 7.39-33.1 8.74-40-15-58.7-15.7z" fill="#5ed051"/>
  <path d="m451 501c8.23-7.46 24.4 11.1 24.4 11.1l0.43 0.334 34.6 26.9-11.8 16.3-19 15.6-19.3-29.5-10.2-29.3s-2.89-8.09 0.859-11.5z" fill="#e3006f"/>
  <path d="m86.9-50 14.6-13.7 19.3 17.6 5.01 36.9-12.6 24.7-32.7-25z" fill="#1ce39d"/>
  <path d="m22 132c0.231-5.93-2.51-14.4 2.46-17.6 3.58-2.33 8.89 0.987 12.3 3.52 15.1 11.1 30.4 27.5 30.8 47 0.289 14.2-4.54 34.9-19.7 33.4-12.4-1.25-14.9-20.3-19.2-32-2.79-7.58-11.9-11-12.8-18.5-0.666-5.58 5.93-12.1 6.07-15.7z" fill="#0038dc"/>
  <path d="m497 127c4.55-0.174 14.6 2.73 14.6 2.73l15 4.11-15 16s-7.05 7.98-10.9 11.6c-8.04 7.48-14.6 20.2-25.6 20.8-5 0.258-9.95-3.96-12.6-8.24-5.9-9.64-9.63-24.1-3.62-33.7 7.43-11.8 24.1-12.7 38-13.2z" fill="#e3388e"/>
  <path d="m417 433s-76.7 21.6-87.4 35.3c-5.94 7.61 13.1 14.7 21.7 19.2 10.6 5.66 23.6 3.39 34.8 9.14 5.76 2.94 10.2 10.3 16.6 11.4 12.1 2.16 34-14.2 34-14.2 9.39-3.92 10.6-16 14.7-25 0 0 7.53-26.2-0.463-34.4-7.87-8.12-33.9-1.52-33.9-1.52z" fill="#b9e324"/>
  <path d="m195 499 28 5.11-0.229 7.92-0.196 6.79-13.3 39.9-7.78-2.98-37.4-30.4 15.6-13.3z" fill="#550029"/>
  <path d="m144-36 38.5 18.1-15 17.9s-11.8 6-16.6 7.9c-8.93 3.52-12.8 3.56-17.6-1.96-1.85-2.13-2.92-5.94-2.92-5.94l5.04-30.8z" fill="#38e3df"/>
  <path d="m393 31.5c-2.05-7.1 2.93-15.1 7.56-20.8 4.14-5.15 16.7-10.6 16.7-10.6l11.1-7.05 31.9 48.6s3.8 11.1-4.33 16c-15.6 9.33-45.2-12.3-45.2-12.3s-15.7-6.59-17.8-13.8z" fill="#c700b4"/>
  <path d="m81 276c-3.25 0.03-6.82 0.229-10.7 0.598-8.45 0.803-15.4 3.94-20.9 9.42-3.89 8.88-35.2 7.17-43.2 16.2l-11.3 12.7 5.03 10.6 1.68 3.53c13.9 3.32 88.4 9.38 117 3.12 2.28-2.1 2.33-11.3 0.154-27.6-1.19-8.87-6.77-16.9-16.8-24.2-4.07-2.96-11-4.39-20.7-4.3z" fill="#008ebf"/>
  <path d="m460 233c-18.2 1.24-40.2 7.97-48.7 13.5-16.5 10.7-11.3 37.2-17.2 53.8-4.85 13.6-5.49 23.4-1.91 29.6 4.12 7.14 17 10.6 38.8 10.4 20.7-1.14 29.3 3.47 48.1-3.62 7.47-2.82 21.1-17.3 23.2-24.7l9.59-33.6 0.732-5-0.732-1.03s-15.1-22.5-23.4-33c-6-7.62-28.4-6.25-28.4-6.25z" fill="#e37192"/>
  <path d="m-54.2 475 39.9 3.59 31.6 25.6 4.85 5.94-17.3 17.4-55.1-29.8z" fill="#e3e3c9"/>
  <path d="m238-35.6 35.3-15.2 27 15.5 0.782 35.2 0.202 9.07s-0.259 8.43-3.41 10c-0.154 0.0784-0.294 0.25-0.466 0.227-24.1-3.27-56.9-18-56.9-18l-11.1-12z" fill="#71e3d0"/>
  <path d="m29.9 0.189 0.149-0.189 2.32-2.94 20.7-20 11.7 3.96 16.6 19s12.2 15.3 22.1 25.3c2.94 2.97-1.47 10.1-4.9 11.5-16.2 6.94-44.2-9.36-52.9-12.4-17.1-5.89-15.7-24.3-15.7-24.3z" fill="#1c0024"/>
  <path d="m18.3 160c-6.86-5.55-18.3 4.03-18.3 4.03l-20.6 15.4 20.6 13.1s4 1.94 5.52 3.51c10.1 10.3 11.1 32.2-0.819 60.8-3.38 8.1 12.9 33.3 21.6 32.3 9.95-1.14 15-14.4 18.1-23.9 2.62-8.04-0.44-25.4-0.44-25.4l-6.42-32.4s-4.17-35.2-19.3-47.4z" fill="#005528"/>
  <path d="m474 188c11-8.27 37.7 12.5 37.7 12.5l14.7 6.21-13 27.9-1.76-0.238s-10.6 2.32-11.4 8c-2.66 18.5-6.37-11.2-22.6-12.2-12.1-0.772-15.8-33.1-3.75-42.2z" fill="#e355c7"/>
  <path d="m-32.7 343 10.8-5.21 36.2 56 5.66 18.3-60.2 9.24-12.9 1.37 13.5-62.4z" fill="#e3aac9"/>
  <path d="m86.3 466c4.82-6.06 7.4-17.2 15.1-17.6 8.7-0.524 14.5 9.34 18.5 17.1 5.76 11 7.1 24.7 5.01 36.9-0.576 3.38-3.93 9.76-3.93 9.76l-7.9 15.5-20.3-15.5s-16-13.7-24.8-21.4c-8.66-7.55 11.9-16.7 18.2-24.8z" fill="#1ce39d"/>
  <path d="m360 498c6.62-1.92 14.2-1.62 21.1 2.21 4.63 2.58 13.8 12.2 13.8 12.2l2.15 2.25-11.2 25.7-19.1 1.93-41.4-12 18.5-17.8s8.63-12.2 16.2-14.4z" fill="#aa0016"/>
  <path d="m-54.2-37.1 39.9 3.59 31.6 25.6 4.85 5.94-1.93 1.95s17.4 20.5 9.23 25c-7.71 4.28-29.5-12.2-29.5-12.2l-50.2-27.1z" fill="#e3e3c9"/>
  <path d="m271 16.4s-34-16.6-43.5-4.25c-7.73 10-8.76 40.6 3.04 46.4 13.5 6.65 24.4 11.9 33.4 21 0.687 0.675 15.6 5.91 44.7 15.7 19.1 6.4 14.2-0.592 14.1-14.4-8.72-20.3-31.7-65.4-51.7-64.5z" fill="#800e6b"/>
  <path d="m497 65.3c1.09-6.72 14.6-15.4 14.6-15.4l10.4-5.52 33.8 35.2-7.42 29.5-1.82 1.62-11.2-7.47-23.7-24.9s-16-4.42-14.6-13z" fill="#001c34"/>
  <path d="m-52.4 429 71-9.47s1.69-0.117 2.17 0.445c5.5 6.49 4.03 17.6 0.978 25.5-3.73 9.68-21.8 22.3-21.8 22.3l-5.6 5.73-46.2-7.54-1.61-33.9z" fill="#e3c7ec"/>
  <path d="m238 476c8.73-9.39 22.5-15.9 35.3-15.2 10.4 0.607 21.7 6.61 27 15.5 5.99 10.1 0.782 35.2 0.782 35.2l0.202 9.07-3.41 10-57.4-17.8-1.23-1.32s-8.91-5.91-9.91-10.7c-1.82-8.61 2.63-18.5 8.62-24.9z" fill="#71e3d0"/>
  <path d="m29.9 512 0.149-0.189 2.32-2.94s11.9-12 21.3-14.1c4.01-0.899 12.8 1.52 18.5 6.5 3.51 3.05 9.19 10.5 9.19 10.5l22.1 25.3-6 9.46-27.5 2.24z" fill="#1c0024"/>
  <path d="m152 68.3q29.5 7.39 28.4 12.2-0.943 4.2-23.4 25.4-19.7 18.7-25.9 17.5-5.41-1.09-10.3-6.67-4.31-4.91-3.31-32.5 0.876-24.3 34.4-15.9z" fill="#381c86"/>
  <path d="m403 49.5c-7.38 0.244-12 7.51-13.7 21.8-0.189 22.1 12.5 42.1 5.92 62.4-4.18 11.6-0.963 20.2 9.65 25.7 9.03 4.69 19.4 6.83 31.1 6.4 9.98-0.363 15.8-9.05 17.4-26.1 3.76-13 0.704-41-0.469-52.7-1.54-15.4-39-37.8-49.9-37.6z" fill="#c72a69"/>
  <path d="m294 156c-4.55 5e-3 -8.78 1.07-12.7 3.19-27.6 18.8-65.9 42.8-72.3 52s8.85 16.9 19 28.1c-2 1.56-2.89 3.18-2.6 4.85 0.576 3.39 12.2 13.4 34.8 29.9 31.6 21.2 33.5 14.9 69.8 9.04 4.76-5.19 7.17-7.94 7.23-8.24 3.93-29.5 8.91-58.7 15-87.8 1.31-6.24-13.2-15.5-43.7-27.9-5.2-2.11-10.1-3.16-14.6-3.16z" fill="#80636f"/>
  <path d="m41.5 212q0.3-0.301 0.855-0.442 1.69-0.43 13.8 3.62 37 12.3 36.4 22.2-1.69 30.2-10.6 31.1-27.1 2.57-30.4-12-10.2-44.4-10.1-44.5z" fill="#1c7145"/>
  <path d="m339 282q1.16-1.26 46.7-0.525 8.72 0.141-2.7 32-2.19 6.1-10.4 6.36-1.58 0.049-33.5-26.2-6.11-5.03-0.071-11.6z" fill="#aa8ecd"/>
  <path d="m228 347q11.6 0.705-9.92 43.8-5.03 10.1-29.6-4.76-5.76-3.48-9.04-34.7-0.768-7.32 48.6-4.32z" fill="#55aac6"/>
  <path d="m63.9 60.2q12.4-12.4 25.1-16 12.9-3.63 18.1 4.78 5.29 8.59 4.37 34.3-0.945 26.2-34.3 25.3-34-0.963-29.8-18.4 4.34-17.8 16.5-30z" fill="#1c1c7e"/>
  <path d="m327 103c6.7e-4 -6e-3 0.678-0.922 2.03-2.75 2e-3 -3e-3 17.5-3.08 52.5-9.22 0.0573-0.01 7.67 13.5 8.33 21 1.09 12.5 1.51 11.4-7.57 36.7-0.0153 0.0413-4.37 2.09-13.1 6.14-0.014 7e-3 -14.2-15.3-42.6-45.9-0.0467-0.05 0.068-2.03 0.344-5.95z" fill="#aa38f1"/>
  <path d="m216 141c-9.81 2.07-23 17.7-27.1 21.8-11.1 25.6-51.4 20-67.1 40.4-1.42 5.44 0.412 10.6 5.49 15.5 18.5 17.7 30.6 24.3 36.4 19.8 30.7-23.9 61-44.9 85.1-62.9 11.9-8.91 19.5-6.9 18-14.4-1.22-6.01-10.6-5.38-31.9-15.3-7.14-3.33-13.4-4.95-18.7-4.86z" fill="#475586"/>
  <path d="m288 297q0.912-1.18 15-3.26 24.7-3.65 38.5 7.72 24.2 19.9 1.86 29.1-39.2 16.1-44.5 16.3-9.17 0.404-13.2-4.37-7.07-8.38-3.84-21.6 5.68-23.2 6.2-23.9z" fill="#8e8e60"/>
  <path d="m112 358q5.8-13.9 10.9-18.6 4.62-4.25 28.3 0.114 21.4 3.95 21.5 4.02 0.073 0.068 2.2 20.3 1.92 18.3-7.48 29.5-8.5 10.1-31.2 10-20.5-0.092-25.8-15.8-4.83-14.2 1.58-29.6z" fill="#38aa85"/>
  <path d="m376 388q18.3-19.9 20.8-17.5 54.5 55 54.5 55 0.048 0.39 1e-3 0.487-1.04 2.15-2.5 2.09-32.6-1.29-34.6-1.77-44.4-10.6-44.1-11.8 5.06-25.7 5.88-26.6z" fill="#c7c716"/>
  <path d="m249 79.9c-16.2 36-18.5 37.9-20.9 48.8-3.37 15.5 42.7 26.7 42.7 26.6 5.57-2.23 16.5-4.14 21.7-10.5 18.9-23.3 27.8-35.4 27.8-35.5 0.267-3.79-3.04-6.78-4.29-7.2-33-11.1-48.1-14.2-50.5-15.2-3.27-1.32-14.1-11.5-16.5-7.04z" fill="#712aeb"/>
  <path d="m42.1 115q0.953-0.952 32.4-0.062 35.9 1.02 40.2 5.91 4.91 5.59-6.7 24.1-13.2 21.2-19.7 21.4-7.42 0.216-25.9-23.5-21.1-27-20.3-27.9z" fill="#1c3877"/>
  <path d="m382 160c-19.6 3.02-23.7 28.5-26.4 40.8-3.38 21.2-8.26 41.8-11.6 58.3-2.25 11.1 9.23 16.9 34.5 17.3 11 0.177 16.6-0.0584 17-0.707-0.376-28.5 6.62-51.8 11.3-74.2 3.97-18.9 0.181-31.4-11.4-37.4-5.06-2.63-9.53-3.97-13.4-4.02z" fill="#aa6333"/>
  <path d="m157 256q1.84-6.08 18.2-18.7 23.9-18.4 24.1-18.3 0.312 0.131 7.26 7.47 10.2 10.7 11 15.8 1.26 7.39-4 20-7.7 18.4-12.5 21.4-7.08 4.37-22.6-6.92-22.7-16.5-21.4-20.7z" fill="#557169"/>
  <path d="m294 354q11.6-0.511 23.3 5.85 48.7 26.5 47.7 31.7-4.26 21.6-5 22.3-3.09 2.76-14.7 0.533-48.2-9.24-49.2-12.3-4.4-12.9-4.5-19.7-0.42-28.2 2.37-28.3z" fill="#8eaa39"/>
  <path d="m141 411c11.2 0.05 16.9-1.7 22.7 10.6 3.67 7.9-1.88 21.6-13.5 33.3-7.44 7.44-8.58 15.6-12.1 16.4-2.24 0.53-9.36-4.98-21.4-16.5-7.68-7.39-9.6-17.8-5.74-31.1 2.47-8.54 12.5-12.8 30-12.7z" fill="#38c798"/>
  <path d="m88.7 172q7-0.204 17 13.6 10.1 14 8.8 19.2-1.36 5.23-9.8 11.8-8.54 6.66-33-1.48-24.7-8.23-7.45-25.5 17.5-17.5 24.4-17.7z" fill="#1c557e"/>
  <path d="m200 292q7.86-4.85 28.2 11.3 39.5 31.3 30.3 34.1-17.8 5.38-38.6 4.12-40.2-2.45-40.2-2.5-0.102-0.094 5.45-15.2 10.8-29.3 14.8-31.8z" fill="#558e5a"/>
  <path d="m325 416c-16.7-0.21-29.8 1.58-30.9 5.49-6.14 21.7-7.2 34.1-3.18 37.5 12.5 10.3 19.5 15.4 20.9 15.2 4.33-0.613 9.52-3.95 15.6-10 9.4-9.4 19.5-14.4 27.4-17.2 15.3-5.42 61.3-9.69 50.8-19.5-26.3-6.29-23.6-7.15-40-8.93-12.4 1.07-28.3-2.26-40.6-2.45z" fill="#9cc7c5"/>
  <path d="m188 76.4q0.359-1.6 16.9-18.1 3.58-3.58 5.39-4.32 0.392-0.161 28.4 18 6.06 3.94-12.7 50-4.08 9.98-14 11.1-2.14 0.242-21.4-40.5-4.18-8.83-2.52-16.2z" fill="#551cc9"/>
  <path d="m110 220q6.01-4.68 28.8 17.2 12.5 12 10.5 18.6-1.1 3.62-19.4 20.5-10 9.25-25-1.61-8.18-5.95-6.73-31.9 0.795-14.2 11.8-22.8z" fill="#3871a1"/>
  <path d="m264 342q8.34-2.52 9.42-2.55 0.482-0.014 8.16 9.08 3.42 4.05 3.78 28.2 0.16 10.8-43.5 25.1-19.5 6.36-22 1.29-1.11-2.26 17.2-39.1 8.18-16.4 26.9-22z" fill="#71aaab"/>
  <path d="m356 147q10.5 11.4 2.95 22.9-2.48 3.79-48.6-14.9-15.1-6.14 6.5-33.6 7.09-9.02 39.2 25.6z" fill="#8e38b9"/>
  <path d="m214 280q11-26.3 19.7-19.9 48.7 35.6 47.3 41.1-7.56 30.9-7.8 30.9-1.33 0.039-10.4-7.15-50.8-40.3-48.8-45z" fill="#718e2f"/>
  <path d="m135 131q1.48 0.299 32.6 34.4 4.58 5.01 4.5 8.13-0.012 0.458-45.2 20.1-6.66 2.9-24.2-21.4-2.59-3.57 19.1-38.2 3.19-5.1 13.3-3.07z" fill="#3838d4"/>
  <path d="m436 173q16.4-0.594 23.4 7.46 7.11 8.14 2.63 26.8-4.53 18.9-6.5 20.9-2 2-26 8.18-24.2 6.25-17-28.1 7.27-34.7 23.5-35.3z" fill="#c7557e"/>
  <path d="m335 340q36.7-15 40.7-15.2 5.85-0.182 10.5 7.9 6.88 11.9 5.52 19-2.01 10.4-9.76 18.9-11.4 12.4-35.8-0.848-36-19.6-11.1-29.7z" fill="#aaaa69"/>
  <path d="m199 123q7.16 15.1-13.6 35.6-9.11 8.98-34-18.2-10.9-11.9 18.4-39.7 12.9-12.2 29.2 22.3z" fill="#5538ac"/>
  <path d="m149 267q2.67-2.47 37.2 22.7 3.6 2.63-11.2 42.8-1.54 4.19-42.4-3.33-4.26-0.785-8.83-35-0.477-3.57 25.2-27.2z" fill="#388edc"/>
  <path d="m398 354q1.54-7.97 39.7-8.34 31.9-0.315 22.9 40.9-7.49 34.4-38.6 3.1-25.9-26.1-24.1-35.7z" fill="#c7aa89"/>
 </g>
</svg>
