<?xml version="1.0" encoding="UTF-8"?>
<svg width="512px" height="512px" contentScriptType="text/ecmascript" contentStyleType="text/css" version="1.1" viewBox="0 0 512 512" xmlns="http://www.w3.org/2000/svg">
 <g class="voronoi" stroke-width=".5">
  <path d="m458-37.1 39.9 3.59 31.6 25.6 4.85 5.94-17.3 17.4-55.1-29.8z" fill="#e3e3c9"/>
  <path d="m361-16.4-17 16.4c-10.4 12.7-28.5 18.6-33.5 33.5-3.61 10.8 0.45 23.2 4.72 33.8 2.74 6.76 12.9 13.7 12.9 17.7 0.0306 3.28 2.08 17.5 5.32 22.8 0.859 1.41 4.9 2.76 12.1 4.05 1.91 0.342 11.3-4.84 28.2-15.6 4.47-2.83 12.3-17.6 15.8-45.4-1.31-18.3 1.29-30.5 7.6-48.7l-13.1-13.8z" fill="#aa0016"/>
  <path d="m-13.2 126 13.2 3.6s6.15-0.0106 7.56 4.99c1.98 7.04-7.56 15.1-7.56 15.1l-10.9 11.6-25.6 20.8-12.6-8.24-3.62-33.7z" fill="#e3388e"/>
  <path d="m526 232 19.8-17.1 10.5 24.5 2.16 38.9-19.9 10.4-20.3-16.8z" fill="#007170"/>
  <path d="m33.6 426c-8.89-0.66-6.74 15.5-3.81 23.9 4.31 12.4 12.6 23.5 21.7 32.9 11.8 12.1 41.4 29.3 41.4 29.3l20.3 15.5 7.9-15.5s7.25-17.7 7.83-21.1c2.26-24.3-15.3-31.9-31.9-43.9 0 0-39.8-19.4-63.4-21.1z" fill="#1ce39d"/>
  <path d="m467 431c-1.35-3.57 45.4-8.51 45.4-8.51l18.6-2.48 2.17 0.445 0.978 25.5-21.8 22.3s-5.32 4.89-8.41 4.31c-18.2-3.41-31.1-25.9-37-41.5z" fill="#e3c7ec"/>
  <path d="m358 447c-9.31-2.55-19.4 13.7-19.4 13.7s-23.7 20.3-25.3 23c-4.77 8.02-4.94 28.3-4.94 28.3l-0.707 16.7 14.4-1.89 30.4-34.4c3.86-3.52 24.2-15.6 24.8-18.6 1.47-10.9-8.72-24-19.1-26.8z" fill="#8ee3e0"/>
  <path d="m111 542 11.6-13.2 24.7 0.928 42 23.9-2.14 22.8-51.6-6.19-24.5-16.7z" fill="#3800b4"/>
  <path d="m18.6 10.9c-7.48-2.75-9.4 14.5-8.31 22.4 0.746 5.41 6.72 8.63 9.64 13.2 10.2 16.1 27.3 50 27.3 50 1.12 7.72 9.58 11.8 25.4 12.2 19.1 0.539 30.3-0.297 33.5-2.51 3.22-2.17 5.1-10.8 5.65-26 0.536-14.9-0.96-25.1-4.49-30.9-2.82-4.58-9.1-3.76-13.6-5.7-25.1-10.7-48.1-22.9-75.1-32.8z" fill="#0e0e8d"/>
  <path d="m445-14.3 30.2 14 0.43 0.334s26.6 12.6 30.7 26.6c2.53 8.46 1.65 19.2-4.7 25.4-5.58 5.39-15 9.4-22.3 6.74-11-4.01-19.3-29.5-19.3-29.5l-10.2-29.3z" fill="#e3006f"/>
  <path d="m-32 187 32 13.5s7.78 5.84 9.7 10.8c3.7 9.57-7.94 23.3-7.94 23.3l-42.8-5.79-1.28-33.1z" fill="#e355c7"/>
  <path d="m507 315 11.3-12.7 25.7-8.73 24.8 23-13 25.3-42-12.8-1.68-3.53z" fill="#008ebf"/>
  <path d="m27.8 467c9.15 5.35 17.2 17.1 13.1 25.8-3.19 6.68-14.3 8.82-21.8 6.27-0.878-0.3-1.7-0.666-2.46-1.1-8.83-5.03-15.2-20.3-9.74-28.9 3.8-5.89 13.1-6.67 20.9-2.1z" fill="#00e358"/>
  <path d="m417 433s-30.6 19-35.1 34.9c-2.52 8.91 1.86 19 6.53 27 8.25 8.33 24.8 4.53 39.4 2.71 20.6-1.7 60.3 14.2 60.3 14.2l28.7 15.5 17.3-17.4-4.85-5.94-17.3-14s-9.68-7.53-14.3-11.6c-15.9-13.9-26.4-34.6-46-43.5-0.248-0.112-0.495-0.22-0.74-0.323-10.4-4.39-33.9-1.52-33.9-1.52z" fill="#e3e3c9"/>
  <path d="m303 538 3.17-4.14 11.2 0.316 40.1 9.42-26.6 35-25.7-27.8z" fill="#8e00cf"/>
  <path d="m318-32.9 34.7 13.3-30.4 34.4s-8.57 7.59-12.1 4.34c-4.12-3.77-1.51-19.2-1.51-19.2l1.18-28z" fill="#8ee3e0"/>
  <path d="m113 13.1c7.56-3.25 33.4 4.64 33.4 4.64s34.6 9.64 42 23.9c3.53 6.78 3.81 18-2.14 22.8-13.5 10.9-35.3-0.118-51.6-6.19-9.26-3.47-25.1-7.14-24.5-16.7 0.495-8.1-1.77-26.1 2.77-28.6z" fill="#3800b4"/>
  <path d="m-41.1 70.8 11-5.22 42.6 33.1s7.05 8.79 2.02 15c-4.09 5.03-14.5 6.24-14.5 6.24l-31.6-2.72-23.3-10.1 3-20.3z" fill="#e31caf"/>
  <path d="m533 148 16.4 59.2-1.36 0.59-14-1.31-42.8-27.2 20.6-15.4z" fill="#005528"/>
  <path d="m-12.9 332 24.8 6.79s27.4 11.8 32.6 24.3c3.35 8.19 3.79 22.1-4.04 26.2-11 5.75-22.5-7.48-31.2-16.2-3.81-3.82-9.22-14.6-9.22-14.6z" fill="#00aa73"/>
  <path d="m484 342c-3.84-1.08-30.3 2.7-40.9 2.81-17.4 0.172-23.7 5.89-28.6 14.2-5.86 9.9-1.57 22.1 12.9 36.7 10 10.1 19.2 19.2 25.3 27.2 3.96 5.2 14.2-0.603 18.8-1.09l60.2-9.24-5.66-18.3-14.3-22.1s-14.7-26.4-27.7-30.1z" fill="#e3aac9"/>
  <path d="m166 461c9.38 0.35 17.4 0.997 22.4 17.1 3.69 11.9-21.3 33.9-21.3 33.9l-9.94 11.9-28.6-3.55 6.41-39.1s18.7-20.7 31-20.2z" fill="#38e3df"/>
  <path d="m-66.9 498 30.2 14 35 27.2-11.8 16.3-19 15.6-19.3-29.5z" fill="#e3006f"/>
  <path d="m393 543 7.56-20.8 16.7-10.6s7.14-3.45 11.4-2.53c2.75 0.592 4.31 2.53 4.31 2.53l27.3 41.5-0.753 28.4-48.8-24.7z" fill="#c700b4"/>
  <path d="m363-67.1 14.3 29 0.542 20.5-26.2-6.56-21.7-19.2z" fill="#aae33b"/>
  <path d="m195-13 28 5.11-0.229 7.92s2.23 7.31 6.25 9.45c11.2 5.93-20.1 4.34-15.6 35.2 0.234 1.63-2.77 1.57-4.08 2.06-2.6 0.975-7.78-2.98-7.78-2.98s-29-17.3-34.9-27.7c-3.39-5.94 13.1-16 13.1-16z" fill="#550029"/>
  <path d="m-18 59.4 18-9.57s8.93-4.19 12.6-2.08c19.1 10.8 18.9 29.7 24.1 61.2l-1.82 1.62-11.2-7.47-23.7-24.9z" fill="#001c34"/>
  <path d="m460 62.6c4.79-4.19 12.6-1.02 19 1.75 0.985 0.427 1.94 0.845 2.84 1.22 11.7 4.94 30.2 23.4 30.2 23.4l12.5 9.69 6.92 22.9-19.4-1.67s-21.4-0.126-31.6-2.72c-8.2-2.08-19.2-2.73-23.3-10.1-3.32-5.98 2.51-13.5 3-20.3 0.577-8.04-6.15-18.9-0.0854-24.2z" fill="#e31caf"/>
  <path d="m-51.9 233 28.5 6.35 24.1 34-4.08 27.9-25.6-18.4-20.7-34.8z" fill="#e37192"/>
  <path d="m501 338c-1.53-4.17 11.3-3.04 11.3-3.04l12 3.27 32.6 24.3-4.04 26.2-33.4-16.2-7.06-14.6s-6.51-7.04-11.3-20z" fill="#00aa73"/>
  <path d="m253 387c-26.6 6.25-23 9.49-51.8 1.61-4.62-1.26-13.1 3.12-26.9 16.6-5.63 5.5-0.0317 12.9-0.541 25.7 3.71 33 15.1 43.4 41.5 63.9l24 17.2 1.23 1.32 57.4 17.8 3.41-10-0.201-9.07s0.588-23.6-1.41-35.2c-0.19-17.2-12.9-36.3-14-55.3-0.551-9.77-1.91-21.1-15.4-29.3-5.71-3.49-11.5-5.18-17.4-5.06z" fill="#71e3d0"/>
  <path d="m4.93 539 13.7-16.6 35.8 17.7 1.38 30.7-35.8-12.8z" fill="#00009c"/>
  <path d="m452 507c16.7-1.11 23.4 4.34 23.4 4.34l0.43 0.334 34.6 26.9-11.8 16.3-19 15.6-19.3-29.5-10.2-29.3s-1.11-4.48 1.83-4.67z" fill="#e3006f"/>
  <path d="m86.9-50 14.6-13.7 19.3 17.6 5.01 36.9-4.68 9.17s-6.44 6.19-12.1 7.47c-8.29 1.88-16.1-7.47-16.1-7.47l-12.5-9.53z" fill="#1ce39d"/>
  <path d="m545-50.3 7.76 30.8-24.3 5.18-9.74-28.9z" fill="#00e358"/>
  <path d="m36.8 118c-5.52 3.9-10.9 8.81-14.8 14.1-5.43 7.62-6.61 17.9-12.6 25.1-2.5 2.98-9.36 7-9.36 7l-20.6 15.4 20.6 13.1s14.4 7.42 22.1 9.95c13.6 4.48 28 7.27 41.9 9.07 3.14 2.22 7.47 4.25 13 6.1 19.8 6.61 32.2 7.46 37.1 2.55 4.81-4.85 2.35-14-7.36-27.6-25.6-23.8-55.4-85.2-69.9-74.8z" fill="#005528"/>
  <path d="m499 126c-11.2-1.96-6.98-4.07-34.1-2.7-5.98 0.303-24 41.8-64 51.2-0.767 0.381-3.26 8.89-7.48 25.5-7.38 16.2 18 40.4 34.4 36 15.9-4.1 24.5-6.81 25.8-8.14 1.32-1.32 3.48-8.27 6.51-20.9 9.32-15.3 28.1-31.9 41.1-45.8l26-27.6-15-4.11s-8.7-2.82-13.2-3.6z" fill="#e355c7"/>
  <path d="m-42.5 273 33 39.7-4.94 11.3-6.77 6.49-13.1 3.47-34.6-37.7z" fill="#e38e16"/>
  <path d="m540 423 63.4 21.1-29.7 35.2-9.71 3.23-21.7-32.9z" fill="#00c7e4"/>
  <path d="m194 488c0.0324-11.3 21.1 8.55 27.5 17.3 1.46 1.98 1.88 7.14 1.88 7.14l-0.196 6.79-13.3 39.9-7.78-2.98-37.4-30.4 15.6-13.3s13.6-16.8 13.6-24.4z" fill="#550029"/>
  <path d="m144-36 38.5 18.1-15 17.9s-6.84 8.88-11.7 10.8c-8.93 3.52-26.9-2.43-26.9-2.43l6.41-39.1z" fill="#38e3df"/>
  <path d="m-66.9-14.3 30.2 14 35 27.2-11.8 16.3-19 15.6-19.3-29.5z" fill="#e3006f"/>
  <path d="m428-7.05-27.8 17.7s-6.34 13.6-7.56 20.8c-1.48 8.84 2.78 21.8 0.428 26.9-1.87 4-3.22 9.39-4.06 16.2-1.51 12.3 4.13 21.4 16.9 27.2 6.86 3.12 17.4 3.99 31.5 2.58 7.58-0.754 12.8-6.48 15.6-17.2 0.384-1.44-0.136-3.23-1.55-5.37 0 0 7.3-25.7 4.75-39.2-3.08-16.3-23.6-42.6-23.6-42.6z" fill="#c700b4"/>
  <path d="m534 132 11.8-12.1 3-1.97 36 45.8-27.7 36.2-5.32 3.8-17.2-61z" fill="#0038dc"/>
  <path d="m72.2 276c-22.4 7.58-40 5.82-59.8 22.7l-12.4 10.6-5.03 5.68 5.03 10.6s4.87 4.89 5.97 5.59c16.5 10.4 30.2 10.9 41.1 22 5.53 5.68 5.03 11.2 10.7 21.3 0.849 1.5 15.9 0.745 45-2.27 2.8-0.29 5.64-3.8 8.52-10.5 0.245-0.573 1.47-22.3 2.06-35.6 0.167-3.76 1.04-8.94 2.59-14.1 2.69-8.92-0.304-18.8-8.98-29.6-8.74-6.72-25.5-9.15-34.8-6.21z" fill="#008ebf"/>
  <path d="m467 291s35.1-6.23 42 6.15c4.6 8.34-11.6 26.1-11.6 26.1l-6.77 6.49-13.1 3.47s-0.795-0.188-1.87-1.01c-19-14.5-40.7-23.5-36-37.7 2.57-7.74 27.4-3.55 27.4-3.55z" fill="#e38e51"/>
  <path d="m-54.2 475 39.9 3.59 31.6 25.6 4.85 5.94-17.3 17.4-55.1-29.8z" fill="#e3e3c9"/>
  <path d="m271 528 25 13.2-25.7 28.3-39.7 0.677-6.04-37.5z" fill="#710098"/>
  <path d="m274-50.8-35.3 15.2-8.62 24.9 9.91 10.7s-1.96 19.3-15.4 21c-12.6 1.63-2.26 30.2 6.04 37.5 5.17 4.58 17.2 14.3 27.1 19.3 15.8 8.09 16.8 5.74 50.5 17.1 9.39 3.16 14-1.4 13.9-13.7-0.032-3.43-17-12.2-18.2-36.2-0.757-15-1.72-30-2.05-45.1l-0.783-35.2z" fill="#71e3d0"/>
  <path d="m29.9 0.189 0.149-0.189 2.32-2.94 20.7-20 11.7 3.96 16.6 19s11.5 15 22.1 25.3c2.68 2.6-5.53 7.65-9.26 7.38-31.6-2.26-31-6.01-45.8-15-7.26-4.41-18.5-17.5-18.5-17.5z" fill="#1c0024"/>
  <path d="m517 27.5 13.7-16.6 35.8 17.7 1.38 30.7-35.8-12.8z" fill="#00009c"/>
  <path d="m487 191c12.4 2.26 24.5 9.49 24.5 9.49l14.7 6.21-13 27.9-42.8-5.79s-5.94-11.2-5.27-17.2c0.0427-0.376 0.105-0.762 0.184-1.16 1.91-9.46 12.6-21.1 21.5-19.5z" fill="#e355c7"/>
  <path d="m-32.7 343 10.8-5.21 21.9 33.9s9.79 14.6 14.3 22.1c2.52 4.2 10.5 7.44 7.12 12.8-3.57 5.71-21.4 8.5-21.4 8.5l-40.3 6.18-12.9 1.37 13.5-62.4z" fill="#e3aac9"/>
  <path d="m545 462 7.76 30.8-24.3 5.18-9.74-28.9z" fill="#00e358"/>
  <path d="m375 485c6.62 0.471 5.43 10.6 9 15.3 3.19 4.24 11 11.5 11 11.5l2.15 2.25-11.2 25.7-19.1 1.93-41.4-12 18.5-17.8s18.1-27.8 31.1-26.9z" fill="#aa0016"/>
  <path d="m-54.2-37.1 39.9 3.59 31.6 25.6 4.85 5.94-17.3 17.4-55.1-29.8z" fill="#e3e3c9"/>
  <path d="m417-78.8 33.9 1.52 0.463 34.4-8.5 18.9-6.21 6.11-34 14.2-14.2-13.2-6.53-27z" fill="#c7e30d"/>
  <path d="m503 63.1c1.09-6.72 9.49-13.2 9.49-13.2l10.4-5.52 33.8 35.2-7.42 29.5-1.82 1.62-11.2-7.47-23.7-24.9s-10.9-6.64-9.49-15.2z" fill="#001c34"/>
  <path d="m13.6 232-7.62 39.9c5.14 6.75 6.32 9.16 14.9 11 7.44 0.784 17-2.11 25.2-4.62 6.73-2.07 12.3-7.76 19.3-8.54 6.59-0.737 9.31-0.872 22-2.08 7.04-0.67 12.1-10 15.2-28.1 1.03-5.92-13.5-13.9-43.5-23.9-26.1-8.83-41.3-5.88-45.5 16.3z" fill="#0e715b"/>
  <path d="m460 233 28.5 6.35 24.1 34-0.733 5s-4.03 7.09-11.1 10.1c-9.68 4.11-17.9-5.63-17.9-5.63l-20.7-34.8z" fill="#e37192"/>
  <path d="m-52.4 429 52.4-6.99s14.6-3.72 20.2-0.0101c1.43 0.946 1.43 2.12 2.02 4.74 1.05 4.67 2.75 6.43-0.303 14.4-3.73 9.68-21.9 26.6-21.9 26.6l-5.6 5.73-46.2-7.54-1.61-33.9z" fill="#e3c7ec"/>
  <path d="m29.9 512 0.149-0.189 2.32-2.94s11.2-19.3 20.7-20c4.02-0.325 5.14 3.15 9.93 6.89 4.79 3.74 18.3 16.1 18.3 16.1l22.1 25.3-6 9.46-27.5 2.24z" fill="#1c0024"/>
  <path d="m517 539 13.7-16.6 35.8 17.7 1.38 30.7-35.8-12.8z" fill="#00009c"/>
  <path d="m153 68.1q29.5 7.39 25.5 25.1-3.5 15.6-12.2 22.3-7.68 5.9-29.4-2.93-19.1-7.77-18.2-31.7 0.761-21.1 34.3-12.7z" fill="#381c86"/>
  <path d="m374 104c-15.3 9.72-18.1 13.3-18.3 23.1-0.205 11.2 10.4 21.1 19.9 27.1 10.4 6.52 24.7 10.8 36.3 6.67 19.8-7.06 37.4-12.3 41-48.1 0.341-3.41-8.5-3.83-20.2-2.67-1.87 0.186-19.1-0.321-20.9-0.716-10.9-2.3-28.9-10.5-37.7-5.33z" fill="#b93893"/>
  <path d="m218 174q10-11.2 30.6-10.3 31.1 1.36 31.5 1.56 0.593 0.296 1.55 3.26 1.44 4.48-5.48 22.3-10.5 26.8-27.4 21.2-25.6-8.53-30.3-17.3-7.05-13.3-0.395-20.7z" fill="#715568"/>
  <path d="m370 300q13 4.57 12.8 7.04-0.061 0.681-33 37.5-9.07 10.1-27.9-12.7-5.19-6.28-0.56-39.4 1.28-9.11 48.6 7.49z" fill="#aa8ec0"/>
  <path d="m194 345c5.88-5.58 19.7-15.7 21.6-11.1 14.2 33.3 21.2 36.5 11.8 51.3-2.36 3.73-8.56 3.52-12.9 2.87-7.12-1.06-17.9-8.93-18.8-10.6-6.51-12.2-9.45-12.5-9.1-19.7 0.238-4.89 3.86-9.31 7.41-12.7z" fill="#55aa28"/>
  <path d="m206 57.9q3.58-3.58 5.39-4.32 0.392-0.161 32.2 20.6 6.9 4.49 7.02 4.78 0.027 0.063-1.49 12.1-0.329 2.6-27 30.7-5.78 6.08-34-10.4-6.12-3.58 0.017-30.9 1.33-5.92 17.9-22.4z" fill="#551cc9"/>
  <path d="m289 177q36.5 20.3 36.5 20.3 2.1 2.98 1.57 4.13-25.1 54.4-25.7 54.3-26.8-5.42-26.9-6.02-3.7-28.5-3.34-29.4 17-43.7 17.8-43.3z" fill="#8e5511"/>
  <path d="m112 232q13.6-13.7 15.1-14 23.1-4.93 24-3.53 13 20.6 13.3 23 3.78 36.3 2.18 37.3-23.4 14.6-24.6 14.9-17.1 4.39-18.4 2.79-18.8-23.5-18.4-25.8 5.82-33.6 6.75-34.6z" fill="#38711b"/>
  <path d="m391 306c0.086-0.977 2.37-5.46 6.85-13.4 3.89-6.94 11.8-7.74 23.6-2.42 0.639 14.6 56.6 39.2 50 47.7-1.51 1.51-10.8 2.34-27.9 2.51-14.8 0.147-27.7-5.64-38.6-17.4-9.44-10.2-14.1-15.8-14-17z" fill="#c78ee6"/>
  <path d="m217 324q4.83-6.9 13.9 2.85 27.5 29.6 27.4 35.2-0.178 16.9-4.76 17.9-13.9 3.13-19.9-10.9-18.2-42.7-16.6-45z" fill="#71aa45"/>
  <path d="m67.4 381c25.5-2.64 38.5-2.44 39.2 0.601 2.61 11.9 3.12 20.7 1.52 26.2-6.3 21.8-9.58 32.7-9.85 32.8-1.04 0.31-6.13-1.17-15.3-4.44-35.9-12.8-34.4-8.82-53.9-19.4-5.45-2.96-7.49-16.3-1.7-18.5 13.8-5.31 30-15.9 40-17.3z" fill="#1cc73b"/>
  <path d="m164 125q13.9-10.6 19.2-7.52 29 17 30.5 20.9 7.71 21.4 5.11 24.3-14.1 15.7-19.9 16.3-31.5 3.19-32.9-1.03-7.82-22.9-7.3-27.3 2.78-23.7 5.34-25.7z" fill="#553830"/>
  <path d="m342 208c24.9 13.4 46.6 4.65 49.7 13.9 0.489 1.46-15.8 11.3-24.5 16.2-32.8 18.2-50 26.8-51.6 25.8-6.08-3.75-7.34-9.49-3.77-17.2 13.5-29.3 23.6-42.1 30.1-38.6z" fill="#8e713c"/>
  <path d="m128 301q16.6-4.26 20.3 0.029 36.9 43 36.4 44-5.01 10.6-10.6 10.8-55.9 2.14-56.2 0.458-2.89-16.9-1.85-20.3 10.4-34.5 12.1-35z" fill="#388e21"/>
  <path d="m338 119q7.1 1.27 15.2 15.7 8.69 15.6-7.64 35.2-17.6 21.1-35.6 11.2-19.3-10.7-20.5-14.3-1.24-3.86 19.5-25.5 22.4-23.4 29-22.2z" fill="#8e387b"/>
  <path d="m97.9 169q7.93-9.95 14.8-10.1 40.5-0.727 41.8 3.22 7.91 23.2 6.13 26.2-10.5 17.4-14 18.2-21.1 4.5-25.3-1.35-24.8-34.5-23.4-36.1z" fill="#38552e"/>
  <path d="m445 238c19.2 10.6 27.1 43.9 24.6 48.8-2.53 4.88-41.8 1.59-60.5-6.82-3.43-1.54-4.99-10.5-4.66-27 0.0593-3.02 13.6-8.01 40.6-15z" fill="#c7714c"/>
  <path d="m225 302q1.53-8.39 9.39-14.2 6.39-4.76 6.91-4.91 0.423-0.122 22.8 23.1 18.2 18.8 5.68 33.7-10.2 12.1-30.3-9.64-16.4-17.6-14.5-28z" fill="#718e8b"/>
  <path d="m363 420q0.224-2.63 42.6 7.51 7.48 1.79-22.3 31.6-5.27 5.27-19.1-19.8-2.44-4.43-1.17-19.3z" fill="#aac7cf"/>
  <path d="m167 190q1.39-2.31 34.4-5.67 4.23-0.429 14.6 19.1 1.33 2.5-6.19 23.3-0.964 2.67-35.4 3.18-4.41 0.066-16.8-19.4-1.58-2.49 9.27-20.6z" fill="#5555d8"/>
  <path d="m272 258q1.48-1.22 27.4 4.01 1.45 0.293 12.4 7.02 0.611 0.377 4.61 10.6 0.223 0.572-5.37 40.5-0.313 2.24-23.5 1.79-1.3-0.026-39.8-39.8-2.15-2.23 24.2-24.1z" fill="#8e8ee6"/>
  <path d="m115 370q3.07-7.18 24.7-8.01 39.9-1.53 43.8 5.82 7.19 13.5-3.11 23.6-19 18.5-34.2 13.8-28-8.81-29.7-16.7-3.19-14.5-1.52-18.4z" fill="#38aa5d"/>
  <path d="m353 387q50.3-9.5 52.3-7.43 45.5 45.9 45.5 45.9 0.048 0.39 1e-3 0.487-1.04 2.15-2.5 2.09-32.6-1.29-34.7-1.8-47.7-11.4-48.3-12.6-14.6-26.2-12.3-26.6z" fill="#c7c716"/>
  <path d="m269 137q10.7 23.3-21.4 21.9-19.5-0.855-25.2-16.6-3.45-9.58 16.7-30.8 12.3-12.9 29.9 25.5z" fill="#71389b"/>
  <path d="m393 227c3.18-1.76 3.3 2.22 12.9 11.3 0.798 0.757-8.16 19.5-8.52 37.5-0.0293 1.49-3.91 9.13-11.6 22.9-0.642 1.14-19.6-4.8-56.7-17.8-3.09-1.08-5.93-4.95-8.53-11.6-0.216-0.552 34.3-21.1 72.5-42.3z" fill="#aa71e0"/>
  <path d="m167 283q6.83-4.25 40.7 6.27 12.7 3.95 10.2 17.6-0.93 5.11-5.6 11.8-1.75 2.51-17.2 17.4-5.8 5.59-35.3-28.8-11.1-12.9 7.13-24.2z" fill="#558eb3"/>
  <path d="m329 392c6.58-2.95 10.7-3.88 12.2-2.8 0.501 0.348 4.59 7.44 12.3 21.3 2.46 4.44 3.32 11.1 2.57 19.9-0.241 2.84-9.8 13.7-28.7 32.6-6.06 6.06-9.59 11.5-15.6 10-10.8-2.69-12.6-13.3-16.3-29.1-2.91-12.4-0.123-6.9-0.529-26.7 2.16-7.62 13.5-16 34-25.2z" fill="#8ec7ba"/>
  <path d="m255 96.7c13.6-16.9 23-7.18 64.6 6.82 1.44 0.486 10.1 6.55 8.12 10.5-9.28 18.4-13.7 14.9-41.5 43.9-0.967 1.01-7.84-4.68-8.47-5-2.94-1.46-8.63-23.4-18.2-42.7-0.635-1.38-7.51-9.84-4.52-13.6z" fill="#711cea"/>
  <path d="m69.4 115c20.5 0.581 30.8 6.93 30.8 19.1-0.0333 13.8-1.49 22.6-4.38 26.2-3.29 4.13-2.98 0.618-6.31 0.715-3.8 0.111-6.51-6.5-18.8-22.3-24-30.8-24.6-28.3-1.25-23.7z" fill="#1c3877"/>
  <path d="m378 163c10.2 7.15 13.4 18.2 9.65 33.1-4.61 18.2-15.7 18-29.9 10.4-17.3-9.3-22.7-1.72-25.1-9.95s3.93-7.79 14.1-20c12.4-14.9 22.8-19.4 31.2-13.5z" fill="#aa5574"/>
  <path d="m205 235q5.13-0.077 27.8 37.4 3.45 5.71-8.92 14.9-1.89 1.4-42.3-11.2-6.16-1.91-9.67-35.5-0.534-5.12 33.1-5.63z" fill="#5571d3"/>
  <path d="m297 330q15.2 0.293 24.3 11.4 14.9 18 15.1 26 0.452 13-15 19.9-25.1 11.3-37.2 3.89-19.6-12-19.5-20.5 0.146-13.9 8.81-24.2 14.1-16.7 23.4-16.5z" fill="#8eaa64"/>
  <path d="m144 411q16.9 5.31 24 20.7 4.56 9.83-12.9 27.3-11.2 11.2-16.4 12.4-3.36 0.795-21.4-16.5-11.5-11.1-4.3-36.1 4.63-16 31-7.72z" fill="#38c798"/>
  <path d="m106 115q9.31-6.28 11.2-5.52 38.9 15.8 38.8 17.1-3.14 26.8-5.3 26.8-45.2 0.811-45.2-0.965 0.089-37.2 0.534-37.5z" fill="#383817"/>
  <path d="m254 221q10.8 3.61 13.7 25.3 0.961 7.4-19.8 24.6-7.09 5.88-7.79 6.08-0.24 0.07-19.7-32.1-6.63-11-0.302-28.5 2.16-5.97 34 4.6z" fill="#7171b7"/>
  <path d="m401 329q14.6 15.7 6.19 29.9-7.72 13-35.1 18.2-25.2 4.75-26.8 3.63-1.48-1.03-1.86-11.9-0.35-10 21.6-34.5 20.1-22.5 36-5.33z" fill="#aaaa84"/>
 </g>
</svg>
