<?xml version="1.0" encoding="UTF-8"?>
<svg width="512px" height="512px" contentScriptType="text/ecmascript" contentStyleType="text/css" version="1.1" viewBox="0 0 512 512" xmlns="http://www.w3.org/2000/svg">
 <g class="voronoi" stroke-width=".5">
  <path d="m458-37.1 39.9 3.59 31.6 25.6 4.85 5.94-17.3 17.4-55.1-29.8z" fill="#e3e3c9"/>
  <path d="m303 25.7c0.415-1.69 1.6-3.39 3.17-4.14 3.36-1.6 7.57-0.672 11.2 0.316 11.2 3.08 25.7 4.05 30.4 17 4.96 13.8-6.16 26.4-16.8 27.4-12.6 1.23-25.7-27.8-25.7-27.8s-3.23-8.58-2.2-12.8z" fill="#8e00cf"/>
  <path d="m-13.2 126 13.2 3.6s6.8 0.204 8.21 5.21c1.98 7.04-8.21 14.9-8.21 14.9l-10.9 11.6-25.6 20.8-12.6-8.24-3.62-33.7z" fill="#e3388e"/>
  <path d="m469 428c14-3.83 43.3-5.7 43.3-5.7l18.6-2.48 2.17 0.445 0.978 25.5-27.4 28s-35.8 4.11-46.2-7.54c-7.53-8.44-1.61-33.9-1.61-33.9s6.6-3.33 10.1-4.3z" fill="#e3c7ec"/>
  <path d="m318 479c9.91-0.365 10.1-1.75 26.6 13.4 6.4 5.88-9.16 19.5-9.16 19.5l-13.1 14.8-14.4 1.9 0.707-16.7s-0.203-20.1 4.57-28.1c1.62-2.72 1.6-4.65 4.76-4.77z" fill="#8ee3e0"/>
  <path d="m445-14.3 30.2 14 0.43 0.334s32.5 12.4 34.6 26.9c0.941 6.64-7.21 16.2-11.8 21.1-5.62 5.96-11.5 20-18.6 18.2-9.87-2.4-13.7-22.3-17.7-32.5-0.631-1.57-1.28-3.08-1.97-4.49-4.56-9.27-10.2-29.3-10.2-29.3z" fill="#e3006f"/>
  <path d="m-32 187 46.8 19.7-13 27.9-42.8-5.79-1.28-33.1z" fill="#e355c7"/>
  <path d="m509 315c0.353-2.5 3.18-5.68 3.18-5.68l6.24-7.05 25.7-8.73 24.8 23-13 25.3-42-12.8-1.68-3.53s-3.72-6.7-3.18-10.6z" fill="#008ebf"/>
  <path d="m461 483c9.04-9.85 23.4-4.73 35.4-1.29 5.89 1.69 16 8.34 16 8.34l17.3 14 4.85 5.94-17.3 17.4-28.7-15.5s-19.2-6.64-24.7-15c-2.68-4.11-8.15-8.26-2.94-13.9z" fill="#e3e3c9"/>
  <path d="m318-32.9 34.7 13.3-17.3 19.5s-9 11.4-15.4 14.1c-2.61 1.13-5.37 3.31-8.52 0.656-4.26-3.6-2.84-14.8-2.84-14.8l1.18-28z" fill="#8ee3e0"/>
  <path d="m122 16.8c-5.37 2.31-9.53 7.7-11.6 13.2-1.36 3.64-1.77 8.23 0.0527 11.7 4.65 8.73 16.2 11.3 24.5 16.7 27.3 17 43.2 30.8 62.3 52.2 15.8 16.9 16.4 22.6 28.1 21.3 10.8-1.2 16.6-14.9 21-24.9 3.73-8.52 11.7-23.4 3.46-27.7-24.7-12.7-68.8-44.3-103-61.5-7.36-3.68-17.1-4.18-24.7-0.928z" fill="#470ebf"/>
  <path d="m-41.1 70.8 11-5.22 30.2 23.4s8.95 6.4 11.5 11c2.53 4.49 7.76 7.87 2.74 14.1-4.09 5.03-14.3 5.87-14.3 5.87l-31.6-2.72-23.3-10.1 3-20.3z" fill="#e31caf"/>
  <path d="m533 148 16.4 59.2-1.36 0.59-14-1.31-22.2-14.1s-9.37-4.62-9.68-12.8c-0.326-8.58 9.68-15.8 9.68-15.8z" fill="#005528"/>
  <path d="m-12.9 332 24.8 6.79s27.4 11.8 32.6 24.3c3.35 8.19 3.79 22.1-4.04 26.2-11 5.75-22.2-7.84-30.9-16.6-3.81-3.82-9.53-14.2-9.53-14.2z" fill="#00aa73"/>
  <path d="m472 353c2.39-5.08 6.97-14 10.8-12.9 13 3.63 29.2 32 29.2 32l14.3 22.1 5.66 18.3-20 3.06s-26.7 4.87-40.3 6.18c-4.11 0.397-9.43 3.68-12.4 0.499-10.2-11.1 5.21-29 7.85-43.5 1.56-8.56 1.01-17.8 4.72-25.7z" fill="#e3aac9"/>
  <path d="m144 476c11.8-0.387 28.4 2.51 31.5 16.3 1.68 7.61-8.04 19.7-8.04 19.7l-9.94 11.9-28.6-3.55 1.37-8.35s1.29-22.2 7.11-30.8c1.89-2.8 3.23-5.14 6.61-5.25z" fill="#38e3df"/>
  <path d="m393 543 7.56-20.8 16.7-10.6s6.5-4.53 10.8-3.6c2.75 0.592 4.95 3.6 4.95 3.6l27.3 41.5-0.753 28.4-48.8-24.7z" fill="#c700b4"/>
  <path d="m195-13 28 5.11-0.229 7.92-0.196 6.79s-0.613 33.9-13.3 39.9c-12.3-0.622-53.6-24.5-44.3-33.1l14.8-13.6z" fill="#550029"/>
  <path d="m-18 59.4 18-9.57s6.86-3.83 10.4-5.52c12.9-6.17 25.7-28.5 39.5-16.9 40.7 34.3-5.07 37.3-8.63 55.8-1.77 9.18 2.38 23.9-6.31 27.3-4.17 1.65-7.76-4.58-11.2-7.47-8.77-7.36-23.7-24.9-23.7-24.9z" fill="#001c34"/>
  <path d="m471 70.8s5.83-1 9.86-0.563c12.7 1.38 31.3 18.8 31.3 18.8l12.5 9.69 6.92 22.9-19.4-1.67s-21.4-0.126-31.6-2.72c-8.2-2.08-19.2-2.73-23.3-10.1-3.32-5.98 0.53-13.9 3-20.3 2.32-5.99 10.8-16 10.8-16z" fill="#e31caf"/>
  <path d="m-51.9 233 28.5 6.35 24.1 34-4.08 27.9-25.6-18.4-20.7-34.8z" fill="#e37192"/>
  <path d="m503 337c2.84-3.42 9.5-1.4 9.5-1.4l12 3.27 32.6 24.3-4.04 26.2-33.4-16.2-7.06-14.6s-15.8-14.1-9.5-21.6z" fill="#00aa73"/>
  <path d="m187 445c10.6-2.08 23.3 0.345 31.7 7.13 7.03 5.64 12.6 15.5 11.5 24.5-0.969 8.31-7.71 16.9-15.6 19.6-11 3.8-34-8.15-34-8.15s-24.7-11.2-24-22c0.825-12.3 18.3-18.8 30.4-21.1z" fill="#55e345"/>
  <path d="m451 499c8.23-7.46 24.2 12.4 24.2 12.4l0.43 0.334 34.6 26.9-11.8 16.3-19 15.6-19.3-29.5-10.2-29.3s-2.72-9.35 1.02-12.7z" fill="#e3006f"/>
  <path d="m86.9-50 14.6-13.7 19.3 17.6 5.01 36.9-4.68 9.17s-5.98 7.67-11.6 8.95c-8.29 1.88-16.5-8.95-16.5-8.95l-12.5-9.53z" fill="#1ce39d"/>
  <path d="m361-16.4 23.1 4.88 13.1 13.8s-3.66 20.2-11.2 25.7c-5.17 3.77-12.7 2.51-19.1 1.93-14.3-1.31-39-7.49-36.2-12.7 4.12-7.58 13.3-17.2 13.3-17.2z" fill="#aa0016"/>
  <path d="m12.9 132c-1.15-6.99 4.49-16.3 9.09-19.2 2.75-1.71 16.9 6.75 17.6 7.69 12.2 15.5 26.7 23.9 35.5 43.4 6.29 13.8-12.9 40.3-28.3 38.8-7.36-0.718-2.51-22.6-5.42-29.4-5.19-12.1-10.7-20.5-18.8-31.2-0.132-0.173-0.28-0.346-0.443-0.517-2.53-2.67-8.54-5.2-9.25-9.51z" fill="#0038dc"/>
  <path d="m497 128c4.55-0.174 15.1 1.53 15.1 1.53l15 4.11-15 16s-7.05 7.98-10.9 11.6c-8.04 7.48-14.6 20.2-25.6 20.8-5 0.258-10.1-3.87-12.6-8.24-7.31-13-7.66-35.2-1.49-44.7 7.18-11 21.5-0.508 35.5-1.04z" fill="#e3388e"/>
  <path d="m359 442c6.19 0.868 17.9 31.8 17.9 31.8s2.85 12.3-2.48 16.6c-7.03 5.64-23.2-2.67-23.2-2.67s-18.7-3.96-18.7-13.6c-0.0492-13.2 13.1-34 26.5-32.2z" fill="#aae33b"/>
  <path d="m197 500c9.16-2.47 18.5-3.29 24.2 3.58 1.7 2.02 2.14 8.25 2.14 8.25l-0.196 6.79-13.3 39.9-7.78-2.98-37.4-30.4 15.6-13.3s10.2-10.1 16.6-11.8z" fill="#550029"/>
  <path d="m144-36 38.5 18.1-15 17.9s-7.68 9.29-12.5 11.2c-8.93 3.52-18.5 5.08-23.8-1.88-1.71-2.25-0.886-9.31-0.886-9.31l5.04-30.8z" fill="#38e3df"/>
  <path d="m393 31.5c-1.77-7.01 4.15-14.1 8.78-19.8 4.14-5.15 15.5-11.6 15.5-11.6l11.1-7.05 31.9 48.6s12.7 23.1 4.58 27.9c-15.6 9.33-38.7-14.5-54.1-24.2-6.34-4.01-16-6.52-17.8-13.8z" fill="#c700b4"/>
  <path d="m-5.02 315 11.3-12.7 25.7-8.73 24.8 23-13 25.3-42-12.8-1.68-3.53z" fill="#008ebf"/>
  <path d="m458 278c10.6-1.94 15.1-1.17 28 16.1 2.46 3.29 21.6 18.1 19.4 28.4-0.655 3.06-7.9 7.5-12.9 9.43-4.21 1.62-9.97 3.17-14.5 1.44-15.9-6.08-34.1-20.6-34.6-37.7-0.214-7.65 7.02-16.4 14.5-17.7z" fill="#e38e16"/>
  <path d="m-54.2 475 39.9 3.59 31.6 25.6 4.85 5.94-17.3 17.4-55.1-29.8z" fill="#e3e3c9"/>
  <path d="m417 433s26-6.6 33.9 1.52c7.99 8.25 0.463 34.4 0.463 34.4l-8.5 18.9-6.21 6.11s-21.9 16.4-34 14.2c-6.37-1.14-14.2-13.2-14.2-13.2s-9.04-18.1-6.53-27c4.48-15.9 35.1-34.9 35.1-34.9z" fill="#c7e30d"/>
  <path d="m238-35.6 35.3-15.2 27 15.5 0.782 35.2s-0.425 7.12-2.19 9.57c-3.37 4.68-20.4 3.51-23.9 3.91-22.5 2.51-34.5-12.2-34.5-12.2l-11.1-12z" fill="#71e3d0"/>
  <path d="m29.9 0.189 0.149-0.189 2.32-2.94 20.7-20 11.7 3.96 16.6 19s15.6 16.4 16.5 27.5c0.284 3.72-6.05 9.07-10.8 10.8-5.36 1.97-11.9 0.91-17.1-1.38-16.6-7.26-40-36.8-40-36.8z" fill="#1c0024"/>
  <path d="m17.2 151c15.7-3.27 26.2 53.4 19 56.5 0 0-8.4-1.62-12.8-3.14-8.3-2.84-23.4-12.3-23.4-12.3l-20.6-13.1 20.6-15.4s10.2-6.53 17.2-12.5z" fill="#005528"/>
  <path d="m485 185c9.45 7.18 26.7 15.8 26.7 15.8l14.7 6.21-13 27.9-1.76-0.238s-33.9-2.25-43.6-12.1c-5.69-5.81-2.22-9.82-0.17-17.7 1.48-5.67 10.1-25.2 17.1-19.9z" fill="#e355c7"/>
  <path d="m-32.7 343 10.8-5.21 21.9 33.9s10.3 15.3 20.1 21c5.52 3.21 6.5 11 2.26 15.9-4.41 5.09-22.4 6.6-22.4 6.6l-40.3 6.18-12.9 1.37 13.5-62.4z" fill="#e3aac9"/>
  <path d="m64.3 439c9.47-4.09 22.7 4.78 32.7 10.2 11.6 6.27 26.4 13.5 30.7 25.1 3.29 8.83-2.04 28.2-2.04 28.2l-12.6 24.7-20.3-15.5s-49-35.9-50.9-40.8c-5.07-12.7 12.4-27.6 22.3-31.9z" fill="#1ce39d"/>
  <path d="m364 498c7.56-2.17 13.4-1.27 20.2 2.55 4.63 2.58 11 11.5 11 11.5l2.15 2.25-11.2 25.7-19.1 1.93-41.4-12 18.5-17.8s12.3-11.9 19.8-14.1z" fill="#aa0016"/>
  <path d="m-54.2-37.1 39.9 3.59 31.6 25.6 4.85 5.94-1.93 1.95s17.3 19.1 9.68 24.1c-7.74 5.04-29.9-11.2-29.9-11.2l-50.2-27.1z" fill="#e3e3c9"/>
  <path d="m271 16.4s23.4 3.93 25 13.2c2.19 12.6-25.7 28.3-25.7 28.3s-29.6 9.17-39.7 0.677c-9.72-8.14-13.8-27.5-6.04-37.5 9.49-12.3 46.4-4.62 46.4-4.62z" fill="#710098"/>
  <path d="m502 61.5c1.09-6.72 10.1-11.6 10.1-11.6l10.4-5.52 33.8 35.2-7.42 29.5-1.82 1.62-11.2-7.47-23.7-24.9s-11.4-8.22-10.1-16.8z" fill="#001c34"/>
  <path d="m42.4 212s-22.4 10.3-28.7 20.1c-7.36 11.4-12.2 27.2-7.62 39.9 2.96 8.26 9.39 10.4 18.1 11.7 16.7 2.48 37-13.8 48.8-14.5 12.8-0.712 23.9-11.6 30.7-17.6 4.14-3.65 6.16-8.87 6.05-15.7-0.034-2.23-15.8-10.3-48.7-19.6-5-1.4-13.5-7.36-18.5-4.46z" fill="#0e712e"/>
  <path d="m460 233c6.74-5.85 17.6 2.15 25.7 7.54 11.2 7.46 26.2 31.8 26.2 31.8l0.733 1.03-0.733 5s-1.76 16.4-8.84 19.4c-9.68 4.11-13-7.19-20.1-14.9-9.13-9.95-16-22.2-20.7-34.8-1.73-4.61-5.48-10.7-2.64-14.5 0.133-0.18 0.284-0.344 0.454-0.492z" fill="#e37192"/>
  <path d="m-52.4 429 52.4-6.99s14.2-2.03 20.5-1.33c4.78 0.537 11.7 3.88 11.7 3.88 11.4 4.26 17 8.85 15 20.9-2.83 17.1-47.1 22.3-47.1 22.3l-5.6 5.73-46.2-7.54-1.61-33.9z" fill="#e3c7ec"/>
  <path d="m238 476c8.73-9.39 22.6-16.4 35.3-15.2 9.12 0.877 17.4 6.53 22.7 15.5 5.99 10.1 5.03 35.3 5.03 35.3l0.202 9.07-3.41 10-57.4-17.8-1.23-1.32s-6.62-7.47-7.62-12.2c-1.82-8.61 0.347-16.9 6.34-23.4z" fill="#71e3d0"/>
  <path d="m29.9 512 0.149-0.189s-16-16.1-21.2-25.3c-3.49-6.12 2.35-17.9 10.2-18.5 12.7-0.972 30.2 14 43.8 24.8 6.56 5.25 18.6 19 18.6 19l22.1 25.3-6 9.46-27.5 2.24z" fill="#1c0024"/>
  <path d="m68.3 63c8.29-8.29 12.2-16.5 20.7-18.9 8.61-2.42 14.6-0.829 18.1 4.78 3.53 5.73 4.98 17.1 4.37 34.3-0.63 17.5-12.1 25.9-34.3 25.3-22.7-0.642-32.6-6.76-29.8-18.4 2.89-11.9 12.8-19 20.9-27.1z" fill="#1c1c7e"/>
  <path d="m379 115q1.36-0.324 2.35 0.169 0.179 0.089 20.3 44.2 3.64 7.96-12.5 30.4-2.92 4.06-35.9-17.9-5.96-3.96 14.6-47.3 3.71-7.83 11.2-9.62z" fill="#aa38cf"/>
  <path d="m161 197q10.9-18.4 17.4-19.1 31.4-3.5 34.8 3.46 16.8 33.8 9.71 38-34.6 20.3-39.6 13.7-24.6-32.2-22.3-36z" fill="#553"/>
  <path d="m315 298c10.1-2.61 15.7-0.721 16.7 5.66 4.09 24.4 3.18 36.2-2.75 35.5-22.7-2.95-30.9 5.62-34.7-0.607s5.08-19.8 7.36-24.4c8.75-17.7 10.7-15.4 13.3-16.1z" fill="#8e8e3c"/>
  <path d="m148 338c-9.79 0.992-10.6 2.85-26 8.67-2.29 0.861-6.95 8.92-14 24.2-0.976 2.12-1.49 23.2 5.97 30.2 9.83 9.27 14.1 4.35 40.2 5.54 25.3 0.818 39.9-9.92 56-9.98 16.1-0.0598 13.8-9.48 15.5-16.9 3.18-13.3-0.0107-31.6-11.1-39.6-9.51-6.85-12.4 0.152-35.1 1.7 0.414 0.198-21.6-4.76-31.4-3.77z" fill="#47aa1d"/>
  <path d="m359 398q36.3-28.5 38.7-26.1 53.4 53.8 53.4 53.9 0.048 0.39 1e-3 0.487-1.04 2.15-2.51 2.09-32.6-1.29-34.7-1.8-47.7-11.4-48.1-12.1-8.43-15.2-6.8-16.5z" fill="#c7c716"/>
  <path d="m118 83.7c-0.664 18.4-2.09 20.3 0.323 24.4 9.18 15.9 23.1 32 34.7 42.4 4.19 3.72 7 1.93 21.5-23.2 7.27-9.99 8.01-10.4 2.22-19.9-5.79-9.54-30-38.2-49.6-43.1-14.1-9.92-8.12 2.8-9.06 19.4z" fill="#382a1b"/>
  <path d="m416 112q33.9-3.37 36.6 1.04 3.1 5.19 1.04 26.9-2.43 25.5-21 26.2-21.8 0.791-32.7-23.1-12.8-28.1 16-31z" fill="#c73876"/>
  <path d="m217 169q3.05-4.71 33-2.65 39.4 2.71 23.7 26-20.6 30.7-28.4 26.5-10.3-5.54-19-23.1-11.5-23.1-9.22-26.7z" fill="#71556f"/>
  <path d="m346 286q3.3-1.9 26.3-3.48 6.12-0.421 11.3 29.2 1.36 7.86-31.3 25.7-8.67 4.74-10.5 2.5-0.494-0.597-6.62-37.1-1.63-9.69 10.8-16.8z" fill="#aa8ec2"/>
  <path d="m316 102c3.74 3.74-14.7 39.7-25.8 34.6-18.5-8.45-32.6-6.86-38.2-20.1-3.46-8.26 0.0449-21.1 7.72-25.7 16.4-9.86 52.6 7.5 56.3 11.2z" fill="#711cea"/>
  <path d="m46.9 113c5.05-9.93 7.17 0.698 28.1 1.29 23.9 0.677 37.5 2.82 40.6 6.43 3.62 4.12 5.51 6.68 5.69 7.68 0.2 1.14-3.95 7.23-12.5 18.3-9.7 12.6-16.6 18.9-20.6 19.1-4.62 0.135-13.1-7.7-25.4-23.5-14.1-18-21-19.3-16-29.2z" fill="#1c3877"/>
  <path d="m338 176q7.4-2.1 33.2 15 13.1 8.73 14 24.9 0.431 8.23-38.7 0.658-19.9-3.86-22-25.5-1.04-11 13.5-15.1z" fill="#aa55a4"/>
  <path d="m211 232q22.4-13.2 30.8-8.66 9.72 5.24 10.9 7.24 1.36 2.32-18.7 22.5-23.3 23.5-34.1 16.7-12.5-7.8-10.5-16.5 2.34-10 21.6-21.4z" fill="#557176"/>
  <path d="m324 343q14 1.82 15.6 3.74 0.77 0.93 0.289 30.7-0.234 14.4-27.1 15.1-13 0.335-17.1-4.08-1.96-2.15-1.06-33.8 0.438-15.4 29.3-11.6z" fill="#8eaaa7"/>
  <path d="m142 413q17.4 0.794 25.3 17.7 5.03 10.8-12.4 28.3-11.2 11.2-16.4 12.4-3.36 0.795-21.4-16.5-11.5-11.1-5.87-30.6 3.62-12.5 30.8-11.3z" fill="#38c798"/>
  <path d="m323 105q1.88-0.887 18.4 4.24 24.6 7.62 14.9 28.2-14.5 30.6-23.3 33.1-13.1 3.72-21.3-0.526-12.2-6.31-13-13.6-1.06-10.9 8.65-26.9 14.5-23.9 15.7-24.5z" fill="#8e3868"/>
  <path d="m100 169c17.7-23 19-34 27.4-33.8 7.06 0.224 29.6 26.3 29.8 26.5 6.23 9.35 9.23 14.2 9 14.6-8.55 14.4-13.1 21.7-13.6 21.9-18.4 8.53-27.8 12.4-28.2 11.7-16.8-26.7-24.9-40.4-24.4-41z" fill="#385512"/>
  <path d="m399 252q1.43-3.52 45.1-14.8 8-2.06 17.1 23.7 1.67 4.72-20.3 26.7-4.04 4.04-42.6-13.3-7.07-3.17 0.719-22.4z" fill="#c771ce"/>
  <path d="m269 276c-15.7 12.3-42.1 46.4-42.9 61.5-1.01 28.4 11.8 39.2 12.5 39.3 32.7 4.93 31.3 9.97 42.3 1.15 11.6-13.9 6.66-33.4 9.63-50 0.146-0.0945 0.262-0.201 0.324-0.328 9.81-19.9 13.4-30.8 10.9-32.7-17.1-12.9-24.1-25.7-32.7-19z" fill="#719ce3"/>
  <path d="m71.4 328q36.8 13.3 37.2 13.6 4.13 3.92 3.08 6.2-11 23.8-14.6 24.2-38.1 3.95-39.4 1.7-13.3-23.5-11.2-25.5 21.4-21.4 25-20.2z" fill="#1caa20"/>
  <path d="m363 420c7.79-6.94 14.3 0.748 42.6 7.51 4.99 1.2-2.45 11.7-22.3 31.6-3.51 3.51-9.87-3.08-19.1-19.8-1.63-2.95-8.96-12.4-1.17-19.3z" fill="#aac7cf"/>
  <path d="m372 36.1q14.1-2 14.5-1 1.18 3.77-0.582 18.1-6.68 54.3-8.53 54.7-7.03 1.67-15.6-0.992-32.5-10.1-32.6-14.5-0.154-16.6 8.06-24.8 31-31 34.8-31.6z" fill="#aa1c3c"/>
  <path d="m207 130q11.9 12.7 9.88 23.6-1.39 7.64-4.54 12.5-2.21 3.42-24.5 5.9-15.6 1.74-21.2-6.72-3.95-5.93 12.1-33.9 11.3-19.6 28.2-1.42z" fill="#553893"/>
  <path d="m276 242q38.3-8.88 41.9-3.49 27.3 40.9 25.5 42-13.9 7.99-16.1 8.56-16.8 4.36-20.8 1.36-30.2-22.8-30.9-25.6-4.65-21.6 0.403-22.8z" fill="#8e7127"/>
  <path d="m97.6 268q17.3-15.3 28.3-6.02 24.4 20.7 22.7 35.4-3.73 32.9-12.5 36.1-19.5 7.32-20.9 5.99-3.12-2.96-10-22.1-15.4-42.6-7.63-49.4z" fill="#388e53"/>
  <path d="m401 355q2.87-8.53 38.8-8.88 30-0.296 21 41-7.49 34.4-37.9 3.74-25.4-25.6-21.9-35.8z" fill="#c7aa89"/>
  <path d="m228 396q9.5-11.7 27.6-8.99 31.9 4.82 34.1 7.2 3.83 4.19-1.66 23.5-9.68 34.2-24 38.9-25.3 8.34-32-0.164-11.9-15-11-29.1 1.59-24.8 6.97-31.4z" fill="#71c75f"/>
  <path d="m296 170q0.129-0.08 19.2 9.74 1.42 0.731 4.29 31.1 0.214 2.26-6.96 15.2-0.534 0.965-40.9 10.3-3 0.696-10.6-6.46-0.563-0.533-2.92-4.55-0.175-0.299 33.6-50.6 2.52-3.74 4.24-4.82z" fill="#8e55e2"/>
  <path d="m124 222q2.46-4.3 22.9-13.8 7.87-3.66 29.2 24.4 8.24 10.8 5.1 24.3-1.21 5.2-20.6 15.7-7.47 4.03-33-17.6-9.83-8.33-9.98-18.1-0.058-3.77 6.33-14.9z" fill="#3871b2"/>
  <path d="m388 279c1.59-1.68 10.5 1.13 26.8 8.44 14.1 6.35 23 20.6 36.2 34.2 11.5 11.8 22.1 8.08 19.5 16.1-3.83 12-14 2.38-37.6 2.61-20.4 0.202-32.6-3.49-36.3-11.1-3.29-6.59-6.09-16.6-8.41-29.9-2.02-11.6-2.11-18.4-0.279-20.3z" fill="#c78e87"/>
  <path d="m42.2 395c14.3-14.3 18.2-12.9 23.8-13.5 22.2-2.3 33.9-1.37 35 2.8 4.5 16.3 6.12 26.7 4.87 31-4.92 17-2.23 12.2-6.48 16.1-4.25 3.92-7.43 8.43-16.6 5.16-35.9-12.8-55.2-18.9-55.4-23.9-0.691-17.1 12-14.9 14.7-17.7z" fill="#1cc73b"/>
  <path d="m414 54c26.9 16.6 39.6 27.8 38.1 33.6-2.84 10.7-11.6 16.8-26.2 18.2-27.3 2.71-31.5 13.6-41.3 3.86-5.78-5.75 0.223-8.37 2.19-24.4 3.66-29.8 12.7-40.2 27.2-31.3z" fill="#c71c5c"/>
  <path d="m226 142c16.2-15.2 10.2-15.8 24-16.9 13.7-1.09 41.9 21.1 41.9 21.2 1.17 12 1.75 18 1.74 18-1.22 0.763-2.05 1.13-2.49 1.1-45.8-3.15-68.7-4.79-68.6-4.9 2.23-12.2 3.42-18.4 3.57-18.6z" fill="#71380e"/>
  <path d="m88.2 172c4.36-0.127 10.8 6.63 19.4 20.3 8.65 13.8 11.5 23.3 8.58 28.4-2.97 5.18-15.2 4.2-36.6-2.94-21.7-7.22-20.5-10.5-9.03-22 11.6-11.6 13.4-23.6 17.7-23.7z" fill="#1c557e"/>
  <path d="m322 227q5.22-9.44 24.3-5.75 40 7.74 42.5 13.8 5.19 12.6 2.22 20-6.24 15.4-7.9 17.1-3.47 3.68-12.9 4.33-19.8 1.36-29.7-13.6-21-31.4-18.5-35.9z" fill="#aa7156"/>
  <path d="m170 277c9.46-5.11 17.9-5.38 25.2-0.814 8.22 5.11 15.2 12.6 20.9 22.3 10.9 19.2 4.43 16.8 3.7 25.2-4.43 6.55-14.3 10.4-29.5 11.5-17.1 1.22-27.6 0.954-31.6-0.803-4.47-1.97-5.85-10.4-4.15-25.4 1.9-16.8 7.07-27.4 15.5-32z" fill="#558e78"/>
  <path d="m331 398q9.7-0.249 16 2 2.04 0.722 8.71 12.7 2.14 3.86 1.01 17.1-0.361 4.26-28.7 32.6-9.08 9.08-15.6 10-2.08 0.295-20.9-15.2-6.03-4.97 5.45-45.5 3.68-13 33.9-13.8z" fill="#8ec7ba"/>
  <path d="m304 45.5c12.1 20.7 18.2 32.6 18.2 35.6 0.101 10.9 4.08 13.6-0.533 16.7-7.19 4.89-15.6-5.78-24.6-8.79-32-10.8-54.4-14.8-36.9-22 11.7-4.79 38-29.8 43.8-21.6z" fill="#8e1c3e"/>
  <path d="m431 173q20.3-0.736 27.3 7.32 7.11 8.14 2.63 26.8-4.53 18.9-6.5 20.9-2 2-27.7 8.62-26 6.7-29.8-2.58-3.85-9.37-4.49-21.5-0.643-12.3 8.85-25.5 9.6-13.3 29.6-14.1z" fill="#c7557e"/>
  <path d="m260 239q4.37 4.13 6.8 15.4 2.83 13.1-15 32.8-20.7 22.9-29.1 8.52-9.8-16.7 10.2-36.9 23.3-23.5 27-19.9z" fill="#717176"/>
  <path d="m47.8 286q8.21-8.21 18.4-9.18 18.7-1.78 26.6 20 14.4 40 0.234 34.8-26.1-9.41-34.4-20.6-15.2-20.6-10.8-25z" fill="#1c8e5d"/>
  <path d="m364 337q22.2-12.2 27.1-2.36 5.71 11.4 2.79 20.1-3.4 10.1-20.9 23.8-20.4 16-24.3 14.6-4.51-1.6-4.18-22 0.385-23.8 19.5-34.2z" fill="#aaaa76"/>
  <path d="m171 412c5.85-7.76 14-3.51 21.3-6.05 12.9-4.47 26.5-10.6 26.1-3.04-1.18 18.3-8.14 37.9-15.2 37.5-17-0.849-26.7-3.99-29.2-9.41-6.08-13.1-5.37-15.8-2.95-19z" fill="#55c74f"/>
 </g>
</svg>
