<?xml version="1.0" encoding="UTF-8"?>
<svg width="512px" height="512px" contentScriptType="text/ecmascript" contentStyleType="text/css" version="1.1" viewBox="0 0 512 512" xmlns="http://www.w3.org/2000/svg">
 <g class="voronoi" stroke-width=".5">
  <path d="m458-37.1 39.9 3.59 31.6 25.6 4.85 5.94-17.3 17.4-55.1-29.8z" fill="#e3e3c9"/>
  <path d="m242 8c-4.9-0.0817-9.93 1.23-14.4 5.77-10.5 10.6-12.6 26.8-10.4 34.6 2.34 8.35 43.2 25.1 66.6 33.4 12.2 4.32 34.4 19 37.8 8.36 7.29-22.6 40.5-45.6 38.4-53.3-3.54-13.3-29-13.1-42.6-14.9-7.7-1.29-15.3 0.495-22.8 1.36-13.8 1.56-22-9.25-35.9-11.9-4.39-0.833-10.5-3.24-16.8-3.35z" fill="#8000b3"/>
  <path d="m-13.2 126 28.2 7.71-26 27.6-25.6 20.8-12.6-8.24-3.62-33.7z" fill="#e3388e"/>
  <path d="m20.6 422c-6.81-0.998-20.6 0.416-20.6 0.416l-52.4 6.99-1.05 3.02 1.61 33.9 46.2 7.54 5.6-5.73 0.342-0.35c4.82 2 34.2 14 51.2 15.3 4.5 0.328 9.53 0.367 13.4-1.99 12.7-7.79 28-29.8 26-36.5-1.84-6.22-45.9-19-70.3-22.6z" fill="#e3c7ec"/>
  <path d="m488 425c7.79-1.42 23.5-3.34 23.5-3.34l18.6-2.48 2.17 0.445 0.978 25.5-21.8 22.3s-5.1 6.63-8.4 6.57c-13.3-0.224-40.7-4.71-43.4-8.38-6.79-9.05-1.2-24.6 5.66-33.5 6.2-8.12 12.6-5.19 22.7-7.02z" fill="#e3c7ec"/>
  <path d="m318 479c12.6 0.0436 42.6 11.8 32.3 19.7-6.9 5.28-14.8 13.2-14.8 13.2l-13.1 14.8-14.4 1.9 0.707-16.7s-1.13-19.5 3.64-27.6c1.62-2.72 2.52-5.3 5.69-5.29z" fill="#8ee3e0"/>
  <path d="m28 10.9c-9.44 0.844-16.4 2.1-17.7 11.5-1.13 8.01 9.64 24.2 9.64 24.2 16.3 27.2 27.4 61.3 55 62.4 20.5 0.581 31.7 0.147 33.5-1.3 1.75-1.41 6.62-12.4 7.2-28.3 0.565-15.6-4.63-24.1-8.16-29.8-26.9-12.4-52-40.4-79.4-38.6z" fill="#0e0e8d"/>
  <path d="m445-14.3 30.2 14 0.43 0.334s16.4 6.64 30.6 13.7c9.62 4.77-0.386 36.3-4.5 36-19.2 1.98-53.8-21.1-50.2-32.3 3.23-9.87-1.57-17.4-1.57-17.4z" fill="#e3006f"/>
  <path d="m-32 187 32 13.5s10.9 4.8 12.9 9.78c3.7 9.57-11.1 24.4-11.1 24.4l-42.8-5.79-1.28-33.1z" fill="#e355c7"/>
  <path d="m509 316c0.353-2.5 3.16-6.6 3.16-6.6l6.24-7.05 25.7-8.73 24.8 23-13 25.3-42-12.8-1.68-3.53s-3.71-5.78-3.16-9.64z" fill="#008ebf"/>
  <path d="m458 475c9.04-9.85 29.7 2.34 38.7 6 9.04 3.66 15.5 9.15 15.5 9.15l17.3 14 4.85 5.94-17.3 17.4-28.7-15.5s-17.9-9.19-23.8-17.3c-4.51-6.25-11.9-14.1-6.73-19.7z" fill="#e3e3c9"/>
  <path d="m318-32.9 34.7 13.3-17.3 19.5s-7.06 12.2-13.1 14.8c-4.48 1.96-15 4.48-14.7-0.332 0.371-5.65 1.02-14.5 1.02-14.5l1.18-28z" fill="#8ee3e0"/>
  <path d="m122 16.8c-5.85-0.0285-9.53 7.7-11.6 13.2-1.36 3.64-1.77 8.23 0.0527 11.7 4.65 8.73 16 11.7 24.5 16.7 7.66 4.41 19.1 11.9 26.5 20.3 10.5 11.8 11.9 30.7 24.1 40.7 9.23 7.59 22.1 14.6 33.8 12 12.7-2.89 21.8-15.9 27.4-27.6 3.58-7.34 6.49-16.9 3.04-24.3-6.59-14.1-29.6-19.5-39.3-25.3-21-12.6-27.9-22.1-47.2-34.1-7.66-4.77-27.4-3-41.5-3.07z" fill="#470ebf"/>
  <path d="m-41.1 70.8 11-5.22 30.2 23.4s7.34 6.45 12.4 9.6c4.62 2.9 14.8 11.2 9.82 17.3-4.09 5.03-22.2 3.96-22.2 3.96l-31.6-2.72-23.3-10.1 3-20.3z" fill="#e31caf"/>
  <path d="m533 148 16.4 59.2-1.36 0.59-14-1.31-22.2-14.1s-8.85-3.53-9.16-11.7c-0.326-8.58 9.16-16.9 9.16-16.9z" fill="#005528"/>
  <path d="m-12.9 332 12.9 3.52s7.39 2.68 12 3.27c10.9 1.4 28 0.734 29.7 14.2 1.58 12.4-8.12 39.6-20.6 39.4-7.93-0.182-9.94-12.4-14-19.2-2.78-4.63-7.06-14.6-7.06-14.6z" fill="#00aa73"/>
  <path d="m472 343c3.81-1.19 11.3-5.98 15.1-4.9 13 3.63 24.9 33.6 24.9 33.6l14.3 22.1 5.66 18.3-60.2 9.24s-46.4 16.7-45.9 1.37c0.797-27.6-5.44-55.8 11.9-73.2 9.62-9.62 20.9-2.36 34.2-6.56z" fill="#e3aac9"/>
  <path d="m140 476c11.8 7.13 56.2 17.5 48.6 21.1-14 6.65-21.5 14.4-21.5 14.4l-9.94 11.9-28.6-3.55 1.37-8.35s2.33-7.14 0.184-21c-0.515-3.34 5.67-17 9.88-14.5z" fill="#38e3df"/>
  <path d="m393 543 7.56-20.8 16.7-10.6s6.29-4.82 10.6-3.89c2.75 0.592 5.16 3.89 5.16 3.89l27.3 41.5-0.753 28.4-48.8-24.7z" fill="#c700b4"/>
  <path d="m195-13 28 5.11-0.229 7.92s0.236 4.57-0.196 6.79c-2.18 11.2-0.616 11.3-8.96 25-1.45 2.37-6.5 11.9-9.59 10.4-14.9-7.19-38-28.8-34.5-32.4 4.68-4.86 10.2-9.76 10.2-9.76z" fill="#550029"/>
  <path d="m-18 59.4 18-9.57s9.29-3.86 13.2-1.75c19.4 10.5 33.2 57.8 28.8 59.6 0 0-4.54 3.18-7.08 2.93-4.46-0.439-11.2-7.47-11.2-7.47l-23.7-24.9z" fill="#001c34"/>
  <path d="m487 54.1c8.25-0.736 10.8 11 13.4 18 2.26 5.92 11.2 16.9 11.2 16.9l12.5 9.69 6.92 22.9-19.4-1.67s-21.3-2.63-31.6-2.72c-9.68-0.0894-21-7.26-25.1-14.7-3.32-5.98 1.99-9.53 4.79-15.8 5.8-12.9 14.7-31.5 27.3-32.7z" fill="#e31caf"/>
  <path d="m-51.9 233 28.5 6.35 23.4 33s0.634 0.622 0.733 1.03c0.393 1.64-0.733 5-0.733 5l-3.35 22.9-25.6-18.4-20.7-34.8z" fill="#e37192"/>
  <path d="m506 337c2.84-3.42 6.5-2.03 6.5-2.03l12 3.27 32.6 24.3-4.04 26.2-33.4-16.2-7.06-14.6s-12.8-13.4-6.5-21z" fill="#00aa73"/>
  <path d="m239 379c-9.21 2.9-15.3 11.1-25.8 16.2-2.74 1.35-18.6 4.43-22.6 5.27-7.17 1.5-18.2 5.38-22.5 12.8-3.97 6.82 2.44 17.3-0.0479 23.7 0 0-15.8 25.3-13.4 35.4 2.46 10.6 26.1 15.6 26.1 15.6s38.4 13 42 1.88c6.5-20.1 27.9-20.6 44-35.9 6.78-6.45 15.1-15.5 20.2-33.7 3.22-11.4 4.39-18.7 3.52-21.9-2.77-4.36-5.32-9.28-10.6-10.3-17.4-3.28-24.8-14.2-40.9-9.14z" fill="#5ed084"/>
  <path d="m451 504c8.23-7.46 24.3 7.79 24.3 7.79l0.43 0.334 34.6 26.9-11.8 16.3-19 15.6-19.3-29.5-10.2-29.3s-2.73-4.74 1.01-8.13z" fill="#e3006f"/>
  <path d="m86.9-50 14.6-13.7 19.3 17.6 5.01 36.9-4.68 9.17s-4.63 10.3-5.82 17.7c-0.714 4.4-13.3 1.18-13-3.27 0.288-4.09-9.37-14.4-9.37-14.4l-12.5-9.53z" fill="#1ce39d"/>
  <path d="m361-16.4 23.1 4.88 11 11.5s1.83 1.98 2.01 3c1.63 9.2-3.52 19.4-11.1 24.9-5.17 3.77-12.7 2.51-19.1 1.93-14.3-1.31-24.8-3.6-28.3-17.5-2.06-8.31 5.39-12.3 5.39-12.3z" fill="#aa0016"/>
  <g>
   <path d="m49.3 114c-12.9 0.866-28.1 5-27.3 17.4l0.656 10.8s13.8 48.6 21.7 61c7 11 24.7 10.4 36.4 14.3 22.2 7.38 32.1 1.73 29.9-16.9-2.17-18.5-0.427-24.7-4.49-28.7-6.93-2.64-7.07 0.927-6.34-11.2 0.304-5.06 6.82-15 4.11-21.9-4.92-12.6-10.5-23.7-32.6-24.3-9.69-0.274-17-0.401-22-0.379z" fill="#13429b"/>
   <path d="m499 126c-14.5-2.85-51.7 23.8-75.2 24.1-12.5 3.89-8.35 28-13.6 34.1-6.23 7.44-8.8 17.5-2.19 31.7 6.54 14.1 18 20.6 29 17.8 10.8-2.79 17.6-1.76 24.1-7.11 7.91-6.55 7.01-19.9 14-27.4 5.04-5.36 15.6-5.65 19-11.2 5.46-8.93 18.1-38.3 18.1-38.3l15-16-15-4.11s-8.72-2.72-13.2-3.6z" fill="#e3388e"/>
   <path d="m417 433c-15.5 5.48-37 32.7-37 32.7-8.6 7.6-41.5 2.51-40.6 12.3s45.2 25.8 63.2 30.1c12.1 2.16 46.6-10.1 46.6-10.1 8.01-6.27-2-20.1 2.06-29.1 3.97-8.81 7.07-25.8-0.463-34.4-2.97-3.42-23.2-5.28-33.9-1.52z" fill="#b9e324"/>
  </g>
  <path d="m195 499 28 5.11-0.229 7.92-0.196 6.79-13.3 39.9-7.78-2.98-37.4-30.4 15.6-13.3z" fill="#550029"/>
  <path d="m144-36 38.5 18.1-15 17.9s-8.49 7.95-13.3 9.84c-8.93 3.52-18.7 5.44-24-1.14-1.76-2.2 0.126-8.7 0.126-8.7l5.04-30.8z" fill="#38e3df"/>
  <path d="m393 31.5c0.254-7.39 4.58-14.4 9.21-20.2 4.14-5.15 15.1-11.3 15.1-11.3l11.1-7.05 4.63 7.05s23.2 32.1 34.2 48c8.49 12.2-5.56 30.3-11.1 38-6.4 8.84-40.2-24.4-57.6-35.1-5.79-3.56-5.82-12.7-5.58-19.5z" fill="#c700b4"/>
  <path d="m-5.02 315 5.02-5.68s9.63-14.5 13.2-18.2c8.5-8.88 25.9 10.5 34.8 12.3 11 2.35 7.01 7.49 7.31 12.7 0.535 9.48-2.21 25.6-11.6 25.7-8.67 0.106-25.6-4.69-38.9-10.5-2.01-0.875-4.75-5.85-4.75-5.85z" fill="#008ebf"/>
  <path d="m465 274c9.18 0 15.1 7.53 27.4 18.8 3.03 2.77 13.9 11.5 13.5 19.4-0.393 7.68-8.56 13.4-15.1 17.5-3.83 2.39-19-4.11-28-10.9-6.89-5.2-20.1-13.2-19.3-23.3 0.867-11.7 9.81-21.4 21.5-21.4z" fill="#e38e16"/>
  <path d="m-54.2 475 39.9 3.59 14.3 11.6s15.2 6.15 28.6-6.45c5.23-4.9 9.88 5.84 9.28 11.1-0.887 7.8-17.7 17.2-17.7 17.2l-15.4 15.5-55.1-29.8z" fill="#e3e3c9"/>
  <path d="m238-35.6 35.3-15.2 27 15.5 0.782 35.2 0.202 9.07s-0.306 8.34-3.41 10c-14.9 8.16-36.5-16.9-49.6-12.3-3.55 1.23-9.03-6.77-9.03-6.77l-9.91-10.7z" fill="#71e3d0"/>
  <path d="m29.9 0.189 0.149-0.189 2.32-2.94 20.7-20 11.7 3.96 16.6 19s15.1 15.8 27.2 26.2c1.68 1.44-6.24 3.95-9.73 3.9-25.1-0.355-46.9-17.5-69-29.9z" fill="#1c0024"/>
  <path d="m19.6 157c9.1 9.71 22.5 51.7 16.6 51.1 0 0-9.49-1.98-13.9-3.49-8.3-2.84-22.3-11.9-22.3-11.9l-20.6-13.1 20.6-15.4s15.2-11.8 19.6-7.17z" fill="#005528"/>
  <path d="m498 196c4.82 0.805 13.9 4.76 13.9 4.76l14.7 6.21-13 27.9-1.76-0.238s-28.2 1.65-35.8-9.89c-4.95-7.57-5.45-13.8 2.21-21.8 6.57-6.83 10.4-8.56 19.7-6.99z" fill="#e355c7"/>
  <path d="m-32.7 343 10.8-5.21 36.2 56 5.66 18.3-60.2 9.24-12.9 1.37 13.5-62.4z" fill="#e3aac9"/>
  <path d="m86.9 462c3.12-5.89 7.9-13.7 14.6-13.7 8.71-0.061 15.2 9.92 19.3 17.6 5.76 11 7.37 19 5.29 31.3-0.576 3.38-4.96 14.8-4.96 14.8l-7.9 15.5-20.3-15.5s-15.1-10.8-17.1-15.7c-5.07-12.7 4.65-22.3 11-34.3z" fill="#1ce39d"/>
  <path d="m362 501c9.73-1.9 27.6 5.4 27.6 5.4l5.46 5.15 2.15 2.25-11.2 25.7-19.1 1.93-41.4-12 18.5-17.8s10.9-9.17 18-10.5z" fill="#aa0016"/>
  <path d="m-54.2-37.1 39.9 3.59 31.6 25.6 4.85 5.94-1.93 1.95s-6.98 13-14.2 14.1c-1.83 0.271-6.1-1.25-6.1-1.25l-50.2-27.1z" fill="#e3e3c9"/>
  <path d="m502 60.5c1.09-6.72 10.1-10.6 10.1-10.6l10.4-5.52 33.8 35.2-7.42 29.5-1.82 1.62-11.2-7.47-23.7-24.9s-11.5-9.26-10.1-17.9z" fill="#001c34"/>
  <path d="m22.1 212c-7.59-4.29-8.51 20.5-8.51 20.5s-12.2 27.2-7.62 39.9c2.96 8.26 12.9 12 20.3 16.8 8.8 5.73 28.2 14 28.2 14 2.4 1.19 2.98 5.26 5.13 7.32 8.37 8.02 15.3 13.7 29.3 18.7 7.62 2.74 14.1-8.39 19.5-33.4 2.94-13.6-1.34-13.1-5-18.3-4.27-6-15.2-9.57-18.2-12.5 0 0-41-40.7-63.1-53.2z" fill="#0e8035"/>
  <path d="m460 233c7.13-6.62 36.4 1.41 38.3 10.9 3.37 16.7 13.6 28.4 13.6 28.4l0.733 1.03-0.733 5s-0.659 12.2-7.75 15.2c-9.68 4.11-19.6-15.2-19.6-15.2s-17.6-18.7-22.3-30.4c-1.92-4.68-5.89-11.6-2.19-15z" fill="#e37192"/>
  <path d="m280 464s23.6 9.38 22.5 17.4c-1.72 13-0.893 30.3-0.893 30.3l0.202 9.07-3.41 10-57.4-17.8-11.1-12c-13.5-14.5 33.1-47.3 50.1-37.1z" fill="#71e3d0"/>
  <path d="m29.9 512 0.149-0.189s1.48-2.02 2.32-2.94c4.84-5.31 6.05-13.8 15.6-14.9 5.09-0.572 14.9 0.491 18.3 2.78 6.99 4.68 15.1 15 15.1 15l22.1 25.3-6 9.46-27.5 2.24z" fill="#1c0024"/>
  <path d="m375 120q3.81-1.32 32.5 40.1 5.89 8.5-9.7 27.1-3.2 3.82-40.5-0.718-7.65-0.93-2.04-50 1.15-10.1 19.7-16.5z" fill="#aa38cb"/>
  <path d="m198 180q10.3-1.87 6.61 27.8-1.22 9.69-31.7 16-9.93 2.07-7.46-28.2 0.806-9.89 32.5-15.6z" fill="#5555b9"/>
  <g>
   <path d="m231 286c-4.17-0.108-10.1 1.15-17.9 3.79-11.6 9.55-33.9 27.7-29.5 37.1 7.54 14.9 29.4 40.8 45.3 42.3 8.09 0.772 25.8 3.04 47.4 10.1 4.18 1.36 9.93 6.64 15.4 6.04 23.7-2.63 27.8-19.1 59.3-40.1 2.48-1.66 8.8-3.98 10-4.69 2.39-1.41-9.24-11.2-34.9-29.4-18.3-13-18.6-17.9-30.6-19.3-21.7-2.45-46.1-2.12-64.4-5.83z" fill="#779938"/>
   <path d="m59.6 325c-7.38 2.67 0.151 10.7-13.2 24-1.37 1.37 0.619 3.98-1.84 21.8-3.81 27.6-22.9 20.1-21.4 34.6 1.63 16.2 24.1 18.3 59.9 31.1 9.14 3.27 11 2.86 15.5 0.351 9.49-5.28 7.11-22.7 16.5-28.1 9.67-5.55 19-6.41 33.5-0.113 9.07 3.49 16.5 1.92 22.3-4.72 2.55-2.93-1.34-13.9-11.7-32.9-26.3-21.8-39.2-8.29-54.2-28.1-7.41-11.4-34.5-21.8-45.2-18z" fill="#25b43a"/>
   <path d="m370 344c-1.55-0.0347-3.67 0.745-6.37 2.34-3.04 1.79-14 9.45-32.8 23-21.2 15.2-32.1 20.7-30.9 27.6 2.44 14.4 10.3 6.17 28.5 12.6 17 3.38 82.2 17.2 85.2 7.6 3.27-15.2 11.5-38 11.5-59.8-5.87-19-40.1-12.7-55.2-13.4z" fill="#b9b91a"/>
   <path d="m257 82.6c-4.7 15.1-6.2 16.6-6.67 26.4-0.335 6.93 24 22 29.6 36.7 3.62 9.41-7.95 27.2 1.69 30.2 20 6.21 31.7 8.21 49.4 10.2 6.35 0.704 14.4-4.65 15.8-10.9 3.87-17.2 6.02-45.2 3.71-49.1-4.73-8.11-27-24.1-36.5-25.8-16.2-2.84-52.3-32.6-56.9-17.7z" fill="#802aec"/>
  </g>
  <path d="m347 192c7.4-6.03 10.8 1.05 28.5 3.2 12.3 1.49 22.3 10.6 30.1 27.4 5.39 11.6 4.7 21.5-2.06 29.5-4.69 5.6-17.3 1.2-37.9-13.2-14.3-10-21.5-7.96-24.8-17.5-1.82-5.34 3.54-5.2 4.99-16.2 1.01-7.62-2.2-10.4 1.21-13.2z" fill="#aa5594"/>
  <path d="m163 232q1.53-1.7 23.3-6.23 18.6-3.88 28.5 2.76 8.45 5.68 10.3 29.1 1.55 20.1-9.16 23.7-9.16 3.1-33.7-24.1-21-23.3-19.2-25.3z" fill="#557188"/>
  <path d="m145 413c11.6 4.45 12.8 3.8 17 12.8 2.68 5.78-5.14 15.8-10.4 31.4-2.49 7.35 1.02 15.5-10.6 15.5-16.4 1.36-11.5-6.02-23.5-17.6-7.68-7.39-9.08-19.5-4.2-36.4 3.12-10.8 13.7-12.7 31.8-5.79z" fill="#38c798"/>
  <path d="m270 194q0.965-8.58 5.02-11.7 3.26-2.54 37.6 3.76 27.6 5.07 25.5 20.5-1.65 12.4-32.3 14.7-24.7 1.84-31.5-8.39-5.52-8.22-4.32-18.9z" fill="#8e558b"/>
  <path d="m119 270q-0.319-0.962 5.41-17.5 2.28-6.59 23.6-13.8 8.48-2.86 41.1 33.3 12.9 14.4-2.81 32-6.26 7.02-49.4-20.6-17.1-11-17.9-13.4z" fill="#3871b0"/>
  <path d="m398 283q1.33-1.95 20.7 6.75 16.8 7.56 36.7 28 17.3 17.7 14.7 20.3-2.26 2.26-48.5 2.72-40.2 0.398-41.7-1.24-1.32-1.42 8.26-29.7 8.32-24.6 9.85-26.8z" fill="#c78e87"/>
  <path d="m131 172q19.5-3.09 25.2 5.22 6.08 8.78 4.48 28.3-1.68 20.6-3.3 22.4-1.71 1.89-16.2 6.79-15.3 5.17-18.6 0.648-3.45-4.78-6.64-31.9-3.37-28.6 15-31.5z" fill="#38557c"/>
  <path d="m417 247q2.66-3.18 30.3-10.3 5.06-1.31 14.2 24.4 1.67 4.72-20.3 26.7-4.04 4.04-34.6-9.7-5.61-2.52-4.25-12.1 0.25-1.75 14.8-19.1z" fill="#c771ce"/>
  <path d="m305 414c-6.15-0.114-9.69 1.5-10.6 4.84-6.74 23.8-21.9 33.8-17.9 37.1 12.5 10.3 26.4 21.3 34.7 18.8 20.7-6.25 51.4-1.02 66.8-12.4 19.9-19.9 30.8-26.3 27.7-34.1-3.13-7.79-31.6-4.57-54.3-8.49-14.6-2.52-39.2-5.59-46.3-5.73z" fill="#9cc7c5"/>
  <path d="m133 61.7c20.2 4.12 43.5 43.7 42.1 53.7-1.58 11.5-17.1 1.75-34.7-2.53-15.5-3.77-23-14.1-22.4-30.9 0.533-14.8-7.38-25.9 15-20.3z" fill="#381c86"/>
  <path d="m384 115c4.48-9.62 10.7-1.9 30.4-3.85 23.1-2.29 24.8-5.4 36.2-1.33 6.73 2.41 17.4-0.268 16 14.2-1.62 17-23.7 16.5-33.6 16.9-11.7 0.425-20.5 17.2-31.1 1.89-12.5-18-22.4-18.1-17.9-27.8z" fill="#c73876"/>
  <path d="m219 171q2.31-2.76 32.6 9.41 13.1 5.26 11.6 18.7-0.654 5.81-25.4 22.7-10.7 7.29-23.5-1.3-5.54-3.72-2.07-31.2 1.5-11.9 6.85-18.3z" fill="#7155ac"/>
  <path d="m43.8 211c1.13-0.287 7.2 1.41 18.2 5.08 33.6 11.2 50.9 17.5 52 19.1 3.37 4.67 4.39 8.92 3.07 12.7-4.02 11.6 2.84 17.4-3.37 20.3-16.1 7.68-29.2-11.2-46.6-26.5-9.5-8.4-34.9-25.4-23.4-30.7z" fill="#1c7145"/>
  <path d="m355 278q35.4 5.72 26.7 31.3-9.23 27.3-11.4 27.2-2.26-0.05-34.2-22.7-34-24.1-24.5-32.4 10.2-8.82 43.4-3.45z" fill="#aa8e7b"/>
  <path d="m162 354q20-12.6 27.6-6.62 34.9 27.5 33.5 30.2-6.42 12.6-13 13.9-30.2 6.3-34.2-1.04-18.3-33.8-14-36.5z" fill="#55aa35"/>
  <path d="m402 60c26.9 16.6 50.7 32.6 49.1 38.4-2.84 10.7-10 5.39-24.9 6.87-27.8 2.76-40.7-3.93-38.7-20.1 3.7-30.1 0.0545-34.1 14.5-25.1z" fill="#c71c5c"/>
  <path d="m229 133q21.2-17.7 31.8-7.52 19.8 19.1 17.5 29.8-4.3 20-6.84 22-4.77 3.71-19.9-2.36-28.3-11.4-30.2-18.7-3.7-13.7 7.65-23.2z" fill="#71385c"/>
  <path d="m331 226c-32.5 2.43-46-7.19-49 6.74-2.97 13.9-0.0252 21.2 1.74 29.7s-1.2 13 2.66 17.4c3.06 3.53 11.9 5.37 13.4 4.03 5.97-5.19 23.8-10.7 28.5-10.4 44.2 3.32 44.2 11.4 63.8 6.91 9.04-8.89 6.35-12.2 4.18-15.7-6.89-10.9-57.3-37-58.4-37.4-2.1-1.82-4.45-1.5-6.91-1.32z" fill="#9c71e4"/>
  <path d="m372 37.2q14.1-2 14.5-1 1.18 3.77-0.6 18.3-6.74 54.9-7.1 55.2-1.35 1.35-6.03 2.98-17.7 6.15-22 4.17-16.2-7.48-17.3-9.32-4.25-6.98-4.3-11.9-0.173-18.6 8.04-26.8 31-31 34.8-31.6z" fill="#aa1c3c"/>
  <path d="m175 123q1.49-0.742 26.9 14.5 8.64 5.18 12.9 20.9 1.44 5.34-4.28 12.2-1.94 2.32-33.3 8-10.7 1.93-19.5-10.8-3-4.33 8.92-32.9 4.05-9.69 8.42-11.9z" fill="#5538b8"/>
  <path d="m160 305c12.8 8.17 18.7 16.8 17.6 26-0.471 4.28-6.28 10.3-10.7 14.2-4.2 3.8-3.53 0.347-14.6 8.79-6.37 4.88-40.3-1.96-44.9-14.6-2.16-5.87 1.77-16 7.46-42.4 2.66-12.3 17.7-9.66 45.1 7.86z" fill="#388ea9"/>
  <path d="m99.4 113c11.1-4.93 25.9 1.13 46.7 6.16 12.4 3.02 15.3 12.5 8.68 28.4-3.99 9.56-13.9 15.6-29.7 18.1-9.47 1.5-21 2.24-22 1.43-4.71-3.75 5.59-11.6 6.12-32.4 0.316-12.5-18.4-17.9-9.83-21.7z" fill="#38389c"/>
  <path d="m259 214q5.57-3.79 16 11.8 1.94 2.9 4.92 49 0.554 8.58-16.9 11.9-3.25 0.627-26.3-7.31-4.28-1.48-7.13-38.2-0.529-6.83 29.4-27.2z" fill="#7171ce"/>
 </g>
</svg>
