<?xml version="1.0" encoding="UTF-8"?>
<svg width="1024" height="1024" version="1.1" viewBox="0 0 271 271" xmlns="http://www.w3.org/2000/svg">
 <g>
  <rect id="bg" width="271" height="271" fill="#202428" stroke="none"/>
  <path id="stripes" d="m-127 144 16.9 16.9 271-271-16.9-16.9zm33.9 33.9 16.9 16.9 271-271-16.9-16.9zm33.9 33.9 16.9 16.9 271-271-16.9-16.9zm33.9 33.9 16.9 16.9 271-271-16.9-16.9zm33.9 33.9 16.9 16.9 271-271-16.9-16.9zm33.9 33.9 16.9 16.9 271-271-16.9-16.9zm33.9 33.9 16.9 16.9 271-271-16.9-16.9zm33.9 33.9 16.9 16.9 271-271-16.9-16.9z" fill="#ffc000" stroke="#dfbf8f" stroke-width=".707"/>
 </g>
</svg>
